<?xml version="1.0" encoding="UTF-8"?>
<svg id="_レイヤー_5" data-name="レイヤー_5" xmlns="http://www.w3.org/2000/svg" version="1.1" viewBox="0 0 100 100">
  <!-- Generator: Adobe Illustrator 29.6.1, SVG Export Plug-In . SVG Version: 2.1.1 Build 9)  -->
  <defs>
    <style>
      .st0 {
        fill: #4ade80;
        fill-rule: evenodd;
        stroke: #22c55e;
      }
    </style>
  </defs>
  <polygon class="st0" points="49.02 73.43 48.98 73.56 48.93 73.61 48.94 73.67 48.86 73.82 48.87 73.94 48.77 74.15 48.77 74.25 48.69 74.36 48.64 74.52 48.67 74.59 48.65 74.71 48.6 74.86 48.57 74.87 48.58 74.99 48.57 75.13 48.53 75.19 48.59 75.33 48.58 75.45 48.61 75.48 48.64 75.72 48.68 75.75 48.71 75.81 48.72 76.08 48.71 76.1 48.76 76.15 48.73 76.46 48.79 76.56 48.81 76.77 48.79 76.82 48.84 76.89 48.84 77.03 48.82 77.06 48.85 77.15 48.83 77.33 48.81 77.4 48.83 77.46 48.82 77.64 48.8 77.8 48.74 77.86 48.81 77.95 48.78 78.13 48.81 78.26 48.77 78.4 48.87 78.46 48.93 78.64 48.88 78.71 48.9 78.77 48.83 78.95 48.76 79.02 48.76 79.08 48.64 79.24 48.51 79.24 48.5 79.31 48.37 79.45 48.23 79.55 48.13 79.56 48.12 79.64 47.99 79.77 48.08 79.87 48.15 80.09 48.13 80.15 48.2 80.19 48.32 80.35 48.33 80.44 48.41 80.42 48.47 80.45 48.51 80.54 48.64 80.66 48.71 80.84 48.77 80.87 48.81 80.94 48.83 81.06 48.81 81.14 48.88 81.26 48.88 81.41 48.92 81.44 48.93 81.5 48.91 81.67 48.88 81.73 48.91 81.79 48.92 81.83 48.91 81.89 48.82 82.01 48.83 82.07 48.86 82.19 48.81 82.26 48.62 82.48 48.57 82.49 48.53 82.59 48.37 82.79 48.28 82.81 48.26 82.91 48.2 82.98 48.21 83.02 48.27 83.06 48.23 83.25 48.16 83.34 48.12 83.42 48.08 83.47 48.01 83.48 48 83.5 47.92 83.51 47.84 83.64 47.85 83.75 47.7 83.78 47.61 83.83 47.46 83.83 47.38 83.73 47.33 83.73 47.33 83.62 47.29 83.58 47.23 83.61 47.19 83.58 47.15 83.59 47.09 83.48 46.95 83.39 46.92 83.29 46.89 83.25 46.85 83.25 46.78 83.1 46.75 83.02 46.74 82.89 46.53 82.95 46.47 83.06 46.42 83.12 46.39 83.17 46.35 83.2 46.17 83.25 46.07 83.2 46.06 83.12 46.03 83.09 45.97 82.94 45.98 82.78 45.91 82.69 45.82 82.43 45.83 82.35 45.78 82.27 45.76 82.19 45.82 81.94 45.88 81.82 45.92 81.77 45.92 81.58 45.95 81.45 45.92 81.37 45.95 81.11 45.9 81.09 45.86 81.1 45.81 81.25 45.83 81.31 45.82 81.38 45.74 81.46 45.72 81.61 45.62 81.79 45.64 81.86 45.59 82.02 45.55 82.04 45.54 82.08 45.57 82.13 45.52 82.43 45.59 82.47 45.61 82.61 45.7 82.66 45.8 82.9 45.85 82.92 45.9 83.15 45.89 83.2 45.92 83.27 45.85 83.45 45.77 83.5 45.59 83.48 45.41 83.35 45.37 83.26 45.39 83.17 45.36 83.09 45.23 83.19 45.21 83.3 45.14 83.41 45.13 83.61 45.1 83.66 45.14 83.76 45.13 83.85 45.04 84.02 44.93 84.1 44.94 84.23 44.91 84.29 44.86 84.33 44.86 84.44 44.8 84.61 44.83 84.67 44.82 84.79 44.79 84.88 44.74 85.16 44.78 85.23 44.78 85.35 44.72 85.46 44.75 85.51 44.7 85.65 44.62 85.74 44.64 85.79 44.64 85.85 44.49 86.06 44.34 86.1 44.12 86.07 43.98 86.01 43.94 85.95 43.85 85.89 43.78 85.73 43.7 85.64 43.69 85.45 43.58 85.21 43.55 84.76 43.5 84.7 43.46 84.5 43.46 84.45 43.39 84.35 43.37 84.29 43.38 84.17 43.35 84.09 43.31 84.08 43.3 84.18 43.2 84.26 43.06 84.27 42.91 84.33 42.81 84.31 42.7 84.42 42.65 84.42 42.64 84.44 42.66 84.48 42.65 84.55 42.62 84.62 42.56 84.64 42.61 84.69 42.63 84.88 42.63 84.93 42.6 84.99 42.6 85.05 42.35 85.18 42.3 85.25 42.03 85.19 41.93 85 41.76 85 41.72 85.11 41.66 85.21 41.63 85.35 41.58 85.37 41.42 85.53 41.33 85.57 41.28 85.66 41 85.72 40.8 85.71 40.75 85.78 40.4 85.74 40.42 85.81 40.4 86.06 40.42 86.08 40.45 86.26 40.39 86.36 40.41 86.51 40.3 86.67 40.13 86.7 40.08 86.68 39.89 86.49 39.87 86.43 39.88 86.26 39.83 86.16 39.87 86.08 39.82 86.02 39.76 85.97 39.73 85.88 39.59 85.73 39.56 85.6 39.52 85.6 39.49 85.62 39.48 85.72 39.44 85.83 39.39 85.89 39.44 85.95 39.42 86.01 39.37 86.07 39.25 86.06 39.17 85.92 39.14 85.67 39.17 85.59 39.13 85.35 39.18 85.3 39.21 85.14 39.16 85.09 38.96 85 38.76 85.19 38.78 85.3 38.72 85.35 38.68 85.37 38.55 85.33 38.46 85.23 38.39 85.35 38.37 85.42 38.31 85.43 38.25 85.41 38.22 85.47 38.24 85.53 38.21 85.59 38.15 85.65 38.07 85.69 38.01 85.67 38.02 85.42 37.99 85.41 37.94 85.31 37.95 85.08 37.73 85.03 37.71 84.98 37.62 84.97 37.5 84.91 37.33 84.85 37.26 84.77 37.24 84.8 37.17 84.8 37.12 84.77 36.96 84.77 36.97 84.83 36.94 84.87 36.8 84.95 36.76 84.94 36.73 84.98 36.56 85.09 36.55 85.06 36.47 85.06 36.43 85.11 36.29 85.15 36.16 85.14 36.13 85.19 35.87 85.18 35.8 85.14 35.78 85.18 35.51 85.16 35.45 85.2 35.37 85.19 35.33 85.14 35.25 85.08 35.21 84.95 35.28 84.92 35.28 84.88 35.33 84.83 35.39 84.81 35.46 84.7 35.3 84.7 35.18 84.67 35.17 84.61 35.12 84.64 35.04 84.62 34.86 84.5 34.86 84.45 34.79 84.44 34.71 84.37 34.59 84.59 34.57 84.68 34.4 84.82 34.33 84.82 34.23 85.05 34.39 85.06 34.43 85.1 34.43 85.19 34.4 85.27 34.43 85.35 34.37 85.5 34.33 85.51 34.28 85.57 34.27 85.65 34.17 85.86 34.23 85.93 34.19 86.11 34.15 86.14 34.2 86.23 34.13 86.26 34.09 86.33 34.02 86.39 33.97 86.38 33.98 86.43 33.96 86.44 33.85 86.43 33.8 86.38 33.77 86.33 33.69 86.43 33.57 86.46 33.57 86.54 33.49 86.66 33.44 86.69 33.46 86.74 33.36 86.8 33.28 86.76 33.32 86.64 33.25 86.58 33.18 86.43 32.94 86.33 32.74 86.33 32.69 86.43 32.65 86.44 32.59 86.53 32.6 86.75 32.47 86.99 32.31 87.05 32.17 87.07 32.03 87.24 31.98 87.24 31.96 87.31 31.75 87.44 31.68 87.42 31.6 87.44 31.46 87.42 31.2 87.3 31.02 87.19 30.93 87.1 30.74 87.04 30.73 86.97 30.54 86.8 30.54 86.74 30.42 86.69 30.39 86.74 30.41 86.84 30.4 86.89 30.42 86.94 30.46 87.19 30.5 87.23 30.56 87.41 30.58 87.41 30.59 87.64 30.55 87.67 30.45 87.7 30.33 87.68 30.29 87.64 30.21 87.61 30.11 87.45 30.1 87.39 30.01 87.3 29.95 87.19 29.96 87.09 29.88 87.06 29.84 86.89 29.84 86.85 29.74 86.77 29.73 86.71 29.68 86.67 29.66 86.56 29.67 86.47 29.66 86.42 29.7 86.36 29.74 86.28 29.82 86.28 29.88 86.22 29.95 86.22 29.97 86.13 29.89 86.03 29.87 85.97 29.65 85.95 29.62 85.91 29.58 85.8 29.59 85.67 29.67 85.59 29.7 85.39 29.74 85.32 29.7 85.26 29.67 85.09 29.71 85.05 29.66 84.92 29.64 84.76 29.67 84.73 29.63 84.49 29.39 84.41 29.37 84.36 29.24 84.33 29.16 84.34 29.09 84.31 29.05 84.45 28.99 84.47 29.02 84.5 28.97 84.66 28.92 84.66 28.87 84.6 28.79 84.64 28.73 84.57 28.69 84.55 28.65 84.49 28.65 84.37 28.56 84.17 28.46 84.2 28.4 84.31 28.36 84.32 28.35 84.41 28.31 84.46 28.2 84.52 28.12 84.49 28.07 84.52 28.02 84.47 27.96 84.41 27.96 84.29 27.89 84.32 27.83 84.39 27.79 84.42 27.69 84.44 27.69 84.48 27.65 84.52 27.42 84.57 27.35 84.51 27.29 84.59 27.15 84.64 26.96 84.65 26.66 84.56 26.56 84.48 26.57 84.46 26.51 84.43 26.46 84.33 26.48 84.23 26.45 84.14 26.35 84.09 26.26 83.98 26.26 83.85 26.29 83.8 26.44 83.62 26.54 83.63 26.63 83.44 26.58 83.19 26.55 83.17 26.46 82.98 26.45 83.01 26.44 82.93 26.34 82.71 26.38 82.64 26.38 82.53 26.5 82.36 26.46 82.2 26.35 82.01 26.34 81.97 26.37 81.91 26.3 81.86 26.31 81.62 26.29 81.59 26.23 81.36 26.16 81.35 26.09 81.14 25.8 81.09 25.7 81.18 25.59 81.24 25.59 81.32 25.36 81.41 25.36 81.44 25.26 81.52 25.18 81.53 25.12 81.51 25.11 81.56 25.03 81.68 24.97 81.69 25.01 81.76 24.95 81.94 24.91 81.99 24.95 82.09 24.98 82.24 24.98 82.28 24.87 82.27 24.81 82.2 24.8 82.06 24.71 82.05 24.6 81.92 24.59 81.86 24.55 81.86 24.47 81.63 24.42 81.62 24.34 81.43 24.3 81.43 24.21 81.36 24.14 81.25 24.12 81.21 24.09 81.22 23.89 81.14 23.87 81.18 23.98 81.3 23.98 81.38 24.03 81.42 24.17 81.69 24.35 81.81 24.41 81.96 24.51 82.02 24.49 82.15 24.41 82.18 24.45 82.27 24.35 82.36 24.3 82.37 24.26 82.4 24.2 82.52 24.24 82.72 24.21 82.79 24.23 82.86 24.06 82.97 23.99 82.98 23.95 82.94 23.89 82.98 23.7 82.9 23.67 82.84 23.58 82.83 23.49 82.78 23.44 82.73 23.38 82.73 23.23 82.66 23.06 82.47 23.01 82.41 23.01 82.35 22.92 82.31 22.82 82.2 22.8 82.23 22.73 82.23 22.59 82.21 22.56 82.17 22.35 82.15 22.31 82.11 22.28 82.04 22.22 82.02 22.21 81.89 22.01 81.88 21.94 81.76 21.8 81.67 21.74 81.59 21.71 81.59 21.69 81.63 21.59 81.67 21.53 81.66 21.48 81.61 21.45 81.64 21.26 81.56 21.29 81.45 21.29 81.17 21.19 81.21 21.08 81.21 21.01 81.15 20.95 81.15 20.79 81.08 20.76 81.06 20.73 80.97 20.66 80.97 20.34 80.69 20.34 80.6 20.31 80.6 20.25 80.45 20.26 80.36 20.2 80.13 20.17 80.13 20.17 79.82 20.13 79.75 20.18 79.59 20.2 79.58 20.27 79.48 20.33 79.44 20.48 79.51 20.52 79.6 20.59 79.57 20.75 79.69 20.76 79.79 20.83 79.85 20.92 80.11 20.94 80.1 20.99 80.2 20.98 80.33 21.02 80.38 21.09 80.59 21.33 80.63 21.32 80.58 21.34 80.54 21.39 80.48 21.49 80.47 21.54 80.5 21.6 80.6 21.75 80.75 21.8 80.86 21.74 81.01 21.7 81.01 21.7 81.32 22.22 81.56 22.32 81.58 22.5 81.57 22.55 81.31 22.39 81.01 21.27 80.01 21.12 79.95 21.09 79.9 21 79.87 20.9 79.77 20.88 79.71 20.88 79.63 20.71 79.47 20.71 79.32 20.65 79.18 20.64 79.08 20.6 78.92 20.59 78.84 20.63 78.79 20.6 78.77 20.56 78.71 20.52 78.52 20.53 78.49 20.41 78.36 20.42 78.25 20.45 78.19 20.56 78.17 20.64 78.19 20.69 78.26 20.84 78.32 21 78.45 21.03 78.62 21.19 78.72 21.24 78.85 21.38 78.83 21.34 78.71 21.29 78.71 21.24 78.66 21.24 78.52 21.2 78.51 21.15 78.44 21.13 78.34 21.1 78.34 21.05 78.26 21.03 78.18 20.97 78.13 20.96 78 20.99 77.94 21 77.83 20.95 77.54 21.04 77.49 21.01 77.33 21.02 77.25 20.96 77.16 20.93 76.95 20.95 76.87 21.01 76.78 21.2 76.72 21.17 76.63 21.2 76.56 21.2 76.52 21.15 76.44 21.13 76.36 21.19 76.19 21.14 76.01 21.21 75.96 21.18 75.89 21.24 75.78 21.15 75.68 21.05 75.79 20.99 75.91 20.88 75.96 20.87 75.99 20.86 76.04 20.73 76.21 20.71 76.37 20.66 76.41 20.58 76.36 20.52 76.35 20.47 76.31 20.46 76.24 20.42 76.15 20.44 76.06 20.38 76.02 20.34 75.93 20.33 75.85 20.34 75.75 20.41 75.59 20.68 75.43 20.88 75.2 20.93 75.03 20.8 74.88 20.8 74.83 20.85 74.63 20.88 74.61 20.96 74.41 21.04 74.36 21.07 74.2 21.17 74.07 21.13 74.02 21.17 73.82 21.13 73.76 21.15 73.6 21.2 73.46 21.34 73.37 21.36 73.31 21.46 73.31 21.55 73.21 21.64 73.23 21.7 73.16 21.76 73.13 21.96 73.13 21.92 73.09 21.91 73.04 21.82 72.97 21.77 72.83 21.8 72.77 21.84 72.53 21.91 72.47 21.9 72.3 21.97 72.18 22.07 72.16 22.07 72.08 22.15 71.92 22.23 71.9 22.25 71.83 22.4 71.76 22.47 71.76 22.52 71.64 22.54 71.54 22.43 71.37 22.45 71.3 22.28 71.25 22.14 71.06 22.12 70.95 22.27 70.59 22.3 70.46 22.33 70.41 22.33 70.39 22.32 70.39 22.35 70.33 22.4 70.33 22.39 70.23 22.37 70.24 22.38 70.19 22.46 69.92 22.58 69.72 22.59 69.59 22.62 69.49 22.69 69.45 22.69 69.29 22.67 69.25 22.71 69.05 22.81 69 22.87 68.91 22.91 68.9 23.08 68.89 23.25 68.96 23.34 68.88 23.53 68.88 23.67 68.94 23.81 68.87 23.97 68.87 24.03 68.83 24.1 68.76 24.22 68.76 24.37 68.66 24.52 68.7 24.58 68.59 24.83 68.4 24.87 68.33 25.07 68.15 25.11 68.17 25.16 68.1 25.33 68.06 25.46 68.09 25.56 68.03 25.8 68.07 25.87 68.03 26.19 68.09 26.28 67.92 26.34 67.85 26.41 67.83 26.42 67.77 26.51 67.68 26.59 67.66 26.61 67.63 26.69 67.59 26.93 67.53 26.91 67.49 26.89 67.4 26.91 67.26 26.95 67.13 27.08 67 27.16 67 27.29 66.92 27.44 66.91 27.6 66.98 27.73 67.23 27.73 67.31 27.76 67.32 27.89 67.25 27.96 67.28 28.01 67.21 28.21 67.12 28.29 67.12 28.33 67.16 28.36 67.11 28.41 67.08 28.51 67.02 28.6 67.02 28.76 66.84 28.92 66.79 29.01 66.82 29.06 66.77 29.15 66.72 29.18 66.71 29.21 66.75 29.25 66.73 29.3 66.67 29.4 66.66 29.52 66.72 29.55 66.71 29.56 66.66 29.75 66.6 29.84 66.61 29.84 66.57 29.99 66.46 30.12 66.43 30.23 66.28 30.32 66.24 30.4 66.23 30.59 66.15 30.63 66.14 30.68 66.18 30.73 66.18 30.79 66.14 30.94 66.17 30.98 66.19 31 66.26 31.09 66.21 31.34 66.19 31.4 66.25 31.61 66.29 31.67 66.26 31.82 66.26 31.91 66.23 31.95 66.25 32.01 66.21 32.26 66.23 32.28 66.26 32.35 66.2 32.57 66.16 32.63 66.19 32.71 66.15 32.84 66.15 32.89 66.2 32.92 66.2 32.98 66.16 33.07 66.16 33.21 66.19 33.25 66.26 33.48 66.23 33.66 66.17 33.74 66.13 33.83 66.03 33.9 65.92 34.04 65.59 34.16 65.22 34.31 64.57 34.35 64.28 34.47 63.94 34.59 63.68 34.73 63.07 34.83 62.22 34.92 61.81 34.94 61.45 34.94 61.2 34.89 60.42 34.83 60.4 34.71 60.28 34.66 60.14 34.61 60.12 34.56 60.05 34.5 59.87 34.45 59.83 34.38 59.62 34.38 59.51 34.36 59.5 34.33 59.38 34.31 59.33 34.31 59.16 34.27 59.08 34.22 58.77 33 58.36 32.51 58.19 32.38 58.03 32.03 57.47 31.75 57.14 31.56 56.79 31.32 56.13 28.68 56.61 28.61 56.29 32.75 55.49 32.73 55.22 32.68 55.19 32.72 55.08 32.91 55.16 33.03 55.62 33.18 56.02 33.1 56.04 33 55.81 32.61 55.88 32.47 56.28 32.51 56.37 32.73 56.45 32.77 56.51 33.08 56.35 33.09 56.14 33.19 56.11 33.38 56.78 32.88 56.74 32.88 56.88 33.14 57.24 33.19 57.46 34.31 57.46 34.22 56.9 33.9 56.86 33.91 56.74 34.13 56.76 34.33 55.74 34.23 55.25 34.21 55.1 34.24 54.93 34.24 54.83 34.22 54.62 34.22 54.42 34.2 54.34 34.12 54.23 33.7 53.62 33.15 53.63 32.9 53.2 32.78 52.94 32.58 52.38 32.43 52.36 32.36 52.23 32.21 52.16 32.19 52.14 32.18 51.97 32.22 51.95 32.2 51.72 32.29 51.57 32.32 51.54 32.37 51.53 32.37 51.51 32.32 51.45 32.26 51.34 32.27 51.3 32.26 51.28 32.22 51.27 32.17 51.04 32.18 50.99 32.12 50.92 32.12 50.88 32.35 50.73 32.41 50.73 32.52 50.53 32.51 50.47 32.38 50.26 32.39 50.19 32.33 50.15 32.3 49.94 32.32 49.89 32.26 49.78 32.24 49.66 32.26 49.52 32.18 49.53 32.14 49.47 32.09 49.25 31.95 49.16 31.86 48.95 31.76 48.79 31.8 48.62 31.88 48.57 31.85 48.45 31.87 48.26 31.92 48.21 31.85 48.07 31.86 47.99 31.9 47.94 31.87 47.78 31.88 47.72 31.93 47.65 31.9 47.49 31.92 47.39 31.92 47.3 32 47.18 32 47.11 32.06 47.1 32.08 47.02 32.18 47.02 32.27 46.97 32.33 46.95 32.33 46.97 32.56 46.96 32.63 46.98 32.68 46.91 32.77 46.95 32.93 46.95 32.95 46.98 33.14 46.87 33.26 46.83 33.27 46.79 33.25 46.77 33.29 46.68 33.45 46.56 33.55 46.57 33.61 46.53 33.69 46.56 33.79 46.62 33.86 46.72 33.96 46.64 34.12 46.57 34.2 46.58 34.24 46.52 34.38 46.44 34.42 46.43 34.47 46.46 34.49 46.41 34.65 46.36 34.75 46.35 34.8 46.39 34.84 46.36 34.97 46.33 35.06 46.32 35.14 46.35 35.17 46.3 35.22 46.29 35.26 46.22 35.35 46 35.37 45.8 35.38 45.57 35.39 45.45 35.4 45.27 35.38 45.09 35.32 44.97 35.3 44.92 35.25 44.86 35.23 44.77 35.08 44.67 34.91 44.66 34.87 44.63 34.84 44.57 34.64 44.49 34.59 44.45 34.59 44.39 34.38 44.29 34.36 44.24 34.31 44.23 34.13 44.31 34.07 44.31 34.02 44.27 33.83 44.34 33.77 44.32 33.7 44.41 33.52 44.42 33.46 44.44 33.43 44.42 33.19 44.42 33.15 44.34 32.92 44.21 32.89 44.22 32.88 44.14 32.9 44.1 32.75 43.96 32.53 44.01 32.49 43.92 32.44 43.92 32.38 43.79 32.38 43.62 32.25 43.46 32.22 43.3 32.13 43.22 32.1 43.09 32.07 43.08 32 43 31.97 42.84 31.76 42.75 31.73 42.68 31.65 42.69 31.49 42.61 31.46 42.59 31.42 42.5 31.35 42.5 31.24 42.36 31.19 42.4 31.04 42.41 31.05 42.45 30.98 42.54 30.7 42.56 30.62 42.5 30.58 42.43 30.6 42.37 30.58 42.3 30.59 42.1 30.42 42.11 30.34 42.19 30.32 42.17 30.23 42.56 30.19 42.57 30.08 42.57 29.98 42.47 29.91 42.46 29.77 42.38 29.74 42.33 29.76 42.22 29.72 42.19 29.67 42 29.72 41.93 29.69 41.84 29.81 41.71 29.81 41.73 29.98 41.74 30.05 41.77 30.11 41.73 29.98 41.63 29.97 41.56 29.91 41.6 29.81 41.58 29.73 41.53 29.73 41.48 29.71 41.47 29.65 41.35 29.63 41.23 29.66 41.22 29.68 41.15 29.75 40.82 29.86 40.72 29.85 40.6 29.87 40.57 29.87 40.53 29.89 40.53 29.89 40.49 29.86 40.47 29.83 40.36 29.82 40.26 29.87 40.19 29.82 40.16 29.79 40.11 29.78 39.99 29.86 39.93 29.87 39.89 29.7 39.84 29.67 39.77 29.59 39.75 29.56 39.68 29.56 39.59 29.61 39.54 29.57 39.48 29.58 39.24 29.6 39.21 29.58 39.17 29.59 39.13 29.57 39.12 29.71 38.94 29.75 38.95 29.78 38.84 29.94 38.75 30.05 38.77 30.1 38.73 30.28 38.68 30.38 38.71 30.48 38.67 30.55 38.57 30.61 38.55 30.76 38.59 30.93 38.57 31.05 38.67 31.13 38.55 31.17 38.51 31.19 38.54 31.39 38.51 31.49 38.6 31.6 38.59 31.81 38.67 31.85 38.72 31.88 38.72 31.92 38.68 32 38.68 32.16 38.74 32.19 38.67 32.36 38.59 32.43 38.62 32.58 38.41 32.68 38.4 32.67 38.3 32.72 38.28 32.8 38.17 32.87 38.15 32.88 38.09 33.05 37.95 33.12 37.95 33.2 37.84 33.29 37.76 33.28 37.68 33.3 37.61 33.38 37.56 33.56 37.59 33.61 37.62 33.63 37.67 33.73 37.67 33.9 37.73 33.9 37.79 34.02 37.78 34.15 37.84 34.23 37.93 34.56 37.93 34.57 37.89 34.66 37.89 34.77 37.97 34.83 38.01 34.85 38.13 34.8 38.26 34.73 38.35 34.65 38.95 34.77 38.45 34.84 38.34 34.91 38.32 34.99 38.27 35 38.19 34.97 38.11 34.96 38.04 34.98 37.95 35.08 37.93 35.19 37.95 35.27 37.95 35.32 37.89 35.5 37.89 35.58 37.94 35.65 37.9 35.83 38 35.9 37.9 35.86 37.82 35.95 37.65 36.08 37.57 36.1 37.49 36.15 37.43 36.17 37.37 36.38 37.25 36.45 37.25 36.48 37.2 36.62 37.15 36.66 37.15 36.71 37.18 36.76 37.16 36.91 37.2 36.92 37.27 37.08 37.44 37.13 37.45 37.4 37.11 37.76 36.68 37.89 36.46 37.95 36.31 38.19 35.55 38.38 34.61 38.62 33.99 38.64 33.9 38.73 33.19 38.73 33.05 38.71 31.92 38.62 31.57 38.52 31.6 38.42 31.62 38.3 31.65 38.14 31.66 38.1 31.63 38.06 31.64 38.03 31.73 37.99 31.75 37.95 31.71 37.91 31.7 37.83 31.54 37.86 31.46 37.85 31.36 37.91 31.32 38.01 31.33 38 31.26 37.86 31.09 37.85 31.04 37.78 30.98 37.72 30.74 37.78 30.52 37.84 30.45 37.92 30.44 37.98 30.32 38.07 30.23 38.05 30.18 38.05 30.09 38.06 30.04 38.09 29.97 38.05 29.93 38.05 29.73 38.09 29.68 38.04 29.59 38.04 29.36 37.99 29.22 38.04 29.13 37.95 28.94 37.95 28.86 37.92 28.82 37.88 28.57 37.84 28.53 37.75 28.59 37.72 28.59 37.68 28.69 37.64 28.69 37.55 28.66 37.55 28.56 37.46 28.55 37.38 28.49 37.34 28.42 37.18 28.36 37.11 28.36 37.04 28.39 36.91 28.3 36.84 28.3 36.72 28.09 36.65 28.07 36.56 27.93 36.45 27.7 36.48 27.63 36.43 27.58 36.42 27.55 36.5 27.41 36.56 27.37 36.52 27.27 36.53 27.14 36.56 27.05 36.59 27.02 36.56 26.93 36.62 26.86 36.75 26.79 36.82 26.81 37.11 26.62 37.15 26.55 37.33 26.44 37.39 26.44 37.52 26.32 37.6 26.28 37.67 26.1 37.67 25.87 37.62 25.75 37.57 25.73 37.52 25.61 37.43 25.54 37.42 25.5 37.29 25.42 37.27 25.32 37.16 25.27 37.06 25.08 36.75 24.9 36.7 24.81 36.62 24.87 36.55 24.84 36.4 24.66 36.37 24.66 36.27 24.61 36.23 24.41 36.32 24.36 36.27 24.21 36.31 24.13 36.24 24.05 36.2 23.88 36.1 23.91 36.1 23.88 35.99 23.87 35.91 23.86 35.91 23.76 35.82 23.74 35.8 23.71 35.79 23.59 35.8 23.56 35.89 23.5 35.96 23.24 36.05 23.09 36.1 23.12 36.15 22.91 36.06 22.76 35.98 22.82 35.86 22.72 35.87 22.65 35.83 22.58 35.89 22.45 35.96 22.41 35.94 22.31 35.99 22.16 36.07 22.11 36.11 22.13 36.15 22.11 36.34 22.16 36.38 22.22 36.43 22.06 36.47 22.06 36.46 22.01 36.52 21.86 36.46 21.82 36.43 21.76 36.37 21.75 36.33 21.56 36.32 21.44 36.33 21.3 36.38 21.25 36.37 21.16 36.44 21.05 36.53 21.04 36.59 20.99 36.64 20.99 36.68 21.03 36.7 21.1 36.7 21.19 36.76 21.19 36.78 21.28 36.75 21.35 36.78 21.43 36.87 21.43 36.92 21.48 36.89 21.61 36.91 21.69 36.95 21.81 37 21.79 37.03 21.72 37.04 21.65 37.03 21.49 37.01 21.38 36.99 21.32 36.99 21.28 37.16 21.22 37.18 21.13 37.24 21.06 37.13 20.98 37.07 20.97 37.07 20.74 37.09 20.71 37.09 20.59 37.13 20.52 37.18 20.53 37.21 20.59 37.4 20.66 37.43 20.73 37.48 20.88 37.69 20.88 37.91 20.85 38.23 20.83 38.65 20.73 38.92 20.62 38.96 20.33 38.92 20.01 38.96 19.67 39.07 19.39 39.08 18.9 39.01 18.5 38.92 18.2 38.73 17.89 38.75 17.66 38.92 17.52 38.96 17.31 38.86 17.01 38.82 16.8 38.81 16.59 38.82 16.33 38.91 16.05 39 15.77 39.08 15.46 39.09 15.2 39.23 14.96 39.42 14.72 39.45 14.64 39.59 14.64 39.78 14.63 39.93 14.57 39.95 14.49 40.02 14.49 40.11 14.41 40.19 14.4 40.2 14.31 40.25 14.28 40.31 14.26 40.34 14.19 40.43 14.12 40.49 14.02 40.5 13.98 40.49 13.94 40.58 13.74 40.71 13.67 40.81 13.72 40.97 13.75 40.98 13.7 41.09 13.59 41.16 13.58 41.17 13.49 41.27 13.43 41.34 13.43 41.36 13.38 41.59 13.24 41.59 13.2 41.81 13.08 41.86 13.1 41.88 13.03 42.08 12.97 42.15 12.97 42.15 12.91 42.21 12.91 42.35 12.83 42.44 12.84 42.46 12.78 42.59 12.75 42.74 12.75 42.74 12.71 42.86 12.67 42.94 12.66 42.99 12.69 42.99 12.66 43.07 12.63 43.3 12.63 43.86 12.44 43.94 12.35 44.04 12.3 44.12 12.35 44.21 12.32 44.28 12.37 44.41 12.41 44.43 12.44 44.51 12.39 44.62 12.37 44.71 12.37 44.73 12.4 44.77 12.36 44.86 12.33 45.02 12.36 45.04 12.4 45.07 12.39 45.09 12.35 45.32 12.37 45.35 12.41 45.4 12.37 45.55 12.46 45.6 12.56 45.71 12.55 45.86 12.65 45.91 12.64 46.05 12.77 46.04 12.86 46.19 13.01 46.23 13.2 46.29 13.26 46.35 13.4 46.34 13.49 46.44 13.58 46.39 13.73 46.37 13.86 46.45 13.85 46.62 13.75 46.79 13.69 46.83 13.69 47.04 13.96 47.26 14 47.3 14.03 47.35 14.03 47.35 13.99 47.58 13.98 47.71 13.92 48.11 13.81 48.16 13.82 48.19 13.86 48.25 13.86 48.42 13.93 48.47 13.98 48.49 14.03 48.53 14.03 48.59 14.07 48.64 14.16 48.64 14.25 48.61 14.36 48.69 14.44 48.7 14.51 48.73 14.56 48.73 14.59 48.86 14.62 48.88 14.66 48.88 14.7 48.79 14.99 48.67 15.02 48.69 15.16 48.67 15.44 48.73 15.46 49.08 15.76 49.22 15.86 49.26 15.86 49.3 15.93 49.39 15.97 49.53 16.07 49.58 16.05 49.63 16.08 49.67 16.07 49.77 16.1 49.81 16.13 49.85 16.11 50.01 16.15 50.06 16.19 50.11 16.15 50.31 16.21 50.32 16.3 50.42 16.32 50.55 16.43 50.54 16.49 50.58 16.5 50.59 16.57 50.67 16.7 50.67 16.74 50.64 16.79 50.68 16.81 50.72 17 50.71 17.06 50.77 17.09 50.82 17.16 50.88 17.35 51.06 17.58 51.04 17.65 51.23 17.86 51.4 17.95 51.72 18.14 52.01 18.14 52.07 18.13 52.25 18.16 52.32 18.07 52.45 18.06 52.56 18.06 52.61 18.09 52.64 18.04 52.71 18.01 52.9 17.98 52.98 17.9 53.19 17.86 53.26 17.77 53.41 17.69 53.49 17.69 53.48 17.66 53.56 17.59 53.69 17.51 53.79 17.52 53.78 17.46 53.86 17.44 53.92 17.35 53.98 17.32 54.04 17.35 54.07 17.31 54.17 17.27 54.34 17.26 54.39 17.27 54.43 17.25 54.68 17.31 54.69 17.34 54.77 17.31 54.89 17.4 54.96 17.54 55.01 17.51 55.15 17.52 55.26 17.47 55.48 17.43 55.57 17.46 55.63 17.4 55.87 17.39 55.92 17.45 55.96 17.39 56.21 17.38 56.3 17.45 56.33 17.41 56.5 17.39 56.59 17.39 56.64 17.45 56.68 17.41 56.88 17.41 56.98 17.47 57.09 17.47 57.16 17.49 57.23 17.56 57.36 17.52 57.42 17.55 57.45 17.61 57.55 17.59 57.76 17.64 57.81 17.71 57.87 17.68 58.09 17.72 58.14 17.81 58.22 17.8 58.46 17.84 58.48 17.85 58.5 17.9 58.57 17.87 58.82 18.02 59.09 18.1 59.11 18.13 59.19 18.13 59.41 18.3 59.49 18.31 59.65 18.45 59.81 18.55 60.02 18.77 60.05 18.85 60.05 18.9 60.1 18.95 60.22 19.06 60.25 19.11 60.24 19.16 60.44 19.34 60.46 19.45 60.62 19.63 60.77 19.71 60.83 19.81 61.02 19.95 61.13 20.05 61.23 20.05 61.47 20.22 61.78 20.37 61.82 20.42 62 20.49 62.28 20.63 62.46 20.71 62.6 20.7 62.67 20.74 62.7 20.73 62.86 20.79 62.89 20.84 63 20.85 63.15 20.95 63.22 20.94 63.38 21.03 63.43 21.08 63.47 21.08 63.63 21.21 63.65 21.26 63.74 21.26 64.03 21.47 64.26 21.74 64.35 21.73 64.49 21.83 64.52 21.9 64.63 21.89 64.68 21.91 64.84 22.05 64.92 22.05 65.14 22.12 65.23 22.17 65.88 22.41 65.92 22.42 65.95 22.44 65.97 22.47 66.2 22.55 66.23 22.6 66.38 22.65 66.43 22.68 66.58 22.68 66.76 22.82 66.91 22.82 67.03 22.88 67.09 22.96 67.17 22.94 67.26 23.02 67.33 23.11 67.48 23.15 67.68 23.24 67.68 23.25 67.74 23.27 67.85 23.37 68.07 23.38 68.22 23.41 68.2 23.43 68.38 23.55 68.5 23.49 68.71 23.59 68.81 23.7 68.81 23.73 68.88 23.7 69.03 23.71 69.1 23.76 69.37 23.88 69.47 24 69.67 24.08 69.7 24.11 69.76 24.12 69.8 24.15 69.92 24.19 69.98 24.29 70.07 24.27 70.31 24.38 70.33 24.46 70.43 24.45 70.61 24.54 70.72 24.63 70.72 24.7 70.73 24.73 70.84 24.69 70.95 24.69 71.01 24.73 71.07 24.8 71.11 24.93 71.29 25.04 71.31 25.24 71.35 25.26 71.39 25.32 71.4 25.48 71.48 25.62 71.49 25.79 71.53 25.84 71.64 25.88 71.7 26.11 71.68 26.19 71.73 26.21 71.82 26.37 72.02 26.45 72.07 26.58 72.17 26.7 72.26 26.75 72.26 26.79 72.52 26.97 72.52 27.01 72.58 27.07 72.65 27.07 72.8 27.22 72.8 27.32 72.83 27.35 72.93 27.39 73 27.56 73.05 27.57 73.11 27.64 73.14 27.69 73.16 27.81 73.3 27.85 73.45 28.02 73.43 28.15 73.55 28.25 73.6 28.34 73.63 28.33 73.64 28.39 73.76 28.29 73.84 28.29 73.86 28.36 73.96 28.29 74.02 28.29 74.12 28.36 74.13 28.43 74.08 28.5 74.07 28.61 74.03 28.65 73.99 28.66 73.96 28.64 73.91 28.66 73.9 28.71 73.79 28.89 73.79 28.97 73.85 29.03 73.9 29.11 73.92 29.17 73.9 29.18 73.9 29.21 73.99 29.31 74.04 29.47 74.03 29.62 74.05 29.62 74.07 29.67 74.15 29.69 74.1 30.28 74.15 30.38 74.13 30.53 74.1 30.56 74.12 30.6 74.12 30.76 74.16 30.8 74.31 30.82 74.36 30.87 74.43 30.88 74.47 30.93 74.47 30.99 74.42 31.08 74.31 31.06 74.25 31.18 74.16 31.17 74.14 31.24 73.95 31.43 73.9 31.51 73.84 31.53 73.8 31.69 73.8 31.78 73.89 32.21 74.1 32.81 74.21 33.08 74.46 33.98 74.71 34.58 74.77 34.81 74.72 35.05 74.7 35.37 74.73 35.52 74.7 35.95 74.71 36.38 74.77 36.76 74.87 37.18 74.89 37.39 74.81 37.61 74.73 37.86 74.72 38.06 74.76 38.08 74.77 38.12 74.78 38.35 74.83 38.4 74.83 38.56 74.88 38.6 74.91 38.66 74.91 38.75 74.94 38.87 74.89 39 74.93 39.04 74.89 39.26 74.84 39.31 74.85 39.36 74.91 39.39 74.89 39.61 74.98 39.69 74.97 39.76 75.05 39.85 75.04 40 75 40.04 75.01 40.11 75.06 40.18 75.08 40.31 75.04 40.36 75.09 40.45 75.09 40.64 75.14 40.69 75.23 40.87 75.23 40.93 75.19 40.97 75.26 41.07 75.26 41.12 75.33 41.15 75.4 41.12 75.57 41.26 75.58 41.48 75.61 41.57 75.59 41.66 75.69 41.77 75.73 41.77 75.73 41.79 75.8 41.83 75.84 41.97 75.76 42.14 75.7 42.19 75.58 42.21 75.54 42.18 75.51 42.27 75.43 42.29 75.34 42.29 75.29 42.21 75.25 42.29 75.14 42.39 75.21 42.59 75.27 42.64 75.3 42.73 75.32 42.82 75.32 42.95 75.38 43.34 75.49 43.52 75.56 43.56 75.9 43.85 76.05 43.8 76.19 43.81 76.22 43.87 76.11 43.92 76.02 44.02 76.02 44.05 76.09 44.13 76.08 44.29 76.19 44.34 76.27 44.42 76.41 44.43 76.47 44.46 76.61 44.44 76.7 44.5 76.71 44.48 76.75 44.58 76.8 44.59 76.93 44.73 76.96 44.82 77.12 44.9 77.15 44.96 77.36 44.96 77.65 45.13 77.68 45.19 77.74 45.19 77.82 45.23 77.87 45.28 77.88 45.34 77.98 45.37 78.12 45.51 78.17 45.61 78.25 45.61 78.31 45.68 78.35 45.74 78.37 45.89 78.47 45.97 78.58 46.32 78.69 46.46 78.84 46.56 78.93 46.7 79.07 46.7 79.19 46.68 79.42 46.9 79.42 46.97 79.38 47.04 79.4 47.13 79.38 47.23 79.34 47.26 79.21 47.31 79.05 47.41 79.03 47.45 78.96 47.49 78.9 47.48 78.87 47.56 78.69 47.71 78.69 47.78 78.52 48.06 78.47 48.1 78.34 48.13 78.31 48.18 78.21 48.26 78.1 48.27 78.03 48.36 77.91 48.45 77.87 48.45 77.81 48.57 77.68 48.69 77.63 48.86 77.56 48.98 77.58 49.03 77.47 49.19 77.39 49.22 77.33 49.44 77.33 49.53 77.29 49.66 77.24 49.69 77.19 49.91 77.21 49.94 77.32 50.07 77.4 50.1 77.43 50.14 77.43 50.35 77.37 50.42 77.31 50.42 77.16 50.35 77.04 50.39 76.95 50.47 76.95 50.57 76.87 50.85 76.86 50.96 76.88 51.43 76.99 52.43 77.01 52.75 77.04 52.95 77.18 53.29 77.39 53.7 77.6 54.04 77.94 54.5 78.15 54.84 78.49 55.66 78.61 56.07 78.64 56.09 78.67 56.28 78.72 56.28 78.85 56.38 78.87 56.45 78.98 56.45 79.03 56.61 78.99 56.66 78.98 56.72 78.91 56.79 78.92 56.83 78.81 56.85 78.75 56.83 78.7 56.86 78.52 56.85 78.46 56.81 78.39 56.87 78.3 56.89 78.34 57.09 78.31 57.18 78.41 57.23 78.49 57.35 78.64 57.34 78.77 57.43 79.02 57.45 79.12 57.44 79.27 57.49 79.37 57.56 79.42 57.53 79.58 57.66 79.64 57.76 79.73 57.79 79.78 57.96 79.74 57.99 79.75 58.01 79.82 58.01 79.87 58.14 79.87 58.21 79.81 58.28 79.84 58.35 79.83 58.41 79.68 58.49 79.66 58.6 79.51 58.75 79.52 58.9 79.46 58.96 79.36 59.09 79.25 59.1 79.17 59.21 79.03 59.25 78.9 59.25 78.83 59.35 78.72 59.43 78.66 59.43 78.64 59.51 78.55 59.62 78.59 59.66 78.65 59.87 78.63 59.93 78.71 60.01 78.79 60.25 78.78 60.31 78.85 60.33 78.89 60.38 78.93 60.49 78.93 60.58 78.98 60.61 79.01 60.73 79 60.85 79.06 60.92 79.06 61.06 79.03 61.13 79.1 61.25 79.08 61.53 78.97 61.61 78.91 61.95 78.96 61.99 79 62.21 78.97 62.31 78.97 62.4 78.86 62.42 78.79 62.38 78.72 62.37 78.55 62.22 78.51 62.11 78.4 62.05 78.34 61.99 78.23 61.96 78 61.8 77.94 61.65 77.87 61.67 77.78 61.64 77.73 61.58 77.72 61.53 77.62 61.5 77.49 61.35 77.4 61.35 77.28 61.26 77.19 61.3 77.12 61.29 77.06 61.28 76.99 61.22 76.89 61.28 76.78 61.3 76.67 61.29 76.65 61.33 76.58 61.34 76.4 61.33 76.37 61.36 76.3 61.36 76.15 61.32 76.04 61.35 75.69 61.22 75.63 61.15 75.48 61.13 75.33 61.04 75.19 61.04 75.17 61.26 75.24 61.44 75.24 61.52 75.2 61.58 75.17 61.6 75.12 61.81 75.06 61.86 74.99 61.87 74.86 61.8 74.82 61.8 74.72 61.96 74.72 62.02 74.64 62.07 74.67 62.12 74.67 62.24 74.54 62.33 74.43 62.36 74.31 62.3 74.26 62.34 73.91 62.22 73.82 62.07 73.81 61.63 73.72 61.52 73.7 61.38 73.61 61.29 73.59 61.23 73.6 61.14 73.57 61.1 73.5 60.88 73.52 60.83 73.48 60.68 73.46 60.52 73.44 60.49 73.37 60.31 73.37 60.11 73.33 59.89 73.35 59.87 73.31 59.79 73.3 59.55 73.25 59.52 73.17 59.24 73.13 59.24 73.07 59.18 73 59.11 73 59.07 72.92 59.04 72.83 58.97 72.79 58.91 72.61 58.72 72.61 58.68 72.51 58.65 72.36 58.51 72.3 58.39 72.33 58.28 72.36 58.27 72.36 58.18 72.43 58 72.48 57.95 72.46 57.89 72.52 57.62 72.54 57.59 72.33 57.47 72.34 57.35 72.26 57.3 72.11 57.24 71.88 57.14 71.64 57.09 71.53 57.05 71.41 57.06 71.34 57.02 71.29 57.03 71.27 57.06 71.11 57.09 71.05 57.09 70.95 57.04 70.91 57.07 70.81 57.11 70.69 57.08 70.63 57.16 70.57 57.19 70.44 57.19 70.37 57.17 70.28 57.22 70.21 57.23 70.14 57.21 70.11 57.17 70.06 57.23 69.88 57.32 69.73 57.31 69.45 57.25 69.27 57.24 69.19 57.29 69.09 57.29 68.74 57.51 68.54 57.66 68.44 57.75 68.44 57.83 68.29 57.93 68.23 57.95 68.19 58 68.14 58.03 68.04 57.97 67.99 57.97 67.97 58.01 67.8 58.03 67.8 58 67.42 58.1 66.97 58.37 66.65 58.5 66.18 58.64 65.65 58.9 65.63 58.94 65.65 59.02 65.57 59.1 65.48 59.15 65.46 59.24 65.41 59.31 65.33 59.38 65.33 59.47 65.25 59.58 65.22 59.58 65.17 59.61 65.14 59.7 65.01 59.78 65 59.85 64.86 59.95 64.83 60 64.75 60.03 64.62 60.05 64.56 60.09 64.27 60.06 64.24 60.08 64.22 60.06 64.1 60.07 63.78 60.17 63.5 60.33 63.24 60.53 63.12 60.57 62.82 60.58 62.41 60.97 62.17 61.11 62.03 61.14 61.77 61.14 61.49 61.1 61.18 61.15 60.66 61.35 60.31 61.53 59.84 61.79 58.89 62.56 58.61 62.94 57.91 63.93 57.24 65.36 57.72 65.68 57.65 65.87 60.55 67.23 60.44 67.52 60.39 67.51 56.45 65.7 56.34 65.9 56.08 66.57 55.87 67.43 56.24 67.42 56.22 68.61 56.93 69.5 56.96 69.52 57.41 69.48 57.67 69.4 57.31 68.13 57.78 67.28 57.99 67.38 57.53 68.2 57.92 69.47 58.04 69.45 58.09 69.46 58.11 69.5 58.18 69.48 58.24 69.53 58.33 69.62 58.34 69.69 58.41 69.71 58.44 69.89 58.29 70.09 58.06 70.21 58.05 70.26 59.14 70.75 61.22 67.71 61.6 67.94 59.21 71.32 59.08 71.23 59.06 71.32 59.13 71.37 59.15 71.41 59.17 71.52 59.22 71.6 59.27 71.63 59.29 71.67 59.31 71.86 59.28 71.91 59.31 71.97 59.26 72.03 59.13 72.08 58.95 72.01 58.87 72.02 58.86 72.06 58.89 72.18 58.88 72.27 58.91 72.33 59.02 72.26 59.05 72.2 59.1 72.21 59.34 72.31 59.38 72.46 59.52 72.47 59.5 72.56 59.57 72.6 59.57 72.84 59.56 72.9 59.57 73.01 59.52 73.15 59.47 73.18 59.25 73.12 59.19 73.19 59.1 73.2 59.03 73.2 58.96 73.16 58.88 73.2 58.73 73.15 58.73 73.29 58.66 73.36 58.63 73.59 58.59 73.67 58.53 73.74 58.46 73.74 58.41 73.84 58.35 73.89 58.29 73.89 58.35 74.04 58.33 74.07 58.41 74.19 58.4 74.25 58.28 74.33 58.22 74.33 58.19 74.29 58.17 74.31 58.02 74.3 57.91 74.21 57.82 74.23 57.72 74.22 57.68 74.31 57.77 74.42 57.82 74.43 57.88 74.5 57.91 74.62 57.87 74.68 57.71 74.73 57.71 74.72 57.63 74.7 57.6 74.63 57.54 74.68 57.47 74.71 57.42 74.95 57.52 74.94 57.67 75.04 57.66 75.19 57.56 75.24 57.49 75.24 57.44 75.15 57.39 75.15 57.34 75.18 57.15 75.14 57.14 75.06 57.03 75.07 56.99 74.99 56.9 74.91 56.86 74.83 56.8 74.83 56.78 74.83 56.8 74.92 56.73 75.07 56.64 75.17 56.54 75.22 56.43 75.25 56.37 75.15 56.28 75.13 56.2 75.05 56.18 74.88 56.11 74.82 56.09 74.7 56.12 74.52 56.03 74.5 55.97 74.42 55.84 74.5 55.73 74.47 55.7 74.42 55.63 74.48 55.52 74.48 55.47 74.44 55.42 74.43 55.33 74.51 55.38 74.52 55.42 74.57 55.42 74.64 55.48 74.62 55.56 74.66 55.62 74.71 55.65 74.81 55.73 74.79 55.87 74.89 55.89 74.97 55.99 74.98 56.03 75.03 56.02 75.1 56.11 75.1 56.17 75.18 56.18 75.29 56.29 75.33 56.31 75.39 56.28 75.46 56.3 75.51 56.37 75.66 56.43 75.71 56.46 75.75 56.48 75.86 56.47 75.95 56.53 76.08 56.52 76.32 56.42 76.44 56.4 76.5 56.26 76.55 56.15 76.47 56.17 76.39 55.94 76.32 55.76 76.36 55.68 76.4 55.39 76.42 55.32 76.47 55.05 76.51 55.05 76.58 54.99 76.68 54.92 76.73 54.97 76.85 54.9 77.02 54.84 77.04 54.82 77.13 54.61 77.2 54.55 77.18 54.48 77.28 54.41 77.31 54.27 77.31 54.16 77.26 54.09 77.13 54.07 77.07 54.1 76.99 54.06 76.85 54.08 76.76 54.02 76.77 53.76 76.67 53.79 76.56 53.7 76.48 53.68 76.39 53.64 76.35 53.61 76.36 53.56 76.29 53.37 76.26 53.34 76.18 53.39 76.1 53.39 76.04 53.44 76 53.5 75.91 53.57 75.89 53.58 75.85 53.71 75.71 53.82 75.71 53.83 75.69 53.69 75.56 53.65 75.38 53.67 75.35 53.6 75.32 53.52 75.15 53.55 75.11 53.44 75 53.44 75.05 53.36 74.94 53.24 74.93 53.18 74.73 53.03 74.77 52.88 74.87 52.82 74.88 52.72 74.85 52.62 74.76 52.44 74.73 52.31 74.59 52.16 74.56 51.98 74.61 51.93 74.59 51.87 74.51 51.91 74.43 51.67 74.17 51.6 73.95 51.59 73.91 51.55 73.9 51.5 73.75 51.53 73.63 51.53 73.54 51.48 73.5 51.49 73.28 51.54 73.24 51.5 73.16 51.51 73.03 51.48 72.97 51.5 72.67 51.46 72.62 51.48 72.4 51.46 72.36 51.41 72.34 51.38 72.19 51.36 72.16 51.35 72.08 51.22 72.11 51.11 72.1 50.93 72.05 50.74 72.02 50.53 72.02 50.25 72.08 49.78 72.24 49.67 72.32 49.44 72.6 49.38 72.62 49.36 72.69 49.27 72.78 49.27 72.89 49.2 73.02 49.18 73.05 49.12 73.08 49.08 73.3 49.02 73.43"/>
</svg>