<?xml version="1.0" encoding="UTF-8"?>
<svg id="_レイヤー_4" data-name="レイヤー_4" xmlns="http://www.w3.org/2000/svg" version="1.1" viewBox="0 0 100 100">
  <!-- Generator: Adobe Illustrator 29.6.1, SVG Export Plug-In . SVG Version: 2.1.1 Build 9)  -->
  <defs>
    <style>
      .st0 {
        fill: #4ade80;
        fill-rule: evenodd;
        stroke: #22c55e;
      }
    </style>
  </defs>
  <polygon class="st0" points="47.53 83.9 47.5 83.82 47.44 83.81 47.37 83.82 47.32 83.86 47.29 83.95 47.26 83.98 47.24 84.05 47.26 84.16 47.25 84.17 47.21 84.29 47.18 84.31 47.04 84.26 47.03 84.19 47.06 84.13 47.09 84.12 47.11 84.07 47.09 84.07 47.12 84 47.04 83.79 47.06 83.69 47.08 83.65 47.08 83.62 47.04 83.61 46.97 83.59 46.95 83.6 46.92 83.7 46.79 83.76 46.74 83.73 46.7 83.66 46.58 83.62 46.54 83.57 46.52 83.5 46.5 83.49 46.28 83.54 46.14 83.48 46.08 83.49 46.06 83.48 46.01 83.49 45.96 83.54 45.91 83.55 45.81 83.52 45.69 83.54 45.65 83.52 45.58 83.54 45.43 83.54 45.33 83.46 45.24 83.49 45.13 83.46 45.1 83.43 44.97 83.45 44.89 83.43 44.84 83.45 44.74 83.44 44.7 83.4 44.6 83.41 44.54 83.4 44.52 83.38 44.41 83.37 44.33 83.39 44.27 83.36 44.17 83.38 44.14 83.38 44.1 83.3 44.03 83.25 44.03 83.23 43.99 83.2 43.4 82.94 43.24 82.91 42.89 82.88 41.94 82.89 40.9 83.09 40.63 83.17 40.31 83.16 40.29 83.15 40.27 83.18 40.24 83.2 40.19 83.21 40.13 83.29 40.06 83.32 40.04 83.44 40.06 83.47 40.06 83.54 40.03 83.6 40.02 83.61 39.97 83.59 39.89 83.53 39.84 83.55 39.82 83.59 39.83 83.74 39.76 83.79 39.75 83.88 39.63 83.97 39.62 84.11 39.59 84.14 39.53 84.15 39.51 84.18 39.46 84.18 39.38 84.11 39.38 84.08 39.33 84.07 39.29 84.04 39.26 83.98 39.19 83.95 39.17 83.91 39.15 83.91 39.15 83.94 39.1 83.96 38.94 83.96 38.85 83.91 38.66 83.91 38.6 83.88 38.54 83.89 38.38 83.84 38.28 83.84 38.19 83.8 38.13 83.85 37.83 83.82 37.8 83.85 37.7 83.86 37.62 83.91 37.51 83.89 37.47 84 37.4 84.04 37.39 84.09 37.37 84.11 37.28 84.17 37.16 84.18 37.13 84.16 37.08 84.04 37.02 84.04 36.96 84 36.92 84.07 36.85 84.11 36.85 84.17 36.77 84.27 36.76 84.35 36.56 84.35 36.48 84.29 36.44 84.34 36.38 84.35 36.37 84.36 36.38 84.41 36.37 84.46 36.34 84.49 36.3 84.5 36.22 84.59 36.22 84.63 36.24 84.67 36.23 84.77 36.26 84.84 36.25 84.89 36.19 84.94 36.17 84.93 36.13 84.89 36.11 84.86 35.98 84.78 35.95 84.75 35.9 84.8 35.83 84.82 35.78 84.84 35.66 84.8 35.6 84.85 35.46 84.84 35.43 84.86 35.42 84.85 35.37 84.93 35.35 85.01 35.28 85.06 35.28 85.15 35.21 85.23 35.17 85.37 35.14 85.38 35.1 85.38 35 85.33 34.96 85.32 34.94 85.31 34.94 85.19 34.87 85.17 34.78 85.24 34.67 85.25 34.65 85.28 34.6 85.3 34.49 85.32 34.44 85.39 34.33 85.38 34.32 85.38 34.34 85.41 34.35 85.49 34.31 85.54 34.31 85.56 34.32 85.6 34.36 85.64 34.36 85.68 34.3 85.75 34.29 85.84 34.26 85.88 34.19 85.92 34.14 85.91 34.1 85.88 34.11 85.8 34.06 85.77 34.06 85.71 34.08 85.66 34.03 85.55 33.97 85.59 33.83 85.57 33.79 85.52 33.73 85.48 33.7 85.45 33.59 85.52 33.57 85.61 33.53 85.64 33.47 85.65 33.35 85.7 33.29 85.68 33.28 85.65 33.28 85.52 33.31 85.48 33.32 85.41 33.36 85.34 33.29 85.26 33.28 85.16 33.19 85.11 33.14 85.04 33.12 84.97 33.04 84.98 32.99 84.91 32.85 84.85 32.78 84.89 32.74 84.88 32.64 84.78 32.58 84.8 32.51 84.81 32.49 84.79 32.38 84.82 32.31 84.8 32.29 84.75 32.12 84.78 32.12 84.88 32.09 84.95 32.06 84.97 31.98 85 31.95 84.99 31.94 84.97 31.94 84.92 31.96 84.9 31.96 84.86 32.03 84.77 32.03 84.72 32.01 84.68 32.03 84.54 31.94 84.51 31.92 84.48 31.9 84.42 31.81 84.34 31.79 84.27 31.7 84.21 31.62 84.12 31.6 84.04 31.58 83.98 31.54 84 31.5 83.99 31.46 83.96 31.36 83.86 31.26 83.81 31.25 83.79 31.18 83.78 31.1 83.73 31.08 83.73 31.07 83.78 31.02 83.82 30.94 83.83 30.87 83.91 30.82 83.92 30.75 83.87 30.75 83.84 30.77 83.83 30.81 83.73 30.87 83.7 30.87 83.61 30.9 83.57 30.89 83.54 30.82 83.51 30.78 83.47 30.76 83.42 30.69 83.41 30.65 83.39 30.61 83.32 30.56 83.32 30.5 83.29 30.45 83.23 30.41 83.23 30.38 83.28 30.32 83.31 30.24 83.3 30.1 83.12 30.11 83.06 30.08 83.05 30.05 83.07 29.98 83.06 29.96 83.04 29.95 83.02 29.87 82.97 29.78 82.89 29.7 82.91 29.63 82.87 29.55 82.86 29.5 82.8 29.39 82.82 29.33 82.78 29.24 82.8 29.19 82.76 29.08 82.81 28.89 82.76 28.85 82.78 28.73 82.78 28.69 82.76 28.62 82.79 28.56 82.78 28.51 82.71 28.49 82.71 28.46 82.77 28.35 82.79 28.3 82.88 28.21 82.9 28.22 82.96 28.19 83.01 28.17 83.02 28.17 83.05 28.1 83.15 28.01 83.18 27.96 83.24 27.85 83.32 27.77 83.27 27.76 83.3 27.73 83.34 27.67 83.34 27.65 83.3 27.65 83.26 27.63 83.25 27.58 83.26 27.51 83.24 27.48 83.22 27.49 83.17 27.5 83.17 27.49 83.15 27.42 83.13 27.38 83.01 27.42 82.94 27.29 82.93 27.26 82.96 27.21 82.96 27.03 82.93 26.99 82.87 27.01 82.76 26.94 82.66 26.94 82.56 26.91 82.51 26.91 82.43 26.86 82.37 26.89 82.3 26.88 82.24 26.98 82.16 27 82.12 26.99 82.08 26.84 82.04 26.79 82.16 26.55 82.1 26.53 82.14 26.51 82.17 26.5 82.07 26.41 82.02 26.37 81.92 26.27 81.91 26.27 81.94 26.33 81.99 26.28 82.01 26.2 81.96 26.15 81.95 26.08 81.85 26.07 81.88 26.06 81.95 26.02 81.91 25.99 81.86 25.95 81.81 25.92 81.8 25.95 81.92 25.89 81.92 25.82 81.87 25.83 81.78 25.85 81.76 25.9 81.76 25.92 81.69 25.96 81.66 25.98 81.61 25.99 81.54 26.01 81.52 25.99 81.4 26.13 81.32 26.17 81.24 26.01 81.27 25.97 81.23 25.92 81.22 25.89 81.28 25.86 81.25 25.88 81.2 25.94 81.1 25.88 81.05 25.75 80.95 25.6 80.81 25.46 80.73 25.44 80.64 25.49 80.54 25.41 80.51 25.37 80.51 25.38 80.45 25.31 80.47 25.31 80.41 25.2 80.29 25.11 80.22 25.04 80.19 24.94 80.26 24.85 80.32 24.91 80.35 24.83 80.38 24.76 80.46 24.68 80.61 24.57 80.63 24.51 80.61 24.54 80.56 24.5 80.52 24.45 80.49 24.47 80.45 24.51 80.47 24.53 80.48 24.62 80.47 24.67 80.46 24.71 80.41 24.67 80.36 24.58 80.34 24.58 80.31 24.63 80.25 24.62 80.16 24.6 80.1 24.63 80.05 24.69 80.02 24.63 80 24.58 79.91 24.58 79.88 24.51 79.88 24.47 79.84 24.39 79.87 24.29 79.84 24.21 79.75 23.95 79.57 23.83 79.48 23.72 79.43 23.64 79.43 23.4 79.41 23.2 79.4 23.04 79.38 22.93 79.39 22.85 79.57 22.79 79.73 22.72 79.77 22.74 79.62 22.72 79.56 22.58 79.52 22.4 79.45 22.32 79.52 22.21 79.44 22.08 79.45 22.01 79.38 21.94 79.39 21.75 79.35 21.66 79.41 21.56 79.45 21.25 79.73 21.13 79.79 21.1 79.83 20.79 80.06 20.76 80.06 20.74 80.12 20.62 80.21 20.6 80.23 20.45 80.3 20.37 80.3 20.31 80.32 20.15 80.16 19.99 80.17 19.94 80.2 19.97 80.34 19.9 80.46 19.74 80.47 19.67 80.49 19.58 80.48 19.55 80.47 19.46 80.35 19.46 80.28 19.44 80.26 19.38 80.26 19.37 80.24 19.36 80.21 19.41 80.14 19.4 80.09 19.38 80.08 19.37 80.03 19.47 79.92 19.49 79.91 19.49 79.88 19.42 79.79 19.37 79.79 19.22 79.91 19.22 79.98 19.19 80.03 19.08 80.07 19.03 80.16 19 80.09 18.98 80.11 18.85 80.1 18.91 80 18.93 79.86 18.97 79.84 19 79.69 19.08 79.54 19.15 79.48 19.12 79.42 19.12 79.34 19.03 79.31 18.98 79.2 18.98 79.15 19 79.1 19.08 79.02 19 78.9 19 78.85 19.03 78.78 18.97 78.77 18.94 78.73 18.97 78.65 18.96 78.59 18.96 78.52 18.97 78.5 18.92 78.46 18.91 78.4 18.94 78.38 18.94 78.34 18.92 78.3 18.88 78.25 18.89 78.2 18.93 78.12 18.86 78.09 18.85 78.05 18.85 78.02 18.9 77.96 18.87 77.93 18.88 77.84 18.95 77.8 18.96 77.76 19.01 77.64 19.06 77.36 19.04 76.7 18.98 76.14 18.94 75.88 18.88 75.69 18.78 75.45 18.71 75.38 18.69 75.36 18.65 75.37 18.63 75.34 18.54 75.26 18.53 75.14 18.43 75.13 18.36 75.07 18.29 74.93 18.26 74.9 18.11 74.87 18.03 74.91 17.98 74.92 17.92 75.02 17.87 75.04 17.84 75.14 17.74 75.23 17.73 75.29 17.7 75.33 17.63 75.36 17.56 75.41 17.52 75.48 17.35 75.48 17.31 75.46 17.25 75.34 17.28 75.19 17.24 75.17 17.22 75.09 17.24 74.96 17.26 74.91 17.26 74.85 17.21 74.77 17.12 74.7 17 74.77 16.94 74.84 16.88 74.84 16.83 74.82 16.79 74.76 16.8 74.71 16.79 74.67 16.9 74.49 16.9 74.44 16.86 74.36 16.9 74.2 16.93 74.15 17.04 74.08 17.05 74.02 17.02 73.95 17.03 73.76 16.86 73.68 16.81 73.61 16.83 73.56 16.87 73.46 16.96 73.42 16.98 73.38 17.11 73.38 17.08 73.3 17.08 73.18 17.09 73.15 17.08 73.13 17.04 73.12 16.96 73.03 16.96 72.96 17.01 72.91 16.91 72.89 16.84 72.77 16.83 72.74 16.76 72.7 16.71 72.6 16.7 72.6 16.69 72.62 16.65 72.66 16.56 72.68 16.53 72.73 16.45 72.77 16.34 72.7 16.3 72.66 16.31 72.62 16.33 72.6 16.45 72.52 16.32 72.35 16.29 72.27 16.29 72.22 16.38 72.1 16.36 72.03 16.38 71.95 16.38 71.93 16.28 71.91 16.23 71.88 16.22 71.75 16.26 71.66 16.2 71.6 16.21 71.48 16.26 71.41 16.31 71.39 16.31 71.33 16.19 71.24 16.16 71.16 16.18 71.09 16.22 71.08 16.28 71.1 16.31 71.05 16.37 71.01 16.42 71.01 16.43 71 16.44 70.89 16.47 70.84 16.53 70.8 16.45 70.71 16.45 70.67 16.35 70.58 16.35 70.54 16.35 70.43 16.37 70.42 16.41 70.41 16.37 70.28 16.4 70.18 16.43 70.14 16.44 70.05 16.48 70.01 16.45 69.92 16.46 69.86 16.51 69.79 16.52 69.66 16.35 69.55 16.31 69.54 16.24 69.45 16.24 69.38 16.27 69.35 16.26 69.33 16.3 69.29 16.31 69.26 16.45 69.2 16.52 69.21 16.61 69.29 16.64 69.29 16.67 69.25 16.66 69.15 16.6 69.12 16.56 69.08 16.52 69 16.52 68.97 16.56 68.93 16.65 68.88 16.69 68.89 16.73 68.87 16.77 68.83 16.76 68.8 16.78 68.75 16.87 68.69 16.86 68.59 16.87 68.53 16.9 68.49 16.91 68.46 16.96 68.41 16.96 68.39 16.88 68.33 16.87 68.31 16.82 68.19 16.73 68.13 16.72 68.07 16.61 68 16.2 67.7 16.12 66.55 16.34 66.53 16.47 67.69 16.77 67.98 16.83 67.98 16.85 68 16.91 68.04 16.99 68.06 17.04 68.11 17.1 68.12 17.1 68.1 17.04 68 17.04 67.88 17.01 67.84 17.01 67.81 17.06 67.74 17.16 67.75 17.18 67.86 17.23 67.89 17.29 67.91 17.37 67.89 17.37 67.65 17.4 67.66 17.42 67.69 17.44 67.75 17.47 67.8 17.49 67.81 17.51 67.8 17.6 67.76 17.6 67.7 17.62 67.67 17.69 67.63 17.76 67.63 17.79 67.6 17.85 67.61 17.88 67.63 17.91 67.63 17.92 67.61 17.99 67.47 17.98 67.37 17.97 67.36 17.94 67.38 17.87 67.35 17.85 67.32 17.93 67.26 18.03 67.2 18.14 67.24 18.2 67.28 18.28 67.29 18.28 67.32 18.29 67.34 18.3 67.37 18.3 67.41 18.24 67.45 18.12 67.82 18.16 67.84 18.17 67.79 18.6 67.94 18.8 67.36 18.85 67.38 18.9 67.23 18.5 67.08 18.5 67.03 18.46 67.02 18.46 67 18.56 66.95 18.6 66.93 18.6 66.9 18.5 66.73 18.53 66.65 18.99 66.81 19.3 65.91 18.87 65.74 18.76 66.02 18.52 65.95 18.37 66.4 18.15 66.32 18.33 65.79 17.88 65.62 17.42 66.93 17.65 67.01 17.99 66.8 18.05 66.91 17.66 67.14 17.64 67.13 17.63 67.14 17.63 67.17 17.63 67.2 17.63 67.22 17.6 67.23 17.21 67.11 17.78 65.55 17.78 65.52 17.69 65.45 17.69 65.41 17.6 65.38 17.51 65.31 17.35 65.27 17.31 65.18 17.18 65.14 15.97 65.77 15.9 65.66 17.58 64.79 17.87 64.91 17.93 64.96 18.04 65.01 18.11 64.98 18.15 64.8 18.15 64.5 18.27 64.39 18.33 63.96 18.14 63.69 18.16 63.61 18.11 63.56 18 63.55 17.96 63.55 17.94 63.59 17.9 63.59 17.87 63.5 17.9 63.42 17.97 63.37 18.11 63.4 18.12 63.29 18.1 63.15 17.99 63.13 17.96 63.06 18.01 63.02 17.75 62.73 17.74 62.59 17.15 62.08 17.04 61.77 17.03 61.75 16.88 61.61 16.78 61.66 16.73 61.7 16.61 61.68 16.53 61.74 16.48 61.73 16.47 61.7 16.37 61.73 16.29 61.71 16.14 61.73 16.09 61.7 16.06 61.62 16.14 61.48 16.2 61.43 16.15 61.34 16.04 61.33 15.95 61.29 15.86 61.36 15.76 61.37 15.72 61.32 15.71 61.22 15.59 61.2 15.56 61.27 15.54 61.29 15.51 61.29 15.4 61.38 15.3 61.4 15.24 61.35 15.2 61.27 15.19 61.19 15.14 61.11 15.04 61.01 15.01 61.05 14.95 61.08 14.9 61.01 14.84 61.04 14.78 61.01 14.74 60.95 14.69 60.94 14.71 60.89 14.69 60.84 14.6 60.8 14.57 60.83 14.51 60.84 14.42 60.83 14.42 60.8 14.45 60.68 14.46 60.59 14.47 60.49 14.45 60.46 14.38 60.51 14.27 60.48 14.24 60.44 14.18 60.39 14.19 60.33 14.29 60.24 14.33 60.22 14.43 60.27 14.5 60.23 14.5 60.19 14.48 60.09 14.46 60.09 14.46 60.13 14.39 60.2 14.31 60.18 14.27 60.2 14.16 60.21 13.92 60.2 13.88 60.12 13.87 60.02 13.99 59.93 14.11 59.81 14.12 59.77 14.06 59.72 14.06 59.74 14 59.74 13.99 59.76 13.95 59.75 13.9 59.73 13.83 59.73 13.79 59.68 13.79 59.62 13.84 59.56 13.9 59.54 13.96 59.54 13.99 59.5 13.82 59.34 13.7 59.25 13.62 59.21 13.6 59.23 13.5 59.21 13.48 59.19 13.54 59.13 13.68 59.13 13.69 59.11 13.63 59.05 13.61 58.97 13.62 58.95 13.66 58.94 13.72 59.02 13.75 59.01 13.76 58.97 13.71 58.93 13.69 58.85 13.68 58.77 13.69 58.73 13.72 58.7 13.73 58.64 13.7 58.65 13.69 58.62 13.55 58.52 13.49 58.41 13.53 58.28 13.6 58.23 13.59 58.1 13.53 58.08 13.51 58.04 13.44 58.05 13.44 58.08 13.46 58.12 13.44 58.15 13.38 58.18 13.32 58.17 13.24 58.22 13.18 58.21 13.04 58.19 13.01 58.17 13.01 58.14 13.14 58.14 13.26 58.15 13.31 58.13 13.32 58.06 13.24 57.98 13.17 57.97 13.15 57.9 13.11 57.84 13.17 57.72 13.15 57.71 13.03 57.8 12.97 57.84 12.91 57.86 12.88 57.88 12.79 57.88 12.74 57.86 12.7 57.82 12.75 57.77 12.81 57.77 12.85 57.74 12.92 57.71 12.94 57.65 12.89 57.61 12.88 57.53 12.9 57.48 12.99 57.46 13.05 57.41 13.1 57.32 13.07 57.23 13.11 57.14 13.04 57.06 13.02 57 13.04 56.96 13.09 56.91 13.15 56.91 13.21 56.84 13.22 56.79 13.13 56.78 13.1 56.7 13.15 56.69 13.23 56.71 13.31 56.7 13.32 56.6 13.38 56.55 13.36 56.42 13.43 56.43 13.5 56.49 13.54 56.5 13.55 56.41 13.55 56.33 13.53 56.27 13.5 56.23 13.5 56.19 13.46 56.19 13.44 56.14 13.32 56.14 13.28 56.11 13.28 56.08 13.3 56.04 13.41 56.04 13.54 56.15 13.62 56.2 13.66 56.27 13.7 56.28 13.72 56.25 13.75 56.17 13.79 56.15 13.85 56.14 13.9 56.01 13.91 55.95 13.97 55.92 14.13 55.94 14.19 55.96 14.23 55.88 14.21 55.88 14.13 55.77 14.17 55.74 14.24 55.76 14.29 55.81 14.36 55.74 14.41 55.7 14.38 55.62 14.44 55.58 14.55 55.58 14.58 55.61 14.58 55.66 14.63 55.64 14.65 55.55 14.64 55.52 14.65 55.48 14.65 55.43 14.67 55.4 14.78 55.4 14.85 55.29 14.96 55.16 15.04 55.16 15.07 55.12 15.08 55.01 15.1 54.93 15.14 54.89 15.18 54.88 15.21 54.91 15.26 54.91 15.33 54.98 15.34 55.01 15.37 54.99 15.46 54.94 15.52 54.94 15.57 54.9 15.7 54.87 15.7 54.83 15.65 54.77 15.65 54.74 15.69 54.74 15.73 54.79 15.86 54.78 15.88 54.8 15.88 54.86 15.9 54.91 15.96 54.93 15.96 54.9 15.99 54.79 15.98 54.73 15.97 54.69 15.99 54.67 16.01 54.7 16.03 54.75 16.22 54.66 16.33 54.64 16.43 54.63 16.56 54.58 17.01 54.29 17.36 53.98 17.5 53.82 17.5 53.71 17.53 53.63 17.67 53.54 17.72 53.53 17.74 53.45 17.8 53.39 17.8 53.37 17.84 53.31 17.94 53.27 17.94 53.23 17.99 53.12 18.08 53.09 18.14 53.09 18.13 53.06 18.16 53.04 18.22 53.04 18.29 52.93 18.37 52.93 18.41 52.9 18.45 52.77 18.6 52.69 18.66 52.56 18.82 52.46 18.82 52.4 18.85 52.35 18.89 52.31 18.94 52.32 19.04 52.25 19.06 52.22 19.06 52.16 19.08 52.14 19.12 52.1 19.15 52.09 19.22 51.99 19.27 51.91 19.35 51.77 19.42 51.56 19.58 51.11 19.62 50.73 19.63 50.44 19.6 50.4 19.42 50.23 19.28 50.19 19.21 50.14 19.13 50.14 19.09 50.09 18.99 50.07 18.98 49.9 19.01 49.85 19.04 49.75 19.07 49.75 19.1 49.71 19.13 49.67 19.13 49.64 19.24 49.56 19.31 49.55 19.32 49.49 19.32 49.45 19.31 49.42 19.28 49.43 19.26 49.34 19.18 49.32 19.12 49.25 19.03 49.27 19.03 49.32 19 49.38 18.88 49.5 18.87 49.55 18.82 49.59 18.71 49.57 18.68 49.59 18.65 49.61 18.62 49.66 18.55 49.69 18.46 49.66 18.41 49.57 18.38 49.45 18.35 49.43 18.34 49.4 18.24 49.37 18.19 49.25 18.19 49.22 18.24 49.16 18.27 49.07 18.3 49.03 18.33 48.96 18.35 48.93 18.42 48.9 18.46 48.8 18.48 48.77 18.54 48.78 18.68 48.72 18.76 48.73 18.78 48.71 18.79 48.68 18.83 48.65 18.99 48.64 19.04 48.61 19.1 48.62 19.14 48.66 19.16 48.64 19.18 48.6 19.22 48.56 19.31 48.5 19.32 48.46 19.37 48.41 19.45 48.4 19.53 48.42 19.64 48.55 19.69 48.58 19.71 48.5 19.77 48.44 19.75 48.34 19.79 48.24 19.78 48.21 19.76 48.19 19.75 48.16 19.74 48.06 19.72 48.03 19.71 48.04 19.63 47.92 19.65 47.85 19.59 47.83 19.51 47.71 19.52 47.64 19.46 47.6 19.45 47.52 19.47 47.43 19.51 47.37 19.52 47.27 19.58 47.18 19.62 47.14 19.68 47.06 19.71 46.94 19.7 46.8 19.73 46.75 19.65 46.64 19.65 46.48 19.71 46.38 19.74 46.29 19.7 46.21 19.72 46.1 19.71 46.05 19.78 45.85 19.78 45.7 19.83 45.57 19.92 45.51 19.97 45.44 19.97 45.32 20.02 45.23 20.08 45.19 20.09 45.04 20.2 44.99 20.21 44.95 20.24 44.89 20.26 44.74 20.35 44.66 20.36 44.52 20.38 44.46 20.42 44.41 20.55 44.35 20.64 44.21 20.72 44.16 20.76 44.16 20.78 44.08 20.86 44 20.98 43.96 21.03 43.92 21.07 43.91 21.09 43.9 21.11 43.81 21.22 43.72 21.23 43.73 21.28 43.68 21.31 43.68 21.35 43.62 21.37 43.55 21.59 43.4 21.67 43.3 21.73 43.27 21.99 43.23 22.08 43.18 22.14 43.12 22.2 43.11 22.22 43.09 22.26 43.08 22.38 42.96 22.43 42.96 22.45 42.93 22.49 42.84 22.47 42.83 22.58 42.77 22.65 42.76 22.65 42.61 22.69 42.58 22.72 42.52 22.77 42.51 22.77 42.49 22.89 42.49 22.91 42.48 23 42.35 23.01 42.35 23.05 42.27 23.12 42.2 23.17 42.2 23.17 42.15 23.25 42.05 23.29 41.96 23.35 41.88 23.47 41.83 23.51 41.8 23.58 41.71 23.67 41.63 23.74 41.62 23.76 41.47 23.83 41.4 23.83 41.38 23.95 41.31 23.99 41.18 24.12 41.07 24.39 40.83 24.35 40.78 24.33 40.71 24.34 40.57 24.29 40.39 24.3 40.3 24.25 40.27 24.23 40.17 24.17 40.08 24.15 39.96 24.1 39.9 24.11 39.85 24.08 39.82 24.08 39.69 24.04 39.66 23.98 39.52 23.96 39.51 23.94 39.46 23.95 39.38 23.93 39.32 23.9 39.29 23.83 39.17 23.83 39 23.85 38.94 23.85 38.88 23.82 38.78 23.82 38.61 23.8 38.57 23.78 38.46 23.76 38.45 23.78 38.39 23.74 38.33 23.73 38.23 23.74 38.19 23.76 38.14 23.8 38.11 23.82 38.07 23.88 38.02 23.99 37.87 24 37.77 24.1 37.63 24.09 37.47 24.13 37.38 24.21 37.3 24.22 37.27 24.16 37.2 24.16 37.12 24.19 37.06 24.19 37 24.2 36.97 24.24 36.94 24.24 36.8 24.27 36.78 24.28 36.75 24.08 36.61 24.11 36.54 23.76 36.33 23.85 35.84 24.29 35.56 24.4 35.48 24.7 35.29 24.79 35.23 24.8 35.23 24.95 35.14 24.28 34.1 24.48 33.97 25.05 34.86 25.26 35.18 24.79 35.48 24.65 35.5 24.21 35.78 24.22 35.84 24.2 35.85 24.21 35.86 24.13 36.27 24.19 36.4 24.28 36.48 24.45 36.39 24.67 36.28 24.59 36.12 24.46 35.86 24.6 35.79 24.75 36.08 24.7 36.11 24.71 36.15 24.68 36.16 24.73 36.27 24.77 36.25 24.79 36.23 24.82 36.23 24.84 36.23 24.85 36.23 24.87 36.23 24.89 36.25 24.92 36.26 24.94 36.27 24.97 36.29 24.98 36.32 24.99 36.34 25.05 36.35 25.08 36.36 25.09 36.36 25.11 36.35 25.14 36.32 25.16 36.3 25.18 36.29 25.18 36.29 25.2 36.28 25.24 36.26 25.3 36.25 25.17 36.01 25.16 36.01 25.12 35.94 25.12 35.94 25.1 35.9 25.16 35.87 25.26 35.81 25.31 35.92 25.21 35.97 25.33 36.2 25.41 36.14 25.42 36.09 25.44 36.05 25.45 36.04 25.47 36.02 25.51 36 25.58 35.99 25.79 36 25.98 36 26.1 35.94 26.25 35.87 26.35 35.81 26.41 35.77 26.48 35.71 26.51 35.68 26.6 35.61 26.69 35.55 26.76 35.5 26.81 35.44 26.89 35.38 27.16 35.11 27.28 34.97 27.38 34.88 27.45 34.81 27.55 34.69 27.55 34.62 27.5 34.41 27.53 34.36 27.53 34.35 27.5 34.32 27.51 34.23 27.56 34.13 27.62 34.05 27.67 34.02 27.71 34 27.75 33.96 27.83 33.93 27.9 33.91 27.97 33.86 28.05 33.79 28.08 33.73 28.15 33.59 28.2 33.47 28.25 33.32 28.3 33.19 28.33 33.12 28.38 33 28.4 32.95 28.41 32.88 28.42 32.81 28.37 32.74 28.34 32.69 28.33 32.66 28.31 32.64 28.36 32.5 28.4 32.44 28.42 32.37 28.39 32.25 28.42 32.19 28.43 32.08 28.35 31.99 28.35 31.91 28.29 31.81 28.26 31.73 28.17 31.68 28.1 31.68 28.1 31.64 28.13 31.5 28.03 31.46 27.96 31.41 27.96 31.25 27.87 31.21 27.82 31.16 27.79 31.11 27.78 31.05 27.75 31 27.62 30.98 27.56 30.91 27.54 30.84 27.47 30.82 27.45 30.81 27.43 30.77 27.41 30.65 27.23 30.59 27.1 30.47 27.1 30.42 27.05 30.32 27 30.28 26.95 30.28 26.93 30.26 26.92 30.2 26.87 30.11 26.91 29.99 26.79 29.75 26.81 29.7 26.88 29.66 26.89 29.63 26.87 29.59 26.89 29.52 26.8 29.43 26.81 29.38 26.87 29.27 26.91 29.2 26.9 29.08 26.84 28.98 26.84 28.93 26.87 28.88 26.81 28.8 26.78 28.71 26.68 28.62 26.67 28.51 26.6 28.47 26.59 28.34 26.54 28.31 26.42 28.27 26.4 28.19 26.42 28.13 26.32 28.07 26.3 28.02 26.31 27.86 26.27 27.84 26.21 27.84 26.17 27.82 26.16 27.77 26.15 27.63 26.12 27.58 26.08 27.48 26.01 27.41 25.97 27.41 25.9 27.34 25.87 27.2 25.76 27.11 25.78 27.08 25.72 27 25.71 26.9 25.66 26.85 25.64 26.78 25.6 26.75 25.53 26.77 25.47 26.66 25.44 26.63 25.41 26.5 25.35 26.45 25.31 26.39 25.29 26.3 25.2 26.21 25.14 26.08 25.12 26.07 25.09 26.02 25.09 25.98 25.07 25.93 25.01 25.91 24.92 25.67 24.93 25.43 24.96 25.42 25.01 25.34 25.02 25.3 25.01 25.28 25.06 25.15 25.22 24.93 25.26 24.76 25.27 24.67 25.31 24.61 25.37 24.59 25.35 24.46 25.38 24.36 25.43 24.32 25.44 24.3 25.42 24.26 25.42 24.17 25.45 24.11 25.46 24.03 25.5 23.97 25.53 23.95 25.53 23.85 25.58 23.8 25.6 23.71 25.67 23.7 25.67 23.61 25.69 23.61 25.75 23.56 25.75 23.52 25.78 23.46 25.78 23.45 25.91 23.32 25.92 23.29 25.9 23.28 25.9 23.21 25.99 23.11 25.99 22.96 26.01 22.91 26.11 22.8 26.09 22.73 26.1 22.66 26.17 22.61 26.22 22.46 26.21 22.44 26.21 22.37 26.26 22.26 26.25 22.16 26.27 22.12 26.31 22.1 26.4 22.02 26.4 21.94 26.45 21.86 26.44 21.8 26.46 21.61 26.45 21.62 26.43 21.61 26.43 21.55 26.5 21.46 26.48 21.43 26.49 21.35 26.52 21.3 26.58 21.27 26.61 21.18 26.67 21.15 26.67 21.08 26.79 20.96 26.8 20.91 26.82 20.88 26.74 20.52 26.87 20.36 27 20.09 27.08 20.04 27.11 19.95 27.14 19.94 27.17 19.86 27.13 19.83 27.21 19.78 27.24 19.68 27.29 19.63 27.27 19.46 27.38 19.43 27.44 19.38 27.53 19.46 27.66 19.48 27.76 19.36 27.81 19.35 27.83 19.38 27.88 19.39 27.9 19.34 27.99 19.23 28.05 19.21 28.05 19.16 28.08 19.11 28.16 19.14 28.28 19.11 28.37 19.15 28.53 19.05 28.6 19.1 28.81 19.09 28.98 18.93 29.01 18.94 29.08 18.88 29.15 18.91 29.17 18.9 29.22 18.95 29.32 18.93 29.39 18.95 29.44 18.92 29.58 18.93 29.64 18.86 29.68 18.89 29.71 18.86 29.8 18.85 29.8 18.75 29.92 18.8 30.07 18.92 30.14 18.85 30.08 18.76 30.02 18.75 30.04 18.7 30.16 18.75 30.18 18.89 30.21 18.92 30.23 18.91 30.24 18.9 30.21 18.86 30.26 18.73 30.34 18.73 30.42 18.66 30.5 18.62 30.49 18.59 30.55 18.58 30.58 18.5 30.65 18.48 30.74 18.6 30.87 18.52 30.98 18.4 31.21 18.11 31.26 18.01 31.31 17.98 31.31 17.92 31.26 17.89 31.49 17.57 31.43 17.52 31.47 17.45 31.6 17.41 31.65 17.44 31.63 17.49 31.74 17.5 31.85 17.45 31.9 17.47 31.97 17.4 32.05 17.41 32.12 17.37 32.17 17.4 32.29 17.41 32.29 17.46 32.37 17.42 32.51 17.46 32.58 17.5 32.67 17.5 32.74 17.56 32.86 17.59 33.07 17.69 33.15 17.67 33.24 17.7 33.26 17.73 33.38 17.75 33.5 17.83 33.52 17.87 33.64 17.81 33.74 17.86 33.83 17.82 34.11 17.82 34.25 17.85 34.3 17.8 34.46 17.81 34.56 17.76 34.73 17.77 34.83 17.76 34.87 17.73 35.26 17.69 35.33 17.62 35.62 17.61 35.72 17.53 35.9 17.48 35.96 17.43 36.31 17.33 36.4 17.33 36.43 17.29 36.54 17.24 36.58 17.17 36.65 17.11 36.76 17.1 36.82 17.04 36.92 17.01 36.98 16.91 37.14 16.89 37.22 16.79 37.31 16.76 37.4 16.69 37.49 16.71 37.6 16.65 37.76 16.61 38.05 16.74 38.07 16.77 38.17 16.79 38.26 16.85 38.31 16.94 38.4 16.98 38.45 17.08 38.51 17.09 38.55 17.17 38.63 17.21 38.76 17.42 38.87 17.45 38.89 17.49 38.88 17.57 39.04 17.66 39.1 17.79 39.28 17.89 39.42 17.73 39.17 17.52 39.13 17.48 39.08 17.36 39 17.29 39.04 17.23 39.06 17.22 39.15 17.29 39.22 17.45 39.32 17.52 39.51 17.69 39.63 17.64 39.69 17.56 39.75 17.61 39.64 17.76 39.49 17.83 39.53 17.92 39.59 17.98 39.66 18.03 40.09 18.33 40.6 18.6 40.72 18.66 41.04 18.78 41.46 18.8 42.35 18.76 43.12 18.54 43.49 18.25 43.96 18.05 44.53 17.78 44.63 17.69 44.81 17.54 45.05 17.37 45.11 17.39 45.16 17.31 45.15 17.22 45.22 17.23 45.33 17.3 45.45 17.36 45.74 17.23 45.76 17.15 46.06 16.82 46.17 16.78 46.57 16.35 46.67 16.2 46.77 16.1 46.8 15.93 46.87 15.82 46.95 15.64 47.08 15.5 47.28 15.41 47.41 15.34 47.53 15.3 47.56 15.28 47.63 15.18 47.66 15.17 47.7 15.13 47.7 15.07 47.75 14.99 47.88 14.93 47.9 14.86 47.97 14.79 48.05 14.77 48.11 14.77 48.15 14.75 48.22 14.76 48.29 14.69 48.33 14.68 48.4 14.68 48.49 14.72 48.65 14.74 48.66 14.71 48.67 14.67 48.75 14.64 48.83 14.54 48.88 14.55 48.91 14.59 49.08 14.55 49.21 14.49 49.35 14.55 49.46 14.54 49.59 14.5 49.65 14.52 49.75 14.57 49.79 14.63 49.94 14.74 50.02 14.84 50.31 14.98 50.44 15.05 50.62 15.16 50.95 15.26 51.21 15.31 51.71 15.36 51.88 15.35 52.06 15.3 52.12 15.29 52.29 15.2 52.37 15.12 52.39 15.12 52.47 14.98 52.49 14.92 52.74 14.91 52.78 14.83 52.74 14.74 52.74 14.71 52.8 14.7 52.89 14.64 53.03 14.62 53.15 14.58 53.37 14.59 53.46 14.54 53.49 14.54 53.59 14.56 53.63 14.62 53.7 14.65 53.81 14.73 53.86 14.71 54 14.72 54.04 14.72 54.17 14.64 54.27 14.64 54.33 14.65 54.37 14.64 54.47 14.64 54.57 14.53 54.62 14.51 54.68 14.51 54.81 14.56 54.83 14.59 55.01 14.61 55.1 14.66 55.11 14.68 55.23 14.69 55.48 14.76 55.6 14.71 55.61 14.7 55.73 14.7 55.82 14.79 55.82 14.86 55.92 14.86 56.04 14.39 56.12 14.41 56.08 14.56 56.06 14.56 55.96 14.96 55.97 14.96 55.98 14.96 55.99 14.95 55.99 14.94 55.99 14.93 55.99 14.91 56 14.92 56.02 14.92 56.03 14.91 56.04 14.91 56.05 14.93 56.06 14.94 56.06 14.95 56.05 14.97 56.05 15 56.05 15.04 56.06 15.06 56.07 15.07 56.1 15.07 56.14 15.07 56.15 15.07 56.17 15.06 56.17 15.12 56.18 15.12 56.19 15.13 56.2 15.12 56.21 15.11 56.22 15.11 56.25 15.12 56.28 15.12 56.3 15.13 56.31 15.14 56.31 15.17 56.31 15.19 56.33 15.2 56.34 15.19 56.35 15.18 56.37 15.17 56.38 15.16 56.38 15.12 56.4 15.13 56.42 15.06 56.45 15.07 56.43 15.15 56.5 15.23 56.52 15.38 56.46 15.41 55.83 15.29 55.87 15.07 54.83 14.89 54.81 15.08 54.93 15.11 54.88 15.38 55.65 15.52 55.67 15.42 55.71 15.43 55.69 15.54 56.21 15.63 56.68 15.71 56.72 15.42 56.65 14.96 56.43 14.3 56.32 14.2 56.42 14.08 56.57 14.2 56.75 14.71 56.72 14.73 56.74 14.79 56.68 14.82 56.69 14.82 56.71 14.93 56.75 14.95 56.8 14.96 56.91 14.96 56.96 14.98 57.01 14.99 57.05 14.99 57.08 15.02 57.1 15.03 57.17 15.01 57.22 15 57.25 14.98 57.27 14.99 57.28 15 57.29 15.03 57.32 15.04 57.35 15.05 57.35 15.07 57.36 15.09 57.4 15.09 57.41 15.11 57.43 15.12 57.44 15.11 57.47 15.13 57.58 15.09 57.63 15.13 57.65 15.2 57.7 15.23 57.74 15.29 57.81 15.31 57.84 15.34 57.91 15.45 58.01 15.44 58.03 15.3 58.12 15.23 58.19 15.23 58.33 15.25 58.42 15.22 58.47 15.24 58.52 15.3 58.51 15.43 58.57 15.46 58.58 15.52 58.65 15.57 58.65 15.6 58.74 15.63 58.85 15.6 58.85 15.52 58.9 15.47 58.95 15.46 59.04 15.47 59.1 15.45 59.13 15.4 59.22 15.4 59.33 15.49 59.35 15.55 59.36 15.61 59.41 15.64 59.44 15.7 59.42 15.77 59.43 15.82 59.44 15.9 59.47 15.94 59.44 16.07 59.47 16.1 59.6 16.02 59.69 16.02 59.72 16 59.78 16 59.85 16.02 60.04 15.98 60.13 16 60.26 15.99 60.35 16 60.46 15.96 60.51 15.97 60.54 15.99 60.7 15.98 60.74 15.93 60.91 15.83 60.96 15.6 61.01 15.55 61.06 15.56 61.06 15.57 61.12 15.62 61.15 15.68 61.22 15.73 61.35 15.68 61.38 15.7 61.52 15.71 61.63 15.62 61.86 15.62 61.88 15.6 61.88 15.5 61.9 15.48 61.94 15.46 61.93 15.4 62 15.29 62.09 15.21 62.15 15.21 62.2 15.23 62.22 15.25 62.25 15.36 62.29 15.39 62.32 15.48 62.32 15.6 62.31 15.66 62.32 15.68 62.31 15.72 62.29 15.73 62.29 15.77 62.34 15.83 62.46 15.92 62.58 15.96 62.63 16.02 62.72 16.02 62.75 16.13 62.96 16.28 62.98 16.4 63.08 16.47 63.26 16.74 63.31 16.77 63.51 16.93 63.66 16.96 63.76 17.01 63.88 17.02 63.96 17.09 64.04 17.2 64.12 17.23 64.15 17.27 64.39 17.36 64.47 17.42 64.5 17.46 64.69 17.53 64.94 17.57 64.97 17.6 65.15 17.61 65.23 17.71 65.31 17.71 65.36 17.79 65.43 17.8 65.47 17.85 65.52 17.87 65.66 17.96 65.66 17.99 65.74 18.07 65.95 18.19 66.01 18.29 66.09 18.34 66.13 18.39 66.17 18.4 66.19 18.43 66.4 18.53 66.51 18.61 66.58 18.63 66.65 18.71 66.75 18.75 66.79 18.84 66.88 18.86 66.91 18.89 66.91 18.93 66.99 18.92 67.07 18.95 67.1 19 67.16 19.06 67.17 19.08 67.19 19.11 67.28 19.15 67.33 19.2 67.37 19.25 67.4 19.31 67.46 19.34 67.48 19.39 67.44 19.43 67.53 19.56 67.6 19.59 67.61 19.62 67.66 19.73 67.66 19.84 67.68 19.86 67.72 19.99 67.72 20.06 67.69 20.11 67.69 20.14 67.74 20.18 67.71 20.29 67.74 20.38 67.73 20.5 67.77 20.55 67.74 20.76 67.76 20.83 67.75 20.89 67.7 20.96 67.75 21.02 67.75 21.11 67.71 21.16 67.76 21.21 67.76 21.27 67.74 21.27 67.71 21.34 67.74 21.37 67.76 21.42 67.75 21.48 67.71 21.53 67.79 21.58 67.85 21.64 67.88 21.71 68.01 21.85 68.06 21.85 68.13 21.97 68.13 21.99 68.65 22.04 68.79 22.04 68.83 22.02 69.21 21.98 69.26 21.96 69.28 21.94 69.32 21.93 69.44 21.99 69.59 22.03 69.72 22.02 69.88 22.04 69.99 22.1 70.03 22.18 70.28 22.32 70.49 22.33 70.53 22.37 70.63 22.38 70.72 22.42 70.71 22.46 70.72 22.49 70.72 22.58 70.75 22.62 70.75 22.65 70.76 22.69 70.76 22.79 70.8 22.89 70.88 22.94 70.88 23.02 70.85 23.05 70.85 23.08 71 23.17 71.04 23.17 71.12 23.26 71.21 23.26 71.29 23.3 71.4 23.33 71.41 23.41 71.47 23.47 71.48 23.54 71.56 23.55 71.68 23.66 71.85 23.64 71.91 23.61 71.99 23.61 72.04 23.57 72.13 23.57 72.26 23.5 72.33 23.48 72.38 23.49 72.45 23.47 72.56 23.48 72.8 23.55 72.87 23.61 72.87 23.64 72.83 23.68 72.85 23.72 72.88 23.76 72.86 23.81 72.78 23.87 72.77 23.94 72.73 23.98 72.64 24 72.63 24.11 72.53 24.2 72.53 24.22 72.58 24.26 72.58 24.3 72.6 24.33 72.7 24.4 72.75 24.48 72.73 24.51 72.81 24.53 72.85 24.55 72.92 24.65 72.93 24.73 72.99 24.8 73.1 24.95 73.12 24.99 73.38 25.12 73.42 25.2 73.51 25.25 73.53 25.3 73.65 25.37 73.68 25.46 73.84 25.61 73.92 25.63 73.98 25.68 74.13 25.73 74.15 25.8 74.26 25.86 74.43 25.9 74.47 25.99 74.52 26.02 74.69 26.18 74.74 26.19 74.79 26.22 74.83 26.3 74.87 26.32 74.97 26.34 75.01 26.36 75.11 26.35 75.17 26.39 75.2 26.44 75.26 26.42 75.46 26.42 75.5 26.44 75.57 26.5 75.63 26.51 75.71 26.57 75.87 26.61 75.97 26.68 76.12 26.71 76.26 26.58 76.32 26.53 76.38 26.5 76.42 26.49 76.45 26.48 76.46 26.51 76.56 26.46 76.6 26.46 76.65 26.45 76.75 26.45 76.74 26.48 76.69 26.47 76.65 26.47 76.65 26.49 76.58 26.52 76.5 26.53 76.49 26.56 76.4 26.55 76.38 26.6 76.44 26.64 76.41 26.67 76.34 26.69 76.3 26.73 76.27 26.77 76.27 26.84 76.35 26.92 76.38 26.93 76.42 26.88 76.42 26.93 76.44 26.95 76.49 26.94 76.53 26.91 76.58 26.81 76.62 26.79 76.63 26.73 76.65 26.74 76.66 26.77 76.68 26.77 76.61 26.93 76.64 26.93 76.69 26.88 76.72 26.86 76.72 26.89 76.68 26.91 76.65 26.96 76.62 26.97 76.6 27 76.54 27.04 76.47 26.98 76.4 27.06 76.37 27.18 76.44 27.36 76.6 27.67 76.7 27.93 76.85 28.1 76.97 28.23 77.1 28.43 77.37 28.83 77.46 28.75 77.56 28.77 77.65 28.91 77.74 28.96 77.76 28.89 77.86 28.86 77.94 28.98 77.88 29.09 78.13 29.17 78.33 29.25 78.47 29.18 78.54 29.27 78.47 29.33 78.33 29.52 78.31 29.63 78.33 29.71 78.34 29.75 78.43 29.78 78.52 29.77 78.59 29.86 78.45 30.06 78.57 30.07 78.57 30.11 78.47 30.23 78.53 30.39 78.62 30.5 78.66 30.61 78.79 30.72 78.83 30.8 78.87 30.75 78.99 30.84 78.99 30.9 78.99 30.95 79.04 30.95 79.01 30.98 78.97 31.04 79 31.07 79.02 31.16 79.06 31.27 79.06 31.3 79.08 31.34 79.09 31.33 79.13 31.37 79.14 31.44 79.18 31.45 79.21 31.47 79.19 31.51 79.22 31.54 79.25 31.57 79.24 31.6 79.27 31.62 79.27 31.69 79.29 31.73 79.3 31.8 79.27 31.79 79.26 31.81 79.26 31.84 79.32 31.84 79.35 31.86 79.4 31.86 79.39 31.82 79.4 31.8 79.48 31.81 79.49 31.83 79.48 31.85 79.5 31.88 79.47 31.92 79.49 31.98 79.46 31.98 79.42 32.04 79.43 32.07 79.46 32.11 79.52 32.05 79.53 32.06 79.56 32.03 79.58 32.04 79.62 32 79.62 32.07 79.64 32.09 79.6 32.12 79.64 32.16 79.58 32.2 79.59 32.32 79.56 32.31 79.54 32.36 79.5 32.38 79.57 32.4 79.55 32.49 79.54 32.56 79.51 32.56 79.52 32.59 79.51 32.65 79.56 32.68 79.54 32.71 79.51 32.71 79.51 32.77 79.51 32.81 79.47 32.89 79.5 32.93 79.49 32.95 79.43 32.95 79.43 33 79.39 33.02 79.41 33.06 79.36 33.05 79.33 33.09 79.3 33.08 79.29 33.15 79.29 33.39 79.26 33.41 79.33 33.46 79.33 33.59 79.35 33.65 79.33 33.71 79.35 33.82 79.35 33.87 79.37 33.95 79.37 33.98 79.39 34.05 79.39 34.17 79.43 34.22 79.44 34.32 79.46 34.36 79.51 34.44 79.52 34.61 79.66 34.62 79.69 34.72 79.83 34.77 80.03 34.77 80.23 34.82 80.33 34.87 80.44 34.85 80.42 34.94 80.42 35 80.62 34.89 80.72 34.85 80.87 34.85 80.83 34.89 80.88 34.98 80.92 35.02 81.05 34.9 81.1 34.9 81.01 35.04 80.95 35.07 80.96 35.19 81.02 35.1 81.07 35.25 81.18 35.12 81.21 35.04 81.2 34.98 81.33 35.05 81.26 35.05 81.33 35.16 81.21 35.21 81.16 35.29 81.13 35.36 81.08 35.42 81.15 35.52 81.18 35.66 81.14 35.75 81.25 35.79 81.25 35.88 81.33 35.86 81.31 35.93 81.24 35.96 81.19 36.02 81.08 36.07 80.93 36 80.82 35.92 80.73 35.8 80.68 35.82 80.69 35.9 80.71 35.95 80.62 35.99 80.68 36.12 80.54 36.06 80.4 36.11 80.32 36.14 80.28 36.22 80.11 36.26 79.99 36.29 79.94 36.29 79.87 36.5 79.87 36.64 79.89 36.79 79.92 36.93 79.96 37.05 80.07 37.2 80.18 37.34 80.36 37.43 80.47 37.44 80.51 37.53 80.56 37.68 80.65 37.73 80.72 37.71 80.65 37.91 80.69 38.03 80.79 38.16 80.85 38.17 80.84 38.23 80.83 38.34 80.92 38.56 80.97 38.65 81.08 38.78 81.04 38.92 81.04 39 81.11 39.05 81.21 39.15 81.24 39.24 81.21 39.27 81.15 39.38 81.14 39.5 81.18 39.61 81.14 39.72 81.17 39.79 81.29 39.84 81.3 40 81.29 40.67 81.21 40.88 81.09 40.95 80.8 41.69 80.86 41.71 80.83 41.86 80.87 42.01 80.9 42.19 80.94 42.24 80.92 42.33 80.99 42.51 81.36 42.37 81.45 42.27 81.68 42.34 81.74 42.45 81.9 42.58 81.92 42.65 81.96 42.72 81.94 42.78 81.83 42.89 81.71 43.01 81.56 43.09 81.42 43.15 81.31 43.18 81.21 43.22 81.13 43.24 81.09 43.24 81.04 43.23 81.01 43.23 80.97 43.25 80.87 43.3 80.82 43.34 80.79 43.38 80.72 43.44 80.67 43.47 80.52 43.55 80.5 43.55 80.49 43.55 80.47 43.54 80.44 43.52 80.42 43.5 80.4 43.5 80.39 43.51 80.39 43.52 80.41 43.54 80.45 43.59 80.54 43.67 80.58 43.7 80.58 43.74 80.58 43.76 80.53 43.82 80.53 43.84 80.53 43.86 80.55 43.91 80.56 43.95 80.56 43.97 80.54 44 80.49 44.05 80.47 44.07 80.44 44.06 80.42 44.05 80.37 43.98 80.33 43.96 80.29 43.94 80.26 43.94 80.24 43.95 80.21 43.98 80.19 44.02 80.17 44.04 80.17 44.05 80.18 44.09 80.18 44.11 80.18 44.13 80.14 44.17 80.12 44.17 80.1 44.16 80.08 44.16 80.05 44.19 80.03 44.21 80.04 44.24 80.17 44.3 80.24 44.37 80.24 44.4 80.21 44.41 80.16 44.4 80.06 44.3 80.01 44.41 79.99 44.54 80.15 44.62 80.2 44.6 80.15 44.54 80.16 44.48 80.26 44.5 80.34 44.59 80.33 44.69 80.36 44.75 80.29 44.83 80.15 44.84 80.1 44.82 80.04 44.82 79.97 44.83 79.9 44.87 79.84 44.9 79.73 44.89 79.6 44.82 79.54 44.81 79.52 44.85 79.49 44.98 79.46 45.05 79.46 45.11 79.49 45.15 79.48 45.21 79.4 45.27 79.39 45.34 79.3 45.5 79.26 45.6 79.24 45.74 79.26 45.93 79.34 46.16 79.39 46.29 79.41 46.37 79.44 46.47 79.47 46.63 79.52 46.57 79.55 46.56 79.59 46.6 79.59 46.67 79.62 47.02 79.67 47.04 79.65 47.17 79.55 47.42 79.54 47.59 79.5 47.63 79.49 47.71 79.45 47.74 79.44 47.84 79.39 47.87 79.38 47.97 79.35 48 79.29 48.02 79.24 48.08 79.21 48.12 79.17 48.17 79.11 48.17 79.03 48.09 78.92 48.1 78.78 48.16 78.74 48.2 78.63 48.29 78.44 48.45 78.28 48.71 78.13 49.1 78.02 49.61 78 50.07 78 50.09 78.05 50.95 78.09 51.54 78.18 51.86 78.25 52.04 78.34 52.4 78.38 52.48 78.44 52.57 78.45 52.59 78.47 52.62 78.63 52.61 78.77 52.65 78.96 52.8 79.01 52.86 79.04 52.9 79.05 52.92 79.06 52.96 79.08 52.99 79.11 53.04 79.13 53.1 79.15 53.12 79.17 53.16 79.18 53.23 79.2 53.3 79.22 53.43 79.24 53.54 79.26 53.63 79.26 53.64 79.27 53.7 79.29 53.82 79.3 54.06 79.29 54.16 79.29 54.2 79.3 54.27 79.31 54.29 79.31 54.32 79.32 54.35 79.33 54.39 79.36 54.46 79.38 54.48 79.4 54.5 79.41 54.51 79.44 54.54 79.47 54.62 79.47 54.64 79.49 54.66 79.5 54.66 79.52 54.67 79.53 54.69 79.58 54.78 79.63 54.79 79.76 54.76 79.75 54.71 79.75 54.7 79.77 54.68 79.79 54.68 79.85 54.66 80.01 54.61 80.08 54.6 80.13 54.59 80.15 54.61 80.19 54.66 80.25 54.65 80.35 54.64 80.86 54.58 81.41 54.51 81.94 54.44 82.66 54.35 83.67 54.22 83.94 53.89 84.11 54.02 83.86 54.36 83.04 54.44 82.59 54.5 82.59 54.52 82.33 54.55 82.35 54.61 82.35 54.64 82.33 54.66 82.33 54.68 82.35 54.75 82.37 54.81 82.36 54.86 82.34 54.9 82.33 54.95 82.33 55 82.33 55.02 82.34 55.05 82.35 55.1 82.35 55.15 82.35 55.15 82.33 55.17 82.33 55.18 82.3 55.21 82.28 55.22 82.25 55.23 82.02 55.28 81.94 55.28 81.86 55.28 81.77 55.27 81.63 55.29 81.53 55.31 81.42 55.33 81.36 55.34 81.28 55.36 81.22 55.38 81.15 55.39 81.12 55.39 81.08 55.4 81.05 55.39 81.02 55.39 80.99 55.39 80.94 55.39 80.87 55.4 80.85 55.41 80.82 55.42 80.8 55.43 80.76 55.44 80.74 55.44 80.69 55.44 80.67 55.44 80.65 55.43 80.63 55.42 80.59 55.42 80.53 55.41 80.38 55.43 80.15 55.43 80.04 55.42 79.93 55.43 79.9 55.43 79.86 55.45 79.85 55.51 79.77 55.54 79.74 55.59 79.72 55.6 79.71 55.66 79.64 55.75 79.55 55.8 79.57 55.89 79.56 55.95 79.52 55.98 79.5 56.14 79.46 56.2 79.47 56.3 79.44 56.4 79.45 56.53 79.48 56.58 79.47 56.83 79.44 56.91 79.44 56.97 79.46 56.99 79.47 57.02 79.49 57.03 79.5 57.07 79.46 57.14 79.49 57.19 79.49 57.3 79.53 57.59 79.52 57.64 79.53 57.66 79.56 57.75 79.56 58.3 79.53 58.4 79.53 58.5 79.5 58.52 79.5 58.57 79.51 58.57 79.52 58.88 79.57 58.89 79.6 58.96 79.6 59.14 79.64 59.16 79.7 59.23 79.85 59.22 79.88 59.27 79.88 59.3 79.87 59.41 79.73 59.42 79.61 59.52 79.6 59.55 79.64 59.63 79.74 59.62 79.8 59.66 79.89 59.65 79.93 59.72 80.03 59.73 80.04 59.77 80.04 59.89 79.99 59.92 79.95 59.91 79.87 60.04 79.97 60.34 79.97 60.46 80.01 60.6 79.98 60.8 79.92 60.89 79.96 61.02 79.83 61.1 79.81 61.25 79.73 61.36 79.71 61.54 79.75 61.76 79.73 61.83 79.75 62.08 79.66 62.13 79.65 62.2 79.56 62.27 79.44 62.26 79.44 62.31 79.36 62.37 79.34 62.45 79.28 62.53 79.25 62.75 79.34 62.87 79.35 62.93 79.29 62.98 79.28 63.07 79.24 63.13 79.24 63.26 79.18 63.39 79.22 63.52 79.18 63.88 79.08 63.97 79.06 64.02 79.08 64.05 79.14 64.02 79.22 64.03 79.34 64.12 79.45 64.14 79.62 64.37 79.6 64.44 79.53 64.53 79.52 64.64 79.47 64.66 79.39 64.77 79.34 64.78 79.17 64.93 79.12 64.93 79.04 64.89 78.95 64.96 78.84 64.98 78.81 64.96 78.71 64.95 78.65 64.88 78.56 64.91 78.44 64.85 78.2 64.86 78.05 64.78 77.99 64.87 77.92 64.93 77.88 65.05 77.79 65.1 77.83 65.15 77.8 65.15 77.73 65.36 77.67 65.42 77.7 65.54 77.76 65.54 77.79 65.61 77.9 65.61 77.95 65.64 77.96 65.68 77.92 65.79 77.92 65.86 77.88 65.9 77.87 66.04 77.83 66.1 77.71 66.25 77.61 66.31 77.58 66.39 77.33 66.42 77.3 66.46 77.29 66.77 77.17 66.9 77.16 67.04 77.18 67.2 77.11 67.31 77.15 67.45 77.12 67.51 77.04 67.57 77.04 67.68 76.97 67.74 76.97 67.78 76.87 67.8 76.69 67.77 76.6 67.71 76.58 67.65 76.47 67.67 76.3 67.5 76.26 67.5 76.22 67.56 76.12 67.58 75.9 67.45 75.83 67.45 75.99 67.54 76.01 67.59 76.13 67.69 76.25 67.74 76.42 67.96 76.44 68.03 76.39 68.12 76.18 68.05 76.24 68.23 76.15 68.47 76.17 68.62 76.24 68.68 76.19 68.77 76.04 68.77 75.94 68.66 75.83 68.71 75.77 68.69 75.71 68.62 75.64 68.64 75.65 68.66 75.65 68.66 75.61 68.64 75.57 68.58 75.49 68.55 75.44 68.5 75.4 68.5 75.37 68.59 75.25 68.71 75.24 68.74 75.27 68.78 75.27 68.83 75.22 68.9 75.22 69 75.17 69.07 75.17 69.12 75.15 69.14 75.16 69.23 75.1 69.3 75.06 69.3 75 69.27 74.93 69.15 74.87 69.11 74.82 69.14 74.74 69.15 74.71 69.18 74.62 69.2 74.54 69.2 74.5 69.37 74.46 69.38 74.37 69.36 74.29 69.3 74.25 69.32 74.17 69.41 74.13 69.43 74.06 69.42 73.93 69.37 73.91 69.42 73.79 69.48 73.79 69.51 73.72 69.59 73.67 69.62 73.57 69.63 73.55 69.77 73.66 69.84 73.68 69.9 73.68 69.98 73.79 70.04 73.83 70.1 73.84 70.28 73.85 70.32 73.94 70.34 73.96 70.37 73.96 70.45 73.95 70.48 73.89 70.59 73.82 70.64 73.78 70.75 73.73 70.84 73.64 70.89 73.58 70.89 73.53 70.98 73.38 71.02 73.26 71.02 73.24 71.06 73.22 71.07 73.28 71.19 73.28 71.25 73.26 71.29 73.21 71.33 73.16 71.3 73.12 71.31 73.12 71.35 73.06 71.43 73.06 71.54 73.04 71.59 72.95 71.6 72.94 71.62 72.9 71.64 72.87 71.63 72.81 71.74 72.76 71.78 72.73 71.78 72.72 71.82 72.65 71.89 72.65 71.92 72.59 72 72.58 72.06 72.53 72.1 72.53 72.13 72.52 72.17 72.53 72.21 72.53 72.29 72.51 72.43 72.48 72.48 72.42 72.5 72.39 72.56 72.34 72.61 72.19 72.61 72.08 72.66 72.03 72.64 71.96 72.57 71.85 72.53 71.69 72.52 71.61 72.55 70.95 72.9 70.7 73.09 70.54 73.23 70.53 73.29 70.54 73.43 70.58 73.5 70.58 73.54 70.61 73.59 70.62 73.68 70.59 73.74 70.55 73.77 70.55 73.85 70.58 73.89 70.58 73.95 70.48 74.09 70.44 74.11 70.35 74.09 70.29 74.11 70.21 74.1 70.13 74.11 70.09 74.09 69.96 74.12 69.74 74.05 69.62 74.18 69.54 74.23 69.37 74.23 69.29 74.27 69.19 74.35 69.15 74.43 69.1 74.46 69.02 74.46 68.93 74.39 68.84 74.46 68.69 74.47 68.62 74.51 68.57 74.52 68.5 74.57 68.39 74.56 68.34 74.51 68.31 74.51 68.28 74.53 68.17 74.54 68.12 74.58 68.09 74.58 67.98 74.52 67.95 74.52 67.86 74.56 67.73 74.55 67.61 74.48 67.55 74.54 67.46 74.54 67.37 74.55 67.27 74.5 67.17 74.5 67.03 74.57 67.03 74.98 66.99 75.02 67.21 75.46 67.12 75.51 66.86 74.96 66.59 75.13 66.6 75.15 66.4 75.28 66.42 75.31 66.32 75.36 66.37 75.45 66.16 75.59 66.05 75.43 66.12 75.38 66.19 75.33 66.27 75.28 66.25 75.26 66.38 75.17 66.42 75.14 66.8 74.88 66.49 74.25 65.53 74.75 65.58 74.86 65.54 74.88 65.47 74.72 65.26 74.82 65.29 74.88 65.09 74.99 65.13 75.1 65.15 75.1 65.23 75.31 65.13 75.35 65.07 75.24 64.35 75.68 64.37 75.83 64.72 75.84 65.4 75.45 65.45 75.37 65.51 75.38 65.48 75.43 65.74 75.6 65.99 75.89 66.05 75.86 66.24 76.05 66.88 75.93 66.93 76.12 66.22 76.29 65.54 75.61 65.4 75.6 64.82 75.95 64.78 76.05 64.76 76.08 64.73 76.11 64.72 76.15 64.52 76.23 64.41 76.24 64.39 76.26 64.32 76.25 64.27 76.21 64.24 76.27 64.2 76.27 64.15 76.23 64.12 76.23 64.08 76.18 64.07 76.16 64.09 76.1 64.07 76.07 64 76.04 63.96 75.96 63.86 75.95 63.83 75.93 63.8 75.84 63.69 75.86 63.65 75.81 63.62 75.76 63.55 75.75 63.51 75.71 63.48 75.68 63.47 75.62 63.44 75.6 63.38 75.62 63.31 75.66 63.24 75.71 63.18 75.72 63.17 75.76 63.14 75.77 63.15 75.8 63.13 75.84 63.06 75.88 63 75.88 62.94 75.86 62.91 75.82 62.85 75.85 62.76 75.91 62.66 76.01 62.55 76.18 62.47 76.31 62.38 76.39 62.38 76.45 62.34 76.5 62.28 76.57 62.23 76.62 62.15 76.7 62.13 76.74 62.14 76.84 62.13 76.86 62.11 76.83 62.1 76.82 62.06 76.88 62.05 76.91 62.07 76.97 62.01 76.96 62.03 77.01 62.08 77.07 62.04 77.09 61.99 77.09 61.98 77.15 61.96 77.18 61.97 77.21 61.95 77.26 61.85 77.22 61.81 77.22 61.8 77.27 61.83 77.31 61.81 77.35 61.85 77.36 61.82 77.39 61.73 77.38 61.67 77.37 61.42 77.56 61.4 77.71 61.29 77.81 61.41 77.88 61.56 78.06 61.58 78.2 61.53 78.31 61.37 78.36 61.27 78.33 61.24 78.38 61.33 78.57 61.32 78.6 61.25 78.62 61.13 78.55 61.11 78.68 61.08 78.68 61.04 78.64 61.02 78.54 61.08 78.36 60.92 78.37 60.78 78.24 60.79 78.46 60.69 78.47 60.25 78.61 60.26 78.62 60.25 78.67 60.22 78.7 60.16 78.72 60.01 78.71 59.92 78.77 59.85 78.79 59.78 78.8 59.68 78.78 59.56 78.82 59.49 78.83 59.33 78.89 59.16 78.87 59.04 78.82 58.95 78.86 58.71 78.88 58.45 78.92 58.38 78.99 58.35 79.04 58.29 79.08 58.2 79.09 58.13 79.2 58.06 79.24 58.02 79.3 58.02 79.33 58.06 79.39 58.05 79.52 58.08 79.53 58.11 79.59 58.13 79.7 58.12 79.78 58.15 79.83 58.13 79.91 58.11 79.92 58.11 79.95 58.14 79.99 58.14 80.04 58.12 80.15 58.14 80.27 58.11 80.33 58.12 80.48 58.1 80.51 58.05 80.55 58.05 80.61 58.08 80.66 58.08 80.73 58.1 80.82 58.07 80.88 58.04 80.88 58 80.92 58.01 80.99 57.96 81.07 57.98 81.11 58.04 81.17 58.06 81.27 58.15 81.33 58.19 81.42 58.28 81.51 58.29 81.6 58.26 81.71 58.18 81.83 58.19 81.97 58.17 82 58.1 82 58.06 82.05 58.06 82.1 58.11 82.14 58.06 82.27 57.99 82.34 57.9 82.39 57.87 82.42 57.84 82.53 57.84 82.62 57.79 82.68 57.62 82.74 57.58 82.73 57.55 82.75 57.48 82.75 57.42 82.74 57.33 82.79 57.24 82.76 57.27 82.87 57.22 82.92 57.19 82.96 57.18 83.02 57.16 83.04 57.18 83.12 57.15 83.14 57.02 83.17 56.94 83.14 56.9 83.09 56.85 83.07 56.83 83.02 56.79 82.99 56.7 83.03 56.64 83.01 56.6 82.99 56.53 82.9 56.44 82.89 56.33 82.82 56.33 82.89 56.29 82.93 56.29 82.97 56.32 83.05 56.28 83.15 56.28 83.18 56.39 83.32 56.43 83.33 56.44 83.36 56.5 83.4 56.52 83.45 56.51 83.52 56.6 83.57 56.63 83.64 56.74 83.74 56.76 83.83 56.76 83.91 56.7 83.97 56.67 83.97 56.69 84.07 56.72 84.11 56.72 84.14 56.65 84.21 56.56 84.24 56.53 84.4 56.42 84.44 56.42 84.54 56.41 84.59 56.37 84.64 56.34 84.65 56.31 84.65 56.26 84.59 56.25 84.59 56.22 84.65 56.14 84.62 56.08 84.64 56.01 84.58 55.96 84.57 55.88 84.48 55.8 84.48 55.78 84.48 55.73 84.39 55.66 84.39 55.6 84.35 55.55 84.27 55.49 84.29 55.46 84.32 55.41 84.33 55.35 84.3 55.31 84.24 55.22 84.24 55.14 84.19 55.09 84.19 55.07 84.2 55.06 84.33 55.11 84.49 55.1 84.5 55.1 84.54 55.12 84.61 55.11 84.69 55.03 84.7 54.93 84.52 54.92 84.41 54.85 84.36 54.8 84.36 54.79 84.39 54.73 84.46 54.73 84.57 54.71 84.64 54.7 84.72 54.6 84.75 54.61 84.83 54.59 84.87 54.39 84.93 54.35 85.04 54.29 85.08 54.24 85.07 54.21 85.03 54.18 85.02 54.12 85.03 54.06 84.99 53.91 84.98 53.85 84.93 53.83 84.86 53.73 84.84 53.62 84.8 53.58 84.75 53.57 84.71 53.63 84.7 53.66 84.55 53.71 84.5 53.65 84.45 53.62 84.34 53.57 84.22 53.58 84.19 53.54 84.08 53.5 84.08 53.46 84.04 53.45 83.92 53.42 83.83 53.39 83.83 53.37 83.8 53.34 83.79 53.26 83.82 53.22 83.82 53.18 83.8 53.13 83.7 53.12 83.58 53.08 83.57 53.07 83.55 53.03 83.55 52.97 83.52 52.98 83.49 52.89 83.46 52.85 83.41 52.84 83.29 52.79 83.2 52.76 83.09 52.62 83.09 52.57 83.04 52.57 82.93 52.56 82.88 52.5 82.84 52.48 82.82 52.47 82.74 52.48 82.65 52.35 82.66 52.29 82.59 52.28 82.54 52.2 82.54 52.15 82.5 52.14 82.44 52.15 82.37 52.12 82.35 52.06 82.36 52.01 82.35 51.94 82.31 51.9 82.26 51.81 82.25 51.73 82.2 51.62 82.21 51.53 82.19 51.49 82.22 51.41 82.22 51.4 82.24 51.36 82.24 51.28 82.22 51.26 82.2 51.24 82.2 51.21 82.16 51.2 82.16 51.19 82.23 51.16 82.26 51.11 82.28 50.91 82.21 50.78 82.29 50.68 82.29 50.66 82.32 50.58 82.36 50.5 82.34 50.51 82.41 50.49 82.44 50.4 82.44 50.24 82.5 50.23 82.52 50.22 82.55 50.15 82.59 49.99 82.57 49.95 82.6 49.93 82.63 49.93 82.72 49.84 82.78 49.79 82.78 49.74 82.83 49.63 82.86 49.63 82.91 49.56 82.98 49.49 82.98 49.47 83.04 49.41 83.11 49.43 83.23 49.33 83.46 49.37 83.51 49.38 83.57 49.37 83.61 49.31 83.64 49.31 83.71 49.22 83.77 49.23 83.8 49.33 83.84 49.3 83.92 49.32 84.02 49.31 84.05 49.31 84.08 49.28 84.15 49.29 84.2 49.42 84.33 49.42 84.36 49.4 84.38 49.34 84.41 49.16 84.39 49.11 84.45 49.06 84.46 48.94 84.44 48.89 84.48 48.81 84.46 48.78 84.47 48.75 84.57 48.7 84.6 48.55 84.55 48.51 84.59 48.48 84.66 48.45 84.68 48.4 84.67 48.26 84.54 48.05 84.46 48 84.44 47.97 84.4 47.83 84.34 47.79 84.3 47.75 84.19 47.63 84.18 47.58 84.11 47.54 83.97 47.53 83.9"/>
</svg>