<?xml version="1.0" encoding="UTF-8" standalone="no"?><!DOCTYPE svg PUBLIC "-//W3C//DTD SVG 1.1//EN" "http://www.w3.org/Graphics/SVG/1.1/DTD/svg11.dtd"><svg width="100%" height="100%" viewBox="0 0 100 100" version="1.1" xmlns="http://www.w3.org/2000/svg" xmlns:xlink="http://www.w3.org/1999/xlink" xml:space="preserve" xmlns:serif="http://www.serif.com/" style="fill-rule:evenodd;clip-rule:evenodd;stroke-linejoin:round;stroke-miterlimit:2;"><rect id="_10_miyagi_ajishima" serif:id="10_miyagi_ajishima" x="0" y="0" width="100" height="100" style="fill:none;"/><path d="M63.79,35.613c0.239,0.104 0.458,0.198 0.676,0.293c0.033,0.014 0.066,0.057 0.093,0.052c0.317,-0.057 0.463,0.109 0.522,0.399c-0.017,0.014 -0.053,0.049 -0.057,0.046c-0.245,-0.2 -0.506,-0.138 -0.762,-0.039c-0.084,0.033 -0.209,0.115 -0.21,0.177c-0.003,0.166 -0.189,0.37 0.103,0.499c0.327,0.144 0.634,0.333 0.95,0.502c0.024,0.013 0.05,0.039 0.073,0.037c0.301,-0.022 0.601,-0.052 0.902,-0.072c0.173,-0.011 0.354,-0.037 0.519,0c0.146,0.033 0.286,0.129 0.407,0.225c0.264,0.209 0.559,0.147 0.853,0.137c0.15,-0.005 0.303,0.012 0.451,0.038c0.048,0.008 0.117,0.08 0.117,0.121c-0.001,0.045 -0.065,0.098 -0.114,0.131c-0.167,0.114 -0.339,0.221 -0.509,0.331c-0.008,0.005 -0.02,0.015 -0.019,0.02c0.093,0.32 -0.09,0.647 0.016,0.963c0.055,0.163 0.139,0.308 -0.025,0.456c-0.033,0.03 -0.036,0.092 -0.056,0.137c-0.06,0.136 -0.114,0.276 -0.187,0.406c-0.034,0.06 -0.149,0.1 -0.149,0.15c-0.002,0.204 -0.083,0.32 -0.261,0.434c-0.168,0.108 0.021,0.649 0.231,0.711c0.112,0.033 0.227,0.056 0.341,0.083c0.011,0.03 0.023,0.059 0.034,0.089c-0.129,0.057 -0.252,0.135 -0.387,0.167c-0.183,0.043 -0.302,0.292 -0.186,0.444c0.12,0.157 0.15,0.429 0.451,0.361c0.013,-0.003 0.044,0.017 0.045,0.028c0.046,0.404 0.462,0.391 0.689,0.494c0.262,0.119 0.571,0.321 0.922,0.217c0.133,-0.039 0.268,0.022 0.245,0.204c-0.03,0.239 0.051,0.321 0.303,0.376c0.208,0.045 0.385,0.245 0.632,0.21c0.115,-0.016 0.244,-0.023 0.337,-0.081c0.155,-0.096 0.293,-0.068 0.302,0.114c0.009,0.18 0.084,0.271 0.238,0.359c0.124,0.07 0.304,0.147 0.246,0.372c-0.012,0.048 0.088,0.116 0.112,0.183c0.042,0.118 0.06,0.245 0.099,0.364c0.044,0.134 0.1,0.264 0.165,0.433c-0.087,0.178 -0.162,0.405 -0.051,0.669c0.026,0.063 -0.06,0.218 -0.136,0.27c-0.126,0.086 -0.348,0.073 -0.241,0.328c0.01,0.025 -0.013,0.086 -0.038,0.1c-0.255,0.147 -0.503,0.314 -0.775,0.417c-0.136,0.051 -0.296,0.072 -0.215,0.223c0.054,0.101 -0.096,0.442 0.267,0.307c0.086,-0.032 0.253,0.002 0.309,0.068c0.24,0.287 0.508,0.253 0.823,0.16c0.118,-0.035 0.273,0.054 0.411,0.09c0.121,0.032 0.242,0.068 0.414,0.116c-0.079,0.068 -0.131,0.134 -0.199,0.168c-0.162,0.082 -0.151,0.186 -0.069,0.319c0.047,0.075 0.068,0.167 0.118,0.238c0.121,0.172 0.216,0.34 0.061,0.541c-0.006,0.008 0.02,0.056 0.042,0.068c0.304,0.175 0.21,0.474 0.236,0.737c0.003,0.026 0.009,0.065 0.027,0.075c0.372,0.216 0.128,0.465 0.035,0.701c-0.055,0.141 -0.065,0.221 0.123,0.273c0.305,0.083 0.573,0.336 0.936,0.128c0.012,0.029 0.024,0.059 0.036,0.088c-0.134,0.169 -0.273,0.333 -0.398,0.508c-0.041,0.058 -0.084,0.176 -0.056,0.212c0.171,0.217 0.174,0.42 0.002,0.633c-0.021,0.026 -0.036,0.075 -0.026,0.103c0.08,0.232 0.166,0.462 0.248,0.685c-0.062,0.082 -0.117,0.188 -0.202,0.259c-0.072,0.059 -0.176,0.101 -0.269,0.108c-0.137,0.01 -0.279,-0.038 -0.414,-0.023c-0.2,0.022 -0.339,0.115 -0.234,0.365c-0.194,0.069 -0.244,0.178 -0.168,0.397c0.101,0.29 -0.148,0.581 -0.457,0.586c-0.411,0.007 -1.057,0.42 -1.165,0.745c-0.083,0.248 0.187,0.601 0.437,0.56c0.244,-0.04 0.486,-0.114 0.641,0.18c0.02,0.039 0.137,0.038 0.208,0.037c0.189,-0.002 0.368,-0.009 0.506,0.168c0.031,0.04 0.167,0.028 0.24,0.001c0.176,-0.066 0.329,-0.101 0.487,0.052c0.044,0.042 0.16,0.015 0.243,0.01c0.164,-0.01 0.328,-0.028 0.491,-0.042c0.017,0.035 0.033,0.07 0.05,0.105c-0.095,0.106 -0.197,0.207 -0.281,0.322c-0.049,0.066 -0.069,0.153 -0.127,0.227c-0.043,0.131 -0.084,0.263 -0.128,0.394c-0.025,0.075 -0.051,0.151 -0.083,0.223c-0.05,0.113 -0.106,0.224 -0.142,0.299c-0.068,0.192 -0.117,0.333 -0.169,0.474c-0.017,0.047 -0.028,0.118 -0.062,0.133c-0.178,0.078 -0.281,0.17 -0.171,0.382c0.019,0.036 -0.049,0.169 -0.089,0.175c-0.229,0.035 -0.24,0.187 -0.25,0.369c-0.004,0.075 -0.071,0.171 -0.137,0.212c-0.156,0.094 -0.189,0.189 -0.064,0.327c0.025,0.028 0.076,0.068 0.07,0.083c-0.258,0.593 0.359,0.411 0.534,0.501c0.167,0.086 0.504,-0.11 0.744,-0.228c0.184,-0.091 0.327,-0.206 0.539,-0.058c0.447,0.31 0.416,0.486 0.342,0.735c-0.047,0.158 -0.048,0.257 0.075,0.369c0.071,0.065 0.097,0.182 0.17,0.242c0.092,0.075 0.21,0.157 0.321,0.164c0.328,0.021 0.658,0.01 0.987,0.004c0.07,-0.001 0.158,-0.014 0.207,-0.056c0.259,-0.223 0.598,-0.371 0.712,-0.734c0.008,-0.026 0.014,-0.064 0.033,-0.074c0.309,-0.155 0.492,-0.509 0.876,-0.548c0.067,-0.007 0.13,-0.057 0.194,-0.086c0.184,-0.083 0.353,-0.24 0.581,-0.097c0.035,0.022 0.115,-0.023 0.173,-0.04c0.051,-0.015 0.109,-0.062 0.15,-0.05c0.336,0.1 0.744,-0.011 0.995,0.343c0.034,0.048 0.108,0.068 0.164,0.101c0.122,0.072 0.33,0.721 0.269,0.845c-0.04,0.081 -0.07,0.175 -0.131,0.235c-0.167,0.163 -0.275,0.309 -0.044,0.512c0.032,0.028 -0.013,0.194 -0.068,0.259c-0.121,0.145 -0.271,0.267 -0.368,0.434c-0.133,0.027 -0.311,0.009 -0.391,0.089c-0.185,0.187 -0.325,0.419 -0.477,0.638c-0.021,0.03 -0.019,0.105 0.004,0.13c0.171,0.185 0.347,0.367 0.527,0.543c0.116,0.113 0.225,0.257 0.366,0.314c0.233,0.094 0.489,0.129 0.764,0.196c-0.101,0.763 0.463,1.3 0.818,1.95c-0.219,0.345 -0.192,0.403 0.261,0.517c0.468,0.118 0.935,0.243 1.407,0.366c-0.202,0.397 -0.403,0.798 -0.608,1.196c-0.087,0.169 -0.08,0.265 0.14,0.311c0.339,0.071 0.666,0.218 1.007,0.255c0.318,0.034 0.647,-0.032 0.971,-0.06c0.043,-0.004 0.094,-0.029 0.123,-0.061c0.325,-0.357 0.649,-0.717 0.969,-1.079c0.094,-0.107 0.114,-0.212 -0.049,-0.283c-0.057,-0.025 -0.109,-0.065 -0.175,-0.105c0.349,-0.414 0.689,-0.816 1.025,-1.215c0.317,0.146 0.422,0.1 0.654,-0.184c0.403,-0.495 0.82,-0.978 1.236,-1.461c0.058,-0.067 0.137,-0.132 0.219,-0.161c0.22,-0.077 0.324,-0.25 0.423,-0.439c0.053,-0.103 0.125,-0.196 0.196,-0.289c0.264,-0.347 0.614,-0.217 0.924,-0.164c0.214,0.366 0.35,0.819 0.655,1.048c0.243,0.182 0.458,0.498 0.89,0.492c0.263,-0.004 0.583,0.262 0.776,0.492c0.096,0.114 -0.012,0.428 -0.076,0.637c-0.046,0.149 -0.153,0.293 -0.267,0.404c-0.14,0.136 -0.305,0.261 -0.482,0.342c-0.124,0.057 -0.281,0.026 -0.33,-0.158c-0.048,-0.178 -0.191,-0.198 -0.333,-0.167c-0.275,0.06 -0.495,0.128 -0.7,0.414c-0.34,0.475 -0.744,0.935 -1.367,1.132c-0.143,0.045 -0.269,0.399 -0.263,0.606c0.013,0.433 0.251,0.789 0.581,1.077c0.047,0.041 0.046,0.134 0.08,0.195c0.048,0.084 0.109,0.161 0.164,0.24c0.056,0.08 0.156,0.158 0.159,0.24c0.007,0.211 0.145,0.302 0.263,0.445c0.176,0.214 0.313,0.504 0.347,0.776c0.022,0.175 0,0.316 0.146,0.451c0.098,0.09 0.029,0.763 -0.063,0.874c-0.127,0.153 -0.26,0.302 -0.387,0.455c-0.028,0.033 -0.037,0.081 -0.057,0.122c-0.057,0.119 -0.11,0.24 -0.175,0.355c-0.025,0.044 -0.107,0.07 -0.11,0.109c-0.018,0.252 -0.027,0.505 -0.029,0.757c-0.001,0.147 0.019,0.285 -0.176,0.338c-0.068,0.018 -0.12,0.1 -0.175,0.157c-0.024,0.026 -0.034,0.088 -0.055,0.091c-0.379,0.044 -0.517,0.466 -0.868,0.551c-0.026,0.006 -0.055,0.018 -0.074,0.036c-0.239,0.231 -0.485,0.455 -0.712,0.697c-0.187,0.199 -0.349,0.408 -0.136,0.707c0.06,0.084 0.008,0.242 0.031,0.362c0.015,0.075 0.075,0.141 0.114,0.211c0.069,0.122 0.141,0.242 0.206,0.366c0.016,0.031 -0.005,0.092 0.015,0.107c0.218,0.164 0.44,0.323 0.664,0.48c0.051,0.035 0.115,0.05 0.167,0.084c0.181,0.119 0.372,0.227 0.536,0.367c0.297,0.256 0.669,0.355 1.019,0.483c0.189,0.069 0.451,0.06 0.636,-0.018c0.15,-0.063 0.231,-0.037 0.35,0.015c0.122,0.053 0.253,0.087 0.318,0.108c0.026,0.232 0.056,0.443 0.068,0.656c0.003,0.054 -0.055,0.11 -0.078,0.167c-0.067,0.165 -0.133,0.331 -0.193,0.499c-0.011,0.03 -0.003,0.088 0.019,0.105c0.205,0.162 0.414,0.318 0.624,0.474c0.052,0.038 0.144,0.058 0.158,0.105c0.094,0.31 0.331,0.251 0.55,0.223c0.242,-0.03 0.299,-0.203 0.296,-0.417c-0,-0.027 0.044,-0.055 0.083,-0.098c0.075,0.059 0.145,0.114 0.217,0.171c0.429,-0.158 0.75,-0.07 0.92,0.195c-0.068,0.182 -0.119,0.313 -0.164,0.446c-0.012,0.034 0.009,0.097 -0.01,0.108c-0.261,0.16 -0.064,0.388 -0.079,0.58c-0.003,0.045 0.125,0.112 0.203,0.148c0.107,0.048 0.237,0.054 0.333,0.116c0.39,0.254 0.71,0.573 0.92,1.001c0.036,0.074 0.223,0.074 0.359,0.114c0.086,0.209 0.173,0.458 0.295,0.689c0.034,0.065 0.169,0.088 0.262,0.106c0.138,0.026 0.238,0.043 0.207,0.236c-0.032,0.202 0.398,0.534 0.597,0.483c0.123,-0.031 0.246,-0.065 0.383,-0.102c0.039,0.191 0.073,0.351 -0.201,0.352c-0.064,0 -0.175,0.056 -0.184,0.103c-0.048,0.229 -0.226,0.295 -0.392,0.41c-0.084,0.059 -0.127,0.347 -0.064,0.412c0.115,0.118 0.159,0.348 0.422,0.331c0.085,-0.006 0.188,0.201 0.276,0.316c0.026,0.034 0.017,0.109 0.045,0.123c0.236,0.116 0.467,0.257 0.718,0.321c0.224,0.056 0.325,0.145 0.301,0.39c-0.301,-0.024 -0.483,0.107 -0.567,0.404c-0.04,0.14 -0.444,0.157 -0.635,0.063c-0.112,-0.055 -0.238,-0.095 -0.362,-0.11c-0.188,-0.023 -0.397,0.102 -0.562,-0.084c-0.388,0.178 -0.461,-0.024 -0.504,-0.364c-0.014,-0.109 -0.239,-0.218 -0.387,-0.276c-0.3,-0.117 -0.615,-0.196 -0.922,-0.295c-0.084,-0.027 -0.162,-0.079 -0.247,-0.101c-0.079,-0.02 -0.163,-0.017 -0.246,-0.02c-0.211,-0.007 -0.423,-0.011 -0.634,-0.019c-0.026,-0.001 -0.06,-0.036 -0.074,-0.027c-0.222,0.131 -0.446,0.26 -0.658,0.405c-0.106,0.073 -0.188,0.18 -0.283,0.269c-0.047,0.043 -0.126,0.069 -0.147,0.121c-0.117,0.288 -0.351,0.241 -0.567,0.193c-0.199,-0.044 -0.352,-0.064 -0.506,0.125c-0.183,0.225 -0.391,0.073 -0.546,-0.005c0.095,-0.153 0.177,-0.298 0.271,-0.436c0.101,-0.147 0.047,-0.201 -0.109,-0.227c-0.346,-0.056 -0.691,-0.121 -1.021,-0.179c-0.008,-0.088 0.004,-0.217 -0.023,-0.226c-0.305,-0.098 -0.386,-0.533 -0.778,-0.509c-0.079,0.005 -0.169,-0.114 -0.247,-0.184c-0.046,-0.041 -0.07,-0.11 -0.119,-0.141c-0.137,-0.087 -0.163,-0.244 -0.239,-0.352c-0.161,-0.231 -0.212,-0.373 0.012,-0.576c0.041,-0.037 0.001,-0.199 -0.041,-0.285c-0.425,-0.87 -1.185,-1.153 -2.07,-0.908c-0.296,0.082 -0.538,0.283 -0.537,0.661c0,0.115 -0.092,0.232 -0.148,0.345c-0.054,0.109 -0.116,0.214 -0.208,0.383c-0.245,0.127 -0.425,-0.198 -0.681,-0.238c-0.046,-0.295 0.145,-0.584 -0.02,-0.873c-0.027,-0.046 0.02,-0.141 0.045,-0.208c0.026,-0.067 0.112,-0.145 0.095,-0.19c-0.098,-0.257 0.07,-0.226 0.226,-0.248c0.069,-0.01 0.133,-0.088 0.189,-0.146c0.065,-0.067 0.105,-0.169 0.181,-0.214c0.177,-0.103 0.12,-0.199 0.017,-0.306c-0.115,-0.12 -0.233,-0.237 -0.35,-0.356c-0.013,-0.013 -0.024,-0.034 -0.04,-0.04c-0.306,-0.116 -0.612,-0.231 -0.919,-0.344c-0.095,-0.035 -0.194,-0.062 -0.358,-0.115c0.185,-0.064 0.286,-0.1 0.392,-0.137c0.023,-0.266 0.044,-0.532 0.07,-0.797c0.003,-0.029 0.048,-0.052 0.055,-0.082c0.026,-0.108 0.045,-0.217 0.078,-0.38c0.016,-0.001 0.123,-0.04 0.188,-0.003c0.303,0.17 0.458,-0.061 0.646,-0.212c0.035,-0.028 0.07,-0.066 0.111,-0.077c0.405,-0.109 0.44,-0.46 0.488,-0.779c0.046,-0.31 -0.184,-0.505 -0.401,-0.667c-0.676,-0.506 -1.307,-1.083 -2.099,-1.412c-0.249,-0.103 -0.531,-0.181 -0.797,-0.179c-0.617,0.006 -1.217,-0.103 -1.825,-0.159c-0.289,-0.027 -0.624,0.091 -0.888,0.235c-0.343,0.187 -0.646,0.455 -0.948,0.71c-0.096,0.081 -0.136,0.23 -0.2,0.349c-0.026,0.047 -0.038,0.121 -0.076,0.14c-0.288,0.135 -0.581,0.261 -0.873,0.386c-0.046,0.019 -0.13,0.006 -0.144,0.034c-0.125,0.254 -0.401,0.192 -0.576,0.295c-0.235,0.138 -0.598,0.101 -0.713,0.445c-0.024,0.072 -0.143,0.109 -0.206,0.174c-0.065,0.067 -0.167,0.153 -0.161,0.222c0.015,0.16 -0.068,0.19 -0.176,0.274c-0.222,0.172 -0.381,0.286 -0.61,0.005c-0.085,-0.105 -0.363,0.069 -0.416,0.225c-0.075,0.221 -0.112,0.492 -0.264,0.638c-0.147,0.141 -0.416,0.179 -0.638,0.208c-0.166,0.021 -0.342,-0.045 -0.514,-0.072c-0.018,-0.003 -0.043,0.008 -0.056,-0.001c-0.295,-0.194 -0.677,-0.072 -0.981,-0.307c-0.235,-0.182 -0.559,-0.248 -0.841,-0.371c-0.065,-0.028 -0.157,-0.068 -0.173,-0.122c-0.054,-0.185 -0.142,-0.281 -0.351,-0.288c-0.046,-0.002 -0.152,-0.236 -0.117,-0.308c0.152,-0.312 -0.108,-0.471 -0.215,-0.683c-0.07,-0.139 -0.204,-0.255 -0.241,-0.398c-0.097,-0.377 -0.148,-0.766 -0.234,-1.147c-0.098,-0.438 -0.6,-0.658 -1.012,-0.485c-0.1,0.042 -0.249,-0.044 -0.378,-0.058c-0.091,-0.01 -0.246,-0.028 -0.267,0.012c-0.124,0.239 -0.31,0.13 -0.487,0.129c-0.096,-0.001 -0.195,0.061 -0.289,0.103c-0.137,0.061 -0.308,0.216 -0.399,0.178c-0.216,-0.092 -0.259,0.077 -0.37,0.153c-0.135,0.093 -0.28,0.171 -0.412,0.266c-0.137,0.098 -0.252,0.234 -0.4,0.308c-0.272,0.136 -0.512,0.303 -0.701,0.542c-0.017,0.022 -0.038,0.055 -0.06,0.057c-0.492,0.058 -0.703,0.684 -1.256,0.624c-0.035,-0.004 -0.073,0.075 -0.118,0.1c-0.177,0.099 -0.357,0.194 -0.538,0.286c-0.031,0.016 -0.081,-0.002 -0.109,0.016c-0.234,0.149 -0.475,0.291 -0.695,0.459c-0.142,0.108 -0.253,0.126 -0.397,0.016c-0.067,-0.051 -0.168,-0.1 -0.245,-0.09c-0.373,0.047 -0.58,-0.23 -0.807,-0.428c-0.15,-0.131 -0.264,-0.268 -0.48,-0.256c-0.053,0.003 -0.141,0.002 -0.157,-0.028c-0.151,-0.281 -0.46,-0.339 -0.694,-0.5c-0.1,-0.069 -0.237,-0.086 -0.431,-0.151c0.102,-0.083 0.185,-0.154 0.272,-0.222c0.123,-0.096 0.259,-0.181 0.177,-0.376c-0.02,-0.049 -0.01,-0.111 -0.013,-0.167c-0.014,-0.252 -0.045,-0.28 -0.398,-0.336c0.008,-0.135 -0.006,-0.279 0.031,-0.408c0.059,-0.21 -0.022,-0.349 -0.17,-0.474c-0.381,-0.319 -1.083,-0.437 -1.466,0.064c-0.129,0.168 -0.302,0.224 -0.517,0.112c-0.085,-0.044 -0.209,-0.017 -0.315,-0.013c-0.393,0.014 -0.685,0.016 -0.892,-0.402c-0.038,-0.076 -0.162,-0.105 -0.218,-0.178c-0.081,-0.105 -0.162,-0.222 -0.193,-0.347c-0.031,-0.126 0.054,-0.339 -0.009,-0.387c-0.158,-0.12 -0.367,-0.218 -0.563,-0.234c-0.222,-0.018 -0.451,0.086 -0.678,0.095c-0.446,0.018 -0.683,0.463 -1.107,0.514c-0.094,0.36 -0.461,0.382 -0.702,0.558c-0.118,0.087 -0.274,0.137 -0.42,0.169c-0.414,0.09 -0.363,0.455 -0.441,0.735c-0.041,0.146 0.047,0.331 -0.188,0.396c-0.03,0.008 -0.021,0.183 -0.019,0.28c0.001,0.062 0.023,0.124 0.046,0.234c-0.107,-0.018 -0.191,-0.059 -0.254,-0.038c-0.185,0.063 -0.361,0.152 -0.54,0.23c0.054,0.104 0.089,0.229 0.168,0.308c0.103,0.102 0.237,0.168 0.082,0.336c-0.456,-0.224 -1.111,-0.119 -1.264,-0.833c0.061,0.019 0.115,0.047 0.171,0.052c0.112,0.01 0.276,0.054 0.326,-0.001c0.061,-0.067 0.074,-0.251 0.023,-0.331c-0.122,-0.191 -0.292,-0.352 -0.444,-0.523c-0.018,-0.02 -0.057,-0.048 -0.07,-0.042c-0.352,0.195 -0.601,-0.113 -0.897,-0.184c-0.047,-0.011 -0.126,-0.067 -0.122,-0.091c0.041,-0.252 -0.165,-0.318 -0.295,-0.46c-0.142,-0.156 -0.201,-0.39 -0.281,-0.596c-0.054,-0.138 -0.08,-0.286 -0.131,-0.474c0.147,-0.23 0.046,-0.618 -0.26,-0.799c-0.311,-0.184 -0.62,-0.243 -0.97,-0.067c-0.185,0.093 -0.415,0.094 -0.619,0.156c-0.155,0.047 -0.299,0.178 -0.45,0.181c-0.339,0.007 -0.68,-0.042 -1.04,-0.07c0.042,-0.208 0.007,-0.357 -0.226,-0.383c-0.048,-0.005 -0.132,-0.061 -0.129,-0.086c0.027,-0.287 -0.177,-0.348 -0.381,-0.429c-0.047,-0.019 -0.054,-0.125 -0.09,-0.185c-0.043,-0.073 -0.092,-0.144 -0.148,-0.207c-0.09,-0.1 -0.185,-0.197 -0.285,-0.287c-0.053,-0.048 -0.14,-0.126 -0.18,-0.11c-0.218,0.085 -0.323,-0.057 -0.456,-0.178c-0.128,-0.116 -0.282,-0.203 -0.444,-0.317c0.117,-0.182 0.183,-0.359 -0.031,-0.512c-0.025,-0.018 -0.003,-0.1 -0.003,-0.152c0.001,-0.116 -0.024,-0.239 0.007,-0.346c0.091,-0.32 -0.087,-0.59 -0.222,-0.816c-0.148,-0.246 -0.226,-0.525 -0.396,-0.751c-0.1,-0.133 -0.244,-0.232 -0.369,-0.346c0.024,-0.009 0.047,-0.018 0.071,-0.027c-0.012,-0.141 -0.027,-0.282 -0.036,-0.424c-0.003,-0.04 0.007,-0.082 0.019,-0.12c0.013,-0.043 0.06,-0.113 0.05,-0.121c-0.256,-0.21 -0.068,-0.516 -0.167,-0.758c-0.024,-0.059 -0.042,-0.152 -0.013,-0.197c0.142,-0.222 0.037,-0.29 -0.166,-0.377c-0.321,-0.138 -0.643,-0.152 -0.981,-0.129c-0.119,0.008 -0.242,-0.067 -0.365,-0.075c-0.077,-0.005 -0.162,0.033 -0.235,0.068c-0.153,0.072 -0.279,0.253 -0.506,0.106c0.122,-0.182 0.166,-0.414 0.454,-0.38c0.035,0.004 0.084,-0.038 0.113,-0.071c0.211,-0.248 0.499,-0.25 0.789,-0.265c0.098,-0.005 0.192,-0.057 0.29,-0.074c0.137,-0.023 0.278,-0.026 0.415,-0.05c0.122,-0.022 0.242,-0.061 0.394,-0.101c-0.088,-0.298 -0.052,-0.617 -0.344,-0.811c-0.029,-0.019 -0.062,-0.056 -0.064,-0.087c-0.027,-0.346 -0.315,-0.442 -0.555,-0.58c-0.416,-0.24 -0.438,-0.46 -0.318,-0.849c0.121,-0.389 0.01,-0.589 -0.286,-0.764c-0.058,-0.034 -0.151,-0.038 -0.218,-0.02c-0.121,0.032 -0.277,0.058 -0.344,0.144c-0.253,0.327 -0.684,0.288 -0.976,0.511c-0.181,0.138 -0.353,0.177 -0.575,0.157c-0.137,-0.012 -0.282,0.076 -0.447,0.082c0.268,-0.412 0.834,-0.522 1.022,-1.016c-0.174,-0.035 -0.328,-0.039 -0.458,-0.097c-0.218,-0.097 -0.223,-0.29 -0.018,-0.408c0.184,-0.105 0.248,-0.403 0.541,-0.342c0.011,0.002 0.086,-0.158 0.066,-0.177c-0.158,-0.156 -0.062,-0.251 0.044,-0.377c0.037,-0.044 0.015,-0.21 -0.032,-0.241c-0.187,-0.122 -0.395,-0.21 -0.593,-0.315c-0.133,-0.07 -0.261,-0.148 -0.455,-0.258c0.318,-0.158 0.555,-0.252 0.763,-0.39c0.077,-0.052 0.081,-0.208 0.128,-0.312c0.137,-0.307 -0.03,-0.435 -0.288,-0.543c-0.143,-0.06 -0.25,-0.202 -0.393,-0.264c-0.155,-0.067 -0.331,-0.085 -0.534,-0.132c-0.003,0.007 0.013,-0.067 0.058,-0.114c0.041,-0.043 0.117,-0.052 0.171,-0.086c0.359,-0.233 0.358,-0.234 0.086,-0.587c-0.022,-0.028 -0.027,-0.068 -0.047,-0.12c0.062,-0.037 0.131,-0.081 0.203,-0.118c0.032,-0.016 0.1,-0.014 0.102,-0.028c0.023,-0.138 0.027,-0.279 0.053,-0.416c0.021,-0.109 0.067,-0.213 0.071,-0.34c0.056,-0.144 0.108,-0.289 0.168,-0.431c0.054,-0.128 0.151,-0.248 0.17,-0.379c0.05,-0.347 -0.246,-0.735 -0.65,-0.892c-0.534,-0.208 -0.881,-0.09 -1.213,0.395c-0.045,0.066 -0.147,0.093 -0.223,0.139c-0.019,-0.019 -0.038,-0.038 -0.056,-0.057c0.052,-0.165 0.104,-0.331 0.155,-0.496c0.009,-0.413 -0.376,-0.424 -0.653,-0.564c-0.023,-0.012 -0.079,-0.004 -0.091,0.014c-0.158,0.223 -0.409,0.193 -0.629,0.265c-0.176,0.058 -0.314,0.244 -0.451,0.39c-0.023,0.025 0.031,0.151 0.079,0.206c0.063,0.072 0.155,0.12 0.278,0.211c-0.383,0.103 -0.479,0.586 -0.936,0.538c-0.063,-0.007 -0.156,0.263 -0.271,0.47c-0.015,-0.003 -0.112,-0.023 -0.21,-0.043c0.021,-0.091 0.024,-0.193 0.068,-0.272c0.197,-0.352 0.426,-0.691 0.302,-1.129c-0.01,-0.037 0.009,-0.1 0.037,-0.126c0.124,-0.114 0.241,-0.26 0.39,-0.317c0.295,-0.114 0.281,-0.373 0.391,-0.633c-0.241,-0.011 -0.442,-0.021 -0.672,-0.032c0.123,-0.124 0.232,-0.232 0.34,-0.341c-0.129,-0.082 -0.258,-0.165 -0.384,-0.245c0.043,-0.013 0.122,-0.027 0.189,-0.062c0.059,-0.031 0.156,-0.097 0.149,-0.128c-0.058,-0.257 0.134,-0.378 0.279,-0.508c0.161,-0.144 0.353,-0.253 0.529,-0.381c0.054,-0.039 0.108,-0.082 0.151,-0.133c0.124,-0.144 0.243,-0.293 0.364,-0.44c0.006,-0.007 0.022,-0.015 0.02,-0.018c-0.091,-0.273 0.296,-0.417 0.188,-0.694c-0.003,-0.008 -0.005,-0.022 -0.001,-0.028c0.255,-0.322 -0.114,-0.554 -0.128,-0.839c-0.004,-0.086 -0.117,-0.167 -0.157,-0.221c0,-0.159 -0.011,-0.301 0.003,-0.441c0.015,-0.153 0.018,-0.324 0.09,-0.452c0.188,-0.338 -0.089,-0.473 -0.258,-0.646c-0.223,-0.228 -0.464,-0.44 -0.707,-0.648c-0.055,-0.047 -0.152,-0.043 -0.229,-0.067c-0.112,-0.035 -0.269,-0.04 -0.324,-0.117c-0.154,-0.214 -0.378,-0.254 -0.596,-0.341c-0.135,-0.054 -0.236,-0.192 -0.355,-0.288c-0.047,-0.038 -0.113,-0.103 -0.151,-0.092c-0.298,0.089 -0.436,-0.122 -0.611,-0.289c-0.102,-0.097 -0.244,-0.152 -0.367,-0.228c-0.069,-0.042 -0.133,-0.091 -0.204,-0.129c-0.073,-0.039 -0.149,-0.085 -0.228,-0.098c-0.198,-0.031 -0.382,-0.294 -0.417,-0.511c-0.025,-0.155 -0.138,-0.296 -0.029,-0.458c-0.056,-0.033 -0.109,-0.09 -0.168,-0.096c-0.187,-0.021 -0.359,-0.042 -0.46,-0.239c-0.027,-0.053 -0.12,-0.073 -0.184,-0.108c-0.048,-0.026 -0.141,-0.053 -0.139,-0.075c0.025,-0.39 -0.255,-0.247 -0.445,-0.262c-0.009,-0.001 -0.025,0.002 -0.027,-0.002c-0.159,-0.273 -0.476,-0.261 -0.713,-0.391c-0.122,-0.067 -0.263,-0.102 -0.383,-0.174c-0.134,-0.08 -0.252,-0.187 -0.378,-0.28c-0.124,-0.091 -0.196,-0.16 -0.186,-0.366c0.02,-0.425 -0.174,-0.748 -0.614,-0.944c-0.729,-0.325 -1.472,-0.328 -2.226,-0.199c-0.176,0.03 -0.36,0.179 -0.48,0.324c-0.183,0.221 -0.261,0.49 -0.068,0.718c-0.115,0.163 -0.188,0.333 -0.316,0.433c-0.267,0.208 -0.266,0.471 -0.317,0.773c-0.048,0.283 -0.165,0.665 -0.658,0.639c-0.193,-0.01 -0.396,0.19 -0.641,0.102c-0.04,-0.015 -0.148,0.078 -0.184,0.143c-0.247,0.455 -0.466,0.545 -0.927,0.375c-0.05,-0.019 -0.119,0.02 -0.18,0.022c-0.205,0.009 -0.412,0.031 -0.616,0.014c-0.248,-0.02 -0.497,-0.062 -0.74,-0.119c-0.199,-0.046 -0.395,-0.115 -0.58,-0.199c-0.062,-0.028 -0.134,-0.144 -0.123,-0.207c0.038,-0.227 -0.063,-0.353 -0.306,-0.448c0.302,-0.197 0.424,-0.455 0.465,-0.777c0.013,-0.104 0.188,-0.184 0.278,-0.284c0.054,-0.06 0.132,-0.151 0.119,-0.209c-0.072,-0.31 0.07,-0.438 0.346,-0.536c0.129,-0.046 0.205,-0.229 0.324,-0.325c0.064,-0.051 0.17,-0.047 0.255,-0.074c0.08,-0.026 0.174,-0.042 0.234,-0.094c0.197,-0.17 0.381,-0.341 0.671,-0.35c0.093,-0.003 0.176,-0.138 0.275,-0.187c0.352,-0.174 0.712,-0.332 1.062,-0.509c0.072,-0.036 0.116,-0.128 0.171,-0.196c0.093,-0.112 0.188,-0.223 0.276,-0.339c0.046,-0.06 0.076,-0.132 0.118,-0.195c0.069,-0.106 0.141,-0.21 0.215,-0.312c0.014,-0.019 0.062,-0.035 0.06,-0.042c-0.083,-0.286 0.049,-0.617 -0.052,-0.852c-0.098,-0.229 -0.119,-0.342 0.093,-0.512c-0.23,-0.184 -0.288,-0.52 -0.638,-0.571c-0.082,-0.012 -0.153,-0.091 -0.234,-0.129c-0.079,-0.037 -0.163,-0.074 -0.248,-0.089c-0.153,-0.027 -0.336,0.006 -0.457,-0.068c-0.173,-0.106 -0.332,-0.127 -0.524,-0.113c-0.155,0.011 -0.266,-0.057 -0.398,-0.195c-0.19,-0.2 -0.496,-0.295 -0.764,-0.41c-0.065,-0.028 -0.171,0.05 -0.26,0.066c-0.109,0.019 -0.272,0.077 -0.321,0.028c-0.306,-0.309 -0.735,0.058 -1.041,-0.207c-0.019,-0.017 -0.103,0.022 -0.144,0.053c-0.156,0.116 -0.309,0.13 -0.494,0.056c-0.07,-0.028 -0.184,0.024 -0.267,0.062c-0.136,0.062 -0.266,0.138 -0.393,0.217c-0.08,0.05 -0.166,0.104 -0.223,0.177c-0.098,0.125 -0.179,0.265 -0.261,0.402c-0.032,0.054 -0.073,0.117 -0.072,0.174c0.011,0.438 -0.367,0.714 -0.771,0.546c-0.294,-0.123 -0.522,0.057 -0.768,0.148c-0.185,0.069 -0.36,0.163 -0.54,0.244c-0.016,0.007 -0.05,-0.005 -0.054,0.003c-0.187,0.389 -0.591,0.255 -0.864,0.275c-0.398,0.029 -0.793,0.293 -1.209,0.078c-0.04,-0.021 -0.132,0.006 -0.17,0.042c-0.285,0.272 -0.558,0.558 -0.848,0.826c-0.074,0.069 -0.191,0.111 -0.294,0.125c-0.148,0.021 -0.309,0.033 -0.45,-0.006c-0.076,-0.021 -0.174,-0.157 -0.171,-0.238c0.011,-0.267 -0.315,-0.747 -0.583,-0.788c-0.058,-0.009 -0.139,0.03 -0.187,0.073c-0.102,0.089 -0.207,0.185 -0.276,0.298c-0.035,0.058 0.012,0.161 0.007,0.243c-0.005,0.102 0.011,0.251 -0.046,0.295c-0.107,0.082 -0.275,0.095 -0.334,-0.08c-0.079,-0.233 -0.117,-0.481 -0.198,-0.714c-0.029,-0.083 -0.125,-0.152 -0.206,-0.202c-0.049,-0.03 -0.158,0.015 -0.188,-0.019c-0.271,-0.314 -0.611,-0.002 -0.872,-0.095c-0.411,-0.147 -0.672,0.313 -1.061,0.179c-0.074,-0.026 -0.2,0.146 -0.303,0.148c-0.287,0.006 -0.585,0.011 -0.857,-0.062c-0.186,-0.05 -0.331,-0.242 -0.505,-0.354c-0.096,-0.062 -0.21,-0.121 -0.321,-0.133c-0.347,-0.036 -0.697,-0.049 -1.022,-0.07c0,-0.145 0.041,-0.291 -0.011,-0.342c-0.059,-0.059 -0.202,-0.036 -0.308,-0.046c-0.441,-0.04 -0.819,0.165 -1.215,0.308c-0.059,0.021 -0.137,-0.008 -0.27,-0.019c0.2,-0.148 0.338,-0.253 0.478,-0.354c0.126,-0.091 0.168,-0.191 0.051,-0.303c-0.297,0.103 -0.587,0.204 -0.877,0.305c-0.017,-0.033 -0.033,-0.067 -0.05,-0.1c0.401,-0.261 0.801,-0.522 1.216,-0.792c-0.02,-0.074 -0.039,-0.147 -0.059,-0.221c-0.017,0.02 -0.035,0.041 -0.052,0.061c-0.238,-0.156 -0.475,-0.312 -0.736,-0.483c0.243,-0.143 0.428,-0.345 0.716,-0.173c0.03,0.018 0.142,-0.079 0.2,-0.138c0.025,-0.025 -0.002,-0.125 0.016,-0.132c0.253,-0.089 0.282,-0.293 0.359,-0.518c0.047,-0.136 0.083,-0.228 0.031,-0.356c-0.124,-0.302 0.029,-0.717 0.327,-0.861c0.228,-0.11 0.387,-0.36 0.704,-0.31c0.074,0.012 0.2,-0.155 0.264,-0.263c0.056,-0.095 0.059,-0.222 0.081,-0.336c0.005,-0.023 -0.023,-0.065 -0.014,-0.074c0.32,-0.284 0.094,-0.627 0.107,-0.944c0.001,-0.017 0.011,-0.036 0.023,-0.049c0.234,-0.262 0.454,-0.532 0.746,-0.742c0.257,-0.185 0.477,-0.424 0.707,-0.645c0.064,-0.062 0.098,-0.207 0.157,-0.213c0.308,-0.032 0.36,-0.265 0.458,-0.488c0.042,-0.097 0.185,-0.145 0.269,-0.229c0.054,-0.054 0.132,-0.152 0.115,-0.196c-0.086,-0.216 0.008,-0.351 0.177,-0.448c0.142,-0.081 0.157,-0.167 0.089,-0.308c-0.038,-0.078 -0.07,-0.211 -0.031,-0.264c0.135,-0.183 0.026,-0.297 -0.046,-0.457c-0.057,-0.127 0.004,-0.307 0.054,-0.476c-0.298,-0.245 -0.603,-0.525 -1.069,-0.57c-0.337,-0.033 -0.712,-0.012 -0.996,-0.272c-0.014,-0.012 -0.043,-0.031 -0.047,-0.027c-0.208,0.211 -0.488,0.154 -0.74,0.205c-0.202,0.041 -0.4,0.105 -0.596,0.168c-0.17,0.054 -0.34,0.181 -0.502,0.17c-0.343,-0.025 -0.719,0.165 -1.032,-0.132c-0.044,-0.041 -0.139,-0.033 -0.212,-0.038c-0.158,-0.012 -0.341,0.051 -0.429,-0.158c-0.009,-0.023 -0.057,-0.039 -0.088,-0.042c-0.311,-0.022 -0.626,-0.313 -0.606,-0.618c0.008,-0.123 0.127,-0.294 0.24,-0.344c0.223,-0.1 0.476,-0.136 0.718,-0.19c0.134,-0.03 0.272,-0.042 0.407,-0.067c0.035,-0.006 0.066,-0.044 0.1,-0.044c0.368,-0.005 0.738,0.023 1.102,-0.017c0.309,-0.034 0.608,-0.065 0.913,0.009c0.031,0.007 0.079,-0.027 0.109,-0.054c0.034,-0.03 0.051,-0.095 0.087,-0.105c0.324,-0.092 0.52,-0.457 0.778,-0.513c0.319,-0.069 0.579,-0.373 0.967,-0.24c0.22,0.075 0.487,0.017 0.732,0.013c0.218,-0.003 0.337,-0.122 0.371,-0.335c0.075,-0.471 0.145,-0.944 0.233,-1.413c0.026,-0.139 0.081,-0.302 0.324,-0.196c-0.044,0.337 -0.09,0.687 -0.135,1.038c-0.029,0.228 -0.079,0.458 -0.072,0.685c0.003,0.095 0.116,0.2 0.202,0.274c0.074,0.063 0.177,0.099 0.273,0.129c0.38,0.118 0.707,0.274 0.773,0.736c0.009,0.065 0.216,0.161 0.317,0.146c0.948,-0.14 1.824,-0.47 2.57,-1.086c0.069,-0.057 0.03,-0.246 0.041,-0.374c-0.025,-0.005 -0.05,-0.01 -0.075,-0.015c0.133,-0.154 0.267,-0.306 0.398,-0.461c0.183,-0.217 0.142,-0.375 -0.119,-0.579c-0.269,-0.21 -0.527,-0.436 -0.802,-0.665c0.138,-0.175 0.231,-0.344 0.496,-0.267c0.086,0.025 0.227,-0.061 0.314,-0.132c0.586,-0.481 1.163,-0.972 1.744,-1.459c0.765,-0.642 1.388,-1.395 1.885,-2.266c0.325,-0.569 0.368,-1.102 0.06,-1.68c-0.115,-0.216 -0.181,-0.459 -0.261,-0.693c-0.194,-0.563 -0.555,-0.823 -1.161,-0.87c-0.241,-0.019 -0.456,0.003 -0.681,0.103c-0.117,0.052 -0.291,0.045 -0.413,-0.002c-0.145,-0.056 -0.258,-0.106 -0.403,-0.009c-0.035,0.024 -0.169,-0.018 -0.18,-0.055c-0.044,-0.139 -0.06,-0.288 -0.079,-0.434c-0.023,-0.176 0.134,-0.219 0.221,-0.324c0.21,-0.252 0.358,-0.555 0.524,-0.842c0.015,-0.025 -0.029,-0.084 -0.045,-0.128c-0.024,-0.065 -0.084,-0.148 -0.063,-0.192c0.084,-0.179 -0.056,-0.197 -0.154,-0.256c-0.118,-0.072 -0.227,-0.158 -0.346,-0.226c-0.064,-0.037 -0.145,-0.071 -0.215,-0.066c-0.238,0.018 -0.446,-0.007 -0.651,-0.164c-0.09,-0.069 -0.268,-0.021 -0.406,-0.032c-0.209,-0.016 -0.386,-0.21 -0.629,-0.091c-0.044,0.022 -0.181,-0.125 -0.262,-0.207c-0.042,-0.042 -0.047,-0.118 -0.084,-0.166c-0.176,-0.227 -0.466,-0.428 -0.515,-0.678c-0.118,-0.603 -0.607,-0.314 -0.909,-0.449c-0.166,-0.074 -0.376,-0.019 -0.447,-0.277c-0.024,-0.086 -0.186,-0.137 -0.287,-0.199c-0.159,-0.097 -0.14,-0.227 -0.161,-0.4c-0.056,-0.462 0.322,-0.838 0.197,-1.293c-0.01,-0.035 -0.017,-0.072 -0.035,-0.103c-0.146,-0.243 -0.307,-0.479 -0.437,-0.73c-0.065,-0.126 -0.09,-0.27 0.083,-0.383c0.07,-0.046 0.103,-0.192 0.102,-0.292c-0.001,-0.199 0.055,-0.33 0.254,-0.406c0.14,-0.054 0.212,-0.138 0.163,-0.338c-0.047,-0.192 0.084,-0.361 0.302,-0.445c0.227,-0.088 0.536,-0.159 0.636,-0.336c0.187,-0.331 0.378,-0.508 0.774,-0.538c0.162,-0.012 0.322,-0.22 0.546,-0.199c0.045,0.004 0.121,-0.054 0.143,-0.101c0.137,-0.306 0.479,-0.504 0.81,-0.456c0.163,0.024 0.362,0.292 0.344,0.463c-0.021,0.194 0.23,0.449 0.36,0.565c0.27,0.239 0.581,0.332 0.912,0.412c0.119,0.029 0.233,0.085 0.343,0.141c0.122,0.062 0.231,0.153 0.357,0.204c0.115,0.046 0.248,0.044 0.367,0.082c0.1,0.032 0.189,0.098 0.288,0.137c0.084,0.034 0.174,0.055 0.262,0.076c0.156,0.036 0.313,0.062 0.468,0.101c0.046,0.011 0.085,0.072 0.126,0.071c0.262,-0.008 0.465,0.078 0.682,0.244c0.213,0.163 0.511,0.212 0.764,0.326c0.094,0.042 0.167,0.13 0.251,0.195c0.064,0.049 0.125,0.104 0.196,0.141c0.126,0.065 0.214,0.127 0.111,0.285c-0.026,0.041 -0.008,0.118 0.005,0.175c0.01,0.042 0.072,0.102 0.063,0.112c-0.167,0.195 -0.124,0.3 0.122,0.367c0.147,0.04 0.283,0.125 0.422,0.192c0.159,0.077 0.449,-0.039 0.437,0.297c-0.001,0.026 0.042,0.069 0.072,0.079c0.255,0.085 0.513,0.161 0.768,0.245c0.059,0.019 0.112,0.057 0.168,0.085c0.224,0.113 0.448,0.225 0.672,0.337c0.016,0.008 0.039,0.013 0.047,0.027c0.18,0.308 0.551,0.333 0.799,0.539c0.247,0.205 0.302,0.201 0.498,-0.086c0.567,0.289 1.12,0.584 1.348,1.25c0.062,0.181 0.174,0.306 0.443,0.229c0.421,-0.121 0.875,-0.127 1.294,-0.252c0.281,-0.084 0.528,-0.285 0.785,-0.443c0.477,-0.293 0.951,-0.59 1.423,-0.891c0.202,-0.129 0.191,-0.232 -0.022,-0.344c-0.065,-0.034 -0.134,-0.063 -0.194,-0.103c-0.062,-0.041 -0.116,-0.094 -0.172,-0.139c0.296,-0.344 0.374,-0.721 0.355,-1.128c-0.001,-0.028 -0.009,-0.074 0.004,-0.082c0.231,-0.139 0.14,-0.311 0.054,-0.483c-0.004,-0.007 -0.003,-0.025 0.001,-0.027c0.27,-0.128 0.146,-0.398 0.219,-0.597c0.012,-0.034 0.059,-0.086 0.053,-0.092c-0.23,-0.23 0.093,-0.442 0.019,-0.675c-0.048,-0.15 0.316,-0.439 0.475,-0.373c0.172,0.071 0.254,-0.014 0.366,-0.105c0.089,-0.072 0.206,-0.107 0.321,-0.136c0.403,-0.162 0.523,-0.638 0.935,-0.803c0.008,-0.003 0.019,-0.009 0.022,-0.016c0.211,-0.472 0.637,-0.279 0.988,-0.319c0.121,-0.014 0.24,-0.037 0.361,-0.046c0.171,-0.012 0.287,0.043 0.441,0.161c0.189,0.145 0.204,0.514 0.552,0.463c0.036,-0.005 0.102,0.059 0.122,0.105c0.19,0.433 0.593,0.623 0.961,0.853c0.008,0.005 0.019,0.007 0.024,0.014c0.191,0.237 0.379,0.476 0.573,0.711c0.038,0.046 0.091,0.087 0.146,0.108c0.154,0.056 0.232,0.191 0.335,0.285c0.199,0.182 0.534,0.292 0.809,0.285c0.169,-0.004 0.315,-0.082 0.457,0.063c0.018,0.018 0.041,0.042 0.063,0.042c0.308,0.006 0.617,0.009 0.925,0.013c0.018,0 0.042,-0.014 0.055,-0.006c0.263,0.151 0.529,0.13 0.818,0.069c0.19,-0.04 0.422,-0.021 0.6,0.054c0.298,0.125 0.657,-0.014 0.917,0.236c0.018,0.018 0.062,0.039 0.072,0.031c0.323,-0.258 0.681,0.238 1,-0.049c0.247,0.153 0.583,-0.146 0.812,0.161c0.033,0.044 0.194,0.034 0.271,-0.003c0.205,-0.098 0.315,0.029 0.447,0.139c0.298,0.248 0.447,0.702 0.944,0.681c0.052,-0.002 0.107,0.063 0.235,0.144c-0.145,0.073 -0.24,0.125 -0.339,0.171c-0.116,0.053 -0.233,0.104 -0.352,0.15c-0.042,0.016 -0.097,0.004 -0.135,0.024c-0.083,0.044 -0.174,0.089 -0.236,0.157c-0.105,0.115 -0.175,0.262 -0.285,0.369c-0.144,0.139 -0.182,0.516 -0.043,0.66c0.013,0.013 0.034,0.026 0.035,0.04c0.018,0.273 0.324,0.366 0.391,0.525c0.138,0.321 0.385,0.35 0.62,0.485c0.351,0.202 0.697,0.361 1.108,0.359c0.08,-0 0.162,0.025 0.239,0.05c0.223,0.071 0.447,0.143 0.665,0.227c0.089,0.034 0.169,0.097 0.248,0.154c0.079,0.057 0.149,0.125 0.227,0.183c0.02,0.014 0.072,-0.001 0.079,0.013c0.183,0.348 0.586,0.347 0.862,0.546c0.047,0.034 0.117,0.04 0.178,0.046c0.22,0.024 0.44,0.044 0.661,0.061c0.051,0.004 0.104,-0.024 0.155,-0.021c0.21,0.011 0.419,0.029 0.629,0.044c0.058,0.004 0.121,0.018 0.173,0.002c0.226,-0.068 0.442,-0.118 0.667,0.02c0.07,0.043 0.196,0.049 0.273,0.016c0.206,-0.089 0.376,-0.055 0.545,0.077c0.033,0.026 0.092,0.052 0.127,0.04c0.286,-0.1 0.572,-0.203 0.853,-0.318c0.115,-0.047 0.177,-0.16 0.295,0.046c0.084,0.147 0.336,0.197 0.501,0.283c-0.087,0.078 -0.121,0.157 0.077,0.309c0.24,0.184 0.402,0.467 0.615,0.69c0.067,0.07 0.193,0.078 0.286,0.128c0.125,0.067 0.242,0.148 0.364,0.219c0.072,0.042 0.15,0.075 0.224,0.115c0.101,0.054 0.271,0.094 0.289,0.169c0.048,0.2 0.151,0.276 0.336,0.331c0.091,0.027 0.143,0.17 0.228,0.244c0.056,0.05 0.136,0.075 0.209,0.103c0.188,0.073 0.396,0.112 0.415,0.383c0.003,0.046 0.133,0.113 0.207,0.117c0.188,0.008 0.352,0.031 0.434,0.231c0.013,0.032 0.053,0.079 0.078,0.077c0.308,-0.025 0.541,0.176 0.808,0.269c0.149,0.052 0.285,0.15 0.416,0.242c0.109,0.077 0.2,0.176 0.302,0.264c0.206,0.178 0.427,0.342 0.613,0.539c0.061,0.064 0.031,0.213 0.044,0.329c-0.08,0.035 -0.167,0.089 -0.262,0.112c-0.103,0.026 -0.237,0.067 -0.316,0.024c-0.216,-0.116 -0.316,0.017 -0.406,0.157c-0.07,0.11 -0.105,0.243 -0.165,0.39c0.258,0.182 0.179,0.449 0.075,0.722c0.199,0.09 0.423,0.156 0.254,0.434c-0.011,0.018 0.065,0.087 0.099,0.134c0.134,0.182 0.243,0.366 0.178,0.614c-0.026,0.099 0.016,0.215 0.027,0.323c0.006,0.063 0.034,0.136 0.012,0.188c-0.173,0.417 -0.094,0.608 0.209,0.903c0.297,0.289 0.665,0.36 1.019,0.505c0.218,0.09 0.553,0.169 0.555,0.493c0.002,0.318 0.214,0.393 0.426,0.505c0.092,0.049 0.155,0.158 0.249,0.197c0.156,0.065 0.328,0.086 0.489,0.141c0.23,0.079 0.459,0.166 0.681,0.265c0.037,0.017 0.074,0.143 0.053,0.166c-0.214,0.239 -0.083,0.403 0.112,0.55c-0.181,0.303 -0.181,0.303 0.096,0.622c-0.024,0.309 -0.348,0.525 -0.213,0.866c0.009,0.024 -0.027,0.065 -0.042,0.099c-0.086,0.19 -0.316,0.32 -0.194,0.6c0.035,0.079 -0.123,0.229 -0.157,0.356c-0.021,0.078 0.019,0.176 0.044,0.262c0.015,0.051 0.076,0.094 0.078,0.142c0.016,0.343 0.232,0.351 0.487,0.302c0.349,-0.067 0.574,0.213 0.818,0.358c0.273,0.163 0.57,0.302 0.847,0.349c0.364,0.061 0.714,0.169 0.95,0.393c0.208,0.198 0.394,0.343 0.668,0.4c0.053,0.011 0.088,0.112 0.152,0.181Z" style="fill:#4ade80;fill-rule:nonzero;stroke:#22c55e;stroke-width:1px;"/><path d="M81.488,60.295c-0.031,0.069 -0.035,0.143 -0.071,0.167c-0.468,0.315 -0.904,0.704 -1.494,0.766c-0.325,0.034 -0.657,0.026 -0.983,-0.003c-0.202,-0.018 -0.295,-0.223 -0.275,-0.389c0.066,-0.554 0.314,-1.015 0.793,-1.333c0.04,-0.026 0.08,-0.069 0.094,-0.112c0.075,-0.24 0.087,-0.497 0.338,-0.664c0.115,-0.076 0.158,-0.258 0.237,-0.39c0.032,-0.054 0.074,-0.102 0.116,-0.158c0.089,0.162 0.159,0.289 0.269,0.486c0.177,-0.35 0.465,-0.534 0.585,-0.871c0.045,-0.125 0.273,-0.268 0.405,-0.257c0.147,0.012 0.377,0.172 0.401,0.299c0.056,0.298 0.206,0.36 0.464,0.355c0.378,-0.007 0.352,-0.007 0.271,0.339c-0.032,0.136 0.082,0.306 0.139,0.493c-0.036,0.083 -0.12,0.217 -0.152,0.362c-0.105,0.479 -0.474,0.643 -0.877,0.778c-0.085,0.028 -0.164,0.075 -0.259,0.131Z" style="fill:#4ade80;fill-rule:nonzero;stroke:#22c55e;stroke-width:1px;"/></svg>