<?xml version="1.0" encoding="UTF-8" standalone="no"?><!DOCTYPE svg PUBLIC "-//W3C//DTD SVG 1.1//EN" "http://www.w3.org/Graphics/SVG/1.1/DTD/svg11.dtd"><svg width="100%" height="100%" viewBox="0 0 100 100" version="1.1" xmlns="http://www.w3.org/2000/svg" xmlns:xlink="http://www.w3.org/1999/xlink" xml:space="preserve" xmlns:serif="http://www.serif.com/" style="fill-rule:evenodd;clip-rule:evenodd;stroke-linejoin:round;stroke-miterlimit:2;"><rect id="_11_miyagi_tashirojima" serif:id="11_miyagi_tashirojima" x="0" y="0" width="100" height="100" style="fill:none;"/><path d="M60.015,87.275c0.025,-0.025 0.029,-0.035 0.036,-0.042c0.274,-0.296 0.427,-0.714 0.827,-0.88c0.052,-0.199 0.109,-0.414 0.172,-0.654c-0.168,-0.05 -0.4,-0.086 -0.418,-0.408c-0.005,-0.081 -0.271,-0.161 -0.427,-0.216c-0.153,-0.054 -0.239,-0.127 -0.209,-0.302c0.033,-0.196 -0.043,-0.283 -0.255,-0.262c-0.115,0.011 -0.235,-0.03 -0.397,-0.054c0.026,0.149 0.019,0.309 0.084,0.43c0.116,0.218 0.038,0.304 -0.162,0.375c-0.234,0.083 -0.448,0.153 -0.716,0.08c-0.18,-0.049 -0.401,0.076 -0.605,0.087c-0.275,0.014 -0.424,-0.158 -0.409,-0.428c0.006,-0.119 0.011,-0.239 0.004,-0.359c-0.008,-0.156 0.001,-0.264 0.204,-0.303c0.134,-0.026 0.248,-0.157 0.401,-0.262c-0.373,-0.206 -0.653,-0.43 -1.029,-0.401c-0.056,0.004 -0.142,-0.01 -0.163,0.02c-0.257,0.365 -0.635,0.349 -1.009,0.307c-0.104,0.653 -0.104,0.653 -0.702,0.722c0.022,0.159 0.1,0.337 0.051,0.469c-0.05,0.134 -0.225,0.222 -0.345,0.331c-0.017,-0.019 -0.035,-0.038 -0.052,-0.056c-0.032,0.143 -0.071,0.285 -0.095,0.43c-0.049,0.293 -0.282,0.396 -0.513,0.398c-0.319,0.003 -0.64,-0.069 -0.957,-0.125c-0.048,-0.009 -0.124,-0.145 -0.111,-0.161c0.205,-0.249 0.028,-0.469 -0.06,-0.748c0.203,-0.05 0.399,-0.098 0.549,-0.135c0.011,-0.17 0.022,-0.352 0.035,-0.571c-0.031,-0.183 -0.071,-0.422 -0.12,-0.71c-0.256,-0.068 -0.666,0.112 -0.913,-0.226c-0.154,0.114 -0.311,0.223 -0.459,0.343c-0.21,0.169 -0.413,0.328 -0.63,0.011c-0.01,-0.015 -0.059,-0.001 -0.089,-0.007c-0.263,-0.054 -0.525,-0.11 -0.801,-0.169c-0.021,0.126 0.057,0.434 -0.315,0.326c-0.118,-0.034 -0.229,-0.113 -0.326,-0.192c-0.255,-0.207 -0.483,-0.192 -0.739,-0.001c-0.157,0.117 -0.327,0.285 -0.578,0.165c-0.055,-0.027 -0.163,0.042 -0.24,0.079c-0.039,0.019 -0.06,0.091 -0.096,0.096c-0.415,0.068 -0.391,0.378 -0.355,0.669c0.073,0.584 -0.063,0.824 -0.849,0.803c-0.7,-0.019 -1.37,0.038 -2.048,0.293c-0.649,0.244 -1.359,0.229 -2.066,0.156c-0.478,-0.05 -0.965,0.052 -1.372,0.369c-0.056,0.043 -0.154,0.027 -0.226,0.056c-0.067,0.027 -0.151,0.063 -0.183,0.121c-0.218,0.384 -0.54,0.518 -0.955,0.358c-0.092,0.39 -0.19,0.792 -0.642,0.775c0,0.215 0.073,0.474 -0.02,0.567c-0.099,0.099 -0.355,0.041 -0.555,0.052c0.049,0.106 0.125,0.208 0.139,0.318c0.02,0.151 0.054,0.365 -0.026,0.449c-0.12,0.125 -0.292,0.258 -0.534,0.152c-0.13,-0.057 -0.309,0.003 -0.466,0.006c-0.176,0.003 -0.353,0.001 -0.48,0.052c-0.217,0.195 -0.433,0.389 -0.65,0.583c-0.007,0.006 -0.022,0.014 -0.028,0.011c-0.365,-0.197 -0.414,0.204 -0.618,0.307c-0.262,0.133 -0.58,0.157 -0.899,0.235c0.032,0.523 -0.298,0.69 -0.876,0.617c0.33,0.37 0.08,0.596 -0.068,0.815c-0.076,0.113 -0.148,0.162 -0.075,0.319c0.106,0.229 -0.025,0.416 -0.218,0.542c-0.168,0.109 -0.314,0.197 -0.385,0.422c-0.05,0.159 -0.26,0.268 -0.426,0.374c-0.083,0.332 -0.151,0.389 -0.733,0.504c0.042,-0.158 0.075,-0.286 0.116,-0.439c0.012,0.018 0.004,-0.007 -0.011,-0.015c-0.306,-0.141 -0.255,-0.373 -0.181,-0.63c0.028,-0.098 -0.02,-0.218 -0.065,-0.34c-0.118,0.266 -0.52,0.271 -0.51,0.681c0.004,0.167 -0.27,0.341 -0.435,0.533c-0.042,0.187 -0.097,0.429 -0.146,0.645c-0.461,0.236 -0.544,-0.21 -0.82,-0.422c0.184,-0.212 0.372,-0.429 0.536,-0.618c-0.063,-0.088 -0.129,-0.18 -0.224,-0.314c0.167,-0.179 0.334,-0.357 0.498,-0.532c-0.384,-0.3 -0.379,-0.294 0.064,-0.642c0.101,-0.08 0.152,-0.224 0.215,-0.321c-0.207,-0.065 -0.414,-0.203 -0.589,-0.171c-0.42,0.078 -0.759,-0.281 -1.193,-0.153c-0.145,0.043 -0.36,-0.154 -0.559,-0.249c-0.004,0.021 -0.04,0.091 -0.021,0.14c0.161,0.411 -0.01,0.837 -0.285,0.998c-0.286,0.167 -0.34,0.383 -0.468,0.609c-0.049,0.086 -0.189,0.118 -0.279,0.185c-0.074,0.056 -0.172,0.116 -0.196,0.194c-0.081,0.258 -0.383,0.476 -0.625,0.421c-0.153,-0.034 -0.27,-0.428 -0.201,-0.635c0.046,-0.138 0.058,-0.286 0.102,-0.425c0.035,-0.109 0.074,-0.228 0.147,-0.311c0.218,-0.246 0.225,-0.24 0.137,-0.586c-0.24,0.264 -0.708,0.28 -0.638,0.793c0.01,0.073 -0.13,0.173 -0.211,0.249c-0.207,0.193 -0.44,0.362 -0.624,0.574c-0.117,0.135 -0.048,0.39 -0.297,0.468c-0.162,0.051 -0.317,0.139 -0.458,0.237c-0.132,0.092 -0.231,0.231 -0.362,0.324c-0.129,0.091 -0.28,0.151 -0.439,0.181c-0.16,0.169 -0.319,0.338 -0.48,0.505c-0.035,0.036 -0.083,0.098 -0.115,0.092c-0.659,-0.121 -0.48,0.499 -0.689,0.773c-0.058,0.076 -0.117,0.15 -0.181,0.221c-0.018,0.02 -0.074,0.016 -0.079,0.033c-0.058,0.191 -0.136,0.308 -0.353,0.158c-0.128,-0.089 -0.268,-0.167 -0.412,-0.224c-0.145,-0.057 -0.303,-0.081 -0.477,-0.126c-0.056,0.268 -0.099,0.523 -0.389,0.577c-0.107,0.02 -0.269,0.047 -0.325,-0.01c-0.161,-0.162 -0.268,-0.208 -0.486,-0.06c-0.137,0.093 -0.28,0.143 -0.402,0.289c-0.137,0.164 -0.215,0.447 -0.524,0.431c-0.036,-0.002 -0.086,0.133 -0.119,0.209c-0.087,0.203 -0.169,0.395 -0.459,0.302c-0.064,-0.02 -0.15,0.04 -0.228,0.052c-0.15,0.025 -0.343,0.108 -0.442,0.046c-0.116,-0.073 -0.152,-0.274 -0.218,-0.421c-0.01,-0.021 0.013,-0.065 0,-0.076c-0.357,-0.326 -0.067,-0.539 0.135,-0.75c-0.088,-0.127 -0.158,-0.246 -0.246,-0.351c-0.193,-0.232 -0.122,-0.46 -0.003,-0.689c0.066,-0.127 0.124,-0.239 0.01,-0.382c-0.048,-0.061 -0.07,-0.222 -0.03,-0.261c0.177,-0.169 0.08,-0.311 0.032,-0.495c-0.06,-0.234 -0.026,-0.491 -0.045,-0.737c-0.01,-0.124 -0.048,-0.245 -0.074,-0.367c-0.098,0.038 -0.2,0.068 -0.293,0.115c-0.241,0.122 -0.312,0.475 -0.646,0.477c-0.013,0 -0.028,0.049 -0.039,0.076c-0.13,0.313 -0.343,0.62 -0.369,0.941c-0.035,0.444 -0.431,0.634 -0.557,0.996c-0.011,0.033 -0.169,0.016 -0.258,0.022c-0.004,-0.129 -0.063,-0.328 -0.003,-0.374c0.322,-0.249 0.285,-0.55 0.172,-0.864c-0.045,-0.125 -0.146,-0.23 -0.219,-0.346c-0.065,-0.103 -0.128,-0.209 -0.201,-0.329c-0.411,0.099 -0.858,0.25 -1.291,-0.077c-0.104,-0.078 -0.256,-0.109 -0.391,-0.127c-0.309,-0.042 -0.498,-0.187 -0.577,-0.502c-0.039,-0.155 -0.13,-0.317 -0.243,-0.428c-0.26,-0.256 -0.295,-0.414 -0.091,-0.723c0.021,-0.032 0.045,-0.061 0.067,-0.092c-0.475,-0.377 -0.497,-0.756 -0.068,-0.96c-0.187,-0.437 -0.174,-0.471 0.228,-0.714c0.06,-0.036 0.152,-0.118 0.143,-0.157c-0.097,-0.381 0.182,-0.482 0.432,-0.607c0.035,-0.018 0.072,-0.034 0.123,-0.058l0,-0.373c0.249,-0.113 0.503,-0.227 0.758,-0.343c-0.059,-0.244 -0.144,-0.473 -0.319,-0.683c-0.229,-0.273 0.165,-0.19 0.23,-0.341c-0.209,-0.175 -0.157,-0.399 -0.086,-0.637c0.017,-0.055 -0.064,-0.157 -0.122,-0.214c-0.133,-0.131 -0.281,-0.249 -0.466,-0.409c-0.418,0.121 -0.525,0.07 -0.651,-0.389c-0.028,0 -0.064,-0.011 -0.086,0.002c-0.323,0.193 -0.63,0.417 -0.969,0.575c-0.189,0.088 -0.5,0.169 -0.631,0.076c-0.252,-0.179 -0.442,-0.467 -0.6,-0.744c-0.055,-0.096 0.061,-0.29 0.101,-0.448c-0.369,-0.292 -0.401,-0.674 -0.056,-0.86c-0.23,-0.419 0.041,-0.818 0.605,-0.825c-0.092,-0.543 0.024,-0.692 0.603,-0.735c-0.067,-0.181 -0.13,-0.355 -0.178,-0.484c-0.223,-0.096 -0.419,-0.179 -0.614,-0.266c-0.027,-0.012 -0.068,-0.04 -0.067,-0.059c0.017,-0.329 -0.248,-0.496 -0.418,-0.712c-0.24,-0.305 -0.15,-0.524 0.162,-0.69c-0.36,-0.439 -0.366,-0.719 -0.038,-1.003c-0.314,-0.36 -0.316,-0.674 0.028,-0.933c-0.283,-0.279 -0.067,-0.605 -0.069,-0.919c-0,-0.049 0.097,-0.117 0.163,-0.146c0.098,-0.042 0.207,-0.057 0.341,-0.091c-0.279,-0.28 -0.073,-0.543 0.001,-0.811c0.005,-0.018 0.026,-0.045 0.039,-0.045c0.371,0.005 0.385,-0.299 0.506,-0.537c0.058,-0.114 0.245,-0.172 0.384,-0.234c0.113,-0.05 0.195,-0.04 0.208,-0.238c0.01,-0.158 0.266,-0.31 0.431,-0.443c0.05,-0.04 0.159,-0.006 0.283,-0.059c-0.152,-0.109 -0.297,-0.231 -0.459,-0.324c-0.232,-0.133 -0.402,-0.277 -0.228,-0.564c-0.389,-0.193 -0.41,-0.43 -0.103,-0.733c0.072,-0.071 0.096,-0.222 0.092,-0.334c-0.015,-0.407 0.078,-0.534 0.466,-0.591c0.015,-0.242 0.005,-0.488 0.058,-0.72c0.018,-0.081 0.185,-0.15 0.296,-0.182c0.175,-0.05 0.22,-0.114 0.102,-0.266c-0.172,-0.221 -0.038,-0.602 0.239,-0.659c0.175,-0.036 0.277,-0.046 0.212,-0.296c-0.049,-0.19 0.025,-0.43 0.294,-0.516c0.111,-0.035 0.209,-0.051 0.229,-0.271c0.028,-0.313 0.371,-0.446 0.681,-0.534c0.099,-0.028 0.172,-0.142 0.263,-0.208c0.103,-0.076 0.205,-0.172 0.323,-0.206c0.123,-0.036 0.271,0.016 0.396,-0.017c0.078,-0.021 0.169,-0.117 0.19,-0.197c0.032,-0.125 0.008,-0.263 0.008,-0.415c-0.126,-0.107 -0.299,-0.243 -0.457,-0.394c-0.137,-0.131 -0.177,-0.293 -0.089,-0.474c0.02,-0.042 0.061,-0.105 0.046,-0.128c-0.111,-0.167 -0.079,-0.307 0.074,-0.418c0.123,-0.089 0.259,-0.159 0.389,-0.238c0.134,-0.082 0.269,-0.163 0.4,-0.25c0.138,-0.092 0.262,-0.211 0.409,-0.283c0.285,-0.138 0.341,-0.309 0.131,-0.532c-0.178,-0.189 -0.391,-0.359 -0.067,-0.601c0.019,-0.014 0.024,-0.058 0.021,-0.086c-0.031,-0.345 0.178,-0.525 0.418,-0.734c0.221,-0.192 0.413,-0.327 0.718,-0.305c0.09,0.007 0.219,-0.108 0.279,-0.2c0.121,-0.184 0.222,-0.362 0.52,-0.192c0.031,-0.573 0.363,-0.84 0.894,-0.885c-0.144,-0.45 0.092,-0.799 0.555,-0.821c-0.053,-0.408 0.275,-0.568 0.523,-0.779c0.042,-0.036 0.125,-0.018 0.186,-0.037c0.078,-0.025 0.177,-0.041 0.224,-0.097c0.257,-0.304 0.799,-0.478 1.179,-0.361c0.21,-0.27 0.672,-0.36 0.979,-0.174c0.066,-0.136 0.111,-0.287 0.202,-0.402c0.089,-0.112 0.225,-0.187 0.341,-0.278c-0.158,-0.35 -0.031,-0.666 0.313,-0.771c-0.123,-0.311 0.111,-0.5 0.25,-0.72c0.028,-0.044 0.118,-0.077 0.115,-0.11c-0.046,-0.585 0.362,-0.692 0.816,-0.766c-0.103,-0.45 0.328,-0.411 0.56,-0.581c-0.104,-0.081 -0.187,-0.199 -0.272,-0.202c-0.468,-0.013 -0.448,-0.29 -0.352,-0.611c0.02,-0.067 0.076,-0.165 0.127,-0.173c0.223,-0.036 0.32,-0.209 0.445,-0.356c0.045,-0.053 0.122,-0.147 0.151,-0.136c0.471,0.176 0.534,-0.282 0.769,-0.474c0.091,-0.075 0.224,-0.098 0.337,-0.146c0.095,-0.04 0.203,-0.065 0.281,-0.127c0.238,-0.187 0.386,-0.523 0.779,-0.448c0.034,0.007 0.095,-0.043 0.119,-0.082c0.262,-0.415 0.343,-0.478 0.803,-0.605c-0.148,-0.255 0.001,-0.681 0.308,-0.875c-0.224,-0.315 -0.204,-0.859 0.038,-1.008c-0.171,-0.241 0.048,-0.788 0.336,-0.798c0.207,-0.007 0.352,-0.052 0.515,-0.203c0.125,-0.116 0.368,-0.105 0.574,-0.153c0.055,-0.183 0.055,-0.183 0.5,-0.45l0,-0.697c0.099,-0.053 0.176,-0.095 0.193,-0.103c-0.045,-0.202 -0.153,-0.4 -0.103,-0.542c0.053,-0.151 0.256,-0.25 0.392,-0.37c-0.298,-0.218 -0.309,-0.379 -0.034,-0.849c-0.244,-0.194 -0.675,-0.166 -0.749,-0.591c0.059,-0.065 0.125,-0.137 0.215,-0.236c-0.328,-0.132 -0.613,-0.283 -0.46,-0.716c-0.304,-0.195 -0.884,-0.06 -0.919,-0.55c-0.024,-0.342 -0.567,-0.558 -0.164,-0.992c-0.375,-0.082 -0.578,-0.322 -0.635,-0.662c-0.015,-0.091 0.089,-0.201 0.15,-0.328c-0.137,-0.128 -0.302,-0.282 -0.46,-0.429c0.188,-0.292 -0.009,-0.512 -0.16,-0.654c-0.383,-0.361 -0.823,-0.659 -1.223,-1.002c-0.338,-0.289 -0.658,-0.6 -0.973,-0.915c-0.128,-0.128 -0.222,-0.142 -0.391,-0.064c-0.283,0.13 -0.593,0.199 -0.882,0.318c-0.117,0.048 -0.221,0.147 -0.309,0.242c-0.182,0.197 -0.652,0.159 -0.839,-0.069c-0.097,-0.119 -0.208,-0.229 -0.324,-0.329c-0.183,-0.157 -0.223,-0.304 -0.14,-0.606c-0.159,-0.076 -0.402,-0.112 -0.461,-0.235c-0.154,-0.325 -0.56,-0.42 -0.665,-0.706c-0.095,-0.261 -0.158,-0.48 -0.402,-0.642c-0.083,-0.055 -0.136,-0.242 -0.113,-0.349c0.023,-0.109 0.157,-0.195 0.262,-0.313c-0.302,-0.177 -0.361,-0.39 -0.164,-0.667c0.033,-0.047 -0.018,-0.165 -0.049,-0.244c-0.065,-0.162 -0.184,-0.315 0.052,-0.454c0.064,-0.038 0.124,-0.183 0.101,-0.249c-0.098,-0.286 0.033,-0.428 0.271,-0.535c0.088,-0.039 0.165,-0.102 0.258,-0.161c-0.123,-0.236 -0.49,-0.381 -0.298,-0.693c-0.25,-0.161 -0.499,-0.32 -0.754,-0.484c0.059,-0.124 0.112,-0.237 0.165,-0.351c-0.313,-0.267 -0.317,-0.43 0.012,-0.82c-0.454,-0.037 -0.166,-0.456 -0.366,-0.654c0.101,-0.076 0.204,-0.153 0.309,-0.231c-0.369,-0.355 -0.369,-0.355 0.061,-0.696c-0.275,-0.38 -0.273,-0.388 0.118,-0.797c-0.412,-0.222 -0.449,-0.32 -0.236,-0.682c-0.246,-0.167 -0.428,-0.375 -0.378,-0.709c0.006,-0.041 -0.071,-0.13 -0.121,-0.139c-0.404,-0.072 -0.612,-0.305 -0.623,-0.715c-0.001,-0.03 0,-0.064 -0.012,-0.09c-0.185,-0.42 -0.186,-0.42 -0.165,-0.85c0.025,0.013 0.051,0.026 0.076,0.039c0.076,-0.126 0.14,-0.261 0.23,-0.376c0.093,-0.12 0.2,-0.301 0.317,-0.315c0.248,-0.028 0.348,-0.112 0.301,-0.333c0.135,-0.085 0.25,-0.157 0.319,-0.201c-0.051,-0.228 -0.097,-0.413 -0.133,-0.6c-0.009,-0.047 -0.002,-0.138 0.018,-0.145c0.341,-0.109 0.185,-0.293 0.109,-0.502c-0.056,-0.152 -0.051,-0.344 0.194,-0.394c0.088,-0.018 0.166,-0.084 0.249,-0.128c-0.034,-0.014 -0.068,-0.028 -0.102,-0.043c0.022,-0.152 0.045,-0.304 0.067,-0.455c0.006,-0.039 0.019,-0.081 0.014,-0.118c-0.027,-0.177 -0.131,-0.378 -0.077,-0.524c0.126,-0.342 0.431,-0.531 0.786,-0.568c0.223,-0.024 0.195,-0.089 0.159,-0.258c-0.068,-0.316 0.109,-0.605 0.387,-0.739c0.051,-0.025 0.104,-0.137 0.09,-0.191c-0.151,-0.557 -0.108,-0.716 0.297,-0.988c-0.065,-0.257 -0.13,-0.516 -0.204,-0.807c0.288,-0.032 0.294,-0.132 0.186,-0.349c-0.143,-0.29 0.005,-0.524 0.32,-0.62c0.326,-0.099 0.402,-0.416 0.502,-0.668c0.142,-0.356 0.187,-0.747 0.67,-0.822c0.063,-0.01 0.139,-0.15 0.15,-0.237c0.044,-0.371 0.224,-0.572 0.593,-0.621c0.042,-0.585 0.338,-1.008 0.849,-1.214c-0.044,-0.222 0.249,-0.658 0.473,-0.75c0.212,-0.088 0.41,-0.212 0.613,-0.321c0.017,-0.009 0.028,-0.036 0.045,-0.04c0.497,-0.121 0.796,-0.545 1.211,-0.79c0.009,-0.005 0.02,-0.012 0.029,-0.009c0.363,0.088 0.565,-0.116 0.743,-0.39c0.041,-0.063 0.161,-0.116 0.238,-0.108c0.503,0.052 0.786,-0.355 1.172,-0.543c0.044,-0.021 0.096,-0.075 0.127,-0.064c0.553,0.201 0.933,-0.361 1.397,-0.334c0.344,0.02 0.568,-0.112 0.83,-0.23c0.299,-0.136 0.586,-0.043 0.846,0.064c-0.021,-0.204 -0.047,-0.366 -0.05,-0.528c-0.001,-0.051 0.052,-0.113 0.096,-0.152c0.269,-0.242 0.419,-0.661 0.888,-0.613c0.041,0.004 0.108,-0.017 0.119,0.001c0.207,0.335 0.42,0.044 0.606,-0.012c0.275,-0.083 0.506,-0.097 0.699,0.149c0.194,-0.123 0.365,-0.305 0.563,-0.34c0.314,-0.056 0.503,-0.28 0.755,-0.415c0.122,-0.065 0.266,-0.088 0.416,-0.091c0.171,-0.3 0.463,-0.392 0.788,-0.331c0.42,0.08 0.631,-0.374 0.989,-0.363c0.375,0.011 0.445,-0.259 0.64,-0.465c0.181,-0.191 0.398,-0.495 0.771,-0.413c0.03,0.007 0.107,-0.051 0.108,-0.081c0.013,-0.342 0.282,-0.384 0.524,-0.472c0.196,-0.071 0.288,-0.196 0.185,-0.422c-0.047,-0.102 -0.029,-0.234 -0.007,-0.36c-0.147,-0.203 -0.441,-0.301 -0.472,-0.641c-0.005,-0.059 -0.272,-0.103 -0.421,-0.139c-0.305,-0.074 -0.691,-0.705 -0.631,-1.01c0.015,-0.074 -0.034,-0.184 -0.089,-0.245c-0.329,-0.363 -0.334,-0.405 -0.02,-0.773c-0.2,-0.353 -0.067,-0.686 0.329,-0.841c0.046,-0.018 0.09,-0.076 0.108,-0.125c0.125,-0.352 0.283,-0.467 0.65,-0.488c0.079,-0.005 0.192,-0.042 0.226,-0.101c0.148,-0.255 0.376,-0.35 0.647,-0.414c0.158,-0.037 0.296,-0.155 0.447,-0.227c0.069,-0.033 0.169,-0.083 0.219,-0.057c0.236,0.122 0.438,0.008 0.647,-0.063c0.239,-0.081 0.466,-0.109 0.635,0.091c-0.019,0.263 -0.036,0.503 -0.055,0.755c0.312,0.348 0.65,0.723 0.992,1.104c0.492,-0.31 1.055,-0.43 1.664,-0.286c0.056,0.013 0.131,0.034 0.156,0.076c0.195,0.327 0.526,0.315 0.84,0.364c0.111,0.017 0.213,0.098 0.334,0.157c0.122,-0.294 0.298,-0.52 0.654,-0.561c0.11,-0.013 0.199,-0.157 0.31,-0.218c0.467,-0.257 0.99,-0.26 1.501,-0.309c0.072,-0.007 0.167,0.021 0.22,0.069c0.156,0.14 0.264,0.088 0.446,0.012c0.198,-0.083 0.474,-0.058 0.691,0.005c0.314,0.091 0.616,0.243 0.903,0.404c0.106,0.06 0.194,0.211 0.222,0.335c0.034,0.151 0.047,0.265 0.236,0.283c0.299,0.029 0.41,0.253 0.443,0.509c0.021,0.16 -0.011,0.309 0.229,0.31c0.051,0 0.144,0.142 0.143,0.218c-0.002,0.12 -0.035,0.273 -0.115,0.35c-0.121,0.115 -0.248,0.149 -0.098,0.365c0.103,0.148 0.076,0.388 -0.199,0.449c-0.102,0.022 -0.201,0.058 -0.267,0.078c0.073,0.257 0.143,0.501 0.196,0.687c0.251,0.138 0.498,0.281 0.753,0.408c0.087,0.044 0.193,0.054 0.293,0.067c0.217,0.028 0.435,0.058 0.654,0.065c0.118,0.004 0.242,-0.022 0.355,-0.06c0.202,-0.068 0.393,-0.17 0.597,-0.231c0.391,-0.117 0.788,-0.215 1.183,-0.32c0.02,-0.005 0.042,-0.01 0.061,-0.005c0.403,0.103 0.82,0.174 1.203,0.328c0.141,0.057 0.203,0.311 0.303,0.477c0.181,-0.041 0.359,-0.098 0.542,-0.116c0.071,-0.007 0.158,0.063 0.226,0.114c0.206,0.157 0.315,0.419 0.632,0.463c0.206,0.029 0.178,0.348 0.126,0.569c-0.068,0.288 -0.299,0.375 -0.49,0.544c0.191,0.032 0.382,0.015 0.505,0.099c0.126,0.086 0.186,0.27 0.289,0.435c0.258,-0.056 0.551,0.157 0.591,0.48c0.008,0.067 0.079,0.152 0.143,0.181c0.247,0.112 0.618,0.135 0.731,0.32c0.208,0.341 0.607,0.303 0.825,0.564c0.05,0.06 0.149,0.159 0.134,0.183c-0.172,0.279 0.097,0.303 0.222,0.414c0.077,0.069 0.217,0.187 0.2,0.224c-0.195,0.422 0.258,0.978 -0.241,1.278c0.146,0.17 0.36,0.311 0.399,0.49c0.057,0.262 0.091,0.647 -0.055,0.805c-0.164,0.179 -0.356,0.468 -0.705,0.444c-0.266,-0.018 -0.561,-0.073 -0.726,0.25c-0.029,0.057 -0.158,0.126 -0.197,0.105c-0.359,-0.188 -0.324,0.086 -0.397,0.294c-0.053,0.152 -0.196,0.272 -0.309,0.42c0.252,0.209 0.148,0.467 0.028,0.724c0.379,0.028 0.693,0.129 0.946,0.399c0.052,0.056 0.191,0.027 0.288,0.044c0.274,0.047 0.524,0.115 0.563,0.462c0.006,0.055 0.108,0.113 0.177,0.145c0.078,0.036 0.172,0.036 0.255,0.063c0.294,0.097 0.559,0.217 0.419,0.611c0.472,0.03 0.73,0.267 0.883,0.744c0.031,0.098 0.162,0.163 0.245,0.245c0.088,0.088 0.202,0.164 0.254,0.27c0.052,0.106 0.042,0.243 0.026,0.374c0.335,0.448 0.381,0.845 0.093,1.139c0.213,0.431 0.041,0.672 -0.501,0.665c0,0.086 -0.03,0.187 0.005,0.255c0.136,0.265 -0.008,0.369 -0.224,0.462c-0.327,0.141 -0.694,0.215 -0.933,0.518c-0.025,0.031 -0.057,0.079 -0.087,0.08c-0.532,0.026 -0.99,0.466 -1.558,0.283c-0.072,-0.023 -0.182,-0.066 -0.192,-0.116c-0.084,-0.415 -0.636,-0.355 -0.685,-0.787c-0.253,0.22 -0.592,0.202 -0.833,0.047c-0.143,-0.093 -0.321,-0.166 -0.489,-0.178c-0.248,-0.017 -0.499,0.086 -0.745,-0.062c-0.048,-0.029 -0.157,0.05 -0.24,0.068c-0.18,0.037 -0.389,0.142 -0.536,0.086c-0.579,-0.221 -1.086,-0.149 -1.567,0.232c-0.161,0.127 -0.342,0.231 -0.518,0.337c-0.34,0.204 -0.688,0.4 -0.565,0.925c-0.001,-0 0.055,0.011 0.107,0.03c0.482,0.181 0.489,0.2 0.374,0.808c-0.036,0.193 -0.056,0.389 -0.087,0.603c0.543,0 1.044,-0.011 1.543,0.007c0.148,0.005 0.331,0.055 0.432,0.152c0.795,0.771 1.573,1.558 2.379,2.362c-0.291,0.213 -0.565,0.413 -0.85,0.621c0.378,0.291 0.562,0.555 0.277,0.916c0.159,0.115 0.319,0.226 0.473,0.345c0.055,0.043 0.101,0.102 0.142,0.159c0.264,0.371 0.339,0.44 0.743,0.659c0.009,0.005 0.023,0.007 0.027,0.014c0.133,0.28 0.271,0.559 0.391,0.845c0.015,0.036 -0.055,0.126 -0.105,0.169c-0.184,0.16 -0.386,0.299 -0.56,0.467c-0.154,0.149 -0.296,0.245 -0.508,0.054c-0.18,0.404 -0.436,0.656 -0.773,0.56c-0.283,0.193 -0.497,0.324 -0.691,0.481c-0.071,0.057 -0.125,0.173 -0.131,0.265c-0.015,0.256 -0.059,0.476 -0.391,0.542c0.245,0.18 0.663,0.23 0.494,0.607c0.243,0.112 0.484,0.205 0.707,0.331c0.228,0.129 0.467,0.268 0.411,0.6c0.403,-0.125 0.659,0.132 0.94,0.307c0.201,0.125 0.413,0.242 0.584,0.401c0.169,0.156 0.293,0.361 0.461,0.577c0.006,-0.406 0.25,-0.724 0.61,-0.849c0.018,-0.006 0.052,0.001 0.057,-0.009c0.234,-0.433 0.522,-0.087 0.778,-0.042c0.149,0.026 0.284,0.128 0.185,0.331c-0.013,0.027 -0.008,0.072 0.006,0.101c0.228,0.481 0.225,0.494 -0.208,0.78c0.103,0.324 -0.005,0.552 -0.334,0.733c-0.052,0.029 -0.082,0.106 -0.113,0.165c-0.027,0.05 -0.028,0.143 -0.063,0.155c-0.355,0.123 -0.387,0.411 -0.443,0.727c-0.031,0.179 -0.21,0.331 -0.358,0.547c0.137,0.407 0.12,0.474 -0.226,0.724c0.27,0.139 0.705,0.046 0.746,0.53c0.326,-0.261 0.661,-0.28 1.011,-0.035c0.041,0.029 0.144,0.027 0.182,-0.005c0.312,-0.259 0.628,-0.174 0.952,-0.033c0.078,0.034 0.187,0.088 0.247,0.06c0.261,-0.124 0.43,0.08 0.572,0.199c0.061,0.052 -0.064,0.327 -0.106,0.5c-0.016,0.064 -0.038,0.127 -0.066,0.221c0.221,-0.034 0.421,-0.115 0.592,-0.075c0.157,0.037 0.284,0.205 0.406,0.341c0.325,0.143 0.708,0.194 0.823,0.648c0.021,0.084 0.12,0.17 0.205,0.212c0.247,0.124 0.287,0.283 0.139,0.511c-0.031,0.047 -0.045,0.159 -0.018,0.181c0.257,0.21 0.129,0.373 -0.046,0.543c-0.047,0.046 -0.067,0.118 -0.101,0.181c0.145,0.119 0.252,0.255 0.139,0.46c-0.012,0.023 -0.025,0.063 -0.014,0.078c0.21,0.279 0.398,0.582 0.645,0.824c0.211,0.207 0.211,0.801 -0.058,0.955c-0.14,0.08 -0.316,0.133 -0.164,0.347c-0.313,0.351 0.066,0.708 -0.011,1.06c-0.023,0.105 -0.062,0.206 -0.095,0.314c0.365,0.425 0.501,0.6 0.035,1.109c0.257,0.197 0.285,0.392 -0.047,0.553c0.582,0.286 0.694,0.481 0.502,0.881c0.355,0.187 0.539,0.475 0.475,0.89c0.337,0.135 0.505,0.387 0.512,0.768c0.186,-0.049 0.347,-0.098 0.51,-0.132c0.334,-0.068 0.678,0.064 1.021,-0.087c0.149,-0.065 0.738,0.472 0.778,0.643c0.014,0.058 0.027,0.127 0.009,0.18c-0.05,0.145 -0.143,0.28 -0.171,0.428c-0.024,0.129 0.018,0.271 0.034,0.445c0.334,0.236 0.408,0.486 0.221,0.852c0.286,0.235 0.477,0.714 0.349,0.959c0.431,0.258 0.864,0.517 1.351,0.808c-0.295,0.27 -0.56,0.514 -0.826,0.758c-0.045,0.041 -0.091,0.08 -0.136,0.122c-0.499,0.458 -1.008,0.905 -1.484,1.385c-0.067,0.068 -0.013,0.316 0.053,0.445c0.293,0.572 0.612,1.13 0.919,1.695c0.066,0.121 0.113,0.254 0.186,0.371c0.223,0.356 0.159,0.72 0.083,1.103c-0.094,0.474 -0.145,0.956 -0.203,1.436c-0.005,0.044 0.06,0.119 0.11,0.143c0.801,0.379 1.604,0.755 2.411,1.121c0.049,0.022 0.165,-0.029 0.209,-0.08c0.441,-0.526 0.878,-1.054 1.302,-1.594c0.061,-0.078 0.096,-0.242 0.056,-0.323c-0.233,-0.467 -0.493,-0.922 -0.742,-1.378c0.376,-0.259 0.478,-0.233 0.673,0.138c0.147,0.28 0.29,0.563 0.464,0.826c0.056,0.084 0.206,0.157 0.307,0.15c0.323,-0.025 0.643,-0.091 0.964,-0.139c0.554,-0.083 1.108,-0.164 1.662,-0.245c0.015,0.032 0.031,0.064 0.046,0.097c-0.282,0.372 -0.561,0.747 -0.852,1.113c-0.031,0.039 -0.133,0.045 -0.193,0.031c-0.489,-0.112 -0.976,-0.228 -1.462,-0.354c-0.149,-0.039 -0.24,-0.029 -0.343,0.115c-0.503,0.702 -1.024,1.392 -1.548,2.099c1.102,0.515 2.179,1.018 3.26,1.522c0.033,0.198 0.067,0.403 0.109,0.657c0.591,-0.05 1.189,-0.092 1.784,-0.159c0.093,-0.01 0.226,-0.118 0.252,-0.207c0.138,-0.48 0.518,-0.6 0.937,-0.709c1.108,-0.287 2.211,-0.594 3.316,-0.892c0.623,-0.168 1.245,-0.339 1.87,-0.497c0.054,-0.014 0.162,0.047 0.191,0.101c0.105,0.197 0.187,0.405 0.271,0.595c0.219,-0.083 0.443,-0.181 0.674,-0.252c0.119,-0.037 0.253,-0.022 0.38,-0.039c0.093,-0.012 0.187,-0.03 0.276,-0.059c0.209,-0.069 0.402,-0.242 0.644,-0.08c0.04,0.027 0.122,0.021 0.172,-0.001c0.407,-0.177 0.758,-0.028 1.087,0.195c0.085,0.058 0.125,0.182 0.185,0.276c-0.024,0.018 -0.047,0.036 -0.071,0.054c0.175,0.096 0.351,0.191 0.524,0.29c0.038,0.022 0.1,0.083 0.095,0.09c-0.193,0.303 0.108,0.474 0.197,0.691c0.106,0.258 0.125,0.47 -0.057,0.697c-0.039,0.049 -0.022,0.177 0.013,0.246c0.114,0.216 0.23,0.414 0.019,0.647c-0.042,0.046 -0.008,0.189 0.027,0.272c0.076,0.182 0.07,0.321 -0.056,0.494c-0.082,0.113 -0.057,0.303 -0.079,0.459c-0.001,0.009 0.007,0.019 0.006,0.028c-0.028,0.195 -0.101,0.397 -0.072,0.583c0.03,0.189 0.236,0.353 0.007,0.554c-0.049,0.043 -0.084,0.17 -0.057,0.223c0.16,0.317 -0.057,0.354 -0.296,0.383c0.129,0.307 -0.097,0.406 -0.285,0.491c-0.171,0.077 -0.367,0.096 -0.572,0.145c-0.065,0.273 -0.46,0.484 -0.783,0.422c-0.136,-0.026 -0.31,0.01 -0.432,0.078c-0.26,0.146 -0.497,0.287 -0.811,0.135c-0.089,-0.043 -0.242,-0.02 -0.338,0.028c-0.29,0.146 -0.572,0.222 -0.883,0.068c-0.04,-0.02 -0.114,0.024 -0.171,0.044c-0.32,0.109 -0.642,0.267 -0.904,-0.118c-0.022,-0.033 -0.142,-0.004 -0.215,0.004c-0.236,0.027 -0.479,0.077 -0.573,-0.241c-0.012,-0.039 -0.077,-0.097 -0.107,-0.091c-0.274,0.056 -0.372,-0.163 -0.539,-0.3c-0.124,-0.102 -0.346,-0.167 -0.501,-0.134c-0.328,0.069 -0.532,-0.034 -0.678,-0.33c-0.412,0.224 -0.771,0.092 -1.087,-0.148c-0.394,0.139 -0.753,0.34 -1.186,0.233c-0.067,-0.016 -0.205,0.04 -0.228,0.096c-0.168,0.415 -0.517,0.522 -0.908,0.583c-0.073,0.011 -0.19,0.082 -0.195,0.132c-0.026,0.325 -0.211,0.458 -0.511,0.5c-0.122,0.017 -0.238,0.083 -0.361,0.128c0.04,0.088 0.08,0.177 0.121,0.265c-0.027,-0.001 -0.053,-0.002 -0.08,-0.004c-0.014,0.166 -0.02,0.333 -0.046,0.497c-0.032,0.208 -0.016,0.444 -0.272,0.547c-0.07,0.028 -0.124,0.096 -0.192,0.134c-0.2,0.111 -0.353,0.383 -0.648,0.188c-0.042,-0.028 -0.151,-0.027 -0.177,0.004c-0.295,0.345 -0.677,-0.09 -0.987,0.114c-0.032,0.021 -0.108,-0.025 -0.164,-0.041c-0.161,-0.047 -0.252,-0.303 -0.495,-0.155c-0.03,0.018 -0.243,-0.178 -0.298,-0.306c-0.091,-0.214 -0.162,-0.374 -0.448,-0.356c-0.246,0.016 -0.496,-0.05 -0.745,-0.064c-0.094,-0.005 -0.199,0.016 -0.283,0.058c-0.541,0.269 -1.085,0.533 -1.608,0.833c-0.129,0.074 -0.212,0.267 -0.265,0.423c-0.085,0.249 -0.111,0.518 -0.193,0.769c-0.129,0.395 -0.415,0.556 -0.831,0.485c0.015,0.467 -0.288,0.562 -0.691,0.518c0.135,0.251 0.022,0.522 -0.241,0.741c-0.068,0.056 -0.139,0.184 -0.12,0.256c0.151,0.564 0.158,0.562 -0.299,0.843c0.184,0.293 0.136,0.584 -0.17,0.93c0.12,0.098 0.243,0.199 0.395,0.324c-0.311,0.312 -0.579,0.579 -0.851,0.851c0.262,0.344 0.111,0.714 -0.352,0.798c-0.063,0.011 -0.149,0.1 -0.159,0.164c-0.024,0.149 -0.008,0.304 -0.008,0.473c-0.269,0.102 -0.444,0.229 -0.144,0.523c0.114,0.112 -0.05,0.799 -0.177,0.912c-0.303,0.271 -0.546,0.278 -0.94,0.024c-0.149,0.227 -0.705,0.327 -0.994,0.186c-0.06,-0.029 -0.167,-0.055 -0.204,-0.024c-0.275,0.232 -0.543,0.174 -0.826,0.022c-0.053,-0.028 -0.165,-0.007 -0.215,0.034c-0.153,0.124 -0.29,0.27 -0.456,0.429c0.186,0.461 0.009,0.757 -0.474,0.771c-0.184,0.213 -0.336,0.389 -0.491,0.564c-0.018,0.021 -0.059,0.049 -0.074,0.041c-0.488,-0.251 -0.698,0.239 -1.04,0.378c-0.161,0.065 -0.35,0.059 -0.524,0.085c0.066,0.278 -0.174,0.571 -0.467,0.652c-0.314,0.086 -0.61,0.243 -0.908,0.381c-0.241,0.111 -0.444,0.059 -0.651,-0.103c0.038,-0.242 0.076,-0.483 0.114,-0.724c0.002,-0.01 -0,-0.02 -0.001,-0.031c-0.009,-0.151 -0.397,-0.383 -0.535,-0.328c-0.125,0.05 -0.267,0.068 -0.382,0.135c-0.108,0.063 -0.189,0.17 -0.281,0.258c-0.118,0.113 -0.235,0.228 -0.353,0.341c-0.041,-0.03 -0.082,-0.06 -0.123,-0.09c0.046,-0.09 0.092,-0.18 0.157,-0.287Z" style="fill:#4ade80;fill-rule:nonzero;stroke:#22c55e;stroke-width:1px;"/></svg>