<?xml version="1.0" encoding="UTF-8" standalone="no"?><!DOCTYPE svg PUBLIC "-//W3C//DTD SVG 1.1//EN" "http://www.w3.org/Graphics/SVG/1.1/DTD/svg11.dtd"><svg width="100%" height="100%" viewBox="0 0 100 100" version="1.1" xmlns="http://www.w3.org/2000/svg" xmlns:xlink="http://www.w3.org/1999/xlink" xml:space="preserve" xmlns:serif="http://www.serif.com/" style="fill-rule:evenodd;clip-rule:evenodd;stroke-linejoin:round;stroke-miterlimit:2;"><rect id="_12_miyagi_kinkasan" serif:id="12_miyagi_kinkasan" x="0" y="0" width="100" height="100" style="fill:none;"/><path d="M56.27,5.319c-0.118,0.074 -0.203,0.141 -0.291,0.206c-0.049,0.035 -0.107,0.098 -0.152,0.092c-0.266,-0.04 -0.528,-0.105 -0.794,-0.146c-0.126,-0.019 -0.257,-0.003 -0.418,-0.003c0.107,0.37 0.269,0.51 0.564,0.488c0.069,-0.005 0.143,0.06 0.215,0.092c-0.05,0.068 -0.095,0.141 -0.151,0.202c-0.287,0.313 -0.638,0.554 -0.633,1.081c0.002,0.21 -0.3,0.477 -0.526,0.619c-0.232,0.146 -0.543,0.162 -0.813,0.253c-0.082,0.028 -0.143,0.116 -0.172,0.141c0.072,0.286 0.133,0.528 0.206,0.816c-0.546,0.034 -1.063,0.066 -1.58,0.099c-0.384,0.025 -0.77,0.035 -1.149,0.091c-0.092,0.014 -0.191,0.168 -0.235,0.278c-0.053,0.132 -0.049,0.287 -0.068,0.413c0.095,0.09 0.285,0.227 0.268,0.262c-0.069,0.14 -0.182,0.294 -0.317,0.356c-0.131,0.06 -0.311,0.013 -0.466,-0.029c-0.4,0.158 -0.593,0.514 -0.634,0.938c-0.017,0.179 0.078,0.37 0.127,0.553c0.025,0.091 0.088,0.179 0.089,0.268c0.006,0.639 0.162,0.854 0.768,0.985c0.155,0.033 0.328,-0.009 0.477,0.037c0.158,0.048 0.298,0.159 0.445,0.242c0.063,0.036 0.122,0.094 0.188,0.104c0.387,0.057 0.777,0.093 1.162,0.155c0.138,0.022 0.263,0.113 0.401,0.143c0.213,0.047 0.433,0.063 0.648,0.102c0.247,0.045 0.492,0.1 0.738,0.154c0.496,0.109 0.976,0.429 1.506,0.1c0.06,-0.037 0.158,-0.013 0.239,-0.018c0.325,-0.022 0.65,-0.047 0.976,-0.064c0.087,-0.004 0.176,0.024 0.264,0.024c0.183,0.001 0.368,0.009 0.548,-0.016c0.171,-0.024 0.298,-0.143 0.471,0.091c0.114,0.155 0.456,0.25 0.659,0.205c0.299,-0.066 0.424,0.055 0.56,0.252c0.253,0.366 0.683,0.35 1.045,0.467c0.713,0.231 1.467,0.204 2.201,0.3c0.513,0.068 1.045,0.088 1.531,0.245c0.479,0.154 0.96,0.138 1.438,0.213c0.092,0.014 0.163,0.133 0.256,0.167c0.248,0.089 0.373,0.404 0.696,0.362c0.062,-0.008 0.18,0.069 0.199,0.13c0.192,0.6 0.766,0.723 1.226,0.968c0.384,0.204 0.813,0.323 1.22,0.485c0.067,0.026 0.122,0.08 0.216,0.143c0.084,-0.053 0.215,-0.135 0.347,-0.219c0.651,0.41 1.295,0.816 1.962,1.235c0.349,-0.588 0.714,-0.953 1.373,-0.545c0.171,0.255 0.373,0.57 0.601,0.865c0.015,0.02 0.25,-0.093 0.347,-0.183c0.133,-0.124 0.203,-0.351 0.351,-0.418c0.511,-0.23 1.031,-0.411 1.622,-0.228c0.238,0.074 0.549,0.04 0.789,-0.048c0.362,-0.131 0.588,0.119 0.868,0.21c0.132,0.043 0.237,0.179 0.369,0.211c0.286,0.07 0.537,0.139 0.473,0.52c-0.006,0.035 0.038,0.093 0.074,0.12c0.288,0.215 0.593,0.41 0.864,0.643c0.141,0.121 0.271,0.294 0.327,0.468c0.099,0.307 0.239,0.487 0.591,0.508c0.127,0.007 0.286,0.169 0.359,0.3c0.256,0.459 0.692,0.561 1.126,0.495c0.654,-0.099 1.291,-0.048 1.937,0.016c0.233,0.023 0.472,-0.006 0.708,-0.014c0.021,-0.001 0.048,-0.043 0.062,-0.038c0.347,0.13 0.711,0.231 1.031,0.411c0.134,0.075 0.197,0.311 0.246,0.487c0.019,0.067 -0.072,0.22 -0.146,0.249c-0.326,0.124 -0.665,0.218 -1.028,0.331c0.088,0.235 0.247,0.392 0.515,0.479c0.142,0.046 0.24,0.215 0.381,0.276c0.323,0.141 0.367,0.543 0.786,0.668c0.351,0.104 0.683,0.282 1.068,0.28c0.115,-0.001 0.23,-0.011 0.343,-0.002c0.232,0.019 0.481,0.003 0.691,0.084c0.278,0.107 0.486,0.218 0.828,0.085c0.265,-0.103 0.639,0.058 0.96,0.124c0.568,0.117 1.13,0.265 1.7,0.369c0.233,0.043 0.482,0.003 0.723,0.002c0.05,-0 0.106,-0.009 0.151,0.008c0.465,0.174 0.919,0.45 1.396,0.5c0.392,0.041 0.705,0.242 1.071,0.304c0.114,0.019 0.295,0.061 0.315,0.13c0.046,0.161 0.027,0.346 -0.004,0.515c-0.005,0.029 -0.199,0.016 -0.302,0.038c-0.14,0.029 -0.292,0.049 -0.406,0.123c-0.032,0.02 0.018,0.244 0.086,0.329c0.194,0.243 0.106,0.435 -0.043,0.652c-0.073,0.106 -0.087,0.252 -0.094,0.395c-0.089,0.158 -0.468,0.19 -0.154,0.528c0.053,0.057 -0.072,0.327 -0.165,0.464c-0.216,0.319 -0.335,0.608 -0.066,0.973c0.076,0.103 -0.037,0.329 -0.018,0.494c0.031,0.268 0.107,0.53 0.15,0.796c0.03,0.188 0.036,0.379 0.051,0.551c-0.254,0.104 -0.506,0.207 -0.722,0.295c0.018,0.404 0.055,0.77 0.037,1.134c-0.004,0.092 -0.196,0.164 -0.277,0.264c-0.183,0.224 -0.44,0.36 -0.613,0.62c-0.128,0.193 -0.519,0.211 -0.791,0.32c-0.329,0.107 -0.66,0.211 -0.988,0.321c-0.134,0.045 -0.262,0.106 -0.396,0.148c-0.17,0.054 -0.343,0.098 -0.516,0.144c-0.236,0.062 -0.478,0.105 -0.703,0.192c-0.053,0.021 -0.076,0.191 -0.061,0.285c0.007,0.043 0.136,0.087 0.213,0.095c0.388,0.038 0.76,0.367 0.888,0.715c0.17,0.463 0.143,0.883 -0.08,1.324c-0.18,0.354 -0.618,0.576 -1.022,0.534c-0.222,-0.023 -0.511,-0.064 -0.654,0.267c-0.051,0.117 -0.272,0.164 -0.421,0.233c-0.119,0.055 -0.251,0.083 -0.367,0.144c-0.329,0.171 -0.653,0.352 -0.979,0.53c-0.042,0.023 -0.098,0.085 -0.119,0.074c-0.407,-0.209 -0.523,0.177 -0.767,0.337c-0.263,0.173 -0.603,0.222 -0.895,0.357c-0.413,0.192 -0.822,0.397 -1.211,0.633c-0.084,0.051 -0.084,0.251 -0.11,0.385c-0.022,0.115 -0.025,0.234 -0.036,0.352c-0.032,0.005 -0.064,0.01 -0.096,0.015c0.118,0.131 0.232,0.267 0.356,0.393c0.318,0.322 0.219,0.644 -0.216,0.8c-0.336,0.121 -0.65,0.302 -0.979,0.444c-0.074,0.032 -0.17,0.019 -0.256,0.019c-0.073,0 -0.191,-0.041 -0.211,-0.011c-0.22,0.324 -0.604,0.137 -0.872,0.294c-0.079,0.047 -0.173,0.086 -0.229,0.153c-0.132,0.16 -0.249,0.213 -0.483,0.17c-0.203,-0.037 -0.442,0.103 -0.659,0.179c-0.023,0.008 -0.01,0.112 -0.018,0.171c-0.015,0.109 -0.033,0.218 -0.057,0.377c0.196,0.153 0.452,0.352 0.708,0.551c-0.016,0.009 -0.032,0.017 -0.048,0.026c0.068,0.099 0.118,0.258 0.209,0.286c0.303,0.094 0.331,0.218 0.148,0.466c-0.388,0.528 -0.727,1.087 -1.042,1.663c-0.115,0.21 -0.356,0.351 -0.484,0.472c0.167,0.372 0.292,0.68 0.444,0.974c0.095,0.185 0.111,0.406 0.368,0.523c0.122,0.055 0.189,0.302 0.348,0.432c0.054,0.044 -0.041,0.348 -0.138,0.483c-0.192,0.265 -0.421,0.508 -0.659,0.734c-0.125,0.118 -0.334,0.152 -0.448,0.276c-0.115,0.125 -0.155,0.316 -0.236,0.474c-0.027,0.053 -0.078,0.135 -0.117,0.134c-0.427,-0.004 -0.382,0.353 -0.483,0.603c-0.053,0.132 -0.136,0.252 -0.253,0.462c0.116,0.078 0.307,0.146 0.398,0.282c0.134,0.199 0.201,0.445 0.287,0.675c0.011,0.03 -0.057,0.111 -0.048,0.117c0.421,0.328 0.07,0.468 -0.135,0.692c-0.314,0.343 -0.55,0.76 -0.874,1.092c-0.167,0.172 -0.491,0.186 -0.677,0.348c-0.434,0.378 -0.972,0.235 -1.451,0.365c-0.322,0.087 -0.631,0.224 -0.95,0.322c-0.145,0.044 -0.359,-0.007 -0.444,0.081c-0.177,0.183 -0.334,0.413 -0.418,0.653c-0.12,0.344 -0.434,0.543 -0.767,0.451c-0.101,-0.028 -0.258,0.05 -0.354,0.124c-0.09,0.07 -0.133,0.199 -0.242,0.377c0.391,0.104 0.772,0.231 1.163,0.299c0.169,0.03 0.254,0.078 0.362,0.213c0.188,0.234 0.446,0.411 0.658,0.626c0.065,0.066 0.068,0.189 0.119,0.274c0.069,0.113 0.157,0.216 0.239,0.321c0.082,0.105 0.167,0.207 0.216,0.268c0.452,-0.033 0.872,-0.064 1.322,-0.097c0.043,0.26 0.12,0.524 0.121,0.788c0.001,0.25 -0.125,0.466 -0.404,0.534c0.104,0.361 0.339,0.443 0.672,0.412c0.144,-0.013 0.297,0.071 0.445,0.11c-0.076,0.12 -0.152,0.24 -0.228,0.36c-0.025,0.04 -0.051,0.079 -0.085,0.131c0.174,0.235 0.344,0.459 0.508,0.688c0.027,0.037 0.056,0.117 0.04,0.133c-0.389,0.389 0.215,0.263 0.206,0.489c-0.04,0.036 -0.115,0.103 -0.23,0.206c0.564,0.216 0.882,0.642 1.148,1.079c0.217,-0.083 0.502,-0.139 0.726,-0.288c0.396,-0.263 0.672,0.01 0.964,0.166c0.305,0.163 0.537,0.397 0.959,0.359c0.284,-0.026 0.48,0.322 0.538,0.715c-0.199,-0.032 -0.381,-0.056 -0.561,-0.092c-0.326,-0.067 -0.65,-0.187 -0.977,-0.196c-0.192,-0.005 -0.388,0.161 -0.674,0.293c0.15,0.26 0.26,0.535 0.442,0.747c0.269,0.312 0.63,0.55 0.868,0.88c0.107,0.148 0.011,0.442 0.009,0.67c-0.001,0.114 -0,0.229 0.077,0.348c-0.103,0.136 -0.206,0.271 -0.352,0.465c0.265,0.136 0.514,0.263 0.843,0.431c-0.125,0.055 -0.241,0.107 -0.358,0.157c-0.126,0.053 -0.253,0.103 -0.428,0.174c0.122,0.104 0.178,0.178 0.253,0.211c0.276,0.12 0.565,0.21 0.833,0.345c0.09,0.045 0.165,0.188 0.175,0.293c0.006,0.056 -0.135,0.17 -0.221,0.183c-0.305,0.045 -0.627,0.119 -0.92,0.063c-0.268,-0.051 -0.508,-0.254 -0.759,-0.393c-0.045,-0.025 -0.098,-0.096 -0.125,-0.085c-0.3,0.115 -0.593,0.248 -0.893,0.362c-0.129,0.049 -0.283,0.116 -0.403,0.087c-0.294,-0.071 -0.434,0.016 -0.629,0.259c-0.119,0.148 -0.505,0.112 -0.769,0.104c-0.188,-0.006 -0.298,-0.025 -0.332,0.212c-0.037,0.257 -0.135,0.505 -0.206,0.757c0.068,-0.076 0.136,-0.151 0.204,-0.227c0.164,0.292 0.306,0.6 0.497,0.873c0.188,0.268 0.531,0.291 0.824,0.126c0.137,-0.077 0.295,-0.116 0.549,-0.211c-0.083,0.265 -0.127,0.408 -0.191,0.613c0.226,-0.041 0.435,-0.087 0.646,-0.115c0.08,-0.01 0.166,0.022 0.25,0.035c-0.046,0.068 -0.092,0.137 -0.139,0.205c-0.075,0.11 -0.151,0.22 -0.279,0.407c0.3,-0.066 0.527,-0.124 0.757,-0.164c0.473,-0.083 0.565,-0.003 0.556,0.438c-0.204,0.105 -0.4,0.206 -0.611,0.314c0.307,0.147 0.562,0.269 0.817,0.391c0.043,0.021 0.08,0.058 0.124,0.068c0.414,0.097 0.591,0.311 0.489,0.692c-0.07,0.261 0.009,0.273 0.234,0.305c0.305,0.043 0.599,0.167 0.9,0.248c0.074,0.02 0.157,0.013 0.235,0.01c0.261,-0.01 0.542,-0.09 0.779,-0.02c0.373,0.11 0.781,-0.086 1.137,0.203c0.247,0.2 0.571,0.307 0.863,0.451c0.043,0.021 0.102,0.005 0.151,0.017c0.171,0.043 0.391,-0.026 0.454,0.255c0.014,0.064 0.234,0.124 0.353,0.114c0.202,-0.017 0.397,-0.097 0.597,-0.142c0.172,-0.039 0.604,0.315 0.52,0.424c-0.21,0.272 0.145,0.696 -0.271,0.891c-0.039,0.018 -0.011,0.152 -0.046,0.214c-0.051,0.091 -0.115,0.192 -0.201,0.24c-0.183,0.102 -0.385,0.172 -0.578,0.255c-0.085,0.037 -0.173,0.114 -0.254,0.107c-0.339,-0.026 -0.676,-0.081 -1.015,-0.117c-0.124,-0.013 -0.251,-0.002 -0.444,0.08c0.082,0.083 0.168,0.161 0.244,0.248c0.175,0.201 0.617,0.241 0.411,0.685c-0.015,0.033 0.141,0.192 0.237,0.218c0.175,0.046 0.366,0.036 0.621,0.054c-0.234,0.32 -0.39,0.554 -0.738,0.539c-0.083,-0.004 -0.191,0.069 -0.251,0.139c-0.18,0.207 -0.386,0.155 -0.611,0.112c-0.212,-0.04 -0.372,-0.042 -0.612,0.123c-0.306,0.211 -0.443,0.512 -0.69,0.729c-0.106,0.093 -0.339,0.067 -0.511,0.053c-0.285,-0.023 -0.564,-0.165 -0.675,0.298c-0.078,0.326 -0.44,0.197 -0.671,0.209c-0.096,0.42 -0.185,0.815 -0.28,1.208c-0.013,0.052 -0.043,0.125 -0.084,0.142c-0.318,0.127 -0.271,0.299 -0.005,0.553c-0.176,0.082 -0.319,0.145 -0.459,0.214c-0.204,0.1 -0.428,0.091 -0.63,0.281c-0.181,0.169 -0.55,0.133 -0.832,0.2c-0.26,0.061 -0.517,0.135 -0.772,0.212c-0.116,0.035 -0.235,0.146 -0.336,0.128c-0.494,-0.087 -0.919,0.08 -1.337,0.304c-0.072,0.039 -0.15,0.077 -0.229,0.09c-0.633,0.101 -0.824,0.397 -0.638,0.998c0.082,0.264 -0.175,0.564 -0.532,0.587c-0.202,0.013 -0.392,-0.012 -0.503,0.221c-0.034,0.071 -0.182,0.158 -0.242,0.137c-0.704,-0.25 -0.979,0.47 -1.488,0.659c-0.241,0.089 -0.391,0.399 -0.618,0.558c-0.261,0.182 -0.506,0.342 -0.653,0.652c-0.051,0.108 -0.366,0.064 -0.494,0.17c-0.328,0.271 -0.695,0.231 -1.052,0.174c-0.2,-0.032 -0.381,-0.187 -0.552,-0.277c-0.09,0.075 -0.165,0.193 -0.247,0.197c-0.497,0.025 -0.669,0.338 -0.73,0.767c-0.005,0.037 0.001,0.096 -0.019,0.107c-0.445,0.253 -0.21,0.542 -0.067,0.845c0.048,0.102 0.006,0.248 0.003,0.374c-0.005,0.264 -0.027,0.522 0.326,0.616c0.096,0.026 0.146,0.199 0.233,0.288c0.225,0.229 0.473,0.438 0.685,0.678c0.085,0.096 0.101,0.254 0.124,0.317c-0.359,0.249 -0.658,0.456 -0.957,0.664c-0.094,0.065 -0.194,0.125 -0.278,0.202c-0.098,0.09 -0.192,0.188 -0.267,0.297c-0.038,0.055 -0.006,0.175 -0.05,0.207c-0.261,0.19 -0.535,0.364 -0.837,0.565c0.036,0.152 0.092,0.331 0.118,0.515c0.042,0.303 -0.18,0.321 -0.386,0.306c-0.219,-0.016 -0.436,-0.069 -0.696,-0.114c-0.053,-0.253 -0.144,-0.533 -0.542,-0.499c-0.063,0.005 -0.128,-0.112 -0.204,-0.144c-0.084,-0.035 -0.192,-0.068 -0.27,-0.042c-0.052,0.018 -0.104,0.145 -0.094,0.214c0.037,0.245 -0.028,0.46 -0.274,0.481c-0.126,0.011 -0.275,-0.166 -0.402,-0.272c-0.101,-0.084 -0.183,-0.19 -0.302,-0.213c-0.157,-0.06 -0.309,-0.148 -0.471,-0.172c-0.182,-0.028 -0.374,0.011 -0.561,0.004c-0.418,-0.015 -0.835,-0.043 -1.253,-0.061c-0.197,-0.009 -0.415,-0.061 -0.587,0.004c-0.26,0.099 -0.389,-0.008 -0.416,-0.212c-0.021,-0.155 0.078,-0.325 0.138,-0.543c-0.254,-0.356 -0.739,-0.486 -1.206,-0.53c-0.467,-0.044 -0.757,-0.375 -1.15,-0.52c-0.155,-0.057 -0.325,-0.082 -0.49,-0.104c-0.256,-0.034 -0.513,-0.054 -0.77,-0.08c-0.017,-0.033 -0.035,-0.067 -0.052,-0.1c0.101,-0.067 0.269,-0.116 0.292,-0.204c0.148,-0.55 0.57,-0.924 0.828,-1.394c0.096,-0.174 0.148,-0.347 0.317,-0.486c0.249,-0.205 0.237,-0.546 0.29,-0.826c0.025,-0.13 -0.193,-0.34 -0.342,-0.462c-0.253,-0.206 -0.522,-0.406 -0.815,-0.544c-0.511,-0.24 -0.981,-0.602 -1.588,-0.598c-0.076,0 -0.191,-0.045 -0.221,-0.103c-0.226,-0.438 -0.643,-0.485 -1.059,-0.587c-0.271,-0.067 -0.521,-0.245 -0.762,-0.4c-0.287,-0.184 -0.557,-0.394 -0.828,-0.602c-0.052,-0.04 -0.109,-0.125 -0.103,-0.182c0.036,-0.328 -0.256,-0.27 -0.405,-0.315c-0.249,-0.076 -0.523,-0.069 -0.785,-0.111c-0.046,-0.007 -0.081,-0.084 -0.123,-0.131c0.031,-0.046 0.052,-0.075 0.069,-0.105c0.083,-0.143 0.165,-0.287 0.247,-0.43c-0.154,-0.07 -0.303,-0.164 -0.464,-0.206c-0.316,-0.082 -0.525,-0.335 -0.523,-0.655c0.001,-0.079 -0.056,-0.157 -0.072,-0.239c-0.055,-0.271 -0.277,-0.536 -0.034,-0.822c0.021,-0.025 0.026,-0.093 0.008,-0.118c-0.197,-0.262 -0.295,-0.561 -0.381,-0.875c-0.048,-0.176 -0.363,-0.294 -0.082,-0.525c0.006,-0.005 -0.017,-0.069 -0.04,-0.085c-0.252,-0.164 -0.489,-0.378 -0.766,-0.471c-0.444,-0.148 -0.916,-0.213 -1.374,-0.319c-0.067,-0.015 -0.152,-0.051 -0.183,-0.104c-0.17,-0.295 -0.756,-0.267 -0.594,-0.842c0.234,-0.02 0.498,-0.042 0.742,-0.062c-0.029,-0.22 -0.023,-0.427 -0.088,-0.608c-0.096,-0.265 -0.353,-0.408 -0.533,-0.597c-0.37,-0.388 -0.863,-0.169 -1.223,-0.426c-0.122,-0.087 -0.278,-0.124 -0.464,-0.203c-0.246,0.091 -0.813,-0.098 -0.985,-0.358c-0.052,-0.078 -0.154,-0.191 -0.219,-0.182c-0.465,0.061 -0.832,-0.223 -1.248,-0.322c-0.116,-0.028 -0.258,0.041 -0.386,0.075c-0.578,0.154 -1.071,-0.184 -1.61,-0.255c-0.01,-0.033 -0.019,-0.066 -0.029,-0.099c0.239,-0.07 0.478,-0.139 0.718,-0.209c0.005,-0.044 0.01,-0.088 0.015,-0.132c-0.111,-0.026 -0.222,-0.054 -0.334,-0.077c-0.034,-0.007 -0.093,0.014 -0.103,-0.001c-0.216,-0.347 -0.61,-0.33 -0.929,-0.47c-0.55,-0.242 -1.084,-0.497 -1.705,-0.523c-0.243,-0.01 -0.582,-0.05 -0.483,-0.486c0.014,-0.06 -0.135,-0.184 -0.232,-0.235c-0.201,-0.106 -0.421,-0.175 -0.626,-0.275c-0.259,-0.126 -0.492,-0.279 -0.387,-0.627c-0.381,-0.077 -0.791,0.045 -1.115,-0.276c0.251,-0.102 0.421,-0.171 0.7,-0.284c-0.199,-0.162 -0.323,-0.233 -0.405,-0.338c-0.074,-0.096 -0.152,-0.234 -0.141,-0.345c0.04,-0.408 -0.081,-0.587 -0.486,-0.675c-0.082,-0.018 -0.199,-0.091 -0.215,-0.159c-0.127,-0.538 -0.184,-0.561 -0.738,-0.611c-0.251,-0.023 -0.489,-0.185 -0.734,-0.281c-0.088,-0.035 -0.178,-0.082 -0.269,-0.087c-0.409,-0.024 -0.818,-0.039 -1.228,-0.048c-0.092,-0.002 -0.196,0.068 -0.275,0.043c-0.12,-0.038 -0.288,-0.109 -0.32,-0.205c-0.141,-0.42 -0.418,-0.525 -0.807,-0.267c-0.222,0.147 -0.781,-0.097 -0.844,-0.363c-0.017,-0.07 -0.046,-0.154 -0.099,-0.194c-0.152,-0.119 -0.316,-0.222 -0.48,-0.324c-0.057,-0.035 -0.127,-0.065 -0.193,-0.069c-0.362,-0.022 -0.706,-0.058 -0.873,-0.463c-0.03,-0.072 -0.161,-0.105 -0.247,-0.151c-0.279,-0.15 -0.55,-0.299 -0.686,-0.618c-0.084,-0.196 -0.225,-0.288 -0.48,-0.312c-0.371,-0.035 -0.735,-0.18 -1.091,-0.311c-0.209,-0.077 -0.394,-0.218 -0.592,-0.328c-0.165,-0.092 -0.287,-0.169 -0.152,-0.404c0.037,-0.064 -0.149,-0.255 -0.248,-0.411c0.03,-0.099 0.056,-0.255 0.125,-0.39c0.047,-0.092 0.146,-0.163 0.232,-0.23c0.143,-0.112 0.294,-0.215 0.442,-0.321c-0.114,-0.126 -0.216,-0.269 -0.347,-0.373c-0.118,-0.094 -0.265,-0.159 -0.408,-0.212c-0.14,-0.051 -0.328,-0.14 -0.43,-0.088c-0.213,0.109 -0.311,0.014 -0.446,-0.108c-0.16,-0.146 -0.198,-0.287 -0.074,-0.473c0.034,-0.051 0.026,-0.129 0.039,-0.205c-0.443,0.02 -0.856,0.043 -1.269,0.054c-0.09,0.002 -0.194,-0.017 -0.27,-0.063c-0.309,-0.187 -0.619,-0.376 -0.908,-0.592c-0.082,-0.062 -0.088,-0.22 -0.141,-0.328c-0.089,-0.184 -0.195,-0.361 -0.28,-0.547c-0.043,-0.095 -0.113,-0.259 -0.075,-0.298c0.218,-0.222 0.197,-0.633 0.614,-0.709c0.269,-0.049 0.273,-0.617 0.029,-0.841c-0.17,-0.157 -0.308,-0.362 -0.499,-0.482c-0.248,-0.156 -0.529,-0.264 -0.807,-0.363c-0.255,-0.091 -0.525,-0.139 -0.785,-0.216c-0.081,-0.024 -0.185,-0.059 -0.222,-0.122c-0.346,-0.583 -0.916,-0.626 -1.5,-0.639c-0.227,-0.005 -0.454,-0.001 -0.68,-0.001c-0.025,0.05 -0.051,0.101 -0.076,0.151c-0.296,-0.323 -0.545,-0.834 -0.901,-0.924c-0.469,-0.118 -0.627,-0.696 -1.205,-0.568c0.115,-0.151 0.182,-0.238 0.291,-0.382c-0.161,-0.149 -0.333,-0.437 -0.501,-0.435c-0.363,0.004 -0.542,-0.285 -0.605,-0.453c-0.105,-0.282 -0.316,-0.286 -0.496,-0.357c-0.256,-0.101 -0.415,-0.211 -0.413,-0.527c0.002,-0.266 -0.088,-0.533 -0.141,-0.799c-0.08,-0.4 -0.064,-0.674 0.409,-0.858c-0.122,-0.256 -0.301,-0.502 -0.348,-0.771c-0.045,-0.254 -0.024,-0.573 0.098,-0.792c0.212,-0.382 0.521,-0.695 0.464,-1.193c-0.059,-0.516 0.025,-1.017 0.205,-1.517c0.258,-0.716 -0.024,-1.383 -0.266,-2.06c-0.328,-0.915 -0.646,-1.839 -0.707,-2.826c-0.023,-0.376 -0.044,-0.771 -0.177,-1.115c-0.114,-0.294 -0.364,-0.548 -0.594,-0.781c-0.227,-0.23 -0.532,-0.393 -0.438,-0.841c-0.455,-0.022 -0.884,-0.041 -1.314,-0.064c-0.446,-0.024 -0.891,-0.051 -1.337,-0.075c-0.075,-0.004 -0.156,-0.014 -0.226,0.007c-0.377,0.119 -0.525,-0.012 -0.455,-0.415c0.027,-0.156 0.071,-0.309 0.132,-0.573c0.127,0.179 0.254,0.284 0.283,0.412c0.073,0.321 0.301,0.282 0.441,0.151c0.389,-0.363 0.882,-0.232 1.146,-0.032c0.315,0.238 0.585,0.1 0.865,0.161c0.068,0.015 0.143,-0.006 0.223,-0.011c-0.05,-0.165 -0.079,-0.319 -0.143,-0.456c-0.13,-0.277 -0.142,-0.71 -0.672,-0.47c-0.19,0.087 -0.383,-0.032 -0.378,-0.338c0.48,-0.029 0.955,-0.058 1.503,-0.092c-0.029,-0.393 -0.056,-0.765 -0.086,-1.165c-0.322,0.084 -0.389,-0.103 -0.499,-0.38c-0.204,-0.513 -0.509,-0.986 -0.779,-1.472c-0.452,-0.816 -0.936,-1.613 -1.64,-2.239c-0.334,-0.297 -0.728,-0.524 -1.081,-0.799c-0.484,-0.377 -0.66,-0.952 -0.91,-1.476c-0.097,-0.204 -0.146,-0.43 -0.235,-0.638c-0.234,-0.549 0.072,-1.004 0.295,-1.44c0.245,-0.478 0.187,-0.885 -0.143,-1.239c-0.527,-0.565 -1.077,-1.115 -1.665,-1.614c-0.15,-0.127 -0.507,-0.11 -0.726,-0.035c-0.3,0.103 -0.55,0.215 -0.843,-0.143c0.142,-0.08 0.273,-0.142 0.392,-0.223c0.219,-0.15 0.459,-0.284 0.639,-0.473c0.323,-0.34 0.296,-0.731 0.013,-1.202c-0.319,-0.531 -0.707,-1.02 -0.783,-1.683c-0.1,-0.862 -0.064,-1.647 0.489,-2.392c0.61,-0.823 1.485,-1.263 2.291,-1.814c0.832,-0.568 1.654,-1.151 2.477,-1.732c0.166,-0.117 0.373,-0.172 0.422,-0.447c0.021,-0.117 0.304,-0.182 0.46,-0.282c0.253,-0.162 0.389,-0.509 0.777,-0.465c0.073,0.008 0.203,-0.083 0.233,-0.158c0.203,-0.502 0.67,-0.7 1.067,-0.987c0.135,-0.097 0.164,-0.347 0.301,-0.436c0.28,-0.18 0.599,-0.3 0.904,-0.44c0.053,-0.025 0.128,-0.013 0.172,-0.046c0.571,-0.438 1.256,-0.463 1.928,-0.558c0.225,-0.032 0.432,-0.185 0.646,-0.285c0.055,-0.026 0.11,-0.095 0.156,-0.087c0.443,0.078 0.8,-0.153 1.185,-0.298c0.199,-0.075 0.501,-0.02 0.615,-0.149c0.361,-0.41 0.908,-0.429 1.322,-0.727c0.451,-0.325 0.958,-0.59 1.472,-0.804c0.312,-0.13 0.689,-0.095 1.029,-0.17c0.191,-0.042 0.367,-0.153 0.545,-0.243c0.07,-0.036 0.119,-0.127 0.19,-0.145c0.397,-0.101 0.795,-0.204 1.198,-0.274c0.54,-0.093 1.092,-0.128 1.626,-0.247c0.233,-0.052 0.431,-0.254 0.65,-0.381c0.173,-0.1 0.353,-0.19 0.576,-0.309c-0.009,-0.046 -0.034,-0.168 -0.076,-0.374c0.263,0.044 0.483,0.113 0.701,0.108c0.205,-0.005 0.475,-0.025 0.594,-0.152c0.153,-0.165 0.258,-0.141 0.442,-0.126c0.53,0.043 1.077,0.171 1.591,-0.044c0.288,-0.12 0.556,-0.306 0.804,-0.499c0.595,-0.461 1.032,-1.046 1.379,-1.718c0.126,-0.244 0.431,-0.394 0.543,-0.608c0.022,-0.311 -0.055,-0.691 0.097,-0.912c0.14,-0.203 0.521,-0.264 0.808,-0.334c0.349,-0.084 0.718,-0.086 1.066,-0.172c0.366,-0.09 0.723,-0.224 1.072,-0.368c0.103,-0.043 0.167,-0.183 0.246,-0.28c0.038,-0.047 0.058,-0.116 0.105,-0.145c0.358,-0.218 0.721,-0.43 1.084,-0.641c0.044,-0.026 0.101,-0.03 0.209,-0.059c-0.057,-0.12 -0.103,-0.268 -0.189,-0.388c-0.23,-0.323 -0.191,-0.489 0.139,-0.701c0.689,-0.442 1.419,-0.724 2.254,-0.663c0.277,0.02 0.37,-0.249 0.371,-0.397c0.002,-0.419 0.357,-0.52 0.577,-0.727c0.135,-0.127 0.362,-0.168 0.556,-0.217c0.13,-0.033 0.328,-0.071 0.402,-0.003c0.295,0.27 0.409,0.029 0.573,-0.148c0.361,-0.388 0.846,-0.577 1.319,-0.776c0.487,-0.204 0.984,-0.383 1.479,-0.567c0.364,-0.135 0.672,0.06 0.94,0.243c0.314,0.215 0.893,0.183 1.068,-0.155c0.096,-0.185 0.162,-0.169 0.358,-0.153c0.463,0.038 0.934,-0.032 1.403,-0.039c0.195,-0.003 0.43,-0.018 0.574,0.08c0.13,0.088 0.16,0.324 0.273,0.585c0.193,0 0.476,0.019 0.756,-0.005c0.258,-0.022 0.815,0.27 0.975,0.495c0.102,0.143 0.278,0.235 0.425,0.345c0.097,0.073 0.25,0.115 0.291,0.208c0.144,0.328 0.343,0.163 0.394,0.007c0.121,-0.371 0.453,-0.203 0.566,-0.162c0.211,0.076 0.367,0.314 0.536,0.494c0.055,0.059 0.075,0.149 0.123,0.217c0.034,0.048 0.129,0.088 0.125,0.123c-0.053,0.427 0.3,0.436 0.552,0.56c0.203,0.1 0.403,0.213 0.584,0.348c0.06,0.045 0.088,0.183 0.069,0.263c-0.012,0.05 -0.142,0.071 -0.249,0.112Z" style="fill:#4ade80;fill-rule:nonzero;stroke:#22c55e;stroke-width:1px;"/></svg>