<?xml version="1.0" encoding="UTF-8" standalone="no"?><!DOCTYPE svg PUBLIC "-//W3C//DTD SVG 1.1//EN" "http://www.w3.org/Graphics/SVG/1.1/DTD/svg11.dtd"><svg width="100%" height="100%" viewBox="0 0 100 100" version="1.1" xmlns="http://www.w3.org/2000/svg" xmlns:xlink="http://www.w3.org/1999/xlink" xml:space="preserve" xmlns:serif="http://www.serif.com/" style="fill-rule:evenodd;clip-rule:evenodd;stroke-linejoin:round;stroke-miterlimit:2;"><rect id="_13_miyagi_sabusawajima" serif:id="13_miyagi_sabusawajima" x="0" y="0" width="100" height="100" style="fill:none;"/><clipPath id="_clip1"><rect x="0" y="0" width="100" height="100"/></clipPath><g clip-path="url(#_clip1)"><path d="M63.484,22.322c0.243,-0.486 0.451,-0.964 0.708,-1.412c0.472,-0.82 0.467,-1.636 0.062,-2.471c-0.059,-0.122 -0.129,-0.256 -0.128,-0.384c0.001,-0.158 0.07,-0.316 0.109,-0.474c0.168,0.045 0.379,0.041 0.495,0.144c0.235,0.209 0.418,0.476 0.622,0.72c0.116,0.138 0.238,0.271 0.343,0.418c0.186,0.261 0.439,0.238 0.689,0.16c0.43,-0.134 0.858,-0.277 1.276,-0.442c0.162,-0.064 0.314,-0.179 0.438,-0.304c0.317,-0.318 0.667,-0.622 0.902,-0.995c0.148,-0.235 0.202,-0.608 0.139,-0.882c-0.173,-0.741 -0.418,-1.467 -0.659,-2.191c-0.195,-0.587 -0.396,-1.175 -0.649,-1.737c-0.131,-0.29 -0.357,-0.55 -0.582,-0.783c-0.728,-0.751 -1.483,-1.476 -2.213,-2.225c-0.401,-0.412 -0.804,-0.829 -1.148,-1.288c-0.373,-0.496 -0.194,-0.958 0.392,-1.148c0.229,-0.074 0.46,-0.155 0.696,-0.188c0.276,-0.039 0.525,-0.005 0.767,0.213c0.421,0.379 0.888,0.71 1.353,1.036c0.111,0.078 0.308,0.106 0.44,0.069c0.837,-0.234 1.667,-0.491 2.498,-0.745c0.361,-0.11 0.447,-0.272 0.337,-0.631c-0.156,-0.511 -0.343,-1.013 -0.473,-1.53c-0.208,-0.823 -0.262,-1.664 -0.049,-2.493c0.177,-0.688 0.409,-1.361 0.617,-2.041c0.091,-0.297 0.393,-0.357 0.645,-0.106c0.507,0.504 0.87,1.111 1.153,1.766c0.084,0.193 0.19,0.378 0.255,0.576c0.343,1.051 0.3,2.082 -0.184,3.086c-0.281,0.583 -0.14,1.101 0.388,1.679c0.522,0.571 1.031,1.158 1.502,1.771c0.184,0.24 0.299,0.561 0.358,0.862c0.132,0.675 -0.374,1.061 -0.817,1.373c-0.603,0.424 -1.296,0.719 -1.939,1.089c-0.119,0.068 -0.232,0.222 -0.261,0.356c-0.074,0.339 -0.108,0.687 -0.135,1.034c-0.007,0.09 0.045,0.209 0.11,0.277c0.382,0.396 0.766,0.79 1.171,1.161c0.113,0.103 0.302,0.186 0.45,0.177c1.084,-0.069 2.092,0.233 3.086,0.599c0.21,0.077 0.405,0.227 0.573,0.381c0.268,0.247 0.23,0.524 -0.074,0.723c-0.542,0.355 -1.146,0.506 -1.784,0.579c-0.203,0.023 -0.423,0.121 -0.584,0.249c-0.671,0.535 -1.326,1.089 -1.975,1.651c-0.078,0.067 -0.126,0.227 -0.111,0.333c0.031,0.216 0.116,0.423 0.175,0.635c0.17,0.613 0.108,0.869 -0.412,1.233c-0.731,0.511 -1.475,1.006 -2.24,1.465c-0.337,0.202 -0.733,0.395 -1.111,0.413c-0.424,0.02 -0.873,-0.119 -1.281,-0.271c-0.431,-0.161 -0.825,-0.42 -1.236,-0.633c-0.606,-0.313 -1.516,0.058 -1.685,0.841c-0.132,0.612 -0.172,1.205 0.027,1.839c0.125,0.399 0.015,0.889 -0.057,1.328c-0.055,0.333 -0.598,0.421 -0.9,0.166c-0.26,-0.22 -0.509,-0.455 -0.756,-0.691c-0.283,-0.27 -0.687,-0.258 -1.036,-0.071c-0.612,0.328 -0.853,0.928 -1.112,1.489c-0.098,0.212 0.058,0.565 0.147,0.837c0.234,0.713 0.509,1.408 1.111,1.913c0.15,0.126 0.3,0.263 0.415,0.42c0.187,0.256 0.118,0.503 -0.161,0.65c-0.485,0.256 -0.972,0.507 -1.46,0.758c-0.269,0.139 -0.411,0.42 -0.363,0.706c0.031,0.187 0.057,0.377 0.065,0.567c0.027,0.62 0.039,1.241 0.072,1.861c0.004,0.082 0.083,0.207 0.155,0.232c0.296,0.102 0.599,0.193 0.906,0.247c0.216,0.038 0.444,0.007 0.724,0.007c-0.114,0.305 -0.217,0.555 -0.301,0.81c-0.251,0.759 -0.5,1.515 -1.071,2.115c-0.13,0.136 -0.154,0.317 0.032,0.475c0.646,0.551 1.285,1.111 1.925,1.669c0.233,0.203 0.46,0.413 0.691,0.619c0.521,0.465 1.02,0.62 1.662,0.259c0.292,-0.164 0.564,-0.374 0.815,-0.597c0.294,-0.263 0.277,-0.427 0.022,-0.729c-0.059,-0.07 -0.125,-0.226 -0.095,-0.259c0.069,-0.076 0.206,-0.157 0.295,-0.139c0.582,0.122 1.125,0.041 1.667,-0.199c0.622,-0.276 1.264,-0.508 1.896,-0.763c0.106,-0.043 0.203,-0.106 0.346,-0.182c-0.251,-0.376 -0.482,-0.734 -0.725,-1.083c-0.277,-0.398 -0.549,-0.8 -0.854,-1.175c-0.144,-0.177 -0.344,-0.331 -0.55,-0.428c-0.376,-0.177 -0.442,-0.272 -0.295,-0.686c0.161,-0.453 0.362,-0.894 0.492,-1.355c0.111,-0.392 0.123,-0.811 0.225,-1.207c0.05,-0.193 0.182,-0.382 0.323,-0.528c0.073,-0.076 0.262,-0.104 0.372,-0.069c0.666,0.209 1.265,0.519 1.669,1.13c0.128,0.194 0.318,0.355 0.506,0.496c0.084,0.063 0.256,0.089 0.349,0.047c0.71,-0.32 1.415,-0.651 2.111,-0.999c0.373,-0.187 0.502,-0.537 0.422,-0.942c-0.096,-0.484 -0.198,-0.969 -0.251,-1.459c-0.042,-0.382 0.101,-0.469 0.482,-0.364c0.212,0.058 0.422,0.152 0.637,0.166c0.762,0.051 1.071,-0.22 1.23,-0.879c0.156,-0.65 0.547,-0.898 1.106,-1.041c0.193,-0.049 0.387,-0.091 0.579,-0.143c0.358,-0.098 0.811,-0.658 0.806,-1.034c-0.007,-0.598 -0.06,-1.197 -0.051,-1.795c0.003,-0.181 0.11,-0.388 0.227,-0.536c0.682,-0.86 1.627,-1.287 2.663,-1.535c0.126,-0.03 0.299,0.066 0.424,0.146c0.029,0.018 -0.029,0.227 -0.09,0.32c-0.411,0.623 -0.454,1.305 -0.338,2.011c0.195,1.186 0.176,2.335 -0.614,3.332c-0.169,0.213 -0.417,0.37 -0.645,0.528c-0.276,0.191 -0.609,0.315 -0.848,0.54c-0.447,0.42 -0.829,0.9 -0.857,1.564c-0.008,0.2 -0.008,0.411 -0.073,0.596c-0.059,0.167 -0.173,0.343 -0.312,0.449c-0.341,0.261 -0.711,0.485 -1.069,0.724c-0.505,0.338 -0.365,0.833 -0.317,1.305c0.049,0.484 0.141,0.968 0.136,1.451c-0.002,0.198 -0.183,0.416 -0.326,0.588c-0.362,0.433 -0.795,0.813 -1.115,1.273c-0.491,0.707 -0.788,1.485 -0.516,2.377c0.113,0.369 0.239,0.742 0.281,1.121c0.064,0.572 -0.293,0.967 -0.684,1.328c-0.602,0.556 -1.337,0.765 -2.128,0.851c-0.092,0.01 -0.204,0.112 -0.252,0.201c-0.195,0.363 -0.361,0.741 -0.554,1.105c-0.085,0.161 -0.064,0.245 0.085,0.362c0.343,0.268 0.659,0.569 0.993,0.849c0.07,0.059 0.164,0.112 0.251,0.122c0.317,0.036 0.637,0.076 0.955,0.069c0.486,-0.011 0.907,0.164 1.306,0.403c0.291,0.174 0.303,0.545 0.045,0.855c-0.089,0.107 -0.19,0.208 -0.298,0.296c-0.514,0.415 -0.821,0.95 -0.995,1.585c-0.144,0.527 -0.148,0.603 0.286,0.941c0.441,0.343 0.861,0.726 1.343,0.997c0.353,0.199 0.784,0.302 1.192,0.347c0.737,0.081 1.061,0.514 1.18,1.18c0.03,0.166 0.052,0.334 0.07,0.502c0.101,0.953 -0.347,1.633 -1.056,2.213c-0.729,0.596 -1.522,1.053 -2.441,1.259c-0.37,0.083 -0.751,0.119 -1.097,-0.151c-0.296,-0.231 -0.356,-0.579 -0.122,-0.887c0.272,-0.358 0.599,-0.686 0.519,-1.211c-0.041,-0.272 -0.146,-0.464 -0.366,-0.619c-0.557,-0.392 -1.215,-0.491 -1.851,-0.648c-0.509,-0.125 -0.891,-0.45 -0.841,-0.97c0.022,-0.23 0.087,-0.492 -0.171,-0.675c-0.304,-0.216 -0.649,-0.305 -0.99,-0.224c-0.876,0.208 -1.739,0.47 -2.611,0.695c-0.313,0.081 -0.346,0.266 -0.266,0.526c0.119,0.391 0.257,0.777 0.354,1.173c0.157,0.638 0.005,0.864 -0.653,0.887c-1.082,0.037 -2.028,-0.344 -2.827,-1.068c-0.13,-0.118 -0.212,-0.314 -0.262,-0.49c-0.104,-0.364 -0.301,-0.636 -0.627,-0.831c-0.188,-0.113 -0.348,-0.272 -0.528,-0.399c-0.849,-0.602 -1.904,-0.285 -2.475,0.488c-0.4,0.541 -0.78,1.098 -1.134,1.669c-0.345,0.557 -0.331,1.144 0.116,1.631c0.272,0.297 0.631,0.527 0.982,0.734c0.427,0.252 0.893,0.438 1.33,0.674c0.203,0.11 0.376,0.115 0.59,0.034c0.223,-0.084 0.466,-0.155 0.701,-0.159c0.885,-0.016 1.547,0.62 1.631,1.505c0.01,0.105 0.123,0.247 0.223,0.289c0.406,0.17 0.816,0.35 1.242,0.444c0.306,0.067 0.653,0.058 0.961,-0.011c0.799,-0.177 1.587,-0.06 2.368,0.052c0.537,0.077 0.823,0.531 0.823,1.08c-0,0.108 -0,0.216 -0,0.324c0.001,0.673 -0.234,1.012 -0.895,1.016c-0.991,0.006 -1.869,0.389 -2.772,0.689c-0.748,0.249 -1.475,0.562 -2.089,1.078c-0.062,0.052 -0.107,0.202 -0.078,0.273c0.254,0.633 0.535,1.255 0.793,1.886c0.336,0.824 0.819,1.555 1.331,2.277c0.208,0.293 0.421,0.306 0.709,0.272c0.567,-0.067 1.135,-0.152 1.704,-0.174c0.354,-0.013 0.715,0.121 1.069,0.104c0.231,-0.011 0.48,-0.138 0.675,-0.277c0.225,-0.16 0.39,-0.402 0.601,-0.586c0.581,-0.507 0.865,-0.528 1.46,-0.144c0.274,0.177 0.552,0.349 0.841,0.499c0.604,0.314 1.135,0.117 1.403,-0.504c0.214,-0.496 0.757,-0.692 1.285,-0.478c0.478,0.194 0.754,0.511 0.84,1.046c0.06,0.375 0.238,0.737 0.399,1.089c0.253,0.555 -0.137,0.884 -0.619,0.936c-0.762,0.081 -1.564,-0.069 -2.277,0.317c-0.202,0.109 -0.386,0.281 -0.527,0.464c-0.165,0.215 -0.25,0.491 -0.413,0.708c-0.328,0.436 -0.615,0.385 -1.037,0.14c-0.371,-0.215 -0.71,-0.493 -1.037,-0.773c-0.623,-0.534 -1.303,-0.632 -2.029,-0.277c-0.887,0.433 -1.763,0.888 -2.634,1.351c-0.342,0.182 -0.643,0.447 -0.993,0.608c-0.173,0.079 -0.434,0.063 -0.621,-0.006c-0.361,-0.133 -0.638,-0.373 -0.745,-0.785c-0.091,-0.351 0.127,-0.604 0.221,-0.893c0.098,-0.301 -0.158,-1.165 -0.43,-1.306c-0.052,-0.027 -0.127,-0.013 -0.191,-0.013c-0.733,-0.001 -1.467,-0.022 -2.199,0.008c-0.308,0.013 -0.615,0.123 -0.915,0.216c-0.066,0.021 -0.137,0.153 -0.139,0.236c-0.008,0.446 0.152,0.841 0.398,1.208c0.387,0.576 0.31,1.688 -0.167,2.127c-0.359,0.33 -0.803,0.417 -1.272,0.309c-0.534,-0.123 -0.882,-0.453 -1.041,-0.988c-0.087,-0.293 -0.003,-0.672 -0.309,-0.86c-0.3,-0.184 -0.632,-0.337 -0.97,-0.425c-0.146,-0.038 -0.358,0.099 -0.514,0.197c-0.577,0.365 -1.211,0.676 -1.699,1.139c-0.743,0.706 -1.304,1.576 -1.713,2.525c-0.296,0.687 -0.296,1.411 -0.09,2.113c0.274,0.933 0.532,1.882 0.929,2.765c0.505,1.121 1.376,1.988 2.335,2.743c0.82,0.646 1.714,1.165 2.728,1.473c0.358,0.109 0.614,-0.112 0.925,-0.142c0.548,-0.054 1.076,-0.144 1.637,0.003c0.316,0.083 0.69,-0.011 1.029,-0.075c0.471,-0.089 0.929,-0.252 1.401,-0.331c0.301,-0.05 0.477,-0.207 0.61,-0.448c0.097,-0.175 0.182,-0.357 0.276,-0.535c0.187,-0.354 0.43,-0.458 0.81,-0.32c0.597,0.216 0.911,0.652 1.035,1.277c0.218,1.104 -0.149,2.113 -0.471,3.124c-0.323,1.017 -0.695,2.019 -1.28,2.927c-0.276,0.429 -0.874,0.589 -1.324,0.309c-0.214,-0.133 -0.424,-0.272 -0.643,-0.395c-0.394,-0.22 -0.684,-0.169 -0.953,0.176c-0.433,0.555 -0.684,1.209 -0.679,1.892c0.003,0.443 0.254,0.884 0.409,1.373c0.194,-0.144 0.312,-0.23 0.428,-0.318c0.412,-0.31 0.871,-0.388 1.362,-0.256c0.301,0.081 0.413,0.355 0.237,0.662c-0.235,0.409 -0.498,0.806 -0.78,1.184c-0.385,0.516 -0.777,1.03 -1.21,1.506c-0.313,0.344 -0.658,0.694 -1.059,0.912c-0.42,0.229 -0.918,0.329 -1.393,0.437c-0.369,0.084 -0.757,0.146 -1.131,0.123c-0.379,-0.023 -0.757,-0.142 -1.125,-0.255c-0.263,-0.081 -0.364,-0.333 -0.282,-0.566c0.165,-0.466 -0.068,-0.837 -0.197,-1.245c-0.16,-0.507 -0.273,-1.029 -0.395,-1.548c-0.065,-0.275 -0.114,-0.555 -0.154,-0.835c-0.042,-0.296 -0.301,-0.347 -0.5,-0.421c-0.559,-0.207 -1.126,-0.404 -1.703,-0.551c-0.653,-0.165 -1.32,-0.193 -1.993,-0.075c-0.22,0.039 -0.452,0 -0.678,0.009c-0.253,0.01 -0.45,0.088 -0.593,0.339c-0.25,0.44 -0.477,0.908 -0.99,1.13c-0.374,0.163 -0.451,0.519 -0.51,0.88c-0.125,0.767 -0.215,1.544 -0.401,2.296c-0.145,0.589 -0.414,1.163 -1.132,1.254c-0.497,0.063 -0.985,-0.051 -1.398,-0.334c-0.461,-0.316 -0.53,-0.616 -0.39,-1.181c0.068,-0.275 0.132,-0.556 0.147,-0.837c0.021,-0.39 -0.328,-0.796 -0.711,-0.894c-0.415,-0.106 -0.829,-0.216 -1.243,-0.329c-0.194,-0.053 -0.258,-0.182 -0.247,-0.385c0.019,-0.361 0.006,-0.697 -0.252,-1.02c-0.283,-0.354 -0.653,-0.481 -1.044,-0.59c-0.678,-0.188 -1.31,-0.03 -1.93,0.274c-0.543,0.266 -1.34,-0.006 -1.561,-0.489c-0.16,-0.35 -0.023,-0.668 0.127,-0.965c0.131,-0.259 0.347,-0.44 0.619,-0.59c0.568,-0.315 1.108,-0.681 1.643,-1.051c0.106,-0.073 0.194,-0.253 0.196,-0.386c0.017,-0.896 0.04,-1.793 0.001,-2.687c-0.059,-1.341 -0.57,-2.544 -1.286,-3.654c-0.398,-0.618 -0.862,-1.195 -1.321,-1.771c-1.066,-1.339 -2.506,-2.156 -4.03,-2.854c-0.833,-0.381 -1.657,-0.782 -2.489,-1.168c-0.092,-0.043 -0.207,-0.072 -0.304,-0.058c-0.943,0.135 -1.835,-0.157 -2.745,-0.307c-0.935,-0.154 -1.874,-0.301 -2.816,-0.402c-0.92,-0.099 -1.854,-0.085 -2.767,-0.219c-0.672,-0.099 -1.198,0.028 -1.747,0.43c-0.351,0.257 -0.804,0.526 -1.317,0.24c-0.284,-0.158 -0.348,-0.379 -0.325,-0.679c0.015,-0.188 0.02,-0.404 -0.057,-0.568c-0.459,-0.981 -0.947,-1.949 -1.417,-2.926c-0.15,-0.312 -0.279,-0.634 -0.405,-0.957c-0.19,-0.489 -0.611,-0.928 -1.158,-0.828c-0.495,0.09 -0.999,0.149 -1.48,0.286c-0.577,0.165 -1.011,-0.015 -1.28,-0.489c-0.161,-0.284 -0.383,-0.569 -0.219,-0.927c0.042,-0.092 0.135,-0.201 0.225,-0.223c0.415,-0.105 0.866,-0.115 1.251,-0.282c0.764,-0.332 1.517,-1.05 1.424,-1.98c-0.069,-0.685 -0.347,-1.268 -0.928,-1.681c-0.685,-0.487 -1.368,-0.979 -2.048,-1.474c-0.281,-0.205 -0.269,-0.585 0.019,-0.778c0.061,-0.041 0.134,-0.063 0.201,-0.094c0.594,-0.271 0.672,-0.711 0.291,-1.28c-0.247,-0.369 -0.399,-0.799 -0.619,-1.187c-0.301,-0.532 -0.678,-0.968 -1.295,-1.19c-0.422,-0.152 -0.744,-0.489 -0.918,-0.926c-0.111,-0.278 0.03,-0.51 0.33,-0.516c0.208,-0.004 0.428,0.021 0.623,0.089c0.384,0.132 0.594,0.031 0.657,-0.376c0.113,-0.728 0.205,-1.46 0.334,-2.186c0.031,-0.176 0.145,-0.362 0.273,-0.491c0.706,-0.707 1.47,-1.36 2.132,-2.104c0.549,-0.617 0.946,-1.367 1.48,-2c0.738,-0.874 1.109,-1.932 1.581,-2.937c0.321,-0.683 0.817,-1.224 1.254,-1.817c0.724,-0.982 1.754,-1.601 2.722,-2.283c1.442,-1.017 2.925,-1.976 4.396,-2.952c0.656,-0.435 1.328,-0.847 1.984,-1.282c0.147,-0.098 0.225,-0.072 0.341,0.042c0.627,0.618 1.261,1.229 1.896,1.839c0.975,0.935 1.954,1.866 2.93,2.802c0.635,0.609 1.258,1.232 1.903,1.832c0.655,0.609 1.33,1.198 2.026,1.822c-0.328,0.235 -0.641,0.457 -0.951,0.682c-0.425,0.31 -0.849,0.623 -1.272,0.937c-0.182,0.135 -0.129,0.256 0.016,0.392c0.546,0.516 1.084,1.039 1.626,1.559c0.078,0.074 0.159,0.145 0.265,0.241c-0.489,0.307 -0.944,0.601 -1.409,0.878c-0.092,0.055 -0.223,0.06 -0.337,0.06c-0.83,0.004 -1.661,0 -2.491,0.002c-0.312,0.001 -0.369,0.092 -0.284,0.395c0.322,1.136 1.091,1.522 2.142,1.685c0.105,0.016 0.258,0.169 0.268,0.27c0.023,0.239 -0.042,0.485 -0.044,0.728c-0.008,0.896 -0.006,1.792 -0.007,2.687c-0,0.41 0.007,0.82 -0,1.229c-0.004,0.205 0.069,0.298 0.267,0.402c0.294,0.154 0.539,0.405 0.798,0.624c0.457,0.386 0.89,0.839 1.489,0.967c0.466,0.1 0.961,0.075 1.444,0.076c0.372,0.001 0.75,-0.013 1.115,-0.076c0.702,-0.121 1.407,-0.247 2.092,-0.438c0.393,-0.11 0.75,-0.35 1.122,-0.534c0.333,-0.165 0.365,-0.496 0.404,-0.801c0.021,-0.164 0.081,-0.224 0.215,-0.295c0.837,-0.443 1.675,-0.885 2.497,-1.356c0.488,-0.28 0.791,-0.702 0.794,-1.3c0.003,-0.493 -0.261,-0.862 -0.639,-1.077c-0.765,-0.435 -1.571,-0.799 -2.367,-1.178c-0.096,-0.046 -0.234,-0.007 -0.353,-0.003c-0.774,0.026 -1.467,-0.122 -1.954,-0.808c-0.297,-0.418 -0.187,-1.099 0.283,-1.293c0.393,-0.162 0.817,-0.25 1.232,-0.355c0.479,-0.122 0.876,-0.385 1.267,-0.672c0.497,-0.364 0.271,-1.37 -0.243,-1.655c-0.541,-0.3 -1.085,-0.603 -1.656,-0.838c-0.331,-0.136 -0.715,-0.141 -1.076,-0.202c-0.164,-0.028 -0.329,-0.047 -0.496,-0.07c-0.047,-0.422 -0.019,-0.797 0.172,-1.169c0.267,-0.52 0.049,-1.241 -0.439,-1.567c-0.315,-0.21 -0.626,-0.429 -0.955,-0.613c-0.266,-0.148 -0.372,-0.386 -0.476,-0.643c-0.145,-0.356 -0.294,-0.711 -0.461,-1.057c-0.053,-0.111 -0.151,-0.231 -0.258,-0.28c-0.877,-0.396 -1.184,-1.232 -1.467,-2.024c-0.428,-1.2 -0.755,-2.439 -1.086,-3.671c-0.074,-0.278 -0.162,-0.631 0.182,-0.865c0.37,-0.252 0.712,-0.248 1.092,-0.037c0.641,0.356 1.155,0.855 1.68,1.355c0.811,0.77 1.657,1.503 2.497,2.242c0.164,0.144 0.356,0.272 0.557,0.35c0.121,0.046 0.302,0.017 0.426,-0.041c0.774,-0.36 1.54,-0.738 2.308,-1.111c0.235,-0.114 0.298,-0.261 0.181,-0.523c-0.671,-1.494 -1.326,-2.997 -1.988,-4.495c-0.182,-0.413 -0.384,-0.818 -0.555,-1.235c-0.126,-0.306 -0.376,-0.408 -0.661,-0.461c-0.393,-0.072 -0.792,-0.113 -1.181,-0.198c-0.987,-0.215 -1.556,-1.166 -1.3,-2.135c0.068,-0.256 0.073,-0.522 0.313,-0.719c0.424,-0.35 0.878,-0.32 1.305,-0.091c0.776,0.416 1.588,0.345 2.397,0.235c0.919,-0.125 1.773,-0.029 2.502,0.579c0.248,0.207 0.42,0.504 0.637,0.751c0.385,0.438 0.84,0.679 1.458,0.617c0.566,-0.057 1.157,0.067 1.676,-0.264c0.118,-0.076 0.258,-0.159 0.321,-0.274c0.329,-0.608 0.638,-1.226 0.948,-1.844c0.036,-0.071 0.029,-0.163 0.055,-0.241c0.078,-0.236 0.101,-0.53 0.257,-0.694c0.448,-0.47 0.943,-0.898 1.438,-1.32c0.154,-0.131 0.363,-0.252 0.558,-0.273c0.52,-0.054 0.883,-0.368 1.268,-0.658c0.362,-0.273 0.724,-0.545 1.082,-0.822c0.228,-0.177 0.449,-0.365 0.646,-0.526c-0.205,-0.539 -0.647,-0.899 -0.598,-1.474c0.031,-0.369 0.256,-0.619 0.624,-0.609c0.534,0.014 1.069,0.072 1.602,0.054c0.33,-0.011 0.66,-0.117 0.984,-0.201c0.953,-0.248 1.906,-0.501 2.853,-0.77c0.112,-0.032 0.192,-0.175 0.3,-0.289Z" style="fill:#4ade80;fill-rule:nonzero;stroke:#22c55e;stroke-width:1px;"/></g></svg>