<?xml version="1.0" encoding="UTF-8" standalone="no"?><!DOCTYPE svg PUBLIC "-//W3C//DTD SVG 1.1//EN" "http://www.w3.org/Graphics/SVG/1.1/DTD/svg11.dtd"><svg width="100%" height="100%" viewBox="0 0 100 100" version="1.1" xmlns="http://www.w3.org/2000/svg" xmlns:xlink="http://www.w3.org/1999/xlink" xml:space="preserve" xmlns:serif="http://www.serif.com/" style="fill-rule:evenodd;clip-rule:evenodd;stroke-linejoin:round;stroke-miterlimit:2;"><rect id="_14_miyagi_nonoshima" serif:id="14_miyagi_nonoshima" x="0" y="0" width="100" height="100" style="fill:none;"/><path d="M74.113,35.47c0.048,-0.417 0.069,-0.811 0.149,-1.191c0.069,-0.326 0.364,-0.465 0.656,-0.511c0.823,-0.131 1.651,-0.227 2.477,-0.341c0.524,-0.073 1.053,-0.128 1.567,-0.247c0.156,-0.036 0.325,-0.238 0.39,-0.403c0.147,-0.377 0.372,-0.591 0.776,-0.689c0.688,-0.166 1.415,-0.292 1.953,-0.796c0.352,-0.329 0.636,-0.734 0.93,-1.121c0.156,-0.204 0.276,-0.438 0.402,-0.663c0.356,-0.639 0.283,-1.297 0.121,-1.977c-0.105,-0.439 -0.139,-0.898 -0.179,-1.35c-0.022,-0.25 0.083,-0.393 0.383,-0.4c0.466,-0.01 0.931,-0.082 1.397,-0.121c0.813,-0.068 1.197,-0.597 1.388,-1.311c0.179,-0.671 0.175,-1.306 -0.374,-1.852c-0.304,-0.302 -0.286,-0.922 -0.026,-1.309c0.403,-0.6 0.812,-1.195 1.213,-1.796c0.164,-0.246 0.392,-0.234 0.603,-0.128c0.541,0.271 1.07,0.566 1.602,0.856c0.18,0.098 0.314,0.09 0.502,-0.034c0.889,-0.59 1.801,-1.145 2.693,-1.731c0.115,-0.075 0.207,-0.242 0.235,-0.382c0.113,-0.572 0.198,-1.149 0.293,-1.724c0.06,-0.362 0.092,-0.732 0.188,-1.084c0.151,-0.561 0.312,-1.126 0.765,-1.543c0.134,-0.123 0.252,-0.263 0.38,-0.392c0.285,-0.286 0.648,-0.28 1.013,-0.263c0.449,0.021 0.897,0.053 1.346,0.063c0.511,0.012 1.049,0.431 1.283,0.884c0.351,0.679 0.352,1.402 0.381,2.126c0.02,0.508 0.01,1.018 0.004,1.527c-0.011,1.003 -0.512,1.759 -1.255,2.364c-0.467,0.38 -1.023,0.657 -1.465,1.062c-0.309,0.283 -0.493,0.704 -0.733,1.063c-0.363,0.544 -0.315,1.09 -0.05,1.662c0.143,0.309 0.244,0.647 0.307,0.982c0.121,0.651 -0.253,1.079 -0.752,1.396c-0.746,0.473 -1.509,0.919 -2.274,1.361c-0.368,0.213 -0.592,0.475 -0.559,0.932c0.029,0.407 -0.23,0.656 -0.644,0.649c-0.339,-0.006 -0.679,-0.021 -1.014,-0.067c-1.077,-0.147 -1.649,0.738 -1.859,1.502c-0.088,0.321 -0.161,0.652 -0.3,0.95c-0.301,0.645 -0.904,0.886 -1.54,1.072c-0.504,0.148 -1.008,0.297 -1.503,0.472c-0.709,0.251 -1.115,0.837 -1.514,1.427c-0.422,0.625 -0.979,1.061 -1.711,1.297c-0.807,0.261 -1.612,0.546 -2.385,0.892c-0.441,0.198 -0.81,0.517 -1.122,0.939c-0.643,0.869 -0.851,1.874 -1.076,2.878c-0.273,1.218 -0.635,2.395 -1.309,3.458c-0.427,0.674 -0.82,1.374 -1.298,2.01c-0.211,0.28 -0.567,0.516 -0.904,0.624c-0.898,0.286 -1.64,0.794 -2.355,1.383c-0.793,0.654 -1.613,1.269 -2.564,1.694c-0.431,0.193 -0.838,0.449 -1.226,0.721c-0.115,0.081 -0.162,0.308 -0.176,0.474c-0.078,0.991 -0.132,1.984 -0.207,2.976c-0.023,0.301 -0.093,0.598 -0.127,0.899c-0.018,0.161 0.012,0.276 0.176,0.409c0.396,0.32 0.743,0.689 0.915,1.207c0.203,0.61 0.479,1.196 0.719,1.794c0.198,0.493 0.038,0.982 -0.051,1.462c-0.07,0.376 -0.408,0.55 -0.738,0.599c-0.405,0.06 -0.817,0.024 -1.209,-0.177c-0.983,-0.502 -1.984,-0.971 -2.971,-1.467c-0.366,-0.184 -0.72,-0.393 -1.067,-0.61c-0.408,-0.255 -0.47,-0.258 -0.843,0.06c-0.09,0.077 -0.19,0.143 -0.283,0.217c-0.087,0.069 -0.17,0.142 -0.261,0.218c0.093,0.162 0.143,0.317 0.247,0.414c0.275,0.26 0.228,0.559 0.111,0.845c-0.114,0.276 -0.04,0.483 0.138,0.678c0.326,0.357 0.641,0.726 0.993,1.056c0.251,0.235 0.334,0.519 0.178,0.773c-0.104,0.169 -0.379,0.294 -0.593,0.321c-0.845,0.109 -1.563,-0.187 -2.222,-0.723c-0.679,-0.552 -1.157,-1.265 -1.708,-1.921c-0.309,-0.368 -0.609,-0.748 -0.956,-1.077c-0.468,-0.443 -0.721,-0.978 -0.732,-1.602c-0.016,-0.857 -0.741,-1.179 -1.428,-1.021c-0.614,0.142 -1.229,0.327 -1.804,0.583c-0.464,0.207 -0.871,0.543 -1.298,0.829c-0.525,0.351 -0.964,0.848 -1.628,0.964c-0.138,0.024 -0.277,0.058 -0.415,0.057c-0.919,-0.01 -1.822,0.067 -2.714,0.315c-0.456,0.127 -0.937,0.157 -1.405,0.244c-0.784,0.147 -1.418,0.61 -2.077,1.014c-0.871,0.532 -1.234,1.407 -1.515,2.325c-0.097,0.318 -0.183,0.651 -0.193,0.98c-0.021,0.679 0.251,1.215 0.842,1.605c0.541,0.357 1.123,0.711 1.397,1.332c0.21,0.476 0.409,0.988 0.453,1.498c0.074,0.868 0.037,1.748 0.013,2.622c-0.008,0.303 -0.078,0.617 -0.183,0.903c-0.189,0.514 -0.658,0.381 -1.048,0.376c-0.278,-0.004 -0.598,-0.494 -0.619,-0.729c-0.053,-0.598 -0.137,-1.198 -0.125,-1.795c0.018,-0.896 -0.4,-1.217 -1.067,-1.52c-0.309,-0.14 -0.605,-0.309 -0.909,-0.461c-0.323,-0.161 -0.432,-0.431 -0.428,-0.775c0.008,-0.587 -0.519,-1.361 -1.078,-1.521c-0.246,-0.07 -0.528,-0.008 -0.789,-0.039c-0.175,-0.021 -0.34,-0.12 -0.516,-0.147c-0.225,-0.034 -0.496,-0.116 -0.676,-0.029c-1.04,0.498 -2.084,0.998 -3.078,1.58c-0.966,0.566 -1.855,1.258 -2.617,2.089c-0.38,0.415 -0.69,0.893 -1.064,1.315c-0.467,0.529 -0.771,1.138 -0.987,1.799c-0.043,0.132 -0.066,0.271 -0.086,0.409c-0.015,0.108 0.026,0.241 -0.022,0.326c-0.357,0.627 -0.359,1.347 -0.522,2.021c-0.094,0.386 -0.054,0.81 -0.038,1.215c0.005,0.125 0.101,0.276 0.201,0.362c0.338,0.288 0.687,0.565 1.049,0.822c0.45,0.319 0.878,0.123 1.276,-0.121c0.413,-0.253 0.813,-0.528 1.205,-0.813c0.339,-0.247 0.668,-0.25 1.032,-0.062c0.528,0.273 0.674,0.586 0.518,1.168c-0.153,0.569 0.111,1.287 0.604,1.648c0.331,0.243 0.67,0.476 0.991,0.732c0.377,0.301 0.798,0.405 1.274,0.38c0.152,-0.008 0.309,0.081 0.464,0.126c-0.099,0.174 -0.157,0.406 -0.305,0.512c-0.412,0.292 -0.864,0.526 -1.294,0.793c-0.274,0.17 -0.536,0.36 -0.805,0.54c-0.502,0.336 -0.372,0.849 0.009,1.162c0.351,0.288 0.744,0.527 1.076,0.834c0.161,0.149 0.269,0.394 0.321,0.614c0.121,0.513 0.164,1.045 0.293,1.556c0.221,0.873 -0.072,1.26 -0.986,1.301c-0.697,0.031 -1.364,-0.084 -2.028,-0.273c-0.61,-0.173 -1.222,-0.344 -1.839,-0.486c-1.08,-0.248 -1.857,-0.897 -2.454,-1.797c-0.053,-0.08 -0.098,-0.164 -0.159,-0.268c0.163,-0.14 0.329,-0.278 0.491,-0.421c0.437,-0.386 0.49,-0.987 0.213,-1.492c-0.354,-0.646 -0.93,-1.047 -1.487,-1.473c-1.082,-0.827 -2.185,-1.629 -3.249,-2.48c-0.19,-0.152 -0.316,-0.488 -0.324,-0.744c-0.024,-0.746 0.023,-1.495 0.047,-2.242c0.029,-0.891 -0.215,-1.736 -0.412,-2.591c-0.039,-0.168 -0.049,-0.346 -0.048,-0.519c0.002,-0.56 -0.487,-1.254 -0.859,-1.28c-0.496,-0.035 -1.003,-0.063 -1.492,0.004c-1.165,0.159 -2.227,-0.031 -3.157,-0.778c-0.191,-0.154 -0.363,-0.336 -0.522,-0.525c-0.237,-0.282 -0.225,-0.625 0.042,-0.86c0.218,-0.192 0.451,-0.379 0.707,-0.51c0.23,-0.118 0.25,-0.279 0.224,-0.485c-0.015,-0.117 -0.034,-0.235 -0.063,-0.349c-0.173,-0.695 0.063,-1.347 0.18,-2.017c0.064,-0.367 0.03,-0.776 -0.062,-1.14c-0.24,-0.951 -0.664,-1.82 -1.322,-2.563c-0.071,-0.081 -0.127,-0.175 -0.194,-0.259c-0.184,-0.231 -0.385,-0.398 -0.679,-0.158c-0.017,0.013 -0.036,0.032 -0.055,0.033c-0.39,0.009 -0.779,0.018 -1.154,0.155c-0.056,0.02 -0.189,-0.042 -0.213,-0.098c-0.023,-0.054 0.029,-0.194 0.083,-0.218c0.394,-0.172 0.671,-0.53 1.168,-0.557c0.928,-0.049 1.648,-0.505 2.126,-1.33c0.23,-0.396 0.413,-0.775 0.262,-1.25c-0.058,-0.183 -0.004,-0.351 0.214,-0.453c0.09,-0.042 0.184,-0.229 0.164,-0.327c-0.081,-0.388 -0.198,-0.77 -0.322,-1.147c-0.026,-0.078 -0.131,-0.17 -0.211,-0.183c-0.29,-0.046 -0.584,-0.06 -0.878,-0.086c-0.478,-1.467 -0.949,-2.929 -1.436,-4.385c-0.049,-0.146 -0.175,-0.307 -0.309,-0.376c-1.715,-0.879 -3.441,-1.738 -5.159,-2.61c-0.645,-0.328 -1.279,-0.678 -1.948,-1.034c0.274,-0.315 0.44,-0.689 0.384,-1.131c-0.129,-1.028 -0.296,-2.045 -0.525,-3.06c-0.178,-0.788 -0.728,-1 -1.311,-1.276c-0.327,-0.155 -0.644,-0.332 -0.959,-0.51c-0.058,-0.033 -0.127,-0.121 -0.123,-0.179c0.034,-0.443 0.024,-0.903 0.147,-1.322c0.156,-0.533 0.237,-1.371 -0.342,-1.797c-0.329,-0.242 -0.468,-0.56 -0.413,-0.973c0.134,-0.997 -0.31,-1.788 -0.977,-2.452c-0.29,-0.288 -0.709,-0.445 -1.067,-0.667c-0.339,-0.21 -0.699,-0.396 -1.004,-0.648c-0.308,-0.253 -0.354,-0.75 -0.196,-1.106c0.183,-0.413 0.373,-0.825 0.518,-1.252c0.221,-0.651 0.094,-1.279 -0.367,-1.768c-0.442,-0.468 -0.381,-0.941 -0.225,-1.474c0.096,-0.329 0.174,-0.671 0.194,-1.011c0.064,-1.12 -0.026,-2.223 -0.526,-3.252c-0.192,-0.397 -0.409,-0.782 -0.619,-1.169c-0.316,-0.582 -0.344,-0.963 -0.04,-1.296c0.34,-0.372 0.788,-0.608 1.285,-0.698c0.342,-0.062 0.696,-0.067 1.045,-0.073c0.482,-0.008 0.672,0.142 0.793,0.624c0.165,0.658 0.579,1.197 0.845,1.803c0.374,0.852 1.132,1.095 1.896,1.35c0.416,0.139 0.847,0.237 1.275,0.336c0.862,0.2 1.491,0.719 1.948,1.447c0.429,0.684 1.004,1.189 1.737,1.504c0.381,0.163 0.771,0.255 1.219,0.189c1.03,-0.152 1.943,0.213 2.762,0.819c0.216,0.16 0.208,0.483 -0,0.658c-0.456,0.384 -1.007,0.571 -1.577,0.696c-1.223,0.27 -2.469,0.159 -3.705,0.218c-0.704,0.034 -1.291,0.372 -1.769,0.952c-0.442,0.537 -0.496,1.137 -0.509,1.758c-0.015,0.669 0.023,1.341 0.066,2.009c0.009,0.134 0.115,0.305 0.228,0.383c0.488,0.336 0.998,0.639 1.494,0.965c0.17,0.112 0.32,0.256 0.533,0.43c-0.348,0.195 -0.651,0.349 -0.938,0.529c-0.273,0.173 -0.544,0.356 -0.788,0.566c-0.216,0.185 -0.253,0.429 -0.11,0.696c0.096,0.18 0.139,0.393 0.255,0.556c0.105,0.148 0.257,0.31 0.421,0.361c1.056,0.329 2.121,0.63 3.183,0.94c0.061,0.018 0.12,0.042 0.206,0.073c0.271,-0.435 0.548,-0.87 0.816,-1.311c0.282,-0.463 0.445,-0.524 0.948,-0.308c0.337,0.145 0.661,0.322 1.002,0.456c0.292,0.115 0.307,0.288 0.187,0.534c-0.154,0.318 -0.344,0.629 -0.431,0.965c-0.054,0.208 0.058,0.457 0.091,0.688c0.04,0.277 0.234,0.357 0.474,0.442c0.577,0.205 1.147,0.435 1.704,0.688c0.187,0.085 0.308,0.048 0.469,-0.029c0.601,-0.289 1.202,-0.579 1.815,-0.841c0.422,-0.18 0.822,0.028 0.999,0.477c0.106,0.27 0.259,0.531 0.309,0.811c0.125,0.699 -0.366,1.021 -0.875,1.322c-0.203,0.12 -0.431,0.232 -0.577,0.406c-0.101,0.121 -0.164,0.38 -0.102,0.512c0.179,0.38 0.522,0.535 0.827,0.497c0.464,-0.057 0.931,-0.092 1.397,-0.133c0.156,-0.014 0.324,-0.059 0.468,-0.021c0.236,0.063 0.405,0.209 0.476,0.48c0.064,0.246 0.235,0.463 0.309,0.708c0.178,0.585 0.632,0.763 1.156,0.746c0.393,-0.013 0.593,0.206 0.768,0.463c0.137,0.201 0.27,0.19 0.485,0.193c0.476,0.008 0.605,-0.262 0.663,-0.645c0.005,-0.031 0.039,-0.057 0.043,-0.087c0.105,-0.989 0.958,-0.921 1.602,-1.099c1.088,-0.301 2.193,-0.541 3.289,-0.815c0.47,-0.117 0.592,-0.438 0.313,-0.871c-0.148,-0.23 -0.367,-0.412 -0.544,-0.625c-0.332,-0.401 -0.66,-0.807 -0.983,-1.215c-0.14,-0.177 -0.301,-0.349 -0.393,-0.551c-0.169,-0.371 -0.055,-0.749 0.088,-1.099c0.203,-0.498 0.444,-0.98 0.667,-1.47c0.018,-0.039 0.035,-0.084 0.033,-0.125c-0.014,-0.301 0.038,-0.625 0.332,-0.72c0.35,-0.113 0.711,0.003 0.992,0.27c0.545,0.519 1.106,1.022 1.623,1.568c0.406,0.429 0.884,0.601 1.451,0.597c0.276,-0.002 0.555,0.014 0.827,-0.022c0.401,-0.053 0.731,-0.252 0.985,-0.575c0.453,-0.575 1.089,-0.72 1.774,-0.732c0.476,-0.008 0.952,-0.009 1.428,0c0.671,0.013 1.188,-0.268 1.582,-0.797c0.187,-0.251 0.107,-0.538 -0.133,-0.751c-0.812,-0.72 -1.648,-1.419 -2.391,-2.206c-0.348,-0.369 -0.671,-0.863 -0.543,-1.48c0.457,-0.031 0.879,-0.025 1.304,0.206c0.654,0.355 1.352,0.625 2.016,0.964c0.779,0.397 1.543,0.824 2.307,1.247c0.636,0.352 1.065,0.119 1.507,-0.197c0.405,-0.29 0.759,-0.652 1.166,-0.937c0.128,-0.089 0.382,-0.09 0.534,-0.026c0.136,0.057 0.299,0.262 0.296,0.399c-0.023,0.928 -0.26,1.806 -0.894,2.505c-0.276,0.304 -0.669,0.506 -1.02,0.739c-0.305,0.203 -0.646,0.355 -0.932,0.58c-0.468,0.369 -0.609,0.997 -0.273,1.421c0.372,0.469 0.345,0.508 0.843,0.176c0.255,-0.17 0.318,0.08 0.534,0.175c-0.272,0.291 -0.519,0.557 -0.799,0.857c0.37,0.285 0.736,0.564 1.099,0.848c0.862,0.674 1.723,1.349 2.584,2.025c0.426,0.335 0.848,0.675 1.277,1.006c0.065,0.05 0.165,0.093 0.241,0.083c0.533,-0.076 0.819,0.236 0.997,0.661c0.14,0.335 0.405,0.535 0.682,0.704c0.375,0.23 0.78,0.415 1.186,0.587c0.122,0.052 0.304,0.035 0.433,-0.016c0.711,-0.28 1.421,-0.565 2.114,-0.887c0.142,-0.066 0.264,-0.282 0.301,-0.449c0.197,-0.894 0.364,-1.794 0.542,-2.692c0.091,-0.462 0.682,-1.018 1.399,-0.725c0.556,0.227 1.119,0.444 1.695,0.613c0.786,0.231 1.56,0.067 2.28,-0.26c0.335,-0.152 0.57,-0.461 0.543,-0.896c-0.023,-0.364 -0.002,-0.73 -0.009,-1.096c-0.006,-0.259 0.071,-0.505 0.321,-0.567c0.247,-0.061 0.559,-0.095 0.775,0.005c0.413,0.192 0.756,0.533 1.168,0.731c0.697,0.336 1.55,0.057 1.976,-0.684c0.284,-0.494 0.466,-1.054 0.638,-1.602c0.164,-0.521 0.52,-0.83 0.995,-0.984c0.848,-0.275 1.721,-0.475 2.569,-0.749c0.438,-0.141 0.873,-0.333 1.258,-0.582c0.175,-0.113 0.264,-0.409 0.325,-0.639c0.135,-0.509 0.227,-1.029 0.339,-1.575Z" style="fill:#4ade80;fill-rule:nonzero;stroke:#22c55e;stroke-width:1px;"/></svg>