<?xml version="1.0" encoding="UTF-8" standalone="no"?><!DOCTYPE svg PUBLIC "-//W3C//DTD SVG 1.1//EN" "http://www.w3.org/Graphics/SVG/1.1/DTD/svg11.dtd"><svg width="100%" height="100%" viewBox="0 0 100 100" version="1.1" xmlns="http://www.w3.org/2000/svg" xmlns:xlink="http://www.w3.org/1999/xlink" xml:space="preserve" xmlns:serif="http://www.serif.com/" style="fill-rule:evenodd;clip-rule:evenodd;stroke-linejoin:round;stroke-miterlimit:2;"><rect id="_15_miyagi_katsurajima" serif:id="15_miyagi_katsurajima" x="0" y="0" width="100" height="100" style="fill:none;"/><path d="M25.271,52.53c-1.126,0.569 -2.233,1.113 -3.317,1.701c-1.173,0.636 -2.323,1.314 -3.483,1.973c-0.235,0.133 -0.472,0.263 -0.708,0.394c-0.386,0.213 -0.422,0.347 -0.133,0.848c-0.246,0.003 -0.434,0.037 -0.608,0.002c-0.475,-0.095 -0.943,-0.3 -1.417,-0.312c-0.557,-0.014 -0.875,-0.328 -1.149,-0.699c-0.611,-0.826 -1.119,-1.735 -1.784,-2.512c-0.529,-0.619 -1.195,-1.138 -1.862,-1.615c-0.413,-0.296 -0.7,-0.611 -0.83,-1.098c-0.096,-0.358 -0.28,-0.694 -0.36,-1.054c-0.163,-0.74 -0.63,-1.121 -1.321,-1.362c-0.574,-0.199 -1.189,-0.431 -1.316,-1.156c-0.038,-0.218 0.005,-0.451 0.015,-0.677c0.024,-0.521 0.054,-1.042 0.075,-1.563c0.01,-0.236 0.045,-0.481 -0.002,-0.708c-0.083,-0.401 -0.343,-0.644 -0.766,-0.714c-0.899,-0.148 -1.791,-0.334 -2.693,-0.463c-0.667,-0.095 -0.846,-0.569 -1.005,-1.107c-0.129,-0.439 0.121,-0.744 0.373,-0.997c0.702,-0.706 1.08,-1.549 1.071,-2.525c-0.005,-0.487 -0.145,-0.989 -0.309,-1.455c-0.187,-0.532 -0.456,-1.038 -0.71,-1.544c-0.165,-0.329 -0.049,-0.516 0.251,-0.65c0.139,-0.062 0.282,-0.119 0.411,-0.198c0.484,-0.295 0.97,-0.315 1.471,-0.044c0.329,0.179 0.711,0.293 0.987,0.531c0.515,0.443 1.039,0.904 1.437,1.447c0.924,1.258 1.969,1.477 3.337,1.215c0.693,-0.133 1.395,-0.223 2.081,-0.385c0.458,-0.108 0.897,-0.304 1.342,-0.467c0.71,-0.259 1.409,-0.551 2.13,-0.776c0.651,-0.203 1.08,-0.522 1.281,-1.237c0.453,-1.616 0.999,-3.206 1.506,-4.807c0.039,-0.122 0.092,-0.244 0.103,-0.368c0.07,-0.862 0.776,-1.022 1.397,-1.271c0.428,-0.171 0.875,-0.301 1.29,-0.497c0.222,-0.105 0.332,-0.02 0.424,0.128c0.738,1.175 1.464,2.357 2.202,3.533c0.464,0.74 0.948,1.467 1.411,2.208c0.142,0.227 0.327,0.134 0.472,0.072c0.733,-0.312 1.454,-0.649 2.184,-0.969c0.559,-0.245 1.123,-0.479 1.685,-0.717c0.025,0.034 0.051,0.068 0.076,0.102c-0.096,0.104 -0.182,0.222 -0.291,0.311c-0.51,0.416 -1.041,0.808 -1.537,1.24c-0.63,0.548 -1.237,1.122 -1.847,1.693c-0.121,0.114 -0.244,0.246 -0.307,0.395c-0.044,0.105 -0.033,0.284 0.031,0.374c0.307,0.43 0.691,0.617 1.248,0.439c1,-0.319 2.036,-0.534 3.017,-0.899c0.526,-0.195 0.966,-0.617 1.451,-0.927c0.393,-0.251 0.688,-0.66 1.237,-0.663c0.165,-0.001 0.33,-0.228 0.492,-0.355c0.221,-0.173 0.438,-0.35 0.634,-0.507c0.316,0.244 0.556,0.561 0.854,0.631c0.573,0.134 1.187,0.21 1.77,0.155c0.562,-0.053 1.106,-0.302 1.658,-0.463c0.536,-0.156 0.783,-0.601 1.085,-1.018c0.278,-0.382 0.653,-0.694 0.983,-1.038c0.254,-0.264 0.515,-0.174 0.717,0.036c0.462,0.482 0.917,0.975 1.333,1.497c0.183,0.229 0.378,0.341 0.652,0.416c0.831,0.227 1.645,0.326 2.443,-0.109c0.19,-0.103 0.385,-0.199 0.586,-0.279c0.071,-0.028 0.181,-0.022 0.243,0.016c0.045,0.028 0.082,0.167 0.054,0.202c-0.269,0.339 -0.079,0.655 0.009,0.99c0.1,0.38 0.445,0.498 0.676,0.739c0.857,0.893 2.049,0.876 3.126,1.162c0.395,0.105 0.814,0.128 1.224,0.164c0.363,0.032 0.337,0.226 0.204,0.452c-0.085,0.143 -0.207,0.267 -0.325,0.387c-0.367,0.373 -0.343,0.608 0.1,0.906c0.767,0.517 1.52,1.055 2.303,1.547c0.539,0.339 1.11,0.631 1.683,0.91c0.32,0.156 0.665,0.284 1.013,0.353c0.361,0.072 0.698,-0.06 0.988,-0.304c0.427,-0.358 0.635,-0.841 0.803,-1.35c0.02,-0.061 -0,-0.145 0.034,-0.189c0.113,-0.145 0.233,-0.371 0.37,-0.386c0.143,-0.016 0.35,0.144 0.46,0.282c0.66,0.829 1.021,1.798 1.278,2.814c0.066,0.26 0.092,0.583 0.26,0.753c0.239,0.241 0.576,0.469 0.901,0.525c0.941,0.162 1.897,0.243 2.849,0.342c0.414,0.043 0.834,0.041 1.248,0.082c0.89,0.089 1.663,-0.327 2.46,-0.593c0.81,-0.271 1.572,-0.685 2.373,-0.989c0.317,-0.12 0.682,-0.143 1.026,-0.152c0.431,-0.011 0.624,0.376 0.868,0.641c0.34,0.37 0.649,0.771 0.944,1.178c0.088,0.122 0.114,0.309 0.119,0.467c0.016,0.448 -0.01,0.897 0.019,1.344c0.006,0.094 0.164,0.213 0.277,0.258c0.951,0.383 1.907,0.754 2.863,1.124c0.765,0.296 1.544,0.559 2.297,0.885c0.384,0.166 0.706,0.114 1.028,-0.083c0.574,-0.35 0.829,-0.32 1.183,0.253c0.247,0.4 0.438,0.835 0.637,1.263c0.138,0.297 0.366,0.441 0.676,0.496c0.365,0.065 0.729,0.141 1.092,0.217c0.524,0.109 0.838,0.491 1.125,0.895c0.291,0.411 0.715,0.538 1.177,0.634c0.521,0.107 1.044,0.228 1.546,0.402c0.305,0.105 0.301,0.399 0.075,0.579c-0.435,0.347 -0.472,0.79 -0.47,1.293c0.002,1.009 -0.039,2.019 -0.071,3.028c-0.018,0.561 -0.065,1.122 -0.068,1.683c-0.001,0.147 0.086,0.318 0.183,0.436c0.585,0.717 1.38,1.168 2.139,1.664c0.129,0.084 0.303,0.174 0.344,0.299c0.047,0.144 0.029,0.421 -0.063,0.48c-0.318,0.204 -0.676,0.348 -1.028,0.494c-0.213,0.089 -0.333,0.188 -0.327,0.454c0.018,0.805 0.022,1.611 0.413,2.344c0.338,0.636 0.852,0.979 1.604,1.018c0.368,0.019 0.752,0.18 1.086,0.358c1.126,0.599 2.31,0.902 3.586,0.809c0.316,-0.023 0.628,-0.042 0.884,-0.308c0.303,-0.314 0.71,-0.18 1.016,-0.031c0.141,0.069 0.15,0.43 0.193,0.663c0.014,0.076 -0.026,0.206 -0.086,0.246c-0.375,0.251 -0.338,0.714 -0.557,1.036c-0.271,0.4 -0.525,0.861 -0.904,1.13c-0.8,0.568 -1.748,0.857 -2.718,0.96c-0.425,0.045 -0.875,-0.155 -1.316,-0.227c-0.141,-0.023 -0.324,-0.043 -0.432,0.025c-0.356,0.226 -0.679,0.503 -1.03,0.739c-0.143,0.096 -0.326,0.197 -0.486,0.19c-0.569,-0.025 -1.146,-0.045 -1.699,-0.166c-0.411,-0.09 -0.746,-0.393 -0.97,-0.765c-0.163,-0.27 -0.269,-0.575 -0.431,-0.845c-0.055,-0.092 -0.21,-0.185 -0.312,-0.177c-0.281,0.02 -0.557,0.121 -0.838,0.138c-0.339,0.021 -0.703,0.057 -1.016,-0.04c-0.377,-0.118 -0.735,-0.338 -1.062,-0.569c-0.54,-0.382 -1.058,-0.795 -1.567,-1.218c-0.556,-0.463 -1.144,-0.906 -1.614,-1.448c-0.285,-0.328 -0.758,-0.513 -0.852,-1.01c-0.012,-0.064 -0.155,-0.094 -0.196,-0.165c-0.105,-0.181 -0.186,-0.375 -0.276,-0.564c-0.026,-0.055 -0.035,-0.125 -0.076,-0.164c-0.186,-0.181 -0.415,-0.34 -0.233,-0.651c-0.374,-0.295 -0.201,-0.933 -0.732,-1.149c-0.114,-0.046 -0.138,-0.282 -0.238,-0.4c-0.18,-0.211 -0.38,-0.408 -0.586,-0.595c-0.262,-0.238 -0.539,-0.457 -0.807,-0.689c-0.114,-0.098 -0.216,-0.209 -0.327,-0.311c-0.047,-0.044 -0.109,-0.073 -0.153,-0.119c-0.292,-0.317 -0.582,-0.636 -0.87,-0.956c-0.014,-0.016 0.001,-0.072 -0.009,-0.075c-0.752,-0.236 -0.821,-1.31 -1.723,-1.384c-0.346,-0.028 -0.688,-0.272 -1.02,-0.249c-0.417,0.028 -0.852,0.171 -1.226,0.368c-0.567,0.299 -1.132,0.406 -1.768,0.344c-0.508,-0.05 -1.002,-0.172 -1.342,-0.515c-0.322,-0.325 -0.883,-0.466 -0.923,-1.043c-0.533,-0.146 -0.198,-0.876 -0.701,-1.043c-0.021,-0.007 -0.052,-0.042 -0.049,-0.058c0.092,-0.437 -0.374,-0.777 -0.203,-1.245c0.043,-0.117 -0.088,-0.334 -0.191,-0.462c-0.202,-0.251 -0.42,-0.497 -0.67,-0.697c-0.19,-0.152 -0.43,-0.302 -0.662,-0.328c-0.762,-0.088 -1.53,-0.139 -2.297,-0.168c-0.869,-0.033 -1.673,0.252 -2.465,0.573c-0.06,0.024 -0.114,0.063 -0.174,0.087c-0.415,0.166 -0.637,0.041 -0.723,-0.39c-0.156,-0.78 -0.278,-1.569 -0.491,-2.333c-0.184,-0.658 -0.731,-1.038 -1.301,-1.366c-1.025,-0.59 -2.124,-1.026 -3.29,-1.137c-0.887,-0.085 -1.798,0.04 -2.695,0.11c-0.668,0.053 -1.334,0.145 -1.994,0.262c-0.617,0.11 -1.24,0.229 -1.833,0.425c-0.959,0.318 -1.89,0.716 -2.845,1.049c-0.194,0.068 -0.473,0.067 -0.651,-0.024c-0.643,-0.331 -1.285,-0.336 -1.954,-0.126c-0.356,0.112 -0.613,-0.084 -0.722,-0.372c-0.055,-0.143 0.08,-0.388 0.186,-0.55c0.049,-0.076 0.241,-0.046 0.353,-0.096c0.111,-0.049 0.205,-0.139 0.306,-0.211c-0.071,-0.095 -0.122,-0.227 -0.217,-0.28c-0.397,-0.218 -0.789,-0.471 -1.216,-0.602c-0.632,-0.194 -1.291,-0.247 -1.958,-0.102c-0.327,0.071 -0.671,0.078 -1.008,0.091c-0.816,0.032 -1.605,0.17 -2.4,0.378c-1.884,0.494 -3.654,1.276 -5.441,2.021c-1.479,0.617 -2.952,1.247 -4.458,1.877Z" style="fill:#4ade80;fill-rule:nonzero;stroke:#22c55e;stroke-width:1px;"/></svg>