<?xml version="1.0" encoding="UTF-8" standalone="no"?><!DOCTYPE svg PUBLIC "-//W3C//DTD SVG 1.1//EN" "http://www.w3.org/Graphics/SVG/1.1/DTD/svg11.dtd"><svg width="100%" height="100%" viewBox="0 0 100 100" version="1.1" xmlns="http://www.w3.org/2000/svg" xmlns:xlink="http://www.w3.org/1999/xlink" xml:space="preserve" xmlns:serif="http://www.serif.com/" style="fill-rule:evenodd;clip-rule:evenodd;stroke-linejoin:round;stroke-miterlimit:2;"><rect id="_16_miyagi_hoojima" serif:id="16_miyagi_hoojima" x="0" y="0" width="100" height="100" style="fill:none;"/><path d="M9.084,23.487c-0.025,-1.011 -0.033,-1.994 -0.085,-2.974c-0.014,-0.274 -0.114,-0.563 -0.246,-0.807c-0.533,-0.987 -1.278,-1.811 -2.114,-2.545c-0.278,-0.244 -0.66,-0.366 -0.988,-0.556c-0.427,-0.247 -0.87,-0.474 -1.263,-0.768c-0.647,-0.483 -0.735,-1.969 -0.025,-2.527c0.475,-0.373 0.791,-0.893 0.998,-1.478c0.168,-0.476 0.391,-0.933 0.582,-1.402c0.148,-0.362 0.143,-0.69 -0.109,-1.036c-0.603,-0.826 -1.17,-1.678 -1.751,-2.52c-0.054,-0.078 -0.121,-0.156 -0.145,-0.243c-0.087,-0.326 -0.244,-0.58 -0.543,-0.77c-0.13,-0.083 -0.179,-0.299 -0.253,-0.46c-0.139,-0.3 -0.26,-0.6 -0.678,-0.612c-0.097,-0.003 -0.238,-0.154 -0.273,-0.264c-0.071,-0.224 -0.084,-0.467 -0.126,-0.74c0.341,0.064 0.475,-0.11 0.584,-0.333c0.154,-0.312 0.309,-0.624 0.481,-0.926c0.07,-0.123 0.165,-0.261 0.285,-0.318c0.116,-0.056 0.306,-0.065 0.41,-0.005c0.079,0.046 0.131,0.252 0.098,0.357c-0.176,0.566 0.081,0.89 0.546,1.161c0.482,0.281 0.969,0.572 1.393,0.931c0.716,0.607 1.511,0.733 2.4,0.58c0.309,-0.053 0.63,-0.047 0.945,-0.04c0.314,0.007 0.44,0.151 0.42,0.457c-0.019,0.284 -0.058,0.566 -0.095,0.848c-0.088,0.676 0.147,0.923 0.826,0.869c0.242,-0.019 0.485,-0.022 0.728,-0.032c0.284,-0.012 0.411,0.154 0.333,0.397c-0.102,0.317 -0.281,0.608 -0.405,0.918c-0.064,0.162 -0.082,0.342 -0.121,0.513c0.184,0.03 0.378,0.11 0.551,0.078c0.34,-0.063 0.666,-0.2 1.003,-0.284c0.777,-0.192 1.244,0.16 1.192,0.949c-0.03,0.455 -0.143,0.914 -0.282,1.351c-0.197,0.622 -0.166,0.86 0.365,1.214c0.878,0.586 1.411,1.399 1.683,2.405c0.125,0.463 0.221,0.522 0.688,0.522c0.275,-0 0.55,-0.01 0.824,0.001c0.548,0.021 0.774,0.239 0.773,0.781c-0.001,0.367 -0.02,0.74 -0.087,1.1c-0.061,0.328 0.029,0.584 0.238,0.812c0.185,0.203 0.382,0.394 0.581,0.584c0.492,0.471 0.755,1.037 0.694,1.724c-0.061,0.69 0.201,1.182 0.779,1.574c0.962,0.652 1.928,1.276 3.028,1.689c0.349,0.131 0.615,0.494 0.907,0.765c0.138,0.128 0.243,0.292 0.368,0.435c0.36,0.412 0.799,0.673 1.362,0.594c1.127,-0.159 2.248,-0.366 3.376,-0.51c2.588,-0.331 5.013,-1.223 7.432,-2.13c1.213,-0.455 2.441,-0.908 3.576,-1.523c1.302,-0.706 2.582,-1.488 3.605,-2.601c0.228,-0.248 0.222,-0.542 0.125,-0.832c-0.08,-0.238 -0.175,-0.481 -0.313,-0.689c-0.833,-1.247 -0.598,-2.407 0.245,-3.537c0.191,-0.256 0.416,-0.43 0.719,-0.535c1.257,-0.436 1.341,-0.541 1.065,-1.83c-0.258,-1.203 -0.311,-2.401 -0.128,-3.614c0.002,-0.01 -0.001,-0.022 0.003,-0.031c0.406,-0.987 0.612,-2.07 1.313,-2.916c0.207,-0.249 0.527,-0.408 0.805,-0.594c0.386,-0.257 0.765,-0.53 1.175,-0.744c0.611,-0.319 1.42,-0.103 1.854,0.431c0.556,0.684 0.83,1.512 1.188,2.297c0.179,0.393 0.319,0.804 0.464,1.211c0.185,0.519 0.295,1.048 0.295,1.608c0.001,1.277 -0.006,2.556 0.067,3.829c0.065,1.126 0.582,1.529 1.447,1.712c2.738,0.578 5.496,0.894 8.297,0.814c1.605,-0.046 2.955,-0.646 4.045,-1.809c0.526,-0.561 0.994,-1.176 1.493,-1.762c0.546,-0.641 1.178,-1.157 2.044,-1.282c0.743,-0.107 1.446,-0.026 2.066,0.468c0.387,0.308 0.538,0.745 0.736,1.162c0.103,0.218 0.171,0.467 0.32,0.648c0.446,0.541 0.513,1.168 0.371,1.798c-0.392,1.738 -0.735,3.496 -1.281,5.187c-0.518,1.605 -1.582,2.806 -3.34,3.19c-0.349,0.076 -0.566,0.256 -0.716,0.587c-0.913,2.012 -2.083,3.884 -3.191,5.789c-0.542,0.933 -0.732,1.903 -0.415,2.947c0.381,1.25 0.707,2.522 1.176,3.739c0.48,1.246 1.309,2.231 2.533,2.882c1.34,0.712 2.792,0.999 4.249,1.289c1.583,0.315 3.166,0.628 4.676,1.217c0.314,0.122 0.611,0.286 0.918,0.426c0.878,0.401 1.774,0.638 2.759,0.454c1.998,-0.374 4.004,-0.703 6.001,-1.082c0.317,-0.06 0.622,-0.256 0.897,-0.442c0.401,-0.272 0.555,-0.817 0.38,-1.272c-0.189,-0.492 -0.389,-0.981 -0.616,-1.456c-0.469,-0.979 -0.016,-1.889 0.763,-2.454c0.69,-0.5 1.442,-0.376 2.193,-0.238c1.324,0.243 2.493,0.84 3.564,1.633c0.11,0.082 0.16,0.284 0.182,0.438c0.045,0.312 0.029,0.633 0.082,0.943c0.066,0.39 0.258,0.716 0.631,0.898c1.072,0.524 1.562,1.457 1.91,2.545c0.271,0.848 0.639,1.673 1.041,2.47c0.345,0.685 0.396,1.314 0.09,2.025c-0.166,0.386 -0.156,0.845 -0.252,1.265c-0.107,0.469 -0.225,0.937 -0.377,1.393c-0.127,0.38 -0.44,0.547 -0.834,0.57c-1.012,0.058 -2.024,0.11 -3.035,0.179c-0.6,0.041 -1.11,0.285 -1.629,0.611c-0.917,0.575 -1.894,1.06 -2.87,1.535c-2.056,1.003 -4.158,1.917 -6.179,2.985c-0.977,0.516 -1.83,1.276 -2.713,1.959c-1.612,1.247 -3.206,2.516 -4.8,3.785c-0.119,0.095 -0.233,0.254 -0.259,0.4c-0.324,1.827 -0.632,3.657 -0.941,5.487c-0.114,0.676 -0.212,1.355 -0.332,2.03c-0.023,0.13 -0.096,0.256 -0.168,0.37c-0.977,1.555 -1.961,3.105 -2.932,4.664c-0.121,0.194 -0.225,0.23 -0.429,0.138c-0.336,-0.151 -0.691,-0.261 -1.028,-0.41c-0.206,-0.09 -0.361,-0.102 -0.461,0.132c-0.132,0.311 -0.34,0.314 -0.633,0.211c-0.597,-0.21 -1.013,-0.023 -1.284,0.537c-0.17,0.351 -0.371,0.695 -0.476,1.065c-0.08,0.281 -0.075,0.606 -0.026,0.898c0.065,0.393 0.298,0.535 0.703,0.531c0.042,-0 0.087,0.003 0.126,-0.009c0.733,-0.212 1.184,0.233 1.543,0.737c1.119,1.571 2.476,2.937 3.715,4.404c0.635,0.752 1.231,1.53 1.296,2.581c0.084,1.364 -0.002,2.702 -0.552,3.974c-0.372,0.86 -0.747,1.719 -1.148,2.566c-0.424,0.895 -1.121,1.59 -1.828,2.248c-0.991,0.924 -2.093,1.729 -3.365,2.217c-0.729,0.28 -1.525,0.404 -2.301,0.541c-1.766,0.311 -3.535,0.607 -5.308,0.87c-1.445,0.214 -2.898,0.274 -4.354,0.071c-0.93,-0.13 -1.862,-0.241 -2.792,-0.376c-0.146,-0.021 -0.281,-0.122 -0.42,-0.187c-0.103,-0.047 -0.201,-0.118 -0.308,-0.14c-1.034,-0.205 -2.069,-0.402 -3.105,-0.598c-0.071,-0.013 -0.152,-0.02 -0.219,0.001c-1.025,0.323 -2.072,0.216 -3.111,0.142c-0.549,-0.039 -1.068,-0.031 -1.571,0.22c-0.55,0.274 -1.123,0.379 -1.748,0.282c-0.423,-0.066 -0.868,-0.061 -1.296,-0.019c-1.239,0.121 -2.388,-0.223 -3.513,-0.661c-0.933,-0.363 -1.841,-0.789 -2.766,-1.174c-0.412,-0.171 -0.63,-0.405 -0.61,-0.903c0.025,-0.637 0.057,-1.261 0.253,-1.873c0.034,-0.106 -0.013,-0.313 -0.095,-0.37c-0.827,-0.575 -1.459,-1.338 -2.093,-2.104c-0.369,-0.446 -0.772,-0.867 -1.183,-1.276c-0.314,-0.312 -0.562,-0.651 -0.706,-1.071c-0.137,-0.399 -0.28,-0.796 -0.443,-1.184c-0.08,-0.19 -0.204,-0.363 -0.321,-0.535c-0.338,-0.492 -0.692,-0.974 -1.02,-1.472c-0.156,-0.236 -0.273,-0.499 -0.4,-0.754c-0.158,-0.319 -0.284,-0.657 -0.466,-0.961c-0.249,-0.414 -0.533,-0.807 -0.812,-1.202c-0.346,-0.49 -0.712,-0.966 -1.048,-1.462c-0.127,-0.189 -0.244,-0.327 -0.494,-0.319c-0.156,0.005 -0.323,-0.015 -0.467,-0.069c-0.124,-0.046 -0.223,-0.157 -0.333,-0.239c0.089,-0.092 0.163,-0.211 0.269,-0.273c0.377,-0.219 0.421,-0.479 0.111,-0.777c-0.038,-0.036 -0.086,-0.062 -0.159,-0.113c0.279,-0.302 0.604,-0.475 0.946,-0.408c0.82,0.161 1.398,-0.162 1.911,-0.758c0.287,-0.334 0.685,-0.508 1.127,-0.594c0.697,-0.136 1.374,-0.346 1.95,-0.783c0.135,-0.102 0.257,-0.255 0.322,-0.41c0.122,-0.293 0.302,-0.504 0.602,-0.606c0.459,-0.157 0.753,-0.456 0.987,-0.895c1.803,-3.39 3.63,-6.768 5.458,-10.146c0.123,-0.227 0.109,-0.357 -0.123,-0.475c-0.15,-0.076 -0.275,-0.204 -0.429,-0.267c-0.79,-0.328 -1.432,-0.835 -1.95,-1.517c-0.106,-0.139 -0.304,-0.238 -0.479,-0.289c-1.412,-0.412 -2.316,-1.399 -3.046,-2.609c-0.392,-0.65 -0.641,-1.317 -0.591,-2.092c0.031,-0.483 -0.012,-0.971 -0.013,-1.457c-0.001,-0.417 -0.131,-0.785 -0.381,-1.117c-0.559,-0.742 -1.245,-1.336 -2.025,-1.843c-0.661,-0.429 -1.303,-0.899 -1.9,-1.413c-1.219,-1.05 -2.512,-1.993 -3.869,-2.854c-0.82,-0.52 -1.608,-1.091 -2.44,-1.591c-1.062,-0.638 -1.817,-1.538 -2.35,-2.629c-0.377,-0.772 -0.799,-1.51 -1.339,-2.177c-0.202,-0.25 -0.16,-0.444 0.018,-0.703c0.222,-0.323 0.414,-0.685 0.535,-1.057c0.221,-0.681 0.374,-1.384 0.565,-2.075c0.263,-0.953 0.253,-1.919 0.161,-2.89c-0.031,-0.325 -0.166,-0.593 -0.424,-0.818c-0.48,-0.418 -0.565,-1.044 -0.771,-1.602c-0.065,-0.176 -0.107,-0.367 -0.124,-0.555c-0.061,-0.683 -0.501,-1.044 -1.057,-1.351c-1.56,-0.862 -3.107,-1.747 -4.659,-2.624c-0.373,-0.211 -0.608,-0.531 -0.783,-0.922c-0.32,-0.716 -0.482,-1.459 -0.48,-2.27Z" style="fill:#4ade80;fill-rule:nonzero;stroke:#22c55e;stroke-width:1px;"/></svg>