<?xml version="1.0" encoding="UTF-8" standalone="no"?><!DOCTYPE svg PUBLIC "-//W3C//DTD SVG 1.1//EN" "http://www.w3.org/Graphics/SVG/1.1/DTD/svg11.dtd"><svg width="100%" height="100%" viewBox="0 0 100 100" version="1.1" xmlns="http://www.w3.org/2000/svg" xmlns:xlink="http://www.w3.org/1999/xlink" xml:space="preserve" xmlns:serif="http://www.serif.com/" style="fill-rule:evenodd;clip-rule:evenodd;stroke-linejoin:round;stroke-miterlimit:2;"><rect id="_17_miyagi_miyatojima" serif:id="17_miyagi_miyatojima" x="0" y="0" width="100" height="100" style="fill:none;"/><path d="M95.817,76.089c0.055,0.559 0.369,0.955 0.826,1.236c0.356,0.219 0.771,0.353 1.102,0.602c0.493,0.371 0.953,0.796 1.175,1.404c0.034,0.094 0.056,0.203 0.044,0.3c-0.019,0.157 -0.09,0.263 -0.291,0.237c-0.357,-0.047 -0.645,-0.134 -0.802,-0.526c-0.194,-0.487 -0.474,-0.946 -0.985,-1.17c-0.206,-0.091 -0.45,-0.126 -0.678,-0.131c-0.412,-0.009 -0.745,-0.185 -1.09,-0.384c-0.365,-0.211 -0.756,-0.39 -1.156,-0.524c-0.151,-0.051 -0.362,0.046 -0.538,0.1c-0.295,0.091 -0.593,0.116 -0.811,-0.122c-0.235,-0.256 -0.546,-0.248 -0.833,-0.339c-0.246,-0.077 -0.499,-0.152 -0.721,-0.278c-0.355,-0.203 -0.715,-0.343 -1.13,-0.352c-0.259,-0.006 -0.52,-0.05 -0.774,-0.106c-0.633,-0.138 -1.244,0.175 -1.473,0.788c-0.078,0.207 -0.083,0.384 0.158,0.552c0.26,0.182 0.486,0.44 0.658,0.708c0.105,0.164 0.072,0.413 0.117,0.62c0.126,0.583 0.699,1.052 1.373,0.675c0.381,-0.213 0.753,-0.185 1.117,0.026c0.613,0.354 1.218,0.722 1.67,1.283c0.085,0.105 0.112,0.257 0.169,0.396c-0.588,0.155 -0.983,-0.164 -1.37,-0.419c-0.599,-0.395 -1.23,-0.409 -1.888,-0.269c-0.1,0.021 -0.266,0.185 -0.253,0.214c0.06,0.129 0.156,0.258 0.272,0.339c0.14,0.098 0.326,0.128 0.47,0.223c0.222,0.146 0.204,0.31 0.009,0.477c-0.159,0.136 -0.272,0.327 -0.434,0.459c-0.144,0.117 -0.325,0.189 -0.493,0.274c-0.12,0.061 -0.245,0.112 -0.42,0.19c0.144,0.137 0.234,0.244 0.344,0.324c0.27,0.195 0.36,0.817 0.096,1.003c-0.138,0.097 -0.388,0.108 -0.561,0.06c-0.115,-0.032 -0.224,-0.224 -0.262,-0.364c-0.039,-0.146 -0.01,-0.321 0.026,-0.475c0.04,-0.173 0.007,-0.256 -0.161,-0.347c-0.456,-0.248 -0.792,-0.046 -1.112,0.247c-0.144,0.132 -0.316,0.247 -0.453,0.074c-0.076,-0.097 -0.065,-0.329 -0.002,-0.455c0.158,-0.317 0.225,-0.643 0.273,-0.988c0.02,-0.148 0.178,-0.285 0.293,-0.409c0.06,-0.064 0.167,-0.081 0.244,-0.131c0.187,-0.124 0.188,-0.271 -0.025,-0.34c-0.261,-0.084 -0.543,-0.157 -0.814,-0.151c-0.635,0.014 -1.252,0.103 -1.806,0.486c-0.314,0.217 -0.689,0.353 -1.049,0.491c-0.122,0.047 -0.3,0.022 -0.425,-0.033c-0.172,-0.077 -0.241,-0.245 -0.058,-0.381c0.604,-0.453 1.125,-1.032 1.909,-1.212c0.228,-0.052 0.429,-0.214 0.648,-0.313c0.208,-0.095 0.335,-0.256 0.258,-0.467c-0.057,-0.156 -0.19,-0.325 -0.334,-0.399c-0.28,-0.141 -0.589,-0.212 -0.709,-0.563c-0.023,-0.067 -0.166,-0.11 -0.261,-0.133c-0.23,-0.055 -0.357,-0.161 -0.346,-0.425c0.015,-0.398 -0.516,-0.717 -0.877,-0.544c-0.216,0.103 -0.432,0.208 -0.691,0.334c-0.037,-0.184 -0.083,-0.315 -0.085,-0.446c-0.003,-0.223 -0.105,-0.31 -0.317,-0.295c-0.047,0.003 -0.1,-0.012 -0.142,0.003c-0.344,0.12 -0.485,-0.101 -0.607,-0.355c-0.069,-0.143 -0.138,-0.335 -0.33,-0.262c-0.206,0.079 -0.467,0.157 -0.436,0.473c0.012,0.12 0.028,0.24 0.051,0.359c0.058,0.299 -0.098,0.506 -0.301,0.685c-0.166,0.146 -0.338,0.242 -0.58,0.131c-0.276,-0.128 -0.294,-0.391 -0.305,-0.61c-0.031,-0.587 -0.322,-1.009 -0.751,-1.359c-0.275,-0.225 -0.89,-0.199 -1.183,0.025c-0.347,0.265 -0.737,0.49 -0.883,0.943c-0.046,0.141 -0.081,0.286 -0.175,0.433c-0.114,-0.434 -0.579,-0.746 -0.364,-1.277c0.079,-0.195 0.11,-0.414 0.133,-0.625c0.009,-0.079 -0.052,-0.223 -0.108,-0.238c-0.101,-0.028 -0.244,-0.014 -0.33,0.043c-0.14,0.093 -0.255,0.228 -0.367,0.358c-0.261,0.304 -0.642,0.302 -0.915,0.42c-0.109,-0.125 -0.166,-0.252 -0.254,-0.28c-0.234,-0.073 -0.393,0.076 -0.545,0.239c-0.209,0.226 -0.426,0.444 -0.654,0.649c-0.054,0.048 -0.168,0.028 -0.254,0.04c0.001,-0.066 -0.004,-0.132 0.003,-0.197c0.025,-0.235 -0.016,-0.43 -0.265,-0.532c-0.085,-0.035 -0.161,-0.094 -0.234,-0.152c-0.163,-0.131 -0.144,-0.264 0.03,-0.358c0.129,-0.069 0.28,-0.096 0.412,-0.161c0.084,-0.041 0.15,-0.118 0.225,-0.179c-0.049,-0.059 -0.088,-0.132 -0.148,-0.174c-0.283,-0.193 -0.572,-0.377 -0.883,-0.58c0.053,-0.216 0.285,-0.267 0.457,-0.377c0.184,-0.117 0.414,-0.176 0.467,-0.439c0.031,-0.155 0.012,-0.25 -0.155,-0.315c-0.114,-0.044 -0.289,-0.159 -0.283,-0.23c0.009,-0.127 0.11,-0.277 0.217,-0.361c0.542,-0.424 0.547,-0.425 0.008,-0.845c-0.242,-0.189 -0.503,-0.308 -0.801,-0.156c-0.442,0.227 -0.862,0.05 -1.275,-0.07c-0.797,-0.231 -1.513,-0.095 -2.058,0.289c-0.251,-0.091 -0.287,-0.276 -0.299,-0.526c-0.026,-0.551 -0.097,-1.1 -0.173,-1.646c-0.011,-0.077 -0.141,-0.148 -0.229,-0.2c-0.093,-0.056 -0.201,-0.087 -0.323,-0.138c0.045,-0.078 0.08,-0.148 0.123,-0.213c0.159,-0.242 0.138,-0.313 -0.115,-0.414c-0.233,-0.093 -0.462,-0.193 -0.695,-0.286c-0.149,-0.06 -0.274,-0.078 -0.362,0.117c-0.086,0.19 -0.209,0.24 -0.451,0.147c-0.913,-0.351 -1.833,-0.715 -2.846,-0.61c-0.549,0.057 -1.098,0.124 -1.646,0.187c0.009,0.132 0.076,0.331 0.016,0.383c-0.152,0.131 -0.353,0.241 -0.549,0.277c-0.249,0.046 -0.514,0.027 -0.77,0.006c-0.261,-0.021 -0.384,-0.229 -0.315,-0.48c0.045,-0.162 -0.034,-0.263 -0.187,-0.253c-0.269,0.019 -0.537,0.063 -0.802,0.112c-0.355,0.067 -0.71,0.139 -1.06,0.23c-0.112,0.029 -0.208,0.123 -0.311,0.187c-0.001,0.044 -0.001,0.088 -0.002,0.133c-0.093,-0.06 -0.213,-0.102 -0.273,-0.186c-0.092,-0.127 -0.16,-0.148 -0.32,-0.104c-0.689,0.192 -1.377,0.377 -1.974,0.793c-0.628,0.437 -1.173,0.963 -1.63,1.576c-0.042,0.056 -0.079,0.138 -0.074,0.204c0.024,0.286 0.094,0.571 0.095,0.857c0.002,0.661 0.243,1.138 0.881,1.411c0.392,0.167 0.754,0.406 1.124,0.622c0.053,0.031 0.1,0.109 0.105,0.169c0.003,0.033 -0.082,0.09 -0.136,0.109c-0.391,0.142 -0.767,0.156 -1.159,-0.044c-0.275,-0.141 -0.624,-0.149 -0.882,-0.31c-0.311,-0.195 -0.609,-0.089 -0.915,-0.112c-0.13,-0.01 -0.308,-0.097 -0.369,-0.203c-0.241,-0.419 -0.356,-0.445 -0.66,-0.087c-0.364,0.429 -0.879,0.568 -1.402,0.333c-0.587,-0.264 -1.18,-0.236 -1.787,-0.121c-1.004,0.191 -1.576,0.88 -2.013,1.728c-0.125,0.243 -0.019,0.391 0.183,0.54c0.555,0.411 1.12,0.814 1.632,1.275c0.313,0.283 0.544,0.662 0.787,1.015c0.033,0.048 -0.047,0.236 -0.123,0.288c-0.38,0.26 -0.809,0.322 -1.261,0.254c-0.492,-0.074 -0.982,-0.28 -1.48,-0.036c-0.131,0.064 -0.261,0.138 -0.377,0.227c-0.379,0.29 -0.624,0.23 -0.849,-0.18c-0.084,-0.153 -0.255,-0.254 -0.365,-0.396c-0.117,-0.153 -0.245,-0.314 -0.305,-0.492c-0.175,-0.52 -0.544,-0.871 -0.983,-1.147c-0.123,-0.077 -0.346,-0.05 -0.504,-0.005c-0.218,0.061 -0.33,0.017 -0.445,-0.183c-0.379,-0.654 -0.886,-1.196 -1.58,-1.516c-0.478,-0.221 -0.977,-0.4 -1.479,-0.561c-0.136,-0.044 -0.338,0.007 -0.469,0.084c-0.296,0.173 -0.606,0.14 -0.712,-0.185c-0.102,-0.314 -0.102,-0.663 -0.132,-0.998c-0.047,-0.527 0.249,-0.924 0.533,-1.318c0.324,-0.45 0.148,-0.637 -0.234,-0.873c-0.642,-0.397 -1.323,-0.73 -2.065,-0.88c-0.313,-0.063 -0.652,0.013 -0.98,0.013c-0.457,0 -0.839,-0.222 -1.208,-0.453c-0.069,-0.043 -0.093,-0.197 -0.096,-0.3c-0.014,-0.434 -0.179,-0.591 -0.577,-0.743c-0.313,-0.12 -0.618,-0.316 -0.861,-0.547c-0.564,-0.535 -1.073,-1.13 -1.637,-1.665c-0.294,-0.279 -0.661,-0.48 -0.991,-0.723c-0.6,-0.442 -1.203,-0.879 -1.79,-1.339c-0.218,-0.171 -0.443,-0.375 -0.382,-0.706c0.021,-0.111 0.065,-0.232 0.136,-0.318c0.326,-0.397 0.796,-0.513 1.266,-0.644c0.596,-0.166 1.193,-0.341 1.768,-0.566c0.847,-0.332 1.669,-0.726 2.515,-1.06c0.21,-0.083 0.251,-0.22 0.254,-0.375c0.006,-0.281 0,-0.569 -0.06,-0.842c-0.055,-0.25 0.014,-0.414 0.212,-0.532c0.422,-0.252 0.875,-0.458 1.269,-0.746c0.352,-0.257 0.645,-0.595 0.952,-0.91c0.04,-0.041 0.032,-0.167 0.001,-0.233c-0.216,-0.472 -0.431,-0.946 -0.677,-1.403c-0.061,-0.114 -0.226,-0.197 -0.36,-0.241c-0.35,-0.114 -0.72,-0.304 -1.063,-0.27c-0.564,0.055 -1.171,0.043 -1.648,0.497c-0.135,0.129 -0.444,0.092 -0.675,0.1c-0.467,0.017 -0.935,0.003 -1.402,0.022c-0.222,0.009 -0.442,0.062 -0.662,0.101c-0.377,0.066 -0.706,0.203 -0.922,0.554c-0.046,0.075 -0.21,0.095 -0.323,0.106c-0.117,0.011 -0.254,-0.061 -0.355,-0.024c-0.382,0.14 -0.762,0.294 -1.124,0.479c-0.097,0.049 -0.187,0.23 -0.181,0.344c0.03,0.515 -0.394,0.713 -0.69,0.971c-0.091,0.079 -0.38,-0.064 -0.577,-0.113c-0.656,-0.161 -1.318,-0.305 -1.965,-0.496c-0.359,-0.106 -0.743,-0.233 -1.026,-0.462c-0.379,-0.306 -0.67,-0.719 -0.998,-1.087c-0.03,-0.034 -0.072,-0.078 -0.07,-0.116c0.016,-0.301 -0.162,-0.491 -0.372,-0.658c-0.229,-0.183 -0.468,-0.098 -0.709,-0.016c-0.254,0.085 -0.517,0.146 -0.768,0.238c-0.049,0.018 -0.108,0.161 -0.084,0.2c0.29,0.486 0.555,0.996 0.905,1.437c0.539,0.682 1.194,1.231 2.074,1.452c0.181,0.045 0.343,0.171 0.509,0.268c0.263,0.153 0.521,0.315 0.783,0.471c0.16,0.095 0.336,0.168 0.48,0.282c0.234,0.184 0.207,0.551 -0.069,0.818c-0.243,0.234 -0.513,0.44 -0.769,0.661c-0.057,0.049 -0.109,0.106 -0.152,0.168c-0.198,0.285 -0.363,0.333 -0.677,0.188c-0.279,-0.129 -0.516,-0.259 -0.481,-0.656c0.043,-0.486 0.012,-0.497 -0.493,-0.625c-0.442,-0.112 -0.862,-0.021 -1.27,0.133c-0.025,0.042 -0.05,0.085 -0.075,0.127c0.097,0.059 0.21,0.102 0.289,0.179c0.256,0.248 0.254,0.449 0.011,0.701c-0.086,0.089 -0.19,0.166 -0.258,0.266c-0.079,0.116 -0.214,0.308 -0.174,0.369c0.098,0.15 0.266,0.29 0.435,0.35c0.232,0.083 0.493,0.082 0.739,0.13c0.292,0.057 0.441,0.488 0.13,0.635c-0.347,0.164 -0.721,0.275 -1.089,0.388c-0.638,0.196 -1.021,-0.173 -1.357,-0.636c-0.257,-0.354 -0.355,-0.384 -0.745,-0.262c-0.186,0.058 -0.372,0.125 -0.563,0.152c-0.269,0.039 -0.333,0.169 -0.264,0.417c0.037,0.132 0.037,0.275 0.06,0.464c-0.128,-0.039 -0.188,-0.051 -0.242,-0.076c-0.858,-0.399 -1.749,-0.732 -2.521,-1.3c-0.054,-0.04 -0.16,-0.057 -0.219,-0.032c-0.495,0.211 -0.985,0.435 -1.473,0.654c0.203,0.676 0.318,0.844 0.878,0.689c0.28,-0.078 0.551,0.019 0.774,0.239c0.114,0.113 0.267,0.199 0.417,0.26c0.635,0.257 1.284,0.483 1.911,0.759c0.174,0.077 0.306,0.272 0.431,0.434c0.133,0.173 0.216,0.34 0.507,0.256c0.468,-0.135 0.881,0.104 1.147,0.589c0.206,0.375 0.413,0.75 0.625,1.121c0.113,0.198 0.251,0.279 0.479,0.13c0.169,-0.11 0.373,-0.165 0.557,-0.253c0.312,-0.151 0.345,-0.238 0.231,-0.592c-0.048,-0.15 -0.099,-0.299 -0.159,-0.445c-0.078,-0.191 -0.126,-0.413 0.055,-0.529c0.156,-0.1 0.38,-0.118 0.576,-0.126c0.121,-0.005 0.244,0.108 0.367,0.111c0.197,0.005 0.436,0.026 0.585,-0.071c0.497,-0.323 0.973,-0.201 1.179,0.371c0.058,0.16 0.074,0.352 0.049,0.52c-0.04,0.272 0.02,0.418 0.28,0.475c0.217,0.048 0.439,0.074 0.656,0.122c0.081,0.018 0.218,0.074 0.217,0.111c-0.002,0.09 -0.047,0.231 -0.113,0.259c-0.363,0.151 -0.274,0.358 -0.124,0.612c0.15,0.254 0.264,0.531 0.404,0.791c0.1,0.185 0.724,0.255 0.944,0.137c0.235,-0.126 0.482,-0.233 0.73,-0.332c0.362,-0.144 0.664,0.02 0.93,0.238c0.101,0.083 0.153,0.208 0.021,0.365c-0.337,0.4 -0.218,0.872 -0.128,1.319c0.048,0.239 0.416,0.318 0.699,0.226c0.332,-0.108 0.618,-0.35 1.008,-0.303c0.301,0.036 0.489,0.231 0.324,0.472c-0.495,0.724 -0.081,1.228 0.361,1.735c0.172,0.198 0.464,0.4 0.31,0.658c-0.1,0.166 -0.422,0.238 -0.657,0.277c-0.486,0.08 -0.57,0.024 -0.804,-0.42c-0.117,-0.223 -0.265,-0.316 -0.533,-0.323c-0.767,-0.019 -1.432,0.289 -2.105,0.585c-0.069,0.03 -0.117,0.115 -0.165,0.182c-0.203,0.288 -0.514,0.443 -0.81,0.31c-0.484,-0.217 -0.883,-0.008 -1.313,0.154c0.028,0.11 0.029,0.212 0.076,0.287c0.241,0.385 0.135,0.744 -0.063,1.1c-0.234,0.421 -0.469,0.841 -0.702,1.263c-0.148,0.269 -0.407,0.366 -0.666,0.288c-0.262,-0.079 -0.431,-0.322 -0.461,-0.606c-0.018,-0.163 0.042,-0.333 0.044,-0.5c0.001,-0.206 -0.01,-0.415 -0.039,-0.619c-0.026,-0.183 -0.109,-0.36 -0.12,-0.542c-0.016,-0.264 -0.192,-0.412 -0.392,-0.394c-0.526,0.046 -0.93,-0.245 -1.379,-0.412c-0.261,-0.097 -0.521,-0.195 -0.781,-0.295c-0.246,-0.095 -0.442,-0.09 -0.586,0.187c-0.217,0.415 -0.547,0.696 -1.034,0.759c-0.507,0.065 -0.758,0.378 -0.747,0.872c0.007,0.327 -0.18,0.469 -0.422,0.595c-0.132,0.069 -0.265,0.138 -0.398,0.205c-0.473,0.24 -0.734,1.021 -0.447,1.463c0.101,0.156 0.327,0.255 0.516,0.324c0.543,0.198 0.593,0.373 0.2,0.814c-0.074,0.083 -0.124,0.197 -0.212,0.258c-0.083,0.057 -0.202,0.091 -0.303,0.085c-0.428,-0.022 -0.741,-0.298 -1.044,-0.549c-0.45,-0.372 -0.866,-0.194 -1.089,0.22c-0.212,0.394 -0.539,0.491 -0.918,0.301c-0.304,-0.153 -0.26,-0.345 -0.121,-0.567c0.056,-0.09 0.161,-0.159 0.257,-0.213c0.483,-0.273 0.842,-0.67 1.175,-1.106c0.268,-0.351 0.606,-0.648 0.87,-1.002c0.393,-0.527 0.75,-1.081 1.115,-1.629c0.149,-0.224 0.27,-0.467 0.417,-0.692c0.117,-0.179 0.155,-0.37 0.05,-0.549c-0.215,-0.366 -0.38,-0.774 -0.803,-0.978c-0.168,-0.081 -0.255,-0.215 -0.205,-0.44c0.061,-0.276 0.132,-0.504 0.462,-0.524c0.076,-0.005 0.153,-0.001 0.229,-0.001c0.526,0 0.672,-0.199 0.5,-0.713c-0.132,-0.397 -0.235,-0.798 -0.171,-1.215c0.051,-0.327 0.153,-0.646 0.213,-0.972c0.021,-0.115 0.031,-0.268 -0.026,-0.356c-0.471,-0.726 -1.091,-1.306 -1.773,-1.838c-1.026,-0.799 -2.214,-1.23 -3.43,-1.611c-0.326,-0.102 -0.361,-0.081 -0.488,0.247c-0.074,0.19 -0.146,0.387 -0.258,0.555c-0.06,0.089 -0.208,0.177 -0.307,0.167c-0.118,-0.011 -0.264,-0.104 -0.327,-0.205c-0.068,-0.109 -0.059,-0.268 -0.075,-0.406c-0.041,-0.352 -0.025,-0.722 -0.131,-1.052c-0.087,-0.27 -0.338,-0.483 -0.478,-0.743c-0.092,-0.171 -0.261,-0.381 -0.023,-0.57c0.072,-0.057 0.183,-0.073 0.278,-0.094c0.18,-0.04 0.372,-0.045 0.541,-0.111c0.297,-0.117 0.313,-0.264 0.223,-0.568c-0.11,-0.372 -0.154,-0.762 -0.244,-1.141c-0.037,-0.156 -0.078,-0.344 -0.185,-0.445c-0.392,-0.367 -0.647,-0.799 -0.863,-1.293c-0.194,-0.443 -0.527,-0.832 -0.837,-1.214c-0.357,-0.439 -0.754,-0.844 -1.138,-1.261c-0.055,-0.06 -0.132,-0.143 -0.198,-0.142c-0.58,0.009 -1.173,-0.1 -1.727,0.174c-0.352,0.174 -0.681,0.137 -0.999,-0.096c-0.186,-0.137 -0.391,-0.248 -0.584,-0.378c-0.07,-0.047 -0.156,-0.102 -0.184,-0.173c-0.049,-0.126 -0.058,-0.267 -0.083,-0.401c0.12,0.003 0.245,-0.013 0.36,0.014c0.143,0.034 0.277,0.106 0.416,0.158c0.357,0.135 0.674,-0.01 0.814,-0.371c0.007,-0.017 0.002,-0.038 0.008,-0.056c0.238,-0.677 0.364,-0.748 1.081,-0.599c0.463,0.097 0.935,-0.301 0.969,-0.716c0.042,-0.523 0.052,-1.06 -0.232,-1.535c-0.109,-0.183 -0.266,-0.337 -0.399,-0.503c-0.442,0.189 -0.853,0.289 -1.28,0.023c-0.218,-0.136 -0.471,-0.103 -0.716,-0.042c-0.09,0.023 -0.187,0.03 -0.28,0.027c-0.328,-0.01 -0.391,-0.119 -0.245,-0.416c0.106,-0.215 0.222,-0.421 0.082,-0.675c-0.045,-0.081 -0.017,-0.206 -0.01,-0.311c0.021,-0.31 0.009,-0.599 -0.281,-0.81c-0.06,-0.044 -0.074,-0.192 -0.063,-0.287c0.033,-0.295 -0.007,-0.581 -0.282,-0.717c-0.44,-0.218 -0.811,-0.457 -1.019,-0.946c-0.085,-0.2 -0.387,-0.316 -0.603,-0.45c-0.132,-0.083 -0.29,-0.123 -0.432,-0.192c-0.377,-0.184 -0.413,-0.272 -0.281,-0.657c0.173,-0.507 0.839,-0.845 1.36,-0.685c0.194,0.06 0.381,0.152 0.579,0.191c0.128,0.025 0.364,0.015 0.386,-0.042c0.053,-0.14 0.048,-0.33 -0.003,-0.475c-0.131,-0.374 -0.311,-0.73 -0.448,-1.102c-0.131,-0.355 -0.036,-0.53 0.32,-0.673c0.397,-0.159 0.491,-0.29 0.478,-0.743c-0.008,-0.273 0.001,-0.54 0.224,-0.72c0.088,-0.071 0.264,-0.102 0.372,-0.067c0.214,0.069 0.363,0.237 0.379,0.478c0.012,0.18 0.012,0.363 0.001,0.543c-0.025,0.393 0.014,0.765 0.227,1.114c0.058,0.096 0.053,0.255 0.027,0.373c-0.088,0.4 0.209,0.812 0.611,0.803c0.291,-0.006 0.582,-0.035 0.873,-0.057c0.035,-0.003 0.085,-0.014 0.1,-0.039c0.23,-0.376 0.531,-0.719 0.567,-1.187c0.002,-0.028 0.009,-0.063 -0.004,-0.085c-0.281,-0.482 -0.006,-0.8 0.301,-1.138c0.313,-0.345 0.316,-0.44 -0.006,-0.716c-0.677,-0.58 -0.958,-1.363 -1.082,-2.207c-0.036,-0.245 0.016,-0.541 0.132,-0.758c0.075,-0.142 0.33,-0.223 0.518,-0.256c0.084,-0.015 0.234,0.135 0.296,0.244c0.281,0.489 0.544,0.987 0.806,1.487c0.118,0.224 0.306,0.219 0.506,0.179c0.155,-0.03 0.305,-0.083 0.46,-0.108c0.07,-0.011 0.172,-0.003 0.214,0.041c0.034,0.035 0.006,0.137 -0.006,0.208c-0.042,0.236 -0.089,0.471 -0.137,0.706c-0.033,0.163 -0.072,0.326 -0.108,0.489c-0.032,0.009 -0.063,0.018 -0.095,0.027c0.131,0.121 0.256,0.25 0.396,0.361c0.114,0.091 0.217,0.178 0.393,0.046c0.185,-0.139 0.414,-0.031 0.483,0.218c0.13,0.47 0.167,0.961 -0.071,1.4c-0.353,0.65 0.071,1.412 0.852,1.447c0.533,0.024 1.028,-0.033 1.497,-0.289c0.285,-0.156 0.29,-0.25 0.084,-0.505c-0.162,-0.201 -0.292,-0.427 -0.477,-0.704c0.242,0.026 0.378,0.054 0.514,0.053c0.343,-0.001 0.441,-0.16 0.275,-0.458c-0.102,-0.184 -0.213,-0.357 -0.079,-0.569c0.112,-0.177 0.237,-0.254 0.457,-0.145c0.378,0.187 0.432,0.57 0.562,0.895c0.226,0.566 0.22,0.567 0.611,0.977c0.165,0.173 0.299,0.384 0.412,0.596c0.087,0.162 0.202,0.236 0.363,0.189c0.238,-0.071 0.472,-0.164 0.699,-0.266c0.22,-0.099 0.359,-0.253 0.33,-0.528c-0.039,-0.376 0.168,-0.667 0.471,-0.812c0.124,-0.059 0.399,0.1 0.553,0.224c0.218,0.175 0.41,0.394 0.574,0.623c0.415,0.58 1.022,0.851 1.66,1.075c0.084,0.03 0.203,0.007 0.29,-0.029c0.74,-0.297 1.483,-0.587 2.211,-0.914c0.341,-0.153 0.664,-0.341 0.834,-0.736c0.083,-0.192 0.324,-0.325 0.512,-0.46c0.347,-0.25 0.59,-0.636 0.486,-0.882c-0.13,-0.308 -0.337,-0.576 -0.682,-0.657c-0.219,-0.051 -0.333,-0.144 -0.377,-0.367c-0.037,-0.189 -0.466,-0.44 -0.708,-0.442c-0.382,-0.003 -0.764,-0.003 -1.147,0.002c-0.199,0.003 -0.355,-0.044 -0.39,-0.269c-0.036,-0.237 0.03,-0.412 0.294,-0.453c0.203,-0.032 0.407,-0.071 0.612,-0.079c0.468,-0.018 0.76,-0.545 0.519,-0.951c-0.158,-0.265 -0.051,-0.46 0.264,-0.48c0.496,-0.031 0.558,0.035 0.602,0.535c0.032,0.363 0.236,0.728 0.7,0.665c0.037,-0.005 0.078,0.006 0.114,-0.002c0.533,-0.109 0.808,0.172 1.017,0.62c0.447,0.959 1.053,1.818 1.724,2.633c0.07,0.085 0.048,0.241 0.112,0.334c0.209,0.304 0.362,0.647 0.728,0.834c0.193,0.099 0.322,0.323 0.487,0.498c-0.57,0.241 -0.56,0.234 -0.239,0.735c0.185,0.289 0.404,0.428 0.763,0.418c0.829,-0.024 1.659,-0.007 2.528,0.016c0.527,0.024 1.015,0.024 1.503,0.025c0.028,0.003 0.057,0.008 0.085,0.009c0.707,0.016 0.749,-0.013 0.998,-0.665c0.069,-0.182 0.14,-0.363 0.213,-0.543c0.175,-0.432 0.008,-0.79 -0.415,-0.989c-0.316,-0.149 -0.608,-0.349 -0.968,-0.56c0.296,-0.205 0.403,-0.513 0.769,-0.453c0.221,0.036 0.338,-0.164 0.457,-0.308c0.256,-0.309 0.494,-0.632 0.745,-0.956c-0.133,-0.339 -0.426,0.014 -0.602,-0.129c0.025,-0.118 0.05,-0.241 0.081,-0.389c0.04,-0.045 0.106,-0.118 0.172,-0.191c-0.098,-0.046 -0.195,-0.094 -0.294,-0.138c-0.1,-0.044 -0.204,-0.08 -0.304,-0.127c-0.09,-0.042 -0.176,-0.093 -0.246,-0.131c0.173,-0.06 0.373,-0.176 0.578,-0.187c0.232,-0.012 0.471,0.066 0.704,0.117c0.213,0.046 0.407,0.091 0.567,0.296c0.173,0.22 0.611,-0.016 0.66,-0.339c0.011,-0.075 0.025,-0.162 -0.002,-0.227c-0.166,-0.397 0.083,-0.706 0.232,-1.021c0.078,-0.165 0.26,-0.288 0.411,-0.41c0.097,-0.079 0.224,-0.122 0.372,-0.199c-0.171,-0.296 -0.333,-0.575 -0.503,-0.871c-0.263,0.102 -0.516,0.186 -0.755,0.299c-0.204,0.096 -0.321,0.028 -0.43,-0.144c-0.21,-0.332 -0.225,-0.317 -0.562,-0.161c-0.171,0.08 -0.375,0.094 -0.567,0.123c-0.039,0.006 -0.121,-0.051 -0.126,-0.087c-0.008,-0.055 0.018,-0.135 0.059,-0.172c0.128,-0.119 0.128,-0.215 -0.005,-0.33c-0.062,-0.053 -0.108,-0.129 -0.147,-0.202c-0.155,-0.287 -0.366,-0.354 -0.679,-0.243c-0.176,0.063 -0.326,0.002 -0.399,-0.236c-0.13,-0.423 -0.496,-0.639 -0.871,-0.821c-0.049,-0.024 -0.141,0.032 -0.209,0.06c-0.06,0.024 -0.128,0.099 -0.169,0.084c-0.25,-0.088 -0.362,0.094 -0.518,0.276c-0.101,-0.246 -0.188,-0.46 -0.276,-0.676c0.315,-0.088 0.414,-0.248 0.333,-0.528c-0.089,-0.308 -0.415,-0.47 -0.728,-0.357c-0.077,0.028 -0.149,0.07 -0.251,0.119c-0.037,-0.223 -0.322,-0.343 -0.164,-0.609c0.01,-0.017 -0.046,-0.095 -0.086,-0.115c-0.197,-0.097 -0.399,-0.183 -0.612,-0.279c-0.004,-0.031 -0.015,-0.107 -0.025,-0.179c0.104,-0.066 0.212,-0.134 0.338,-0.214c0.044,0.03 0.103,0.072 0.204,0.142c0.124,-0.226 0.269,-0.429 0.349,-0.656c0.076,-0.215 0.078,-0.455 0.122,-0.682c0.039,-0.201 -0.298,-0.86 -0.49,-0.906c-0.063,-0.015 -0.149,0.048 -0.22,0.083c-0.366,0.183 -0.64,0.205 -0.728,-0.266c-0.066,-0.354 -0.288,-0.496 -0.544,-0.627c-0.478,0.285 -0.95,0.279 -1.429,0.055c0.115,-0.158 0.3,-0.3 0.302,-0.443c0.002,-0.178 -0.129,-0.371 -0.238,-0.534c-0.167,-0.25 -0.375,-0.473 -0.539,-0.725c-0.044,-0.067 -0.031,-0.232 0.023,-0.29c0.136,-0.146 0.307,-0.324 0.179,-0.484c-0.129,-0.162 -0.376,-0.309 -0.578,-0.319c-0.378,-0.019 -0.767,0.04 -1.141,0.115c-0.467,0.094 -0.707,0.016 -0.879,-0.399c-0.088,-0.211 -0.212,-0.302 -0.442,-0.313c-0.161,-0.008 -0.324,-0.075 -0.477,-0.137c-0.182,-0.074 -0.283,-0.174 -0.192,-0.414c0.1,-0.265 -0.125,-0.395 -0.336,-0.511c0.188,-0.498 0.882,-0.809 0.556,-1.488c-0.483,-0.024 -0.877,-0.237 -1.254,-0.507c-0.081,-0.058 -0.224,-0.048 -0.337,-0.04c-0.103,0.007 -0.204,0.055 -0.32,0.088c0.067,-0.255 0.128,-0.468 0.177,-0.682c0.014,-0.06 0.01,-0.176 -0.013,-0.183c-0.078,-0.025 -0.169,-0.023 -0.252,-0.013c-0.063,0.008 -0.122,0.044 -0.132,0.048c-0.028,-0.147 -0.052,-0.259 -0.071,-0.373c-0.026,-0.151 -0.048,-0.303 -0.071,-0.454c0.026,-0.013 0.052,-0.026 0.077,-0.039c-0.144,-0.088 -0.287,-0.175 -0.465,-0.283c-0.001,-0.016 0.007,-0.084 -0.009,-0.146c-0.041,-0.163 0.006,-0.206 0.177,-0.189c0.089,0.009 0.187,-0.07 0.281,-0.109c-0.081,-0.095 -0.145,-0.237 -0.247,-0.274c-0.192,-0.07 -0.296,-0.18 -0.257,-0.368c0.036,-0.177 0.152,-0.255 0.364,-0.272c0.243,-0.02 0.453,-0.014 0.665,0.107c0.031,0.018 0.127,-0.036 0.163,-0.08c0.118,-0.144 0.23,-0.294 0.327,-0.452c0.028,-0.046 0.023,-0.139 -0.005,-0.189c-0.261,-0.47 -0.502,-0.956 -1.015,-1.219c-0.051,-0.026 -0.103,-0.091 -0.115,-0.146c-0.119,-0.559 -0.538,-0.772 -1.023,-0.937c-0.758,-0.257 -1.123,-0.965 -0.901,-1.727c0.025,-0.086 0.113,-0.163 0.189,-0.222c0.197,-0.153 0.322,-0.337 0.314,-0.596c-0.002,-0.056 0.005,-0.113 0.014,-0.169c0.035,-0.206 0.088,-0.313 0.366,-0.27c0.547,0.083 1.108,0.068 1.658,0.131c0.628,0.072 1.254,0.174 1.876,0.29c0.172,0.032 0.352,0.132 0.484,0.251c0.472,0.427 0.99,0.776 1.626,0.855c0.378,0.047 0.784,0.035 1.149,-0.061c0.178,-0.046 0.409,-0.223 0.448,-0.523c0.047,-0.355 0.246,-0.656 0.508,-0.911c0.404,-0.395 0.775,-0.83 1.207,-1.191c0.466,-0.389 0.726,-0.877 0.922,-1.43c0.103,-0.291 0.281,-0.538 0.598,-0.664c0.215,-0.085 0.408,-0.222 0.614,-0.329c0.361,-0.187 0.78,-0.101 1.024,0.215c0.147,0.191 0.3,0.384 0.409,0.597c0.062,0.12 0.052,0.283 0.053,0.427c0.001,0.227 -0.043,0.456 -0.019,0.679c0.02,0.195 0.173,0.343 0.375,0.296c0.436,-0.101 0.938,-0.012 1.268,-0.451c0.069,-0.091 0.265,-0.087 0.407,-0.128c0.214,0.449 0.479,0.532 0.863,0.272c0.219,-0.148 0.45,-0.283 0.688,-0.4c0.312,-0.152 0.351,-0.231 0.201,-0.538c-0.09,-0.185 -0.176,-0.371 -0.271,-0.554c-0.102,-0.197 -0.068,-0.339 0.145,-0.431c0.205,-0.089 0.407,-0.183 0.608,-0.28c0.279,-0.135 0.467,0.009 0.675,0.178c0.152,0.124 0.355,0.182 0.53,0.281c0.095,0.054 0.232,0.114 0.257,0.199c0.087,0.294 0.24,0.568 0.151,0.914c-0.083,0.32 0.075,0.419 0.372,0.3c0.335,-0.134 0.552,-0.037 0.757,0.267c0.081,0.12 0.255,0.247 0.389,0.25c0.605,0.013 1.211,-0.039 1.816,-0.021c0.199,0.006 0.415,0.118 0.588,0.234c0.996,0.665 2.085,1.137 3.187,1.59c0.636,0.261 1.256,0.561 1.882,0.847c0.854,0.39 1.705,0.787 2.561,1.171c0.124,0.055 0.288,0.108 0.406,0.072c0.325,-0.101 0.558,0.055 0.824,0.189c0.438,0.222 0.888,0.429 1.35,0.596c0.498,0.181 0.755,0.726 0.675,1.207c-0.037,0.221 -0.059,0.449 -0.054,0.673c0.011,0.503 -0.147,0.893 -0.506,1.282c-0.476,0.515 -1.114,0.663 -1.686,0.964c-0.443,0.233 -0.888,0.462 -1.327,0.704c-0.497,0.274 -0.978,0.578 -1.487,0.827c-0.097,0.047 -0.289,-0.102 -0.495,-0.183c-0.364,0.388 -0.762,0.816 -1.165,1.24c-0.217,0.228 -0.433,0.458 -0.669,0.666c-0.381,0.337 -0.458,0.73 -0.351,1.219c0.118,0.536 0.172,1.086 0.24,1.632c0.024,0.196 0.081,0.259 0.273,0.163c0.089,-0.044 0.204,-0.033 0.297,-0.071c0.355,-0.147 0.677,-0.118 0.995,0.113c0.078,0.057 0.233,0.043 0.341,0.017c0.224,-0.053 0.442,-0.137 0.693,-0.218c-0.061,-0.133 -0.122,-0.256 -0.173,-0.382c-0.138,-0.347 -0.279,-0.703 -0.129,-1.076c0.05,-0.124 0.178,-0.289 0.289,-0.305c0.439,-0.064 0.608,-0.418 0.867,-0.691c0.208,-0.218 0.458,-0.412 0.722,-0.556c0.24,-0.131 0.524,0.125 0.502,0.399c-0.023,0.281 -0.052,0.565 -0.03,0.845c0.01,0.128 0.11,0.279 0.215,0.363c0.202,0.16 0.451,0.262 0.652,0.423c0.115,0.092 0.211,0.242 0.255,0.384c0.124,0.396 0.283,0.763 0.581,1.064c0.197,0.199 0.139,0.444 0.019,0.651c-0.096,0.165 -0.124,0.268 0.05,0.395c0.158,0.116 0.152,0.273 0.011,0.413c-0.128,0.127 -0.262,0.248 -0.431,0.407c0.236,0.219 0.448,0.397 0.636,0.597c0.132,0.141 0.247,0.305 0.341,0.475c0.275,0.494 0.017,0.778 -0.421,0.976c-0.251,0.113 -0.509,0.215 -0.745,0.354c-0.27,0.16 -0.417,0.586 -0.297,0.868c0.04,0.093 0.188,0.192 0.29,0.195c0.22,0.007 0.449,-0.023 0.663,-0.081c0.598,-0.163 1.148,0.325 1.028,0.927c-0.004,0.019 -0.003,0.04 -0.012,0.055c-0.272,0.411 -0.523,0.839 -0.831,1.221c-0.11,0.136 -0.355,0.175 -0.547,0.232c-0.207,0.062 -0.419,0.083 -0.274,0.396c0.072,0.154 0.035,0.414 0.142,0.486c0.277,0.187 0.605,0.299 0.915,0.434c0.048,0.021 0.117,-0.009 0.17,0.006c0.574,0.158 0.495,0.022 0.839,-0.415c0.068,-0.087 0.102,-0.2 0.163,-0.292c0.376,-0.564 0.664,-0.632 1.287,-0.341c0.328,0.153 0.715,0.226 0.872,0.603c0.111,0.267 0.181,0.553 0.249,0.836c0.055,0.225 0.048,0.469 0.132,0.681c0.043,0.108 0.213,0.207 0.342,0.233c0.345,0.071 0.569,0.274 0.725,0.567c0.125,0.234 0.191,0.498 0.515,0.572c0.096,0.022 0.16,0.195 0.233,0.303c0.166,0.247 0.317,0.504 0.495,0.741c0.122,0.162 0.289,0.197 0.502,0.137c0.516,-0.145 0.95,0.124 1.235,0.731c0.302,0.644 1.122,0.913 1.742,0.573c0.255,-0.14 0.253,-0.199 0.04,-0.383c-0.134,-0.115 -0.226,-0.278 -0.355,-0.4c-0.585,-0.551 -1.177,-1.096 -1.771,-1.648c0.068,-0.075 0.124,-0.136 0.197,-0.217c-0.556,-0.514 -1.002,-1.114 -1.256,-1.807c-0.187,-0.51 -0.373,-1.01 -0.715,-1.425c-0.294,-0.356 -0.643,-0.665 -0.967,-0.997c-0.177,-0.181 -0.452,-0.278 -0.463,-0.599c-0.009,-0.252 0.139,-0.301 0.335,-0.314c0.036,-0.002 0.08,0.003 0.109,0.021c0.53,0.334 1.034,0.158 1.529,-0.084c0.065,-0.032 0.142,-0.132 0.139,-0.198c-0.016,-0.388 -0.106,-0.693 -0.538,-0.835c-0.17,-0.056 -0.319,-0.185 -0.469,-0.293c-0.234,-0.169 -0.456,-0.356 -0.693,-0.52c-0.311,-0.215 -0.515,-0.47 -0.604,-0.865c-0.145,-0.637 -0.327,-1.263 -0.319,-1.924c0.003,-0.306 0.092,-0.381 0.367,-0.265c0.229,0.096 0.456,0.212 0.654,0.36c0.21,0.157 0.359,0.185 0.553,-0.026c0.316,-0.344 0.281,-0.322 0.082,-0.737c-0.492,-1.026 -1.347,-1.784 -1.958,-2.72c-0.063,-0.097 -0.257,-0.144 -0.393,-0.15c-0.484,-0.021 -0.593,-0.188 -0.367,-0.624c0.081,-0.156 0.173,-0.308 0.277,-0.449c0.19,-0.255 0.074,-0.447 -0.124,-0.606c-0.247,-0.198 -0.509,-0.376 -0.767,-0.559c-0.292,-0.207 -0.307,-0.576 0.002,-0.746c0.257,-0.141 0.231,-0.352 0.247,-0.578c0.012,-0.168 0.07,-0.333 0.107,-0.499c0.137,0.068 0.279,0.128 0.411,0.205c0.397,0.233 0.594,0.587 0.685,1.037c0.098,0.481 0.385,0.851 0.853,1.037c0.539,0.214 0.567,0.244 0.458,0.802c-0.065,0.332 0.068,0.502 0.392,0.583c0.144,0.036 0.32,0.128 0.387,0.248c0.172,0.308 0.462,0.415 0.756,0.476c0.284,0.059 0.328,0.22 0.354,0.454c0.029,0.256 0.083,0.511 0.148,0.761c0.013,0.05 0.134,0.12 0.184,0.106c0.288,-0.079 0.59,-0.144 0.847,-0.286c0.266,-0.147 0.49,-0.372 0.722,-0.575c0.029,-0.025 0.017,-0.149 -0.019,-0.185c-0.117,-0.121 -0.247,-0.231 -0.383,-0.33c-0.245,-0.179 -0.297,-0.424 -0.157,-0.66c0.164,-0.278 -0.011,-0.419 -0.192,-0.459c-0.397,-0.089 -0.55,-0.381 -0.654,-0.697c-0.164,-0.501 -0.51,-0.865 -0.848,-1.237c-0.225,-0.247 -0.237,-0.365 0.048,-0.529c0.151,-0.086 0.167,-0.176 0.127,-0.308c-0.087,-0.291 -0.105,-0.572 0.109,-0.819c0.151,-0.175 0.011,-0.31 -0.08,-0.415c-0.056,-0.065 -0.212,-0.086 -0.31,-0.065c-0.724,0.154 -1.54,-0.488 -1.547,-1.229c-0.003,-0.278 0.187,-0.404 0.464,-0.383c0.289,0.021 0.586,-0.004 0.875,-0.042c0.517,-0.067 1.028,-0.206 1.546,-0.231c0.828,-0.039 1.659,-0.01 2.488,-0.01c0.019,0 0.038,-0.001 0.057,-0c0.256,0.005 0.5,0.113 0.548,0.347c0.021,0.103 -0.216,0.323 -0.376,0.385c-0.396,0.151 -0.815,0.24 -1.225,0.356c-0.196,0.055 -0.395,0.104 -0.583,0.18c-0.06,0.024 -0.135,0.137 -0.122,0.187c0.027,0.096 0.095,0.227 0.175,0.253c0.522,0.171 1.058,0.225 1.606,0.147c0.231,-0.033 0.467,-0.035 0.676,-0.049c-0.188,0.301 -0.348,0.598 -0.547,0.865c-0.151,0.202 -0.356,0.342 -0.643,0.308c-0.187,-0.023 -0.379,-0.004 -0.567,-0.004c-0.017,0.268 0.667,0.95 0.868,0.846c0.324,-0.166 0.659,-0.12 0.987,-0.179c0.136,-0.024 0.272,-0.233 0.341,-0.388c0.07,-0.158 0.161,-0.261 0.308,-0.206c0.094,0.035 0.2,0.176 0.21,0.278c0.056,0.6 0.087,1.202 0.121,1.804c0.005,0.083 -0.018,0.167 -0.03,0.25c-0.005,0.036 -0.031,0.076 -0.021,0.106c0.101,0.326 0.404,0.233 0.63,0.289c0.212,0.053 0.313,-0.076 0.339,-0.274c0.077,-0.584 0.133,-1.173 0.241,-1.752c0.037,-0.197 0.18,-0.392 0.32,-0.547c0.145,-0.161 0.541,-0.017 0.68,0.262c0.173,0.346 0.336,0.704 0.439,1.075c0.045,0.162 -0.065,0.37 -0.113,0.555c-0.071,0.279 0.009,0.391 0.295,0.398c0.029,0.001 0.058,0.004 0.086,0c0.633,-0.087 0.625,-0.073 0.518,-0.65c-0.066,-0.358 -0.074,-0.726 -0.125,-1.088c-0.029,-0.207 -0.111,-0.407 -0.133,-0.613c-0.011,-0.102 0.032,-0.233 0.096,-0.314c0.11,-0.138 0.151,-0.208 -0.038,-0.325c-0.266,-0.165 -0.502,-0.38 -0.788,-0.603c0.156,-0.099 0.254,-0.161 0.383,-0.243c-0.06,-0.075 -0.101,-0.166 -0.171,-0.21c-0.363,-0.225 -0.262,-0.887 0.086,-1.047c0.228,-0.105 0.417,-0.055 0.536,0.17c0.022,0.041 0.046,0.081 0.064,0.124c0.182,0.431 0.33,0.497 0.738,0.289c0.518,-0.263 0.75,0.074 0.871,0.475c0.05,0.165 0.05,0.344 0.081,0.584c-0.187,-0.055 -0.345,-0.074 -0.474,-0.146c-0.185,-0.103 -0.274,-0.064 -0.27,0.139c0.004,0.208 0.005,0.425 0.064,0.62c0.112,0.369 0.13,0.728 0.059,1.107c-0.026,0.138 0.053,0.298 0.096,0.444c0.093,0.317 0.234,0.625 0.281,0.948c0.063,0.432 0.337,0.695 0.643,0.934c0.176,0.137 0.328,-0.035 0.376,-0.174c0.079,-0.224 0.097,-0.471 0.134,-0.709c0.04,-0.261 0.107,-0.524 0.097,-0.783c-0.007,-0.169 -0.017,-0.302 0.06,-0.47c0.081,-0.177 0.18,-0.143 0.25,-0.073c0.131,0.131 0.253,0.285 0.328,0.452c0.073,0.162 0.084,0.353 0.121,0.531c0.002,0.009 0.006,0.024 0.002,0.028c-0.258,0.2 -0.059,0.506 -0.173,0.742c-0.103,0.214 0.079,0.613 0.352,0.746c0.23,0.111 0.394,-0.039 0.536,-0.199c0.055,-0.062 0.08,-0.158 0.144,-0.204c0.086,-0.062 0.194,-0.111 0.298,-0.125c0.06,-0.008 0.13,0.066 0.197,0.099c0.195,0.094 0.408,0.213 0.605,0.062c0.222,-0.169 0.263,-0.443 0.205,-0.697c-0.034,-0.147 -0.161,-0.276 -0.26,-0.402c-0.134,-0.17 -0.281,-0.329 -0.423,-0.493c0.096,-0.086 0.176,-0.161 0.26,-0.233c0.111,-0.095 0.195,-0.108 0.293,0.04c0.111,0.169 0.263,0.311 0.398,0.465c0.025,0.029 0.074,0.06 0.071,0.086c-0.041,0.374 0.238,0.611 0.4,0.888c0.238,0.409 0.21,0.819 0.134,1.254c-0.032,0.186 0.003,0.383 -0.008,0.574c-0.016,0.3 -0.019,0.604 -0.076,0.896c-0.044,0.225 -0.499,0.327 -0.786,0.213c-0.223,-0.088 -0.45,-0.168 -0.676,-0.25c-0.178,-0.065 -0.222,-0.231 -0.101,-0.383c0.183,-0.23 0.119,-0.506 -0.163,-0.582c-0.554,-0.149 -1.11,-0.31 -1.675,-0.392c-0.388,-0.057 -0.577,0.093 -0.692,0.631c-0.082,0.388 -0.405,0.504 -0.72,0.274c-0.26,-0.19 -0.538,-0.359 -0.822,-0.513c-0.242,-0.131 -0.515,0.01 -0.573,0.283c-0.047,0.223 -0.071,0.451 -0.108,0.694c-0.276,-0.087 -0.441,-0.227 -0.467,-0.496c-0.035,-0.367 -0.377,-0.541 -0.706,-0.371c-0.184,0.095 -0.385,0.159 -0.577,0.238c-0.153,0.063 -0.274,0.138 -0.149,0.332c0.073,0.113 0.128,0.237 0.191,0.355c-0.019,0.027 -0.039,0.054 -0.058,0.08c-0.179,-0.08 -0.361,-0.156 -0.536,-0.242c-0.32,-0.157 -0.509,-0.187 -0.664,0.222c-0.095,0.252 -0.356,0.476 -0.143,0.792c0.019,0.027 -0.046,0.146 -0.099,0.181c-0.183,0.12 -0.369,0.246 -0.571,0.324c-0.385,0.148 -0.512,0.616 -0.226,0.901c0.436,0.433 0.976,0.471 1.484,0.094c0.158,-0.117 0.315,-0.243 0.444,-0.39c0.173,-0.197 0.385,-0.201 0.618,-0.202c0.34,-0.001 0.681,-0.024 1.02,-0.044c0.158,-0.009 0.295,-0.049 0.403,0.15c0.129,0.239 0.397,0.26 0.665,0.189c0.231,-0.061 0.481,-0.065 0.723,-0.065c0.233,0 0.467,0.035 0.7,0.061c0.076,0.009 0.15,0.038 0.225,0.058c0.01,0.036 0.021,0.072 0.031,0.108c-0.276,0.133 -0.54,0.311 -0.83,0.388c-0.438,0.117 -0.893,0.178 -1.344,0.233c-0.114,0.014 -0.25,-0.066 -0.36,-0.131c-0.463,-0.271 -0.863,-0.162 -1.07,0.312c-0.099,0.228 -0.286,0.267 -0.5,0.289c-0.221,0.023 -0.445,0.05 -0.658,0.11c-0.326,0.092 -0.375,0.243 -0.204,0.536c0.137,0.235 0.059,0.356 -0.222,0.382c-0.268,0.024 -0.535,0.069 -0.801,0.115c-0.057,0.01 -0.124,0.05 -0.157,0.097c-0.208,0.301 -0.062,0.945 0.239,1.166c0.406,0.297 0.875,0.374 1.354,0.463c0.293,0.054 0.487,0.05 0.663,-0.227c0.126,-0.197 0.207,-0.353 0.017,-0.539c0.661,-0.36 1.288,-0.758 2.016,-0.786c0,0.253 -0.036,0.484 0.011,0.697c0.043,0.196 0.219,0.259 0.411,0.148c0.379,-0.218 0.751,-0.449 1.135,-0.658c0.098,-0.053 0.237,-0.082 0.34,-0.054c0.054,0.014 0.093,0.173 0.098,0.268c0.034,0.652 -0.303,1.024 -1.016,1.14c-0.091,0.015 -0.183,0.029 -0.27,0.058c-0.391,0.13 -0.458,0.312 -0.257,0.676c0.031,0.055 0.046,0.119 0.067,0.174c-0.193,0.206 -0.405,0.189 -0.651,0.148c-0.338,-0.056 -0.716,-0.13 -0.901,0.296c-0.05,0.115 -0.106,0.276 -0.062,0.371c0.088,0.192 0.161,0.442 0.444,0.448c0.363,0.007 0.727,0.016 1.089,-0.003c0.286,-0.015 0.449,0.13 0.525,0.367c0.09,0.279 -0.018,0.475 -0.297,0.613c-0.183,0.091 -0.37,0.173 -0.557,0.256c-0.155,0.069 -0.226,0.131 -0.094,0.314c0.262,0.364 0.306,0.397 0.77,0.292c0.37,-0.083 0.499,0.008 0.549,0.367c0.007,0.053 0.086,0.128 0.14,0.136c0.324,0.049 0.65,0.084 0.975,0.118c0.194,0.02 0.305,-0.058 0.424,-0.235c0.201,-0.298 0.256,-0.579 0.164,-0.921c-0.054,-0.198 -0.01,-0.388 0.229,-0.483c0.139,-0.055 0.193,-0.16 0.127,-0.336c-0.086,-0.23 -0.119,-0.479 -0.191,-0.79c0.165,0.037 0.248,0.057 0.332,0.074c0.306,0.062 0.446,-0.099 0.422,-0.412c-0.014,-0.176 0.029,-0.379 0.115,-0.532c0.047,-0.084 0.264,-0.159 0.353,-0.12c0.295,0.129 0.522,0.204 0.765,-0.12c0.099,-0.132 0.304,-0.191 0.322,-0.404c0.007,-0.082 0.022,-0.162 0.034,-0.244c0.01,-0.07 0.02,-0.139 0.029,-0.209c0.089,0.022 0.18,0.038 0.265,0.07c0.026,0.01 0.029,0.073 0.056,0.093c0.128,0.098 0.311,0.163 0.378,0.29c0.059,0.114 -0.008,0.294 -0.022,0.486c-0.389,0.191 -0.714,0.523 -0.911,0.958c-0.055,0.122 -0.006,0.296 0.014,0.444c0.02,0.144 0.048,0.253 -0.123,0.352c-0.254,0.147 -0.314,0.467 -0.217,0.8c0.039,0.133 0.139,0.272 -0.018,0.413c-0.026,0.023 0.035,0.187 0.094,0.247c0.073,0.074 0.188,0.107 0.296,0.231c-0.185,0.059 -0.367,0.131 -0.555,0.172c-0.19,0.041 -0.336,0.105 -0.435,0.294c-0.157,0.298 -0.257,0.599 -0.228,0.941c0.013,0.146 -0.015,0.296 -0.028,0.518c0.185,0.035 0.403,0.075 0.6,0.112c-0.109,0.084 -0.238,0.183 -0.428,0.328c0.302,0.184 0.538,0.328 0.775,0.471c0.153,0.092 0.373,0.183 0.265,0.395c-0.101,0.199 -0.073,0.547 -0.48,0.498c-0.323,-0.039 -0.653,0.026 -0.941,-0.208c-0.134,-0.109 -0.348,0.059 -0.388,0.283c-0.029,0.164 -0.078,0.328 -0.077,0.491c0,0.077 0.08,0.177 0.152,0.227c0.241,0.166 0.396,0.339 0.261,0.664c-0.095,0.229 0.125,0.328 0.274,0.357c0.283,0.055 0.579,0.046 0.87,0.066c0.078,0.005 0.162,0.004 0.233,0.032c0.24,0.096 0.518,0.021 0.693,-0.183c0.038,-0.044 0.125,-0.074 0.181,-0.063c0.032,0.006 0.057,0.105 0.065,0.165c0.017,0.123 0.022,0.247 0.032,0.373c-0.342,0.047 -0.665,0.09 -0.987,0.137c-0.043,0.006 -0.087,0.03 -0.123,0.057c-0.671,0.507 -0.989,0.488 -1.578,-0.095c-0.027,-0.027 -0.055,-0.052 -0.103,-0.097c-0.156,0.131 -0.309,0.265 -0.468,0.391c-0.151,0.12 -0.308,0.232 -0.482,0.361c0.516,0.399 0.283,0.971 0.407,1.496c0.315,0.041 0.652,0.086 1.005,0.132c-0.12,0.622 -0.253,1.221 -0.339,1.826c-0.018,0.13 0.118,0.297 0.214,0.424c0.23,0.304 0.478,0.594 0.731,0.905c0.408,-0.203 0.797,-0.402 1.193,-0.587c0.085,-0.04 0.195,-0.025 0.294,-0.036c0.007,0.034 0.015,0.069 0.022,0.103c-0.487,0.245 -0.974,0.491 -1.498,0.755c0.07,0.056 0.13,0.105 0.241,0.194c-0.158,0.024 -0.283,0.037 -0.406,0.062c-0.309,0.064 -0.619,0.129 -0.925,0.205c-0.088,0.022 -0.163,0.094 -0.25,0.124c-0.625,0.214 -0.951,0.705 -1.207,1.27c-0.373,0.821 -0.777,1.628 -1.131,2.457c-0.317,0.742 -0.678,1.492 -0.653,2.317c0.022,0.705 0.313,1.315 0.978,1.682c0.395,0.218 0.739,0.52 0.872,0.954c0.173,0.559 0.598,0.828 1.053,1.091c0.12,0.07 0.259,0.131 0.344,0.234c0.257,0.312 0.589,0.492 0.967,0.587c0.207,0.052 0.199,0.154 0.136,0.31c-0.216,0.538 -0.161,0.658 0.345,0.965c0.17,0.103 0.356,0.249 0.434,0.421c0.39,0.855 1.038,1.359 1.942,1.578c0.44,0.106 0.831,0.319 1.159,0.646c0.071,0.071 0.223,0.059 0.336,0.091c0.125,0.036 0.282,0.046 0.361,0.128c0.048,0.049 -0.031,0.215 -0.043,0.329c-0.011,0.107 -0.049,0.234 -0.008,0.32c0.231,0.477 0.482,0.944 0.726,1.414c0.017,0.033 0.05,0.067 0.049,0.1c-0.015,0.59 0.442,0.812 0.84,1.078c0.264,0.177 0.268,0.242 0.019,0.438c-0.03,0.023 -0.053,0.055 -0.08,0.081c-0.346,0.334 -0.307,0.507 0.152,0.668c0.061,0.021 0.123,0.04 0.181,0.067c0.281,0.134 0.372,0.334 0.251,0.606c-0.091,0.203 -0.24,0.383 -0.315,0.591c-0.052,0.145 -0.085,0.417 -0.017,0.461c0.139,0.089 0.385,0.134 0.529,0.069c0.408,-0.184 0.866,-0.256 1.192,-0.638c0.278,-0.326 0.983,-0.171 1.208,0.381c0.089,0.219 0.279,0.306 0.49,0.309c0.488,0.006 0.563,-0.067 0.64,-0.602c0.043,-0.293 0.202,-0.459 0.452,-0.532c0.345,-0.101 0.693,-0.119 1.04,0.049c0.578,0.279 1.185,0.302 1.801,0.132c0.099,-0.027 0.198,-0.056 0.298,-0.071c0.32,-0.049 0.648,-0.077 0.546,-0.553c-0.012,-0.054 0.097,-0.134 0.199,-0.266c0.009,0.166 0.05,0.277 0.013,0.323c-0.228,0.276 0.026,0.366 0.164,0.526c0.11,0.128 0.184,0.298 0.238,0.462c0.122,0.369 0.416,0.633 0.84,0.6c0.215,-0.017 0.433,0.019 0.65,0.02c0.057,0 0.125,-0.028 0.169,-0.066c0.138,-0.119 0.266,-0.249 0.398,-0.375c0.022,0.013 0.045,0.026 0.067,0.039c-0.03,0.083 -0.04,0.185 -0.096,0.245c-0.085,0.093 -0.3,0.185 -0.287,0.228c0.043,0.154 0.129,0.334 0.255,0.42c0.332,0.227 0.645,0.467 0.923,0.759c0.13,0.137 0.307,0.126 0.461,0.01c0.12,-0.09 0.245,-0.18 0.34,-0.292c0.039,-0.046 0.006,-0.153 0.006,-0.221c0.419,0.045 0.853,0.105 1.247,0.407c0.277,0.213 0.65,0.068 0.971,-0.039c0.034,-0.011 0.04,-0.091 0.07,-0.131c0.065,-0.085 0.136,-0.164 0.245,-0.231c-0.018,0.302 0.121,0.423 0.367,0.51c0.168,0.059 0.316,0.197 0.45,0.324c0.216,0.205 0.425,0.299 0.673,0.019c0.023,0.034 0.045,0.067 0.068,0.101c-0.089,0.054 -0.179,0.109 -0.307,0.186c0.342,0.35 0.66,0.674 0.999,0.999c0.021,0 0.017,0.001 0.017,0.001Z" style="fill:#4ade80;fill-rule:nonzero;stroke:#22c55e;stroke-width:1px;"/></svg>