<?xml version="1.0" encoding="UTF-8" standalone="no"?><!DOCTYPE svg PUBLIC "-//W3C//DTD SVG 1.1//EN" "http://www.w3.org/Graphics/SVG/1.1/DTD/svg11.dtd"><svg width="100%" height="100%" viewBox="0 0 100 100" version="1.1" xmlns="http://www.w3.org/2000/svg" xmlns:xlink="http://www.w3.org/1999/xlink" xml:space="preserve" xmlns:serif="http://www.serif.com/" style="fill-rule:evenodd;clip-rule:evenodd;stroke-linejoin:round;stroke-miterlimit:2;"><rect id="_18_yamagata_tobishima" serif:id="18_yamagata_tobishima" x="0" y="0" width="100" height="100" style="fill:none;"/><path d="M23.629,94.897c-0.048,-0.08 -0.105,-0.183 -0.142,-0.177c-0.351,0.064 -0.581,-0.129 -0.806,-0.349c-0.324,0.115 -0.596,0.025 -0.847,-0.205c-0.062,-0.057 -0.191,-0.036 -0.28,-0.072c-0.283,-0.113 -0.563,-0.236 -0.844,-0.354c-0.051,-0.021 -0.105,-0.041 -0.16,-0.05c-0.15,-0.025 -0.336,0.003 -0.446,-0.075c-0.392,-0.277 -0.9,-0.211 -1.29,-0.47c-0.344,-0.228 -0.643,-0.881 -0.541,-1.174c-0.441,-0.364 -0.441,-0.367 -0.009,-0.852c0.15,-0.168 0.297,-0.34 0.458,-0.498c0.049,-0.048 0.135,-0.071 0.207,-0.08c0.429,-0.051 0.835,-0.156 1.143,-0.423c-0.278,-0.16 -0.565,-0.324 -0.992,-0.57c-0.196,-0.025 -0.607,0.028 -0.756,-0.487c-0.034,-0.116 -0.23,-0.177 -0.298,-0.294c-0.221,-0.38 -0.006,-0.862 0.428,-1.009c0.163,-0.055 0.324,-0.115 0.424,-0.151c0.088,-0.263 0.167,-0.485 0.234,-0.71c0.014,-0.048 -0.019,-0.11 -0.025,-0.165c-0.02,-0.17 -0.039,-0.34 -0.057,-0.503c-0.192,-0.199 -0.417,-0.434 -0.674,-0.701c-0.246,0.06 -0.408,-0.073 -0.628,-0.409c-0.123,-0.189 -0.373,-0.3 -0.576,-0.43c-1.022,-0.655 -1.735,-1.545 -2.133,-2.7c-0.09,-0.261 -0.278,-0.499 -0.458,-0.716c-0.734,-0.886 -1.53,-1.725 -2.206,-2.652c-0.377,-0.518 -0.611,-1.157 -0.826,-1.771c-0.316,-0.903 -0.638,-1.817 -0.805,-2.753c-0.157,-0.882 -0.141,-1.798 -0.156,-2.7c-0.02,-1.168 0.312,-2.27 0.728,-3.348c0.344,-0.892 0.678,-1.788 1.058,-2.665c0.371,-0.858 0.812,-1.685 1.188,-2.541c0.46,-1.044 0.905,-2.09 1.175,-3.214c0.189,-0.786 0.277,-1.574 0.406,-2.363c0.114,-0.691 -0.063,-1.295 -0.277,-1.898c-0.241,-0.681 -0.692,-1.237 -1.272,-1.681c-0.149,-0.114 -0.292,-0.238 -0.426,-0.37c-0.141,-0.138 -0.261,-0.14 -0.403,-0c-0.094,0.091 -0.206,0.168 -0.32,0.233c-0.259,0.148 -0.596,0.134 -0.703,0.554c-0.051,0.199 -0.411,0.323 -0.635,0.474c-0.108,0.073 -0.305,0.115 -0.323,0.2c-0.07,0.328 -0.337,0.411 -0.575,0.477c-0.304,0.084 -0.643,0.151 -0.943,0.096c-0.151,-0.028 -0.281,-0.329 -0.364,-0.53c-0.111,-0.269 0.002,-0.506 0.245,-0.662c-0.13,-0.144 -0.303,-0.271 -0.38,-0.441c-0.068,-0.149 -0.028,-0.348 -0.039,-0.598c-0.075,-0.115 -0.202,-0.311 -0.339,-0.521c0.172,-0.185 0.358,-0.368 0.048,-0.57c-0.019,-0.013 -0.014,-0.063 -0.021,-0.095c-0.074,-0.33 0.105,-0.642 0.058,-0.983c-0.023,-0.164 0.185,-0.36 0.309,-0.578c-0.215,-0.502 -0.086,-1.069 -0.006,-1.666c-0.228,-0.187 -0.226,-0.324 0.001,-0.586c0.218,-0.252 0.459,-0.392 0.81,-0.368c0.27,0.018 0.546,-0.031 0.818,-0.065c0.064,-0.008 0.121,-0.073 0.18,-0.114c0.139,-0.095 0.359,-0.299 0.401,-0.267c0.197,0.149 0.403,0.34 0.491,0.561c0.074,0.185 0.038,0.353 0.319,0.398c0.242,0.039 0.453,0.201 0.46,0.52c0.002,0.085 0.125,0.203 0.22,0.244c0.283,0.122 0.626,0.169 0.522,0.618c-0.009,0.037 0.061,0.114 0.112,0.141c0.412,0.22 0.454,0.407 0.142,0.824c0.32,0.114 0.547,0.351 0.96,0.279c0.877,-0.155 1.697,-0.415 2.402,-0.966c0.513,-0.401 1.005,-0.831 1.497,-1.259c0.974,-0.847 1.729,-1.888 2.554,-2.868c0.473,-0.563 1.09,-1.002 1.586,-1.549c0.802,-0.885 1.827,-1.448 2.817,-2.068c0.509,-0.319 1.017,-0.642 1.519,-0.973c0.853,-0.563 1.777,-0.995 2.766,-1.207c0.592,-0.127 1.236,0.005 1.853,-0.034c0.833,-0.053 1.648,-0.166 2.36,-0.7c0.35,-0.262 0.801,-0.39 1.208,-0.575c1.011,-0.462 1.883,-1.102 2.561,-1.993c0.472,-0.621 0.931,-1.254 1.441,-1.842c0.365,-0.42 0.801,-0.779 1.213,-1.158c0.177,-0.163 0.172,-0.276 -0.019,-0.434c-0.293,-0.243 -0.197,-0.607 0.161,-0.752c0.097,-0.039 0.152,-0.174 0.244,-0.241c0.143,-0.103 0.292,-0.214 0.455,-0.267c0.149,-0.048 0.284,0.007 0.381,-0.222c0.063,-0.147 0.384,-0.201 0.599,-0.261c0.145,-0.041 0.328,0.025 0.288,-0.248c-0.009,-0.064 0.139,-0.166 0.231,-0.226c0.2,-0.132 0.397,-0.308 0.62,-0.359c0.583,-0.132 0.714,-0.668 0.998,-1.053c0.408,-0.552 0.796,-1.126 1.128,-1.726c0.302,-0.546 0.521,-1.138 0.773,-1.71c0.308,-0.697 0.402,-1.43 0.412,-2.187c0.007,-0.587 -0.197,-1.078 -0.559,-1.51c-0.569,-0.68 -1.177,-1.328 -1.727,-2.022c-0.239,-0.302 -0.385,-0.68 -0.556,-1.031c-0.328,-0.674 -0.676,-1.341 -0.951,-2.036c-0.174,-0.44 -0.281,-0.921 -0.333,-1.392c-0.084,-0.774 -0.085,-1.556 -0.147,-2.332c-0.034,-0.426 -0.16,-0.846 -0.175,-1.271c-0.012,-0.328 0.085,-0.66 0.126,-0.941c-0.164,-0.138 -0.339,-0.277 -0.501,-0.43c-0.039,-0.037 -0.069,-0.15 -0.046,-0.178c0.197,-0.231 0.384,-0.484 0.625,-0.66c0.138,-0.1 0.304,-0.104 0.255,-0.342c-0.015,-0.075 0.075,-0.171 0.138,-0.299c-0.604,-0.021 -0.477,-0.59 -0.669,-0.919c-0.142,-0.244 0.196,-0.447 0.275,-0.657c0.114,-0.306 0.225,-0.428 0.53,-0.449c0.09,-0.006 0.178,-0.125 0.255,-0.203c0.17,-0.172 0.332,-0.35 0.546,-0.577c-0.027,-0.372 0.088,-0.52 0.664,-0.739c-0.264,-0.354 -0.139,-0.636 0.364,-0.817c-0.134,-0.333 0.075,-0.604 0.509,-0.658c0.059,-0.335 0.509,-0.583 0.896,-0.5c0.076,0.016 0.187,0.032 0.233,-0.008c0.296,-0.254 0.59,-0.173 0.891,-0.024c0.053,0.026 0.135,0.078 0.162,0.059c0.419,-0.294 0.62,0.033 0.852,0.29c-0.09,0.146 -0.19,0.286 -0.259,0.44c-0.014,0.032 0.088,0.117 0.138,0.18c0.078,-0.032 0.151,-0.052 0.213,-0.09c0.303,-0.188 0.546,-0.094 0.654,0.239c0.028,0.086 0.11,0.17 0.19,0.219c0.234,0.145 0.35,0.476 0.201,0.687c0.36,0.09 0.453,0.344 0.419,0.678c-0.013,0.13 -0.017,0.232 0.111,0.362c0.133,0.134 0.241,0.349 0.179,0.616c-0.035,0.149 0.139,0.347 0.219,0.523c0.352,0.036 0.737,-0.023 0.963,0.364c0.026,0.045 0.15,0.067 0.214,0.049c0.353,-0.105 0.621,-0.008 0.83,0.293c0.027,0.039 0.123,0.058 0.177,0.045c0.389,-0.091 0.695,0.017 0.924,0.349c0.021,0.031 0.106,0.054 0.136,0.037c0.388,-0.223 0.649,0.046 0.935,0.229c0.057,0.037 0.151,0.09 0.191,0.069c0.219,-0.119 0.401,-0.045 0.589,0.067c0.19,0.113 0.386,0.216 0.633,0.354c0.296,-0.151 0.756,0.008 0.819,0.337c0.226,0.031 0.448,0.04 0.655,0.099c0.129,0.037 0.319,0.072 0.283,0.301c-0.003,0.021 0.128,0.101 0.176,0.086c0.35,-0.103 0.524,0.107 0.704,0.348c0.06,0.081 0.187,0.165 0.28,0.162c0.373,-0.015 0.761,0.226 0.866,0.503c0.267,0.128 0.484,0.2 0.66,0.328c0.105,0.076 0.198,0.237 0.205,0.366c0.012,0.207 0.063,0.338 0.249,0.454c0.443,0.278 0.879,0.57 1.291,0.891c0.188,0.146 0.321,0.094 0.479,0.002c0.292,-0.17 0.581,-0.345 0.902,-0.536c0.433,0.41 0.854,0.823 1.293,1.216c0.083,0.074 0.233,0.074 0.352,0.108c0.07,0.02 0.156,0.022 0.208,0.065c0.922,0.766 1.839,1.537 2.794,2.336c-0.586,0.343 -1.147,0.671 -1.649,0.965c0.349,0.441 0.702,0.885 1.018,1.285c0.593,-0.266 0.593,-0.266 1.158,0.376c-0.118,0.103 -0.237,0.207 -0.388,0.339c0.353,0.304 0.695,0.613 1.051,0.904c0.553,0.453 1.095,0.923 1.682,1.329c0.387,0.268 0.843,0.438 1.27,0.646c0.105,0.051 0.22,0.083 0.378,0.141c0.372,-0.551 0.757,-1.122 1.153,-1.709c0.216,0.127 0.34,0.064 0.496,-0.145c0.279,-0.373 0.628,-0.694 0.972,-1.063c0.289,0.162 0.581,0.326 0.884,0.496c-0.403,0.469 -0.783,0.912 -1.164,1.355c0.599,0.357 0.583,0.184 0.179,0.806c-0.088,0.135 -0.2,0.255 -0.308,0.39c0.999,0.534 1.991,1.064 3.018,1.613c0.126,-0.174 0.245,-0.389 0.415,-0.55c0.097,-0.092 0.306,-0.167 0.418,-0.125c0.532,0.199 1.036,0.479 1.574,0.655c0.348,0.113 0.397,0.355 0.46,0.629c0.031,0.135 0.054,0.272 0.083,0.417c0.125,0 0.235,0.027 0.324,-0.004c0.487,-0.169 0.901,-0.018 1.294,0.264c0.188,0.134 0.372,0.289 0.582,0.373c0.555,0.221 0.947,0.636 1.372,1.029c0.771,0.714 1.49,1.495 2.416,2.023c0.783,0.447 1.555,0.912 2.506,0.932c0.378,0.008 0.766,0.089 1.128,0.204c0.426,0.136 0.718,0.47 0.775,0.911c0.087,0.676 0.299,1.323 0.65,1.874c0.278,0.436 0.769,0.738 1.172,1.091c0.852,0.744 1.729,1.461 2.556,2.233c0.487,0.455 0.432,1.074 0.302,1.675c-0.155,0.72 -0.608,1.227 -1.18,1.653c-0.512,0.382 -1.061,0.729 -1.509,1.177c-0.932,0.933 -0.594,1.539 0.235,2.258c0.038,0.033 0.141,0.045 0.176,0.018c0.218,-0.166 0.403,-0.02 0.605,0.036c0.212,0.058 0.433,0.087 0.651,0.127c0.216,0.039 0.244,0.125 0.26,0.373c0.036,0.53 -0.295,0.698 -0.643,0.902c-0.055,0.032 -0.119,0.086 -0.136,0.143c-0.145,0.467 -0.5,0.635 -0.941,0.736c-0.158,0.036 -0.27,0.269 -0.428,0.309c-0.426,0.107 -0.736,0.381 -1.072,0.629c-0.341,0.252 -0.673,0.554 -1.06,0.695c-0.416,0.151 -0.799,0.454 -1.312,0.348c-0.315,-0.065 -0.713,-0.079 -0.979,0.062c-0.327,0.173 -0.778,0.044 -1.016,0.459c-0.076,0.133 -0.363,0.148 -0.555,0.211c-0.18,0.059 -0.363,0.105 -0.543,0.164c-0.388,0.126 -0.932,-0.212 -0.984,-0.564c-0.029,-0.197 0.014,-0.443 0.116,-0.611c0.104,-0.17 0.321,-0.27 0.524,-0.428c0.147,-0.58 -0.147,-0.951 -0.731,-1.2c-0.572,-0.244 -1.14,-0.482 -1.773,-0.422c-0.774,0.072 -1.441,0.337 -1.802,1.102c-0.057,0.12 -0.179,0.21 -0.273,0.312c-0.029,0.032 -0.097,0.078 -0.093,0.085c0.146,0.239 -0.169,0.503 0.044,0.743c0.051,0.057 0.031,0.175 0.078,0.239c0.07,0.095 0.157,0.2 0.261,0.244c0.318,0.133 0.648,0.235 0.97,0.36c0.05,0.02 0.099,0.094 0.112,0.152c0.126,0.572 -0.244,1.051 -0.821,1.096c-0.16,0.013 -0.327,0.063 -0.47,0.136c-0.245,0.125 -0.394,-0.023 -0.413,-0.199c-0.021,-0.2 -0.162,-0.199 -0.26,-0.281c-0.132,-0.111 -0.263,-0.229 -0.368,-0.364c-0.147,-0.19 -0.268,-0.4 -0.415,-0.622c-0.26,0.227 -0.483,0.421 -0.683,0.595c0.107,0.305 0.215,0.584 0.301,0.871c0.051,0.169 -0.275,0.43 -0.464,0.376c-0.327,-0.093 -0.634,-0.151 -0.963,0.045c-0.119,0.071 -0.365,0.038 -0.498,-0.041c-0.447,-0.264 -0.88,-0.556 -1.298,-0.864c-0.246,-0.182 -0.208,-0.409 0.042,-0.575c0.074,-0.049 0.115,-0.146 0.188,-0.198c0.139,-0.099 0.331,-0.288 0.425,-0.25c0.205,0.082 0.233,-0.074 0.344,-0.13c0.301,-0.152 0.616,-0.275 0.953,-0.42c-0.034,-0.234 -0.217,-0.339 -0.556,-0.323c-0.929,0.043 -1.861,0.043 -2.791,0.071c-0.39,0.011 -0.779,0.043 -1.167,0.076c-0.079,0.007 -0.16,0.054 -0.23,0.098c-0.056,0.035 -0.088,0.113 -0.145,0.139c-0.676,0.302 -0.59,0.923 -0.666,1.499c-0.105,0.798 -0.24,1.608 -0.787,2.248c-0.374,0.437 -0.86,0.725 -1.455,0.741c-0.25,0.007 -0.264,0.165 -0.329,0.33c-0.05,0.128 -0.144,0.326 -0.233,0.334c-0.149,0.014 -0.357,-0.057 -0.455,-0.167c-0.223,-0.252 -0.381,-0.56 -0.594,-0.822c-0.056,-0.068 -0.238,-0.104 -0.325,-0.067c-1.514,0.649 -3.022,1.312 -4.531,1.973c-0.539,0.236 -0.537,0.235 -0.894,-0.226c-0.06,-0.078 -0.146,-0.136 -0.219,-0.202c-1.061,0.549 -2.111,1.093 -3.178,1.645c-0.082,-0.067 -0.163,-0.133 -0.275,-0.224c-0.377,0.41 -0.756,0.823 -1.164,1.267c0.253,0.055 0.463,0.101 0.669,0.146c-0.025,0.482 -0.368,0.368 -0.606,0.275c-0.288,-0.111 -0.41,0.058 -0.553,0.216c-0.086,0.095 -0.144,0.217 -0.237,0.362l0.611,0c-0.132,0.401 -0.521,0.718 -0.854,0.721c-0.18,0.002 -0.427,-0.071 -0.528,0.019c-0.249,0.223 -0.531,0.491 -0.622,0.795c-0.322,1.069 -1.106,1.557 -2.082,1.901c-0.902,0.318 -1.774,0.721 -2.667,1.065c-0.358,0.138 -0.304,0.439 -0.341,0.705c-0.054,0.391 -0.088,0.785 -0.133,1.202c-0.556,0 -1.075,0.029 -1.589,-0.008c-0.469,-0.034 -0.861,0.116 -1.254,0.337c-0.459,0.258 -0.935,0.486 -1.394,0.744c-0.121,0.068 -0.241,0.179 -0.303,0.301c-0.39,0.763 -0.773,1.53 -1.138,2.305c-0.355,0.756 -0.933,1.304 -1.58,1.802c-0.697,0.537 -1.382,1.088 -2.073,1.632c-0.483,0.381 -0.967,0.761 -1.45,1.142c-0.067,0.053 -0.13,0.111 -0.214,0.182c0.106,0.062 0.187,0.109 0.288,0.168c-0.402,0.833 -0.806,1.67 -1.24,2.569c0.526,0.163 1.045,0.323 1.597,0.494c-0.468,1.098 -0.921,2.157 -1.369,3.218c-0.077,0.182 -0.162,0.239 -0.376,0.172c-0.653,-0.204 -1.315,-0.377 -1.974,-0.559c-0.188,-0.052 -0.31,-0.01 -0.36,0.212c-0.206,0.914 -0.426,1.824 -0.639,2.737c-0.252,1.079 -0.501,2.158 -0.758,3.262c0.472,0.059 0.916,0.115 1.412,0.177c-0.023,0.255 -0.045,0.502 -0.068,0.765l-0.597,0c-0.076,0.638 -0.089,1.275 -0.241,1.877c-0.143,0.565 0.154,0.775 0.533,1.039c0.487,0.339 0.957,0.712 1.389,1.119c0.348,0.328 0.715,0.146 1.064,0.119c0.532,-0.041 1.056,-0.177 1.588,-0.235c0.101,-0.011 0.235,0.144 0.33,0.244c0.136,0.144 0.251,0.308 0.398,0.493c0.138,-0.168 0.234,-0.404 0.382,-0.442c0.393,-0.1 0.696,-0.354 1.05,-0.514c0.164,-0.074 0.325,-0.156 0.488,-0.232c0.088,-0.041 0.178,-0.11 0.267,-0.109c0.284,0.004 0.471,-0.156 0.703,-0.285c0.37,-0.205 0.816,-0.329 1.263,-0.24c0.447,0.09 0.887,0.211 1.328,0.328c0.081,0.021 0.17,0.07 0.223,0.134c0.502,0.593 0.778,1.018 0.433,1.935c-0.202,0.538 -0.62,0.843 -1.028,0.956c-0.377,0.104 -0.671,0.294 -0.991,0.462c-0.232,0.121 -0.413,0.344 -0.647,0.457c-0.281,0.135 -0.595,0.202 -0.92,0.306c0.054,0.186 0.042,0.448 0.291,0.598c0.009,0.006 0.017,0.015 0.023,0.024c0.089,0.147 0.017,0.752 -0.112,0.87c-0.168,0.152 -0.335,0.307 -0.52,0.435c-0.082,0.056 -0.244,0.104 -0.305,0.062c-0.222,-0.152 -0.374,-0.011 -0.558,0.066c-0.36,0.149 -0.728,0.282 -1.097,0.409c-0.079,0.027 -0.183,0.023 -0.264,-0.003c-0.286,-0.093 -0.521,-0.267 -0.877,-0.231c-0.201,0.021 -0.444,-0.312 -0.658,-0.497c-0.304,-0.262 -0.592,-0.544 -0.9,-0.801c-0.279,-0.233 -0.724,-0.955 -0.751,-1.281c-0.23,-0.014 -0.462,-0.039 -0.695,-0.039c-0.51,0 -0.8,-0.372 -1.136,-0.661c-0.19,-0.163 -0.384,-0.246 -0.645,-0.274c-0.564,-0.061 -1.121,-0.191 -1.681,-0.291c-0.938,-0.169 -1.868,-0.336 -2.795,0.092c-0.501,0.232 -0.923,0.537 -1.213,0.956c0.19,0.344 0.423,0.66 0.537,1.014c0.07,0.218 0.005,0.51 -0.08,0.739c-0.12,0.324 -0.302,0.353 -0.594,0.161c-0.146,-0.096 -0.288,-0.199 -0.435,-0.301c-0.164,0.111 -0.317,0.214 -0.465,0.315c0.208,0.319 0.415,0.635 0.63,0.964c-0.126,0.188 -0.132,0.56 -0.543,0.5c-0.117,0.358 -0.453,0.358 -0.734,0.433c-0.092,0.024 -0.203,-0.021 -0.305,-0.039c-0.047,-0.008 -0.107,-0.052 -0.137,-0.036c-0.385,0.206 -0.736,0.073 -1.085,-0.097c-0.028,-0.014 -0.072,-0.022 -0.098,-0.009c-0.359,0.172 -0.677,0.054 -0.986,-0.134c-0.038,-0.023 -0.076,-0.084 -0.103,-0.078c-0.406,0.09 -0.639,-0.116 -0.856,-0.429c-0.074,-0.107 -0.297,-0.102 -0.442,-0.171c-0.056,-0.027 -0.083,-0.116 -0.123,-0.203Z" style="fill:#4ade80;fill-rule:nonzero;stroke:#22c55e;stroke-width:1px;"/></svg>