<?xml version="1.0" encoding="UTF-8" standalone="no"?><!DOCTYPE svg PUBLIC "-//W3C//DTD SVG 1.1//EN" "http://www.w3.org/Graphics/SVG/1.1/DTD/svg11.dtd"><svg width="100%" height="100%" viewBox="0 0 100 100" version="1.1" xmlns="http://www.w3.org/2000/svg" xmlns:xlink="http://www.w3.org/1999/xlink" xml:space="preserve" xmlns:serif="http://www.serif.com/" style="fill-rule:evenodd;clip-rule:evenodd;stroke-linejoin:round;stroke-miterlimit:2;"><rect id="_19_chiba_niemonjima" serif:id="19_chiba_niemonjima" x="0" y="0" width="100" height="100" style="fill:none;"/><path d="M70.86,61.553c0,0 -0.017,0.015 -0.041,0.035c-0.037,0.06 -0.05,0.1 -0.062,0.14c0,0 0.006,0.001 -0.015,-0.017c-0.152,0.141 -0.283,0.3 -0.414,0.458c0,0 -0,-0.002 -0.017,-0c-0.026,0.022 -0.036,0.042 -0.045,0.063c0,0 -0,-0.003 -0.017,-0c-0.026,0.022 -0.036,0.042 -0.045,0.063c0,0 -0.001,-0.003 -0.017,-0c-0.026,0.022 -0.036,0.043 -0.045,0.063c0,0 -0.001,-0.003 -0.017,-0c-0.026,0.022 -0.035,0.043 -0.045,0.063c0,0 -0.001,-0.003 -0.017,-0c-0.026,0.022 -0.035,0.043 -0.045,0.063c0,0 -0.001,-0.003 -0.02,0.002c-0.048,0.065 -0.076,0.125 -0.105,0.185c0,0 -0.001,-0.003 -0.02,0.002c-0.048,0.065 -0.076,0.125 -0.104,0.185c0,0 -0.001,-0.003 -0.02,0.002c-0.048,0.065 -0.076,0.125 -0.104,0.185c0,0 -0.001,-0.003 -0.02,0.002c-0.048,0.065 -0.076,0.125 -0.104,0.185c0,0 -0.001,-0.003 -0.02,0.002c-0.048,0.065 -0.076,0.125 -0.104,0.185c0,0 -0.001,-0.003 -0.02,0.002c-0.048,0.065 -0.076,0.125 -0.104,0.185c0,0 -0.001,-0.003 -0.02,0.002c-0.048,0.065 -0.076,0.125 -0.104,0.185c0,0 -0.001,-0.003 -0.024,0.005c-0.049,0.102 -0.096,0.196 -0.098,0.29c-0.008,0.425 0.012,0.851 -0.009,1.275c-0.015,0.308 -0.077,0.614 -0.118,0.922c0,0 -0.001,-0.003 -0.021,0.002c-0.068,0.085 -0.117,0.166 -0.166,0.247c0,0 -0.001,-0.003 -0.021,0.002c-0.068,0.085 -0.117,0.166 -0.166,0.247c0,-0 -0.001,-0.003 -0.021,0.002c-0.068,0.086 -0.117,0.166 -0.166,0.247c0,0 -0.001,-0.003 -0.021,0.002c-0.068,0.085 -0.117,0.166 -0.166,0.247c0,0 -0.001,-0.003 -0.02,0.002c-0.048,0.065 -0.076,0.125 -0.105,0.185c0,0 -0,-0.002 -0.017,-0c-0.026,0.022 -0.036,0.043 -0.045,0.063c0,0 -0.001,-0.003 -0.02,0.002c-0.152,0.148 -0.284,0.291 -0.416,0.435c0,0 -0.001,-0.003 -0.017,-0.001c-0.026,0.022 -0.035,0.043 -0.045,0.063c0,0 -0.001,-0.003 -0.017,-0c-0.026,0.022 -0.036,0.043 -0.045,0.063c0,0 -0.001,-0.003 -0.021,-0.002c-0.131,0.105 -0.242,0.21 -0.352,0.314c0,0 -0.001,-0.003 -0.017,-0.001c-0.026,0.022 -0.035,0.043 -0.045,0.063c0,0 -0.001,-0.003 -0.017,-0c-0.026,0.022 -0.036,0.043 -0.045,0.063c0,0 -0.001,-0.003 -0.021,-0.002c-0.131,0.105 -0.242,0.21 -0.352,0.314c0,0 -0.001,-0.003 -0.017,-0.001c-0.026,0.022 -0.035,0.042 -0.045,0.063c0,0 -0.001,-0.003 -0.017,-0c-0.026,0.022 -0.036,0.043 -0.045,0.063c0,0 -0.001,-0.003 -0.021,-0.002c-0.131,0.105 -0.242,0.21 -0.352,0.314c0,0 -0.001,-0.003 -0.017,-0.001c-0.026,0.022 -0.035,0.042 -0.045,0.063c0,0 -0.001,-0.003 -0.017,-0c-0.026,0.022 -0.036,0.043 -0.045,0.063c0,0 -0.001,-0.003 -0.022,-0.002c-0.29,0.157 -0.474,0.377 -0.539,0.688c0,0 -0,-0.003 -0.019,0.002c-0.027,0.044 -0.035,0.083 -0.043,0.122c0,0 -0,-0.002 -0.021,0.003c-0.131,0.231 -0.242,0.457 -0.353,0.682c0,0 -0,-0.002 -0.02,0.003c-0.11,0.169 -0.2,0.332 -0.291,0.496c0,0 -0.001,-0.003 -0.021,0.002c-0.069,0.106 -0.117,0.208 -0.166,0.309c0,0 -0.001,-0.003 -0.02,0.002c-0.048,0.065 -0.076,0.125 -0.105,0.185c0,0 -0.001,-0.002 -0.021,-0.002c-0.09,0.063 -0.159,0.127 -0.228,0.19c0,0 -0.001,-0.003 -0.017,-0.001c-0.026,0.022 -0.036,0.042 -0.045,0.063c0,0 -0.001,-0.003 -0.021,-0.003c-0.11,0.084 -0.2,0.168 -0.29,0.252c0,0 -0.001,-0.003 -0.017,-0.001c-0.026,0.022 -0.036,0.042 -0.045,0.062c0,0 -0.001,-0.003 -0.021,-0.002c-0.09,0.063 -0.159,0.127 -0.228,0.19c0,0 -0.001,-0.003 -0.017,-0.001c-0.026,0.022 -0.036,0.042 -0.045,0.063c0,0 -0.001,-0.003 -0.017,-0c-0.026,0.022 -0.036,0.042 -0.046,0.063c-0,0 -0,-0.002 -0.02,-0.002c-0.09,0.063 -0.159,0.126 -0.228,0.19c0,0 -0.001,-0.003 -0.017,-0.001c-0.026,0.022 -0.036,0.042 -0.045,0.063c0,0 -0.001,-0.003 -0.023,-0.002c-0.072,0.061 -0.122,0.122 -0.172,0.182c0,0 0.006,0.003 -0.013,-0.015c-0.047,0.016 -0.075,0.05 -0.104,0.084c0,0 -0,-0.003 -0.017,-0.001c-0.026,0.022 -0.036,0.042 -0.046,0.062c0,0 -0,-0.003 -0.022,-0.002c-0.072,0.061 -0.122,0.122 -0.172,0.183c-0,0 0.005,0.004 -0.019,-0.008c-0.03,0.015 -0.036,0.043 -0.042,0.07c0,0 0.006,0.003 -0.015,-0.015c-0.132,0.12 -0.242,0.258 -0.352,0.396c0,0 -0.001,-0.002 -0.029,-0.003c-0.879,-0 -1.729,0.013 -2.579,-0.009c-0.244,-0.006 -0.505,-0.072 -0.724,-0.18c-0.614,-0.303 -1.234,-0.52 -1.936,-0.439c-0.396,0.046 -0.813,-0.018 -1.195,0.075c-0.822,0.199 -1.622,0.494 -2.443,0.699c-0.774,0.193 -1.558,0.402 -2.349,0.458c-1.094,0.078 -2.197,0.022 -3.297,0.016c-0.128,-0.001 -0.261,-0.035 -0.382,-0.082c-0.452,-0.173 -0.886,-0.42 -1.353,-0.521c-0.664,-0.143 -1.353,-0.166 -2.026,-0.273c-0.322,-0.051 -0.752,0.081 -0.89,-0.403c-0.005,-0.018 -0.074,-0.017 -0.113,-0.025c0,0 0.003,-0.001 -0.002,-0.02c-0.065,-0.048 -0.125,-0.076 -0.185,-0.104c0,0 0.003,-0.001 -0.002,-0.021c-0.169,-0.11 -0.332,-0.201 -0.496,-0.291c0,0 0.002,-0 -0.002,-0.02c-0.065,-0.048 -0.125,-0.076 -0.185,-0.104c0,0 0.003,-0.001 -0.002,-0.02c-0.065,-0.048 -0.125,-0.076 -0.185,-0.104c0,0 0.003,-0.001 -0.003,-0.022c-0.106,-0.371 -0.199,-0.723 -0.307,-1.07c-0.095,-0.304 -0,-0.674 -0.313,-0.902c0,0 0.003,-0 0.003,-0.022c-0.105,-0.173 -0.209,-0.325 -0.314,-0.476c-0,0 0.003,-0.001 0.001,-0.017c-0.022,-0.026 -0.043,-0.035 -0.063,-0.045c0,0 0.003,-0.001 -0.002,-0.02c-0.085,-0.069 -0.166,-0.118 -0.247,-0.167c0,0 0.002,-0 0,-0.017c-0.022,-0.026 -0.042,-0.036 -0.063,-0.045c0,0 0.003,-0.001 -0.004,-0.022c-0.058,-0.049 -0.108,-0.085 -0.163,-0.103c-0.851,-0.272 -1.713,-0.511 -2.55,-0.82c-0.981,-0.362 -1.946,-0.769 -2.903,-1.189c-0.263,-0.115 -0.409,-0.088 -0.543,0.143c0,0 -0.001,-0.003 -0.017,-0.001c-0.026,0.022 -0.036,0.042 -0.045,0.063c0,0 -0.001,-0.003 -0.021,-0.003c-0.11,0.084 -0.2,0.168 -0.29,0.252c0,0 -0.001,-0.003 -0.017,-0.001c-0.026,0.022 -0.036,0.042 -0.045,0.063c0,0 -0.001,-0.003 -0.017,-0c-0.026,0.022 -0.036,0.043 -0.045,0.063c0,0 -0.001,-0.003 -0.021,0.003c-0.069,0.127 -0.118,0.249 -0.166,0.371c0,0 -0,-0.002 -0.019,0.002c-0.027,0.044 -0.035,0.083 -0.043,0.122c0,0 -0,-0.002 -0.022,0.004c-0.208,0.064 -0.395,0.121 -0.581,0.181c-0.256,0.083 -0.511,0.168 -0.767,0.252c0,0 -0.001,-0.003 -0.017,-0.001c-0.026,0.022 -0.036,0.042 -0.045,0.063c0,0 -0.001,-0.003 -0.021,-0.002c-0.09,0.063 -0.159,0.127 -0.228,0.19c0,0 -0,-0.003 -0.017,-0.001c-0.026,0.022 -0.036,0.042 -0.045,0.063c0,0 -0.001,-0.003 -0.017,-0c-0.026,0.022 -0.036,0.042 -0.046,0.063c0,0 -0,-0.002 -0.024,-0.002c-0.756,0.236 -1.495,0.443 -2.268,0.498c-0.541,0.039 -1.083,0.074 -1.622,0.132c-0.113,0.012 -0.215,0.119 -0.322,0.183c0,0 -0,-0.003 -0.017,-0c-0.026,0.022 -0.035,0.042 -0.045,0.063c0,0 -0.001,-0.003 -0.017,-0c-0.026,0.022 -0.036,0.042 -0.046,0.063c0,0 -0,-0.002 -0.024,-0.002c-0.481,0.104 -0.937,0.277 -1.398,0.295c-0.843,0.033 -1.689,-0.024 -2.533,-0.05c-0.108,-0.003 -0.22,-0.037 -0.321,-0.079c-0.634,-0.26 -1.265,-0.526 -1.897,-0.791c-0.539,-0.226 -1.06,-0.524 -1.621,-0.664c-0.772,-0.193 -1.574,-0.267 -2.364,-0.392c0,0 0.003,-0.001 -0.002,-0.021c-0.065,-0.048 -0.125,-0.076 -0.185,-0.105c0,0 0.002,-0.001 0,-0.017c-0.022,-0.026 -0.043,-0.036 -0.063,-0.045c0,0 0.003,-0.001 -0.002,-0.02c-0.065,-0.048 -0.125,-0.076 -0.185,-0.104c0,0 0.003,-0.001 -0.002,-0.02c-0.085,-0.068 -0.166,-0.117 -0.247,-0.166c0,0 0.003,-0.001 -0.002,-0.02c-0.065,-0.048 -0.125,-0.076 -0.185,-0.105c0,0 0.002,-0 0,-0.017c-0.022,-0.026 -0.043,-0.036 -0.063,-0.045c0,0 0.003,-0.001 -0.002,-0.02c-0.065,-0.048 -0.125,-0.076 -0.185,-0.104c0,0 0.003,-0.001 -0.002,-0.02c-0.085,-0.069 -0.166,-0.117 -0.247,-0.166c0,0 0.003,-0.001 -0.002,-0.02c-0.085,-0.068 -0.166,-0.117 -0.247,-0.166c0,0 0.003,-0.001 -0.002,-0.02c-0.065,-0.048 -0.125,-0.076 -0.185,-0.105c0,0 0.002,-0.001 -0.002,-0.02c-0.085,-0.069 -0.166,-0.118 -0.247,-0.167c0,0 0.003,-0.001 -0.002,-0.02c-0.085,-0.068 -0.166,-0.117 -0.247,-0.166c0,0 0.003,-0.001 -0.002,-0.02c-0.065,-0.048 -0.125,-0.076 -0.185,-0.105c0,0 0.002,-0.001 0,-0.017c-0.022,-0.026 -0.043,-0.036 -0.063,-0.045c0,0 0.003,-0.001 -0.003,-0.021c-0.626,-0.298 -1.246,-0.574 -1.866,-0.851c0,0 0.002,-0 0,-0.017c-0.022,-0.026 -0.043,-0.036 -0.063,-0.045c0,-0 0.003,-0.001 0,-0.017c-0.022,-0.026 -0.043,-0.036 -0.063,-0.045c0,0 0.003,-0.001 -0.002,-0.02c-0.085,-0.069 -0.166,-0.118 -0.247,-0.167c0,0 0.003,-0.001 0,-0.017c-0.022,-0.026 -0.043,-0.036 -0.063,-0.045c0,0 0.003,-0.001 -0.002,-0.02c-0.106,-0.089 -0.208,-0.159 -0.309,-0.229c0,0 0.003,-0.001 0,-0.017c-0.022,-0.026 -0.043,-0.035 -0.063,-0.045c0,0 0.003,-0.001 -0.002,-0.02c-0.085,-0.069 -0.166,-0.118 -0.247,-0.167c0,0 0.002,-0 0,-0.017c-0.022,-0.026 -0.043,-0.036 -0.063,-0.045c-0,0 0.003,-0.001 0,-0.017c-0.022,-0.026 -0.043,-0.036 -0.063,-0.045c0,0 0.003,-0.001 -0.002,-0.02c-0.085,-0.069 -0.166,-0.118 -0.247,-0.167c0,0 0.003,-0.001 0,-0.017c-0.022,-0.026 -0.043,-0.036 -0.063,-0.045c0,-0 0.003,-0.001 -0.002,-0.02c-0.106,-0.089 -0.208,-0.159 -0.309,-0.229c0,0 0.003,-0.001 0,-0.017c-0.022,-0.026 -0.043,-0.035 -0.063,-0.045c0,0 0.003,-0.001 -0.002,-0.02c-0.085,-0.069 -0.166,-0.118 -0.247,-0.167c0,0 0.002,-0 0,-0.017c-0.022,-0.026 -0.043,-0.036 -0.063,-0.045c0,0 0.003,-0.001 0,-0.017c-0.022,-0.026 -0.043,-0.035 -0.063,-0.045c0,0 0.003,-0.001 -0.002,-0.02c-0.085,-0.069 -0.166,-0.118 -0.247,-0.167c0,-0 0.003,-0.001 0,-0.017c-0.022,-0.026 -0.043,-0.036 -0.063,-0.045c0,0 0.003,-0.001 -0.003,-0.022c-0.042,-0.03 -0.079,-0.039 -0.116,-0.049c0,0 -0.002,0.006 0.016,-0.015c-0.058,-0.069 -0.133,-0.116 -0.209,-0.164c0,0 0.003,-0.001 0,-0.017c-0.022,-0.026 -0.043,-0.035 -0.063,-0.045c0,0 0.003,-0.001 -0.002,-0.02c-0.085,-0.069 -0.166,-0.118 -0.247,-0.167c-0,0 0.002,-0 0,-0.017c-0.022,-0.026 -0.042,-0.036 -0.063,-0.045c0,0 0.003,-0.001 -0.003,-0.021c-0.501,-0.256 -0.997,-0.491 -1.492,-0.727c0,0 0.003,-0 0.002,-0.022c-0.084,-0.152 -0.168,-0.283 -0.252,-0.414c0,0 0.003,-0 0.002,-0.022c-0.084,-0.152 -0.168,-0.283 -0.252,-0.414c0,0 0.003,-0 0.003,-0.022c-0.084,-0.152 -0.168,-0.283 -0.252,-0.414c0,0 0.003,-0 0.003,-0.022c-0.084,-0.152 -0.168,-0.283 -0.252,-0.414c0,0 0.003,-0 0.003,-0.021c-0.063,-0.111 -0.126,-0.201 -0.189,-0.29c0,0 0.002,0 0.002,-0.023c-0.287,-0.692 -0.471,-1.373 -0.448,-2.119c0.019,-0.611 -0.064,-1.225 -0.115,-1.837c-0.026,-0.316 -0.081,-0.63 -0.123,-0.946c0,0 0.001,0.003 0.021,-0.002c0.069,-0.106 0.118,-0.208 0.167,-0.309c-0,0 0,0.002 0.02,-0.002c0.048,-0.065 0.076,-0.125 0.105,-0.185c0,0 0.001,0.003 0.02,-0.002c0.048,-0.065 0.076,-0.125 0.104,-0.185c0,0 0.001,0.003 0.021,-0.002c0.11,-0.169 0.201,-0.332 0.291,-0.496c0,0 0,0.002 0.02,-0.002c0.048,-0.065 0.076,-0.125 0.104,-0.185c-0,0 0.001,0.003 0.02,-0.002c0.048,-0.065 0.076,-0.125 0.104,-0.185c-0,0 0.001,0.003 0.021,-0.002c0.069,-0.106 0.118,-0.208 0.166,-0.309c-0,0 0,0.002 0.02,-0.002c0.048,-0.065 0.076,-0.125 0.104,-0.185c0,0 0.001,0.003 0.021,-0.003c0.215,-0.477 0.489,-0.934 0.581,-1.424c0.101,-0.537 -0.068,-1.121 0.269,-1.625c0,0 0.001,0.003 0.02,-0.002c0.131,-0.148 0.242,-0.291 0.354,-0.434c0,0 0.001,0.003 0.02,0.003c0.069,-0.043 0.118,-0.085 0.166,-0.127c-0,0 0.001,0.003 0.021,0.003c0.09,-0.063 0.159,-0.126 0.229,-0.189c0,0 0,0.003 0.02,0.002c0.069,-0.042 0.118,-0.085 0.167,-0.127c0,0 0,0.003 0.02,0.003c0.069,-0.042 0.118,-0.085 0.166,-0.127c0,0 0,0.003 0.021,0.003c0.09,-0.063 0.159,-0.126 0.229,-0.189c0,0 0,0.002 0.02,0.002c0.069,-0.042 0.118,-0.085 0.167,-0.127c0,0 0,0.003 0.02,0.003c0.069,-0.042 0.118,-0.085 0.166,-0.127c0,0 0.001,0.003 0.021,0.003c0.09,-0.063 0.159,-0.126 0.229,-0.189c0,0 -0,0.002 0.021,0.002c0.069,-0.063 0.117,-0.126 0.165,-0.189c-0,0 0.001,0.003 0.021,-0.002c0.069,-0.106 0.118,-0.208 0.166,-0.309c-0,0 0,0.002 0.021,-0.003c0.069,-0.106 0.118,-0.208 0.167,-0.309c0,0 0,0.002 0.02,-0.002c0.048,-0.065 0.076,-0.125 0.104,-0.185c-0,0 0.001,0.003 0.021,-0.002c0.069,-0.106 0.117,-0.208 0.166,-0.309c0,0 0.001,0.003 0.018,0c0.026,-0.022 0.036,-0.043 0.046,-0.063c0,0 0,0.003 0.02,0.002c0.069,-0.042 0.118,-0.085 0.167,-0.127c0,0 -0,0.002 0.02,0.002c0.069,-0.042 0.118,-0.085 0.167,-0.127c0,0 -0,0.002 0.02,0.002c0.069,-0.042 0.118,-0.085 0.167,-0.127c-0,0 -0,0.002 0.026,0.002c0.349,-0.021 0.674,-0.07 0.996,-0.055c0.657,0.03 1.327,-0.124 1.971,0.117c0,0 -0.003,0.001 0.002,0.02c0.065,0.048 0.125,0.076 0.185,0.104c0,0 -0.003,0.001 0.002,0.021c0.106,0.069 0.208,0.118 0.309,0.166c0,0 -0.002,0 0.002,0.02c0.065,0.048 0.125,0.076 0.185,0.104c0,0 -0.003,0.001 0.002,0.02c0.065,0.048 0.125,0.076 0.185,0.104c0,0 -0.003,0.001 0.002,0.021c0.106,0.069 0.208,0.118 0.309,0.166c0,0 -0.002,0 0.002,0.02c0.065,0.048 0.125,0.076 0.185,0.104c0,0 -0.003,0.001 0.002,0.021c0.189,0.131 0.374,0.242 0.558,0.353c0,0 -0.003,0.001 0.002,0.02c0.065,0.048 0.125,0.076 0.185,0.104c0,0 -0.003,0.001 0.002,0.02c0.065,0.048 0.125,0.076 0.185,0.104c0,0 -0.003,0.001 0.002,0.02c0.065,0.048 0.125,0.076 0.185,0.105c0,0 -0.002,0.001 0.005,0.024c0.05,0.049 0.092,0.099 0.133,0.097c0.397,-0.017 0.794,-0.033 1.188,-0.073c0.081,-0.008 0.152,-0.114 0.227,-0.175c0,0 0,0.003 0.02,0.003c0.069,-0.042 0.118,-0.085 0.166,-0.127c0,0 0.001,0.003 0.021,0.003c0.09,-0.063 0.159,-0.126 0.229,-0.189c0,0 0,0.002 0.02,0.002c0.069,-0.042 0.118,-0.085 0.167,-0.127c0,0 0,0.003 0.02,0.003c0.069,-0.042 0.118,-0.085 0.166,-0.127c0,0 0.001,0.003 0.026,0.002c0.512,-0.006 1.017,-0.097 1.482,0.001c0.833,0.175 1.645,0.454 2.46,0.711c0.303,0.096 0.686,0.112 0.771,0.535c0,0 -0.002,-0 -0.002,0.02c0.042,0.069 0.085,0.118 0.127,0.166c0,0 -0.003,0.001 -0.003,0.021c0.063,0.09 0.126,0.159 0.189,0.229c0,0 -0.003,0 -0.003,0.021c0.063,0.09 0.126,0.159 0.189,0.229c0,0 -0.003,0 -0.003,0.02c0.042,0.069 0.085,0.118 0.127,0.166c0,0 -0.003,0.001 -0.003,0.021c0.063,0.09 0.126,0.159 0.19,0.228c0,0 -0.003,0.001 -0.002,0.023c0.332,0.174 0.66,0.335 0.997,0.474c0.725,0.297 1.454,0.583 2.182,0.873c0,0 -0.003,0.001 0.002,0.021c0.106,0.069 0.208,0.117 0.309,0.166c0,0 -0.003,0.001 0.002,0.021c0.106,0.069 0.208,0.117 0.309,0.166c0,0 -0.003,0.001 0.002,0.021c0.106,0.069 0.208,0.118 0.309,0.166c0,0 -0.002,0 0.003,0.021c0.106,0.069 0.208,0.118 0.309,0.167c0,0 -0.002,0 0.003,0.02c0.169,0.11 0.332,0.2 0.496,0.291c0,0 -0.003,0.001 0.002,0.021c0.106,0.069 0.208,0.117 0.309,0.166c0,0 -0.003,0.001 0.002,0.021c0.106,0.069 0.208,0.117 0.309,0.166c0,-0 -0.003,0.001 0.002,0.021c0.106,0.069 0.208,0.117 0.309,0.166c0,0 -0.002,0.001 0.005,0.023c0.386,0.216 1.004,0.044 1.3,-0.337c0,0 0.001,0.003 0.017,0.001c0.026,-0.022 0.036,-0.042 0.045,-0.063c0,0 0.001,0.003 0.017,0c0.026,-0.022 0.036,-0.042 0.046,-0.063c0,0 0,0.002 0.021,0.002c0.117,-0.076 0.214,-0.151 0.337,-0.247c-0.102,-0.081 -0.169,-0.134 -0.236,-0.187c0,0 0.003,-0.001 0.001,-0.017c-0.022,-0.026 -0.042,-0.036 -0.063,-0.045c0,0 0.003,-0.001 0.003,-0.023c0.177,-0.123 0.353,-0.223 0.547,-0.333c-0.055,-0.044 -0.116,-0.093 -0.177,-0.142c0,0 0.003,-0 -0.002,-0.02c-0.085,-0.069 -0.166,-0.118 -0.247,-0.167c0,0 0.002,-0.001 0,-0.017c-0.022,-0.026 -0.043,-0.036 -0.063,-0.045c0,0 0.003,-0.001 -0.003,-0.022c-0.042,-0.03 -0.079,-0.04 -0.116,-0.049c0,-0 -0.002,0.006 0.016,-0.015c-0.058,-0.069 -0.133,-0.116 -0.209,-0.164c0,0 0.003,-0.001 0,-0.017c-0.022,-0.026 -0.043,-0.035 -0.063,-0.045c0,0 0.003,-0.001 -0.002,-0.02c-0.085,-0.069 -0.166,-0.118 -0.247,-0.167c0,0 0.002,-0.001 0,-0.017c-0.022,-0.026 -0.043,-0.036 -0.063,-0.045c0,0 0.003,-0.001 0,-0.017c-0.022,-0.026 -0.043,-0.036 -0.063,-0.045c0,0 0.003,-0.001 -0.002,-0.02c-0.085,-0.069 -0.166,-0.118 -0.247,-0.167c0,0 0.003,-0.001 0,-0.017c-0.022,-0.026 -0.043,-0.035 -0.063,-0.045c0,0 0.003,-0.001 -0.002,-0.02c-0.106,-0.089 -0.208,-0.159 -0.31,-0.229c0,0 0.003,-0.001 0,-0.017c-0.022,-0.026 -0.043,-0.035 -0.063,-0.045c0,0 0.003,-0.001 -0.002,-0.02c-0.085,-0.069 -0.166,-0.118 -0.247,-0.167c0,0 0.003,-0.001 0,-0.017c-0.022,-0.026 -0.043,-0.036 -0.063,-0.045c0,0 0.003,-0.001 -0.003,-0.022c-0.042,-0.03 -0.079,-0.039 -0.116,-0.049c0,0 -0.002,0.006 0.016,-0.015c-0.058,-0.069 -0.133,-0.116 -0.209,-0.164c0,0 0.003,-0.001 0,-0.017c-0.022,-0.026 -0.043,-0.035 -0.063,-0.045c0,0 0.003,-0.001 -0.002,-0.02c-0.106,-0.089 -0.208,-0.159 -0.31,-0.229c0,0 0.003,-0.001 0,-0.017c-0.022,-0.026 -0.043,-0.035 -0.063,-0.045c0,0 0.003,-0.001 -0.002,-0.02c-0.085,-0.069 -0.166,-0.118 -0.247,-0.167c0,0 0.002,-0.001 0,-0.017c-0.022,-0.026 -0.043,-0.036 -0.063,-0.045c0,0 0.003,-0.001 -0.003,-0.022c-0.042,-0.03 -0.079,-0.039 -0.116,-0.049c0,0 -0.002,0.006 0.016,-0.015c-0.058,-0.069 -0.133,-0.116 -0.209,-0.164c0,0 0.003,-0.001 0,-0.017c-0.022,-0.026 -0.043,-0.035 -0.063,-0.045c0,0 0.003,-0.001 -0.002,-0.02c-0.106,-0.089 -0.208,-0.159 -0.31,-0.229c0,0 0.003,-0.001 0.002,-0.024c-0.125,-0.336 -0.23,-0.659 -0.383,-0.957c-0.078,-0.152 -0.242,-0.261 -0.367,-0.389c0,0 0.003,-0.001 0,-0.017c-0.022,-0.026 -0.043,-0.035 -0.063,-0.045c0,0 0.003,-0.001 -0.002,-0.02c-0.085,-0.069 -0.166,-0.118 -0.247,-0.167c-0,0 0.002,-0.001 -0.005,-0.022c-0.492,-0.111 -0.974,-0.257 -1.461,-0.277c-0.742,-0.031 -1.427,-0.251 -2.106,-0.505c-0.543,-0.203 -1.066,-0.458 -1.598,-0.691c0,0 0.003,-0.001 -0.002,-0.021c-0.106,-0.089 -0.208,-0.159 -0.309,-0.229c0,0 0.003,-0.001 0,-0.017c-0.022,-0.026 -0.043,-0.035 -0.063,-0.045c0,0 0.003,-0.001 -0.002,-0.02c-0.085,-0.069 -0.166,-0.118 -0.247,-0.167c0,0 0.002,-0 0,-0.017c-0.022,-0.026 -0.043,-0.036 -0.063,-0.045c0,0 0.003,-0.001 0,-0.017c-0.022,-0.026 -0.043,-0.036 -0.063,-0.045c0,0 0.003,-0.001 -0.002,-0.02c-0.085,-0.069 -0.166,-0.118 -0.247,-0.167c0,0 0.003,-0.001 0,-0.017c-0.022,-0.026 -0.043,-0.036 -0.063,-0.045c0,0 0.003,-0.001 -0.002,-0.02c-0.272,-0.193 -0.54,-0.367 -0.808,-0.54c0,0 0.002,-0 -0.003,-0.022c-0.104,-0.07 -0.197,-0.139 -0.3,-0.163c-0.832,-0.192 -1.666,-0.376 -2.5,-0.563c0,0 0.003,-0.001 -0.002,-0.02c-0.085,-0.069 -0.166,-0.117 -0.247,-0.166c0,0 0.003,-0.001 -0.002,-0.02c-0.065,-0.048 -0.125,-0.076 -0.185,-0.104c0,0 0.003,-0.001 -0.002,-0.02c-0.065,-0.048 -0.125,-0.076 -0.185,-0.105c0,0 0.002,-0 -0.002,-0.02c-0.085,-0.069 -0.166,-0.117 -0.247,-0.166c0,0 0.003,-0.001 -0.002,-0.02c-0.065,-0.048 -0.125,-0.076 -0.185,-0.105c0,0 0.003,-0.001 -0.002,-0.02c-0.085,-0.069 -0.166,-0.117 -0.247,-0.166c0,0 0.003,-0.001 -0.002,-0.02c-0.065,-0.048 -0.125,-0.076 -0.185,-0.104c0,0 0.003,-0.001 -0.002,-0.02c-0.065,-0.048 -0.125,-0.076 -0.185,-0.105c0,0 0.002,-0 -0.002,-0.02c-0.085,-0.068 -0.166,-0.117 -0.247,-0.166c0,0 0.003,-0.002 0.003,-0.026c-0.02,-0.102 -0.047,-0.178 -0.06,-0.256c-0.107,-0.687 -0.199,-1.378 -0.323,-2.062c-0.04,-0.223 -0.16,-0.431 -0.244,-0.646c0,0 0.003,-0 0.003,-0.021c-0.063,-0.111 -0.126,-0.2 -0.189,-0.29c0,0 0.003,-0 0.002,-0.023c-0.104,-0.515 -0.201,-1.008 -0.314,-1.498c-0.067,-0.292 -0.178,-0.583 0.229,-0.769c-0.147,-0.225 -0.281,-0.431 -0.416,-0.638c0,0 0.003,-0.001 0,-0.017c-0.022,-0.026 -0.043,-0.036 -0.063,-0.045c0,0 0.003,-0.001 -0.002,-0.02c-0.127,-0.152 -0.25,-0.284 -0.372,-0.416c0,0 0.003,-0 0.003,-0.022c-0.105,-0.173 -0.209,-0.325 -0.314,-0.477c0,0 0.002,0 0.002,-0.021c-0.227,-0.259 -0.454,-0.496 -0.681,-0.733c0,0 -0.004,0.006 0.008,-0.019c-0.015,-0.031 -0.043,-0.036 -0.07,-0.042c0,0 -0.004,0.006 0.008,-0.02c-0.016,-0.031 -0.043,-0.037 -0.07,-0.043c0,0 -0.004,0.006 0.008,-0.019c-0.016,-0.031 -0.043,-0.037 -0.07,-0.043c0,0 -0.004,0.006 0.008,-0.019c-0.016,-0.031 -0.043,-0.037 -0.07,-0.043c0,0 -0.004,0.006 0.008,-0.019c-0.016,-0.031 -0.043,-0.037 -0.07,-0.043c0,0 -0.004,0.006 0.008,-0.019c-0.016,-0.031 -0.043,-0.037 -0.07,-0.043c0,0 -0.004,0.006 0.008,-0.019c-0.016,-0.031 -0.043,-0.037 -0.07,-0.043c0,0 -0.004,0.006 0.008,-0.019c-0.016,-0.031 -0.043,-0.037 -0.07,-0.043c0,0 -0.004,0.006 0.008,-0.019c-0.016,-0.031 -0.043,-0.037 -0.07,-0.043c0,0 -0.004,0.006 0.008,-0.019c-0.016,-0.031 -0.043,-0.037 -0.07,-0.043c0,0 -0.004,0.006 0.008,-0.019c-0.016,-0.031 -0.043,-0.037 -0.07,-0.043c0,0 -0.003,0.006 0.015,-0.014c-0.016,-0.048 -0.05,-0.076 -0.085,-0.104c-0,0 0.003,-0 -0.004,-0.023c-0.03,-0.148 -0.051,-0.274 -0.076,-0.399c-0.051,-0.253 -0.18,-0.348 -0.412,-0.206c-0.069,-0.065 -0.131,-0.123 -0.193,-0.181c0,0 0.003,-0 0.003,-0.021c-0.063,-0.111 -0.126,-0.2 -0.19,-0.29c0,0 0.003,-0 0.003,-0.02c-0.042,-0.069 -0.085,-0.118 -0.127,-0.167c0,0 0.002,0 0.002,-0.021c-0.063,-0.111 -0.126,-0.201 -0.189,-0.29c0,0 0.003,-0 0.003,-0.021c-0.063,-0.111 -0.126,-0.2 -0.189,-0.29c0,0 0.003,-0 0.003,-0.021c-0.063,-0.111 -0.126,-0.2 -0.189,-0.29c0,0 0.003,-0 0.003,-0.02c-0.042,-0.069 -0.085,-0.118 -0.127,-0.167c0,0 0.002,0 0.002,-0.02c-0.042,-0.069 -0.085,-0.118 -0.127,-0.167c0,0 0.002,-0 0.002,-0.02c-0.063,-0.09 -0.126,-0.159 -0.19,-0.228c0,0 0.003,-0.001 0.001,-0.017c-0.022,-0.026 -0.042,-0.036 -0.063,-0.045c0,0 0.003,-0.001 0,-0.017c-0.022,-0.026 -0.042,-0.036 -0.063,-0.046c0,0 0.002,-0 0.002,-0.02c-0.063,-0.09 -0.126,-0.159 -0.19,-0.228c0,0 0.003,-0.001 0.001,-0.017c-0.022,-0.026 -0.042,-0.036 -0.063,-0.045c0,0 0.003,-0.001 0.003,-0.021c-0.084,-0.11 -0.168,-0.2 -0.252,-0.29c0,0 0.003,-0.001 0.001,-0.017c-0.022,-0.026 -0.042,-0.036 -0.063,-0.045c0,0 0.003,-0.001 0.002,-0.021c-0.084,-0.11 -0.168,-0.2 -0.252,-0.29c0,0 0.003,-0.001 0.001,-0.017c-0.022,-0.026 -0.042,-0.036 -0.063,-0.045c0,0 0.003,-0.001 0.002,-0.023c-0.061,-0.072 -0.122,-0.122 -0.182,-0.172c0,0 -0.003,0.006 0.015,-0.013c-0.016,-0.047 -0.05,-0.075 -0.084,-0.104c0,0 0.003,-0 0.001,-0.017c-0.022,-0.026 -0.042,-0.036 -0.062,-0.046c0,0 0.003,-0 0.002,-0.021c-0.063,-0.09 -0.127,-0.159 -0.19,-0.228c0,0 0.003,-0 0.001,-0.017c-0.022,-0.026 -0.042,-0.036 -0.063,-0.045c0,0 0.003,-0.001 0,-0.017c-0.022,-0.026 -0.042,-0.036 -0.063,-0.046c0,0 0.003,-0 0.002,-0.022c-0.241,-0.406 -0.449,-0.799 -0.374,-1.279c0.028,-0.181 0.036,-0.366 0.065,-0.547c0.057,-0.36 0.118,-0.718 0.183,-1.077c0.081,-0.448 0.161,-0.896 0.255,-1.341c0.047,-0.223 0.121,-0.44 0.183,-0.659c0,0 0,0.003 0.021,0.003c0.09,-0.063 0.159,-0.126 0.228,-0.19c0,0 0.001,0.003 0.021,0.003c0.09,-0.063 0.159,-0.126 0.228,-0.19c0,0 0.001,0.003 0.021,0.003c0.09,-0.063 0.159,-0.126 0.228,-0.19c0,0 0.001,0.003 0.017,0.001c0.026,-0.022 0.036,-0.042 0.046,-0.062c0,0 0,0.002 0.02,0.002c0.069,-0.042 0.118,-0.085 0.166,-0.127c0,0 0.001,0.003 0.017,0.001c0.026,-0.022 0.036,-0.042 0.046,-0.062c0,0 0,0.002 0.02,0.002c0.069,-0.042 0.118,-0.085 0.166,-0.127c0,0 0.001,0.003 0.017,0.001c0.026,-0.022 0.036,-0.042 0.046,-0.062c0,0 0,0.002 0.02,0.002c0.069,-0.042 0.118,-0.085 0.166,-0.127c0,0 0.001,0.003 0.017,0.001c0.026,-0.022 0.036,-0.042 0.046,-0.062c0,0 0,0.002 0.02,0.002c0.069,-0.043 0.118,-0.085 0.166,-0.127c0,0 0.001,0.003 0.017,0.001c0.026,-0.022 0.036,-0.042 0.046,-0.062c0,0 0,0.003 0.024,0.003c0.13,-0.029 0.237,-0.057 0.343,-0.089c0.897,-0.274 1.768,-0.647 2.74,-0.605c0.32,0.014 0.643,-0.094 0.967,-0.108c0.434,-0.019 0.874,-0.039 1.303,0.012c0.375,0.045 0.737,0.19 1.105,0.29c0,0 -0.003,0.001 0.002,0.021c0.104,0.094 0.203,0.169 0.321,0.258c0.066,-0.084 0.119,-0.151 0.172,-0.218c0,0 0.001,0.003 0.017,0.001c0.026,-0.022 0.036,-0.042 0.045,-0.063c0,0 0.001,0.003 0.017,0c0.026,-0.022 0.036,-0.042 0.046,-0.063c0,0 0,0.002 0.02,0.002c0.09,-0.063 0.159,-0.126 0.228,-0.19c0,0 0.001,0.003 0.017,0.001c0.026,-0.022 0.036,-0.042 0.045,-0.063c-0,0 0.001,0.003 0.023,0.002c0.072,-0.061 0.122,-0.122 0.172,-0.182c0,0 -0.006,-0.003 0.013,0.015c0.047,-0.016 0.075,-0.05 0.104,-0.084c0,0 0,0.003 0.017,0.001c0.026,-0.022 0.036,-0.042 0.046,-0.062c0,0 0,0.003 0.022,0.002c0.102,-0.084 0.219,-0.154 0.255,-0.253c0.159,-0.441 0.352,-0.879 0.283,-1.369c0,0 0.001,0.002 0.017,0c0.026,-0.022 0.036,-0.043 0.045,-0.063c0,0 0.001,0.003 0.02,-0.002c0.048,-0.065 0.076,-0.125 0.105,-0.185c0,0 0,0.002 0.017,0c0.026,-0.022 0.036,-0.043 0.045,-0.063c0,0 0.001,0.003 0.02,-0.002c0.068,-0.085 0.117,-0.166 0.166,-0.247c0,0 0.001,0.003 0.021,-0.002c0.069,-0.085 0.117,-0.166 0.166,-0.247c0,-0 0.001,0.003 0.021,-0.002c0.298,-0.169 0.575,-0.332 0.852,-0.496c0,0 -0,0.002 0.024,0.003c0.179,-0.041 0.332,-0.093 0.489,-0.122c0.477,-0.09 0.966,-0.136 1.431,-0.267c0.513,-0.145 1.007,-0.357 1.503,-0.557c0.19,-0.076 0.36,-0.2 0.539,-0.303c0,0 0,0.003 0.02,0.003c0.069,-0.042 0.118,-0.085 0.167,-0.127c0,0 0,0.003 0.022,0.002c0.173,-0.105 0.325,-0.209 0.476,-0.314c0,0 0,0.003 0.02,0.003c0.069,-0.042 0.118,-0.085 0.167,-0.127c0,0 0,0.003 0.02,0.003c0.069,-0.042 0.118,-0.085 0.167,-0.127c0,0 -0,0.002 0.024,0.002c0.517,-0.229 1.036,-0.157 1.548,-0.115c0.599,0.049 1.197,0.117 1.795,0.177c0,0 -0.003,0.001 -0,0.017c0.022,0.026 0.043,0.036 0.063,0.046c0,0 -0.003,0 -0.002,0.021c0.123,0.134 0.246,0.247 0.37,0.36c0,0 0.003,-0.006 -0.015,0.013c0.016,0.047 0.05,0.075 0.084,0.104c0,0 -0.003,0 -0.001,0.017c0.022,0.026 0.042,0.035 0.063,0.045c0,0 -0.003,0.001 -0,0.017c0.022,0.026 0.043,0.036 0.063,0.045c0,0 -0.003,0.001 -0,0.017c0.022,0.026 0.042,0.036 0.063,0.045c0,0 -0.003,0 -0,0.017c0.022,0.026 0.042,0.036 0.062,0.046c0,0 -0.002,0 -0.002,0.024c0.062,0.326 0.125,0.627 0.186,0.93c0.054,0.266 -0.032,0.565 0.19,0.791c0,0 -0.003,0 -0,0.017c0.022,0.026 0.043,0.036 0.063,0.045c0,0 -0.003,0.001 0.002,0.02c0.085,0.069 0.166,0.118 0.247,0.167c0,0 -0.002,0 0.005,0.023c0.058,0.049 0.107,0.089 0.161,0.1c0.339,0.066 0.678,0.126 1.018,0.188c0,0 -0.003,0.001 0.002,0.021c0.106,0.069 0.208,0.118 0.309,0.166c0,0 -0.002,0 0.002,0.02c0.065,0.048 0.125,0.076 0.185,0.104c0,0 -0.003,0.001 0.002,0.021c0.106,0.069 0.208,0.117 0.309,0.166c0,0 -0.003,0.001 0.002,0.02c0.065,0.048 0.125,0.076 0.185,0.104c0,0 -0.003,0.001 0.002,0.021c0.085,0.069 0.166,0.118 0.247,0.167c0,0 -0.003,0.001 -0,0.017c0.022,0.026 0.043,0.035 0.063,0.045c0,0 -0.003,0.001 0.002,0.02c0.085,0.069 0.166,0.118 0.247,0.167c0,0 -0.002,0 -0,0.017c0.022,0.026 0.043,0.036 0.063,0.045c0,0 -0.003,0.001 0.003,0.022c0.042,0.03 0.079,0.04 0.116,0.049c0,0 0.002,-0.006 -0.016,0.016c0.037,0.048 0.092,0.075 0.146,0.101c0,0 -0.003,0 0.002,0.02c0.065,0.048 0.125,0.076 0.185,0.105c0,0 -0.002,0 0.002,0.02c0.065,0.048 0.125,0.076 0.185,0.105c0,0 -0.002,0 0.002,0.02c0.065,0.048 0.125,0.076 0.185,0.105c0,0 -0.002,0 0.002,0.02c0.21,0.152 0.415,0.284 0.621,0.415c0,0 -0.003,0.001 0.002,0.02c0.065,0.048 0.125,0.076 0.185,0.104c0,0 -0.003,0.001 0.002,0.02c0.065,0.048 0.125,0.076 0.185,0.104c0,0 -0.003,0.001 0.003,0.022c0.042,0.03 0.079,0.04 0.116,0.049c0,0 0.003,-0.006 -0.009,0.019c0.015,0.031 0.043,0.037 0.07,0.042c0,0 0.004,-0.006 -0.008,0.019c0.016,0.031 0.043,0.037 0.07,0.043c0,0 0.004,-0.006 -0.008,0.019c0.016,0.031 0.043,0.037 0.07,0.043c0,0 0.004,-0.006 -0.008,0.019c0.016,0.031 0.043,0.037 0.07,0.043c0,0 0.003,-0.006 -0.015,0.015c0.367,0.411 0.751,0.803 1.139,1.189c0.048,0.048 0.122,0.071 0.185,0.105c0,0 0.004,-0.006 -0.008,0.019c0.015,0.031 0.043,0.036 0.07,0.042c0,0 0.004,-0.006 -0.008,0.02c0.016,0.031 0.043,0.037 0.07,0.043c0,0 0.004,-0.006 -0.008,0.02c0.016,0.031 0.043,0.037 0.07,0.043c0,0 0.004,-0.006 -0.008,0.019c0.016,0.031 0.043,0.037 0.07,0.043c0,0 0.004,-0.006 -0.008,0.019c0.016,0.031 0.043,0.037 0.07,0.043c0,0 0.004,-0.006 -0.008,0.019c0.016,0.031 0.043,0.037 0.07,0.043c0,0 0.004,-0.006 -0.008,0.019c0.016,0.031 0.043,0.037 0.07,0.043c0,0 0.004,-0.006 -0.008,0.02c0.016,0.031 0.043,0.037 0.07,0.042c0,0 0.004,-0.005 -0.01,0.022c0.079,0.497 0.161,0.97 0.273,1.436c0.021,0.087 0.158,0.146 0.242,0.218c0,0 -0.003,0.001 0.002,0.02c0.065,0.048 0.125,0.076 0.185,0.104c0,0 -0.003,0.001 0.002,0.02c0.065,0.048 0.125,0.076 0.185,0.105c0,0 -0.002,0.001 0.002,0.02c0.065,0.048 0.125,0.076 0.185,0.105c0,0 -0.002,0 0.004,0.022c0.07,0.069 0.128,0.147 0.198,0.16c0.887,0.173 1.776,0.337 2.664,0.503c0,0 -0.003,0.001 0.003,0.021c0.106,0.069 0.208,0.118 0.309,0.167c0,0 -0.002,0 0.002,0.02c0.065,0.048 0.125,0.076 0.185,0.104c0,0 -0.003,0.001 0.002,0.021c0.106,0.069 0.208,0.117 0.309,0.166c0,0 -0.003,0.001 0.003,0.021c0.169,0.11 0.332,0.201 0.496,0.291c0,0 -0.003,0.001 0.002,0.021c0.106,0.069 0.208,0.118 0.309,0.166c0,0 -0.002,0 0.002,0.019c0.106,0.11 0.208,0.201 0.31,0.292c0,0 -0.003,0.001 -0.001,0.017c0.022,0.026 0.042,0.036 0.063,0.045c0,0 -0.003,0.001 -0,0.017c0.022,0.026 0.042,0.036 0.063,0.046c0,0 -0.002,0 -0.002,0.022c0.061,0.072 0.122,0.122 0.182,0.172c0,0 0.003,-0.006 -0.015,0.013c0.016,0.047 0.05,0.075 0.084,0.104c0,0 -0.003,0 -0.001,0.017c0.022,0.026 0.042,0.036 0.063,0.045c0,0 -0.003,0.001 -0.002,0.021c0.084,0.11 0.168,0.2 0.252,0.291c0,0 -0.003,0 -0.001,0.017c0.022,0.026 0.042,0.036 0.063,0.045c0,0 -0.003,0.001 -0,0.017c0.022,0.026 0.042,0.036 0.063,0.046c0,0 -0.002,0 -0.002,0.025c0.037,0.05 0.073,0.094 0.111,0.097c0.345,0.027 0.691,0.044 1.037,0.068c0.885,0.06 1.769,0.122 2.653,0.184c0,0 -0.002,0.001 0.002,0.019c0.044,0.027 0.083,0.035 0.122,0.043c0,0 -0.002,0 0.002,0.019c0.044,0.027 0.083,0.035 0.122,0.043c0,0 -0.002,0 0.003,0.021c0.397,0.214 0.789,0.408 1.181,0.602c0,0 -0.002,0 0.002,0.019c0.044,0.027 0.083,0.035 0.122,0.043c0,0 -0.002,0 0.002,0.02c0.148,0.131 0.291,0.243 0.434,0.354c0,0 -0.002,0 -0,0.017c0.022,0.026 0.042,0.036 0.063,0.046c0,0 -0.003,0 -0,0.017c0.022,0.026 0.042,0.036 0.063,0.045c0,0 -0.003,0.001 -0,0.017c0.022,0.026 0.043,0.036 0.063,0.045c0,-0 -0.003,0.001 -0,0.017c0.022,0.026 0.043,0.035 0.063,0.045c0,0 -0.003,0.001 -0,0.017c0.022,0.026 0.043,0.035 0.063,0.045c0,0 -0.003,0.001 -0,0.017c0.022,0.026 0.043,0.035 0.063,0.045c0,0 -0.003,0.001 -0,0.017c0.022,0.026 0.043,0.035 0.063,0.045c0,0 -0.003,0.001 0.003,0.021c0.063,0.051 0.121,0.081 0.178,0.112c0,0 0.003,-0.006 -0.009,0.019c0.015,0.031 0.043,0.036 0.07,0.042c0,0 0.004,-0.006 -0.006,0.023c0.023,0.05 0.054,0.088 0.088,0.091c0.742,0.069 1.484,0.134 2.241,0.222c0.877,0.022 1.74,0.022 2.627,0.026c0.342,0.088 0.658,0.171 0.975,0.254c0,0 -0.003,0.001 -0,0.017c0.022,0.026 0.043,0.036 0.063,0.045c0,0 -0.003,0.001 0.002,0.02c0.106,0.089 0.208,0.159 0.31,0.229c0,0 -0.003,0.001 -0,0.017c0.022,0.026 0.043,0.035 0.063,0.045c0,0 -0.003,0.001 0.002,0.02c0.085,0.069 0.166,0.118 0.247,0.167c0,0 -0.003,0.001 -0,0.017c0.022,0.026 0.043,0.036 0.063,0.045c0,0 -0.003,0.001 0.002,0.02c0.106,0.089 0.208,0.159 0.31,0.229c0,0 -0.003,0.001 0.003,0.022c0.256,0.539 0.495,1.063 0.764,1.571c0.072,0.137 0.234,0.227 0.355,0.338c0,0 -0.003,0.001 -0,0.017c0.022,0.026 0.043,0.035 0.063,0.045c0,0 -0.003,0.001 0.002,0.02c0.085,0.069 0.166,0.118 0.247,0.167c0,0 -0.002,0 -0,0.017c0.022,0.026 0.043,0.036 0.063,0.045c0,0 -0.003,0.001 -0,0.017c0.022,0.026 0.043,0.036 0.063,0.045c0,0 -0.003,0.001 0.002,0.02c0.085,0.069 0.166,0.118 0.247,0.167c0,0 -0.003,0.001 -0,0.017c0.022,0.026 0.043,0.036 0.063,0.045c0,0 -0.003,0.001 0.002,0.02c0.106,0.089 0.208,0.159 0.309,0.229c0,0 -0.003,0.001 0.002,0.021c0.127,0.09 0.249,0.159 0.371,0.229c0,0 -0.002,0 0.002,0.02c0.065,0.048 0.125,0.076 0.185,0.105c0,0 -0.002,0 0.002,0.02c0.065,0.048 0.125,0.076 0.185,0.105c0,0 -0.002,0 0.002,0.02c0.065,0.048 0.125,0.076 0.185,0.105c0,0 -0.003,0.001 0.002,0.02c0.065,0.048 0.125,0.076 0.185,0.104c0,0 -0.003,0.001 0.002,0.02c0.065,0.048 0.125,0.076 0.185,0.104c0,0 -0.003,0.001 0.002,0.02c0.065,0.048 0.125,0.076 0.185,0.104c0,0 -0.003,0.001 0.003,0.021c0.063,0.051 0.12,0.081 0.178,0.112c0,0 0.003,-0.006 -0.015,0.013c0.016,0.047 0.05,0.075 0.084,0.104c0,0 -0.003,0 -0.001,0.017c0.022,0.026 0.042,0.036 0.063,0.045c0,0 -0.003,0.001 -0,0.017c0.022,0.026 0.043,0.035 0.063,0.045c0,0 -0.003,0.001 -0,0.017c0.022,0.026 0.043,0.036 0.063,0.045c0,0 -0.003,0.001 -0,0.017c0.022,0.026 0.043,0.036 0.063,0.045c0,0 -0.003,0.001 -0,0.017c0.022,0.026 0.042,0.036 0.063,0.046c0,0 -0.002,0 -0.002,0.021c0.149,0.183 0.298,0.345 0.446,0.506c0,0 0.015,0.017 0.032,0.037c0.04,0.033 0.062,0.045 0.085,0.058c0,0 -0.003,0.001 -0,0.017c0.023,0.026 0.043,0.036 0.063,0.045c0,0 -0.003,0.001 -0,0.017c0.022,0.026 0.043,0.036 0.063,0.045c0,0 -0.003,0.001 -0,0.017c0.022,0.026 0.042,0.036 0.063,0.046c0,0 -0.003,0 -0.002,0.021c0.146,0.173 0.293,0.325 0.439,0.477c0,0 -0.003,0 -0.001,0.017c0.022,0.026 0.042,0.035 0.063,0.045c0,0 -0.003,0.001 -0,0.017c0.022,0.026 0.043,0.035 0.063,0.045c0,0 -0.003,0.001 -0,0.017c0.022,0.026 0.043,0.035 0.063,0.045c0,0 -0.003,0.001 -0,0.017c0.022,0.026 0.043,0.036 0.063,0.045c0,0 -0.003,0.001 -0,0.017c0.022,0.026 0.042,0.036 0.063,0.045c0,0 -0.003,0 -0,0.017c0.022,0.026 0.042,0.036 0.062,0.046c0,0 -0.002,0 -0.002,0.021c0.123,0.134 0.246,0.247 0.37,0.36c0,0 0.004,-0.005 -0.008,0.019c0.015,0.03 0.043,0.036 0.07,0.042c0,0 0.003,-0.006 -0.015,0.015c0.058,0.069 0.133,0.117 0.209,0.165c0,0 -0.003,0.001 -0,0.017c0.022,0.026 0.043,0.036 0.063,0.045c0,0 -0.003,0.001 0.002,0.02c0.106,0.089 0.208,0.159 0.31,0.229c0,0 -0.003,0.001 -0,0.017c0.022,0.026 0.043,0.035 0.063,0.045c0,0 -0.003,0.001 0.002,0.02c0.085,0.069 0.166,0.118 0.247,0.167c0,0 -0.002,0.001 -0,0.017c0.022,0.026 0.043,0.036 0.063,0.045c0,0 -0.003,0.001 0.001,0.019c0.044,0.047 0.084,0.076 0.124,0.106c0,0 -0.003,0.001 -0.003,0.023c0.084,0.173 0.168,0.325 0.252,0.476c0,0 -0.002,-0 -0.003,0.019c0.022,0.048 0.043,0.077 0.065,0.105c0,0 -0.002,-0 -0.003,0.023c0.105,0.215 0.21,0.407 0.315,0.599c0,0 -0.003,0.001 -0.001,0.017c0.023,0.026 0.043,0.036 0.063,0.045c0,0 -0.003,0 0.002,0.02c0.085,0.069 0.166,0.118 0.247,0.167c0,0 -0.003,0.001 -0,0.017c0.022,0.026 0.043,0.035 0.063,0.045c0,0 -0.003,0.001 0.002,0.02c0.085,0.069 0.166,0.118 0.247,0.167c0,-0 -0.002,0 -0,0.017c0.022,0.026 0.042,0.036 0.063,0.045c0,0 -0.003,0.001 -0,0.017c0.022,0.026 0.043,0.035 0.063,0.045c0,0 -0.003,0.001 0.002,0.02c0.085,0.069 0.166,0.118 0.247,0.167c0,0 -0.003,0.001 -0,0.017c0.022,0.026 0.043,0.036 0.063,0.045c0,0 -0.003,0.001 -0,0.017c0.022,0.026 0.043,0.036 0.063,0.045c0,0 -0.003,0.001 0.002,0.02c0.085,0.069 0.166,0.118 0.247,0.167c0,0 -0.003,0.001 -0,0.017c0.022,0.026 0.043,0.035 0.063,0.045c0,0 -0.003,0.001 0.002,0.02c0.106,0.089 0.208,0.159 0.31,0.229c0,0 -0.003,0.001 -0,0.017c0.022,0.026 0.043,0.035 0.063,0.045c0,0 -0.003,0.001 0.002,0.02c0.085,0.069 0.166,0.118 0.247,0.167c0,0 -0.002,0.001 -0,0.017c0.022,0.026 0.043,0.036 0.063,0.045c0,0 -0.003,0.001 -0,0.017c0.022,0.026 0.043,0.035 0.063,0.045c0,0 -0.003,0.001 0.002,0.022c0.012,0.047 0.032,0.078 0.026,0.101c-0.195,0.667 -0.393,1.333 -0.59,2c0,0 -0.001,-0.003 -0.023,0.005c-0.172,0.298 -0.088,0.807 0.15,1.051c0,0 -0.003,-0 0.002,0.02c0.106,0.09 0.208,0.159 0.309,0.229c0,0 -0.002,0 -0,0.017c0.022,0.026 0.042,0.036 0.063,0.045c0,0 -0.003,0.001 -0,0.017c0.022,0.026 0.043,0.035 0.063,0.045c0,0 -0.003,0.001 -0,0.017c0.023,0.026 0.043,0.035 0.063,0.045c0,0 -0.003,0.001 0.003,0.022c0.043,0.03 0.079,0.04 0.116,0.049c0,0 0.002,-0.006 -0.016,0.015c0.078,0.09 0.175,0.158 0.271,0.227c0,0 -0.002,0 -0,0.017c0.022,0.026 0.042,0.036 0.063,0.045c0,0 -0.003,0.001 -0,0.017c0.022,0.026 0.043,0.035 0.063,0.045c0,0 -0.003,0.001 -0,0.017c0.023,0.026 0.043,0.035 0.063,0.045c0,0 -0.003,0.001 0.002,0.02c0.127,0.11 0.249,0.201 0.372,0.292c0,0 -0.002,0 -0,0.017c0.022,0.026 0.042,0.036 0.063,0.045c0,0 -0.003,0.001 -0,0.017c0.022,0.026 0.043,0.035 0.063,0.045c0,0 -0.003,0.001 -0,0.017c0.023,0.026 0.043,0.035 0.063,0.045c0,0 -0.003,0.001 0.002,0.021c0.127,0.194 0.249,0.367 0.372,0.541c0,0 -0.003,0 -0.002,0.022c0.188,0.36 0.375,0.699 0.563,1.037c0,0 -0.002,-0 -0.002,0.019c0.022,0.048 0.043,0.077 0.065,0.105c0,0 -0.003,0 -0.002,0.022c0.188,0.36 0.375,0.699 0.563,1.037c0,0 -0.002,-0 -0.002,0.019c0.022,0.048 0.043,0.077 0.065,0.105c0,0 -0.002,0 -0.003,0.026c-0.081,0.521 -0.191,1.015 -0.231,1.514c-0.02,0.248 -0.249,0.56 0.109,0.765c0,0 -0.003,0 -0.003,0.02c0.042,0.069 0.085,0.118 0.127,0.167c0,0 -0.003,0 -0.003,0.02c0.042,0.069 0.085,0.118 0.127,0.167c0,0 -0.003,0 -0.003,0.02c0.042,0.069 0.085,0.118 0.127,0.166c0,0 -0.003,0 -0.003,0.02c0.042,0.069 0.085,0.118 0.127,0.166c0,0 -0.003,0 -0.003,0.02c0.042,0.069 0.085,0.118 0.127,0.166c0,0 -0.003,0.001 -0.001,0.017c0.022,0.026 0.042,0.036 0.062,0.046c0,0 -0.003,0 -0.002,0.021c0.063,0.09 0.126,0.159 0.19,0.229c0,0 -0.003,0 -0.003,0.021c0.063,0.09 0.126,0.159 0.19,0.228c0,0 -0.003,0.001 -0.003,0.021c0.063,0.09 0.126,0.159 0.19,0.228c0,0 -0.003,0.001 -0.001,0.017c0.022,0.026 0.042,0.036 0.062,0.046c0,0 -0.002,0 -0.002,0.023c0.003,0.751 -0.013,1.476 -0.311,2.161c0,0 -0,-0.002 -0.021,0.003c-0.226,0.336 -0.436,0.652 -0.361,1.086c0.09,0.527 0.036,1.079 0.328,1.567c0.054,0.091 0.057,0.224 0.052,0.336c-0.017,0.407 -0.033,0.817 -0.369,1.121c-0.011,0.01 -0.002,0.04 -0.003,0.061c0,0 -0.001,-0.002 -0.017,-0c-0.026,0.022 -0.036,0.042 -0.045,0.063c0,0 -0.001,-0.003 -0.017,-0c-0.026,0.022 -0.036,0.043 -0.045,0.063c0,0 -0.001,-0.003 -0.017,-0c-0.026,0.022 -0.035,0.043 -0.045,0.063c0,0 -0.001,-0.003 -0.017,-0c-0.026,0.022 -0.035,0.043 -0.045,0.063c0,0 -0.001,-0.003 -0.02,0.002c-0.036,0.025 -0.054,0.046 -0.071,0.067Z" style="fill:#4ade80;fill-rule:nonzero;stroke:#22c55e;stroke-width:1px;"/><path d="M81.405,80.764c0,0 -0.015,-0.017 -0.032,-0.037c-0.039,-0.033 -0.062,-0.045 -0.085,-0.058c0,0 0.003,-0.001 0,-0.017c-0.023,-0.026 -0.043,-0.035 -0.063,-0.045c0,0 0.003,-0.001 0,-0.017c-0.022,-0.026 -0.042,-0.035 -0.063,-0.045c0,0 0.003,-0.001 0,-0.017c-0.022,-0.026 -0.042,-0.035 -0.063,-0.045c0,0 0.003,-0.001 0,-0.017c-0.022,-0.026 -0.042,-0.035 -0.063,-0.045c0,0 0.003,-0.001 0,-0.017c-0.022,-0.026 -0.042,-0.035 -0.062,-0.045c0,0 0.003,-0.001 0.002,-0.022c-0.026,-0.064 -0.044,-0.112 -0.077,-0.148c-0.431,-0.471 -0.997,-0.691 -1.599,-0.822c-0.325,-0.071 -0.636,-0.126 -0.805,-0.458c-0.011,-0.022 -0.05,-0.031 -0.076,-0.045c0,0 0.003,-0.001 0.003,-0.022c-0.105,-0.152 -0.209,-0.283 -0.314,-0.414c0,0 0.003,-0.001 0.003,-0.021c-0.042,-0.069 -0.085,-0.117 -0.127,-0.166c0,0 0.003,-0.001 0.003,-0.022c-0.105,-0.152 -0.209,-0.283 -0.314,-0.414c0,0 0.003,-0.001 0.003,-0.021c-0.042,-0.069 -0.085,-0.117 -0.127,-0.166c0,0 0.003,-0.001 0.003,-0.022c-0.105,-0.152 -0.209,-0.283 -0.314,-0.414c0,0 0.003,-0.001 0.003,-0.021c-0.043,-0.069 -0.085,-0.117 -0.127,-0.166c0,0 0.003,-0.001 0.003,-0.021c-0.084,-0.11 -0.168,-0.2 -0.252,-0.29c0,0 0.003,-0.001 0,-0.017c-0.022,-0.026 -0.042,-0.035 -0.062,-0.045c0,0 0.003,-0.001 0,-0.018c-0.023,-0.026 -0.043,-0.035 -0.063,-0.045c0,0 0.003,-0.001 0,-0.018c-0.022,-0.026 -0.043,-0.035 -0.063,-0.045c0,0 0.003,-0.001 0.002,-0.022c-0.167,-0.194 -0.334,-0.366 -0.501,-0.539c0,0 0.003,-0 -0.003,-0.021c-0.188,-0.433 -0.376,-0.843 -0.553,-1.257c-0.167,-0.388 -0.307,-0.794 -0.752,-0.963c0,0 0.003,-0.001 0,-0.018c-0.022,-0.026 -0.042,-0.035 -0.063,-0.045c0,0 0.003,-0.001 0,-0.018c-0.023,-0.026 -0.043,-0.035 -0.063,-0.045c0,0 0.003,-0.001 0,-0.018c-0.022,-0.026 -0.043,-0.035 -0.063,-0.045c0,0 0.003,-0.001 -0.002,-0.02c-0.189,-0.172 -0.374,-0.325 -0.559,-0.478c0,0 0.003,-0.001 0,-0.018c-0.022,-0.026 -0.042,-0.035 -0.063,-0.045c0,0 0.003,-0.001 -0.003,-0.022c-0.152,-0.104 -0.29,-0.225 -0.448,-0.264c-0.622,-0.153 -1.009,-0.491 -1.119,-1.155c-0.047,-0.282 -0.191,-0.552 -0.555,-0.629c-0.261,-0.055 -0.448,-0.237 -0.521,-0.534c-0.045,-0.182 -0.184,-0.342 -0.281,-0.511c0,0 0.003,-0.001 0.003,-0.022c-0.063,-0.111 -0.126,-0.2 -0.189,-0.29c0,0 0.003,-0.001 0.002,-0.024c-0.132,-0.733 -0.365,-1.45 0.187,-2.098c0,0 0.001,0.003 0.021,0.003c0.131,-0.105 0.242,-0.209 0.352,-0.314c0,0 0.001,0.003 0.022,0.003c0.119,-0.08 0.216,-0.159 0.327,-0.249c-0.088,-0.073 -0.141,-0.117 -0.19,-0.158c0.203,-0.126 0.385,-0.256 0.581,-0.357c0.329,-0.17 0.655,-0.405 1.006,-0.462c0.564,-0.092 1.148,-0.054 1.723,-0.085c0.251,-0.013 0.512,-0.036 0.643,-0.311c0,0 0.001,0.003 0.021,0.003c0.11,-0.084 0.2,-0.168 0.29,-0.252c0,0 0.001,0.003 0.017,0c0.026,-0.022 0.035,-0.042 0.045,-0.062c0,0 0.001,0.003 0.022,0.002c0.11,-0.084 0.2,-0.168 0.29,-0.252c0,0 0.001,0.003 0.022,0.003c0.09,-0.084 0.158,-0.168 0.227,-0.252c0,0 0.001,0.003 0.018,0c0.026,-0.022 0.035,-0.043 0.045,-0.063c0,0 0.001,0.003 0.018,0c0.026,-0.023 0.035,-0.043 0.045,-0.063c0,0 0.001,0.003 0.018,0c0.026,-0.022 0.035,-0.043 0.045,-0.063c0,0 0.001,0.003 0.022,-0.003c0.244,-0.083 0.483,-0.256 0.686,-0.22c0.685,0.121 1.406,0.115 2.037,0.474c0,0 -0.002,0.001 0.003,0.021c0.356,0.214 0.706,0.408 1.056,0.602c0,0 -0.003,0.001 0.003,0.021c0.21,0.131 0.415,0.242 0.62,0.352c0,0 -0.003,0.001 -0,0.018c0.022,0.026 0.043,0.035 0.063,0.045c0,0 -0.003,0.001 -0,0.018c0.023,0.026 0.043,0.035 0.063,0.045c0,0 -0.003,0.001 0.002,0.02c0.168,0.152 0.332,0.284 0.496,0.416c0,0 -0.003,0.001 -0,0.018c0.022,0.026 0.042,0.035 0.063,0.045c0,0 -0.003,0.002 0.002,0.02c0.025,0.036 0.046,0.054 0.067,0.071c0,0 0.015,0.017 0.033,0.039c0.185,0.158 0.353,0.294 0.521,0.43c0,0 -0.003,0.001 -0,0.018c0.022,0.026 0.043,0.035 0.063,0.045c0,0 -0.003,0.001 -0,0.018c0.023,0.026 0.043,0.035 0.063,0.045c0,0 -0.003,0.001 0.003,0.022c0.46,0.173 0.913,0.324 1.367,0.476c0,0 -0.003,0.001 0.002,0.021c0.106,0.089 0.208,0.159 0.309,0.228c0,0 -0.003,0.001 -0,0.018c0.022,0.026 0.043,0.035 0.063,0.045c0,0 -0.003,0.001 0.002,0.021c0.106,0.089 0.208,0.159 0.309,0.228c0,0 -0.003,0.001 -0,0.018c0.022,0.026 0.043,0.035 0.063,0.045c0,0 -0.003,0.001 0.002,0.02c0.106,0.089 0.208,0.159 0.31,0.228c0,0 -0.003,0.001 0.002,0.021c0.106,0.089 0.208,0.159 0.309,0.228c0,0 -0.003,0.001 -0,0.018c0.022,0.026 0.043,0.035 0.063,0.045c0,0 -0.003,0.001 0.002,0.021c0.106,0.089 0.208,0.159 0.31,0.228c0,0 -0.003,0.001 0.002,0.021c0.106,0.089 0.208,0.159 0.309,0.228c0,0 -0.003,0.001 -0,0.018c0.022,0.026 0.043,0.035 0.063,0.045c0,0 -0.003,0.001 0.002,0.021c0.106,0.089 0.208,0.159 0.309,0.228c0,0 -0.003,0.001 -0,0.018c0.022,0.026 0.043,0.035 0.063,0.045c0,0 -0.003,0.001 0.002,0.02c0.106,0.089 0.208,0.159 0.31,0.228c0,0 -0.003,0.001 0.002,0.021c0.106,0.089 0.208,0.159 0.309,0.228c0,0 -0.003,0.001 -0,0.018c0.022,0.026 0.043,0.035 0.063,0.045c0,0 -0.003,0.001 0.002,0.021c0.106,0.089 0.208,0.159 0.31,0.228c0,0 -0.003,0.001 0.002,0.021c0.106,0.089 0.208,0.159 0.309,0.228c0,0 -0.003,0.001 -0,0.018c0.022,0.026 0.043,0.035 0.063,0.045c0,0 -0.003,0.001 0.002,0.021c0.106,0.089 0.208,0.159 0.31,0.228c0,0 -0.003,0.001 -0,0.018c0.022,0.026 0.043,0.035 0.063,0.045c0,0 -0.003,0.001 0.002,0.02c0.106,0.089 0.208,0.159 0.31,0.228c0,0 -0.003,0.001 0.002,0.021c0.409,0.425 0.812,0.831 1.22,1.233c0.055,0.054 0.135,0.084 0.204,0.125c0,0 0.004,-0.005 -0.008,0.019c0.015,0.03 0.043,0.036 0.07,0.042c0,0 0.002,-0.006 -0.015,0.016c0.432,0.318 0.881,0.615 1.33,0.911c0,0 -0.003,0.001 0.002,0.021c0.065,0.048 0.125,0.076 0.185,0.104c0,0 -0.003,0.001 0.002,0.021c0.065,0.048 0.125,0.076 0.185,0.104c0,0 -0.003,0.002 -0,0.018c0.023,0.026 0.043,0.035 0.063,0.045c0,0 -0.003,0.001 0.003,0.022c0.042,0.03 0.079,0.039 0.116,0.049c0,0 0.002,-0.006 -0.016,0.015c0.12,0.131 0.258,0.241 0.396,0.351c0,0 -0.003,0.002 -0,0.018c0.022,0.026 0.043,0.035 0.063,0.045c0,0 -0.003,0.001 -0,0.018c0.023,0.026 0.043,0.035 0.063,0.045c0,0 -0.003,0.001 0.002,0.02c0.148,0.131 0.291,0.242 0.434,0.353c0,0 -0.003,0.001 -0,0.018c0.022,0.026 0.043,0.035 0.063,0.045c0,0 -0.003,0.001 -0,0.018c0.023,0.026 0.043,0.035 0.063,0.045c0,0 -0.003,0.001 0.002,0.02c0.148,0.131 0.291,0.242 0.434,0.353c0,0 -0.003,0.001 -0,0.017c0.022,0.026 0.042,0.035 0.063,0.045c0,0 -0.003,0.001 0.006,0.025c0.023,0.196 0.031,0.368 0.055,0.538c0.062,0.43 0.132,0.859 0.2,1.288c0.004,0.026 0.016,0.05 0.023,0.072c-0.079,0.059 -0.148,0.111 -0.269,0.202c0.285,0.114 0.517,0.242 0.765,0.299c0.462,0.106 0.933,0.172 1.4,0.254c0,0 -0.003,0.001 0.003,0.023c0.064,0.153 0.151,0.281 0.174,0.419c0.043,0.26 0.001,0.543 0.083,0.786c0.103,0.305 0.025,0.463 -0.278,0.546c0.049,0.532 0.047,1.04 -0.275,1.484c-0.021,0.029 -0.009,0.081 -0.023,0.119c-0.164,0.455 -0.122,0.984 -0.496,1.363c0,0 -0.001,-0.003 -0.022,-0.003c-0.152,0.105 -0.283,0.209 -0.414,0.314c0,0 -0.001,-0.003 -0.021,-0.003c-0.09,0.063 -0.159,0.126 -0.228,0.189c0,0 -0.001,-0.003 -0.023,-0.002c-0.412,0.125 -0.797,0.327 -1.194,0.355c-0.645,0.045 -1.298,-0.022 -1.947,-0.047c-0.068,-0.003 -0.141,-0.026 -0.2,-0.061c-0.522,-0.308 -1.042,-0.621 -1.562,-0.932c0,0 0.003,-0.001 0.001,-0.017c-0.022,-0.026 -0.042,-0.035 -0.062,-0.045c0,0 0.003,-0.001 0.002,-0.022c-0.105,-0.131 -0.21,-0.242 -0.314,-0.352c0,0 0.003,-0.001 0,-0.017c-0.022,-0.026 -0.042,-0.035 -0.062,-0.045c0,0 0.003,-0.001 0.002,-0.023c-0.131,-0.047 -0.274,-0.121 -0.389,-0.09c-0.661,0.178 -1.312,0.391 -1.972,0.572c-0.402,0.11 -0.784,0.31 -1.238,0.172c-0.471,-0.143 -1.009,-0.128 -1.436,-0.343c-0.663,-0.335 -1.37,-0.636 -1.869,-1.237c-0.102,-0.122 -0.252,-0.204 -0.38,-0.304c0,0 -0.003,0.005 0.015,-0.016c-0.019,-0.058 -0.055,-0.094 -0.091,-0.13Z" style="fill:#4ade80;fill-rule:nonzero;stroke:#22c55e;stroke-width:1px;"/><path d="M34.367,78.994c-0.096,-0.013 -0.191,-0.025 -0.313,-0.083c-0.392,-0.071 -0.786,-0.02 -1.119,-0.138c-0.708,-0.249 -1.459,-0.406 -2.093,-0.843c-0.055,-0.038 -0.131,-0.044 -0.198,-0.065c0,0 0.002,-0 -0.003,-0.021c-0.314,-0.194 -0.623,-0.367 -0.932,-0.54c0,0 0.003,-0.001 0,-0.017c-0.022,-0.026 -0.042,-0.036 -0.062,-0.045c0,0 0.002,-0.001 0.002,-0.021c-0.063,-0.09 -0.126,-0.159 -0.19,-0.229c0,0 0.002,-0 0,-0.017c-0.022,-0.026 -0.042,-0.036 -0.062,-0.045c0,0 0.002,-0.001 0.002,-0.022c-0.125,-0.332 -0.246,-0.645 -0.376,-0.953c-0.075,-0.177 -0.166,-0.347 -0.249,-0.52c0,0 0.002,0 -0.002,-0.019c-0.064,-0.048 -0.124,-0.076 -0.185,-0.105c0,0 0.002,-0 -0.002,-0.02c-0.085,-0.069 -0.166,-0.118 -0.247,-0.167c0,0 0.002,-0.001 -0.002,-0.021c-0.148,-0.11 -0.291,-0.201 -0.434,-0.291c0,0 0.002,-0.001 -0.002,-0.02c-0.21,-0.16 -0.069,-0.237 0.08,-0.321c-0.079,-0.061 -0.141,-0.109 -0.203,-0.158c0,0 0.002,-0 0,-0.017c-0.022,-0.026 -0.042,-0.036 -0.062,-0.045c0,0 0.002,-0.001 0,-0.017c-0.022,-0.026 -0.042,-0.036 -0.062,-0.045c-0,0 0.002,-0 0.002,-0.023c-0.04,-0.112 -0.129,-0.214 -0.112,-0.29c0.06,-0.253 0.09,-0.528 0.418,-0.629c0.259,-0.079 0.496,-0.229 0.749,-0.331c0.261,-0.105 0.527,-0.265 0.796,-0.274c1.406,-0.047 2.814,-0.079 4.221,-0.062c0.553,0.007 1.104,0.153 1.656,0.235c0,0 -0.002,0 0.002,0.02c0.521,0.359 1.038,0.699 1.555,1.038c0,0 -0.003,0.001 -0,0.018c0.022,0.026 0.042,0.035 0.063,0.045c0,0 -0.002,0.001 -0,0.017c0.022,0.026 0.042,0.036 0.063,0.045c0,0 -0.002,0.001 -0,0.017c0.022,0.026 0.042,0.036 0.063,0.045c0,0 -0.002,0.001 -0,0.017c0.022,0.026 0.042,0.036 0.063,0.045c0,0 -0.002,0.001 -0,0.017c0.022,0.026 0.042,0.036 0.063,0.045c0,0 -0.002,0.001 -0,0.017c0.022,0.026 0.042,0.036 0.063,0.045c0,0 -0.002,0.001 -0,0.017c0.022,0.026 0.042,0.036 0.063,0.045c0,0 -0.002,0.001 -0,0.017c0.022,0.026 0.042,0.036 0.063,0.045c0,0 -0.002,0.001 -0,0.017c0.022,0.026 0.042,0.036 0.063,0.045c0,0 -0.002,0.001 -0,0.017c0.022,0.026 0.042,0.036 0.063,0.045c0,0 -0.002,0.001 -0,0.017c0.022,0.026 0.042,0.036 0.063,0.045c0,0 -0.002,0.001 -0,0.017c0.022,0.026 0.042,0.036 0.063,0.045c0,0 -0.002,0.001 -0,0.017c0.022,0.026 0.042,0.036 0.063,0.045c0,0 -0.002,0.001 -0,0.017c0.022,0.026 0.042,0.036 0.062,0.045c0,0 -0.002,0.001 -0,0.017c0.022,0.026 0.042,0.036 0.062,0.045c0,0 -0.002,0.001 -0,0.017c0.022,0.026 0.042,0.036 0.062,0.045c0,0 -0.002,0.001 -0,0.017c0.022,0.026 0.042,0.036 0.062,0.045c0,0 -0.002,0.001 -0,0.017c0.022,0.026 0.042,0.036 0.062,0.045c0,0 -0.002,0.001 -0,0.017c0.022,0.026 0.042,0.036 0.062,0.045c0,0 -0.002,0.001 -0,0.017c0.022,0.026 0.042,0.036 0.062,0.045c0,0 -0.002,0.001 -0,0.017c0.022,0.026 0.042,0.036 0.062,0.045c0,0 -0.002,0.001 -0,0.017c0.022,0.026 0.042,0.036 0.062,0.045c0,0 -0.002,0.001 -0,0.017c0.022,0.026 0.042,0.036 0.063,0.045c0,-0 -0.002,0 0.003,0.021c0.055,0.13 0.17,0.259 0.144,0.345c-0.217,0.73 -0.333,1.469 -0.272,2.231c0.014,0.172 -0.071,0.225 -0.214,0.271c-0.44,0.141 -0.876,0.294 -1.313,0.442c-0.36,0.122 -0.712,0.296 -1.083,0.353c-0.416,0.063 -0.847,0.02 -1.272,0.023Z" style="fill:#4ade80;fill-rule:nonzero;stroke:#22c55e;stroke-width:1px;"/><path d="M81.888,49.461c0.032,0.02 0.042,0.037 0.068,0.06c0.105,0.086 0.195,0.168 0.306,0.252c0.131,0.105 0.242,0.207 0.373,0.311c0.111,0.084 0.201,0.165 0.312,0.249c0.032,0.02 0.042,0.037 0.068,0.06c0.105,0.086 0.195,0.168 0.306,0.252c0.131,0.105 0.242,0.207 0.373,0.311c0.111,0.084 0.201,0.165 0.312,0.249c0.032,0.02 0.042,0.037 0.068,0.06c0.105,0.086 0.195,0.168 0.306,0.252c0.111,0.084 0.201,0.165 0.311,0.249c0.032,0.02 0.042,0.037 0.068,0.06c0.105,0.086 0.195,0.168 0.306,0.252c0.032,0.02 0.042,0.037 0.068,0.06c0.105,0.086 0.195,0.168 0.306,0.252c0.111,0.084 0.201,0.165 0.311,0.249c0.032,0.02 0.042,0.037 0.068,0.06c0.105,0.086 0.195,0.168 0.306,0.252c0.032,0.02 0.042,0.037 0.068,0.06c0.105,0.086 0.195,0.168 0.306,0.252c0.131,0.105 0.242,0.207 0.373,0.311c0.535,0.544 0.751,1.23 0.816,1.935c0.069,0.752 0.492,1.316 0.815,1.939c0.163,0.314 0.348,0.618 0.513,0.931c0.041,0.077 0.058,0.174 0.059,0.262c0.006,0.457 -0,0.913 0.004,1.37c0.002,0.157 -0.012,0.267 -0.21,0.307c-0.153,0.031 -0.305,0.121 -0.433,0.218c-0.31,0.234 -0.663,0.189 -0.987,0.123c-0.84,-0.172 -1.654,-0.195 -2.484,0.091c-0.346,0.119 -0.75,0.06 -1.122,0.114c-0.909,0.132 -1.662,-0.17 -2.381,-0.713c-0.399,-0.301 -0.711,-0.628 -0.936,-1.07c-0.477,-0.94 -1.026,-1.848 -1.451,-2.81c-0.248,-0.562 -0.388,-1.198 -0.446,-1.813c-0.101,-1.065 -0.09,-2.14 -0.149,-3.21c-0.012,-0.214 -0.095,-0.437 -0.192,-0.631c-0.205,-0.406 -0.097,-0.76 0.133,-1.13c0.067,-0.05 0.124,-0.079 0.189,-0.126c0.065,-0.048 0.122,-0.077 0.187,-0.125c0.339,-0.124 0.669,-0.311 1.002,-0.317c0.514,-0.009 1.031,0.103 1.545,0.174c0.073,0.01 0.138,0.077 0.231,0.121c0.114,0.084 0.204,0.166 0.315,0.25Z" style="fill:#4ade80;fill-rule:nonzero;stroke:#22c55e;stroke-width:1px;"/></svg>