<?xml version="1.0" encoding="UTF-8" standalone="no"?><!DOCTYPE svg PUBLIC "-//W3C//DTD SVG 1.1//EN" "http://www.w3.org/Graphics/SVG/1.1/DTD/svg11.dtd"><svg width="100%" height="100%" viewBox="0 0 100 100" version="1.1" xmlns="http://www.w3.org/2000/svg" xmlns:xlink="http://www.w3.org/1999/xlink" xml:space="preserve" xmlns:serif="http://www.serif.com/" style="fill-rule:evenodd;clip-rule:evenodd;stroke-linejoin:round;stroke-miterlimit:2;"><rect id="_1_hokkaido_rebuntou" serif:id="1_hokkaido_rebuntou" x="0" y="0" width="100" height="100" style="fill:none;"/><path d="M36.231,50.605c0,0 -0.019,-0.023 -0.034,-0.05c-0.17,-0.116 -0.326,-0.204 -0.444,-0.272c0.037,-0.059 0.122,-0.132 0.11,-0.185c-0.074,-0.354 -0.331,-0.333 -0.69,-0.181c0.125,-0.183 0.181,-0.264 0.261,-0.38c-0.153,0.029 -0.27,0.05 -0.384,0.072c-0.084,-0.124 -0.165,-0.245 -0.227,-0.336c0.039,-0.13 0.147,-0.306 0.099,-0.381c-0.063,-0.097 -0.25,-0.115 -0.376,-0.164c0.103,-0.073 0.268,-0.175 -0.023,-0.283c0.201,-0.119 0.212,-0.264 0.066,-0.417c-0.088,-0.092 -0.223,-0.243 -0.197,-0.32c0.095,-0.28 -0.051,-0.308 -0.259,-0.361c-0.615,-0.157 -0.714,-0.282 -0.632,-0.877c0.036,-0.265 0.023,-0.405 -0.288,-0.388c-0.066,0.004 -0.147,-0.071 -0.202,-0.128c-0.19,-0.194 -0.38,-0.39 -0.553,-0.599c-0.048,-0.058 -0.069,-0.175 -0.046,-0.247c0.048,-0.153 0.174,-0.29 0.192,-0.442c0.036,-0.3 -0.262,-0.136 -0.381,-0.218c0.117,-0.043 0.23,-0.084 0.356,-0.13c-0.165,-0.18 -0.281,-0.337 -0.428,-0.455c-0.095,-0.076 -0.236,-0.095 -0.357,-0.14c0,0 0.003,-0.005 -0.003,-0.025c-0.221,-0.33 -0.202,-0.553 -0.084,-0.736c0.137,-0.211 0.203,-0.474 0.267,-0.723c0.012,-0.046 -0.119,-0.147 -0.2,-0.195c-0.089,-0.053 -0.196,-0.074 -0.317,-0.117c0.141,-0.173 0.255,-0.313 0.37,-0.454c0.035,0.069 0.064,0.125 0.102,0.199c0.062,-0.102 0.107,-0.176 0.137,-0.225c0.2,0.129 0.319,0.044 0.417,-0.119c0,0 0.003,0.007 0.027,0.006c0.154,-0.022 0.284,-0.052 0.415,-0.061c0.315,-0.02 0.589,-0.214 0.681,-0.504c0.308,0 0.631,0.049 0.93,-0.015c0.27,-0.058 0.514,-0.239 0.769,-0.366c0,0 0.005,0.004 0.026,-0.004c0.163,-0.276 0.137,-0.766 -0.027,-0.926c0,0 0.006,-0.001 0.002,-0.017c-0.024,-0.026 -0.045,-0.035 -0.065,-0.045c0,0 0.006,-0.005 0.002,-0.019c-0.024,-0.024 -0.044,-0.034 -0.064,-0.043c0,0 0.006,-0.005 0.002,-0.019c-0.024,-0.024 -0.044,-0.034 -0.064,-0.043c0,0 0.006,-0.005 0.002,-0.019c-0.024,-0.024 -0.044,-0.034 -0.064,-0.043c0,-0 0.006,-0.005 0.002,-0.019c-0.024,-0.024 -0.044,-0.034 -0.064,-0.043c0,0 0.006,-0.001 0.005,-0.022c-0.018,-0.057 -0.028,-0.098 -0.052,-0.128c-0.202,-0.27 -0.645,-0.433 -0.393,-0.904c0.012,-0.022 -0.043,-0.071 -0.044,-0.109c-0.002,-0.111 -0.017,-0.23 0.016,-0.332c0.075,-0.234 0.204,-0.464 -0.098,-0.636c0,0 0.007,-0.003 0,-0.023c-0.187,-0.131 -0.369,-0.242 -0.553,-0.356c0.114,-0.219 0.043,-0.343 -0.198,-0.374c0,0 0.003,-0.005 -0.003,-0.024c-0.242,-0.152 -0.408,-0.374 -0.73,-0.396c-0.286,-0.02 -0.273,-0.201 -0.11,-0.429c0.143,-0.202 0.398,-0.377 0.296,-0.717c-0.101,-0.335 -0.344,-0.33 -0.656,-0.327c0.097,-0.081 0.153,-0.129 0.191,-0.161c-0.067,-0.103 -0.124,-0.19 -0.181,-0.277c0,0 0.006,0.007 0.03,0.006c0.136,0.009 0.247,0.025 0.359,0.03c0.324,0.013 0.648,-0.292 0.62,-0.6c-0.03,-0.329 -0.271,-0.214 -0.46,-0.179c0.033,-0.116 0.062,-0.214 0.09,-0.313c0,0 -0.004,-0.001 0.02,0.009c0.086,-0.023 0.149,-0.057 0.259,-0.116c-0.288,-0.102 -0.373,-0.215 -0.177,-0.34c0.198,-0.127 0.425,-0.206 0.638,-0.309c0.127,-0.062 0.252,-0.13 0.377,-0.195c0,0 0.006,0.008 0.027,0c0.146,-0.045 0.27,-0.084 0.396,-0.118c0.218,-0.059 0.392,-0.511 0.239,-0.667c-0.089,-0.09 -0.257,-0.131 -0.133,-0.284c0.021,-0.026 0.203,0.076 0.31,0.119c0.018,0.007 0.038,0.011 0.093,0.025c0.026,-0.061 0.054,-0.127 0.083,-0.192c0,0 -0.004,-0.003 0.02,0.008c0.109,-0.146 0.195,-0.302 0.281,-0.459c0,0 0.009,0.009 0.028,0.006c0.44,-0.427 0.322,-1.145 -0.209,-1.305c0,-0.142 0.016,-0.289 -0.004,-0.432c-0.025,-0.184 -0.071,-0.37 -0.314,-0.387c0,0 0.004,-0.005 -0.002,-0.024c-0.452,-0.453 -1.11,-0.453 -1.573,-0.108c-0.008,0.006 0.002,0.037 0.004,0.057c0,0 0.003,0.008 -0.02,-0.001c-0.029,0.016 -0.035,0.042 -0.04,0.067c0,0 0.006,-0.001 -0.02,-0.009c-0.089,0.082 -0.152,0.172 -0.197,0.237c-0.302,-0.046 -0.586,-0.09 -0.869,-0.133c0.445,-0.279 0.486,-0.37 0.33,-0.725c0,0 0.001,0.003 0.025,-0.002c0.142,0.015 0.276,0.007 0.373,0.063c0.201,0.117 0.398,0.044 0.425,-0.183c0.082,-0.688 -0.3,-1.126 -0.977,-1.122c-0.052,0 -0.104,0.003 -0.156,0.005c0,0 0.005,-0.008 -0.002,-0.027c-0.077,-0.227 -0.218,-0.269 -0.417,-0.207c-0.163,0.05 -0.331,0.082 -0.496,0.122c-0.033,-0.334 0.088,-0.412 0.435,-0.299c0.107,0.035 0.25,0.032 0.355,-0.009c0.465,-0.181 0.947,-0.159 1.429,-0.15c0.212,0.004 0.424,0.001 0.63,0.001c0.013,-0.157 0.021,-0.259 0.027,-0.331c0.151,-0.07 0.348,-0.097 0.389,-0.193c0.104,-0.238 0.28,-0.22 0.469,-0.22c0,0 -0.003,-0.006 -0.009,0.02c0.156,0.194 0.29,0.193 0.388,-0.037c0,0 0.004,0.006 0.024,0.005c0.25,-0.059 0.231,-0.21 0.164,-0.38c0,0 0.006,0.004 0.026,0.004c0.31,-0.094 0.508,-0.574 0.941,-0.142c0.109,-0.305 0.233,-0.553 0.283,-0.814c0.073,-0.381 0.097,-0.772 0.133,-1.159c0.02,-0.211 0.062,-0.431 0.022,-0.633c-0.055,-0.274 -0.16,-0.542 -0.278,-0.796c-0.125,-0.268 -0.29,-0.518 -0.438,-0.776c0,0 0.006,-0.004 0.002,-0.019c-0.024,-0.024 -0.044,-0.034 -0.064,-0.043c0,-0 0.006,-0.005 0.002,-0.019c-0.024,-0.024 -0.044,-0.034 -0.064,-0.043c0,0 0.006,-0.005 0.002,-0.02c-0.024,-0.024 -0.044,-0.034 -0.064,-0.043c0,0 0.006,-0.002 0.004,-0.024c-0.129,-0.215 -0.255,-0.409 -0.382,-0.603c0,0 0.006,-0.005 0.002,-0.02c-0.023,-0.024 -0.044,-0.034 -0.064,-0.043c0,0 0.006,-0.005 0.002,-0.019c-0.024,-0.024 -0.044,-0.034 -0.064,-0.044c0,0 0.005,-0.004 0.001,-0.019c-0.024,-0.025 -0.044,-0.034 -0.064,-0.044c0,0 0.005,-0.004 0.001,-0.019c-0.024,-0.025 -0.044,-0.034 -0.064,-0.044c0,0 0.005,-0.004 0.001,-0.019c-0.024,-0.024 -0.044,-0.034 -0.065,-0.043c0,0 0.006,-0.003 0.001,-0.022c-0.109,-0.089 -0.211,-0.158 -0.314,-0.228c0,0 0.004,-0.006 -0.002,-0.026c-0.275,-0.13 -0.544,-0.241 -0.813,-0.351c0,-0 0.005,-0.005 -0,-0.023c-0.066,-0.046 -0.127,-0.074 -0.188,-0.102c0,0 0.003,-0.006 0,-0.02c-0.023,-0.024 -0.043,-0.033 -0.064,-0.042c0,0 0.007,-0.003 0.001,-0.022c-0.067,-0.047 -0.127,-0.075 -0.188,-0.104c0,0 0.004,-0.005 -0.001,-0.023c-0.107,-0.088 -0.21,-0.158 -0.312,-0.228c0,0 0.003,-0.005 0,-0.02c-0.023,-0.024 -0.043,-0.034 -0.062,-0.044c0,0 0.005,-0.002 0.004,-0.024c-0.065,-0.069 -0.13,-0.116 -0.194,-0.162c0,0 0.005,-0.006 0,-0.024c-0.066,-0.046 -0.126,-0.075 -0.187,-0.103c0,0 0.004,-0.005 -0.002,-0.023c-0.087,-0.067 -0.168,-0.115 -0.249,-0.164c0,0 0.005,-0.006 -0.001,-0.024c-0.108,-0.088 -0.211,-0.158 -0.313,-0.227c0,0 0.004,-0.005 -0.001,-0.024c-0.17,-0.109 -0.335,-0.199 -0.5,-0.29c0,0 0.005,-0.005 -0.001,-0.024c-0.129,-0.088 -0.252,-0.157 -0.376,-0.226c0,0 0.004,-0.006 0.001,-0.021c-0.023,-0.024 -0.043,-0.033 -0.064,-0.043c0,0 0.006,-0.004 0,-0.023c-0.105,-0.09 -0.197,-0.174 -0.303,-0.23c-1.061,-0.562 -2.247,-0.608 -3.394,-0.814c-0.401,-0.072 -0.807,-0.115 -1.21,-0.174c-0.313,-0.046 -0.626,-0.136 -0.937,-0.128c-0.171,0.005 -0.275,0.068 -0.481,-0.046c-0.365,-0.2 -0.816,-0.244 -1.234,-0.341c-0.148,-0.035 -0.317,-0.138 -0.445,0.051c-0.068,-0.046 -0.174,-0.078 -0.195,-0.14c-0.071,-0.209 0.101,-0.379 0.333,-0.356c0.093,0.009 0.195,0.026 0.281,-0c0.24,-0.072 0.469,-0.19 0.713,-0.242c0.294,-0.062 0.526,-0.153 0.512,-0.449c0.182,-0.037 0.35,-0.034 0.477,-0.104c0.337,-0.186 0.656,-0.403 0.982,-0.607c0.192,-0.12 0.385,-0.24 0.577,-0.36c0,0 0.003,0.007 0.023,0.005c0.11,-0.107 0.2,-0.212 0.29,-0.317c0,0 0.005,0.004 0.025,-0.002c0.162,-0.421 0.304,-0.837 0.438,-1.228c0.101,-0.062 0.318,-0.123 0.335,-0.219c0.05,-0.283 0.064,-0.588 0.012,-0.87c-0.046,-0.251 -0.248,-0.473 -0.292,-0.723c-0.081,-0.457 -0.41,-0.618 -0.769,-0.772c0,0 0.004,-0.006 -0.001,-0.024c-0.066,-0.046 -0.126,-0.074 -0.187,-0.102c0,0 0.004,-0.006 -0.001,-0.024c-0.058,-0.067 -0.111,-0.117 -0.165,-0.166c-0.298,-0.271 -0.684,-0.272 -1.041,-0.287c-0.433,-0.018 -0.852,-0.26 -1.319,-0.086c-0.071,0.012 -0.131,0.057 -0.162,0.042c-0.161,-0.077 -0.315,-0.169 -0.482,-0.261c0.125,-0.487 -0.01,-0.84 -0.44,-1.075c0.242,-0.287 0.243,-0.543 0.032,-0.803c-0.157,-0.014 -0.281,-0.026 -0.502,-0.046c0.307,-0.17 0.54,-0.295 0.218,-0.553c0.133,-0.046 0.335,-0.08 0.337,-0.123c0.005,-0.124 -0.07,-0.252 -0.112,-0.376c0.269,-0.015 0.601,-0.272 0.61,-0.539c0.004,-0.115 -0.144,-0.235 -0.224,-0.352c0,0 -0.003,0.003 0.008,-0.021c-0.074,-0.158 -0.146,-0.304 -0.248,-0.424c-0.14,-0.166 -0.141,-0.284 0.03,-0.436c0.072,-0.064 0.086,-0.21 0.097,-0.322c0.006,-0.067 -0.046,-0.139 -0.073,-0.209c0.02,-0.025 0.04,-0.05 0.06,-0.076c0.16,0.087 0.382,0.135 0.467,0.269c0.218,0.345 0.371,0.73 0.56,1.094c0.106,0.203 0.235,0.394 0.348,0.593c0.132,0.233 0.206,0.533 0.398,0.69c0.353,0.288 0.775,0.492 1.168,0.731c0,0 0.003,-0.004 -0.009,0.019c0.088,0.09 0.187,0.156 0.283,0.219c0.107,-0.055 0.212,-0.097 0.302,-0.16c0.087,-0.061 0.16,-0.143 0.239,-0.215c-0,-0 0.004,0.006 0.024,0.005c0.103,-0.008 0.185,-0.016 0.267,-0.023c-0.139,0.14 -0.287,0.222 -0.421,0.322c-0.071,0.053 -0.118,0.14 -0.177,0.211c0.084,0.059 0.169,0.117 0.253,0.176c0,0 -0.003,0.006 -0,0.02c0.023,0.024 0.043,0.034 0.063,0.043c0,0 -0.005,0.004 0.001,0.023c0.192,0.067 0.378,0.116 0.563,0.164c0,0 -0.003,0.006 -0.001,0.021c0.023,0.024 0.044,0.033 0.064,0.042c0,0 -0.006,0.005 -0.002,0.02c0.024,0.024 0.045,0.033 0.065,0.042c0,-0 -0.007,0.001 -0.005,0.023c0.002,0.053 0.003,0.084 0.004,0.115c0,0 -0.006,-0.005 -0.027,-0.004c-0.089,0.056 -0.157,0.11 -0.225,0.165c0.084,0.047 0.168,0.094 0.252,0.141c0,-0 -0.003,0.006 -0.001,0.021c0.023,0.024 0.043,0.033 0.064,0.042c0,-0 -0.006,0.004 0,0.025c0.129,0.091 0.245,0.205 0.375,0.225c0.419,0.062 0.843,0.089 1.277,0.131c-0.032,0.081 -0.096,0.197 -0.123,0.321c-0.025,0.113 -0.059,0.275 -0.002,0.345c0.173,0.214 0.264,0.428 0.231,0.708c-0.011,0.092 0.083,0.196 0.13,0.294c0.059,0.125 0.114,0.252 0.18,0.373c0.031,0.056 0.084,0.101 0.127,0.151c0,0 -0.006,0.005 -0.002,0.019c0.023,0.024 0.043,0.034 0.063,0.044c0,0 -0.006,0.001 -0.004,0.024c0.087,0.068 0.172,0.115 0.258,0.161c0,0 -0.002,0.008 0.002,0.027c0.091,0.069 0.173,0.14 0.266,0.165c0.431,0.113 0.872,0.196 1.297,0.327c0.189,0.058 0.493,0.005 0.497,0.35c0.004,0.362 0.124,0.591 0.546,0.462c0.011,-0.003 0.029,0.019 0.057,0.039c-0.372,0.054 -0.733,0.106 -1.106,0.16c0.023,0.284 0.015,0.546 0.077,0.791c0.026,0.104 0.198,0.17 0.304,0.254c0,0 -0.003,0.006 -0,0.02c0.023,0.024 0.043,0.033 0.063,0.043c0,0 -0.006,0.004 -0.002,0.019c0.024,0.024 0.044,0.034 0.065,0.043c0,0 -0.006,0.005 -0.002,0.02c0.024,0.024 0.045,0.034 0.065,0.043c0,0 -0.006,0.005 -0.002,0.02c0.024,0.024 0.045,0.033 0.065,0.042c0,0 -0.007,0.003 -0.001,0.022c0.15,0.131 0.295,0.243 0.439,0.355c0,0 -0.003,0.005 -0,0.02c0.023,0.024 0.043,0.033 0.063,0.043c0,0 -0.006,0.004 -0.002,0.019c0.024,0.024 0.045,0.034 0.065,0.043c0,0 -0.006,0.005 -0.002,0.02c0.024,0.024 0.045,0.034 0.065,0.043c0,0 -0.005,0.005 0.001,0.025c0.272,0.262 0.562,0.18 0.873,0.065c0,0.07 -0.018,0.131 0.003,0.17c0.131,0.237 0.04,0.618 0.439,0.681c0,0 -0.003,0.005 -0,0.02c0.023,0.024 0.043,0.033 0.063,0.042c0,0 -0.006,0.005 0.001,0.024c0.183,0.109 0.346,0.208 0.376,0.432c0.003,0.02 0.081,0.03 0.124,0.045c0,0 -0.005,0.006 0.001,0.024c0.319,0.214 0.613,0.452 0.949,0.594c0.373,0.158 0.752,0.268 1.098,0.513c0.375,0.266 0.828,0.422 1.25,0.621c0.072,0.034 0.164,0.069 0.234,0.052c0.608,-0.141 1.135,0.095 1.684,0.301c0.385,0.145 0.802,0.218 1.211,0.278c0.477,0.07 0.962,0.075 1.441,0.134c1.068,0.131 2.139,0.253 3.215,0.177c0.888,-0.062 1.784,-0.046 2.626,-0.473c0.366,-0.185 0.87,-0.006 1.263,-0.267c0.059,-0.039 0.165,-0.015 0.248,-0.008c0.557,0.044 1.034,-0.141 1.45,-0.504c0,0 0.004,0.006 0.025,0.004c0.364,-0.136 0.66,-0.375 1.08,-0.327c0.233,0.027 0.5,-0.078 0.724,-0.182c0.588,-0.272 1.163,-0.571 1.738,-0.87c0.119,-0.062 0.214,-0.171 0.32,-0.258c0,0 0.004,0.006 0.019,0.003c0.024,-0.023 0.033,-0.044 0.043,-0.064c0,0 0.005,0.006 0.02,0.002c0.024,-0.024 0.034,-0.044 0.043,-0.064c-0,0 0.003,0.006 0.025,0.005c0.299,-0.191 0.576,-0.381 0.854,-0.57c0,-0 0.005,0.005 0.019,0.002c0.024,-0.023 0.034,-0.043 0.043,-0.064c0,0 0.002,0.006 0.024,0.005c0.048,-0.044 0.075,-0.087 0.101,-0.13c0,0 0.006,0.003 0.02,0c0.024,-0.023 0.033,-0.043 0.042,-0.064c0,0 0.004,0.006 0.024,-0c0.12,-0.219 0.22,-0.431 0.337,-0.68c-0.047,0.009 -0.025,0.009 -0.007,0.001c0.18,-0.078 0.376,-0.136 0.531,-0.249c0.052,-0.038 0.006,-0.217 -0.004,-0.331c-0.016,-0.193 -0.055,-0.386 -0.056,-0.579c-0.001,-0.51 0.005,-0.51 -0.502,-0.545c-0.017,-0.001 -0.033,-0.021 -0.032,-0.02c-0.041,-0.19 -0.079,-0.365 -0.116,-0.532c-0.135,-0.007 -0.236,-0.012 -0.348,-0.017c-0.025,-0.495 -0.041,-0.967 -0.077,-1.438c-0.01,-0.123 -0.083,-0.241 -0.132,-0.374c0.011,-0.029 0.086,-0.13 0.063,-0.195c-0.066,-0.179 0.015,-0.467 -0.308,-0.484c0,0 0.004,-0.005 0,-0.02c-0.023,-0.024 -0.044,-0.033 -0.064,-0.042c0,0 0.006,-0.004 0,-0.023c-0.058,-0.094 -0.094,-0.198 -0.165,-0.24c-0.312,-0.181 -0.327,-0.482 -0.258,-0.756c0.169,-0.67 -0.027,-1.225 -0.418,-1.756c-0.177,-0.241 -0.261,-0.533 -0.139,-0.832c0.089,-0.22 0.205,-0.429 0.322,-0.669c0.291,0.1 0.606,0.208 0.92,0.316c0,0 -0.005,0.004 0.001,0.023c0.109,0.068 0.211,0.116 0.313,0.165c0,-0 -0.006,0.004 0,0.023c0.067,0.047 0.127,0.075 0.188,0.102c0,0 -0.004,0.005 0.001,0.023c0.188,0.176 0.37,0.333 0.553,0.491c0,0 0.005,-0.003 -0.005,0.019c0.016,0.029 0.042,0.036 0.068,0.042c0,0 0.001,-0.006 -0.01,0.018c0.083,0.09 0.177,0.156 0.271,0.222c0,-0 -0.003,0.005 -0,0.02c0.023,0.024 0.044,0.033 0.064,0.042c0,0 -0.002,0.005 0.001,0.023c0.026,0.032 0.049,0.047 0.072,0.061c0,0 0.016,0.022 0.033,0.048c0.056,0.04 0.096,0.054 0.135,0.068c0,-0 0.001,-0.006 -0.01,0.018c0.354,0.257 0.72,0.49 1.085,0.722c0,0 -0.004,0.005 0.002,0.025c0.013,0.027 0.019,0.037 0.028,0.042c0.37,0.229 0.873,0.212 1.146,0.621c0.007,0.011 0.04,0.004 0.06,0.007c0.338,0.062 0.679,0.111 1.011,0.195c0.115,0.029 0.308,0.176 0.295,0.218c-0.112,0.371 0.186,0.383 0.386,0.491c0.281,0.151 0.556,0.313 0.834,0.47c0,0 -0.005,0.006 0,0.024c0.108,0.088 0.21,0.158 0.313,0.227c0,-0 -0.003,0.006 -0,0.02c0.023,0.024 0.043,0.033 0.063,0.043c0,0 -0.006,0.005 -0.002,0.02c0.024,0.024 0.045,0.034 0.065,0.043c0,0 -0.006,0.005 -0.002,0.02c0.024,0.024 0.045,0.033 0.065,0.043c0,-0 -0.006,0.005 -0.005,0.028c0.021,0.122 0.038,0.222 0.059,0.32c0.054,0.256 0.141,0.486 0.448,0.529c0,0 -0.003,0.006 -0.001,0.021c0.022,0.024 0.043,0.034 0.063,0.043c0,0 -0.006,0.005 -0.002,0.02c0.024,0.024 0.045,0.034 0.065,0.043c0,0 -0.002,0.005 0.002,0.023c0.026,0.032 0.049,0.046 0.072,0.061c0,-0 0.017,0.022 0.032,0.047c0.058,0.071 0.104,0.114 0.142,0.163c0.167,0.21 0.387,0.377 0.377,0.7c-0.007,0.223 0.123,0.407 0.377,0.449c0,0 -0.005,0.005 0,0.023c0.087,0.088 0.17,0.158 0.253,0.228c0,0 -0.005,0.005 -0.002,0.02c0.023,0.024 0.043,0.034 0.063,0.043c0,0 -0.006,0.004 -0.005,0.023c0.044,0.068 0.088,0.117 0.131,0.166c0,-0 -0.006,0.004 -0.005,0.023c0.044,0.068 0.087,0.116 0.131,0.165c0,0 -0.006,0.004 -0.005,0.024c0.118,0.179 0.293,0.323 0.341,0.501c0.107,0.391 0.234,0.807 0.201,1.199c-0.062,0.725 0.331,1.212 0.717,1.725c0,0 -0.007,0.003 -0.005,0.022c0.045,0.068 0.088,0.117 0.131,0.166c0,0 -0.006,0.004 -0.005,0.023c0.044,0.067 0.087,0.116 0.131,0.165c0,0 -0.006,0.004 -0.005,0.023c0.065,0.089 0.13,0.158 0.194,0.227c0,0 -0.006,0.005 -0.003,0.019c0.024,0.024 0.044,0.033 0.064,0.043c0,0 -0.006,0.005 -0.002,0.02c0.024,0.024 0.045,0.034 0.065,0.043c0,0 -0.006,0.005 -0.002,0.02c0.024,0.024 0.045,0.034 0.065,0.043c0,0 -0.006,0.003 -0.001,0.022c0.108,0.11 0.211,0.202 0.315,0.293c0,0 -0.006,0.004 -0.005,0.023c0.044,0.068 0.087,0.117 0.13,0.165c0,0 -0.006,0.004 -0.004,0.025c0.065,0.088 0.129,0.156 0.193,0.224c0,0 -0.006,0.006 -0.005,0.026c0.126,0.355 0.214,0.712 0.392,1.016c0.092,0.158 0.017,0.497 0.365,0.462c0,0 -0.004,0.007 -0.001,0.021c0.023,0.024 0.043,0.033 0.064,0.043c0,0 -0.006,0.005 -0.002,0.02c0.024,0.024 0.045,0.034 0.065,0.043c0,0 -0.006,0.005 -0.002,0.02c0.024,0.024 0.045,0.033 0.065,0.042c0,0 -0.007,0.002 -0.005,0.025c0.045,0.07 0.088,0.116 0.131,0.163c0,0 -0.005,0.006 -0,0.024c0.087,0.067 0.168,0.116 0.25,0.164c0,0 -0.004,0.006 -0.001,0.021c0.023,0.024 0.044,0.033 0.064,0.043c0,0 -0.006,0.003 -0.001,0.022c0.151,0.173 0.295,0.326 0.44,0.479c0,0 -0.007,0.003 -0.005,0.025c0.176,0.234 0.345,0.451 0.524,0.658c0.085,0.098 0.189,0.179 0.284,0.267c0,0 0.005,-0.002 -0.009,0.019c0.146,0.25 0.302,0.482 0.47,0.705c0.035,0.046 0.117,0.055 0.177,0.081c0,0 -0.005,0.006 0.001,0.024c0.129,0.088 0.252,0.157 0.375,0.227c0,0 -0.005,0.006 0.002,0.025c0.206,0.17 0.566,0.22 0.375,0.613c0,0 -0.007,-0.005 -0.025,0.002c-0.168,0.254 -0.258,0.529 -0.676,0.441c-0.397,-0.084 -0.819,-0.075 -1.228,-0.06c-0.134,0.005 -0.262,0.159 -0.392,0.245c0,0 -0.004,-0.006 -0.022,-0c-0.257,0.193 -0.459,0.411 -0.473,0.731c-0.005,0.116 -0.101,0.265 0.123,0.354c0.126,0.05 0.258,0.267 0.258,0.408c0.001,0.28 -0.074,0.564 -0.148,0.838c-0.025,0.092 -0.134,0.17 -0.22,0.234c-0.252,0.188 -0.513,0.365 -0.769,0.548c-0.011,0.008 -0.003,0.041 -0.009,0.06c-0.06,0.217 -0.121,0.434 -0.182,0.65c0,0 -0.006,-0.006 -0.024,-0.001c-0.091,0.091 -0.177,0.169 -0.233,0.264c-0.114,0.196 -0.187,0.42 -0.322,0.598c-0.135,0.179 -0.42,0.282 -0.19,0.577c0.008,0.011 -0.041,0.064 -0.059,0.099c-0.143,0.281 -0.285,0.563 -0.428,0.844c0,0 -0.006,-0.003 -0.02,-0c-0.024,0.023 -0.033,0.043 -0.042,0.064c0,0 -0.004,-0.006 -0.024,0.001c-0.069,0.094 -0.18,0.209 -0.156,0.264c0.154,0.351 -0.127,0.57 -0.222,0.844c-0.021,0.061 -0.039,0.175 -0.011,0.193c0.365,0.24 0.178,0.583 0.189,0.894c0.01,0.271 -0.012,0.573 0.29,0.737c0,0 -0.006,-0.002 -0.006,0.021c0.061,0.075 0.121,0.127 0.182,0.179c0,0 0.002,-0.004 -0.012,0.016c0.001,0.127 0.017,0.234 0.031,0.341c0.015,0.115 0.071,0.247 0.035,0.343c-0.11,0.292 -0.056,0.54 0.206,0.734c0,0 -0.005,0.004 -0.005,0.026c-0.018,0.1 -0.065,0.185 -0.05,0.256c0.094,0.446 0.199,0.889 0.306,1.332c0.016,0.065 0.096,0.167 0.083,0.178c-0.272,0.235 -0.186,0.584 -0.264,0.873c-0.151,0.564 -0.223,1.15 -0.325,1.716c-0.31,0.021 -0.561,0.056 -0.601,0.375l-1.151,0c0.148,0.088 0.225,0.133 0.299,0.177c-0.003,0.027 -0.005,0.046 -0.006,0.066c-0.012,0.183 -0.051,0.371 -0.02,0.546c0.009,0.052 0.235,0.043 0.323,0.111c0.099,0.077 0.223,0.214 0.216,0.317c-0.02,0.274 0.14,0.408 0.318,0.548c0,0 -0.007,0.002 -0.005,0.024c0.084,0.157 0.161,0.296 0.249,0.428c0.057,0.085 0.129,0.159 0.195,0.237c0,0 -0.007,0.003 -0.005,0.024c0.064,0.237 0.142,0.449 0.185,0.669c0.08,0.41 0.127,0.828 0.216,1.236c0.022,0.1 0.152,0.177 0.232,0.265c0,0 -0.007,-0 -0.006,0.022c0.031,0.094 0.076,0.164 0.087,0.238c0.07,0.503 0.125,1.009 0.201,1.511c0.033,0.22 0.176,0.445 0.144,0.648c-0.092,0.583 -0.057,1.121 0.298,1.647c-0.346,0.196 -0.23,0.483 -0.1,0.8c0.068,0.168 0.094,0.389 0.047,0.56c-0.11,0.398 -0.277,0.78 -0.421,1.168c0,0 -0.004,-0.006 -0.023,-0.001c-0.09,0.113 -0.205,0.214 -0.22,0.329c-0.022,0.167 0.046,0.343 0.041,0.515c-0.007,0.219 0.064,0.374 0.266,0.463c0,0 -0.006,0.004 -0.002,0.019c0.024,0.024 0.044,0.034 0.064,0.043c0,0 -0.005,0.005 0.001,0.023c0.046,0.05 0.1,0.072 0.124,0.113c0.108,0.18 0.374,0.283 0.268,0.568c-0.093,0.253 -0.252,0.512 -0.245,0.764c0.014,0.527 -0.266,0.91 -0.518,1.309c-0.222,0.35 -0.164,0.746 0.164,0.963c0.067,0.044 0.098,0.187 0.095,0.282c-0.005,0.157 -0.089,0.317 -0.073,0.468c0.046,0.429 0.157,0.836 0.079,1.291c-0.059,0.349 -0.087,0.638 -0.431,0.809c-0.052,0.026 -0.075,0.111 -0.112,0.169c0,0 0.003,0 -0.018,-0.002c-0.028,0.021 -0.036,0.044 -0.043,0.068c0,0 -0.004,-0 -0.027,-0.003c-0.071,0.129 -0.12,0.261 -0.18,0.425c-0.051,0.068 -0.131,0.176 -0.212,0.285c0,0 -0.001,-0.003 -0.021,0.002c-0.048,0.066 -0.076,0.127 -0.104,0.188c0,0 -0.006,-0.004 -0.025,0.001c-0.315,0.346 -0.337,0.754 -0.305,1.176c0,0 0.001,-0.004 -0.024,-0.008c-0.07,0.084 -0.116,0.172 -0.162,0.26c0,0 0.008,0.006 -0.018,-0.004c-0.069,0.083 -0.111,0.177 -0.154,0.27c0,0 -0.007,-0.001 -0.027,0.003c-0.117,0.319 -0.214,0.633 -0.322,0.983c-0.372,0.109 -0.816,0.218 -1.244,0.373c-0.304,0.111 -0.585,0.284 -0.877,0.43c0,0 0.005,0.014 -0.019,0.005c-0.044,0.023 -0.065,0.055 -0.086,0.086c0,0 -0.005,-0.006 -0.026,-0.005c-0.102,0.085 -0.226,0.155 -0.255,0.254c-0.048,0.161 -0.003,0.351 -0.053,0.511c-0.07,0.222 0.038,0.268 0.209,0.294c0,0 -0.006,0.005 -0.005,0.031c-0.096,0.36 0.224,0.649 0.112,0.989c-0.006,0.018 0.094,0.072 0.144,0.109c0,0 -0.002,0.006 0.006,0.026c0.189,0.101 0.415,0.139 0.543,0.271c0.206,0.214 0.055,0.447 -0.089,0.649c-0.136,0.191 -0.125,0.505 0.026,0.636c0,0 0.002,-0.005 -0.006,0.02c0.014,0.148 0.079,0.284 0.048,0.393c-0.059,0.207 -0.014,0.344 0.161,0.452c0,0 -0.006,0.001 -0.005,0.022c0.077,0.119 0.152,0.215 0.228,0.312c0,0 0.006,-0.002 0.004,0.022c0.069,0.064 0.141,0.104 0.212,0.143c0,0 -0.004,0.006 -0.001,0.021c0.023,0.024 0.043,0.033 0.064,0.043c0,0 -0.006,0.003 -0.001,0.021c0.038,0.033 0.072,0.049 0.105,0.065c0,0 0.005,0.003 0.001,0.024c0.046,0.04 0.096,0.059 0.146,0.078c0,0 -0.005,0.004 -0.004,0.029c-0.001,0.132 -0.003,0.24 -0.027,0.36c0.009,0.241 -0.039,0.546 0.09,0.682c0.3,0.316 0.368,0.664 0.377,1.063c0.008,0.324 0.11,0.608 0.396,0.812c0.248,0.177 0.339,0.443 0.362,0.748c0.012,0.154 0.066,0.329 0.16,0.448c0.113,0.143 0.172,0.236 0.099,0.434c-0.063,0.169 -0.051,0.395 0.179,0.501c0,0 -0.003,0.008 -0.003,0.027c0.087,0.153 0.173,0.286 0.229,0.373c-0.184,0.054 -0.251,0.271 -0.227,0.577c0.018,0.233 0.055,0.49 -0.252,0.64c-0.141,0.069 -0.299,0.234 -0.201,0.473c0.024,0.058 -0.049,0.164 -0.093,0.238c-0.127,0.214 -0.261,0.422 -0.393,0.633c0,0 -0.006,-0.007 -0.025,0.001c-0.297,0.382 -0.575,0.756 -0.852,1.13c0,0 -0.008,-0.008 -0.027,-0c-0.089,0.138 -0.187,0.26 -0.222,0.398c-0.052,0.205 -0.03,0.431 -0.092,0.632c-0.186,0.601 -0.397,1.193 -0.599,1.789c0,0 -0.007,-0.006 -0.025,-0c-0.08,0.041 -0.141,0.076 -0.183,0.099c0.154,0.203 0.263,0.346 0.373,0.491c-0.165,0.06 -0.165,0.06 -0.383,-0.15c-0.095,-0.092 -0.191,-0.23 -0.287,-0c0,0 -0.007,-0.007 -0.027,-0.005c-0.287,0.177 -0.553,0.34 -0.676,0.671c-0.081,0.217 -0.027,0.293 0.177,0.332c0.052,0.01 0.095,0.067 0.141,0.103c-0.065,0.031 -0.13,0.061 -0.195,0.092c0,0 0.009,-0.006 -0.001,-0.028c-0.159,-0.058 -0.308,-0.093 -0.497,-0.138c-0.023,0.255 -0.041,0.449 -0.056,0.615c0.212,0.047 0.371,0.083 0.543,0.121c-0.067,0.061 -0.127,0.092 -0.152,0.142c-0.173,0.333 -0.332,0.673 -0.513,1.002c-0.04,0.072 -0.14,0.127 -0.224,0.156c-0.174,0.06 -0.357,0.098 -0.546,0.148c0.058,0.201 0.102,0.353 0.148,0.513c-0.263,0.062 -0.503,0.118 -0.734,0.172c0.096,0.329 0.185,0.64 0.277,0.95c0.263,0.888 0.816,1.668 0.971,2.596c0.04,0.239 0.131,0.496 0.08,0.717c-0.084,0.362 -0.264,0.702 -0.408,1.074c-0.151,0.433 -0.312,0.84 -0.442,1.255c-0.178,0.568 -0.169,0.571 0.431,0.609c0,0 -0.004,-0.004 -0.009,0.023c0.074,0.109 0.152,0.192 0.281,0.327c-0.231,0.015 -0.363,0.023 -0.491,0.032c-0.092,0.85 -0.074,0.907 0.283,1.022l0,0.529c0,0 0.005,-0.001 -0.02,-0.01c-0.417,0.141 -0.738,0.372 -0.909,0.772c0,0 -0.006,-0.004 -0.025,0.001c-0.088,0.128 -0.158,0.251 -0.227,0.374c0,0 -0.005,-0.004 -0.025,0.002c-0.07,0.104 -0.114,0.204 -0.172,0.298c-0.091,0.148 -0.16,0.364 -0.293,0.42c-0.257,0.109 -0.548,0.168 -0.824,-0.029c-0.089,-0.064 -0.246,-0.091 -0.352,-0.063c-0.412,0.11 -0.747,-0.063 -1.102,-0.224c-0.357,-0.163 -0.712,-0.349 -1.143,-0.167c-0.266,0.112 -0.573,0.125 -0.857,0.199c-0.077,0.02 -0.139,0.102 -0.208,0.155c-0.183,-0.022 -0.374,-0.013 -0.537,0.058c-0.93,0.408 -1.904,0.556 -2.887,0.334c-0.72,-0.163 -1.354,-0.548 -1.765,-1.21c-0.106,-0.171 -0.178,-0.388 -0.328,-0.501c-0.505,-0.378 -1.037,-0.719 -1.56,-1.072c-0.092,-0.062 -0.266,-0.107 -0.273,-0.174c-0.044,-0.422 -0.313,-0.647 -0.603,-0.776c0.07,-0.989 -0.395,-1.397 -1.342,-1.379c0.303,-0.269 0.558,-0.495 0.776,-0.689c0.225,-0.04 0.432,-0.087 0.641,-0.111c0.38,-0.044 0.384,-0.406 0.552,-0.629c0.086,-0.115 0.192,-0.329 0.263,-0.319c0.374,0.055 0.459,-0.297 0.617,-0.462c0.319,-0.334 0.667,-0.485 1.104,-0.498c0.25,-0.007 0.508,0.03 0.748,-0.02c0.563,-0.118 0.853,-0.873 0.561,-1.374c-0.049,-0.083 -0.068,-0.284 -0.045,-0.293c0.358,-0.143 0.378,-0.488 0.54,-0.762c0.19,-0.321 0.208,-0.596 0.118,-0.896c-0.157,-0.524 -0.369,-1.031 -0.538,-1.552c-0.096,-0.297 -0.199,-0.605 -0.217,-0.912c-0.034,-0.596 -0.576,-1.235 -1.169,-1.303c-0.084,-0.263 -0.148,-0.534 -0.258,-0.785c-0.109,-0.249 -0.21,-0.474 -0.034,-0.735c0.112,-0.167 0.193,-0.354 0.296,-0.527c0.164,-0.273 0.084,-0.551 -0.141,-0.781c-0.188,-0.192 -0.369,-0.433 -0.444,-0.684c-0.105,-0.353 -0.345,-0.548 -0.615,-0.734c-0.4,-0.277 -0.839,-0.394 -1.322,-0.242c0.007,-0.139 0.034,-0.335 0.015,-0.339c-0.352,-0.083 -0.209,-0.363 -0.221,-0.562c-0.014,-0.236 -0.153,-0.361 -0.341,-0.411c-0.295,-0.079 -0.602,-0.113 -0.879,-0.161c0.012,-0.124 0.085,-0.376 0.031,-0.407c-0.213,-0.121 -0.25,-0.299 -0.296,-0.503c-0.02,-0.09 -0.101,-0.189 -0.183,-0.238c-0.428,-0.257 -0.87,-0.49 -1.294,-0.752c-0.146,-0.09 -0.271,-0.228 -0.376,-0.367c-0.229,-0.3 -0.389,-0.653 -0.758,-0.833c-0.107,-0.052 -0.302,-0.093 -0.203,-0.339c0.023,-0.057 -0.233,-0.299 -0.39,-0.339c-0.209,-0.052 -0.446,0.011 -0.69,0.025c0.116,-0.141 0.221,-0.267 0.34,-0.411c-0.048,-0.035 -0.112,-0.083 -0.176,-0.131c0,0 0.004,-0.004 -0.002,-0.023c-0.105,-0.131 -0.264,-0.23 -0.289,-0.356c-0.067,-0.329 -0.418,-0.638 -0.751,-0.6c-0.041,-0.083 -0.081,-0.164 -0.092,-0.187c0.044,-0.122 0.121,-0.236 0.093,-0.276c-0.173,-0.25 -0.375,-0.104 -0.568,-0.012c-0.08,-0.055 -0.159,-0.109 -0.24,-0.166c0.328,-0.231 0.168,-0.935 -0.271,-1.187c0.23,-0.131 0.302,-0.293 0.148,-0.451c0.131,-0.155 0.279,-0.292 0.378,-0.458c0.111,-0.188 0.128,-0.452 0.272,-0.597c0.329,-0.333 0.151,-0.68 0.097,-1.022c-0.045,-0.285 -0.189,-0.561 -0.198,-0.844c-0.008,-0.263 -0.136,-0.399 -0.312,-0.527c-0.081,-0.059 -0.188,-0.081 -0.272,-0.138c-0.388,-0.265 -0.781,-0.526 -0.688,-1.099c0.015,-0.091 -0.021,-0.211 -0.076,-0.288c-0.153,-0.215 -0.327,-0.415 -0.491,-0.617c0.462,-0.506 0.489,-0.651 0.222,-0.817c0.055,-0.094 0.169,-0.198 0.152,-0.273c-0.056,-0.25 -0.076,-0.539 -0.374,-0.657c0,0 0.006,-0.005 0.002,-0.02c-0.023,-0.024 -0.043,-0.034 -0.064,-0.043c0,0 0.006,-0.003 0.005,-0.027c-0.022,-0.322 -0.032,-0.62 -0.067,-0.916c-0.033,-0.274 -0.11,-0.524 -0.017,-0.822c0.082,-0.264 0.095,-0.606 -0.271,-0.772c-0.05,-0.023 -0.077,-0.139 -0.082,-0.214c-0.039,-0.551 -0.049,-0.565 -0.613,-0.675c0.065,-0.292 0.02,-0.345 -0.373,-0.447c0.011,-0.08 0.061,-0.2 0.028,-0.231c-0.27,-0.252 -0.092,-0.553 -0.132,-0.827c-0.047,-0.322 -0.102,-0.679 -0.227,-0.964c-0.225,-0.512 -0.595,-0.96 -0.904,-1.435c0.242,-0.186 0.239,-0.454 -0.014,-0.658c-0.027,-0.022 -0.017,-0.086 -0.041,-0.118c-0.05,-0.065 -0.111,-0.12 -0.167,-0.18c0,0 -0.003,0.004 0.007,-0.021c-0.232,-0.176 -0.526,-0.259 -0.656,-0.551Z" style="fill:#4ade80;fill-rule:nonzero;stroke:#22c55e;stroke-width:1px;"/></svg>