<?xml version="1.0" encoding="UTF-8" standalone="no"?><!DOCTYPE svg PUBLIC "-//W3C//DTD SVG 1.1//EN" "http://www.w3.org/Graphics/SVG/1.1/DTD/svg11.dtd"><svg width="100%" height="100%" viewBox="0 0 100 100" version="1.1" xmlns="http://www.w3.org/2000/svg" xmlns:xlink="http://www.w3.org/1999/xlink" xml:space="preserve" xmlns:serif="http://www.serif.com/" style="fill-rule:evenodd;clip-rule:evenodd;stroke-linejoin:round;stroke-miterlimit:2;"><rect id="_20_tokyo_oshima" serif:id="20_tokyo_oshima" x="0" y="0" width="100" height="100" style="fill:none;"/><g id="_20_tokyo_oshima1" serif:id="20_tokyo_oshima"><path d="M57.987,89.15c-0.129,0.212 -0.291,0.33 -0.493,0.321c-1.251,-0.06 -2.497,-0.139 -3.528,-0.993c-0.342,-0.284 -0.696,-0.412 -1.141,-0.139c-0.739,0.455 -1.46,0.301 -2.141,-0.173c-0.108,-0.075 -0.171,-0.177 -0.173,-0.307c-0.011,-0.533 -0.322,-0.616 -0.778,-0.571c-0.426,0.043 -0.856,0.071 -1.286,0.08c-0.606,0.012 -0.944,-0.3 -1.344,-0.606c-0.111,-0.085 -0.173,-0.179 -0.14,-0.31c0.102,-0.412 -0.179,-0.742 -0.308,-1.07c-0.177,-0.45 -0.702,-0.259 -1.082,-0.218c-0.27,0.029 -0.526,0.178 -0.793,0.261c-0.424,0.132 -0.595,0.007 -0.617,-0.432c-0.003,-0.066 0,-0.175 -0.035,-0.192c-0.621,-0.3 -0.905,-1.082 -1.664,-1.174c-0.244,-0.03 -0.314,-0.278 -0.495,-0.357c-0.587,-0.256 -1.014,-0.653 -1.427,-1.156c-0.324,-0.395 -0.687,-0.887 -1.296,-0.996c-0.132,-0.024 -0.182,-0.225 -0.117,-0.362c0.148,-0.316 -0.021,-0.491 -0.249,-0.655c-0.269,-0.194 -0.532,-0.395 -0.804,-0.584c-0.796,-0.555 -1.602,-0.892 -2.603,-0.443c-0.495,0.222 -1.046,0.116 -1.441,-0.369c-0.068,-0.083 -0.213,-0.104 -0.325,-0.149c-0.744,-0.302 -1.389,-0.687 -1.568,-1.571c-0.054,-0.266 -0.317,-0.409 -0.592,-0.449c-0.528,-0.077 -1.086,-0.004 -1.566,-0.322c-0.039,-0.026 -0.111,-0.034 -0.153,-0.016c-1.208,0.515 -2.234,-0.455 -3.396,-0.418c-0.64,0.02 -1.193,-0.431 -1.801,-0.627c-0.164,-0.053 -0.335,-0.209 -0.487,-0.08c-0.365,0.312 -0.705,0.19 -1.045,-0.011c-0.347,-0.205 -0.622,-0.151 -0.864,0.171c-0.121,0.161 -0.275,0.288 -0.485,0.116c-0.181,-0.147 -0.205,-0.334 -0.068,-0.509c0.507,-0.649 0.431,-1.533 0.911,-2.2c0.218,-0.302 0.193,-0.715 0.189,-1.068c-0.006,-0.601 0.232,-1.075 0.564,-1.534c0.513,-0.708 0.312,-1.201 -0.377,-1.741c-0.591,-0.463 -1.133,-1.01 -1.707,-1.509c-0.371,-0.322 -0.714,-0.646 -0.859,-1.15c-0.093,-0.323 -0.436,-0.463 -0.72,-0.568c-0.843,-0.31 -1.321,-0.993 -1.77,-1.689c-0.384,-0.595 -0.146,-1.298 -0.209,-1.95c-0.083,-0.859 0.163,-1.737 -0.18,-2.586c-0.072,-0.179 0.03,-0.386 0.191,-0.562c0.343,-0.375 0.552,-0.807 0.336,-1.338c-0.037,-0.091 -0.045,-0.217 -0.015,-0.309c0.262,-0.808 0.323,-1.594 -0.156,-2.356c-0.093,-0.148 0.025,-0.3 0.117,-0.431c0.14,-0.2 0.285,-0.397 0.416,-0.603c0.196,-0.307 0.362,-0.7 0.724,-0.137c0.102,0.158 0.247,0.073 0.377,0.023c0.905,-0.348 1.43,-1.635 1.001,-2.506c-0.209,-0.424 0.077,-0.814 0.036,-1.225c-0.011,-0.112 0.059,-0.244 -0.035,-0.341c-0.57,-0.583 -0.199,-1.181 0.014,-1.739c0.102,-0.267 0.133,-0.475 -0.027,-0.674c-0.398,-0.494 -0.654,-1.182 -1.511,-1.064c-0.273,0.038 -0.465,-0.155 -0.497,-0.483c-0.069,-0.707 -0.299,-0.939 -1.009,-1.158c-0.206,-0.063 -0.439,-0.132 -0.534,-0.424c0.998,-0.317 1.139,-1.106 1.074,-2.029c-0.263,-0.085 -0.609,-0.093 -0.554,-0.564c0.033,-0.278 -0.256,-0.277 -0.466,-0.291c-0.505,-0.034 -1.01,-0.066 -1.515,-0.097c-0.198,-0.012 -0.421,-0.016 -0.381,-0.299c0.04,-0.287 0.229,-0.231 0.434,-0.159c0.406,0.142 0.83,0.069 1.246,0.063c0.285,-0.004 0.357,-0.209 0.398,-0.461c0.06,-0.367 0.185,-0.737 -0.407,-0.834c0.174,-0.298 0.354,-0.541 0.088,-0.864c-0.243,-0.296 -0.639,0.048 -0.841,-0.252c0.01,-0.056 0.004,-0.108 0.024,-0.121c0.572,-0.369 0.58,-0.376 0.121,-0.928c-0.248,-0.298 -0.461,-0.614 -0.619,-0.965c-0.056,-0.124 -0.135,-0.282 -0.101,-0.394c0.229,-0.767 -0.054,-1.471 -0.233,-2.188c-0.008,-0.034 -0.033,-0.077 -0.021,-0.1c0.346,-0.679 0.065,-1.352 -0.006,-2.03c-0.029,-0.283 0.124,-0.496 0.407,-0.604c0.228,-0.087 0.441,-0.235 0.675,-0.28c0.474,-0.091 0.656,-0.351 0.586,-0.814c-0.008,-0.051 -0.013,-0.109 0.003,-0.156c0.173,-0.492 0.433,-0.981 -0.078,-1.446c-0.05,-0.046 -0.015,-0.258 0.048,-0.343c0.359,-0.485 0.108,-0.878 -0.22,-1.196c-0.376,-0.363 -0.541,-0.848 -0.839,-1.253c-0.174,-0.236 -0.29,-0.526 0.06,-0.772c0.163,-0.114 0.111,-0.33 0.069,-0.492c-0.066,-0.252 -0.176,-0.491 -0.263,-0.738c-0.152,-0.429 -0.204,-0.796 0.09,-1.25c0.395,-0.611 0.226,-1.358 0.1,-2.035c-0.123,-0.665 0.379,-1.497 1.056,-1.599c0.223,-0.034 0.442,-0.089 0.665,-0.123c0.111,-0.017 0.267,-0.076 0.251,-0.148c-0.103,-0.47 0.299,-0.786 0.321,-1.26c0.042,-0.916 0.454,-1.778 0.835,-2.622c0.751,-0.188 1.068,-1.118 1.932,-1.124c0.159,-0.001 0.246,-0.185 0.37,-0.268c0.629,-0.42 0.781,-1.197 1.218,-1.678c0.44,-0.484 0.274,-1.193 0.847,-1.547c0.169,-0.104 0.016,-0.388 -0.06,-0.584c-0.268,-0.695 0.005,-1.073 0.712,-0.884c0.758,0.203 1.536,0.354 2.161,0.953c0.472,0.453 1.13,0.689 1.772,0.871c0.432,0.122 0.82,-0.048 1.195,-0.262c0.574,-0.328 1.141,-0.676 1.74,-0.953c0.753,-0.348 1.183,-0.135 1.727,0.481c0.538,0.609 1.043,1.25 1.602,1.836c0.478,0.501 1.092,0.731 1.816,0.475c0.275,-0.097 0.578,-0.134 0.871,-0.161c0.395,-0.036 0.657,0.103 0.736,0.549c0.264,1.497 1.994,2.757 3.495,2.578c0.358,-0.043 0.69,0.087 1.004,0.243c0.274,0.136 0.481,0.177 0.73,-0.101c0.349,-0.39 0.552,-0.336 0.824,0.127c0.228,0.046 0.391,-0.071 0.566,-0.243c-0.152,-0.337 -0.483,-0.488 -0.747,-0.694c-0.31,-0.243 -0.558,-0.525 -0.74,-0.869c-0.102,-0.194 -0.298,-0.4 0.035,-0.561c0.27,-0.13 0.544,-0.283 0.761,0.098c0.497,0.874 1.421,1.268 2.143,1.889c0.134,0.115 0.301,0.057 0.452,0.084c0.336,0.06 0.711,0.06 0.809,0.514c0.035,0.161 0.183,0.217 0.333,0.175c0.455,-0.128 0.845,0.088 1.186,0.301c0.501,0.313 1.027,0.288 1.565,0.288c0.186,-0 0.312,-0.067 0.442,-0.217c0.285,-0.33 0.72,-0.262 0.936,0.114c0.271,0.473 1.064,0.73 1.544,0.496c0.306,-0.149 0.606,-0.281 0.932,-0.036c0.057,0.043 0.173,0.048 0.246,0.025c0.632,-0.201 1.106,0.077 1.557,0.474c0.25,0.22 0.483,0.531 0.888,0.197c0.197,-0.162 0.311,0.256 0.556,0.15c0.47,-0.204 1.001,-0.19 1.461,-0.484c0.349,-0.223 0.773,-0.034 1.144,0.106c0.134,0.05 0.158,0.199 0.06,0.308c-0.18,0.199 -0.164,0.371 0.032,0.537c0.197,0.166 0.314,0.461 0.688,0.294c0.306,-0.136 0.434,0.118 0.484,0.374c0.048,0.24 0.147,0.33 0.416,0.352c0.5,0.039 0.706,0.337 0.618,0.796c0.225,0.058 0.461,0.071 0.647,0.272c0.309,0.334 0.742,0.452 1.178,0.525c0.611,0.102 1.196,0.427 1.849,0.051c0.332,-0.191 0.579,0.209 0.777,0.406c0.455,0.451 1.102,0.781 1.144,1.545c0.002,0.045 0.048,0.124 0.077,0.126c0.634,0.043 0.731,0.985 1.489,0.826c-0.013,0.375 0.188,0.543 0.469,0.692c0.273,0.145 0.632,0.22 0.698,0.625c0.019,0.115 0.18,0.071 0.273,0.108c0.393,0.155 0.766,0.336 0.953,0.758c0.147,0.331 0.481,0.466 0.77,0.599c0.633,0.292 1.136,0.64 1.393,1.353c0.223,0.62 0.727,1.001 1.56,0.877c-0.424,0.747 0.19,1.075 0.419,1.555c0.281,0.587 0.61,1.173 0.546,1.867c-0.008,0.081 -0.012,0.202 0.036,0.243c0.54,0.473 0.505,1.216 0.849,1.785c0.263,0.436 0.335,0.979 0.734,1.353c0.062,0.058 0.071,0.193 0.071,0.292c-0.002,0.479 0.203,0.885 0.475,1.248c0.425,0.565 0.409,1.296 0.754,1.889c0.087,0.149 -0.06,0.245 -0.17,0.338c-0.371,0.316 -0.558,0.999 -0.397,1.417c0.018,0.048 0.039,0.115 0.077,0.132c1.062,0.452 0.852,1.576 1.24,2.38c0.135,0.281 0.234,0.593 0.444,0.814c0.306,0.325 0.668,0.582 1.138,0.223c0.207,-0.158 0.387,-0.076 0.538,0.119c0.498,0.642 0.966,1.308 1.523,1.904c0.353,0.377 0.269,0.907 0.44,1.353c0.161,0.421 0.424,0.837 0.267,1.343c-0.031,0.1 0.136,0.262 0.211,0.395c-0.708,0.377 -0.817,0.714 -0.528,1.693c-0.301,0.034 -0.717,-0.027 -0.567,0.5c-0.57,0.246 -0.585,1.082 -1.321,1.194c-0.312,0.047 -0.556,0.391 -0.65,0.701c-0.124,0.407 -0.272,0.795 -0.457,1.177c-0.126,0.261 -0.138,0.534 0.162,0.738c0.123,0.084 0.193,0.243 0.298,0.357c0.392,0.426 0.567,1.969 0.275,2.469c-0.39,0.668 -0.265,1.777 0.246,2.355c0.183,0.207 0.553,0.005 0.656,0.343c-0.306,0.677 -0.307,0.679 0.46,1.131c0.278,0.164 0.642,0.256 0.505,0.719c-0.017,0.056 0.061,0.189 0.122,0.212c0.877,0.328 0.73,1.082 0.629,1.718c-0.096,0.607 0.306,1.044 0.343,1.586c0.004,0.064 0.101,0.151 0.082,0.183c-0.31,0.516 -0.258,1.157 -0.503,1.655c-0.239,0.485 -0.766,0.803 -1.347,0.984c-1.061,0.329 -1.717,1.055 -1.896,2.179c-0.173,1.086 -0.297,2.175 -0.32,3.275c-0.007,0.328 0.097,0.564 0.381,0.745c0.41,0.261 0.819,0.522 1.055,0.986c0.103,0.202 0.334,0.318 0.553,0.376c0.806,0.214 1.352,0.794 1.876,1.371c0.354,0.389 0.545,1.051 0.475,1.438c-0.09,0.496 -0.508,1.136 -1.079,1.307c-0.619,0.185 -0.889,0.626 -1.103,1.097c-0.248,0.545 -0.412,1.147 -0.499,1.74c-0.066,0.454 -0.264,0.708 -0.665,0.825c-0.428,0.125 -0.537,0.404 -0.456,0.801c0.146,0.715 0.094,1.452 0.27,2.168c0.07,0.286 -0.054,0.556 -0.468,0.5c-0.285,-0.039 -0.506,0.236 -0.851,0.134c-0.282,-0.083 -0.54,-0.138 -0.787,-0.324c-0.36,-0.271 -0.818,-0.271 -1.249,-0.337c-0.794,-0.121 -1.126,-0.762 -0.773,-1.468c0.029,-0.059 0.071,-0.143 0.05,-0.191c-0.168,-0.391 -0.536,-0.534 -0.896,-0.664c-0.309,-0.112 -0.493,0.103 -0.643,0.327c-0.21,0.314 -0.111,0.614 0.119,0.858c0.158,0.168 0.299,0.33 0.378,0.552c0.038,0.107 0.16,0.28 0.217,0.27c0.507,-0.086 0.576,0.34 0.777,0.618c0.081,0.112 0.181,0.213 0.286,0.304c0.45,0.39 0.884,0.986 1.031,1.553c0.069,0.266 0.226,0.215 0.388,0.206c0.226,-0.013 0.45,-0.047 0.676,-0.069c0.18,-0.018 0.317,0.042 0.34,0.238c0.026,0.227 -0.132,0.247 -0.304,0.253c-0.174,0.006 -0.36,0.069 -0.52,0.027c-0.489,-0.126 -0.748,0.17 -0.842,0.536c-0.171,0.663 -0.719,0.999 -1.219,1.113c-1.279,0.291 -2.578,0.763 -3.916,0.339c-0.462,-0.146 -0.884,-0.279 -1.387,-0.205c-0.807,0.119 -1.138,-0.544 -1.522,-1.072c-0.316,-0.435 -0.604,-0.874 -1.253,-0.586c-0.162,0.072 -0.254,-0.066 -0.346,-0.171c-0.171,-0.197 -0.333,-0.404 -0.516,-0.591c-0.462,-0.474 -0.643,-0.471 -1.137,0.016c-0.154,0.152 -0.301,0.126 -0.474,0.042c-0.884,-0.428 -1.768,-0.363 -2.653,0.005c-0.676,0.28 -1.371,0.542 -2.064,0.737c-0.714,0.201 -1.537,0.284 -2.254,0.053c-0.322,-0.104 -0.615,-0.339 -1.006,-0.385c-0.279,-0.033 -0.471,0.006 -0.686,0.213" style="fill:#4ade80;fill-rule:nonzero;stroke:#22c55e;stroke-width:1px;"/></g></svg>