<?xml version="1.0" encoding="UTF-8" standalone="no"?><!DOCTYPE svg PUBLIC "-//W3C//DTD SVG 1.1//EN" "http://www.w3.org/Graphics/SVG/1.1/DTD/svg11.dtd"><svg width="100%" height="100%" viewBox="0 0 100 100" version="1.1" xmlns="http://www.w3.org/2000/svg" xmlns:xlink="http://www.w3.org/1999/xlink" xml:space="preserve" xmlns:serif="http://www.serif.com/" style="fill-rule:evenodd;clip-rule:evenodd;stroke-linejoin:round;stroke-miterlimit:2;"><rect id="_21_tokyo_toshima" serif:id="21_tokyo_toshima" x="0" y="0" width="100" height="100" style="fill:none;"/><g id="_21_tokyo_toshima1" serif:id="21_tokyo_toshima"><path d="M34.896,19.804c0.028,-0.159 0.056,-0.318 0.117,-0.516c0.212,-0.338 0.076,-0.637 0.064,-0.944c-0.029,-0.733 0.021,-1.47 0.046,-2.234c0.03,-0.164 0.071,-0.298 0.073,-0.432c0.005,-0.445 0.329,-0.255 0.538,-0.271c0.26,-0.02 0.317,0.128 0.235,0.377c-0.237,1.385 -0.461,2.746 -0.691,4.134c-0.038,0.178 -0.043,0.281 0.175,0.291c0.294,0.013 0.585,0.081 0.879,0.115c0.096,0.011 0.206,0.014 0.293,-0.02c0.386,-0.151 0.766,-0.16 1.171,-0.063c0.16,0.038 0.372,-0.034 0.53,-0.115c0.482,-0.247 0.807,-0.233 1.073,-0.001c0.368,0 0.623,0.001 0.877,-0.001c0.049,-0 0.098,-0.02 0.146,-0.018c0.507,0.021 1.013,0.05 1.52,0.067c0.305,0.01 0.702,0.121 0.893,-0.027c0.303,-0.234 0.562,-0.175 0.86,-0.139c0.047,0.006 0.115,0.023 0.141,-0.001c0.453,-0.419 1.014,-0.011 1.501,-0.192c0.07,-0.026 0.186,0.103 0.289,0.125c0.47,0.101 0.941,0.206 1.417,0.275c0.172,0.025 0.357,-0.054 0.538,-0.079c0.146,-0.02 0.306,0.003 0.437,-0.05c0.624,-0.253 1.245,-0.515 1.854,-0.8c0.118,-0.055 0.239,-0.218 0.26,-0.347c0.202,-1.23 0.383,-2.463 0.579,-3.726c0.103,-0.66 0.196,-1.29 0.299,-1.95c0.112,-0.679 0.215,-1.329 0.322,-2.009c0.205,0.042 0.369,0.076 0.568,0.117c-0.351,2.192 -0.695,4.341 -1.042,6.511c0.344,0.042 0.648,0.079 0.964,0.117c-0.067,0.487 -0.127,0.928 -0.195,1.399c-0.044,0.283 -0.081,0.537 -0.109,0.731c0.351,0.114 0.647,0.213 0.945,0.303c0.054,0.016 0.12,-0.011 0.181,-0.01c0.229,0.002 0.5,-0.07 0.679,0.026c0.569,0.307 1.075,0.11 1.604,-0.08c0.144,-0.052 0.322,-0.07 0.47,-0.038c0.511,0.112 0.507,0.123 0.535,-0.408c0.002,-0.048 0.019,-0.096 0.034,-0.173c0.183,-0.011 0.365,-0.021 0.546,-0.032c-0.017,0.037 -0.034,0.074 -0.051,0.111c0.133,0.09 0.269,0.261 0.4,0.257c0.585,-0.016 1.168,-0.088 1.753,-0.125c0.221,-0.014 0.316,-0.095 0.29,-0.322c-0.051,-0.459 -0.107,-0.918 -0.131,-1.378c-0.014,-0.268 -0.131,-0.341 -0.375,-0.324c-0.884,0.059 -1.769,0.11 -2.688,0.16c-0.55,0.025 -1.065,0.053 -1.565,0.08c-0.131,-0.393 -0.041,-0.526 0.351,-0.544c1.066,-0.05 2.13,-0.151 3.227,-0.227c0.445,-0.03 0.858,-0.064 1.293,-0.1c0.046,0.302 0.083,0.546 0.119,0.82c0.032,0.3 0.064,0.569 0.096,0.832c0.187,0.027 0.362,0.012 0.499,0.078c0.546,0.262 1.08,0.548 1.618,0.826c0.431,0.223 0.834,0.462 1.372,0.423c0.387,-0.028 0.805,0.093 1.176,0.235c0.319,0.122 0.509,0.098 0.627,-0.234c0.035,-0.099 0.09,-0.234 0.169,-0.263c0.126,-0.047 0.384,-0.06 0.403,-0.014c0.069,0.172 0.072,0.374 0.083,0.565c0.007,0.121 -0.016,0.244 -0.026,0.367c0.111,-0.004 0.226,-0.028 0.333,-0.009c0.136,0.025 0.271,0.075 0.397,0.134c0.155,0.073 0.291,0.19 0.451,0.246c0.495,0.175 1,0.319 1.492,0.5c0.1,0.037 0.143,0.207 0.241,0.273c0.165,0.111 0.351,0.26 0.53,0.263c0.36,0.007 0.697,-0.014 0.935,0.328c0.036,0.051 0.158,0.034 0.231,0.07c0.249,0.121 0.493,0.251 0.738,0.379c0.142,0.074 0.279,0.164 0.427,0.222c0.114,0.044 0.266,0.013 0.362,0.075c0.399,0.258 0.804,0.334 1.295,0.344c0.513,0.011 1.021,0.308 1.529,0.485c0.043,0.015 0.075,0.062 0.112,0.094c0.168,0.142 0.336,0.284 0.505,0.425c0.104,0.088 0.28,0.16 0.302,0.265c0.099,0.465 0.422,0.394 0.749,0.372c0.275,-0.019 0.491,0.039 0.609,0.361c0.057,0.155 0.29,0.268 0.466,0.352c0.221,0.104 0.539,0.058 0.535,0.446c-0.001,0.049 0.172,0.099 0.264,0.15c0.343,0.19 0.687,0.377 1.027,0.573c0.218,0.125 0.429,0.262 0.641,0.395c0.162,0.102 0.45,0.197 0.458,0.311c0.026,0.349 0.243,0.285 0.457,0.338c0.469,0.116 0.922,0.273 1.156,0.773c0.042,0.09 0.242,0.107 0.369,0.158c0.063,0.003 0.126,0.006 0.23,0.038c0.273,0.238 0.608,0.354 0.653,0.735c0.006,0.051 0.128,0.12 0.2,0.125c0.39,0.025 0.61,0.24 0.724,0.595c0.079,0.247 0.253,0.34 0.505,0.425c0.549,0.185 0.728,0.784 1.13,1.144c0.006,0.006 -0.003,0.027 0.002,0.036c0.093,0.144 0.161,0.32 0.288,0.424c0.219,0.181 0.414,0.335 0.166,0.616c0.386,0.337 0.758,0.653 1.119,0.983c0.075,0.068 0.099,0.189 0.158,0.278c0.098,0.147 0.197,0.294 0.311,0.428c0.071,0.083 0.249,0.15 0.243,0.213c-0.038,0.454 0.406,0.501 0.595,0.756c0.141,0.191 0.228,0.421 0.353,0.626c0.264,0.431 0.546,0.852 0.801,1.288c0.056,0.096 0.027,0.241 0.03,0.393c0.041,0.43 0.479,0.716 0.33,1.176c-0.002,0.007 0.012,0.023 0.022,0.028c0.313,0.179 0.317,0.503 0.395,0.801c0.041,0.157 0.144,0.325 0.268,0.427c0.265,0.216 0.352,0.488 0.293,0.794c-0.046,0.239 0.031,0.367 0.21,0.503c0.119,0.091 0.295,0.29 0.264,0.364c-0.18,0.429 0.097,0.757 0.183,1.126c0.027,0.115 -0.005,0.242 0.006,0.362c0.012,0.143 -0.01,0.335 0.072,0.418c0.549,0.551 -0.01,1.23 0.227,1.811c0.016,0.04 -0.054,0.109 -0.069,0.169c-0.014,0.057 -0.014,0.12 -0.011,0.18c0.013,0.339 0.029,0.678 0.026,1.028c-0.038,0.032 -0.057,0.052 -0.102,0.079c-0.349,0.217 -0.195,0.552 -0.241,0.834c0,0 -0.007,-0.004 -0.028,-0.017c-0.109,0.103 -0.234,0.207 -0.276,0.338c-0.119,0.374 -0.204,0.76 -0.304,1.137c-0.001,-0.003 0.001,-0.009 -0.003,0.02c-0.099,0.203 -0.195,0.377 -0.291,0.551c0,0 -0.004,-0.008 -0.029,-0.016c-0.111,0.09 -0.249,0.177 -0.275,0.29c-0.064,0.278 -0.186,0.471 -0.466,0.571c-0.1,0.036 -0.238,0.15 -0.243,0.235c-0.018,0.299 -0.222,0.34 -0.438,0.423c-0.111,0.043 -0.182,0.19 -0.271,0.291c0,0 -0.006,-0.004 -0.03,-0.013c-0.18,0.376 -0.405,0.7 -0.787,0.902c-0.054,0.029 -0.056,0.155 -0.082,0.237c0,0 -0.005,-0.001 -0.023,-0.017c-0.049,0.043 -0.081,0.103 -0.121,0.189c-0.129,0.135 -0.247,0.245 -0.369,0.35c-0.089,0.077 -0.243,0.135 -0.262,0.224c-0.086,0.411 -0.279,0.739 -0.614,0.993c-0.06,0.046 -0.065,0.16 -0.109,0.234c-0.042,0.071 -0.092,0.172 -0.156,0.188c-0.406,0.101 -0.379,0.45 -0.5,0.745c-0.119,0.289 -0.407,0.505 -0.603,0.766c-0.12,0.161 -0.197,0.353 -0.31,0.52c-0.075,0.112 -0.168,0.217 -0.271,0.304c-0.439,0.37 -0.821,0.812 -1.267,1.159c-0.507,0.395 -0.606,0.452 -0.403,1.041c-0.3,0.162 -0.581,0.282 -0.931,0.066c-0.322,-0.2 -0.447,-0.118 -0.608,0.204c-0.076,0.152 -0.24,0.26 -0.365,0.388c-0.082,0.083 -0.174,0.158 -0.246,0.248c-0.206,0.258 -0.359,0.671 -0.616,0.749c-0.4,0.121 -0.6,0.399 -0.883,0.628c-0.366,0.296 -0.852,0.403 -1.146,0.849c-0.18,0.274 -0.55,0.427 -0.846,0.617c-0.153,0.098 -0.326,0.213 -0.496,0.224c-0.371,0.026 -0.563,0.204 -0.665,0.545c-0.03,0.103 -0.142,0.186 -0.228,0.266c-0.365,0.345 -0.74,0.68 -1.097,1.032c-0.059,0.058 -0.07,0.188 -0.067,0.283c0.009,0.339 -0.222,0.52 -0.48,0.59c-0.306,0.083 -0.41,0.27 -0.503,0.533c-0.052,0.148 -0.187,0.36 -0.306,0.375c-0.532,0.07 -0.793,0.407 -0.986,0.85c-0.033,0.077 -0.1,0.148 -0.168,0.199c-0.518,0.388 -1.047,0.763 -1.559,1.16c-0.167,0.13 -0.289,0.317 -0.439,0.47c-0.134,0.136 -0.276,0.265 -0.42,0.391c-0.138,0.12 -0.288,0.226 -0.425,0.348c-0.123,0.11 -0.218,0.309 -0.354,0.337c-0.355,0.075 -0.581,0.276 -0.739,0.575c-0.175,0.331 -0.443,0.515 -0.798,0.626c-0.174,0.054 -0.405,0.18 -0.455,0.326c-0.145,0.424 -0.468,0.567 -0.84,0.656c-0.328,0.079 -0.521,0.258 -0.592,0.592c-0.069,0.325 -0.288,0.522 -0.617,0.553c-0.294,0.028 -0.452,0.193 -0.621,0.416c-0.156,0.206 -0.404,0.341 -0.603,0.516c-0.178,0.156 -0.344,0.324 -0.516,0.486c-0.184,0.173 -0.359,0.356 -0.554,0.514c-0.152,0.123 -0.351,0.192 -0.489,0.326c-0.359,0.351 -0.697,0.723 -1.038,1.092c-0.066,0.071 -0.141,0.163 -0.15,0.251c-0.028,0.276 -0.192,0.407 -0.426,0.514c-0.129,0.059 -0.233,0.18 -0.337,0.285c-0.321,0.324 -0.637,0.652 -0.953,0.981c-0.033,0.035 -0.078,0.077 -0.082,0.119c-0.067,0.799 -1.044,0.743 -1.294,1.373c-0.018,0.044 -0.147,0.033 -0.203,0.076c-0.111,0.087 -0.218,0.185 -0.307,0.294c-0.136,0.167 -0.25,0.351 -0.382,0.52c-0.12,0.154 -0.242,0.31 -0.381,0.446c-0.133,0.13 -0.292,0.234 -0.435,0.353c-0.181,0.15 -0.36,0.303 -0.536,0.459c-0.107,0.096 -0.191,0.223 -0.309,0.299c-0.503,0.325 -1.014,0.636 -1.523,0.953c-0.01,0.006 -0.021,0.016 -0.027,0.026c-0.197,0.396 -0.525,0.607 -0.947,0.709c-0.096,0.023 -0.195,0.124 -0.248,0.215c-0.115,0.202 -0.292,0.2 -0.49,0.253c-0.574,0.153 -1.127,0.385 -1.692,0.575c-0.62,0.208 -1.244,0.402 -1.866,0.602c-0.011,0.004 -0.026,-0.004 -0.037,-0c-0.173,0.047 -0.349,0.084 -0.517,0.144c-0.173,0.062 -0.334,0.161 -0.508,0.218c-0.243,0.08 -0.525,0.085 -0.736,0.212c-0.404,0.242 -1.543,0.427 -1.961,0.23c-0.269,-0.127 -0.492,-0.143 -0.711,0.084c-0.172,0.177 -0.359,0.279 -0.631,0.172c-0.124,-0.049 -0.319,-0.032 -0.434,0.036c-0.36,0.212 -0.713,0.155 -1.107,0.139c-0.524,-0.021 -1.046,0.087 -1.592,0.012c-0.3,-0.041 -0.639,0.135 -0.966,-0.034c-0.067,-0.035 -0.171,0.002 -0.288,0.01c-0.632,0.049 -1.238,0.205 -1.817,-0.12c-0.078,-0.044 -0.192,-0.022 -0.29,-0.031c-0.194,-0.018 -0.419,0.021 -0.575,-0.065c-0.369,-0.203 -0.706,-0.459 -1.166,-0.376c-0.05,0.009 -0.131,-0.033 -0.164,-0.076c-0.251,-0.332 -0.659,-0.285 -0.971,-0.431c-0.531,-0.248 -1.064,-0.494 -1.61,-0.712c-0.182,-0.073 -0.37,-0.139 -0.561,-0.176c-0.319,-0.061 -0.675,-0.018 -0.805,-0.446c-0.024,-0.08 -0.238,-0.18 -0.322,-0.15c-0.398,0.143 -0.629,-0.024 -0.892,-0.31c-0.253,-0.275 -0.601,-0.465 -0.911,-0.686c-0.034,-0.024 -0.098,-0.022 -0.144,-0.013c-0.56,0.107 -0.987,-0.341 -1.516,-0.364c-0.04,-0.002 -0.074,-0.067 -0.117,-0.089c-0.204,-0.104 -0.4,-0.247 -0.617,-0.294c-0.529,-0.115 -1.045,-0.222 -1.426,-0.66c-0.068,-0.078 -0.221,-0.107 -0.338,-0.115c-0.51,-0.036 -0.925,-0.255 -1.285,-0.607c-0.072,-0.07 -0.186,-0.096 -0.282,-0.142c-0.181,-0.088 -0.366,-0.166 -0.54,-0.265c-0.169,-0.097 -0.313,-0.256 -0.492,-0.315c-0.318,-0.105 -0.467,-0.271 -0.469,-0.621c-0.001,-0.151 -0.156,-0.304 -0.25,-0.451c-0.115,-0.179 -0.262,-0.341 -0.357,-0.529c-0.153,-0.301 -0.271,-0.619 -0.413,-0.925c-0.023,-0.049 -0.093,-0.097 -0.148,-0.106c-0.397,-0.063 -0.556,-0.376 -0.663,-0.69c-0.099,-0.287 -0.314,-0.352 -0.546,-0.448c-0.212,-0.088 -0.441,-0.181 -0.601,-0.335c-0.409,-0.393 -0.789,-0.818 -1.171,-1.238c-0.09,-0.099 -0.163,-0.224 -0.208,-0.35c-0.118,-0.333 -0.336,-0.536 -0.676,-0.637c-0.309,-0.092 -0.519,-0.301 -0.54,-0.643c-0.019,-0.315 -0.204,-0.513 -0.466,-0.623c-0.382,-0.159 -0.521,-0.463 -0.619,-0.83c-0.048,-0.18 -0.138,-0.411 -0.28,-0.491c-0.68,-0.383 -0.733,-1.25 -1.34,-1.679c-0.034,-0.024 -0.049,-0.088 -0.057,-0.136c-0.077,-0.46 -0.379,-0.732 -0.761,-0.955c-0.342,-0.199 -0.636,-0.464 -0.673,-0.889c-0.032,-0.361 -0.198,-0.604 -0.508,-0.772c-0.442,-0.239 -0.62,-0.68 -0.637,-1.118c-0.02,-0.515 -0.045,-0.991 -0.411,-1.389c-0.038,-0.042 -0.041,-0.116 -0.062,-0.174c-0.161,-0.439 -0.323,-0.877 -0.486,-1.346c-0.028,-0.377 0.01,-0.746 -0.096,-1.066c-0.227,-0.686 -0.48,-1.352 -0.156,-2.072c-0.206,-0.55 -0.212,-1.121 -0.212,-1.699c-0,-0.405 -0.049,-0.812 -0.094,-1.216c-0.033,-0.298 -0.028,-0.628 -0.162,-0.879c-0.188,-0.353 -0.21,-0.663 -0.091,-1.031c0.065,-0.201 0.067,-0.438 0.04,-0.651c-0.048,-0.378 -0.151,-0.749 -0.211,-1.127c-0.042,-0.265 -0.021,-0.542 -0.081,-0.802c-0.109,-0.473 -0.264,-0.936 -0.095,-1.452c0.033,-0.144 0.058,-0.263 0.103,-0.394c0.027,-0.043 0.033,-0.073 0.045,-0.13c-0.022,-0.109 -0.048,-0.192 -0.078,-0.299c-0.023,-0.047 -0.043,-0.07 -0.057,-0.121c0.068,-0.276 0.138,-0.523 0.187,-0.773c0.025,-0.127 0.064,-0.333 0.002,-0.381c-0.279,-0.216 -0.22,-0.492 -0.204,-0.769c0,0 0.005,0.006 0.002,-0.023c-0.004,-0.072 -0.006,-0.115 -0.001,-0.188c0.002,-0.087 -0.003,-0.143 -0.008,-0.2c0,0 0.005,0.006 0.032,0.014c0.062,-0.099 0.121,-0.206 0.126,-0.315c0.01,-0.223 -0.009,-0.448 -0.01,-0.689c0.006,-0.017 0.005,-0.054 0.011,-0.082c0.026,-0.136 0.046,-0.245 0.065,-0.353c0,0 0.007,0.004 0.03,0.011c0.03,-0.025 0.037,-0.058 0.045,-0.09c0,0 0.008,0.009 0.029,0.013c0.06,-0.084 0.099,-0.173 0.157,-0.275c0.026,-0.043 0.033,-0.073 0.046,-0.137c-0.019,-0.406 -0.133,-0.799 0.269,-1.066c0.037,-0.024 0.034,-0.115 0.041,-0.176c0.039,-0.317 0.024,-0.652 0.126,-0.946c0.134,-0.388 0.16,-0.733 -0.068,-1.108c0.015,-0.116 0.014,-0.206 0.036,-0.289c0.098,-0.368 0.311,-0.745 0.276,-1.099c-0.042,-0.434 0.116,-0.683 0.397,-0.932c0.052,-0.046 0.079,-0.124 0.108,-0.191c0.116,-0.268 0.228,-0.538 0.385,-0.911c-0.12,-0.363 -0.04,-0.619 0.381,-0.95c0.045,-0.035 0.118,-0.1 0.109,-0.13c-0.18,-0.578 0.547,-0.775 0.535,-1.281c-0.001,-0.023 0.064,-0.041 0.082,-0.071c0.187,-0.313 0.372,-0.627 0.552,-0.943c0.015,-0.027 -0.009,-0.074 -0.003,-0.11c0.029,-0.185 0.018,-0.394 0.103,-0.549c0.18,-0.328 0.175,-0.81 0.682,-0.897c0.028,-0.005 0.03,-0.113 0.059,-0.166c0.051,-0.097 0.091,-0.224 0.175,-0.274c0.214,-0.13 0.46,-0.216 0.414,-0.539c0.454,-0.241 0.585,-0.766 0.952,-1.084c0.062,-0.054 0.125,-0.109 0.173,-0.175c0.1,-0.137 0.175,-0.293 0.286,-0.419c0.243,-0.275 0.54,-0.509 0.744,-0.808c0.201,-0.294 0.301,-0.656 0.474,-0.973c0.066,-0.121 0.191,-0.243 0.318,-0.292c0.42,-0.163 0.661,-0.449 0.807,-0.877c0.096,-0.282 0.275,-0.561 0.483,-0.776c0.402,-0.416 0.849,-0.788 1.282,-1.173c0.117,-0.104 0.357,-0.189 0.357,-0.283c-0,-0.362 0.255,-0.381 0.459,-0.478c0.107,-0.211 0.252,-0.388 0.393,-0.567c0.037,-0.047 0.057,-0.107 0.096,-0.152c0.283,-0.323 0.569,-0.644 0.854,-0.965c0.016,-0.018 0.043,-0.037 0.064,-0.036c0.278,0.018 0.421,-0.138 0.534,-0.37c0.037,-0.077 0.164,-0.107 0.239,-0.171c0.42,-0.358 0.892,-0.675 1.235,-1.097c0.251,-0.308 0.522,-0.488 0.868,-0.641c0.358,-0.158 0.681,-0.395 1.019,-0.6c0.019,-0.011 0.037,-0.04 0.038,-0.062c0.015,-0.412 0.349,-0.38 0.616,-0.456c0.117,-0.033 0.256,-0.091 0.323,-0.182c0.154,-0.211 1.059,-0.847 1.313,-0.882c0.025,-0.003 0.051,-0.012 0.074,-0.008c0.705,0.112 1.124,-0.523 1.731,-0.671c0.047,-0.011 0.043,-0.168 0.097,-0.224c0.117,-0.122 0.257,-0.317 0.386,-0.316c0.89,0.011 1.755,-0.331 2.676,-0.073c0.611,0.171 1.289,0.103 1.937,0.144c0.407,0.026 0.525,-0.151 0.379,-0.577Z" style="fill:#4ade80;fill-rule:nonzero;stroke:#22c55e;stroke-width:1px;"/></g></svg>