<?xml version="1.0" encoding="UTF-8" standalone="no"?><!DOCTYPE svg PUBLIC "-//W3C//DTD SVG 1.1//EN" "http://www.w3.org/Graphics/SVG/1.1/DTD/svg11.dtd"><svg width="100%" height="100%" viewBox="0 0 100 100" version="1.1" xmlns="http://www.w3.org/2000/svg" xmlns:xlink="http://www.w3.org/1999/xlink" xml:space="preserve" xmlns:serif="http://www.serif.com/" style="fill-rule:evenodd;clip-rule:evenodd;stroke-linejoin:round;stroke-miterlimit:2;"><rect id="_22_tokyo_nijima" serif:id="22_tokyo_nijima" x="0" y="0" width="100" height="100" style="fill:none;"/><g id="_22_tokyo_nijima1" serif:id="22_tokyo_nijima"><path d="M45.795,93.503c-0.015,-0.003 -0.031,-0.006 -0.079,-0.04c-0.547,-0.206 -1.069,-0.361 -1.572,-0.564c-0.503,-0.202 -0.996,-0.434 -1.476,-0.687c-0.379,-0.2 -0.77,-0.408 -1.086,-0.69c-0.459,-0.41 -0.853,-0.893 -1.282,-1.338c-0.235,-0.244 -0.508,-0.454 -0.726,-0.711c-0.472,-0.556 -1.104,-0.836 -1.787,-0.885c-0.917,-0.066 -1.468,-0.641 -1.967,-1.266c-0.394,-0.494 -0.634,-1.107 -0.994,-1.632c-0.442,-0.645 -0.783,-1.323 -0.962,-2.087c-0.203,-0.867 -0.716,-1.435 -1.603,-1.659c-0.417,-0.105 -0.866,-0.203 -1.012,-0.714c-0.015,-0.052 -0.073,-0.102 -0.123,-0.132c-0.362,-0.212 -0.741,-0.399 -1.087,-0.634c-0.326,-0.221 -0.679,-0.478 -0.709,-0.904c-0.041,-0.588 -0.036,-1.185 0.015,-1.772c0.026,-0.296 0.174,-0.59 0.305,-0.867c0.154,-0.327 0.243,-0.637 0.189,-1.014c-0.066,-0.459 -0.012,-0.908 0.426,-1.23c0.115,-0.085 0.177,-0.317 0.17,-0.477c-0.028,-0.608 -0.137,-1.213 -0.14,-1.82c-0.008,-1.548 -0.449,-2.974 -1.145,-4.332c-0.342,-0.667 -0.758,-1.282 -1.458,-1.477c0,-0.264 0.082,-0.545 -0.021,-0.714c-0.123,-0.201 -0.403,-0.306 -0.644,-0.472c0.078,-0.069 0.139,-0.142 0.216,-0.188c0.808,-0.487 1.034,-0.998 0.926,-1.947c-0.046,-0.401 -0.195,-0.782 0.036,-1.183c0.049,-0.086 -0.037,-0.316 -0.131,-0.406c-0.36,-0.344 -0.742,-0.665 -1.128,-0.979c-0.169,-0.137 -0.371,-0.233 -0.553,-0.356c-0.165,-0.112 -0.206,-0.223 0.003,-0.348c0.153,-0.092 0.287,-0.215 0.46,-0.348c0.351,0.256 0.711,0.576 1.121,0.806c0.629,0.352 1.025,0.786 0.826,1.558c-0.009,0.034 -0.016,0.084 0.002,0.107c0.046,0.062 0.097,0.15 0.16,0.163c0.669,0.145 1.907,-0.384 2.248,-0.981c0.102,-0.179 0.107,-0.415 0.156,-0.625c-0.041,-0.02 -0.081,-0.04 -0.122,-0.06c0.51,-0.486 1.02,-0.971 1.532,-1.459c0.342,0.125 0.574,-0.048 0.762,-0.309c0.198,-0.276 0.382,-0.562 0.576,-0.841c0.208,-0.299 0.483,-0.571 0.601,-0.901c0.052,-0.145 -0.213,-0.403 -0.332,-0.611c-0.012,-0.02 -0.013,-0.047 -0.007,-0.084c0.021,-0.023 0.029,-0.032 0.063,-0.034c0.564,0.298 0.757,0.204 0.909,-0.41c0.031,-0.126 0.065,-0.274 0.15,-0.359c0.629,-0.628 1.052,-1.376 1.359,-2.202c0.094,-0.253 0.258,-0.478 0.372,-0.725c0.246,-0.536 0.48,-1.078 0.727,-1.646c0.053,-0.163 0.089,-0.303 0.148,-0.433c0.103,-0.228 0.238,-0.442 0.329,-0.674c0.202,-0.515 0.372,-1.043 0.584,-1.554c0.061,-0.147 0.221,-0.254 0.363,-0.409c-0.078,-0.037 -0.228,-0.108 -0.446,-0.21c0.73,-0.469 0.871,-1.228 1.047,-1.966c0.093,-0.389 0.169,-0.783 0.226,-1.179c0.12,-0.837 0.215,-1.678 0.335,-2.515c0.075,-0.523 0.031,-1.057 0.27,-1.565c0.154,-0.328 0.171,-0.72 0.249,-1.083c-0.005,-0.022 -0.011,-0.043 -0.019,-0.125c0.031,-0.11 0.094,-0.16 0.095,-0.211c0.018,-0.789 0.034,-1.578 0.028,-2.367c-0.001,-0.085 -0.122,-0.205 -0.215,-0.245c-0.186,-0.081 -0.39,-0.118 -0.588,-0.172c-0.17,-0.046 -0.34,-0.09 -0.515,-0.136c-0.093,-0.149 -0.162,-0.407 -0.323,-0.491c-0.376,-0.197 -0.24,-0.36 0.007,-0.574c-0.46,-0.275 -0.125,-0.587 -0.077,-0.89c0.521,0.016 0.521,0.016 0.618,-0.164c-0.115,-0.069 -0.231,-0.138 -0.41,-0.245c0.192,-0.07 0.317,-0.108 0.435,-0.16c0.259,-0.114 0.381,-0.42 0.255,-0.606c-0.171,-0.254 -0.345,-0.507 -0.491,-0.775c-0.038,-0.07 -0.013,-0.246 0.043,-0.284c0.344,-0.235 0.207,-0.361 -0.107,-0.461c0.171,-0.1 0.52,0.124 0.466,-0.252c-0.05,-0.348 0.114,-0.474 0.398,-0.545c0.268,0.315 0.546,0.325 0.928,0.018c0.232,-0.186 0.471,-0.329 0.761,-0.432c0.205,-0.073 0.45,-0.343 0.475,-0.549c0.049,-0.406 -0.009,-0.413 0.426,-0.296c0.095,-0.196 0.179,-0.411 0.299,-0.604c0.144,-0.231 0.274,-0.51 0.488,-0.65c0.59,-0.386 1.219,-0.713 1.836,-1.058c0.104,-0.058 0.22,-0.095 0.334,-0.135c0.662,-0.233 1.249,-0.566 1.693,-1.136c0.133,-0.17 0.354,-0.32 0.562,-0.374c0.718,-0.189 1.356,-0.494 1.849,-1.055c-0.083,-0.152 -0.164,-0.301 -0.246,-0.451c0.307,-0.134 0.075,-0.311 0.007,-0.429c-0.188,-0.327 -0.411,-0.633 -0.631,-0.963c0.035,-0.021 0.104,-0.068 0.177,-0.106c0.354,-0.182 0.564,-0.532 0.987,-0.674c0.395,-0.132 0.431,-0.659 0.218,-1.084c-0.171,-0.342 -0.345,-0.684 -0.466,-0.922c0.075,-0.374 0.132,-0.657 0.195,-0.971c0.082,0.093 0.165,0.215 0.276,0.303c0.083,0.066 0.202,0.089 0.304,0.131c0.014,-0.099 0.012,-0.204 0.047,-0.294c0.063,-0.165 0.126,-0.341 0.235,-0.475c0.049,-0.06 0.208,-0.03 0.34,-0.057c0.117,-0.003 0.212,0.01 0.346,0.027c-0.104,-0.193 -0.186,-0.346 -0.249,-0.514c0.031,-0.027 0.043,-0.039 0.082,-0.045c0.169,0.026 0.33,0.097 0.447,0.052c0.136,-0.051 0.31,-0.19 0.334,-0.316c0.048,-0.261 0.121,-0.594 -0.327,-0.679c0.195,-0.002 0.374,0.007 0.514,0.086c0.378,0.214 0.767,0.284 1.168,0.12c0.32,-0.131 0.619,-0.314 0.932,-0.464c0.081,-0.039 0.193,-0.075 0.269,-0.049c0.233,0.08 0.454,0.194 0.684,0.285c0.06,0.024 0.143,0.033 0.2,0.012c0.282,-0.107 0.553,-0.244 0.839,-0.336c0.282,-0.091 0.469,-0.219 0.468,-0.551c-0,-0.101 0.099,-0.203 0.172,-0.282c0.034,0.037 0.048,0.051 0.054,0.093c-0.023,0.149 -0.044,0.269 -0.052,0.39c-0.014,0.231 -0.115,0.353 -0.352,0.429c-0.791,0.255 -0.787,0.267 -0.829,1.246c0.296,-0.028 0.588,-0.037 0.872,-0.089c0.137,-0.025 0.252,-0.164 0.389,-0.196c0.307,-0.072 0.622,-0.106 0.933,-0.161c0.081,-0.014 0.169,-0.033 0.234,-0.078c0.278,-0.191 0.56,-0.378 0.817,-0.595c0.169,-0.142 0.297,-0.333 0.471,-0.501c0.326,0.198 0.51,-0.054 0.691,-0.201c0.112,-0.09 0.237,-0.309 0.199,-0.412c-0.104,-0.283 0.004,-0.282 0.226,-0.275c0.517,0.017 0.924,-0.24 0.966,-0.73c0.036,-0.413 0.316,-0.642 0.481,-0.954c0.102,-0.193 0.267,-0.355 0.349,-0.554c0.417,-1.013 0.717,-2.041 0.746,-3.163c0.029,-1.122 -0.444,-2.023 -0.979,-2.925c-0.229,-0.386 -0.093,-0.816 -0.193,-1.215c-0.008,-0.032 0.097,-0.08 0.114,-0.132c0.096,-0.292 0.176,-0.583 0.024,-0.889c-0.153,-0.307 -0.45,-0.225 -0.695,-0.292c-0.137,-0.037 -0.273,-0.096 -0.393,-0.172c-0.482,-0.304 -0.415,-0.913 -0.753,-1.315c0.722,-0.074 0.722,-0.073 1.247,0.312c0.088,0.064 0.18,0.124 0.273,0.181c0.62,0.379 0.689,0.168 1.101,-0.279c0.022,-0.024 0.04,-0.05 0.081,-0.101c0.18,0.513 0.693,0.427 1.049,0.614c0.196,0.103 0.397,0.247 0.482,0.432c0.192,0.419 0.396,0.839 0.648,1.224c0.154,0.235 0.411,0.24 0.683,0.106c0.847,-0.418 1.361,-0.302 1.99,0.395c0.083,0.092 0.222,0.165 0.344,0.182c0.466,0.066 0.726,0.415 1.006,0.722c0.089,0.097 0.106,0.286 0.105,0.432c-0.001,0.251 -0.062,0.503 -0.06,0.754c0.005,0.503 0.401,0.751 0.729,1.033c0.475,0.408 1.027,0.598 1.582,0.55c0.145,0.323 0.28,0.622 0.386,0.858c-0.111,0.127 -0.275,0.229 -0.277,0.333c-0.007,0.411 0.038,0.823 0.062,1.235c0.014,0.245 0.038,0.49 0.035,0.735c-0.005,0.393 -0.069,0.79 -0.036,1.179c0.037,0.428 0.39,0.619 0.807,0.517c0.103,-0.025 0.216,-0.004 0.325,-0.004c0.005,0.033 0.01,0.066 0.014,0.098c-0.359,0.149 -0.708,0.37 -1.081,0.426c-0.437,0.066 -0.685,0.216 -0.734,0.659c-0.011,0.101 -0.031,0.23 -0.098,0.291c-0.267,0.247 -0.648,0.379 -0.734,0.805c-0.012,0.059 -0.204,0.106 -0.316,0.115c-0.111,0.009 -0.227,-0.037 -0.401,-0.071c0.021,0.22 0.038,0.403 0.045,0.482c-0.515,0.41 -0.973,0.806 -1.463,1.156c-0.38,0.271 -0.47,0.621 -0.441,1.071c-0.067,0.32 -0.147,0.613 -0.16,0.909c-0.013,0.288 0.043,0.578 0.083,0.889c0.118,0.107 0.222,0.19 0.323,0.277c0.3,0.26 0.64,0.487 0.884,0.792c0.231,0.288 0.297,0.726 0.812,0.666c0.068,-0.008 0.148,0.075 0.221,0.12c0.589,0.367 1.16,0.769 1.773,1.088c0.328,0.17 0.482,0.354 0.425,0.781c-0.293,0.111 -0.617,0.234 -0.985,0.373c0.005,-0.022 -0.002,0.026 -0.018,0.072c-0.097,0.282 -0.104,0.646 -0.602,0.445c-0.15,-0.061 -0.396,0.05 -0.352,0.368c0.026,0.187 -0.077,0.389 -0.108,0.587c-0.025,0.159 -0.05,0.323 -0.034,0.481c0.015,0.147 0.089,0.287 0.129,0.433c0.093,0.348 0.158,0.705 0.277,1.043c0.132,0.377 0.276,0.663 0.037,1.126c-0.458,0.886 -1.181,1.197 -2.067,1.338c-0.25,0.04 -0.504,0.075 -0.746,0.147c-0.301,0.089 -0.585,0.242 -0.889,0.315c-0.321,0.077 -0.54,0.246 -0.611,0.554c-0.173,0.746 -0.535,1.292 -1.355,1.408c-0.034,0.005 -0.066,0.03 -0.097,0.049c-0.322,0.205 -0.332,0.579 -0.019,0.79c0.18,0.122 0.367,0.233 0.517,0.327c-0.052,0.071 -0.102,0.139 -0.172,0.219c-0.158,0.227 -0.296,0.443 -0.445,0.676c0.142,0.098 0.279,0.197 0.421,0.289c0.604,0.387 0.419,0.388 0.906,-0.086c0.096,-0.093 0.215,-0.163 0.323,-0.243c0.02,0.028 0.04,0.056 0.061,0.084c-0.372,0.327 -0.743,0.653 -1.164,1.023c-0.48,-0.353 -1.071,-0.789 -1.626,-1.198c-0.366,0.374 -0.658,0.756 -1.028,1.032c-0.675,0.504 -1.146,1.142 -1.492,1.894c-0.09,0.195 -0.224,0.373 -0.357,0.543c-0.576,0.737 -1.027,1.52 -1.063,2.491c-0.01,0.274 -0.102,0.544 -0.151,0.817c-0.039,0.22 -0.069,0.442 -0.103,0.663c0,0 -0.004,-0.004 -0.03,-0.005c-0.279,1.334 -0.606,2.659 -0.766,4.004c-0.18,1.507 -0.21,3.032 -0.301,4.549c-0.004,0.073 0.04,0.149 0.062,0.224c0,0.041 0.001,0.083 -0.029,0.167c-0.073,0.74 -0.116,1.437 -0.158,2.133c-0.014,0.226 -0.036,0.452 -0.039,0.678c-0.005,0.42 0.001,0.839 0.002,1.259c0.003,0.022 0.007,0.044 -0.012,0.113c-0.055,0.132 -0.112,0.215 -0.117,0.302c-0.018,0.372 -0.007,0.746 -0.029,1.118c-0.057,0.958 -0.126,1.916 -0.193,2.906c0.022,0.359 0.066,0.686 0.068,1.014c0.007,0.806 -0.008,1.612 -0.008,2.418c0,0.739 0.009,1.478 0.013,2.217c0.003,0.494 -0.003,0.987 0.011,1.48c0.014,0.517 0.048,1.033 0.066,1.583c0.017,0.733 0.042,1.432 0.067,2.132c0,0 -0.004,-0.007 -0.006,0.026c0.006,0.83 0.014,1.628 0.013,2.453c-0.029,0.123 -0.072,0.219 -0.067,0.312c0.043,0.787 0.095,1.573 0.142,2.392c0.029,0.088 0.061,0.143 0.077,0.225c-0.009,0.15 -0.003,0.273 -0.019,0.417c0.016,0.303 0.055,0.585 0.091,0.897c0.019,0.292 0.039,0.554 0.059,0.812c-0.001,-0.003 0.001,-0.009 0.004,0.02c-0.04,0.523 -0.051,1.023 -0.134,1.511c-0.092,0.537 -0.288,1.057 -0.368,1.595c-0.052,0.348 -0.036,0.73 0.054,1.069c0.191,0.718 -0.043,1.331 -0.322,1.965c-0.157,0.356 -0.471,0.164 -0.687,0.289c-0.762,0.44 -1.379,0.995 -1.586,1.898c-0.132,0.578 -0.253,1.16 -0.41,1.731c-0.25,0.906 -0.445,1.817 -0.421,2.787c-0.055,0.545 -0.1,1.067 -0.15,1.617c-0.08,0.245 -0.133,0.472 -0.235,0.676c-0.17,0.341 -0.244,0.68 -0.139,1.055c0.08,0.285 0.142,0.575 0.22,0.895c-0.486,0.024 -0.92,0.041 -1.348,-0.171c-0.454,-0.225 -0.933,-0.398 -1.401,-0.594c-0.313,-0.131 -0.621,-0.273 -0.937,-0.394c-0.676,-0.259 -1.346,-0.544 -2.038,-0.751c-0.855,-0.256 -1.786,-0.215 -2.6,-0.66c-0.12,-0.066 -0.308,-0.008 -0.465,-0.007Z" style="fill:#4ade80;fill-rule:nonzero;stroke:#22c55e;stroke-width:1px;"/></g></svg>