<?xml version="1.0" encoding="UTF-8" standalone="no"?><!DOCTYPE svg PUBLIC "-//W3C//DTD SVG 1.1//EN" "http://www.w3.org/Graphics/SVG/1.1/DTD/svg11.dtd"><svg width="100%" height="100%" viewBox="0 0 100 100" version="1.1" xmlns="http://www.w3.org/2000/svg" xmlns:xlink="http://www.w3.org/1999/xlink" xml:space="preserve" xmlns:serif="http://www.serif.com/" style="fill-rule:evenodd;clip-rule:evenodd;stroke-linejoin:round;stroke-miterlimit:2;"><rect id="_23_tokyo_shikinejima" serif:id="23_tokyo_shikinejima" x="0" y="0" width="100" height="100" style="fill:none;"/><g id="_23_tokyo_shikinejima1" serif:id="23_tokyo_shikinejima"><path d="M20.216,53.652c0.023,-0.006 0.037,0.003 0.011,0.041c0.021,0.089 0.063,0.219 0.126,0.23c0.189,0.031 0.385,0.015 0.605,0.029c0.468,0.16 0.87,0.154 1.322,-0.059c0.344,-0.162 0.436,-0.673 0.908,-0.602c0.007,-0.048 0.013,-0.096 0.052,-0.154c0.231,-0.014 0.432,-0.007 0.63,-0.026c0.116,-0.011 0.317,-0.045 0.325,-0.095c0.025,-0.141 0,-0.312 -0.065,-0.441c-0.046,-0.091 -0.19,-0.132 -0.306,-0.205c0.247,-0.361 0.522,-0.052 0.762,-0.091c0.278,-0.365 0.668,-0.413 0.858,-0.122c0.077,0.118 0.222,0.277 0.326,0.27c0.164,-0.01 0.321,-0.145 0.438,-0.204c-0.155,-0.316 -0.267,-0.545 -0.4,-0.814c0.264,0.038 0.431,0.062 0.599,0.086c0.016,-0.043 0.031,-0.086 0.047,-0.129c-0.203,-0.13 -0.41,-0.256 -0.609,-0.393c-0.111,-0.076 -0.309,-0.196 -0.295,-0.255c0.079,-0.336 -0.173,-0.312 -0.348,-0.351c-0.411,-0.092 -0.807,-0.199 -1.047,-0.592c-0.022,-0.035 -0.081,-0.054 -0.126,-0.068c-0.234,-0.072 -0.467,-0.485 -0.387,-0.714c0.023,-0.066 0.09,-0.158 0.145,-0.165c0.235,-0.029 0.209,-0.166 0.167,-0.327c-0.031,-0.119 -0.052,-0.24 -0.089,-0.417c0.261,-0.038 0.491,-0.072 0.71,-0.104c0.058,-0.091 0.121,-0.189 0.183,-0.286c0.197,-0.309 0.403,-0.613 0.58,-0.933c0.029,-0.053 -0.061,-0.186 -0.117,-0.267c-0.075,-0.109 -0.177,-0.199 -0.254,-0.306c-0.056,-0.079 -0.078,-0.237 -0.138,-0.249c-0.421,-0.088 -0.734,-0.299 -0.915,-0.695c-0.513,0.027 -0.676,-0.46 -0.888,-0.739c-0.287,-0.379 -0.372,-0.915 -0.607,-1.247c0.138,-0.211 0.212,-0.333 0.295,-0.449c0.072,-0.101 0.136,-0.221 0.234,-0.29c0.426,-0.299 1.141,-0.25 1.547,0.079c0.233,0.189 0.458,0.441 0.729,0.519c0.342,0.099 0.728,0.051 1.145,0.069c0.014,0.019 0.079,0.122 0.157,0.214c0.247,0.292 0.505,0.576 0.743,0.875c0.054,0.067 0.077,0.189 0.061,0.277c-0.107,0.611 0.104,0.892 0.705,0.958c0.118,0.013 0.247,0.095 0.333,0.183c0.271,0.273 0.206,0.769 0.621,0.955c0.014,0.006 0.006,0.053 0.022,0.069c0.118,0.123 0.218,0.297 0.363,0.352c0.243,0.091 0.514,0.104 0.798,0.158c0.159,0.004 0.293,0.001 0.452,0.001c0.059,0.002 0.093,0 0.154,0.007c0.354,0.175 0.704,0.31 1.003,0.517c0.322,0.223 0.732,0.458 0.867,0.785c0.298,0.722 0.828,0.98 1.516,0.997c0.719,0.018 1.434,-0.029 1.826,-0.809c0.112,-0.223 0.268,-0.475 0.473,-0.586c0.311,-0.168 0.286,-0.325 0.11,-0.539c0.384,-0.386 0.357,-0.523 -0.065,-0.836c-0.328,-0.243 -0.626,-0.526 -0.938,-0.791c0.022,-0.05 0.044,-0.1 0.067,-0.15c0.099,-0.054 0.198,-0.108 0.298,-0.161c0.002,-0.046 0.004,-0.091 0.007,-0.137c-0.366,-0.226 -0.733,-0.451 -1.098,-0.678c-0.083,-0.052 -0.16,-0.115 -0.239,-0.173c0.098,-0.062 0.193,-0.128 0.294,-0.184c0.096,-0.053 0.199,-0.094 0.277,-0.13c0.091,0.014 0.218,0.071 0.264,0.033c0.112,-0.096 0.242,-0.226 0.265,-0.36c0.043,-0.245 0.019,-0.503 0.014,-0.756c-0.002,-0.141 -0.019,-0.282 -0.032,-0.423c-0.015,-0.161 -0.032,-0.322 -0.048,-0.483c0.208,0.227 0.441,0.43 0.437,0.629c-0.006,0.26 0.092,0.317 0.277,0.389c0.064,0.025 0.142,0.109 0.15,0.173c0.059,0.472 0.265,0.952 -0.056,1.414c-0.04,0.057 -0.006,0.167 -0.003,0.252c0.027,0.738 0.816,0.729 1.148,1.168c0.003,0.004 0.023,-0.005 0.069,-0.005c0.084,0 0.134,-0.002 0.184,-0.003c0.573,-0.011 1.102,-0.161 1.513,-0.573c0.377,-0.378 0.361,-0.844 0.246,-1.336c-0.106,-0.452 0.025,-0.982 -0.506,-1.253c0.525,-0.558 0.528,-0.568 0.294,-1.021c-0.264,-0.511 -0.273,-0.861 -0.041,-1.391c0.139,0.162 0.285,0.326 0.426,0.495c0.132,0.158 0.278,0.176 0.412,0.023c0.116,-0.132 0.25,-0.258 0.092,-0.477c-0.228,-0.317 -0.414,-0.665 -0.624,-1.011c0.322,-0.109 0.637,-0.154 0.479,-0.567c0.122,-0.035 0.228,-0.066 0.336,-0.098c0.031,0.3 0.121,0.516 0.495,0.441c0.075,-0.015 0.227,0.067 0.253,0.138c0.141,0.379 0.42,0.507 0.818,0.511c0.254,0.543 0.696,0.585 1.215,0.52c0.238,-0.037 0.45,-0.06 0.651,-0.122c0.086,-0.026 0.148,-0.133 0.222,-0.203c-0.004,-0.026 0.007,-0.04 0.054,-0.009c0.047,0.001 0.072,-0.033 0.098,-0.067c-0.003,-0.024 0.007,-0.039 0.044,-0.011c0.069,0.01 0.125,-0.011 0.182,-0.033c0,0 0.001,0.007 0.024,0.014c0.057,-0.025 0.092,-0.057 0.126,-0.089c0,0 0.001,0.007 0.026,0.014c0.057,-0.049 0.089,-0.106 0.122,-0.163c0,0 0.007,0.007 0.029,0.011c0.03,-0.026 0.039,-0.057 0.047,-0.087c0,0 0.007,0.007 0.031,0.014c0.282,-0.222 0.244,-0.424 -0.033,-0.604c0,0 0.007,-0.006 0.012,-0.029c-0.026,-0.032 -0.055,-0.039 -0.085,-0.047c0,0 0.007,-0.006 0.021,-0.027c-0.014,-0.214 -0.042,-0.407 -0.079,-0.652c0.14,-0.195 0.206,-0.581 0.653,-0.527c0.038,0.005 0.089,-0.103 0.159,-0.189c-0.109,-0.054 -0.192,-0.096 -0.277,-0.137c-0.002,0.001 -0.003,0.005 -0.008,-0.015c-0.027,-0.035 -0.05,-0.05 -0.07,-0.068c0.002,-0.003 0.002,-0.011 0,-0.041c-0.102,-0.28 0.095,-0.227 0.219,-0.248c0,0 -0.006,0.003 -0.003,0.027c0.12,0.068 0.237,0.112 0.455,0.193c-0.11,-0.264 -0.177,-0.424 -0.244,-0.583c0,0 0.006,-0.002 0.008,-0.023c-0.043,-0.041 -0.087,-0.06 -0.148,-0.099c-0.141,-0.174 -0.265,-0.329 -0.389,-0.483c0,0 0.007,-0.004 0.01,-0.025c-0.026,-0.031 -0.055,-0.04 -0.084,-0.05c0,0 0.008,-0.006 0.013,-0.032c0.012,-0.404 -0.262,-0.43 -0.56,-0.461c-0.034,0.01 -0.043,0.025 -0.051,0.04c0,0 0.001,-0.004 0.023,-0.025c-0.021,-0.057 -0.064,-0.092 -0.106,-0.128c0,0 0.008,-0.003 0.013,-0.025c-0.025,-0.031 -0.056,-0.04 -0.087,-0.049c0,0 0.007,-0.005 0.009,-0.026c-0.027,-0.031 -0.056,-0.04 -0.085,-0.049c0,0 0.007,-0.005 0.009,-0.027c-0.027,-0.031 -0.056,-0.04 -0.084,-0.049c0,0 0.007,-0.005 0.01,-0.028c-0.026,-0.031 -0.056,-0.039 -0.086,-0.047c0,0 0.008,-0.007 0.017,-0.032c-0.011,-0.12 0.002,-0.26 -0.057,-0.301c-0.246,-0.176 -0.189,-0.381 -0.111,-0.606c0.021,-0.061 0.002,-0.137 0.001,-0.206c0,0 0.006,0.006 0.031,0.015c0.032,-0.024 0.039,-0.058 0.046,-0.091c0,0 0.005,0.006 0.029,0.014c0.032,-0.025 0.039,-0.058 0.046,-0.09c0,0 0.005,0.007 0.028,0.013c0.031,-0.026 0.039,-0.057 0.047,-0.089c0,0 0.005,0.007 0.028,0.012c0.031,-0.026 0.039,-0.057 0.047,-0.088c0,0 0.005,0.007 0.028,0.011c0.031,-0.027 0.039,-0.056 0.048,-0.086c-0,0 0.005,0.004 0.032,0.013c0.168,0.029 0.309,0.048 0.526,0.078c-0.041,-0.188 -0.073,-0.334 -0.105,-0.479c0,0 -0.01,-0.016 0.022,-0.01c0.173,-0.2 -0.003,-0.236 -0.112,-0.189c-0.23,0.098 -0.438,0.249 -0.654,0.378c0,0 -0.003,-0.007 -0.025,-0.009c-0.031,0.027 -0.041,0.056 -0.05,0.084c0,0 -0.005,-0.007 -0.027,-0.01c-0.031,0.027 -0.04,0.056 -0.049,0.085c0,0 -0.005,-0.007 -0.026,-0.009c-0.031,0.027 -0.04,0.056 -0.049,0.085c0,0 -0.002,-0.006 -0.028,-0.003c-0.033,0.052 -0.04,0.101 -0.048,0.15c0,0 -0.005,-0.005 -0.035,-0.016c-0.191,-0.002 -0.351,0.006 -0.512,0.015c0,0 0.008,-0.001 0.008,-0.024c-0.052,-0.077 -0.095,-0.161 -0.157,-0.179c-0.354,-0.104 -0.716,-0.18 -1.066,-0.295c-0.123,-0.04 -0.264,-0.141 -0.314,-0.251c-0.043,-0.095 -0.004,-0.266 0.06,-0.363c0.156,-0.238 0.348,-0.454 0.525,-0.682c-0,-0.003 -0.002,-0.009 0.02,-0.021c0.128,-0.135 0.234,-0.258 0.394,-0.443c-0.313,-0.016 -0.485,0.045 -0.543,0.309c0.019,0.025 0.024,0.037 0.029,0.049c-0.066,0.005 -0.132,0.01 -0.209,-0.034c-0.29,-0.122 -0.57,-0.197 -0.85,-0.271c0.033,-0.143 0.057,-0.247 0.083,-0.359c-0.164,-0.026 -0.305,-0.048 -0.495,-0.078c0.085,-0.128 0.141,-0.213 0.143,-0.216c0.215,0.058 0.371,0.101 0.428,0.116c0.126,-0.214 0.208,-0.353 0.29,-0.493c0.156,0.115 0.313,0.231 0.546,0.403c0.034,-0.172 0.146,-0.388 0.089,-0.538c-0.067,-0.177 -0.279,-0.3 -0.434,-0.441c-0.065,-0.059 -0.144,-0.102 -0.217,-0.152c0.055,-0.061 0.13,-0.185 0.163,-0.175c0.431,0.13 0.321,-0.26 0.427,-0.457c0.439,0.018 0.387,-0.31 0.331,-0.554c-0.065,-0.283 0.038,-0.406 0.271,-0.496c0.065,-0.025 0.12,-0.073 0.283,-0.176c-0.218,-0.128 -0.368,-0.226 -0.526,-0.307c-0.279,-0.143 -0.572,-0.22 -0.667,-0.617c-0.044,-0.183 -0.361,-0.316 -0.575,-0.433c-0.049,-0.027 -0.258,0.1 -0.262,0.165c-0.007,0.1 0.079,0.232 0.163,0.306c0.101,0.088 0.242,0.13 0.472,0.245c-0.28,0.118 -0.581,0.152 -0.408,0.392c-0.124,0.126 -0.224,0.227 -0.298,0.302c-0.152,-0.01 -0.32,-0.022 -0.464,-0.031c-0.024,0.212 -0.041,0.355 -0.057,0.497c-0.039,-0 -0.077,-0.001 -0.116,-0.001c-0.039,-0.091 -0.079,-0.182 -0.089,-0.206l-0.738,0c-0.055,-0.057 -0.111,-0.113 -0.166,-0.17c0.152,-0.056 0.303,-0.112 0.447,-0.166c-0.053,-0.273 -0.1,-0.518 -0.148,-0.764c-0.204,0.208 -0.303,0.429 -0.424,0.637c-0.197,0.337 -0.401,0.166 -0.649,-0.026c0.449,-0.2 -0.05,-0.253 -0.032,-0.471c0.248,-0.138 0.549,-0.447 0.794,-0.407c0.348,0.056 0.458,-0.107 0.572,-0.269l0.678,0c-0.012,-0.263 -0.026,-0.556 -0.043,-0.906c0.769,0.135 1.447,0.255 2.146,0.378c-0.043,-0.085 -0.083,-0.164 -0.134,-0.266c0.254,-0.057 0.486,-0.15 0.718,-0.147c0.136,0.001 0.27,0.153 0.404,0.237c-0.104,0.084 -0.198,0.189 -0.315,0.246c-0.081,0.039 -0.197,0 -0.294,0.017c-0.084,0.015 -0.163,0.06 -0.244,0.092c0.008,0.047 0.017,0.095 0.025,0.142c0.234,-0.019 0.476,-0.007 0.7,-0.066c0.277,-0.073 0.513,-0.14 0.651,0.206c0.022,0.054 0.134,0.081 0.21,0.103c0.151,0.043 0.304,0.087 0.46,0.107c0.141,0.018 0.286,0.004 0.43,0.004c-0,-0.032 -0,-0.065 -0,-0.097c0.177,0.069 0.355,0.139 0.627,0.245c-0.035,-0.449 -0.064,-0.819 -0.094,-1.2c0.687,0.235 0.323,-0.371 0.424,-0.641c0.114,0.086 0.195,0.194 0.292,0.211c0.203,0.037 0.563,0.092 0.594,0.022c0.104,-0.235 0.293,-0.539 -0.051,-0.772c-0.053,-0.036 -0.101,-0.109 -0.113,-0.172c-0.078,-0.396 -0.25,-0.286 -0.379,-0.143c-0.279,-0.099 -0.513,-0.182 -0.773,-0.278c-0.1,-0.213 -0.203,-0.409 -0.233,-0.615c-0.012,-0.084 0.134,-0.191 0.208,-0.287c0.08,0.067 0.166,0.129 0.239,0.202c0.066,0.066 0.118,0.146 0.177,0.22c0.029,-0.012 0.057,-0.025 0.086,-0.037c-0.164,-0.361 -0.191,-0.684 0.236,-0.927c0.04,0.193 0.075,0.357 0.116,0.549c0.136,-0.251 0.248,-0.457 0.363,-0.669c-0.069,-0.058 -0.142,-0.119 -0.176,-0.148c0.06,-0.181 0.107,-0.323 0.18,-0.54c0.243,0.065 0.522,0.14 0.849,0.228c0.035,-0.055 0.092,-0.183 0.184,-0.275c0.061,-0.061 0.181,-0.113 0.261,-0.097c0.163,0.033 0.312,0.126 0.473,0.172c0.342,0.098 0.69,0.252 1.033,0.246c0.244,-0.004 0.474,-0.037 0.658,0.117c0.223,0.187 0.418,0.373 0.691,0.113c0.07,0.198 0.156,0.367 0.183,0.544c0.019,0.128 0.001,0.3 -0.073,0.396c-0.281,0.362 -0.246,0.613 0.179,0.814c0.511,0.241 1.041,0.244 1.601,0.055c0.813,-0.296 1.397,-0.779 1.588,-1.644c0.024,-0.11 0.11,-0.238 0.204,-0.293c0.308,-0.179 0.624,-0.358 0.957,-0.481c0.311,-0.115 0.716,0 0.905,-0.405c0.016,-0.035 0.134,-0.023 0.228,-0.037c0.211,0.393 0.401,0.784 0.634,1.149c0.052,0.081 0.254,0.067 0.387,0.096c0.024,-0.038 0.049,-0.075 0.073,-0.113c0.194,0.418 0.426,0.824 0.565,1.259c0.072,0.227 0.009,0.476 0.37,0.441c0.049,-0.005 0.119,0.081 0.159,0.139c0.259,0.372 0.513,0.748 0.736,1.075c-0.033,0.259 -0.041,0.491 -0.1,0.709c-0.025,0.093 -0.153,0.165 -0.244,0.232c-0.058,0.043 -0.134,0.06 -0.223,0.097c0.249,0.215 0.459,0.396 0.737,0.635c0.019,-0.424 0.036,-0.792 0.053,-1.16c0.037,-0.005 0.074,-0.009 0.111,-0.014c0.108,0.373 0.216,0.747 0.325,1.12c0.029,0.1 0.061,0.199 0.092,0.298c0.092,-0.049 0.185,-0.097 0.303,-0.155c0.261,-0.146 0.608,-0.164 0.589,-0.44c0.183,-0.009 0.353,0.027 0.481,-0.031c0.596,-0.268 1.181,-0.56 1.769,-0.845c0.163,-0.079 0.322,-0.168 0.507,-0.266c-0.201,-0.299 -0.374,-0.555 -0.542,-0.804c0.232,-0.267 0.33,-0.093 0.445,0.071c0.803,1.143 1.609,2.283 2.413,3.424c0.083,0.117 0.158,0.239 0.226,0.343c-0.339,0.33 -0.561,0.262 -0.768,-0.094c-0.176,-0.303 -0.415,-0.569 -0.604,-0.866c-0.125,-0.197 -0.238,-0.24 -0.458,-0.128c-0.795,0.406 -1.605,0.781 -2.396,1.194c-0.14,0.073 -0.276,0.258 -0.31,0.413c-0.158,0.724 -0.288,1.454 -0.409,2.186c-0.047,0.283 -0.152,0.494 -0.438,0.585c-0.535,0.171 -0.814,0.559 -1.002,1.076c-0.12,0.328 -0.113,0.549 0.084,0.853c0.247,0.381 0.575,0.289 0.898,0.293c0.815,0.011 0.815,0.005 0.84,-0.863c0.044,-0.133 0.087,-0.326 0.119,-0.325c0.305,0.017 0.255,-0.196 0.275,-0.374c0.005,-0.043 0.055,-0.079 0.074,-0.123c0.088,-0.209 0.167,-0.422 0.26,-0.629c0.037,-0.083 0.09,-0.193 0.159,-0.216c0.061,-0.019 0.158,0.063 0.235,0.108c0.129,0.075 0.246,0.194 0.384,0.227c0.227,0.053 0.467,0.052 0.701,0.073c0,0 -0.006,0.002 -0.016,0.03c0.053,0.16 0.092,0.322 0.193,0.413c0.048,0.044 0.217,-0.046 0.369,-0.085c-0.149,-0.161 -0.241,-0.26 -0.259,-0.28c0.196,-0.17 0.355,-0.307 0.513,-0.445c-0.024,-0.037 -0.048,-0.074 -0.071,-0.111c-0.093,0.014 -0.187,0.043 -0.278,0.037c-0.063,-0.004 -0.149,-0.041 -0.177,-0.09c-0.03,-0.052 -0.028,-0.18 0.004,-0.199c0.189,-0.112 0.385,-0.265 0.591,-0.285c0.299,-0.03 0.615,0.098 0.909,0.056c0.365,-0.053 0.692,-0.102 0.978,0.193c0.042,0.043 0.133,0.037 0.201,0.054c0.019,-0.078 0.048,-0.155 0.054,-0.234c0.008,-0.105 -0.026,-0.216 -0.002,-0.315c0.054,-0.221 0.132,-0.436 0.209,-0.68c0.154,0.195 0.338,0.427 0.493,0.668c-0.334,0.1 -0.269,0.311 -0.19,0.553c0.234,0.452 0.672,0.636 1.212,0.534c0.233,-0.044 0.741,0.304 0.764,0.54c0.036,0.371 0.056,0.743 0.087,1.168c0.6,-0.261 0.495,-0.8 0.588,-1.125c0.154,-0.007 0.338,0.012 0.347,-0.019c0.075,-0.263 0.202,-0.119 0.337,-0.074c0.085,0.028 0.188,0 0.283,-0.002c0.033,0.003 0.066,0.006 0.083,0.041c0.074,0.031 0.163,0.03 0.252,0.029c0,0 -0,0.007 0.023,0.01c0.078,-0.044 0.132,-0.091 0.14,-0.098c0.197,0.113 0.381,0.188 0.526,0.308c0.333,0.276 0.442,0.248 0.565,-0.203c0.114,0.044 0.293,0.057 0.326,0.134c0.222,0.51 0.741,0.465 1.14,0.595c0.198,0.065 0.553,0.392 0.738,-0.118c0.18,-0.494 0.531,0.169 0.771,-0.08c0.04,-0.041 0.111,-0.055 0.169,-0.076c0.551,-0.198 1.09,-0.267 1.61,0.101c0.082,0.058 0.236,0.105 0.31,0.067c0.325,-0.169 0.366,0.067 0.406,0.271c0.049,0.25 0.065,0.507 0.089,0.794c0.042,0.165 0.104,0.296 0.134,0.433c0.086,0.392 0.477,0.286 0.711,0.434c0.18,0.114 0.491,0.24 0.628,0.16c0.47,-0.271 0.744,-0.082 1.049,0.257c0.207,0.229 0.484,0.364 0.753,0.042c0.017,-0.016 0.034,-0.031 0.109,-0.053c0.383,0.044 0.709,0.094 1.023,0.143c0.039,0.235 0.029,0.441 0.113,0.597c0.063,0.117 0.237,0.195 0.377,0.242c0.158,0.052 0.369,-0.003 0.495,0.081c0.296,0.197 0.518,0.085 0.754,-0.084c0.117,-0.084 0.291,-0.255 0.349,-0.223c0.248,0.138 0.57,0.294 0.663,0.524c0.134,0.332 0.093,0.735 0.117,1c-0.336,0.14 -0.627,0.244 -0.903,0.381c-0.474,0.235 -0.613,0.182 -0.804,-0.336c-0.02,-0.053 -0.063,-0.119 -0.111,-0.138c-0.665,-0.265 -1.25,-0.741 -2.051,-0.641c-0.362,0.045 -0.585,0.138 -0.722,0.577c0.301,0.072 0.591,0.142 0.881,0.21c0.096,0.022 0.21,0.011 0.286,0.061c0.387,0.255 0.764,0.526 1.192,0.824c-0.516,0.6 -0.282,1.042 0.252,1.447c0.173,0.131 0.294,0.177 0.5,0.095c0.666,-0.264 1.343,-0.501 2.012,-0.758c0.104,-0.04 0.188,-0.133 0.282,-0.202c-0.089,-0.08 -0.166,-0.197 -0.271,-0.233c-0.227,-0.077 -0.469,-0.113 -0.707,-0.167c0.223,-0.154 0.407,-0.327 0.625,-0.42c0.251,-0.107 0.528,-0.178 0.8,-0.204c0.363,-0.034 0.732,-0.005 1.098,-0.011c0.134,-0.003 0.269,-0.024 0.401,-0.05c0.078,-0.015 0.151,-0.053 0.227,-0.081c-0.03,-0.075 -0.046,-0.159 -0.091,-0.222c-0.168,-0.234 -0.351,-0.458 -0.52,-0.692c-0.241,-0.334 -0.477,-0.666 -0.916,-0.773c-0.168,-0.041 -0.338,-0.113 -0.481,-0.21c-0.076,-0.052 -0.096,-0.186 -0.142,-0.283c0.11,-0.026 0.248,-0.107 0.325,-0.068c0.8,0.404 1.675,0.719 2.08,1.628c0.13,0.291 0.255,0.584 0.391,0.896c0.355,-0.188 0.527,-0.834 1.144,-0.608c0.232,-0.257 0.43,-0.018 0.562,0.097c0.085,0.074 0.081,0.344 0.015,0.476c-0.124,0.25 -0.092,0.387 0.177,0.439c0.391,0.077 0.354,0.305 0.235,0.58c-0.049,0.004 -0.087,0.013 -0.123,0.008c-0.153,-0.017 -0.353,-0.122 -0.376,0.146c-0.02,0.232 0.101,0.372 0.347,0.407c0.76,0.108 1.519,0.224 2.278,0.341c0.053,0.008 0.121,0.045 0.147,0.089c0.128,0.222 0.244,0.45 0.372,0.691c-0.311,0.166 -0.717,-0.326 -0.958,0.111l-0.431,0c0.163,0.313 0.309,0.569 0.43,0.836c0.099,0.218 0.165,0.443 0.489,0.363c0.058,-0.014 0.143,0.075 0.213,0.12c0.089,0.057 0.175,0.117 0.262,0.178c0.077,0.054 0.199,0.096 0.221,0.168c0.077,0.258 0.12,0.526 0.176,0.79c-0.078,0.001 -0.156,0.003 -0.274,-0.019c-0.367,-0.286 -0.821,-0.424 -0.878,-0.95c-0.008,-0.074 -0.259,-0.123 -0.397,-0.183c0.022,0.095 0.028,0.198 0.07,0.284c0.113,0.234 0.25,0.456 0.36,0.69c0.156,0.333 0.297,0.674 0.447,1.041c0.141,0.309 0.173,0.591 0.066,0.896c-0.047,0.134 -0.073,0.296 -0.044,0.432c0.053,0.242 0.227,0.478 0.213,0.708c-0.01,0.17 -0.208,0.382 -0.377,0.476c-0.215,0.119 -0.541,0.071 -0.717,0.217c-0.183,0.151 -0.613,0.147 -0.494,0.656c0.661,-0.532 1.173,-0.154 1.715,0.23c-0.376,0.603 0.371,0.768 0.484,1.247c-0.107,0.013 -0.196,0.033 -0.285,0.034c-0.245,0.002 -0.491,0.005 -0.736,-0.011c-0.083,-0.006 -0.164,-0.102 -0.244,-0.099c-0.175,0.006 -0.399,-0.007 -0.51,0.092c-0.101,0.09 -0.114,0.323 -0.091,0.482c0.007,0.052 0.248,0.079 0.384,0.101c0.069,0.011 0.144,-0.016 0.239,-0.029c0.021,0.288 0.15,0.307 0.347,0.164c0.058,-0.042 0.157,-0.107 0.195,-0.086c0.253,0.144 0.328,-0.045 0.433,-0.204c0.163,-0.249 0.287,-0.163 0.398,0.049c-0.079,0.053 -0.145,0.098 -0.151,0.101c0.038,0.209 0.067,0.366 0.089,0.486c0.093,0.07 0.198,0.15 0.302,0.229c-0.048,0.056 -0.096,0.113 -0.145,0.169c-0.146,-0.049 -0.292,-0.098 -0.438,-0.146c0.308,0.391 0.043,0.743 -0.08,1.041c-0.11,0.266 -0.345,0.583 -0.745,0.457c-0.244,-0.077 -0.467,-0.216 -0.702,-0.322c-0.463,-0.208 -0.947,-0.385 -1.127,-0.937c-0.016,-0.05 -0.106,-0.076 -0.162,-0.113c-0.039,0.068 -0.115,0.14 -0.109,0.204c0.014,0.161 0.064,0.32 0.099,0.508c0.121,0.309 0.244,0.589 0.392,0.926c-0.094,0.024 -0.23,0.046 -0.358,0.092c-0.199,0.072 -0.417,0.128 -0.579,0.253c-0.153,0.118 -0.265,0.307 -0.352,0.486c-0.05,0.104 -0.036,0.254 -0.012,0.375c0.04,0.202 0.11,0.397 0.152,0.541c-0.269,0.058 -0.564,0.05 -0.603,0.145c-0.08,0.196 -0.052,0.453 -0.008,0.673c0.023,0.114 0.182,0.196 0.267,0.302c0.094,0.117 0.264,0.266 0.241,0.365c-0.043,0.19 -0.198,0.354 -0.287,0.497c-0.272,-0.242 -0.475,-0.415 -0.669,-0.598c-0.226,-0.215 -0.467,-0.294 -0.825,-0.14c0.193,0.224 0.349,0.405 0.504,0.586c-0.027,0.031 -0.055,0.062 -0.082,0.093c-0.089,-0.064 -0.187,-0.117 -0.264,-0.192c-0.409,-0.397 -1.103,-0.528 -1.6,-0.269c-0.105,0.054 -0.19,0.193 -0.225,0.311c-0.014,0.045 0.134,0.141 0.211,0.212c0.106,0.099 0.216,0.194 0.321,0.295c0.099,0.095 0.177,0.224 0.293,0.286c0.55,0.296 1.116,0.556 1.442,1.148c0.098,0.179 0.32,0.29 0.468,0.446c-0.029,0.025 -0.04,0.035 -0.078,0.04c-0.327,-0.162 -0.622,-0.318 -0.922,0.008c-0.046,0.05 -0.166,0.038 -0.252,0.046c-0.497,0.047 -0.933,-0.189 -1.399,-0.289c-0.398,-0.085 -0.806,-0.093 -1.082,-0.454c-0.022,-0.028 -0.096,-0.02 -0.146,-0.022c-0.45,-0.021 -0.906,-0.003 -1.348,-0.072c-0.44,-0.069 -0.866,-0.227 -1.298,-0.345c0.006,-0.04 0.012,-0.079 0.018,-0.119c-0.099,0.052 -0.256,0.08 -0.286,0.159c-0.111,0.283 -0.367,0.228 -0.571,0.315c-0.263,0.112 -0.578,0.25 -0.718,0.472c-0.237,0.378 -0.354,0.83 -0.493,1.179c-0.205,0.063 -0.398,0.123 -0.591,0.181c-0.069,0.021 -0.164,0.071 -0.207,0.044c-0.23,-0.143 -0.368,0.026 -0.538,0.124c-0.258,0.15 -0.517,0.312 -0.796,0.413c-0.605,0.22 -1.214,0.444 -1.839,0.594c-0.794,0.192 -1.352,0.754 -1.999,1.173c-0.326,0.212 -0.249,0.528 0.178,0.729c-0.159,0.029 -0.293,0.099 -0.366,0.059c-0.47,-0.255 -0.487,0.094 -0.557,0.421c0.021,0.246 0.115,0.438 -0.071,0.669c-0.148,0.185 0.081,0.447 0.35,0.407c0.238,-0.035 0.47,-0.12 0.725,-0.189c0.098,0.403 0.197,0.814 0.304,1.252c-0.511,0.357 -0.822,-0.157 -1.152,-0.378c-0.049,0.169 -0.082,0.289 -0.118,0.408c-0.056,0.181 -0.114,0.361 -0.171,0.541c0.159,0.048 0.318,0.097 0.495,0.15c0.026,0.295 -0.242,0.615 -0.573,0.633c-0.218,0.012 -0.342,0.063 -0.12,0.302c0.314,0.417 1.081,0.553 1.596,0.309c0.075,-0.035 0.16,-0.075 0.239,-0.071c0.267,0.015 0.534,0.075 0.799,0.068c0.347,-0.01 0.712,-0.104 0.72,0.451c0.462,-0.083 0.877,-0.157 1.28,-0.23c0.151,0.236 0.099,0.351 -0.14,0.4c-1.204,0.249 -2.407,0.502 -3.61,0.754c-0.166,0.035 -0.272,0.016 -0.409,-0.142c-0.173,-0.2 -0.407,-0.344 -0.752,-0.224c-0.308,0.108 -0.668,0.118 -0.998,0.088c-0.179,-0.016 -0.341,-0.206 -0.511,-0.317c0,0 0.001,0.005 0.003,-0.013c0.036,-0.023 0.069,-0.029 0.103,-0.035c0.019,-0.008 0.038,-0.015 0.114,-0.018c0.497,-0.048 0.936,-0.101 1.437,-0.161c-0.127,-0.308 -0.233,-0.532 -0.313,-0.765c-0.169,-0.489 -0.51,-0.919 -0.445,-1.492c0.022,-0.191 -0.143,-0.384 -0.411,-0.297c-0.393,0.128 -0.785,0.263 -1.205,0.413c-0.003,0.16 0.028,0.3 0.048,0.442c0.015,0.105 0.046,0.219 0.018,0.314c-0.017,0.058 -0.174,0.138 -0.2,0.119c-0.351,-0.264 -0.405,0.083 -0.534,0.267c-0.13,-0.046 -0.245,-0.086 -0.346,-0.121c-0.132,0.096 -0.273,0.167 -0.37,0.276c-0.231,0.258 -0.464,0.471 -0.433,0.917c0.026,0.388 -0.165,0.828 -0.367,1.184c-0.168,0.297 -0.102,0.473 0.001,0.578c-0.13,0.38 -0.193,0.707 -0.347,0.983c-0.232,0.413 -0.334,0.771 0.108,1.1c0.011,0.009 0.001,0.046 0.001,0.105c-0.125,0.042 -0.262,0.088 -0.409,0.138c-0.021,0.459 -0.267,0.749 -0.692,0.925c-0.118,0.049 -0.282,0.213 -0.268,0.299c0.021,0.13 0.157,0.288 0.284,0.345c0.284,0.127 0.596,0.192 0.891,0.296c0.273,0.097 0.507,0.603 0.331,0.755c-0.247,0.213 -0.191,0.442 -0.138,0.685c0.094,0.424 -0.144,0.643 -0.578,0.559c-0.207,-0.04 -0.462,-0.081 -0.633,0.004c-0.181,0.09 -0.29,0.328 -0.39,0.452c-0.12,-0.107 -0.198,-0.176 -0.276,-0.246c-0.049,0.089 -0.1,0.176 -0.146,0.267c-0.016,0.033 -0.027,0.073 -0.026,0.109c0.012,0.333 -0.073,0.541 -0.344,0.416c-0.085,-0.302 -0.077,-0.633 -0.231,-0.75c-0.44,-0.334 -0.153,-0.65 -0.086,-0.992c0.046,-0.233 0.026,-0.479 0.022,-0.743c-0.149,-0.091 -0.279,-0.176 -0.422,-0.217c-0.112,-0.033 -0.309,-0.062 -0.35,-0.007c-0.318,0.437 -0.378,-0.023 -0.514,-0.146c-0.072,-0.065 -0.087,-0.192 -0.146,-0.335c-0.283,0.155 -0.539,0.295 -0.894,0.49c0.171,0.198 0.316,0.357 0.449,0.525c0.1,0.127 0.27,0.279 0.255,0.399c-0.022,0.169 -0.187,0.32 -0.312,0.511c-0.055,-0.163 -0.077,-0.302 -0.147,-0.409c-0.049,-0.074 -0.17,-0.151 -0.252,-0.145c-0.301,0.023 -0.6,0.078 -0.899,0.129c-0.08,0.014 -0.165,0.043 -0.23,0.09c-0.177,0.129 -0.345,0.27 -0.556,0.439c-0.225,-0.556 -0.351,-1.021 -0.192,-1.526c0.073,-0.23 -0.046,-0.338 -0.248,-0.248c-0.213,0.095 -0.384,0.283 -0.592,0.393c-0.233,0.123 -0.189,0.255 -0.07,0.419c0.082,0.113 0.161,0.229 0.232,0.33c-0.184,0.053 -0.318,0.092 -0.45,0.13c-0.075,-0.115 -0.138,-0.242 -0.23,-0.34c-0.081,-0.086 -0.196,-0.141 -0.296,-0.21c-0.068,0.109 -0.186,0.214 -0.194,0.328c-0.036,0.474 -0.033,0.95 -0.056,1.426c-0.013,0.267 -0.05,0.532 -0.076,0.798c-0.033,-0.004 -0.066,-0.008 -0.099,-0.012c-0.032,-0.098 -0.077,-0.194 -0.095,-0.295c-0.04,-0.232 -0.165,-0.513 -0.081,-0.692c0.228,-0.481 0.186,-0.881 -0.166,-1.261c0.266,-0.165 0.319,-0.403 0.106,-0.597c-0.194,-0.177 -0.435,-0.302 -0.655,-0.45c0.043,-0.041 0.086,-0.083 0.129,-0.124c-0.383,0.044 -0.513,0.22 -0.327,0.584c0.033,0.065 0.02,0.166 -0,0.242c-0.053,0.194 -0.122,0.384 -0.203,0.63c-0.24,0.062 -0.271,0.309 -0.255,0.609c-0.029,0.033 -0.039,0.047 -0.079,0.058c-0.201,-0.037 -0.372,-0.07 -0.561,-0.11c-0.017,-0.006 -0.054,-0.004 -0.085,-0.011c-0.088,-0.002 -0.145,0.003 -0.202,0.008c0,0 0.004,-0.006 0.015,-0.032c-0.128,-0.183 -0.254,-0.218 -0.363,0.034c-0.08,0.147 -0.151,0.27 -0.221,0.393c0.031,-0.006 0.061,-0.011 0.092,-0.017c0.064,0.275 0.093,0.565 0.2,0.822c0.149,0.359 -0.38,0.906 0.308,1.115c0.018,0.005 0.017,0.166 -0.018,0.23c-0.057,0.102 -0.15,0.185 -0.228,0.275c-0.317,0.363 -0.592,0.412 -1.002,0.195c-0.073,-0.039 -0.169,-0.033 -0.252,-0.057c-0.079,-0.023 -0.204,-0.038 -0.226,-0.091c-0.197,-0.475 -0.386,-0.954 -0.551,-1.44c-0.033,-0.097 0.013,-0.266 0.085,-0.346c0.3,-0.329 0.156,-0.611 -0.088,-0.973c-0.129,0.142 -0.282,0.243 -0.334,0.382c-0.093,0.248 -0.185,0.368 -0.461,0.219c-0.065,-0.035 -0.188,0.04 -0.363,0.084c0.245,0.274 0.432,0.483 0.604,0.676c-0.032,0.123 -0.106,0.245 -0.083,0.345c0.109,0.474 0.031,0.867 -0.377,1.177c-0.155,0.118 -0.305,0.269 -0.399,0.437c-0.154,0.28 -0.331,0.272 -0.549,0.108c-0.318,-0.24 -0.617,-0.507 -0.949,-0.724c-0.253,-0.166 -0.229,-0.381 -0.19,-0.61c0.046,-0.266 0.187,-0.353 0.416,-0.165c0.276,0.226 0.514,0.164 0.705,-0.102c0.15,-0.209 0.27,-0.44 0.448,-0.737c-0.673,0.028 -0.769,-0.53 -1.079,-0.856c-0.095,-0.1 -0.238,-0.272 -0.312,-0.25c-0.128,0.037 -0.268,0.182 -0.317,0.314c-0.086,0.233 -0.216,0.357 -0.476,0.348c-0.029,-0.029 -0.041,-0.04 -0.046,-0.076c0.268,-0.498 0.548,-0.962 0.775,-1.451c0.051,-0.11 -0.083,-0.305 -0.132,-0.462c-0.102,0.059 -0.228,0.097 -0.3,0.181c-0.351,0.407 -0.686,0.827 -1.032,1.238c-0.047,0.056 -0.127,0.085 -0.243,0.158c0.018,-0.185 0.03,-0.306 0.052,-0.457c0.032,-0.186 0.007,-0.372 0.085,-0.491c0.211,-0.323 0.47,-0.615 0.702,-0.925c0.162,-0.217 0.349,-0.427 0.454,-0.671c0.113,-0.261 0.153,-0.556 0.204,-0.84c0.012,-0.065 -0.046,-0.177 -0.104,-0.208c-0.056,-0.03 -0.164,-0.005 -0.231,0.03c-0.441,0.234 -0.88,0.472 -1.314,0.719c-0.086,0.049 -0.153,0.136 -0.221,0.213c-0.252,0.284 -0.31,0.734 -0.691,0.877c-0.153,-0.305 -0.283,-0.584 -0.431,-0.853c-0.049,-0.089 -0.162,-0.225 -0.213,-0.212c-0.104,0.027 -0.188,0.136 -0.274,0.219c-0.076,0.074 -0.143,0.157 -0.238,0.263c-0.02,-0.202 -0.03,-0.312 -0.041,-0.422c-0.089,0.051 -0.197,0.084 -0.264,0.156c-0.204,0.22 -0.383,0.464 -0.589,0.683c-0.15,0.159 -0.327,0.293 -0.492,0.438c-0.027,-0.026 -0.053,-0.052 -0.08,-0.078c0.044,-0.12 0.088,-0.24 0.134,-0.366c-0.431,-0.376 -0.95,-0.21 -1.416,-0.285c-0.179,-0.029 -0.371,0.04 -0.557,0.044c-0.274,0.006 -0.42,0.14 -0.445,0.406c-0.011,0.123 -0.002,0.247 -0.002,0.425c-0.356,0.033 -0.713,0.13 -1.048,0.079c-0.373,-0.057 -0.656,-0.319 -0.725,-0.74c0.033,-0.028 0.045,-0.041 0.083,-0.044c0.447,-0.069 0.516,-0.167 0.313,-0.474c-0.11,-0.166 -0.147,-0.297 -0.033,-0.47c0.041,-0.063 0.031,-0.16 0.068,-0.39c-0.387,0.164 -0.784,0.214 -0.946,0.435c-0.159,0.219 -0.324,0.319 -0.539,0.421c-0.22,0.103 -0.43,0.232 -0.637,0.36c-0.176,0.109 -0.343,0.232 -0.514,0.349c-0.047,-0.037 -0.093,-0.074 -0.14,-0.111c0.072,-0.206 0.145,-0.411 0.242,-0.688l-0.639,0c0.018,-0.343 -0.066,-0.725 0.074,-0.986c0.349,-0.65 0.838,-1.19 1.642,-1.309c0.104,-0.015 0.194,-0.125 0.29,-0.191c-0.093,-0.087 -0.177,-0.187 -0.28,-0.259c-0.262,-0.183 -0.534,-0.353 -0.801,-0.528c-0.068,-0.045 -0.141,-0.133 -0.203,-0.126c-0.363,0.039 -0.364,0.047 -0.364,-0.311c0,-0.085 0.041,-0.176 0.024,-0.255c-0.028,-0.133 -0.056,-0.299 -0.147,-0.375c-0.056,-0.047 -0.257,0.013 -0.346,0.084c-0.48,0.386 -0.475,0.392 -0.698,0.251l0,-1.15c0.34,0.043 0.573,0.488 0.884,0.162c0.261,-0.274 0.145,-0.699 -0.296,-1.13c0.451,0.117 0.81,0.218 1.174,0.3c0.079,0.018 0.173,-0.029 0.26,-0.046c-0.044,-0.065 -0.08,-0.139 -0.136,-0.193c-0.06,-0.059 -0.18,-0.085 -0.203,-0.15c-0.161,-0.447 -0.303,-0.9 -0.451,-1.351c0.046,0.005 0.093,0.01 0.139,0.014c0.094,-0.15 0.189,-0.301 0.283,-0.451c-0.03,-0.021 -0.061,-0.041 -0.091,-0.062c0.067,-0.033 0.157,-0.05 0.196,-0.104c0.119,-0.165 0.218,-0.345 0.325,-0.519c-0.311,-0.167 -0.635,-0.488 -0.928,-0.463c-0.409,0.035 -0.976,-0.299 -1.093,-0.709c-0.039,-0.137 0.145,-0.41 -0.168,-0.391c-0.175,0.01 -0.347,0.131 -0.514,0.214c-0.051,0.025 -0.071,0.11 -0.121,0.138c-0.308,0.174 -0.611,0.364 -0.935,0.502c-0.225,0.095 -0.492,0.089 -0.722,0.176c-0.307,0.117 -0.589,0.15 -0.903,0.012c-0.112,-0.049 -0.293,0 -0.42,0.056c-0.178,0.077 -0.333,0.285 -0.503,0.292c-0.611,0.022 -1.066,-0.373 -1.23,-1.019c-0.133,-0.095 -0.258,-0.168 -0.39,-0.222c-0.168,-0.069 -0.475,-0.096 -0.492,-0.185c-0.101,-0.525 -0.489,-0.682 -0.94,-0.822c-0.11,0.115 -0.211,0.3 -0.363,0.364c-0.396,0.169 -0.425,0.211 -0.176,0.544c0.165,0.221 0.316,0.455 0.492,0.668c0.091,0.111 0.229,0.183 0.333,0.285c0.116,0.112 0.272,0.221 0.318,0.362c0.172,0.533 0.341,1.056 0.879,1.33c-0.029,0.123 -0.08,0.222 -0.068,0.312c0.046,0.354 -0.06,0.678 -0.253,0.948c-0.238,0.333 -0.794,0.236 -0.951,0.732c-0.143,-0.376 -0.206,-0.723 -0.618,-0.801c-0.514,-0.097 -0.814,-0.409 -0.914,-0.896c-0.025,-0.122 -0.102,-0.275 -0.201,-0.334c-0.323,-0.192 -0.326,-0.431 -0.188,-0.732c0.084,-0.182 0.162,-0.371 0.203,-0.565c0.067,-0.319 -0.18,-0.586 -0.514,-0.551c-0.09,0.015 -0.153,0.023 -0.21,0.044c-0.187,0.07 -0.373,0.146 -0.559,0.219c0.121,0.208 0.237,0.418 0.366,0.621c0.028,0.045 0.099,0.063 0.154,0.127c0.004,0.374 0.004,0.715 0.004,1.056c-0.344,-0.255 -0.603,-0.535 -0.852,-0.825c-0.158,-0.184 -0.279,-0.21 -0.54,-0.106c-0.787,0.314 -0.792,1.095 -1.106,1.69c-0.019,0.037 -0.002,0.101 0.014,0.146c0.126,0.346 0.213,0.689 -0.015,1.032c-0.028,0.042 -0.018,0.126 0.003,0.18c0.078,0.203 0.174,0.399 0.251,0.602c0.139,0.361 -0.003,0.897 -0.327,1.111c-0.539,0.355 -0.845,0.88 -1.102,1.443c-0.035,0.076 0.012,0.19 0.021,0.287c0.031,0.203 0.063,0.406 0.06,0.645c-0.039,0.427 0.214,0.536 0.634,0.545c-0.091,0.241 -0.189,0.429 -0.232,0.629c-0.117,0.548 -0.201,0.621 -0.748,0.685c-0.12,0.014 -0.296,0.126 -0.322,0.226c-0.033,0.125 0.045,0.292 0.107,0.426c0.041,0.09 0.137,0.154 0.287,0.314c-0.401,-0.031 -0.644,0.058 -0.527,0.404c0.115,0.343 -0.048,0.564 -0.232,0.81c-0.188,0.252 -0.423,0.506 -0.498,0.795c-0.123,0.471 -0.845,1.169 -1.351,1.178c-0.272,0.005 -0.545,0.001 -0.843,0.001c0.066,-0.343 -0.263,-0.189 -0.429,-0.201c-0.184,-0.014 -0.376,0.073 -0.623,0.13c0.028,-0.098 0.065,-0.229 0.114,-0.401c-0.331,-0.173 -0.804,0.193 -1.147,-0.168c0.3,-0.18 0.578,-0.348 0.857,-0.515c-0.018,-0.053 -0.035,-0.106 -0.053,-0.158c-0.198,0.041 -0.445,0.023 -0.583,0.136c-0.323,0.265 -0.656,0.397 -1.073,0.36c-0.09,-0.008 -0.252,0.086 -0.276,0.165c-0.118,0.395 -0.326,0.497 -0.666,0.291c-0.272,-0.165 -0.526,-0.365 -0.88,-0.17c-0.159,0.087 -0.355,0.112 -0.537,0.15c-0.773,0.164 -1.547,0.323 -2.343,0.488c-0.043,-0.22 -0.205,-0.348 -0.512,-0.32c-0.201,0.018 -0.453,0.027 -0.606,-0.075c-0.465,-0.31 -0.893,-0.675 -1.335,-1.018c-0.286,-0.221 -0.461,-0.179 -0.624,0.142c-0.054,0.106 -0.097,0.269 -0.182,0.299c-0.399,0.14 -0.811,0.244 -1.27,0.375c0.051,-0.524 0.093,-0.951 0.137,-1.404c0.1,-0.028 0.268,-0.076 0.465,-0.128c0.374,-0.119 0.715,-0.247 1.065,-0.345c0.133,-0.037 0.285,-0.006 0.429,-0.006c0.278,-0.043 0.562,-0.117 0.844,-0.195c0.203,-0.056 0.387,-0.112 0.318,-0.406c-0.02,-0.084 0.075,-0.245 0.16,-0.294c0.281,-0.159 0.592,-0.267 0.873,-0.428c0.128,-0.073 0.212,-0.223 0.316,-0.338c-0.141,-0.024 -0.29,-0.089 -0.42,-0.062c-0.219,0.046 -0.42,0.195 -0.637,0.219c-0.182,0.02 -0.376,-0.115 -0.565,-0.114c-0.423,0.002 -0.846,0.055 -1.27,0.068c-0.367,0.011 -0.72,-0.244 -0.857,-0.585c-0.152,-0.379 -0.286,-0.423 -0.641,-0.217c-0.252,0.146 -0.465,0.174 -0.603,-0.158c-0.043,-0.103 -0.163,-0.253 -0.24,-0.249c-0.357,0.021 -0.68,-0.088 -1.02,-0.154c-0.404,-0.078 -0.811,-0.092 -1.168,-0.33c-0.046,-0.031 -0.127,-0.049 -0.176,-0.03c-0.301,0.116 -0.356,-0.114 -0.464,-0.299c-0.186,-0.318 -0.391,-0.626 -0.589,-0.937c-0.188,-0.296 -0.476,-0.541 -0.416,-0.956c0.011,-0.076 -0.132,-0.196 -0.228,-0.259c-0.099,-0.065 -0.228,-0.085 -0.381,-0.138c0.157,-0.174 0.29,-0.321 0.448,-0.497c-0.132,-0.085 -0.252,-0.148 -0.357,-0.231c-0.259,-0.206 -0.321,-0.546 -0.136,-0.703c0.35,-0.297 0.346,-0.344 -0.06,-0.58c-0.299,-0.174 -0.591,-0.304 -0.643,-0.745c-0.056,-0.476 -0.093,-0.506 0.236,-0.5c0.176,-0.182 0.293,-0.303 0.438,-0.427c0.321,-0.203 0.612,-0.402 0.947,-0.63c0.209,0.056 0.534,0.214 0.739,-0.108c0.272,-0.427 0.295,-0.976 -0.14,-1.43c0.113,-0.104 0.311,-0.199 0.325,-0.315c0.045,-0.368 0.336,-0.42 0.576,-0.559c0.214,-0.124 0.41,-0.281 0.689,-0.475c-0.266,-0.09 -0.409,-0.138 -0.676,-0.229c0.696,-0.23 0.234,-0.861 0.593,-1.213c0.153,0.14 0.287,0.264 0.428,0.394c0.243,-0.193 0.258,-0.424 0.191,-0.685c-0.059,-0.231 -0.1,-0.466 -0.149,-0.699c0.038,-0.023 0.076,-0.047 0.114,-0.07c0.16,0.107 0.316,0.221 0.483,0.317c0.089,0.051 0.235,0.128 0.288,0.093c0.101,-0.068 0.174,-0.2 0.219,-0.32c0.024,-0.064 -0.034,-0.159 -0.036,-0.165c0.098,-0.103 0.171,-0.156 0.211,-0.227c0.092,-0.162 0.156,-0.341 0.252,-0.5c0.128,-0.212 0.402,-0.417 0.392,-0.615c-0.027,-0.546 0.435,-0.66 0.706,-0.963c0.042,0.127 0.044,0.241 0.027,0.351c-0.027,0.173 -0.08,0.344 -0.098,0.518c-0.015,0.144 0.011,0.278 0.172,0.08c0,0 0.026,-0.007 0.027,0.031c0.419,0.226 0.633,0.135 0.696,-0.282c0.116,-0.57 0.358,-1.044 0.63,-1.458c0.153,0.111 0.244,0.178 0.336,0.246c0.092,0.067 0.243,0.209 0.267,0.19c0.11,-0.087 0.226,-0.206 0.265,-0.336c0.126,-0.419 0.186,-0.86 0.561,-1.161c0.189,-0.152 0.357,-0.176 0.523,0.017c0.4,0.465 0.907,0.33 1.403,0.252c0.044,-0.007 0.121,-0.06 0.117,-0.08c-0.059,-0.345 0.104,-0.626 0.263,-0.929c0.023,-0.026 0.032,-0.037 0.069,-0.044c0.306,0.027 0.582,0.061 0.859,0.069c0.139,0.004 0.371,0.002 0.404,-0.071c0.138,-0.298 0.391,-0.259 0.63,-0.288c0.113,-0.014 0.225,-0.042 0.337,-0.063c0.001,-0.049 0.002,-0.098 0.002,-0.146c-0.257,-0.029 -0.514,-0.058 -0.771,-0.087c0,0 0.008,-0.007 0.015,-0.035c0.007,-0.16 0.007,-0.292 0.007,-0.428c1.604,0.235 1.739,0.233 2.013,-0.055c-0.109,-0.03 -0.198,-0.054 -0.312,-0.082c-0.06,0.002 -0.094,0.008 -0.159,0.007c-0.113,-0.008 -0.195,-0.009 -0.277,-0.011c0,0 0.008,-0.005 0.019,-0.03c-0.05,-0.108 -0.111,-0.19 -0.171,-0.273c0,0 0.009,-0.004 0.015,-0.025c-0.041,-0.042 -0.088,-0.063 -0.141,-0.113c-0.012,-0.103 -0.018,-0.178 -0.024,-0.253c0,0 0.006,0.006 0.032,0.013c0.032,-0.025 0.038,-0.058 0.044,-0.09c-0,0 0.007,0.004 0.028,0.022c0.061,0.005 0.102,-0.009 0.142,-0.023c0,0 -0.006,0.003 -0.003,0.027c0.052,0.058 0.1,0.091 0.149,0.125c0,0 -0.005,0.002 -0.017,0.034c0.035,0.062 0.082,0.092 0.129,0.122Z" style="fill:#4ade80;fill-rule:nonzero;stroke:#22c55e;stroke-width:1px;"/></g></svg>