<?xml version="1.0" encoding="UTF-8" standalone="no"?><!DOCTYPE svg PUBLIC "-//W3C//DTD SVG 1.1//EN" "http://www.w3.org/Graphics/SVG/1.1/DTD/svg11.dtd"><svg width="100%" height="100%" viewBox="0 0 100 100" version="1.1" xmlns="http://www.w3.org/2000/svg" xmlns:xlink="http://www.w3.org/1999/xlink" xml:space="preserve" xmlns:serif="http://www.serif.com/" style="fill-rule:evenodd;clip-rule:evenodd;stroke-linejoin:round;stroke-miterlimit:2;"><rect id="_25_tokyo_miyakejima" serif:id="25_tokyo_miyakejima" x="0" y="0" width="100" height="100" style="fill:none;"/><g id="_25_tokyo_miyakejima1" serif:id="25_tokyo_miyakejima"><path d="M31.921,89.01c-0.394,0.092 -0.734,0.286 -0.793,-0.373c-0.022,-0.249 -0.282,-0.706 -0.703,-0.666c-0.536,0.051 -0.832,-0.309 -1.204,-0.555c-1.032,-0.684 -2.168,-1.125 -3.356,-1.452c-0.344,-0.095 -0.606,-0.001 -0.87,0.203c-0.846,0.658 -1.102,0.668 -1.766,-0.173c-0.313,-0.397 -0.657,-0.624 -1.115,-0.731c-0.279,-0.066 -0.422,-0.176 -0.326,-0.501c0.129,-0.435 -0.266,-0.586 -0.485,-0.846c-0.264,-0.311 -0.475,-0.394 -0.826,-0.124c-0.222,0.171 -0.485,0.039 -0.47,-0.235c0.037,-0.676 -0.518,-0.763 -0.92,-0.93c-0.406,-0.168 -0.837,-0.091 -1.106,0.357c-0.072,0.12 -0.169,0.252 -0.386,0.216c-0.186,-0.19 -0.101,-0.586 -0.488,-0.697c-0.353,-0.101 -0.635,-0.164 -0.986,0.061c-0.641,0.41 -1.323,0.755 -2.09,0.895c-0.361,0.066 -1.034,-0.414 -1.088,-0.827c-0.063,-0.474 -0.125,-0.942 -0.296,-1.397c-0.102,-0.271 -0.068,-0.557 0.048,-0.858c0.32,-0.826 0.227,-1.634 -0.295,-2.362c-0.229,-0.319 -0.493,-0.475 -0.871,-0.131c-0.482,0.44 -0.609,0.37 -1.005,-0.119c-0.322,-0.398 -0.464,-0.738 -0.208,-1.23c0.109,-0.21 0.104,-0.515 0.057,-0.759c-0.051,-0.263 -0.178,-0.564 -0.558,-0.464c-0.464,0.122 -0.499,-0.189 -0.511,-0.497c-0.033,-0.866 -0.012,-1.728 0.352,-2.54c0.06,-0.134 0.053,-0.252 -0.038,-0.361c-0.349,-0.419 -0.095,-0.723 0.216,-0.977c0.188,-0.153 0.277,-0.262 0.141,-0.498c-0.246,-0.427 -0.008,-0.761 0.526,-0.731c0.203,0.011 0.4,0.073 0.559,-0.125c-0.098,-0.201 -0.347,-0.104 -0.47,-0.247c-0.176,-0.204 -0.316,-0.415 0.039,-0.561c0.479,-0.197 0.532,-0.658 0.6,-1.048c0.057,-0.326 -0.254,-0.421 -0.542,-0.319c-0.383,0.135 -0.753,0.305 -1.129,0.459c-0.171,0.07 -0.377,0.178 -0.48,-0.055c-0.108,-0.245 0.128,-0.317 0.292,-0.379c0.706,-0.269 1.369,-0.638 2.111,-0.825c0.558,-0.141 0.627,-0.544 0.198,-0.931c-0.103,-0.093 -0.198,-0.184 -0.154,-0.327c0.142,-0.465 -0.149,-0.717 -0.452,-0.977c-0.479,-0.411 -0.874,-0.971 -1.645,-0.798c-0.151,0.034 -0.245,-0.141 -0.338,-0.257c-0.109,-0.135 -0.253,-0.258 -0.421,-0.231c-1.026,0.169 -1.7,-0.5 -2.163,-1.176c-0.244,-0.355 -0.771,-0.841 -0.505,-1.497c0.082,-0.201 -0.127,-0.388 -0.363,-0.478c-0.789,-0.303 -0.741,-0.357 -0.478,-1.102c0.171,-0.484 0.51,-0.914 0.492,-1.493c0.808,0.143 1.36,-0.349 1.881,-0.762c0.565,-0.448 1.156,-0.647 1.846,-0.718c0.705,-0.073 1.315,-0.316 1.62,-1.055c0.16,-0.388 0.531,-0.593 0.894,-0.794c0.72,-0.398 1.362,-0.885 1.695,-1.678c0.232,-0.553 0.09,-0.864 -0.444,-1.167c-0.41,-0.233 -0.669,-0.659 -1.174,-0.818c-0.225,-0.071 0.024,-0.493 0.104,-0.747c0.067,-0.215 0.216,-0.328 0.46,-0.305c0.733,0.069 1.05,-0.315 0.821,-1.008c-0.061,-0.186 -0.134,-0.404 -0.017,-0.528c0.304,-0.323 0.248,-0.711 0.296,-1.089c0.114,-0.896 0.707,-1.537 1.296,-2.128c0.467,-0.468 1.004,-0.893 1.753,-0.953c0.583,-0.047 0.91,-0.615 1.312,-0.962c0.489,-0.422 1.043,-0.815 1.399,-1.393c0.124,-0.202 0.26,-0.375 0.111,-0.599c-0.373,-0.558 -0.296,-1.286 -0.721,-1.832c-0.15,-0.192 0.077,-0.373 0.211,-0.517c0.42,-0.453 0.527,-1.211 0.251,-1.743c-0.193,-0.372 -0.098,-0.666 0.264,-0.887c0.311,-0.19 0.675,-0.301 0.952,-0.616c-0.178,-0.258 -0.356,-0.511 -0.529,-0.768c-0.091,-0.135 -0.128,-0.272 0.037,-0.384c0.146,-0.099 0.283,-0.082 0.391,0.055c0.262,0.334 0.523,0.67 0.776,1.012c0.143,0.193 0.058,0.336 -0.117,0.464c-0.126,0.092 -0.324,0.105 -0.364,0.279c1.146,0.465 2.066,0.055 2.888,-0.734c0.202,-0.194 0.402,-0.381 0.383,-0.701c-0.012,-0.205 0.102,-0.366 0.281,-0.443c1.003,-0.43 0.871,-1.444 0.552,-2.223c-0.169,-0.413 -0.457,-0.79 -0.837,-1.008c-0.775,-0.444 -1.164,-1.052 -1.038,-1.947c0.036,-0.251 -0.076,-0.405 -0.212,-0.592c-0.693,-0.952 -1.412,-1.884 -2.154,-2.799c-0.229,-0.283 -0.251,-0.694 -0.054,-0.941c0.547,-0.685 0.558,-1.609 1.093,-2.282c0.471,-0.592 0.654,-1.294 0.851,-2.003c0.082,-0.296 0.181,-0.643 0.568,-0.763c0.125,-0.039 0.26,-0.173 0.314,-0.296c0.401,-0.917 1.276,-0.957 2.07,-1.133c0.906,-0.202 1.843,-0.244 2.726,-0.571c0.261,-0.097 0.504,-0.222 0.591,-0.46c0.267,-0.729 0.87,-0.716 1.479,-0.759c0.559,-0.039 1.047,0.21 1.551,0.358c0.898,0.264 1.757,0.105 2.603,-0.134c0.776,-0.22 1.565,-0.428 2.265,-0.869c0.353,-0.222 0.753,-0.183 1.125,-0.035c0.386,0.154 0.746,0.196 1.098,-0.073c0.183,-0.14 0.36,-0.099 0.482,0.075c0.269,0.386 0.661,0.716 0.632,1.251c-0.015,0.273 0.218,0.321 0.379,0.42c1.005,0.616 2.086,0.697 3.205,0.406c0.841,-0.219 1.659,-0.563 2.386,-0.999c0.703,-0.422 1.612,-0.385 2.178,-1.058c0.177,-0.211 0.449,-0.356 0.582,-0.586c0.541,-0.937 1.479,-1.235 2.411,-1.487c0.788,-0.213 1.584,-0.192 2.365,0.205c0.621,0.315 1.306,0.546 2.029,0.293c0.455,-0.16 0.714,-0.639 1.202,-0.756c0.104,-0.025 0.223,-0.152 0.295,-0.124c1.028,0.387 2.141,-0.243 3.144,0.258c0.387,0.193 0.563,-0.061 0.767,-0.258c0.263,0.115 0.159,0.278 0.119,0.434c-0.029,0.112 -0.033,0.234 0.094,0.284c0.056,0.022 0.142,-0.002 0.204,-0.029c0.133,-0.059 0.117,-0.169 0.072,-0.28c-0.027,-0.069 -0.058,-0.136 -0.086,-0.204c-0.066,-0.16 -0.251,-0.346 -0.011,-0.478c0.239,-0.131 0.398,0.061 0.46,0.259c0.123,0.394 0.27,0.715 0.776,0.64c0.074,-0.011 0.173,0.065 0.243,0.123c0.568,0.464 1.228,0.414 1.887,0.333c0.309,-0.038 0.55,0.011 0.676,0.325c0.058,0.145 0.135,0.282 0.312,0.265c0.916,-0.09 1.878,0.048 2.674,-0.615c0.266,-0.221 0.592,-0.311 0.67,0.215c0.005,0.036 0.016,0.094 0.037,0.1c0.805,0.259 0.984,1.505 2.075,1.315c0.14,-0.024 0.253,0.055 0.294,0.199c0.056,0.197 0.224,0.239 0.384,0.271c0.772,0.155 1.467,0.447 2.057,0.993c0.239,0.221 0.587,0.307 0.883,0.444c1.032,0.477 1.379,1.266 1.27,2.352c-0.091,0.903 0.356,1.283 1.277,1.102c0.821,-0.161 1.568,0.087 2.321,0.337c0.127,0.042 0.253,0.12 0.251,0.265c-0.006,0.416 0.359,0.499 0.578,0.729c0.455,0.478 0.941,0.417 1.475,0.262c0.123,-0.036 0.249,-0.077 0.376,-0.082c0.206,-0.008 0.431,0.009 0.507,0.245c0.073,0.228 -0.109,0.321 -0.279,0.41c-0.095,0.05 -0.177,0.123 -0.311,0.218c0.376,0.669 0.971,1.085 1.588,1.408c0.242,0.126 0.554,0.266 0.728,0.415c0.539,0.462 1.249,0.352 1.82,0.685c0.384,0.224 0.807,-0.186 1.263,-0.127c0.137,0.39 0.097,0.739 -0.24,0.999c0.466,1.232 1.508,1.66 2.656,2.018c-0.2,0.399 0.097,0.764 0.046,1.159c-0.007,0.05 0.01,0.136 0.043,0.154c0.513,0.274 0.499,0.949 0.907,1.253c0.606,0.452 0.436,0.978 0.249,1.488c-0.432,1.179 -0.048,1.815 1.196,1.882c0.202,0.011 0.417,-0.021 0.604,0.037c0.301,0.093 0.428,0.188 0.475,0.648c0.089,0.876 -0.181,0.951 -0.891,0.861c-0.219,-0.028 -0.491,0.158 -0.702,0.301c-0.407,0.276 -0.106,0.613 0.099,0.707c0.914,0.418 1.08,1.354 1.345,2.106c0.24,0.682 0.474,1.552 -0.147,2.284c-0.158,0.186 -0.228,0.461 -0.191,0.735c0.036,0.266 0.072,0.492 0.44,0.334c0.422,-0.18 0.712,0.086 0.849,0.406c0.158,0.37 -0.222,0.494 -0.474,0.621c-0.195,0.098 -0.416,0.153 -0.632,0.199c-0.317,0.068 -0.564,0.208 -0.602,0.555c-0.028,0.256 -0.255,0.281 -0.424,0.407c0.236,0.458 0.164,0.697 -0.416,0.763c-0.741,0.084 -1.041,0.762 -0.615,1.395c0.404,0.6 0.309,1.141 -0.011,1.706c-0.134,0.236 -0.319,0.391 -0.614,0.408c-0.506,0.029 -0.797,0.351 -0.968,0.792c-0.368,0.952 -0.259,1.92 -0.039,2.878c0.097,0.421 0.336,0.746 0.781,0.934c0.507,0.214 0.583,0.729 0.637,1.211c0.09,0.805 0.277,0.941 1.068,0.848c1.281,-0.151 2.564,-0.28 3.849,-0.395c0.287,-0.026 0.541,-0.067 0.764,-0.261c0.142,-0.124 0.317,-0.134 0.445,0.017c0.154,0.181 -0.008,0.306 -0.121,0.421c-0.37,0.376 -0.877,0.199 -1.314,0.305c-0.365,0.088 -0.788,-0.012 -0.865,0.551c-0.027,0.197 -0.292,0.202 -0.472,0.218c-0.661,0.058 -1.323,0.117 -1.986,0.146c-0.612,0.027 -1.015,0.261 -1.121,0.855c-0.191,1.068 -0.313,2.137 0.432,3.102c0.429,0.556 0.226,1.179 -0.009,1.758c-0.141,0.349 -0.282,0.675 -0.14,1.064c0.045,0.125 0.043,0.365 -0.034,0.422c-0.477,0.352 -0.275,0.916 -0.458,1.356c-0.107,0.256 -0.002,0.498 0.139,0.733c0.266,0.446 0.134,0.796 -0.368,0.905c-0.374,0.082 -0.76,0.188 -1.15,0.073c-0.374,-0.111 -0.575,-0.005 -0.565,0.41c0.012,0.497 -0.17,0.856 -0.693,0.987c-0.236,0.059 -0.397,0.201 -0.345,0.48c0.088,0.473 -0.153,0.81 -0.459,1.121c-0.232,0.235 -0.494,0.446 -0.497,0.825c-0.001,0.175 -0.156,0.316 -0.291,0.26c-0.793,-0.327 -1.311,0.433 -2.006,0.49c-0.164,0.013 -0.338,0.123 -0.516,0.173c-0.324,0.09 -0.427,0.31 -0.331,0.64c0.209,0.714 0.195,0.692 -0.463,0.926c-0.494,0.176 -0.694,0.678 -0.957,1.074c-0.296,0.444 -0.553,0.782 -1.18,0.691c-0.645,-0.094 -1.436,0.508 -1.628,1.138c-0.105,0.344 -0.275,0.568 -0.68,0.44c-0.277,-0.088 -0.536,-0.036 -0.809,0.059c-0.594,0.207 -1.204,0.32 -1.843,0.337c-0.51,0.014 -1.024,0.079 -1.099,0.814c-0.029,0.29 -0.266,0.537 -0.193,0.909c0.055,0.279 -0.977,0.502 -1.247,0.195c-0.524,-0.596 -1.04,-0.558 -1.662,-0.206c-0.378,0.214 -0.789,0.133 -1.174,-0.048c-0.614,-0.288 -1.267,-0.13 -1.701,0.399c-0.389,0.473 -0.578,1.114 -1.235,1.367c-0.231,0.089 -0.161,0.375 -0.14,0.601c0.017,0.179 0.003,0.389 -0.205,0.472c-0.177,0.07 -0.383,0.079 -0.518,-0.074c-0.283,-0.319 -0.651,-0.319 -0.97,-0.184c-0.647,0.273 -1.338,0.256 -2.002,0.4c-0.756,0.165 -0.837,0.295 -0.721,1.06c0.03,0.195 0.001,0.407 -0.043,0.602c-0.087,0.383 -0.114,0.731 0.047,1.125c0.186,0.454 -0.204,1.089 -0.823,1.428c-0.521,0.285 -0.997,0.518 -1.049,1.253c-0.039,0.552 -0.817,0.801 -1.323,0.479c-0.349,-0.222 -0.566,-0.251 -0.677,0.211c-0.019,0.08 -0.117,0.212 -0.16,0.205c-0.525,-0.082 -1.049,0.23 -1.571,0.003c-0.117,-0.051 -0.268,-0.082 -0.257,-0.247c0.021,-0.34 -0.217,-0.504 -0.452,-0.642c-0.559,-0.329 -0.884,-0.879 -1.304,-1.337c-0.371,-0.404 -0.806,-0.532 -1.347,-0.466c-0.925,0.113 -1.853,0.297 -2.316,1.179c-0.343,0.653 -0.734,0.989 -1.476,1.029c-0.316,0.017 -0.615,0.262 -0.872,-0.108c-0.675,0.319 -0.787,-0.209 -1.024,-0.633c-0.115,-0.206 -0.445,-0.194 -0.675,-0.137c-1.341,0.335 -2.599,-0.13 -3.831,-0.489c-0.896,-0.261 -1.717,-0.291 -2.59,-0.061c-0.356,0.094 -0.724,0.141 -1.088,0.197c-0.148,0.023 -0.326,0.02 -0.406,0.146c-0.615,0.968 -1.504,0.681 -2.343,0.494c-0.457,-0.102 -0.785,0.027 -1.19,0.224c-0.552,0.269 -1.133,0.514 -1.756,0.64c-0.357,0.072 -0.772,0.121 -0.962,0.545c-0.118,0.263 -0.321,0.307 -0.598,0.204c-0.248,-0.092 -0.494,-0.043 -0.559,0.271c-0.116,0.561 -0.329,0.504 -0.623,0.119c-0.037,-0.049 -0.13,-0.056 -0.238,-0.082" style="fill:#4ade80;fill-rule:nonzero;stroke:#22c55e;stroke-width:1px;"/></g></svg>