<?xml version="1.0" encoding="UTF-8" standalone="no"?><!DOCTYPE svg PUBLIC "-//W3C//DTD SVG 1.1//EN" "http://www.w3.org/Graphics/SVG/1.1/DTD/svg11.dtd"><svg width="100%" height="100%" viewBox="0 0 100 100" version="1.1" xmlns="http://www.w3.org/2000/svg" xmlns:xlink="http://www.w3.org/1999/xlink" xml:space="preserve" xmlns:serif="http://www.serif.com/" style="fill-rule:evenodd;clip-rule:evenodd;stroke-linejoin:round;stroke-miterlimit:2;"><rect id="_27_tokyo_hachijoshima" serif:id="27_tokyo_hachijoshima" x="0" y="0" width="100" height="100" style="fill:none;"/><g id="_27_tokyo_hachijoshima1" serif:id="27_tokyo_hachijoshima"><path d="M33.318,54.852c-0.023,0.004 -0.036,-0.006 -0.008,-0.042c0.034,-0.088 0.037,-0.162 0.039,-0.235c0,0 0.004,0.006 0.025,0.017c0.149,-0.125 0.459,-0.05 0.445,-0.352c0,0 0.006,0.004 0.025,0.014c0.117,-0.111 0.213,-0.233 0.31,-0.354c0,0 0.004,0.006 0.023,0.007c0.027,-0.024 0.036,-0.049 0.045,-0.074c0,0 0.004,0.007 0.023,0.006c0.027,-0.025 0.035,-0.049 0.044,-0.073c0,0 0.002,0.008 0.023,0.012c0.053,-0.025 0.084,-0.053 0.116,-0.082c0,0 -0.001,0.006 0.017,0.014c0.055,-0.015 0.092,-0.037 0.125,-0.061c-0.003,-0.002 -0.002,0.005 0.019,0.004c0.054,-0.024 0.086,-0.048 0.115,-0.072c-0.003,-0.001 -0.002,0.006 0.019,0.005c0.054,-0.024 0.086,-0.048 0.116,-0.07c-0.003,0.001 0.001,0.006 0.028,0.004c0.275,-0.011 0.522,-0.02 0.794,-0.027c0.264,0.004 0.327,-0.109 0.236,-0.349c-0.03,-0.142 -0.06,-0.256 -0.086,-0.356c-0.051,-0.014 -0.074,-0.029 -0.093,-0.025c-0.266,0.062 -0.621,-0.101 -0.719,0.365c-0.044,0.212 -0.428,0.164 -0.625,0.085c-0.209,-0.083 -0.478,-0.048 -0.712,-0.012c-0.07,0.011 -0.113,0.199 -0.188,0.323c-0.226,0.017 -0.432,0.017 -0.702,0.017c-0.04,0.076 -0.113,0.216 -0.203,0.388c0.405,0.12 0.666,0.274 0.256,0.642c-0.036,0.032 -0.012,0.13 -0.016,0.198c-0.02,0.003 -0.039,0.007 -0.059,0.01c-0.066,-0.203 -0.132,-0.406 -0.207,-0.639c-0.588,0.044 -1.246,-0.047 -1.629,0.582c-0.138,-0.048 -0.269,-0.008 -0.389,-0.029c-0.178,-0.031 -0.457,-0.062 -0.5,-0.171c-0.115,-0.286 -0.301,-0.323 -0.551,-0.319c-0.077,0.001 -0.155,-0.028 -0.232,-0.044c0.036,-0.084 0.063,-0.173 0.111,-0.249c0.095,-0.149 0.221,-0.282 0.296,-0.44c0.035,-0.074 -0.019,-0.191 -0.036,-0.315c-0.355,0.276 -0.632,0.498 -0.917,0.709c-0.178,0.132 -0.371,0.211 -0.6,0.049c-0.031,-0.005 -0.044,-0.002 -0.057,0.001c0,0 0.006,-0.002 0.012,-0.025c0,-0.057 -0.005,-0.092 -0.011,-0.126c0,0 0.01,0.009 0.031,0.015c0.066,-0 0.117,-0.023 0.153,-0.009c0.305,0.12 0.357,-0.022 0.304,-0.284c-0.038,-0.187 -0.069,-0.376 -0.111,-0.604c-0.339,0.02 -0.686,0.049 -1.034,0.055c-0.068,0.001 -0.189,-0.084 -0.195,-0.139c-0.014,-0.126 0.036,-0.258 0.047,-0.388c0.014,-0.174 -0.02,-0.29 -0.24,-0.187c-0.052,0.024 -0.164,0.001 -0.202,-0.041c-0.149,-0.169 -0.292,-0.125 -0.459,-0.037c-0.092,0.049 -0.203,0.061 -0.305,0.09c0,0 0.005,-0.006 0.012,-0.028c-0.022,-0.028 -0.051,-0.034 -0.08,-0.04c0,0 0.005,-0.004 0.009,-0.027c-0.217,-0.023 -0.438,-0.023 -0.703,-0.023c-0.062,-0.29 -0.348,-0.362 -0.682,-0.358c-0.006,0.023 -0.019,0.03 -0.079,0.01c-0.113,-0.02 -0.197,-0.008 -0.262,-0.038c-0.217,-0.1 -0.277,-0.013 -0.264,0.194c0.005,0.08 -0.013,0.161 -0.02,0.242c0,0 -0.007,-0.006 -0.034,-0.012c-0.146,0 -0.265,0.007 -0.383,0.013c0,0 0.007,-0.006 0.013,-0.026c-0.023,-0.027 -0.052,-0.034 -0.081,-0.042c0,0 0.006,-0.004 0.009,-0.028c-0.276,-0.102 -0.554,-0.182 -0.835,-0.254c-0.055,-0.014 -0.118,0.008 -0.178,0.014c0,0 0.001,-0.006 0.013,-0.027c-0.136,-0.114 -0.276,-0.265 -0.434,-0.288c-0.24,-0.035 -0.494,0.009 -0.741,0.037c-0.216,0.025 -0.428,0.088 -0.644,0.111c-0.889,0.092 -1.514,-0.452 -2.161,-0.927c-0.136,-0.1 -0.192,-0.283 -0.429,-0.14c-0.09,0.054 -0.284,-0.042 -0.419,-0.099c-0.035,-0.015 -0.056,-0.185 -0.028,-0.205c0.272,-0.19 0.206,-0.411 0.083,-0.645c-0.093,-0.177 -0.184,-0.292 -0.358,-0.059c-0.034,0.045 -0.225,0.047 -0.265,0.001c-0.267,-0.308 -0.546,-0.614 -0.752,-0.961c-0.124,-0.208 -0.117,-0.492 -0.179,-0.74c-0.085,-0.341 -0.178,-0.681 -0.273,-1.02c-0.011,-0.039 -0.045,-0.091 -0.079,-0.102c-0.404,-0.133 -0.489,-0.51 -0.621,-0.836c-0.039,-0.095 0.05,-0.248 0.094,-0.369c0.044,-0.119 0.118,-0.228 0.157,-0.349c0.047,-0.145 0.085,-0.296 0.103,-0.448c0.021,-0.184 0.036,-0.372 0.016,-0.555c-0.011,-0.102 -0.106,-0.193 -0.144,-0.296c-0.229,-0.611 -0.432,-1.232 -0.687,-1.832c-0.121,-0.283 -0.266,-0.554 -0.586,-0.73c-0.322,-0.177 -0.631,-0.449 -0.832,-0.755c-0.229,-0.35 -0.415,-0.692 -0.852,-0.815c-0.079,-0.022 -0.148,-0.145 -0.187,-0.236c-0.118,-0.279 -0.172,-0.56 -0.58,-0.628c-0.21,-0.035 -0.433,-0.304 -0.549,-0.521c-0.156,-0.291 -0.318,-0.464 -0.665,-0.362c0.071,-0.419 -0.033,-0.575 -0.385,-0.576c-0.273,0.047 -0.562,0.219 -0.627,-0.228c0.298,-0.395 0.281,-0.663 -0.028,-1.108c0.039,-0.209 0.092,-0.434 0.029,-0.62c-0.181,-0.535 -0.405,-1.054 -0.62,-1.577c-0.041,-0.1 -0.107,-0.192 -0.175,-0.276c-0.258,-0.317 -0.62,-0.54 -0.811,-0.918c-0.03,-0.059 -0.124,-0.12 -0.188,-0.12c-0.395,0.001 -0.477,-0.2 -0.384,-0.542c0.019,-0.071 0.018,-0.167 -0.014,-0.23c-0.166,-0.325 -0.352,-0.64 -0.52,-0.964c-0.233,-0.449 -0.667,-0.809 -0.605,-1.389c0.052,-0.488 0.156,-1.004 -0.575,-1.168c0.561,-0.159 0.637,-0.315 0.448,-0.856c-0.164,-0.467 -0.35,-0.927 -0.515,-1.395c-0.169,-0.48 -0.338,-0.961 -0.478,-1.45c-0.037,-0.13 0.003,-0.301 0.057,-0.434c0.141,-0.344 0.203,-0.701 0.189,-1.064c-0.016,-0.411 -0.217,-0.816 0.072,-1.224c0.143,-0.201 0.126,-0.585 0.298,-0.682c0.416,-0.236 0.268,-0.528 0.226,-0.843c-0.045,-0.336 -0.352,-0.684 0.108,-1.026c-0.249,-0.06 -0.422,-0.101 -0.595,-0.143c0.225,-0.052 0.447,-0.067 0.531,-0.34c0.018,-0.058 0.147,-0.104 0.23,-0.115c0.652,-0.088 0.899,-0.653 1.274,-1.067c0.076,-0.084 0.145,-0.176 0.217,-0.264c0.06,-0.003 0.069,-0.054 0.05,-0.089c-0.073,-0.136 -0.155,-0.266 -0.235,-0.4c0.455,-0.159 0.832,-0.754 0.83,-1.295c0.093,-0.027 0.186,-0.053 0.234,-0.067c0.227,-0.745 0.442,-1.45 0.651,-2.136c-0.192,-0.136 -0.307,-0.217 -0.496,-0.351c0.324,0.02 0.55,0.034 0.813,0.05c-0.012,0.01 0.024,-0.007 0.038,-0.034c0.283,-0.567 0.705,-0.998 1.274,-1.273c0.111,-0.054 0.26,-0.054 0.388,-0.04c0.166,0.018 0.29,0.037 0.38,-0.161c0.064,-0.141 0.189,-0.291 0.325,-0.357c0.384,-0.185 0.78,-0.353 1.186,-0.479c0.313,-0.097 0.647,-0.138 0.974,-0.173c0.318,-0.034 0.643,-0.005 0.959,-0.05c0.118,-0.017 0.218,-0.165 0.326,-0.253c-0.018,-0.031 -0.036,-0.063 -0.054,-0.094c0.254,0.027 0.638,0.411 0.637,-0.212c0.103,0.014 0.188,0.03 0.274,0.038c0.281,0.025 0.587,-0.119 0.828,0.179c0.05,0.062 0.345,0.04 0.4,-0.035c0.176,-0.244 0.427,-0.183 0.65,-0.244c0.111,-0.03 0.2,-0.135 0.31,-0.177c0.073,-0.028 0.17,-0.023 0.248,-0.002c0.064,0.017 0.116,0.08 0.183,0.129c0.308,-0.551 0.666,-0.997 1.348,-1.075c0.215,0.018 0.399,0.033 0.582,0.049c0.013,0.024 0.027,0.048 0.055,0.095c0.098,0.075 0.2,0.111 0.26,0.182c0.172,0.204 0.36,0.159 0.573,0.088c0.192,-0.064 0.404,-0.153 0.593,-0.128c0.584,0.079 1.162,0.207 1.764,0.327c0.281,0.152 0.539,0.294 0.798,0.437c-0.015,0.029 -0.03,0.058 -0.046,0.087c0.699,0.011 1.399,0.018 2.088,-0.123c0.064,0.385 0.362,0.579 0.672,0.417c0.422,-0.22 0.95,-0.052 1.332,-0.392c0.028,-0.025 0.107,0.017 0.16,0.011c0.313,-0.035 0.661,0.047 0.88,-0.299c0.042,-0.066 0.197,-0.061 0.33,-0.096c-0.135,0.615 -0.05,0.841 0.378,0.946c0.152,0.038 0.334,-0.045 0.528,-0.065c0.242,0.009 0.459,0.009 0.695,0.009c0.024,0.071 0.06,0.242 0.138,0.391c0.117,0.225 0.48,0.261 0.477,0.594c-0,0.005 0.156,0.043 0.206,0.012c0.279,-0.169 0.48,-0.044 0.671,0.149c-0.102,0.321 -0.019,0.665 0.275,0.841c0.251,0.15 0.509,0.515 0.855,0.119c0.022,-0.025 0.132,-0.005 0.174,0.029c0.043,0.035 0.091,0.132 0.072,0.166c-0.236,0.416 0.139,0.48 0.356,0.638c0.157,0.115 0.316,0.229 0.463,0.357c0.207,0.181 0.374,0.453 0.612,0.544c0.328,0.125 0.478,0.358 0.579,0.635c0.071,0.194 0.136,0.258 0.331,0.179c0.078,-0.031 0.171,-0.023 0.266,-0.033c0.007,0.101 -0.018,0.204 0.023,0.258c0.229,0.307 0.426,0.667 0.725,0.884c0.315,0.229 0.575,0.494 0.837,0.77c0.085,0.089 0.219,0.134 0.334,0.19c0.267,0.129 0.559,0.22 0.798,0.388c0.26,0.182 0.479,0.377 0.747,0.107c0.1,0.186 0.191,0.356 0.283,0.526c0.034,-0.01 0.068,-0.02 0.102,-0.03c0.02,-0.114 0.04,-0.227 0.068,-0.387c0.07,0.246 0.129,0.451 0.184,0.645c0.165,-0.053 0.296,-0.095 0.434,-0.14c0.015,0.299 0.082,0.524 0.373,0.662c0.225,0.106 0.41,0.295 0.646,0.473c0.001,0.018 0.006,0.1 0.01,0.159c0.344,0.039 0.66,0.071 0.975,0.113c0.06,0.008 0.143,0.035 0.17,0.08c0.345,0.588 0.976,0.705 1.536,0.924c0.223,0.087 0.519,0.021 0.551,0.38c0.004,0.041 0.073,0.104 0.119,0.11c0.463,0.06 0.7,0.478 1.08,0.663c0.093,0.045 0.23,0.026 0.34,0.003c0.14,-0.03 0.273,-0.094 0.477,-0.168c-0.071,0.161 -0.101,0.226 -0.135,0.304c0.113,0.027 0.203,0.049 0.217,0.052c0.042,0.19 0.072,0.322 0.106,0.476c-0.025,0.05 -0.114,0.145 -0.113,0.239c0.002,0.281 0.048,0.562 0.06,0.843c0.019,0.418 -0.088,0.849 0.272,1.206c0.14,0.139 0.222,0.367 0.264,0.569c0.062,0.297 0.211,0.6 -0.028,0.911c-0.145,0.188 -0.01,0.752 0.172,0.788c0.289,0.057 0.592,0.092 0.885,0.07c0.306,-0.022 0.391,0.034 0.331,0.367c-0.442,-0.089 -0.426,0.28 -0.53,0.533c-0.093,0.227 0.013,0.309 0.21,0.431c0.317,0.198 0.694,0.161 1.019,0.382c0.338,0.231 0.79,0.327 1.207,0.397c0.26,0.044 0.547,-0.07 0.835,-0.089c-0.066,0.217 -0.146,0.41 -0.235,0.629c0.147,0.058 0.275,0.122 0.411,0.16c0.166,0.046 0.337,0.08 0.508,0.103c0.111,0.015 0.226,0 0.354,0.016c0.285,0.131 0.457,0.324 0.546,0.608c0.045,0.144 0.123,0.286 0.218,0.403c0.108,0.132 0.252,0.234 0.385,0.353c0.079,-0.05 0.15,-0.096 0.22,-0.141c-0.005,0.036 -0.01,0.072 -0.015,0.109c0.11,0.037 0.246,0.135 0.325,0.101c0.361,-0.154 0.707,-0.346 1.075,-0.532c-0.082,-0.179 -0.142,-0.297 -0.19,-0.419c-0.059,-0.151 -0.116,-0.304 -0.159,-0.46c-0.042,-0.15 -0.065,-0.304 -0.061,-0.454c0.262,0.132 0.509,0.252 0.34,0.533c0.093,0.176 0.167,0.326 0.251,0.469c0.038,0.065 0.09,0.157 0.149,0.167c0.364,0.067 0.733,0.107 1.098,0.171c0.194,0.034 0.463,0.035 0.56,0.158c0.277,0.355 0.484,0.766 0.703,1.13c0.395,0.065 0.759,0.133 1.127,0.182c0.159,0.021 0.323,-0 0.485,0.001c0.202,0.001 0.405,0.009 0.607,0.008c0.101,-0 0.266,0.023 0.293,-0.026c0.104,-0.184 0.227,-0.083 0.293,-0.018c0.209,0.206 0.394,0.437 0.588,0.656c-0.567,0.843 0.282,0.898 0.67,1.204c-0.217,0.428 -0.062,0.767 0.196,1.091c0.088,0.11 0.213,0.245 0.208,0.364c-0.009,0.22 0.046,0.329 0.262,0.375c0.179,0.038 0.366,0.177 0.525,0.145c0.277,-0.055 0.539,-0.197 0.799,-0.32c0.41,-0.195 0.535,-0.116 0.545,0.377c-0.127,0.056 -0.258,0.113 -0.415,0.174c-0.459,0.182 -0.894,0.362 -1.357,0.55c-0.165,0.022 -0.301,0.035 -0.395,0.045c0.031,0.402 0.047,0.762 0.094,1.118c0.013,0.101 0.096,0.228 0.184,0.28c0.469,0.272 0.977,0.247 1.491,0.164c0.343,-0.055 0.739,-0.233 1.02,-0.123c0.705,0.275 1.479,0.157 2.17,0.497c0.502,0.247 1.063,0.367 1.427,0.845c0.065,0.085 0.163,0.164 0.262,0.201c0.52,0.192 1.045,0.368 1.598,0.559c0.479,0.029 0.928,0.048 1.377,0.073c0.344,0.019 0.698,0.113 1.029,0.058c0.8,-0.134 1.59,-0.329 2.38,-0.516c0.102,-0.024 0.18,-0.148 0.268,-0.226c0.158,0.185 0.325,0.185 0.596,0.138c0.537,-0.093 1.097,-0.05 1.673,-0.057c0.086,0.029 0.15,0.049 0.21,0.076c0.511,0.232 1.011,0.493 1.535,0.691c0.384,0.145 0.795,0.224 1.2,0.301c0.463,0.088 0.932,0.159 1.401,0.204c0.269,0.026 0.545,-0.03 0.816,-0.018c0.222,0.01 0.446,0.086 0.507,-0.242c0.007,-0.04 0.121,-0.06 0.216,-0.103c0.057,0.238 -0.26,0.47 0.059,0.662c0.174,0.105 0.296,0.296 0.445,0.452c-0.027,0.095 -0.056,0.198 -0.086,0.302c0.034,-0.026 0.068,-0.052 0.102,-0.078c0.124,0.172 0.219,0.379 0.377,0.51c0.419,0.348 0.834,0.685 0.988,1.243c0.016,0.057 0.118,0.086 0.165,0.141c0.303,0.353 0.756,0.63 0.74,1.163c-0.026,0.84 0.358,1.582 0.589,2.343c0.441,1.456 1.328,2.681 2.447,3.723c0.188,0.175 0.41,0.318 0.572,0.513c0.155,0.185 0.266,0.372 0.56,0.287c0.053,-0.015 0.158,0.117 0.225,0.193c0.047,0.054 0.067,0.13 0.104,0.194c0.324,0.571 0.792,0.995 1.338,1.349c0.36,0.234 0.419,0.595 0.18,0.944c-0.223,0.327 -0.455,0.648 -0.704,0.982c-0.227,0.203 -0.448,0.382 -0.634,0.592c-0.115,0.13 -0.241,0.302 -0.252,0.463c-0.027,0.401 -0.145,0.743 -0.398,1.058c-0.08,0.1 -0.108,0.275 -0.096,0.41c0.046,0.514 0.166,1.02 0.015,1.542c-0.034,0.117 0.038,0.298 0.118,0.408c0.194,0.266 0.387,0.559 0.649,0.741c0.177,0.123 0.181,0.234 0.234,0.4c0.115,0.355 0.255,0.723 0.476,1.017c0.247,0.33 0.628,0.559 0.889,0.882c0.283,0.351 0.918,0.52 0.68,1.177c-0.003,0.008 0.01,0.021 0.009,0.031c-0.023,0.442 0.178,0.759 0.597,0.964c-0.107,0.135 -0.171,0.262 -0.273,0.334c-0.312,0.221 -0.483,0.575 -0.464,0.888c0.031,0.529 -0.258,0.852 -0.512,1.23c-0.084,0.126 -0.135,0.333 -0.093,0.471c0.066,0.214 0.254,0.231 0.466,0.134c0.066,-0.031 0.267,0.055 0.267,0.085c-0.002,0.141 -0.007,0.334 -0.096,0.411c-0.216,0.186 -0.544,0.12 -0.785,0.356c-0.211,0.206 -0.554,0.274 -0.837,0.408c-0.529,0.252 -1.041,0.576 -1.67,0.405c0.002,0.001 0.004,0.011 -0.032,0.01c-0.509,0.02 -0.982,0.041 -1.476,0.061c-0.059,0.016 -0.097,0.034 -0.157,0.042c-0.223,-0.068 -0.424,-0.126 -0.638,-0.205c-0.229,-0.092 -0.444,-0.163 -0.69,-0.236c-0.535,0.106 -1.06,0.162 -1.541,0.338c-0.591,0.217 -1.172,0.491 -1.54,1.058c-0.16,0.247 -0.322,0.533 -0.693,0.278c-0.023,-0.016 -0.066,0.002 -0.099,-0.003c-0.256,-0.035 -0.518,-0.048 -0.767,-0.114c-0.266,-0.07 -0.521,-0.187 -0.779,-0.288c-0.223,-0.088 -0.426,-0.04 -0.569,0.134c-0.319,0.387 -0.796,0.058 -1.148,0.273c-0.007,0.004 -0.036,-0.023 -0.052,-0.039c-0.224,-0.217 -0.38,-0.057 -0.532,0.1c-0.077,0.079 -0.133,0.184 -0.221,0.245c-0.258,0.178 -0.402,0.374 -0.212,0.689c0.028,0.046 0.019,0.129 -0,0.186c-0.127,0.383 -0.24,0.774 -0.399,1.144c-0.211,0.49 -0.511,0.946 -0.682,1.448c-0.311,0.91 -1.009,1.472 -1.704,2.043c-0.08,0.066 -0.234,0.04 -0.352,0.065c-0.361,0.076 -0.779,0.072 -0.998,0.419c-0.154,0.245 -0.248,0.548 -0.294,0.837c-0.056,0.354 -0.084,0.711 0.233,1.021c0.154,0.15 0.196,0.434 0.244,0.667c0.036,0.174 -0,0.363 0.002,0.546c0.001,0.098 0.051,0.211 0.017,0.291c-0.133,0.308 -0.059,0.463 0.317,0.433c-0.092,0.378 -0.182,0.719 -0.257,1.063c-0.087,0.399 -0.167,0.8 -0.239,1.202c-0.017,0.096 -0.031,0.248 0.022,0.291c0.18,0.147 0.12,0.322 0.109,0.495c-0.021,0.311 -0.049,0.622 -0.091,0.954c-0.086,0.492 -0.177,0.962 -0.21,1.437c-0.01,0.147 0.107,0.334 0.22,0.451c0.299,0.311 0.633,0.587 0.941,0.891c0.157,0.155 0.254,0.394 0.434,0.499c0.587,0.344 0.616,1.035 0.987,1.509c0.034,0.043 -0.022,0.169 -0.054,0.249c-0.04,0.099 -0.1,0.19 -0.15,0.282c0.112,0.077 0.203,0.14 0.328,0.227c-0.135,0.078 -0.241,0.186 -0.298,0.164c-0.28,-0.108 -0.342,0.112 -0.458,0.263c-0.264,0.341 -0.535,0.676 -0.796,1.018c-0.349,0.457 -0.741,0.84 -1.36,0.877c-0.041,0.002 -0.078,0.042 -0.119,0.05c-0.137,0.025 -0.276,0.044 -0.43,0.047c-0.202,-0.12 -0.389,-0.222 -0.576,-0.323c-0.02,0.025 -0.04,0.05 -0.06,0.075c0.043,0.082 0.086,0.164 0.108,0.263c-0.034,0.03 -0.048,0.043 -0.08,0.043c-0.13,-0.114 -0.228,-0.24 -0.355,-0.31c-0.247,-0.135 -0.528,-0.216 -0.51,-0.586c0.004,-0.075 -0.067,-0.173 -0.131,-0.228c-0.559,-0.483 -1.125,-0.958 -1.69,-1.434c-0.023,-0.019 -0.068,-0.011 -0.094,-0.029c-0.188,-0.125 -0.387,-0.238 -0.556,-0.386c-0.182,-0.16 -0.334,-0.353 -0.5,-0.531c-0.395,-0.426 -0.769,-0.876 -1.146,-1.309c-0.406,-0.465 -0.83,-0.907 -1.269,-1.337c-0.27,-0.264 -0.59,-0.483 -0.833,-0.769c-0.346,-0.407 -0.607,-0.888 -0.967,-1.281c-0.75,-0.817 -1.677,-1.368 -2.778,-1.566c-0.289,-0.052 -0.6,0.02 -0.902,0.033c-0.051,0.002 -0.117,0.013 -0.15,-0.013c-0.296,-0.233 -0.546,-0.162 -0.786,0.093c-0.106,0.112 -0.233,0.205 -0.372,0.325c-0.021,-0.165 -0.021,-0.312 -0.063,-0.444c-0.025,-0.077 -0.108,-0.174 -0.181,-0.19c-0.7,-0.152 -1.364,-0.089 -1.978,0.328c-0.382,0.259 -0.8,0.369 -1.266,0.199c-0.393,-0.144 -0.798,-0.253 -1.197,-0.379c-0.188,-0.06 -0.393,-0.094 -0.558,-0.193c-0.222,-0.132 -0.565,-0.294 -0.591,-0.48c-0.14,-0.99 -0.938,-1.416 -1.592,-1.947c-0.336,-0.273 -0.772,-0.432 -1.179,-0.604c-0.668,-0.282 -1.341,-0.29 -1.988,0.079c-0.243,0.139 -0.457,0.355 -0.715,0.431c-0.345,0.102 -0.721,0.099 -1.083,0.146c-0.08,0.011 -0.157,0.045 -0.237,0.069c-0.081,-0.226 -0.294,-0.357 -0.543,-0.327c-0.109,0.013 -0.195,0.216 -0.318,0.364c-0.136,-0.142 -0.226,-0.484 -0.582,-0.391c-0.004,-0.021 -0.004,-0.044 -0.013,-0.063c-0.098,-0.22 -0.189,-0.444 -0.298,-0.659c-0.337,-0.661 -0.837,-1.15 -1.551,-1.381c-0.429,-0.139 -0.871,-0.239 -1.311,-0.341c-0.125,-0.029 -0.263,-0.004 -0.395,-0.004c-0.032,0.059 -0.045,0.006 -0.079,-0.014c-0.476,-0.274 -0.956,-0.541 -1.431,-0.816c-0.158,-0.091 -0.356,-0.164 -0.453,-0.303c-0.428,-0.613 -1.103,-0.838 -1.729,-1.134c-0.248,-0.117 -0.551,-0.245 -0.801,-0.203c-0.33,0.055 -0.472,-0.133 -0.639,-0.298c-0.445,-0.439 -0.871,-0.898 -1.304,-1.349c-0.123,-0.128 -0.29,-0.238 -0.358,-0.391c-0.232,-0.523 -0.418,-1.067 -0.643,-1.593c-0.097,-0.229 -0.244,-0.437 -0.361,-0.641c0.05,-0.106 0.18,-0.259 0.183,-0.414c0.01,-0.43 -0.055,-0.861 -0.05,-1.292c0.006,-0.623 0.06,-1.246 0.069,-1.87c0.006,-0.464 -0.027,-0.929 -0.041,-1.422c-0.115,-0.728 -0.23,-1.428 -0.353,-2.156c-0.054,-0.479 -0.133,-0.929 -0.136,-1.38c-0.002,-0.321 0.104,-0.643 0.155,-0.965c0.039,-0.252 0.067,-0.507 0.099,-0.76c0.012,-0.099 0.059,-0.214 0.026,-0.295c-0.231,-0.553 -0.098,-1.131 -0.144,-1.695c-0.026,-0.319 0.014,-0.68 -0.327,-0.898c-0.039,-0.025 -0.057,-0.15 -0.03,-0.198c0.228,-0.415 0.01,-0.808 -0.145,-1.141c-0.108,-0.232 -0.254,-0.438 -0.283,-0.705c-0.007,-0.066 -0.089,-0.124 -0.136,-0.186c0,0 0.007,-0.002 0.012,-0.023c-0.09,-0.096 -0.186,-0.17 -0.281,-0.245c0,0 0.006,-0.005 0.008,-0.024c-0.023,-0.027 -0.049,-0.035 -0.075,-0.044c0,-0 0.006,-0.001 0.002,-0.024c-0.046,-0.029 -0.089,-0.036 -0.132,-0.042c0,0 0.004,-0.006 0.012,-0.028c-0.022,-0.028 -0.051,-0.034 -0.081,-0.041c0,0 0.005,-0.005 0.019,-0.023c-0.087,-0.116 -0.189,-0.214 -0.29,-0.313c0,0 0.007,-0.003 0.011,-0.025c-0.045,-0.073 -0.095,-0.125 -0.144,-0.177c0,0 0.006,-0.004 0.019,-0.025c-0.021,-0.051 -0.054,-0.081 -0.087,-0.111c0,0 0.006,-0.003 0.012,-0.025c-0.022,-0.029 -0.05,-0.035 -0.078,-0.042c0,0 0.005,-0.004 0.013,-0.027c-0.021,-0.029 -0.051,-0.035 -0.08,-0.041c0,0 0.005,-0.004 0.014,-0.027c-0.021,-0.029 -0.051,-0.035 -0.081,-0.041c0,0 0.005,-0.004 0.021,-0.021c-0.02,-0.049 -0.057,-0.082 -0.094,-0.114c0,0 0.006,-0 0.006,-0.018c-0.023,-0.028 -0.047,-0.038 -0.071,-0.048c0,0 0.007,-0.002 -0.005,-0.02c-0.195,-0.028 -0.378,-0.038 -0.561,-0.048Z" style="fill:#4ade80;fill-rule:nonzero;stroke:#22c55e;stroke-width:1px;"/></g></svg>