<?xml version="1.0" encoding="UTF-8" standalone="no"?><!DOCTYPE svg PUBLIC "-//W3C//DTD SVG 1.1//EN" "http://www.w3.org/Graphics/SVG/1.1/DTD/svg11.dtd"><svg width="100%" height="100%" viewBox="0 0 100 100" version="1.1" xmlns="http://www.w3.org/2000/svg" xmlns:xlink="http://www.w3.org/1999/xlink" xml:space="preserve" xmlns:serif="http://www.serif.com/" style="fill-rule:evenodd;clip-rule:evenodd;stroke-linejoin:round;stroke-miterlimit:2;"><rect id="_28_tokyo_aogashima" serif:id="28_tokyo_aogashima" x="0" y="0" width="100" height="100" style="fill:none;"/><g id="_28_tokyo_aogashima1" serif:id="28_tokyo_aogashima"><path d="M34.188,81.224c-0.328,-0.044 -0.57,0.009 -0.792,0.23c-0.453,0.451 -1.3,0.455 -1.799,0.04c-0.191,-0.159 -0.144,-0.36 -0.101,-0.559c0.046,-0.21 0.183,-0.31 0.398,-0.299c0.256,0.014 0.512,0.037 0.768,0.045c0.21,0.006 0.349,-0.097 0.392,-0.309c0.051,-0.251 -0.119,-0.324 -0.31,-0.364c-0.486,-0.103 -0.654,-0.326 -0.299,-0.756c0.165,-0.2 0.071,-0.383 -0.042,-0.554c-0.374,-0.568 -0.94,-0.924 -1.489,-1.287c-0.261,-0.173 -0.489,0.032 -0.686,0.199c-0.827,0.699 -1.652,1.401 -2.476,2.105c-0.216,0.184 -0.407,0.365 -0.715,0.123c-0.4,-0.314 -0.423,-0.471 -0.023,-0.802c0.763,-0.631 1.489,-1.307 2.308,-1.871c0.508,-0.35 0.526,-0.586 0.018,-0.907c-0.881,-0.556 -1.562,-1.329 -2.341,-1.996c-0.771,-0.66 -1.57,-1.27 -2.68,-1.372c-0.49,-0.045 -1.014,-0.27 -1.508,-0.459c-0.222,-0.085 -0.447,-0.202 -0.678,-0.222c-1.416,-0.123 -2.165,-1.138 -2.71,-2.228c-0.371,-0.742 -0.649,-1.537 -1.098,-2.249c-0.149,-0.235 -0.153,-0.487 -0.01,-0.731c0.115,-0.197 0.158,-0.411 0.144,-0.635c-0.035,-0.559 -0.183,-1.123 0.092,-1.669c0.035,-0.069 0.014,-0.196 -0.028,-0.267c-0.392,-0.658 -0.312,-1.456 -0.64,-2.132c-0.183,-0.376 -0.089,-0.753 -0.076,-1.153c0.035,-1.008 0.51,-1.8 0.887,-2.674c0.352,-0.818 0.265,-1.768 0.184,-2.666c-0.121,-1.348 -0.315,-2.685 -0.331,-4.048c-0.021,-1.816 0.121,-3.619 0.254,-5.423c0.037,-0.507 0.171,-1.008 0.284,-1.645c0.014,-0.076 0,-0.382 -0.029,-0.622c-0.195,-0.59 -0.456,-1.064 -0.28,-1.635c0.221,-0.717 0.172,-1.46 0.109,-2.187c-0.114,-1.339 -0.12,-2.674 -0.042,-4.013c0.023,-0.399 -0.138,-0.757 -0.293,-1.107c-0.513,-1.157 -0.578,-2.335 -0.217,-3.543c0.139,-0.465 0.173,-0.941 0.102,-1.416c-0.074,-0.494 -0.103,-0.99 -0.055,-1.483c0.114,-1.158 -0.094,-2.258 -0.519,-3.329c-0.24,-0.605 -0.139,-1.201 0.118,-1.763c1.006,-2.202 1.155,-4.516 0.974,-6.885c-0.029,-0.379 0.029,-0.77 0.087,-1.149c0.142,-0.927 0.296,-1.853 0.472,-2.775c0.036,-0.187 0.156,-0.381 0.29,-0.523c0.766,-0.809 1.54,-1.612 2.329,-2.398c0.269,-0.268 0.643,-0.315 1.013,-0.377c1.311,-0.222 2.507,-0.746 3.671,-1.381c1.379,-0.752 2.872,-0.651 4.344,-0.387c0.877,0.157 1.468,0.877 2.149,1.384c0.51,0.38 1.018,0.751 1.544,1.111c1.313,0.899 2.701,1.664 4.069,2.464c1.19,0.696 2.448,1.212 3.815,1.513c0.763,0.168 1.489,0.297 2.269,0.247c0.488,-0.031 0.978,0.085 1.458,0.233c1.504,0.464 2.997,0.969 4.575,1.153c1.24,0.144 2.309,0.82 3.477,1.187c1.3,0.409 2.416,1.082 3.445,1.966c0.355,0.305 0.807,0.597 1.396,0.471c0.379,-0.081 0.487,0.273 0.451,0.59c-0.136,1.186 0.507,1.937 1.426,2.494c0.474,0.287 0.906,0.55 0.996,1.152c0.018,0.118 0.089,0.269 0.183,0.33c0.783,0.504 0.887,1.4 1.265,2.138c0.433,0.846 0.887,1.683 1.352,2.513c0.149,0.267 0.424,0.41 0.726,0.453c0.682,0.096 1.181,0.497 1.393,1.098c0.428,1.213 1.341,2.046 2.162,2.944c0.554,0.606 1.229,1.102 1.85,1.647c0.284,0.25 0.567,0.425 0.992,0.303c0.347,-0.1 0.647,0.075 0.826,0.401c0.138,0.251 0.318,0.446 0.591,0.548c0.764,0.287 1.326,0.845 1.85,1.435c0.558,0.629 1.195,1.074 2.064,1.11c0.378,0.015 0.633,0.269 0.905,0.483c0.187,0.147 0.352,0.332 0.597,0.38c0.28,0.055 0.537,0.038 0.533,-0.342c-0.004,-0.415 0.22,-0.559 0.594,-0.527c0.438,0.037 0.368,0.408 0.304,0.629c-0.139,0.484 0.127,0.774 0.402,1.062c0.387,0.405 0.649,0.847 0.82,1.398c0.206,0.662 0.704,1.126 1.448,1.219c0.099,0.012 0.175,0.043 0.235,0.117c1.027,1.273 2.236,2.417 2.817,4.005c0.158,0.433 0.494,0.688 0.937,0.768c0.502,0.09 0.593,0.215 0.509,0.817c-0.136,0.975 0.317,1.878 1.137,2.583c0.421,-0.498 0.989,-0.328 1.498,-0.387c0.34,-0.039 0.506,0.365 0.279,0.679c-0.172,0.237 -0.402,0.409 -0.73,0.434c-0.539,0.041 -0.831,0.338 -0.815,0.898c0.01,0.361 -0.217,0.571 -0.489,0.744c-0.329,0.209 -0.395,0.502 -0.433,0.883c-0.052,0.52 0.158,1.1 -0.258,1.563c-0.022,0.024 -0.025,0.069 -0.026,0.105c-0.076,1.652 -0.305,3.308 0.175,4.943c0.124,0.423 0.34,0.682 0.788,0.815c0.588,0.174 0.897,0.728 1.207,1.192c0.269,0.403 0.572,0.863 0.45,1.428c-0.036,0.169 0.073,0.315 0.22,0.416c0.375,0.258 0.304,0.539 0.04,0.83c-0.061,0.068 -0.169,0.149 -0.162,0.215c0.087,0.882 -0.585,1.531 -0.709,2.346c-0.03,0.199 0.062,0.356 0.119,0.527c0.221,0.668 0.3,1.317 -0.158,1.937c-0.112,0.151 -0.208,0.28 -0.386,0.363c-0.755,0.353 -0.934,0.961 -0.501,1.643c0.168,0.264 -0.051,1.209 -0.385,1.443c-0.497,0.349 -0.86,0.747 -1.033,1.364c-0.12,0.429 -0.667,0.523 -0.986,0.822c-0.426,0.4 -0.859,0.708 -0.947,1.393c-0.061,0.472 -0.654,0.746 -1.08,0.9c-0.823,0.297 -1.574,0.798 -2.467,0.909c-0.133,0.017 -0.273,0.119 -0.377,0.217c-1.575,1.48 -3.568,2.144 -5.547,2.821c-2.462,0.843 -4.936,1.656 -7.308,2.729c-0.856,0.387 -1.704,0.824 -2.377,1.556c-0.638,0.694 -1.495,1.084 -2.381,1.434c-1.349,0.534 -2.689,1.105 -4.112,1.378c-1.311,0.252 -2.619,0.666 -3.932,0.723c-1.492,0.065 -3.115,0.144 -4.257,-1.221c-0.114,-0.137 -0.282,-0.314 -0.432,-0.321c-0.737,-0.032 -0.895,-0.59 -1.161,-1.115c-0.503,-0.993 -1.206,-1.817 -2.128,-2.48c-0.922,-0.663 -1.792,-1.392 -2.781,-1.968c-1.207,-0.703 -2.416,-1.035 -3.827,-0.627c-0.513,0.149 -1.085,0.16 -1.726,-0.244c-0.689,-0.434 -1.548,-0.878 -2.572,-0.645c-0.953,0.218 -1.914,-0.124 -2.827,-0.609" style="fill:#4ade80;fill-rule:nonzero;stroke:#22c55e;stroke-width:1px;"/></g></svg>