<?xml version="1.0" encoding="UTF-8" standalone="no"?><!DOCTYPE svg PUBLIC "-//W3C//DTD SVG 1.1//EN" "http://www.w3.org/Graphics/SVG/1.1/DTD/svg11.dtd"><svg width="100%" height="100%" viewBox="0 0 100 100" version="1.1" xmlns="http://www.w3.org/2000/svg" xmlns:xlink="http://www.w3.org/1999/xlink" xml:space="preserve" xmlns:serif="http://www.serif.com/" style="fill-rule:evenodd;clip-rule:evenodd;stroke-linejoin:round;stroke-miterlimit:2;"><rect id="_29_tokyo_chichijima" serif:id="29_tokyo_chichijima" x="0" y="0" width="100" height="100" style="fill:none;"/><g id="_29_tokyo_chichijima1" serif:id="29_tokyo_chichijima"><path d="M47.676,87.664c-0.014,-0.075 -0.004,-0.169 -0.045,-0.224c-0.366,-0.488 -0.705,-1.003 -1.123,-1.442c-0.364,-0.383 -0.519,-0.337 -0.945,0.063c-0.241,-0.497 -0.717,-0.35 -1.088,-0.323c-0.296,0.022 -0.502,-0.105 -0.734,-0.192c-0.16,-0.06 -0.276,-0.077 -0.457,-0.051c-0.465,0.067 -0.957,0.115 -1.41,0.026c-0.227,-0.045 -0.412,-0.02 -0.623,-0.021c-0.507,-0.001 -1.032,0.033 -1.483,-0.292c-0.056,-0.04 -0.144,-0.035 -0.149,-0.036c-0.046,-0.124 -0.052,-0.247 -0.114,-0.291c-0.692,-0.492 -1.426,-0.884 -2.305,-0.914c-0.1,-0.003 -0.197,-0.089 -0.267,-0.123c-0.236,0.066 -0.457,0.112 -0.666,0.19c-0.278,0.104 -0.67,-0.001 -0.787,0.42c-0.009,0.032 -0.134,0.028 -0.202,0.048c-0.932,0.278 -1.734,0.799 -2.538,1.325c-0.485,0.317 -0.592,0.797 -0.709,1.301c-0.05,0.215 -0.192,0.408 -0.292,0.611c-0.053,0.108 -0.106,0.215 -0.182,0.296c-0.224,0.27 -0.448,0.539 -0.682,0.821c0.057,0.412 -0.388,0.74 -0.998,0.714c0.14,-0.5 0.068,-0.741 -0.277,-0.927c-0.039,-0.021 -0.083,-0.064 -0.117,-0.057c-0.26,0.048 -0.518,0.105 -0.809,0.166c0,-0.087 0.016,-0.183 -0.005,-0.27c-0.019,-0.079 -0.063,-0.196 -0.121,-0.213c-0.373,-0.108 -0.749,-0.209 -1.131,-0.278c-0.12,-0.022 -0.332,0.018 -0.375,0.098c-0.123,0.23 -0.339,0.179 -0.453,0.121c-0.234,-0.119 -0.63,-0.059 -0.642,-0.483c-0.001,-0.04 -0.033,-0.088 -0.065,-0.116c-0.284,-0.253 -0.575,-0.497 -0.854,-0.754c-0.13,-0.119 -0.283,-0.242 -0.349,-0.396c-0.133,-0.307 -0.43,-0.275 -0.659,-0.381c-0.214,-0.099 -0.427,-0.203 -0.649,-0.283c-0.105,-0.038 -0.274,-0.076 -0.335,-0.024c-0.187,0.163 -0.283,0.06 -0.379,-0.081c-0.405,-0.594 -0.971,-0.781 -1.656,-0.644c-0.111,0.022 -0.227,0.088 -0.311,0.166c-0.146,0.135 -0.24,0.37 -0.405,0.43c-0.506,0.183 -0.399,0.613 -0.433,0.97c-0.025,0.265 0.044,0.539 0.068,0.809c0.004,0.046 -0,0.095 -0.009,0.141c-0.052,0.285 -0.107,0.569 -0.181,0.961c-0.33,0.26 -0.37,0.774 -0.026,1.2c0.112,0.139 0.229,0.379 0.183,0.519c-0.108,0.325 0.038,0.424 0.314,0.481c-0.142,0.299 -0.273,0.575 -0.411,0.865c-0.252,-0.367 -0.54,-0.676 -0.58,-1.215c-0.051,-0.681 -0.031,-1.438 -0.608,-1.991c-0.076,-0.073 -0.033,-0.265 -0.056,-0.4c-0.019,-0.112 -0.022,-0.292 -0.085,-0.32c-0.549,-0.239 -0.896,-0.663 -1.152,-1.204c0.184,-0.21 0.193,-0.443 0.072,-0.729c-0.085,-0.201 -0.047,-0.452 -0.086,-0.677c-0.036,-0.209 -0.061,-0.435 -0.161,-0.614c-0.156,-0.277 -0.15,-0.471 0.128,-0.649c0.09,-0.058 0.146,-0.169 0.196,-0.23c0.075,0.007 0.102,0.001 0.118,0.012c0.634,0.417 0.786,0.351 1.074,-0.436c0.146,-0.399 0.31,-0.792 0.479,-1.182c0.18,-0.416 0.132,-0.849 -0.185,-1.117c0.366,-0.111 0.697,-0.222 1.035,-0.308c0.076,-0.019 0.182,0.032 0.26,0.075c0.168,0.093 0.318,0.268 0.491,0.289c0.368,0.046 0.748,0.038 1.119,0.007c0.145,-0.012 0.278,-0.148 0.419,-0.224c0.129,-0.069 0.297,-0.103 0.383,-0.206c0.228,-0.272 0.453,-0.555 0.619,-0.866c0.291,-0.545 0.546,-1.111 0.798,-1.676c0.145,-0.323 0.256,-0.661 0.381,-0.993c0.011,-0.03 0.016,-0.066 0.012,-0.098c-0.031,-0.29 -0.085,-0.578 -0.093,-0.868c-0.008,-0.297 -0.198,-0.435 -0.407,-0.577c-0.205,-0.139 -0.239,-0.426 -0.133,-0.65c0.042,-0.089 0.01,-0.262 -0.054,-0.344c-0.138,-0.173 -0.32,-0.312 -0.55,-0.526c0.199,-0.073 0.358,-0.118 0.506,-0.188c0.189,-0.089 0.38,-0.184 0.546,-0.308c0.036,-0.027 -0.004,-0.202 -0.051,-0.284c-0.082,-0.142 -0.197,-0.266 -0.318,-0.423c0.364,-0.087 0.417,-0.292 0.299,-0.571c-0.121,-0.286 -0.043,-0.473 0.243,-0.615c0.29,-0.145 0.3,-0.484 0.049,-0.693c-0.13,-0.108 -0.274,-0.204 -0.383,-0.33c-0.676,-0.784 -1.556,-0.624 -2.418,-0.523c-0.165,0.019 -0.244,0.135 -0.254,0.359c-0.015,0.342 -0.152,0.678 -0.237,1.017c-0.023,0.09 -0.046,0.181 -0.059,0.234c-0.113,0.018 -0.224,0.024 -0.327,0.053c-0.172,0.049 -0.337,0.139 -0.511,0.161c-0.126,0.015 -0.356,-0.027 -0.373,-0.089c-0.038,-0.137 -0.009,-0.325 0.064,-0.451c0.084,-0.145 0.246,-0.246 0.373,-0.367c0.332,-0.314 0.325,-0.441 -0.032,-0.706c0.104,-0.37 0.207,-0.738 0.315,-1.12c0.015,0.004 0.073,0.007 0.117,0.034c0.469,0.279 0.773,0.223 1.038,-0.243c0.181,-0.318 0.51,-0.617 0.252,-1.047c0.272,-0.427 -0.287,-0.713 -0.188,-1.104c0.037,-0.146 0.125,-0.279 0.178,-0.422c0.028,-0.075 0.053,-0.164 0.04,-0.239c-0.039,-0.228 -0.091,-0.453 -0.15,-0.677c-0.042,-0.161 -0.086,-0.325 -0.156,-0.475c-0.145,-0.308 -0.331,-0.599 -0.456,-0.915c-0.079,-0.201 -0.046,-0.406 0.184,-0.549c0.513,-0.318 1.028,-0.582 1.665,-0.435c0.101,0.023 0.228,-0.06 0.34,-0.1c0.041,-0.015 0.074,-0.071 0.112,-0.071c0.318,-0.006 0.636,-0.003 1.027,-0.003c-0.127,0.196 -0.219,0.339 -0.327,0.506c0.064,0.271 0.296,0.255 0.491,0.182c0.213,-0.08 0.278,0.009 0.405,0.154c0.171,0.196 0.412,0.333 0.624,0.493c0.201,0.152 0.441,0.257 0.437,0.585c-0.002,0.192 0.575,0.402 0.771,0.351c0.13,-0.034 0.3,-0.003 0.426,0.056c0.306,0.145 0.467,0.409 0.466,0.682c0.607,0 1.179,0.047 1.738,-0.018c0.337,-0.039 0.73,0.168 1.021,-0.166c0.402,-0.461 0.786,-0.934 0.919,-1.552c0.04,-0.187 0.064,-0.378 0.082,-0.569c0.046,-0.506 -0.077,-0.71 -0.504,-0.947c-0.246,-0.137 -0.48,-0.24 -0.748,-0.076c-0.016,-0.041 -0.035,-0.075 -0.03,-0.078c0.411,-0.296 0.495,-0.801 0.757,-1.191c0.053,-0.078 0.07,-0.195 0.067,-0.293c-0.004,-0.184 -0.11,-0.226 -0.296,-0.27c-0.255,-0.062 -0.481,-0.243 -0.721,-0.371c-0.057,-0.03 -0.121,-0.071 -0.181,-0.069c-0.493,0.016 -0.578,-0.139 -0.395,-0.631c0.032,-0.086 -0.093,-0.269 -0.19,-0.358c-0.186,-0.169 -0.42,-0.286 -0.607,-0.454c-0.223,-0.201 -0.615,-0.319 -0.869,-0.122c-0.322,0.25 -0.758,0.373 -0.923,0.826c-0.101,0.275 -0.464,0.285 -0.682,0.052c-0.068,-0.072 -0.115,-0.164 -0.189,-0.272c0.247,-0.296 0.368,-0.65 0.492,-1.028c0.115,-0.351 0.594,-0.582 0.914,-0.865c0.11,-0.098 0.21,-0.213 0.334,-0.29c0.23,-0.143 0.471,-0.271 0.713,-0.392c0.311,-0.155 0.478,-0.416 0.526,-0.742c0.121,-0.832 -0.557,-1.592 -1.398,-1.635c-0.262,-0.014 -0.539,-0.107 -0.773,-0.232c-0.461,-0.246 -0.917,-0.153 -1.369,-0.034c-0.384,0.102 -0.713,0.274 -1.158,0.079c-0.373,-0.163 -0.842,-0.108 -1.28,-0.151c0.185,-0.323 0.552,-0.314 0.929,-0.002c0.481,-0.213 0.819,-0.54 0.877,-1.095c0.022,-0.215 -0.282,-0.823 -0.475,-0.931c-0.056,-0.032 -0.119,-0.06 -0.162,-0.106c-0.264,-0.284 -0.51,-0.252 -0.654,0.03c-0.432,0 -0.833,0.008 -1.232,-0.003c-0.241,-0.007 -0.579,-0.384 -0.578,-0.665c0.001,-0.331 -0.054,-0.659 0.116,-0.996c0.067,-0.132 -0.1,-0.471 -0.255,-0.603c-0.182,-0.155 -0.463,-0.236 -0.71,-0.258c-0.176,-0.016 -0.375,0.098 -0.545,0.189c-0.2,0.106 -0.364,0.294 -0.572,0.365c-0.472,0.163 -0.964,0.268 -1.443,0.414c-0.438,0.134 -0.871,0.283 -1.101,0.743c-0.036,0.072 -0.175,0.123 -0.267,0.124c-0.059,0 -0.144,-0.1 -0.172,-0.173c-0.106,-0.274 -0.218,-0.482 -0.589,-0.429c-0.328,0.047 -0.67,-0.01 -1.002,0.019c-0.143,0.013 -0.276,0.128 -0.427,0.204c-0.037,-0.068 -0.085,-0.158 -0.15,-0.278c-0.094,0.106 -0.163,0.186 -0.262,0.298c-0.091,-0.225 -0.167,-0.403 0.093,-0.534c0.349,-0.176 0.157,-0.513 0.222,-0.772c0.146,-0.575 -0.362,-0.856 -0.609,-1.246c-0.217,-0.343 -0.238,-0.562 -0.02,-0.903c0.188,-0.294 0.333,-0.614 0.523,-0.972c-0.13,-0.036 -0.29,-0.095 -0.456,-0.121c-0.236,-0.038 -0.377,-0.279 -0.255,-0.48c0.03,-0.049 0.137,-0.113 0.143,-0.107c0.231,0.245 0.331,-0.05 0.489,-0.109c0.332,-0.125 0.555,-0.384 0.816,-0.604c0.284,-0.241 0.615,-0.432 0.942,-0.615c0.266,-0.148 0.756,0.143 0.68,0.441c-0.07,0.275 0.146,0.246 0.214,0.338c0.179,0.245 0.427,0.439 0.629,0.67c0.136,0.154 0.234,0.341 0.36,0.504c0.099,0.128 0.197,0.265 0.325,0.36c0.171,0.128 0.448,-0.014 0.503,-0.266c0.06,-0.276 0.079,-0.562 0.12,-0.843c0.009,-0.059 0.038,-0.116 0.068,-0.202c0.137,0.465 0.215,0.917 0.402,1.318c0.223,0.478 0.461,0.976 0.969,1.246c0.209,0.111 0.364,0.135 0.547,-0.103c0.1,-0.13 0.375,-0.124 0.633,-0.197c0.051,-0.107 0.144,-0.304 0.251,-0.529c0.117,0.137 0.208,0.244 0.333,0.39c0.558,-0.247 1.117,-0.494 1.679,-0.743c0.295,0.364 0.912,0.295 1.298,-0.156c0.416,0.101 0.739,-0.013 0.976,-0.378c0.317,-0.486 0.602,-0.994 0.935,-1.469c0.101,-0.144 0.301,-0.252 0.477,-0.303c0.307,-0.088 0.643,-0.081 0.943,-0.184c0.225,-0.077 0.405,-0.23 0.662,-0.075c0.066,0.04 0.207,-0.044 0.227,-0.049c0.298,0.132 0.521,0.269 0.764,0.331c0.972,0.252 1.941,0.534 2.93,0.696c0.5,0.082 1.039,-0.062 1.559,-0.12c0.244,-0.027 0.485,-0.092 0.727,-0.14c0.11,-0.022 0.258,-0.009 0.323,-0.076c0.273,-0.281 0.445,-0.094 0.682,0.069c0.331,0.229 0.704,0.398 1.067,0.577c0.594,0.293 1.136,0.118 1.661,-0.203c0.101,-0.062 0.227,-0.084 0.401,-0.146c-0.36,0.801 -0.091,1.475 0.65,1.819c0.069,0.032 0.15,0.069 0.191,0.128c0.369,0.537 0.92,0.618 1.477,0.495c1.155,-0.254 2.052,-0.956 2.823,-1.818c0.155,-0.173 0.203,-0.441 0.3,-0.662c0.459,0.096 0.542,0.051 0.729,-0.382c0.35,-0.81 0.051,-1.539 -0.763,-1.861c-0.052,-0.02 -0.13,-0.038 -0.145,-0.076c-0.103,-0.275 -0.223,-0.549 -0.268,-0.835c-0.016,-0.101 0.149,-0.25 0.26,-0.345c0.087,-0.074 0.218,-0.098 0.359,-0.156c0.136,0.095 0.308,0.242 0.502,0.347c0.408,0.22 0.801,0.068 1.023,-0.359c0.054,-0.103 0.171,-0.172 0.227,-0.275c0.055,-0.102 0.043,-0.243 0.105,-0.337c0.121,-0.182 0.283,-0.337 0.408,-0.517c0.049,-0.07 0.047,-0.177 0.068,-0.267c-0.363,-0.055 -0.219,-0.381 -0.253,-0.565c-0.054,-0.289 -0.011,-0.606 0.041,-0.903c0.049,-0.281 -0.02,-0.465 -0.204,-0.693c-0.205,-0.254 0.036,-0.795 0.4,-1.092c0.271,-0.222 0.259,-0.682 -0.015,-0.886c-0.05,-0.037 -0.109,-0.142 -0.09,-0.174c0.059,-0.103 0.151,-0.186 0.259,-0.31c0.027,-0.177 0.063,-0.409 0.109,-0.71c0.151,0.055 0.351,0.07 0.454,0.178c0.181,0.189 0.307,0.125 0.461,-0.001c0.531,-0.437 0.65,-1.42 0.208,-2.079c-0.341,-0.509 -0.631,-1.032 -0.819,-1.62c-0.214,-0.668 -0.769,-1.02 -1.373,-1.265c-0.53,-0.215 -0.987,-0.003 -1.293,0.547c-0.112,0.202 -0.236,0.315 -0.474,0.332c-0.229,0.016 -0.465,0.068 -0.348,0.409c0.011,0.032 -0.069,0.096 -0.111,0.15c-0.247,-0.408 -0.463,-0.387 -0.81,0.058c-0.225,0.289 -0.49,0.322 -0.711,0.123c0.144,-0.354 0.283,-0.695 0.424,-1.042c-0.199,-0.074 -0.323,-0.121 -0.484,-0.181c0.192,-0.243 0.37,-0.468 0.583,-0.737c-0.107,-0.071 -0.209,-0.138 -0.311,-0.206c-0.018,-0.032 -0.035,-0.064 -0.053,-0.096c-0.135,0.167 -0.27,0.334 -0.412,0.509c-0.036,-0.04 -0.066,-0.06 -0.075,-0.086c-0.058,-0.159 -0.087,-0.441 -0.171,-0.457c-0.242,-0.047 -0.504,0.011 -0.801,0.021c-0.055,-0.017 -0.068,-0.025 -0.082,-0.034c0.005,-0.045 0.007,-0.09 0.014,-0.135c0.071,-0.438 0.035,-0.476 -0.4,-0.424c-0.369,0.044 -0.52,-0.05 -0.593,-0.372c-0.012,-0.051 -0.021,-0.11 -0.008,-0.159c0.08,-0.296 0.131,-0.607 0.264,-0.877c0.09,-0.182 0.295,-0.311 0.457,-0.454c0.054,-0.048 0.157,-0.05 0.197,-0.103c0.284,-0.382 0.71,-0.618 0.963,-1.05c0.308,-0.526 0.345,-0.866 0.056,-1.397c-0.128,-0.235 -0.123,-0.551 -0.142,-0.832c-0.004,-0.059 0.141,-0.164 0.232,-0.188c0.214,-0.056 0.24,-0.142 0.198,-0.362c-0.137,-0.722 -0.013,-1.442 0.084,-2.161c0.032,-0.238 0.076,-0.492 0.028,-0.721c-0.123,-0.583 -0.371,-1.1 -0.717,-1.611c-0.347,-0.513 -0.736,-0.865 -1.302,-1.043c-0.196,-0.062 -0.41,-0.075 -0.617,-0.093c-0.166,-0.014 -0.333,-0.003 -0.596,-0.003c0.597,-0.973 1.152,-1.876 1.724,-2.808c0.283,0.204 0.415,0.039 0.531,-0.195c0.085,-0.171 0.209,-0.324 0.288,-0.497c0.058,-0.127 0.29,-0.252 0.044,-0.42c-0.321,-0.219 -0.491,-0.217 -0.674,0.017c-0.02,0.026 -0.05,0.044 -0.095,0.083c-0.619,-0.304 -1.241,-0.619 -1.873,-0.912c-0.124,-0.057 -0.288,-0.025 -0.432,-0.038c-0.093,-0.009 -0.188,-0.016 -0.279,-0.04c-0.117,-0.03 -0.266,-0.142 -0.339,-0.103c-0.347,0.185 -0.821,0.199 -0.967,0.683c-0.023,0.078 -0.156,0.177 -0.236,0.175c-0.606,-0.016 -1.185,0.081 -1.736,0.337c-0.137,0.064 -0.272,0.133 -0.494,0.242c0.479,0.363 0.894,0.678 1.322,1.002c-0.183,0.226 -0.348,0.424 -0.506,0.628c-0.046,0.059 -0.113,0.182 -0.098,0.196c0.225,0.206 0.166,0.459 0.12,0.676c-0.288,0.128 -0.587,0.245 -0.865,0.399c-0.055,0.031 -0.03,0.207 -0.051,0.391c-0.75,0.615 -1.567,1.289 -2.392,1.955c-0.068,0.055 -0.209,0.1 -0.274,0.066c-0.481,-0.247 -0.865,-0.017 -1.253,0.221c-0.124,0.076 -0.25,0.147 -0.433,0.254c0.288,0.24 0.551,0.46 0.85,0.71c-0.722,0.297 -0.805,0.28 -1.231,-0.184c-0.099,-0.108 -0.197,-0.218 -0.299,-0.324c-0.323,-0.335 -0.47,-0.335 -0.868,-0.101c-1.013,0.595 -1.884,1.343 -2.588,2.286c-0.073,0.098 -0.264,0.146 -0.283,0.241c-0.107,0.526 -0.185,1.058 -0.252,1.59c-0.009,0.071 0.083,0.176 0.155,0.231c0.152,0.116 0.327,0.201 0.482,0.314c0.193,0.139 0.366,0.229 0.605,0.066c0.182,-0.124 0.303,-0.006 0.361,0.187c0.05,0.164 0.114,0.324 0.173,0.486c0.052,0.01 0.103,0.02 0.155,0.031c-0.305,0.278 -0.592,0.581 -0.924,0.821c-0.117,0.085 -0.387,0.084 -0.516,0.005c-0.543,-0.331 -1.033,-0.074 -1.545,0.064c-0.432,0.116 -0.791,0.347 -1.151,0.598c-0.162,0.113 -0.393,0.179 -0.591,0.175c-0.607,-0.013 -0.999,0.36 -1.417,0.706c-0.103,0.085 -0.232,0.175 -0.357,0.188c-0.339,0.036 -0.683,0.049 -1.024,0.04c-0.476,-0.012 -0.872,-0.655 -0.721,-1.115c0.284,-0.865 0.494,-1.748 -0.074,-2.573c-0.345,-0.502 -0.76,-0.957 -1.167,-1.413c-0.104,-0.117 -0.29,-0.183 -0.45,-0.224c-0.445,-0.116 -0.67,-0.467 -0.962,-0.775c-0.294,-0.308 -0.69,-0.547 -1.172,-0.502c-0.058,0.005 -0.125,0.001 -0.177,-0.023c-0.454,-0.203 -0.919,-0.592 -1.299,0.186c-0.017,-0.031 -0.035,-0.061 -0.052,-0.092c0.019,-0.096 0.009,-0.254 0.061,-0.278c0.497,-0.231 0.228,-0.574 0.113,-0.858c-0.127,-0.315 -0.354,-0.59 -0.475,-0.906c-0.061,-0.16 0.009,-0.373 0.032,-0.56c0.051,-0.418 0.181,-0.789 0.467,-1.127c0.197,-0.233 0.288,-0.561 0.398,-0.857c0.03,-0.08 -0.043,-0.198 -0.006,-0.255c0.077,-0.158 0.136,-0.327 0.234,-0.471c0.161,-0.235 0.346,-0.454 0.549,-0.715c-0.178,-0.156 -0.359,-0.325 -0.551,-0.481c-0.19,-0.154 -0.273,-0.563 -0.154,-0.834c0.148,-0.336 0.014,-0.684 -0.317,-0.881c-0.088,-0.052 -0.152,-0.154 -0.209,-0.244c-0.257,-0.401 -0.505,-0.808 -0.768,-1.205c-0.034,-0.052 -0.141,-0.055 -0.212,-0.084c-0.081,-0.033 -0.161,-0.07 -0.318,-0.14c0.15,-0.075 0.228,-0.104 0.294,-0.15c0.12,-0.084 0.258,-0.158 0.344,-0.271c0.187,-0.244 0.307,-0.554 0.529,-0.754c0.264,-0.238 0.472,-0.446 0.491,-0.834c0.01,-0.204 0.187,-0.396 0.273,-0.6c0.061,-0.145 0.075,-0.312 0.146,-0.45c0.066,-0.127 0.159,-0.285 0.278,-0.33c0.266,-0.1 0.418,-0.219 0.242,-0.557c0.6,-0.261 1.176,-0.497 1.739,-0.761c0.333,-0.156 0.643,-0.358 0.967,-0.533c0.194,-0.105 0.414,-0.173 0.589,-0.303c0.299,-0.223 0.669,-0.418 0.567,-0.865c0.399,-0.15 0.762,-0.304 1.137,-0.418c0.162,-0.049 0.354,-0.041 0.524,-0.012c0.156,0.027 0.303,0.114 0.451,0.18c0.056,0.025 0.129,0.054 0.152,0.101c0.142,0.293 0.138,0.295 0.452,0.161c0.004,0.055 0.005,0.104 0.01,0.152c0.044,0.427 0.186,0.619 0.595,0.67c0.348,0.043 0.71,-0.02 1.057,0.027c0.527,0.072 1.064,-0.161 1.59,0.086c0.125,0.059 0.359,-0.021 0.501,-0.106c0.535,-0.32 1.054,-0.668 1.578,-1.008c0.168,-0.109 0.39,-0.192 0.478,-0.348c0.082,-0.146 0.017,-0.374 0.017,-0.614c0.232,-0.115 0.43,0.08 0.657,0.199c0.643,0.336 0.677,0.999 0.079,1.417c-0.086,0.06 -0.167,0.258 -0.131,0.337c0.137,0.297 0.26,0.655 0.504,0.836c0.534,0.399 1.172,0.506 1.835,0.324c0.217,-0.06 0.434,-0.123 0.653,-0.177c0.398,-0.098 0.504,-0.262 0.448,-0.669c-0.03,-0.216 -0.035,-0.435 -0.053,-0.665c-0.103,-0.038 -0.202,-0.075 -0.391,-0.145c0.554,-0.342 1.045,-0.645 1.551,-0.957c0.02,0.056 0.033,0.084 0.04,0.114c0.173,0.742 0.173,0.742 0.891,0.936c0.043,0.012 0.108,0.003 0.128,0.03c0.419,0.558 0.851,0.108 1.295,0.059c-0.051,-0.234 -0.104,-0.425 -0.129,-0.62c-0.009,-0.073 0.023,-0.187 0.077,-0.224c0.058,-0.04 0.202,-0.048 0.241,-0.007c0.14,0.151 0.299,0.312 0.363,0.5c0.078,0.229 0.134,0.308 0.412,0.276c0.391,-0.046 0.795,0.044 1.193,0.034c0.258,-0.006 0.519,-0.068 0.769,-0.138c0.357,-0.1 0.663,-0.044 0.966,0.172c0.312,0.222 0.844,0.162 1.066,-0.084c0.202,-0.224 0.185,-0.365 -0.077,-0.552c0.293,-0.122 0.578,-0.241 0.871,-0.363c0.21,0.055 0.441,0.143 0.679,0.171c0.199,0.023 0.41,-0.003 0.61,-0.042c0.66,-0.128 1.314,-0.114 1.963,0.05c0.08,0.02 0.143,0.111 0.214,0.168c-0.078,0.054 -0.149,0.134 -0.235,0.157c-0.104,0.027 -0.221,0.006 -0.349,0.006c-0.06,0.231 -0.14,0.461 -0.178,0.698c-0.068,0.425 0.022,0.809 0.373,1.097c0.061,0.05 0.126,0.096 0.184,0.149c0.367,0.331 0.754,0.56 1.291,0.443c0.337,-0.074 0.661,0.028 0.994,0.171c0.426,0.182 0.888,0.364 1.402,0.18c0.011,-0.071 0.027,-0.166 0.051,-0.319c0.674,0.289 1.446,0.066 2.062,0.527c0.018,0.013 0.046,0.021 0.054,0.039c0.205,0.426 0.593,0.324 0.944,0.328c0.101,0.001 0.204,0.014 0.303,0.003c0.179,-0.02 0.419,0.008 0.522,-0.095c0.238,-0.241 0.445,-0.53 0.592,-0.835c0.062,-0.129 -0.056,-0.346 -0.093,-0.528c0.237,-0.085 0.294,-0.042 0.399,0.37c0.5,-0.158 0.997,-0.122 1.442,0.162c0.187,0.119 0.323,0.318 0.537,0.537c-0.423,0.086 -0.559,0.334 -0.61,0.644c-0.063,0.39 0.461,1.018 0.845,1.119c0.26,0.068 0.506,0.238 0.723,0.408c0.361,0.284 0.729,0.574 1.029,0.918c0.266,0.305 0.617,0.383 0.954,0.481c0.453,0.132 0.925,0.231 1.395,0.262c0.25,0.016 0.599,0.14 0.775,-0.143c0.274,-0.44 0.675,-0.487 1.131,-0.564c0.189,-0.032 0.385,-0.418 0.45,-0.676c0.064,-0.254 0.175,-0.243 0.346,-0.208c0.526,0.108 0.761,0.508 0.976,0.925c-0.018,0.029 -0.036,0.058 -0.054,0.086c-0.1,-0.042 -0.211,-0.068 -0.298,-0.129c-0.236,-0.163 -0.454,-0.216 -0.698,-0.003c-0.159,0.14 -0.351,0.244 -0.525,0.367c-0.453,0.322 -0.581,0.835 -0.408,1.373c0.079,0.247 0.094,0.532 0.067,0.792c-0.039,0.371 0.211,0.409 0.453,0.484c0.25,0.077 0.499,0.157 0.734,0.232c-0.144,0.199 -0.313,0.341 -0.358,0.516c-0.051,0.196 -0.011,0.425 0.025,0.634c0.076,0.431 0.491,0.506 1.003,0.587c0.082,0.249 0.142,0.469 0.226,0.679c0.276,0.692 0.737,0.819 1.382,0.377c0.309,-0.211 0.618,-0.434 0.981,-0.144c0.099,0.079 0.125,0.252 0.179,0.384c0.026,0.064 0.017,0.156 0.06,0.198c0.186,0.183 0.256,0.389 0.164,0.637c-0.033,0.089 -0.068,0.19 -0.134,0.252c-0.352,0.33 -0.296,0.579 0.175,0.741c0.17,0.058 0.341,0.113 0.507,0.181c0.466,0.192 0.538,0.617 0.523,1.031c-0.011,0.309 0.087,0.412 0.367,0.455c0.2,0.031 0.389,0.128 0.587,0.179c0.087,0.022 0.184,0.004 0.302,0.004c-0.041,0.305 -0.1,0.595 -0.11,0.887c-0.006,0.181 -0.109,0.437 0.25,0.477c0.127,0.014 0.236,0.187 0.422,0.347c0.013,0.19 0.07,0.452 0.479,0.368c0.075,-0.015 0.207,0.084 0.256,0.165c0.028,0.046 -0.05,0.167 -0.097,0.245c-0.103,0.171 -0.216,0.335 -0.376,0.581c0.263,0.016 0.415,0.021 0.567,0.036c0.357,0.035 0.461,0.248 0.259,0.546c-0.132,0.195 -0.127,0.304 0.125,0.397c0.223,0.082 0.523,0.189 0.606,0.369c0.127,0.277 0.336,0.589 0.149,0.945c-0.122,0.233 -0.211,0.471 0.099,0.667c0.073,0.046 0.084,0.218 0.093,0.334c0.023,0.288 0.028,0.578 0.041,0.869c-0.124,-0.011 -0.342,-0.038 -0.56,-0.05c-0.347,-0.019 -0.466,0.211 -0.577,0.494c-0.057,0.145 -0.225,0.343 -0.349,0.347c-0.276,0.01 -0.37,0.189 -0.415,0.368c-0.091,0.357 -0.274,0.627 -0.493,0.924c-0.211,0.286 -0.185,0.752 -0.245,1.142c-0.014,0.091 0.028,0.21 0.083,0.288c0.109,0.154 0.226,0.372 0.377,0.409c0.191,0.047 0.42,-0.061 0.728,-0.12c0.075,0.14 0.181,0.383 0.33,0.596c0.071,0.102 0.22,0.198 0.341,0.208c0.319,0.027 0.264,0.249 0.2,0.401c-0.13,0.308 -0.08,0.437 0.265,0.518c0.191,0.045 0.344,0.25 0.56,0.419c-0.427,0.295 -0.853,0.554 -1.229,0.873c-0.097,0.082 -0.091,0.363 -0.044,0.528c0.214,0.752 0.768,1.224 1.409,1.611c0.087,0.052 0.192,0.079 0.268,0.143c0.416,0.353 0.826,0.426 1.223,-0.017c0.104,-0.116 0.175,-0.262 0.27,-0.408c0.493,0.106 1.057,0.228 1.636,0.353c0.105,-0.252 0.178,-0.491 0.305,-0.694c0.043,-0.069 0.24,-0.089 0.344,-0.056c0.081,0.025 0.125,0.166 0.223,0.198c0.121,0.076 0.245,0.147 0.363,0.228c0.148,0.102 0.582,0.019 0.726,-0.144c0.342,-0.387 0.346,-0.39 0.636,0.022c0.153,0.217 0.296,0.442 0.432,0.67c0.035,0.058 0.062,0.172 0.031,0.21c-0.361,0.451 -0.136,0.874 0.052,1.295c0.086,0.192 0.217,0.364 0.294,0.558c0.236,0.601 0.725,0.614 1.247,0.559c0.163,-0.017 0.275,-0.02 0.374,0.178c0.075,0.15 0.288,0.278 0.463,0.321c0.562,0.139 0.656,0.648 0.875,1.051c0.105,0.194 0.113,0.44 0.21,0.641c0.071,0.148 0.216,0.26 0.323,0.383c-0.437,0.16 -0.546,0.706 -0.265,1.129c0.181,0.273 0.293,0.604 0.374,0.925c0.02,0.079 -0.191,0.231 -0.313,0.328c-0.144,0.116 -0.29,0.211 -0.04,0.362c-0.454,0.282 -0.569,0.881 -0.348,1.344c0.067,0.141 0.016,0.335 0.041,0.501c0.031,0.202 0.085,0.401 0.129,0.601c0.048,0.013 0.095,0.026 0.143,0.04c-0.124,0.088 -0.239,0.195 -0.374,0.261c-0.336,0.163 -0.326,0.488 -0.395,0.778c-0.01,0.042 -0.028,0.082 -0.048,0.138c-0.231,-0.234 -0.485,-0.15 -0.671,-0.003c-0.218,0.171 -0.431,0.393 -0.544,0.64c-0.114,0.249 -0.083,0.56 -0.149,0.836c-0.081,0.341 -0.111,0.663 0.134,0.967c-0.286,0.24 -0.48,0.525 -0.471,0.924c0.002,0.089 -0.078,0.198 -0.149,0.268c-0.263,0.255 -0.274,0.472 -0.085,0.797c0.098,0.168 0.151,0.375 0.175,0.571c0.036,0.287 0.145,0.482 0.407,0.642c-0.092,0.28 -0.226,0.543 -0.251,0.815c-0.016,0.168 0.12,0.36 0.214,0.527c0.141,0.249 0.159,0.491 -0.002,0.726c-0.13,0.191 -0.133,0.346 0.064,0.486c0.034,0.024 0.093,0.077 0.087,0.087c-0.229,0.418 0.276,0.582 0.312,0.912c0.034,0.302 0.111,0.599 0.163,0.899c0.044,0.254 0.08,0.509 0.122,0.785c0.232,-0.067 0.367,-0.106 0.556,-0.161c0.045,0.3 0.166,0.589 0.105,0.831c-0.07,0.274 0.007,0.246 0.204,0.251c0.173,0.004 0.439,0.398 0.395,0.56c-0.014,0.054 -0.083,0.123 -0.133,0.129c-0.06,0.007 -0.143,-0.03 -0.188,-0.075c-0.252,-0.253 -0.512,-0.346 -0.867,-0.176c-0.321,0.153 -0.471,0.433 -0.65,0.699c-0.082,0.122 -0.166,0.247 -0.215,0.383c-0.042,0.116 -0.037,0.25 -0.115,0.351c-0.049,0.157 -0.098,0.314 -0.158,0.505c0.016,0.003 -0.033,-0.005 -0.081,-0.016c-0.053,-0.012 -0.106,-0.025 -0.158,-0.038c-0.032,0.038 -0.07,0.063 -0.07,0.088c-0.004,0.303 -0.21,0.487 -0.418,0.643c-0.516,0.387 -0.743,1.073 -0.512,1.662c0.026,0.067 0.118,0.172 0.152,0.162c0.494,-0.135 0.644,0.618 1.147,0.438c0.197,0.234 0.396,0.466 0.589,0.703c0.152,0.187 0.292,0.382 0.446,0.567c0.027,0.033 0.101,0.023 0.143,0.049c0.073,0.046 0.138,0.105 0.205,0.193c-0.011,0.044 -0.02,0.054 -0.028,0.063c-0.354,0.054 -0.421,0.219 -0.32,0.724c0.124,0.62 0.496,0.993 1.105,1.132c0.286,0.065 0.537,0.03 0.605,-0.317c0.216,-0.021 0.358,0.016 0.509,0.206c0.174,0.22 0.449,0.367 0.696,0.52c0.181,0.112 0.363,-0.034 0.399,-0.355c0.127,0.076 0.233,0.14 0.34,0.202c0.207,0.122 0.424,0.231 0.619,0.37c0.128,0.091 0.153,0.221 0.171,0.404c0.02,0.214 0.273,0.411 0.438,0.604c0.079,0.093 0.191,0.158 0.311,0.254c0.193,-0.035 0.334,0.078 0.526,0.219c0.243,0.178 0.32,0.539 0.546,0.602c0.403,0.112 0.565,0.497 0.918,0.644c0.1,0.041 0.194,0.174 -0.044,0.274c-0.28,0.118 -0.291,0.442 -0.104,0.691c0.118,0.158 0.209,0.343 0.28,0.528c0.073,0.19 0.033,0.385 0.32,0.5c0.265,0.107 0.176,0.469 0.176,0.738c-0,0.132 0.042,0.272 0.097,0.394c0.078,0.173 -0.009,0.198 -0.144,0.253c-0.137,0.056 -0.252,0.168 -0.376,0.255c0.012,0.031 0.023,0.061 0.035,0.092c-0.112,-0.042 -0.224,-0.084 -0.37,-0.139c-0.079,0.126 -0.158,0.251 -0.272,0.432c-0.192,-0.07 -0.399,-0.158 -0.614,-0.22c-0.153,-0.044 -0.277,-0.069 -0.433,0.105c-0.209,0.233 -0.456,0.493 -0.839,0.461c-0.053,-0.004 -0.159,0.052 -0.158,0.074c0.004,0.066 0.039,0.174 0.083,0.186c0.248,0.068 0.501,0.121 0.755,0.161c0.202,0.032 0.415,0.012 0.61,0.064c0.437,0.116 0.492,0.216 0.506,0.727c0.003,0.118 0.024,0.236 0.046,0.444c-0.165,-0.008 -0.345,-0.023 -0.525,-0.025c-0.241,-0.003 -0.483,0.005 -0.724,0.007c-0.162,0.002 -0.324,0.01 -0.485,-0.001c-0.164,-0.011 -0.327,-0.04 -0.497,-0.019c-0.524,-0.289 -0.669,-0.276 -0.89,0.198c-0.207,-0.247 -0.392,-0.467 -0.625,-0.746c-0.191,0.038 -0.305,-0.013 -0.221,-0.394c0.075,-0.338 -0.205,-0.189 -0.392,-0.1c0.033,-0.362 0.237,-0.446 0.526,-0.415c0.311,0.034 0.621,0.07 0.931,0.106c0.053,-0.473 -0.359,-0.929 -0.902,-1.049c-0.338,-0.075 -0.678,-0.145 -1.015,-0.226c-0.096,-0.023 -0.199,-0.055 -0.274,-0.114c-0.45,-0.362 -0.903,-0.722 -1.335,-1.105c-0.275,-0.244 -0.516,-0.527 -0.77,-0.796c-0.042,-0.045 -0.109,-0.121 -0.095,-0.157c0.13,-0.352 -0.143,-0.334 -0.327,-0.332c-0.333,0.004 -0.573,-0.104 -0.656,-0.438c-0.086,-0.342 -0.376,-0.07 -0.539,-0.213c-0.156,-0.472 -0.574,-0.685 -1.081,-0.882c0.313,-0.183 0.324,-0.325 0.076,-0.516c-0.09,-0.069 -0.071,-0.28 -0.107,-0.447c0.278,-0.151 0.366,-0.455 0.4,-0.765c0.018,-0.171 0.035,-0.37 -0.219,-0.47c-0.113,-0.044 -0.162,-0.25 -0.24,-0.383c-0.179,-0.308 -0.856,-0.58 -1.197,-0.482c-0.106,0.031 -0.225,0.036 -0.317,0.089c-0.164,0.094 -0.357,0.102 -0.421,0.388c-0.069,0.312 -0.317,0.588 -0.506,0.867c-0.037,0.054 -0.158,0.061 -0.243,0.072c-0.211,0.027 -0.423,0.044 -0.63,0.065l0,0.623c-0.12,-0.036 -0.196,-0.082 -0.266,-0.074c-0.128,0.015 -0.268,0.038 -0.369,0.108c-0.032,0.022 0.025,0.217 0.08,0.309c0.11,0.183 0.125,0.33 -0.006,0.421c-0.179,-0.068 -0.318,-0.17 -0.43,-0.147c-0.07,0.015 -0.099,0.22 -0.16,0.375c-0.531,-0.124 -0.723,0.355 -0.836,0.721c-0.137,0.443 -0.47,0.522 -0.788,0.628c-0.277,0.092 -0.618,0.165 -0.881,0.083c-0.4,-0.124 -0.763,-0.38 -1.129,-0.6c-0.097,-0.058 -0.168,-0.181 -0.219,-0.29c-0.131,-0.281 -0.348,-0.352 -0.59,-0.161c-0.251,0.198 -0.478,0.431 -0.741,0.611c-0.33,0.227 -0.367,0.55 -0.314,0.883c0.047,0.295 0.38,0.504 0.755,0.511c0.259,0.005 0.382,0.13 0.436,0.366c0.036,0.159 0.088,0.315 0.148,0.523c0.212,-0.093 0.386,-0.17 0.589,-0.259c0.011,0.255 0.066,0.32 0.337,0.197c0.43,-0.196 1.105,0.064 1.43,0.488c0.18,0.235 0.36,0.481 0.482,0.748c0.178,0.391 0.574,0.423 0.881,0.589c0.711,0.383 0.979,1.481 0.513,2.13c-0.144,0.201 -0.208,0.458 -0.332,0.676c-0.082,0.144 -0.185,0.342 -0.317,0.38c-0.254,0.073 -0.341,0.251 -0.338,0.443c0.007,0.413 -0.079,0.848 0.21,1.221c0.069,0.089 0.075,0.228 0.111,0.344c0.066,0.212 0.106,0.438 0.205,0.634c0.113,0.222 0.273,0.427 0.625,0.298c-0.144,0.222 -0.292,0.441 -0.43,0.667c-0.252,0.412 -0.64,0.576 -1.12,0.48c-0.261,-0.052 -0.526,-0.081 -0.789,-0.121c-0.043,-0.054 -0.086,-0.108 -0.129,-0.162c0.094,-0.068 0.188,-0.137 0.283,-0.205c0.031,0.018 0.062,0.035 0.093,0.053c-0.024,-0.344 -0.357,-0.357 -0.576,-0.486c-0.072,-0.042 -0.181,-0.017 -0.257,-0.055c-0.656,-0.323 -1.075,-0.241 -1.493,0.354c-0.378,0.538 -0.48,1.141 -0.257,1.77c0.087,0.247 0.169,0.501 0.52,0.55c0.163,0.023 0.305,0.217 0.452,0.339c0.478,0.399 1.018,0.405 1.522,0.014c0.165,-0.128 0.329,-0.258 0.527,-0.412c0.092,0.372 0.176,0.709 0.266,1.07c-0.456,0.258 -0.887,0.591 -1.474,0.519c-0.067,-0.008 -0.146,0.08 -0.219,0.123c0.069,0.052 0.131,0.122 0.209,0.152c0.234,0.091 0.528,0.014 0.693,0.298c0.18,0.309 0.398,0.595 0.59,0.897c0.17,0.268 0.419,0.123 0.637,0.134c0.039,0.002 0.078,-0.041 0.12,-0.056c0.275,-0.094 0.523,-0.164 0.776,0.104c0.162,0.172 0.418,0.254 0.631,0.378c0.128,0.074 0.254,0.152 0.441,0.265c-0.143,0.075 -0.205,0.134 -0.272,0.139c-0.535,0.043 -0.729,0.429 -0.906,0.854c-0.069,0.167 -0.191,0.318 -0.315,0.454c-0.206,0.226 -0.461,0.414 -0.637,0.659c-0.081,0.113 -0.17,0.309 0.035,0.493c0.304,0.273 0.716,0.36 1.03,0.169c0.264,-0.16 0.539,-0.315 0.829,-0.413c0.145,-0.049 0.338,0.019 0.502,0.062c0.474,0.125 0.952,0.245 1.414,0.406c0.299,0.104 0.388,0.432 0.42,0.687c0.054,0.421 0.332,0.526 0.648,0.631c0.258,0.087 0.532,0.142 0.772,0.263c0.285,0.143 0.316,0.414 0.138,0.67c-0.111,0.16 -0.248,0.311 0.027,0.487c0.259,0.166 0.162,0.64 -0.125,0.875c-0.334,0.274 -0.662,0.451 -1.136,0.409c-0.532,-0.047 -1.075,0.055 -1.613,0.062c-0.414,0.005 -0.836,0.003 -1.241,-0.072c-0.32,-0.06 -0.609,-0.28 -0.929,-0.349c-0.351,-0.076 -0.726,-0.111 -1.082,-0.075c-0.407,0.042 -0.8,0.226 -1.207,0.267c-0.505,0.05 -1.02,0.025 -1.529,0.007c-0.073,-0.003 -0.161,-0.137 -0.205,-0.228c-0.085,-0.178 -0.142,-0.37 -0.216,-0.554c-0.02,-0.049 -0.08,-0.131 -0.087,-0.128c-0.35,0.173 -0.468,-0.21 -0.709,-0.29c-0.029,-0.01 -0.066,0.004 -0.147,0.012c-0.008,0.176 -0.024,0.355 -0.024,0.534c0.002,0.625 -0.176,0.72 -0.762,0.496c-0.461,-0.176 -0.946,-0.311 -1.432,-0.386c-0.227,-0.035 -0.481,0.127 -0.727,0.181c-0.145,0.032 -0.298,0.028 -0.462,0.005c0.219,-0.275 0.486,-0.461 0.842,-0.487c0.168,-0.013 0.339,-0.004 0.508,-0.003c0.195,0.001 0.413,-0.031 0.364,-0.272c-0.03,-0.149 -0.197,-0.352 -0.336,-0.383c-0.442,-0.099 -0.888,-0.189 -1.357,-0.107c-0.3,0.052 -0.802,-0.343 -0.85,-0.642c-0.013,-0.082 0.127,-0.235 0.231,-0.282c0.225,-0.101 0.497,-0.082 0.26,-0.485c-0.119,-0.202 -0.035,-0.544 0.012,-0.813c0.02,-0.116 0.167,-0.275 0.28,-0.298c0.317,-0.066 0.645,-0.079 0.97,-0.096c0.117,-0.006 0.293,0.09 0.344,0.04c0.177,-0.174 0.401,-0.374 0.446,-0.596c0.123,-0.615 0.076,-1.218 -0.463,-1.67c-0.409,-0.342 -0.746,-0.801 -1.319,-0.884c-0.385,-0.056 -0.777,-0.065 -1.166,-0.093c-0.056,-0.004 -0.115,0.007 -0.168,-0.006c-0.603,-0.148 -1.19,-0.128 -1.771,0.119c-0.144,0.061 -0.337,0.005 -0.487,0.059c-0.133,0.048 -0.254,0.161 -0.347,0.273c-0.024,0.029 0.085,0.16 0.122,0.249c0.034,0.081 0.054,0.168 0.08,0.252c-0.094,0.029 -0.21,0.108 -0.279,0.078c-0.194,-0.085 -0.303,-0.053 -0.406,0.136c-0.127,0.234 -0.252,0.483 -0.437,0.666c-0.243,0.239 -0.535,0.431 -0.82,0.624c-0.434,0.292 -0.869,0.585 -1.325,0.84c-0.161,0.09 -0.379,0.13 -0.495,-0.158c-0.08,-0.198 -0.242,-0.37 -0.394,-0.527c-0.033,-0.034 -0.199,0.022 -0.276,0.075c-0.201,0.139 -0.314,0.183 -0.448,-0.109c-0.216,-0.469 -0.506,-0.904 -0.764,-1.353c-0.046,0.011 -0.092,0.023 -0.138,0.034c-0.007,0.148 -0.014,0.296 -0.022,0.479c-0.113,-0.012 -0.259,-0.027 -0.406,-0.043c0.001,0.021 0.002,0.043 0.003,0.064c-0.11,0.007 -0.221,0.02 -0.331,0.018c-0.273,-0.005 -0.54,0.437 -0.392,0.707c0.341,0.626 0.196,1.272 0.102,1.913c-0.025,0.169 -0.157,0.272 -0.346,0.131c-0.3,-0.224 -0.653,-0.402 -0.889,-0.68c-0.155,-0.183 -0.154,-0.504 -0.207,-0.767c-0.044,-0.219 -0.064,-0.442 -0.098,-0.686c0.305,-0.19 0.521,-0.569 0.37,-0.776c-0.142,-0.197 -0.293,-0.5 -0.617,-0.233c-0.537,-0.395 -0.568,-0.395 -1.281,0.117c-0.121,0.087 -0.215,0.211 -0.326,0.312c-0.035,0.032 -0.089,0.067 -0.13,0.062c-0.245,-0.029 -0.5,-0.036 -0.731,-0.112c-0.38,-0.125 -0.602,-0.491 -0.462,-0.909c0.083,-0.249 -0.03,-0.398 -0.096,-0.553c-0.086,-0.202 -0.278,-0.359 -0.351,-0.546c-0.036,-0.191 -0.075,-0.382 -0.109,-0.574c-0.028,-0.162 -0.026,-0.335 -0.085,-0.484c-0.038,-0.096 -0.161,-0.159 -0.284,-0.24c-0.046,-0.013 -0.055,-0.022 -0.064,-0.031Z" style="fill:#4ade80;fill-rule:nonzero;stroke:#22c55e;stroke-width:1px;"/></g></svg>