<?xml version="1.0" encoding="UTF-8" standalone="no"?><!DOCTYPE svg PUBLIC "-//W3C//DTD SVG 1.1//EN" "http://www.w3.org/Graphics/SVG/1.1/DTD/svg11.dtd"><svg width="100%" height="100%" viewBox="0 0 100 100" version="1.1" xmlns="http://www.w3.org/2000/svg" xmlns:xlink="http://www.w3.org/1999/xlink" xml:space="preserve" xmlns:serif="http://www.serif.com/" style="fill-rule:evenodd;clip-rule:evenodd;stroke-linejoin:round;stroke-miterlimit:2;"><rect id="_2_hokkaido_rishiritou" serif:id="2_hokkaido_rishiritou" x="0" y="0" width="100" height="100" style="fill:none;"/><g id="_2_hokkaido_rishiritou1" serif:id="2_hokkaido_rishiritou"><path d="M14.474,30.333c0,-0 0.023,-0.018 0.049,-0.033c0.088,-0.101 0.149,-0.188 0.205,-0.266c-0.351,-0.362 -0.351,-0.362 0.079,-0.723c0.126,0.024 0.237,0.046 0.348,0.067c-0.009,-0.219 0.245,-0.233 0.308,-0.395c0.067,-0.174 0.155,-0.35 -0.095,-0.466c-0.044,-0.02 -0.069,-0.095 -0.088,-0.149c-0.042,-0.121 -0.075,-0.246 -0.125,-0.414c0.015,-0.027 0.066,-0.124 0.124,-0.217c0.226,-0.364 0.383,-0.79 0.844,-0.944c0.221,-0.074 0.343,-0.218 0.418,-0.447c0.051,-0.155 0.176,-0.339 0.316,-0.401c0.511,-0.227 0.965,-0.573 1.541,-0.68c0.23,-0.043 0.598,0.028 0.656,-0.253c0.173,-0.045 0.378,-0.051 0.395,-0.111c0.077,-0.265 0.275,-0.324 0.495,-0.365c0.36,-0.066 0.72,-0.131 1.082,-0.182c0.132,-0.019 0.271,-0.01 0.403,0.012c0.109,0.018 0.213,0.106 0.318,0.105c0.536,-0.008 1.074,-0.017 1.608,-0.067c0.167,-0.016 0.321,-0.163 0.481,-0.25c0,0 0.002,0.008 0.023,0.007c0.223,-0.15 0.425,-0.298 0.617,-0.439c-0.218,-0.546 -0.206,-0.612 0.196,-0.979c0.153,-0.14 0.318,-0.269 0.477,-0.403c-0,-0 0.004,0.009 0.027,0.008c0.094,-0.003 0.164,-0.004 0.234,-0.006c0,0 -0.005,0.004 0.002,0.024c0.092,0.069 0.181,0.166 0.263,0.159c0.255,-0.02 0.583,-0.534 0.572,-0.815c-0.003,-0.077 0.084,-0.165 0.144,-0.237c0.103,-0.122 0.217,-0.235 0.327,-0.352c-0.103,-0.091 -0.19,-0.217 -0.31,-0.268c-0.4,-0.168 -0.467,-0.255 -0.416,-0.668c0.123,0.053 0.242,0.111 0.366,0.157c0.13,0.049 0.263,0.117 0.397,0.122c0.226,0.009 0.455,-0.018 0.68,-0.048c0.038,-0.005 0.084,-0.1 0.091,-0.157c0.012,-0.106 0.034,-0.24 -0.017,-0.317c-0.053,-0.08 -0.188,-0.105 -0.281,-0.152c0.158,-0.086 0.295,-0.161 0.416,-0.227c-0.007,-0.218 -0.36,-0.25 -0.224,-0.534c0.022,-0.046 -0.153,-0.189 0.037,-0.274c0.102,-0.046 0.193,-0.116 0.295,-0.161c0.109,-0.048 0.225,-0.077 0.337,-0.118c0.352,-0.126 0.616,-0.446 1.026,-0.456c0.076,-0.002 0.208,-0.116 0.214,-0.186c0.024,-0.285 0.25,-0.168 0.385,-0.209c0.107,-0.032 0.232,-0.006 0.273,-0.006c0.158,0.091 0.263,0.15 0.368,0.21c0,0 -0.001,0.005 -0.003,0.028c0.077,0.181 0.156,0.338 0.235,0.496c0,0 0.003,-0.008 -0.007,0.015c0.022,0.047 0.055,0.071 0.087,0.094c0,0 -0.006,0.006 -0.003,0.02c0.023,0.024 0.044,0.033 0.064,0.043c0,0 -0.008,0.004 -0.006,0.026c0.214,0.347 0.604,0.324 0.868,-0.029c0,0 0.001,0.008 0.022,0.006c0.026,-0.08 0.064,-0.188 0.028,-0.229c-0.11,-0.121 -0.25,-0.216 -0.448,-0.378c0.274,-0.117 0.451,-0.256 0.624,-0.251c0.345,0.011 0.426,-0.165 0.455,-0.447c-0.057,-0.03 -0.104,-0.049 -0.144,-0.078c-0.115,-0.084 -0.227,-0.172 -0.34,-0.259c0.107,-0.098 0.214,-0.196 0.322,-0.293c0.006,-0.006 0.028,-0.001 0.029,-0.005c0.026,-0.115 0.11,-0.288 0.064,-0.337c-0.226,-0.239 -0.041,-0.31 0.128,-0.405c0.143,-0.081 0.334,-0.135 0.412,-0.258c0.125,-0.198 0.232,-0.211 0.426,-0.123c0.296,0.135 0.685,-0.018 0.727,-0.308c0.05,-0.344 0.226,-0.339 0.474,-0.252c0.008,0.009 0.015,0.018 0.036,0.057c0.604,0.486 1.44,0.404 1.891,-0.145c0.064,-0.078 0.172,-0.118 0.216,-0.147c0.099,0.207 0.182,0.382 0.266,0.557c0,0 0.007,-0.01 -0.005,0.014c0.021,0.047 0.054,0.07 0.087,0.094c0,0 -0.006,0.004 -0.002,0.022c0.066,0.088 0.128,0.158 0.19,0.228c0,0 -0.008,0.005 -0.007,0.025c0.038,0.052 0.076,0.084 0.113,0.117c0,0 0.009,-0.004 -0.002,0.019c0.033,0.072 0.078,0.121 0.123,0.17c0,0 0.006,0.002 -0.001,0.023c0.086,0.126 0.179,0.23 0.272,0.334c0,0 -0.004,0.007 -0.001,0.021c0.023,0.023 0.044,0.032 0.064,0.041c0,0 -0.008,0.004 -0.002,0.022c0.04,0.032 0.075,0.046 0.11,0.06c0,0 0.003,-0.012 -0.004,0.016c0.044,0.048 0.095,0.069 0.145,0.089c0,0 -0.007,0.006 -0.003,0.02c0.031,0.034 0.058,0.054 0.085,0.073c0,0 0.008,0.006 0.017,0.027c0.057,0.036 0.104,0.051 0.152,0.065c0,0 -0.008,0.007 -0.003,0.023c0.039,0.032 0.072,0.048 0.106,0.063c0,0 0.011,-0.012 0.004,0.017c0.29,0.124 0.612,0.341 0.88,0.289c0.634,-0.124 1.196,0.01 1.764,0.235c0,0 -0.009,0.003 -0.007,0.022c0.045,0.068 0.089,0.117 0.133,0.165c0,0 -0.006,0.006 -0.003,0.02c0.023,0.024 0.044,0.033 0.064,0.042c0,0 -0.007,0.005 -0,0.024c0.427,0.238 0.854,0.445 1.265,0.68c0.326,0.187 0.672,0.204 0.927,-0.029c0.263,-0.24 0.504,-0.254 0.8,-0.164c0,0 0.001,-0.005 -0.01,0.017c-0.011,0.128 -0.011,0.234 -0.011,0.346c0.183,0.316 0.494,0.326 0.827,0.332c0.157,0.003 0.39,0.064 0.455,0.176c0.249,0.431 0.628,0.694 1.036,0.938c0.076,0.045 0.192,0.117 0.193,0.177c0.001,0.314 0.245,0.391 0.451,0.513c0.455,0.269 0.914,0.531 1.361,0.812c0.33,0.207 0.817,0.157 1.072,-0.135c0,0 0.004,0.009 0.024,0.007c0.23,-0.177 0.44,-0.353 0.625,-0.507c0.053,0.086 0.121,0.196 0.189,0.306c0.103,-0.092 0.198,-0.193 0.31,-0.272c0.118,-0.083 0.249,-0.149 0.379,-0.214c0.105,-0.052 0.217,-0.092 0.326,-0.136c0.092,-0.037 0.184,-0.073 0.276,-0.109c0,0 0.001,-0.005 -0.008,0.019c0.175,0.248 0.23,0.627 0.062,0.683c-0.341,0.113 -0.364,0.375 -0.377,0.643c-0.385,0.114 -0.892,-0.073 -1.042,0.498c0.016,-0.173 0.032,-0.345 0.048,-0.519c-0.317,-0.018 -0.664,-0.166 -0.666,0.321c-0.001,0.12 0.054,0.241 0.083,0.361c0.031,-0.007 0.063,-0.014 0.094,-0.021c-0.187,0.514 0.268,0.24 0.393,0.34c-0.008,0.102 -0.036,0.199 -0.018,0.286c0.093,0.439 0.038,0.851 -0.206,1.23c-0.066,0.103 -0.152,0.194 -0.229,0.29c-0,0 -0.006,-0.007 -0.024,-0.002c-0.046,0.066 -0.074,0.126 -0.102,0.187c0,0 -0.004,-0.006 -0.025,0.002c-0.15,0.181 -0.146,0.229 0.008,0.316c0,0 0.009,-0.006 -0.004,0.016c0.02,0.046 0.053,0.07 0.086,0.093c0,0 -0.008,0.004 -0.006,0.024c0.107,0.109 0.213,0.198 0.318,0.287c0,0 -0.006,0.007 -0.002,0.025c0.066,0.045 0.127,0.073 0.188,0.101c0,0 -0.007,0.006 -0.002,0.022c0.037,0.033 0.069,0.05 0.101,0.066c0,0 0.004,0 0.012,0.016c0.03,0.018 0.053,0.019 0.076,0.021c0,0 -0.007,0.002 0,0.023c0.088,0.048 0.169,0.075 0.249,0.102c0,0 -0.006,0.004 0.003,0.024c0.829,0.279 1.655,0.523 2.469,0.802c0.432,0.148 0.756,-0.135 1.13,-0.212c0.242,-0.05 0.477,-0.229 0.709,-0.217c0.484,0.024 0.962,0.159 1.447,0.205c0.574,0.055 1.172,0.17 1.724,0.067c0.842,-0.156 1.648,-0.504 2.517,-0.561c0.371,-0.024 0.747,-0.058 1.116,-0.025c0.211,0.019 0.411,0.165 0.616,0.254c0,0 0.007,0.002 0.019,0.019c0.157,0.08 0.301,0.143 0.445,0.205c0,0 -0.004,0.002 0.001,0.022c0.245,0.14 0.485,0.259 0.724,0.377c0,0 0.005,0.001 0.012,0.017c0.03,0.018 0.053,0.019 0.075,0.021c0,0 -0.007,0.002 -0,0.021c0.041,0.033 0.076,0.047 0.11,0.061c0,0 0.002,-0.012 -0.005,0.016c0.065,0.069 0.137,0.11 0.21,0.151c0,0 -0.006,0.006 -0.001,0.024c0.04,0.031 0.076,0.044 0.111,0.058c0,0 0.002,-0.01 -0.005,0.017c0.043,0.048 0.094,0.069 0.145,0.09c0,0 -0.006,0.006 -0,0.025c0.42,0.213 0.835,0.407 1.249,0.601c0,0 -0.005,0 0.001,0.02c0.046,0.027 0.085,0.035 0.125,0.042c0,-0 -0.006,0.004 0.002,0.024c0.277,0.126 0.538,0.258 0.816,0.329c0.257,0.066 0.538,0.099 0.734,-0.168c0,0 0.004,0.008 0.024,0.001c0.105,-0.173 0.176,-0.349 0.28,-0.504c0.4,-0.596 0.809,-1.185 1.217,-1.775c0.1,-0.144 0.201,-0.221 0.399,-0.11c0.244,0.136 0.517,0.22 0.801,0.335c-0.059,0.105 -0.095,0.17 -0.179,0.319c0.268,0 0.482,-0.011 0.694,0.004c0.156,0.01 0.308,0.059 0.464,0.081c0.294,0.043 0.588,0.081 0.882,0.116c0.071,0.009 0.144,0.001 0.216,0.001c-0.023,0.027 -0.045,0.053 -0.068,0.08c0.038,0.092 0.074,0.185 0.116,0.276c0.053,0.115 0.101,0.233 0.169,0.339c0.05,0.078 0.128,0.138 0.193,0.206c0,0 -0,0.005 -0.003,0.027c0.04,0.091 0.083,0.16 0.127,0.229c0,0 -0.008,0.003 -0.002,0.023c0.195,0.224 0.277,-0.008 0.398,-0.079c0.136,-0.08 0.27,-0.163 0.405,-0.245c0,0 0.002,-0.004 -0.007,0.021c0.209,0.129 0.428,0.232 0.646,0.335c0,0 -0.009,0.003 -0.003,0.026c0.064,0.086 0.181,0.192 0.17,0.207c-0.183,0.261 0.056,0.506 0.017,0.755c-0.013,0.083 -0.038,0.164 -0.067,0.243c-0.106,0.289 -0.216,0.576 -0.324,0.864c0,0 -0.026,0.017 -0.052,0.033c-0.04,0.055 -0.054,0.095 -0.068,0.134c0,0 0.005,0 -0.019,-0.009c-0.044,0.028 -0.066,0.066 -0.087,0.104c0.035,0.012 0.07,0.024 0.116,0.055c0.088,0.065 0.175,0.099 0.242,0.156c0.237,0.204 0.467,0.415 0.7,0.624c0,0 -0.011,0.008 -0.004,0.025c0.088,0.066 0.17,0.114 0.252,0.162c0,0 -0.008,0.006 -0.003,0.022c0.026,0.024 0.046,0.032 0.067,0.04c0,0 -0.009,0.009 -0.002,0.028c0.15,0.09 0.286,0.195 0.437,0.226c0.869,0.178 1.745,0.326 2.614,0.508c0.779,0.163 1.553,0.349 2.326,0.539c0.38,0.093 0.752,0.216 1.127,0.325c0,0 -0.005,0.006 -0.001,0.022c0.024,0.024 0.044,0.033 0.064,0.041c0,0 -0.004,0.007 -0.004,0.028c0.085,0.151 0.169,0.282 0.254,0.412c0,0 -0.005,0.007 -0.005,0.026c0.085,0.086 0.17,0.153 0.255,0.22c0,0 -0.007,0.006 -0.003,0.022c0.025,0.023 0.046,0.03 0.066,0.037c0,0 -0.004,0.007 -0.001,0.027c0.19,0.151 0.376,0.283 0.562,0.414c0,0 -0.009,0.005 -0.002,0.025c0.589,0.297 1.17,0.574 1.752,0.851c0,0 -0.008,0.009 -0.001,0.027c0.13,0.087 0.253,0.155 0.376,0.224c0,0 -0.008,0.006 -0.003,0.021c0.026,0.024 0.046,0.032 0.066,0.041c0,0 -0.003,0.008 -0.004,0.027c0.085,0.13 0.17,0.24 0.254,0.35c0,0 -0.008,0.008 -0.006,0.026c0.045,0.065 0.088,0.113 0.131,0.161c0,0 -0.008,0.009 -0.006,0.026c0.045,0.066 0.088,0.113 0.132,0.161c0,0 -0.009,0.008 -0.007,0.026c0.046,0.065 0.09,0.112 0.133,0.159c0,0 -0.012,0.009 -0.006,0.023c0.026,0.022 0.047,0.03 0.067,0.038c0,0 -0.004,0.007 -0.002,0.023c0.023,0.025 0.043,0.033 0.064,0.042c0,0 -0.008,0.008 -0.003,0.023c0.025,0.022 0.046,0.031 0.066,0.039c0,0 -0.008,0.01 -0.003,0.027c0.177,0.275 0.355,0.53 0.519,0.794c0.1,0.161 0.148,0.373 0.41,0.319c0,0 0.002,-0.003 -0.007,0.021c0.188,0.255 0.386,0.486 0.583,0.717c0,0 -0.005,0.011 -0.006,0.029c0.126,0.106 0.253,0.194 0.379,0.282c0,0 -0.009,0.006 -0.001,0.027c0.236,0.375 0.487,0.718 0.682,1.089c0.109,0.207 0.215,0.483 0.169,0.693c-0.153,0.697 0.105,1.184 0.652,1.57c0,0 -0.01,0.008 -0.005,0.022c0.025,0.023 0.046,0.032 0.066,0.041c0,0 -0.008,0.009 -0.003,0.023c0.025,0.022 0.046,0.03 0.066,0.038c0,0 -0.005,0.007 -0.002,0.023c0.024,0.024 0.044,0.032 0.064,0.041c0,0 -0.007,0.008 -0.003,0.022c0.025,0.023 0.045,0.032 0.065,0.041c0,0 -0.008,0.008 -0.003,0.022c0.025,0.023 0.045,0.032 0.065,0.04c0,0 -0.007,0.008 -0.003,0.022c0.025,0.022 0.045,0.031 0.066,0.04c0,0 -0.007,0.009 -0.003,0.023c0.025,0.023 0.045,0.031 0.066,0.039c0,0 -0.009,0.01 -0.002,0.027c0.088,0.065 0.17,0.113 0.251,0.161c0,0 -0.009,0.006 -0.001,0.026c0.646,0.282 1.284,0.545 1.904,0.8c-0.07,0.346 -0.143,0.7 -0.212,1.055c-0.083,0.425 0.169,0.96 0.498,1.059c0,0 -0.008,0.006 -0.003,0.021c0.026,0.024 0.046,0.032 0.066,0.04c0,0 -0.008,0.011 -0.002,0.027c0.129,0.106 0.253,0.195 0.377,0.285c0,0 -0.006,0.006 -0.002,0.022c0.024,0.025 0.044,0.033 0.065,0.041c0,0 -0.007,0.008 -0.002,0.023c0.024,0.023 0.045,0.032 0.065,0.041c0,0 -0.004,0.008 -0.004,0.028c0.276,0.586 0.576,1.141 0.818,1.721c0.117,0.281 0.216,0.544 0.501,0.689c0,0 -0.006,0.008 -0.005,0.027c0.044,0.066 0.088,0.113 0.131,0.161c0,0 -0.011,0.008 -0.006,0.023c0.026,0.022 0.046,0.031 0.067,0.039c0,0 -0.007,0.008 -0.003,0.023c0.024,0.023 0.045,0.031 0.066,0.039c0,0 -0.008,0.011 -0.003,0.028c0.354,0.339 0.56,0.689 0.315,1.182c-0.056,0.112 0.004,0.283 0.018,0.427c0.051,0.517 0.167,1.037 0.142,1.55c-0.022,0.441 0.016,0.846 0.202,1.235c0.346,0.723 0.887,1.342 1.102,2.142c0.083,0.308 0.186,0.577 0.183,0.921c-0.006,0.57 0.15,1.142 0.249,1.711c0.036,0.207 0.181,0.423 0.146,0.611c-0.096,0.505 -0.01,0.963 0.18,1.424c0.052,0.126 0.089,0.356 0.022,0.416c-0.381,0.344 -0.276,0.835 -0.421,1.246c-0.008,0.022 0.076,0.076 0.118,0.115c0,0 -0.004,0.006 -0.005,0.031c0.02,0.175 0.054,0.324 0.057,0.474c0.008,0.352 -0.032,0.708 0.009,1.055c0.056,0.466 0.252,0.882 0.625,1.194c0,0 -0.007,0.008 -0.005,0.028c0.191,0.186 0.223,0.385 0.131,0.612c0,0 -0.008,-0.006 -0.022,-0.002c-0.022,0.025 -0.03,0.046 -0.037,0.066c0,0 -0.006,-0.003 -0.022,-0.001c-0.024,0.023 -0.032,0.043 -0.04,0.064c0,0 -0.006,-0.004 -0.022,-0.002c-0.025,0.023 -0.034,0.043 -0.043,0.063c0,0 -0.008,-0.007 -0.028,-0.004c-0.969,0.397 -1.92,0.786 -2.863,1.191c-0.157,0.067 -0.282,0.208 -0.422,0.315c0,0 -0.01,-0.005 -0.027,-0.005c-0.086,0.064 -0.155,0.128 -0.224,0.192c0,0 -0.007,-0.006 -0.026,-0.005c-0.387,0.288 -0.756,0.575 -1.124,0.865c-0.021,0.016 -0.026,0.052 -0.039,0.078c0,0 -0.007,-0.008 -0.027,-0.006c-0.171,0.108 -0.322,0.213 -0.473,0.319c0,0 -0.008,-0.009 -0.027,-0.006c-0.112,0.083 -0.205,0.163 -0.298,0.243c0,0 0.004,0.005 -0.019,-0.005c-0.03,0.016 -0.036,0.042 -0.043,0.067c-0,0 0.006,0.001 -0.019,-0.009c-0.068,0.063 -0.111,0.136 -0.154,0.209c0,0 -0.008,-0.007 -0.026,-0.001c-0.129,0.151 -0.24,0.295 -0.35,0.44c0,0 -0.009,-0.006 -0.028,-0.005c-0.215,0.123 -0.411,0.246 -0.63,0.371c-0.423,0.22 -0.823,0.437 -1.221,0.659c-0.029,0.016 -0.04,0.066 -0.06,0.1c0,0 -0.008,-0.007 -0.029,-0.005c-0.263,0.098 -0.515,0.177 -0.747,0.295c-0.232,0.118 -0.446,0.273 -0.663,0.42c-0.031,0.021 -0.059,0.11 -0.044,0.126c0.034,0.036 0.094,0.059 0.146,0.063c0.056,0.005 0.114,-0.018 0.187,-0.032c-0.18,0.301 -0.18,0.301 0.026,0.364c0,0 -0.005,0.004 -0.002,0.024c0.095,0.098 0.186,0.176 0.286,0.262c-0.157,0.266 -0.313,0.099 -0.485,0.012c-0.105,-0.054 -0.318,-0.109 -0.342,-0.072c-0.085,0.131 -0.11,0.301 -0.145,0.412c-0.15,0.032 -0.293,0.063 -0.437,0.094c0.041,0.069 0.081,0.138 0.122,0.208c0,0 -0.005,0.01 -0.002,0.024c0.023,0.021 0.044,0.03 0.064,0.038c0,-0 -0.004,0.008 -0.004,0.028c0.077,0.245 0.163,0.435 0.447,0.495c0.24,0.051 0.296,0.245 0.177,0.476c-0.091,0.176 -0.164,0.361 -0.225,0.495c-0.196,0.092 -0.409,0.136 -0.538,0.264c-0.324,0.321 -0.632,0.631 -1.128,0.504c-0.094,0.114 -0.216,0.174 -0.321,0.256c-0.105,0.081 -0.267,0.179 -0.272,0.278c-0.011,0.195 -0.113,0.255 -0.249,0.345c-0.264,0.175 -0.508,0.378 -0.76,0.57c0,0 -0.006,-0.004 -0.027,-0.004c-0.117,0.054 -0.212,0.108 -0.307,0.162c-0.287,0.16 -0.576,0.236 -0.875,0.029c0,0 0.01,-0.008 0.002,-0.028c-0.321,-0.237 -1.029,-0.23 -1.196,0.059c-0.113,0.195 -0.206,0.067 -0.304,0.094c0,0 0.008,-0.008 -0,-0.027c-0.123,-0.021 -0.274,-0.07 -0.347,-0.015c-0.37,0.277 -0.754,0.55 -1.065,0.887c-0.193,0.209 -0.272,0.528 -0.38,0.806c-0.017,0.043 0.08,0.13 0.124,0.197c0,0 0.004,0.003 0,0.027c0.045,0.07 0.102,0.109 0.14,0.162c0.116,0.159 0.354,0.385 0.311,0.475c-0.101,0.213 -0.332,0.367 -0.518,0.537c-0.12,0.11 -0.282,0.187 -0.372,0.316c-0.162,0.234 -0.296,0.478 -0.574,0.605c-0.122,0.056 -0.224,0.158 -0.374,0.268c-0.027,-0.019 -0.094,-0.059 -0.152,-0.11c-0.314,-0.274 -0.839,-0.107 -0.968,0.308c0,0 -0.005,-0.008 -0.021,-0.003c-0.024,0.026 -0.032,0.046 -0.04,0.066c-0,0 -0.009,-0.009 -0.028,-0.001c-0.083,0.11 -0.164,0.206 -0.208,0.316c-0.115,0.286 -0.016,0.527 0.233,0.605c0,0 -0.007,0.007 -0.002,0.022c0.025,0.024 0.045,0.032 0.065,0.041c0,0 -0.007,0.009 -0.002,0.023c0.025,0.022 0.045,0.031 0.065,0.039c0,0 -0.01,0.007 -0.001,0.027c0.045,0.069 0.115,0.121 0.112,0.167c-0.014,0.19 0.015,0.353 0.092,0.539c0.104,0.252 -0.103,0.503 -0.39,0.601c-0.094,0.032 -0.201,0.084 -0.255,0.161c-0.22,0.311 -0.523,0.419 -0.886,0.405c0,0 0,-0.004 -0.007,-0.027c-0.283,-0.145 -0.655,-0.11 -0.763,0.092c-0.17,0.318 -0.484,0.413 -0.766,0.555c-0.165,0.083 -0.334,-0.16 -0.522,-0.046c-0.019,-0.035 -0.05,-0.067 -0.055,-0.104c-0.04,-0.309 -0.26,-0.398 -0.552,-0.224c-0.091,-0.208 0.155,-0.676 -0.409,-0.521c-0.008,0.002 -0.026,-0.052 -0.047,-0.068c-0.127,-0.097 -0.256,-0.191 -0.384,-0.286c0,0 0.004,-0.009 0.004,-0.029c-0.094,-0.317 -0.332,-0.399 -0.595,-0.348c-0.305,0.059 -0.609,0.152 -0.892,0.279c-0.117,0.052 -0.284,0.173 -0.129,0.403c0.049,0.073 -0.079,0.386 -0.18,0.418c-0.445,0.14 -0.898,0.141 -1.372,0.04c-0.364,-0.078 -0.764,-0.026 -1.143,0.015c-0.369,0.041 -0.733,0.138 -1.097,0.218c-0.304,0.066 -0.615,0.115 -0.906,0.221c-0.653,0.238 -1.243,0.647 -1.995,0.596c-0.348,-0.024 -0.716,0.048 -1.055,0.146c-0.695,0.201 -1.377,0.449 -2.064,0.678c-0.353,0.118 -0.7,0.254 -1.059,0.352c-0.235,0.064 -0.389,0.12 -0.13,0.38c-0.252,0.076 -0.524,0.088 -0.526,0.414c-0,0.009 -0.038,0.015 -0.052,0.028c-0.12,0.116 -0.443,0.033 -0.355,0.359c0.002,0.006 -0.081,0.056 -0.105,0.045c-0.209,-0.096 -0.19,0.094 -0.212,0.183c-0.078,0.31 -0.23,0.407 -0.554,0.355c-0.077,-0.012 -0.22,0.022 -0.24,0.072c-0.103,0.253 -0.307,0.151 -0.479,0.162c-0.063,0.004 -0.139,-0.032 -0.19,-0.008c-0.251,0.114 -0.489,0.257 -0.744,0.36c-0.149,0.06 -0.343,0.128 -0.477,0.08c-0.28,-0.1 -0.438,0.019 -0.616,0.195c-0.348,0.346 -0.89,0.34 -1.296,0.031c-0.157,-0.12 -0.35,-0.22 -0.541,-0.263c-0.257,-0.057 -0.529,-0.054 -0.795,-0.069c-0.084,-0.005 -0.232,0.046 -0.246,0.018c-0.197,-0.397 -0.626,-0.309 -0.941,-0.444c-0.214,-0.092 -0.483,-0.069 -0.728,-0.074c-0.362,-0.009 -0.607,-0.163 -0.7,-0.43c0.155,-0.225 0.304,-0.418 0.42,-0.628c0.027,-0.05 -0.057,-0.161 -0.089,-0.244c0,0 -0.001,-0.003 -0.001,-0.026c-0.371,-0.423 -0.47,-0.929 -0.235,-1.255c-0.207,-0.321 -0.564,-0.323 -0.88,-0.395c-0.56,-0.128 -1.11,-0.328 -1.708,-0.164c-0.193,0.053 -0.427,-0.013 -0.636,-0.053c-0.157,-0.03 -0.303,-0.134 -0.46,-0.15c-0.258,-0.027 -0.42,-0.098 -0.408,-0.401c0.003,-0.082 -0.11,-0.169 -0.169,-0.253c0,0 0.009,-0.01 0.003,-0.027c-0.275,-0.169 -0.544,-0.321 -0.813,-0.474c0,0 0.007,-0.009 0.001,-0.027c-0.067,-0.044 -0.128,-0.071 -0.188,-0.099c0,0 0.008,-0.008 0.001,-0.026c-0.089,-0.065 -0.17,-0.112 -0.252,-0.16c0,0 0.009,-0.007 0.002,-0.026c-0.087,-0.124 -0.151,-0.252 -0.254,-0.327c-0.108,-0.079 -0.25,-0.121 -0.383,-0.152c-0.137,-0.032 -0.285,-0.014 -0.421,-0.047c-0.166,-0.04 -0.327,-0.105 -0.486,-0.169c-0.116,-0.047 -0.312,-0.005 -0.28,-0.242c0.003,-0.026 -0.13,-0.102 -0.198,-0.1c-0.238,0.007 -0.475,0.039 -0.72,0.062c0.064,-0.111 0.127,-0.222 0.2,-0.35c-0.38,-0.141 -0.73,-0.313 -1.1,-0.391c-0.226,-0.047 -0.544,-0.289 -0.72,0.115c0,0 -0.007,-0.003 -0.03,-0.005c-0.232,-0.073 -0.452,-0.126 -0.645,-0.228c-0.052,-0.027 -0.015,-0.206 -0.039,-0.311c-0.008,-0.034 -0.077,-0.055 -0.119,-0.082c0,0 0.01,-0.009 0.003,-0.026c-0.186,-0.19 -0.395,-0.229 -0.639,-0.195c-0.268,0.038 -0.41,-0.152 -0.387,-0.423c0.011,-0.128 -0.013,-0.304 -0.095,-0.386c-0.15,-0.151 -0.358,-0.242 -0.533,-0.37c-0.062,-0.045 -0.145,-0.129 -0.14,-0.189c0.024,-0.323 -0.228,-0.339 -0.429,-0.418c-0.051,-0.02 -0.097,-0.05 -0.145,-0.076c-0.191,-0.1 -0.396,-0.181 -0.569,-0.306c-0.249,-0.179 -0.583,-0.237 -0.697,-0.612c-0.074,-0.243 -0.061,-0.632 -0.492,-0.624c0,0 0.006,-0.008 0,-0.026c-0.132,-0.134 -0.26,-0.249 -0.387,-0.365c-0.004,-0.013 -0.011,-0.024 -0.036,-0.055c-0.035,-0.034 -0.056,-0.045 -0.078,-0.055c0,0 0.001,-0.007 0.002,-0.027c-0.083,-0.088 -0.168,-0.155 -0.253,-0.223c0,0 0.007,-0.006 0.003,-0.022c-0.025,-0.024 -0.045,-0.032 -0.066,-0.04c0,0 0.009,-0.008 0.002,-0.028c-0.182,-0.09 -0.351,-0.186 -0.533,-0.224c-0.278,-0.058 -0.567,-0.062 -0.846,-0.116c-0.387,-0.075 -0.765,-0.199 -1.153,-0.262c-0.82,-0.132 -1.644,-0.236 -2.416,-0.569c-0.509,-0.219 -1.025,-0.421 -1.528,-0.652c-0.392,-0.18 -0.77,-0.392 -1.154,-0.59c0,0 0.008,-0.006 0.003,-0.022c-0.025,-0.024 -0.046,-0.032 -0.066,-0.04c0,0 0.009,-0.01 0.002,-0.028c-0.546,-0.295 -1.086,-0.572 -1.626,-0.849c0,0 0.007,-0.009 0,-0.027c-0.255,-0.17 -0.503,-0.322 -0.751,-0.474c0,0 0.007,-0.007 0,-0.025c-0.13,-0.107 -0.254,-0.196 -0.377,-0.285c0,0 0.01,-0.006 0.003,-0.026c-0.089,-0.067 -0.171,-0.114 -0.253,-0.161c0,0 0.008,-0.007 0.003,-0.026c-0.212,-0.172 -0.419,-0.324 -0.627,-0.477c0,0 0.007,-0.006 0.003,-0.022c-0.025,-0.024 -0.045,-0.032 -0.066,-0.04c0,0 0.006,-0.008 0.002,-0.023c-0.024,-0.023 -0.045,-0.031 -0.065,-0.039c0,0 0.008,-0.011 0.002,-0.028c-0.108,-0.086 -0.211,-0.154 -0.314,-0.223c0,0 0.009,-0.006 0.003,-0.026c-0.318,-0.213 -0.629,-0.406 -0.941,-0.599c0,0 0.005,-0.006 0.002,-0.022c-0.024,-0.024 -0.045,-0.032 -0.065,-0.04c0,0 0.002,-0.005 0,-0.022c-0.022,-0.025 -0.042,-0.034 -0.062,-0.043c0,0 0.004,-0.006 0.004,-0.028c-0.194,-0.424 -0.412,-0.819 -0.312,-1.295c0.011,-0.05 -0.027,-0.117 -0.056,-0.168c-0.165,-0.298 -0.333,-0.593 -0.512,-0.911c0.08,-0.079 0.307,-0.194 0.001,-0.351c0,0 0.004,-0.009 0.004,-0.029c-0.085,-0.108 -0.17,-0.196 -0.255,-0.284c0,0 0.005,-0.01 0.005,-0.028c-0.127,-0.169 -0.253,-0.32 -0.38,-0.471c0,0 0.005,-0.01 0.005,-0.028c-0.06,-0.112 -0.12,-0.206 -0.181,-0.321c-0.067,-0.087 -0.133,-0.152 -0.199,-0.217c-0,0 0.007,-0.004 0.003,-0.023c-0.323,-0.178 -0.633,-0.357 -0.961,-0.492c-0.491,-0.203 -0.997,-0.368 -1.49,-0.564c-0.192,-0.077 -0.367,-0.196 -0.55,-0.296c0,0 0.006,-0.006 0,-0.024c-0.26,-0.166 -0.39,-0.541 -0.687,-0.448c-0.13,-0.158 -0.217,-0.281 -0.322,-0.386c-0.15,-0.15 -0.327,-0.275 -0.467,-0.434c-0.071,-0.081 -0.127,-0.216 -0.117,-0.321c0.037,-0.418 0.133,-0.833 0.144,-1.251c0.005,-0.18 -0.122,-0.38 -0.234,-0.54c-0.101,-0.144 -0.245,-0.037 -0.377,0.009c-0.041,0.014 -0.175,-0.101 -0.17,-0.113c0.168,-0.368 -0.158,-0.282 -0.267,-0.321c-0.114,-0.241 -0.171,-0.475 -0.313,-0.632c-0.172,-0.189 -0.706,-0.145 -0.94,0.013c-0.043,0.029 -0.108,0.053 -0.156,0.044c-0.28,-0.051 -0.571,-0.081 -0.834,-0.18c-0.247,-0.093 -0.478,-0.246 -0.692,-0.405c-0.206,-0.153 -0.362,-0.375 -0.574,-0.517c-0.218,-0.146 -0.243,-0.332 -0.04,-0.513c0.065,-0.058 0.113,-0.252 0.077,-0.285c-0.104,-0.097 -0.256,-0.203 -0.387,-0.2c-0.308,0.007 -0.401,-0.134 -0.408,-0.409c-0.003,-0.133 -0.015,-0.36 -0.077,-0.38c-0.309,-0.101 -0.36,-0.386 -0.49,-0.607c-0.242,-0.41 -0.171,-0.935 -0.511,-1.336c-0.095,-0.112 -0.2,-0.489 0.019,-0.727c0,0 0.002,0.007 0.024,0.002c0.07,-0.159 0.117,-0.312 0.179,-0.516c0.238,0.004 0.182,-0.245 0.173,-0.441c-0.004,-0.09 -0.063,-0.213 -0.135,-0.259c-0.174,-0.109 -0.402,-0.158 -0.244,-0.448c0.016,-0.029 -0.059,-0.122 -0.109,-0.169c-0.121,-0.114 -0.251,-0.218 -0.374,-0.323c0.121,-0.402 0.05,-0.503 -0.372,-0.591c-0.081,-0.017 -0.148,-0.099 -0.207,-0.141c0.125,-0.119 0.209,-0.182 0.272,-0.262c0.174,-0.224 0.353,-0.416 0.652,-0.495c0.179,-0.047 0.453,-0.053 0.454,-0.358c0,0 0.009,0.01 0.028,0.008c0.091,-0.083 0.164,-0.164 0.237,-0.245c0,0 -0.004,-0.003 0.02,0.007c0.191,-0.135 0.37,-0.307 0.268,-0.536c-0.273,-0.611 -0.671,-1.096 -1.469,-0.854c-0.28,0.085 -0.556,0.142 -0.844,0.006c-0.182,-0.086 -0.383,-0.129 -0.57,-0.203c-0.191,-0.075 -0.46,-0.012 -0.535,-0.312c-0.014,-0.054 -0.156,-0.109 -0.238,-0.107c-0.328,0.008 -0.655,0.037 -0.982,0.059c-0.577,0.038 -0.889,-0.395 -1.318,-0.677c0.18,-0.107 0.385,-0.158 0.421,-0.266c0.094,-0.286 0.288,-0.34 0.525,-0.322c0.042,-0.277 0.079,-0.528 0.119,-0.797c0.097,0.006 0.183,0.012 0.285,0.019c0,0.127 -0.028,0.242 0.008,0.331c0.04,0.099 0.126,0.227 0.215,0.25c0.169,0.043 0.358,0.043 0.532,0.017c0.392,-0.058 0.725,0.076 1.037,0.28c0.072,0.047 0.102,0.158 0.182,0.291c0.513,0.147 0.909,-0.03 1.033,-0.515c0,0 -0.004,0 0.001,0.024c0.092,0.035 0.191,0.079 0.263,0.051c0.168,-0.066 0.328,-0.156 0.48,-0.254c0.473,-0.304 1.076,-0.342 1.488,-0.8c0.184,-0.205 0.307,-0.318 0.123,-0.56c-0.028,-0.037 -0.04,-0.094 -0.042,-0.142c-0.005,-0.17 -0.002,-0.341 -0.002,-0.577c0.108,-0.128 0.31,-0.306 0.423,-0.528c0.068,-0.132 0.058,-0.38 -0.026,-0.498c-0.158,-0.223 -0.402,-0.369 -0.7,-0.401c-0.145,-0.015 -0.284,-0.085 -0.4,-0.121c0.153,-0.066 0.307,-0.132 0.461,-0.198c0.001,-0.053 0.002,-0.106 0.003,-0.158c-0.341,0.221 -0.454,0.031 -0.583,-0.196c-0.109,-0.191 -0.273,-0.35 -0.46,-0.581c-0.044,0.174 -0.071,0.277 -0.118,0.463c-0.177,-0.144 -0.438,-0.256 -0.451,-0.39c-0.027,-0.297 -0.234,-0.36 -0.415,-0.475c-0.106,-0.067 -0.225,-0.113 -0.338,-0.168c0.006,-0.023 0.012,-0.046 0.017,-0.069c0.272,0.012 0.543,0.025 0.823,0.038c-0.023,-0.052 -0.052,-0.119 -0.082,-0.187c0.102,-0.014 0.189,-0.026 0.285,-0.039c-0.299,-0.502 -0.27,-0.639 0.186,-0.932c-0.011,-0.035 -0.041,-0.078 -0.032,-0.109c0.057,-0.205 0.112,-0.578 0.188,-0.583c0.455,-0.03 0.297,-0.386 0.257,-0.537c-0.062,-0.235 -0.261,-0.436 -0.414,-0.642c-0.028,-0.038 -0.121,-0.058 -0.171,-0.043c-0.278,0.083 -0.525,0.039 -0.811,-0.04c-0.309,-0.086 -0.272,-0.196 -0.239,-0.428c0.028,-0.193 -0.429,-0.108 -0.305,-0.423c0.018,-0.046 0.036,-0.119 0.013,-0.148c-0.053,-0.068 -0.13,-0.118 -0.181,-0.161c-0.078,-0.146 -0.122,-0.365 -0.232,-0.406c-0.245,-0.092 -0.288,-0.216 -0.276,-0.457c0.014,-0.282 -0.041,-0.569 -0.362,-0.696c0,0 -0.003,0.003 0.007,-0.022c-0.111,-0.31 -0.266,-0.602 0.177,-0.762c0.026,-0.009 0.035,-0.066 0.052,-0.1c0,0 0.013,0.005 0.031,0.006c0.185,-0.324 0.465,-0.406 0.803,-0.371c0.082,0.008 0.187,0.029 0.244,-0.009c0.097,-0.065 0.24,-0.181 0.231,-0.262c-0.034,-0.321 0.09,-0.523 0.366,-0.661c0.058,-0.029 0.119,-0.079 0.15,-0.135c0.112,-0.204 0.211,-0.415 0.306,-0.606c0.195,0.037 0.368,0.07 0.589,0.112c-0.141,-0.215 -0.255,-0.344 -0.315,-0.494c-0.057,-0.141 -0.056,-0.306 -0.086,-0.493c0.15,-0.244 0.442,-0.213 0.73,-0.206c0.178,0.004 0.832,-0.704 0.766,-0.856c-0.158,-0.366 0.141,-0.368 0.316,-0.383c0.759,-0.063 1.521,-0.079 2.28,-0.141c0.361,-0.03 0.73,-0.087 1.07,-0.205c0.226,-0.078 0.407,-0.283 0.609,-0.432Z" style="fill:#4ade80;fill-rule:nonzero;stroke:#22c55e;stroke-width:1px;"/></g></svg>