<?xml version="1.0" encoding="UTF-8" standalone="no"?><!DOCTYPE svg PUBLIC "-//W3C//DTD SVG 1.1//EN" "http://www.w3.org/Graphics/SVG/1.1/DTD/svg11.dtd"><svg width="100%" height="100%" viewBox="0 0 100 100" version="1.1" xmlns="http://www.w3.org/2000/svg" xmlns:xlink="http://www.w3.org/1999/xlink" xml:space="preserve" xmlns:serif="http://www.serif.com/" style="fill-rule:evenodd;clip-rule:evenodd;stroke-linejoin:round;stroke-miterlimit:2;"><rect id="_30_tokyo_hahajima" serif:id="30_tokyo_hahajima" x="0" y="0" width="100" height="100" style="fill:none;"/><g id="_30_tokyo_hahajima1" serif:id="30_tokyo_hahajima"><path d="M66.546,88.738c0.034,-0.207 0.088,-0.413 0.096,-0.62c0.013,-0.337 0.04,-0.363 0.373,-0.248c0.058,0.02 0.123,0.022 0.199,0.035c0.014,-0.059 0.045,-0.112 0.03,-0.137c-0.291,-0.474 -0.065,-0.941 0.004,-1.414c0.033,-0.232 0.054,-0.479 0.009,-0.705c-0.059,-0.29 -0.227,-0.338 -0.472,-0.174c-0.224,0.151 -0.438,0.222 -0.716,-0.023c0.412,-0.198 0.8,-0.416 0.64,-0.939c-0.06,-0.195 -0.699,-0.502 -0.906,-0.449c-0.083,0.021 -0.142,0.138 -0.223,0.224c-0.175,-0.08 -0.391,-0.183 -0.61,-0.279c-0.409,-0.179 -0.439,-0.424 -0.132,-0.722c0.182,-0.176 0.308,-0.226 0.574,-0.15c0.242,0.069 0.54,-0.022 0.802,-0.089c0.063,-0.016 0.145,-0.265 0.104,-0.322c-0.127,-0.172 -0.31,-0.302 -0.485,-0.46c0.17,-0.034 0.363,-0.061 0.549,-0.117c0.076,-0.023 0.133,-0.107 0.199,-0.163c-0.065,-0.05 -0.122,-0.123 -0.195,-0.147c-0.205,-0.069 -0.423,-0.101 -0.624,-0.179c-0.197,-0.076 -0.357,-0.119 -0.549,0.041c-0.053,0.045 -0.257,-0.068 -0.378,-0.134c-0.117,-0.063 -0.217,-0.158 -0.322,-0.238c0,-0.179 0.083,-0.463 -0.022,-0.586c-0.115,-0.134 -0.404,-0.119 -0.67,-0.182c0,-0.329 0.001,-0.696 -0.001,-1.062c-0,-0.055 0.006,-0.14 -0.024,-0.159c-0.332,-0.205 -0.291,-0.507 -0.25,-0.827c0.028,-0.224 -0.112,-0.316 -0.332,-0.286c-0.065,0.009 -0.132,0.009 -0.197,0.02c-0.476,0.08 -0.478,0.052 -0.384,-0.398c0.037,-0.175 -0.084,-0.393 -0.164,-0.578c-0.057,-0.13 -0.204,-0.226 -0.245,-0.357c-0.134,-0.435 -0.343,-0.819 -0.681,-1.124c-0.069,-0.062 -0.179,-0.076 -0.261,-0.127c-0.077,-0.048 -0.197,-0.112 -0.202,-0.176c-0.028,-0.387 -0.358,-0.543 -0.611,-0.62c-0.246,-0.075 -0.573,0.037 -0.842,0.132c-0.253,0.089 -0.481,0.254 -0.708,0.404c-0.086,0.057 -0.153,0.158 -0.199,0.253c-0.142,0.292 -0.278,0.32 -0.456,0.044c-0.123,-0.191 -0.256,-0.233 -0.468,-0.195c-0.349,0.063 -0.716,0.056 -1.05,0.161c-0.172,0.054 -0.29,0.285 -0.428,0.44c-0.071,0.08 -0.128,0.173 -0.202,0.251c-0.152,0.16 -0.301,0.325 -0.468,0.468c-0.164,0.14 -0.349,0.207 -0.551,0.045c-0.061,-0.049 -0.181,-0.118 -0.213,-0.095c-0.492,0.359 -0.765,-0.122 -1.082,-0.31c-0.22,-0.13 -0.369,-0.401 -0.51,-0.633c-0.095,-0.155 -0.275,-0.356 0.023,-0.525c0.026,-0.015 -0.015,-0.197 -0.062,-0.28c-0.071,-0.127 -0.175,-0.235 -0.272,-0.36c0.517,-0.223 0.372,-0.64 0.113,-1.007c0.203,-0.207 0.139,-0.419 -0.014,-0.636c-0.269,-0.382 -0.267,-0.846 -0.234,-1.262c0.021,-0.266 0.314,-0.511 0.497,-0.784c-0.253,-0.307 -0.408,-1.313 -0.025,-1.789c0.202,-0.251 0.155,-0.487 -0.095,-0.696c-0.293,-0.246 -0.645,-0.277 -0.999,-0.223c-0.07,0.011 -0.186,0.208 -0.161,0.272c0.189,0.481 -0.023,0.796 -0.419,1.072c-0.248,-0.158 -0.514,-0.326 -0.802,-0.509c-0.41,0.441 -0.93,0.758 -1.096,1.407c-0.12,0.469 -0.354,0.913 -0.569,1.352c-0.044,0.089 -0.237,0.162 -0.35,0.149c-0.29,-0.035 -0.573,-0.131 -0.862,-0.184c-0.117,-0.022 -0.252,-0.025 -0.361,0.014c-0.33,0.117 -0.507,0.033 -0.549,-0.307c-0.034,-0.273 -0.009,-0.56 -0.085,-0.82c-0.101,-0.345 -0.28,-0.666 -0.412,-1.002c-0.051,-0.128 -0.064,-0.271 -0.098,-0.406c-0.036,-0.142 -0.081,-0.281 -0.116,-0.423c-0.057,-0.235 -0.118,-0.471 -0.159,-0.709c-0.031,-0.18 0.011,-0.386 -0.062,-0.541c-0.134,-0.285 -0.084,-0.496 0.122,-0.711c0.259,-0.27 0.214,-0.495 -0.081,-0.736c-0.228,-0.186 -0.43,-0.407 -0.629,-0.626c-0.048,-0.053 -0.049,-0.156 -0.058,-0.238c-0.031,-0.271 -0.034,-0.548 -0.096,-0.812c-0.024,-0.101 -0.163,-0.193 -0.27,-0.254c-0.45,-0.255 -0.48,-0.545 -0.06,-0.842c0.198,-0.14 0.417,-0.252 0.635,-0.361c0.235,-0.117 0.335,-0.554 0.164,-0.777c-0.125,-0.163 -0.257,-0.322 -0.382,-0.486c-0.248,-0.326 -0.555,-0.433 -0.972,-0.375c-0.233,0.033 -0.494,-0.079 -0.733,-0.154c-0.297,-0.093 -0.584,-0.216 -0.889,-0.332c0.077,-0.556 -0.192,-0.88 -0.757,-0.774c0.023,-0.197 0.103,-0.395 0.054,-0.554c-0.095,-0.309 -0.018,-0.551 0.111,-0.826c0.104,-0.221 -0.037,-0.427 -0.233,-0.565c-0.165,-0.116 -0.311,-0.1 -0.476,0.036c-0.236,0.195 -0.415,0.086 -0.608,-0.354c0.117,-0.064 0.235,-0.13 0.415,-0.229c-0.147,-0.094 -0.239,-0.158 -0.335,-0.214c-0.197,-0.115 -0.397,-0.223 -0.592,-0.341c-0.041,-0.025 -0.099,-0.091 -0.09,-0.118c0.067,-0.205 0.122,-0.424 0.241,-0.597c0.039,-0.056 0.275,-0.026 0.389,0.029c0.223,0.108 0.448,0.235 0.626,0.403c0.2,0.188 0.361,0.169 0.49,-0.029c0.125,-0.19 0.229,-0.404 0.289,-0.623c0.079,-0.289 -0.271,-0.714 -0.599,-0.778c-0.417,-0.081 -0.794,-0.236 -1.082,-0.608c0.142,-0.178 0.274,-0.364 0.426,-0.531c0.162,-0.178 0.123,-0.35 -0.006,-0.504c-0.129,-0.154 -0.277,-0.274 -0.516,-0.161c-0.101,0.048 -0.258,0.039 -0.367,-0.002c-0.211,-0.079 -0.513,0.032 -0.718,0.271c-0.067,0.078 -0.207,0.156 -0.292,0.137c-0.078,-0.018 -0.163,-0.16 -0.179,-0.258c-0.019,-0.121 0.034,-0.253 0.048,-0.381c0.031,-0.276 0.074,-0.552 0.078,-0.828c0.002,-0.191 0.041,-0.301 0.251,-0.271c0.14,0.02 0.278,0.065 0.418,0.073c0.204,0.011 0.489,0.105 0.402,-0.293c-0.002,-0.01 -0.006,-0.025 -0.001,-0.031c0.347,-0.415 0.259,-1.128 0.932,-1.334c0.109,-0.033 0.194,-0.257 0.227,-0.407c0.078,-0.345 0.209,-0.616 0.542,-0.803c0.5,-0.28 0.729,-0.733 0.889,-1.299c0.144,-0.506 0.186,-0.989 0.125,-1.483c-0.029,-0.236 0.147,-0.598 -0.3,-0.697c0.233,-0.499 0.003,-0.864 -0.356,-1.159c-0.383,-0.313 -0.748,-0.624 -1.272,-0.765c-0.313,-0.085 -0.611,-0.259 -0.933,-0.169c-0.171,0.048 -0.33,0.224 -0.433,0.383c-0.04,0.061 0.093,0.233 0.184,0.439c-0.349,0.135 -0.725,0.29 -1.11,0.418c-0.059,0.02 -0.155,-0.085 -0.238,-0.122c-0.065,-0.028 -0.136,-0.04 -0.205,-0.059c-0.013,0.068 -0.012,0.145 -0.043,0.202c-0.063,0.114 -0.144,0.217 -0.218,0.325c-0.06,-0.071 -0.115,-0.147 -0.181,-0.211c-0.092,-0.089 -0.213,-0.254 -0.285,-0.236c-0.236,0.058 -0.551,0.018 -0.636,0.364c-0.016,0.064 -0.094,0.157 -0.146,0.159c-0.316,0.01 -0.841,-0.573 -0.803,-0.887c0.009,-0.077 0.052,-0.195 0.107,-0.213c0.223,-0.073 0.142,-0.214 0.132,-0.368c-0.012,-0.198 -0.022,-0.423 0.059,-0.594c0.157,-0.334 0.491,-0.354 0.755,-0.095c0.072,0.071 0.16,0.145 0.253,0.171c0.116,0.032 0.246,0.014 0.37,0.018c-0.028,-0.115 -0.066,-0.229 -0.081,-0.345c-0.018,-0.144 -0.002,-0.294 -0.03,-0.436c-0.02,-0.106 -0.086,-0.203 -0.148,-0.339c0.158,-0.066 0.353,-0.134 0.533,-0.23c0.058,-0.031 0.076,-0.136 0.116,-0.242c0.012,-0.044 0.021,-0.053 0.03,-0.063c0.306,0.069 0.517,-0.081 0.477,-0.415c-0.03,-0.247 -0.168,-0.484 -0.28,-0.716c-0.079,-0.164 -0.218,-0.3 -0.29,-0.467c-0.155,-0.363 -0.051,-0.689 0.273,-0.911c0.498,-0.342 0.783,-0.879 0.869,-1.407c0.118,-0.723 -0.068,-1.456 -0.695,-1.96c-0.127,-0.102 -0.361,-0.174 -0.507,-0.13c-0.692,0.209 -0.952,0.068 -1.088,-0.604c-0.556,-0.259 -1.086,-0.495 -1.604,-0.753c-0.183,-0.091 -0.327,-0.271 -0.529,-0.024c-0.039,0.047 -0.184,0.007 -0.337,0.007c0.148,-0.112 0.259,-0.197 0.394,-0.299c-0.255,-0.244 -0.727,-0.273 -0.631,-0.757c-0.169,-0.065 -0.36,-0.1 -0.502,-0.204c-0.165,-0.121 -0.328,-0.281 -0.416,-0.462c-0.135,-0.277 -0.285,-0.39 -0.594,-0.279c-0.22,0.079 -0.426,0.042 -0.578,-0.178c-0.077,-0.11 -0.233,-0.173 -0.288,-0.289c-0.073,-0.154 -0.291,-0.286 -0.107,-0.524c0.059,-0.076 -0.001,-0.257 -0.03,-0.385c-0.045,-0.203 -0.15,-0.387 0.014,-0.599c0.289,-0.374 0.163,-0.882 -0.251,-1.11c-0.048,-0.026 -0.11,-0.045 -0.137,-0.087c-0.258,-0.394 -0.52,-0.786 -0.759,-1.192c-0.152,-0.259 -0.387,-0.305 -0.644,-0.318c-0.362,-0.018 -0.838,-0.387 -1.005,-0.72c-0.07,-0.14 -0.239,-0.282 -0.389,-0.321c-0.397,-0.103 -0.633,-0.328 -0.764,-0.713c-0.064,-0.188 -0.198,-0.369 -0.463,-0.303c-0.028,0.007 -0.072,-0.013 -0.095,-0.035c-0.167,-0.161 -0.331,-0.326 -0.501,-0.496c0.212,-0.307 0.204,-0.854 -0.054,-1.169c-0.125,-0.152 -0.266,-0.293 -0.411,-0.426c-0.256,-0.236 -0.271,-0.578 0.012,-0.762c0.061,-0.039 0.076,-0.204 0.058,-0.301c-0.076,-0.401 -0.235,-0.771 -0.063,-1.213c0.116,-0.296 -0.08,-0.532 -0.523,-0.707c-0.259,-0.102 -0.511,-0.256 -0.72,-0.439c-0.089,-0.078 -0.05,-0.294 -0.087,-0.443c-0.068,-0.277 -0.162,-0.548 -0.218,-0.826c-0.025,-0.125 0.013,-0.263 0.028,-0.394c0.006,-0.05 0.054,-0.123 0.036,-0.145c-0.113,-0.131 -0.097,-0.246 -0.02,-0.393c0.026,-0.05 -0.067,-0.162 -0.115,-0.267c0.362,-0.155 0.472,-0.446 0.312,-0.808c-0.063,-0.141 -0.193,-0.287 -0.33,-0.354c-0.262,-0.129 -0.296,-0.212 -0.124,-0.453c0.071,-0.099 0.094,-0.234 0.131,-0.354c0.035,-0.113 0.027,-0.261 0.098,-0.338c0.151,-0.163 0.09,-0.283 -0.003,-0.436c-0.142,-0.234 -0.283,-0.314 -0.554,-0.155c-0.389,0.229 -0.613,0.161 -0.865,-0.207c-0.161,-0.235 -0.279,-0.503 -0.462,-0.717c-0.126,-0.147 -0.33,-0.227 -0.517,-0.348c0.005,-0.006 0.064,-0.079 0.128,-0.156c-0.457,-0.214 -0.482,-0.271 -0.23,-0.526c-0.086,-0.191 -0.373,-0.374 -0.062,-0.582c-0.289,-0.673 -0.875,-1.029 -1.474,-1.252c-0.434,-0.161 -0.615,-0.444 -0.81,-0.775c-0.035,-0.06 -0.026,-0.177 0.01,-0.241c0.148,-0.262 0.365,-0.496 0.455,-0.774c0.065,-0.199 -0.115,-0.486 -0.036,-0.671c0.134,-0.316 -0.049,-0.417 -0.229,-0.559c-0.015,-0.012 -0.019,-0.038 -0.029,-0.058c0.262,-0.366 0.199,-0.799 -0.156,-1.027c0.041,-0.056 0.082,-0.112 0.125,-0.171c-0.153,-0.102 -0.293,-0.197 -0.431,-0.29c0.13,-0.178 0.259,-0.333 0.361,-0.504c0.047,-0.078 0.087,-0.212 0.051,-0.279c-0.287,-0.541 0.172,-0.879 0.346,-1.285c0.19,-0.441 0.216,-0.43 0.028,-0.836c0.637,-0.068 1.268,-0.145 1.9,-0.195c0.123,-0.01 0.254,0.082 0.381,0.127c-0.001,0.028 -0.003,0.057 -0.004,0.085c-0.128,0.036 -0.271,0.048 -0.38,0.115c-0.129,0.079 -0.228,0.206 -0.34,0.313c0.096,0.091 0.182,0.196 0.289,0.271c0.223,0.156 0.463,0.288 0.683,0.446c0.189,0.136 0.317,0.297 0.179,0.562c-0.027,0.052 0.088,0.209 0.169,0.282c0.192,0.172 0.472,0.277 0.382,0.599c0.307,0.038 0.604,0.065 0.896,0.116c0.082,0.014 0.202,0.086 0.216,0.15c0.016,0.072 -0.049,0.189 -0.114,0.246c-0.095,0.084 -0.243,0.111 -0.33,0.199c-0.126,0.128 -0.307,0.29 -0.305,0.435c0.003,0.25 0.249,0.272 0.456,0.233c0.131,-0.025 0.202,0.001 0.326,0.077c0.174,0.107 0.433,0.083 0.656,0.1c0.167,0.013 0.335,0.003 0.543,0.003c-0.065,0.161 -0.103,0.255 -0.154,0.381c0.192,-0.009 0.349,-0.017 0.507,-0.025c0.01,0.03 0.019,0.061 0.029,0.091c-0.076,0.04 -0.152,0.078 -0.226,0.121c-0.132,0.077 -0.261,0.16 -0.395,0.234c-0.063,0.035 -0.135,0.052 -0.203,0.079c-0.123,0.049 -0.245,0.099 -0.367,0.148c0.034,0.084 0.052,0.228 0.105,0.242c0.154,0.042 0.325,0.056 0.484,0.035c0.125,-0.017 0.241,-0.101 0.4,-0.087c-0.086,0.067 -0.172,0.134 -0.259,0.201c0.141,0.519 0.575,0.257 0.882,0.345c-0.056,0.094 -0.109,0.183 -0.178,0.299c0.107,0.043 0.195,0.078 0.305,0.122c-0.057,0.276 0.06,0.467 0.452,0.554c-0.195,0.174 -0.319,0.317 -0.473,0.413c-0.147,0.092 -0.216,0.143 -0.162,0.352c0.065,0.254 0.063,0.542 0.016,0.802c-0.041,0.229 0.019,0.343 0.203,0.449c0.102,0.059 0.179,0.158 0.313,0.281c0.073,-0.057 0.2,-0.158 0.337,-0.266c0.31,0.357 0.088,0.736 0.088,1.119c0.177,-0.009 0.358,-0.049 0.526,-0.019c0.245,0.044 0.356,0.207 0.342,0.477c-0.007,0.14 0.078,0.284 0.122,0.427c0.097,-0.112 0.196,-0.223 0.291,-0.337c0.028,-0.033 0.044,-0.075 0.066,-0.113c0.261,0.103 0.311,0.265 0.139,0.488c-0.127,0.164 -0.272,0.315 -0.409,0.471c0.028,0.038 0.057,0.077 0.085,0.115c0.16,-0.063 0.321,-0.126 0.505,-0.198c0.214,0.197 0.346,0.424 0.146,0.751c-0.147,0.241 -0.099,0.501 0.148,0.63c0.276,0.143 0.587,0.226 0.891,0.298c0.048,0.012 0.205,-0.171 0.203,-0.261c-0.005,-0.231 0.041,-0.353 0.292,-0.417c0.237,-0.059 0.452,-0.204 0.604,-0.276c0.258,0.171 0.451,0.382 0.675,0.424c0.222,0.042 0.458,0.313 0.727,0.041c0.056,-0.057 0.281,0.008 0.403,0.069c0.494,0.247 0.842,0.103 0.854,-0.575c0.001,-0.082 0.012,-0.164 0.013,-0.176c0.228,0.108 0.461,0.192 0.662,0.325c0.136,0.09 0.256,0.233 0.33,0.38c0.26,0.512 0.744,0.789 1.152,1.146c0.107,0.094 0.239,0.162 0.336,0.264c0.199,0.209 0.388,0.217 0.597,0.02c0.2,-0.189 0.246,-0.473 0.085,-0.682c-0.086,-0.111 -0.188,-0.224 -0.307,-0.293c-0.377,-0.219 -0.556,-0.597 -0.778,-0.937c-0.064,-0.099 -0.025,-0.259 -0.066,-0.38c-0.082,-0.245 -0.187,-0.484 -0.192,-0.701c0.054,-0.14 0.11,-0.279 0.163,-0.419c0.118,-0.311 0.191,-0.65 0.363,-0.927c0.198,-0.32 0.196,-0.515 -0.145,-0.711c-0.142,-0.081 -0.29,-0.151 -0.431,-0.234c-0.033,-0.019 -0.047,-0.071 -0.065,-0.099c0.12,-0.092 0.31,-0.17 0.321,-0.267c0.012,-0.11 -0.126,-0.247 -0.217,-0.358c-0.411,-0.504 -0.515,-1.073 -0.38,-1.697c0.075,-0.347 0.122,-0.683 -0.312,-0.862c0.088,-0.269 0.211,-0.443 0.522,-0.362c0.062,0.016 0.143,0.029 0.196,0.003c0.616,-0.301 0.957,0.126 1.35,0.472c0.141,0.125 0.369,0.152 0.592,0.237c-0.08,0.209 -0.178,0.424 -0.244,0.649c-0.034,0.116 -0.044,0.26 -0.003,0.367c0.018,0.046 0.193,0.033 0.296,0.046c0.179,0.023 0.371,0.015 0.536,0.076c0.312,0.117 0.531,-0.029 0.764,-0.222c0.2,0.294 0.401,0.19 0.624,0.022c0.366,-0.275 0.745,-0.533 1.121,-0.794c0.516,-0.358 1.07,-0.174 1.608,-0.088c0.39,0.062 0.791,0.603 0.842,1.086c0.023,0.218 0.067,0.481 0.297,0.471c0.164,-0.007 0.337,-0.22 0.469,-0.373c0.116,-0.135 0.166,-0.324 0.271,-0.47c0.1,-0.141 0.499,-0.094 0.612,0.064c0.082,0.115 0.125,0.271 0.228,0.356c0.092,0.076 0.28,0.144 0.359,0.099c0.102,-0.058 0.225,-0.298 0.189,-0.346c-0.352,-0.465 -0.13,-0.933 -0.033,-1.396c0.02,-0.095 0.118,-0.194 0.207,-0.251c0.254,-0.164 0.52,-0.307 0.761,-0.446c-0.012,0.225 0.153,0.348 0.438,0.244c0.297,-0.109 0.449,0.063 0.548,0.272c0.093,0.195 0.142,0.383 0.418,0.378c0.061,-0.001 0.133,0.131 0.184,0.212c0.049,0.077 0.078,0.167 0.116,0.252c0.031,0.003 0.061,0.006 0.092,0.009c0.064,-0.144 0.127,-0.288 0.167,-0.379c0.147,0.266 0.304,0.581 0.492,0.877c0.061,0.096 0.195,0.189 0.306,0.203c0.542,0.068 0.878,0.402 1.075,0.861c0.168,0.392 0.371,0.79 0.185,1.261c-0.097,0.247 0.122,0.293 0.331,0.315c0.263,0.028 0.526,0.072 0.781,0.141c0.297,0.081 0.58,0.221 0.879,0.285c0.119,0.025 0.353,-0.056 0.384,-0.143c0.09,-0.249 0.213,-0.439 0.445,-0.566c0.036,-0.02 0.044,-0.093 0.077,-0.173c0.091,0.079 0.17,0.146 0.185,0.159c0.02,0.31 -0,0.568 0.063,0.803c0.067,0.249 0.262,0.304 0.493,0.154c0.128,-0.083 0.262,-0.156 0.384,-0.152c0.292,0.102 0.585,0.202 0.876,0.308c0.091,0.033 0.172,0.092 0.263,0.125c0.398,0.145 0.366,0.404 0.2,0.709c-0.034,0.062 -0.036,0.14 -0.061,0.241c0.156,-0.008 0.281,-0.015 0.415,-0.022c-0.3,0.264 -0.577,0.507 -0.854,0.751c-0.008,0.007 -0.023,0.012 -0.025,0.021c-0.204,0.678 -0.625,0.213 -0.956,0.174c-0.3,-0.035 -0.603,-0.087 -0.89,-0.178c-0.157,-0.05 -0.333,-0.169 -0.413,-0.307c-0.246,-0.425 -0.591,-0.674 -0.99,-0.615c-0.134,0.02 -0.321,0.073 -0.375,0.171c-0.127,0.231 -0.324,0.301 -0.544,0.358c-0.185,0.048 -0.397,0.052 -0.416,0.323c-0.002,0.033 -0.1,0.068 -0.158,0.086c-0.221,0.065 -0.376,0.178 -0.329,0.433c-0.24,0.043 -0.463,0.13 -0.634,-0.106c-0.023,-0.032 -0.114,-0.056 -0.142,-0.037c-0.143,0.098 -0.261,0.262 -0.415,0.308c-0.332,0.098 -0.119,0.284 -0.11,0.44c0.001,0.02 -0.01,0.042 -0.004,0.019c-0.457,0.154 -0.89,0.304 -1.326,0.444c-0.095,0.031 -0.246,0.075 -0.296,0.03c-0.282,-0.258 -0.624,-0.164 -0.87,-0.054c-0.262,0.117 -0.428,0.45 -0.8,0.296c-0.019,-0.008 -0.109,0.087 -0.121,0.143c-0.118,0.59 -0.605,0.737 -1.076,0.862c-0.345,0.091 -0.555,0.3 -0.698,0.589c-0.062,0.125 -0.109,0.343 -0.044,0.428c0.247,0.323 0.177,0.697 0.162,1.032c-0.01,0.242 -0.226,0.48 -0.374,0.704c-0.021,0.032 -0.182,-0.014 -0.272,-0.044c-0.305,-0.102 -0.597,-0.31 -0.936,-0.098c-0.019,0.012 -0.067,0.003 -0.087,-0.013c-0.486,-0.405 -0.992,-0.036 -1.488,-0.036c-0.172,0 -0.342,0.073 -0.515,0.107c-0.404,0.081 -1.004,0.803 -0.972,1.21c0.008,0.106 0.136,0.203 0.226,0.329c-0.114,0.194 -0.235,0.405 -0.36,0.614c-0.244,0.408 -0.044,0.844 0.395,0.956c0.146,0.037 0.29,0.215 0.367,0.363c0.139,0.267 0.227,0.561 0.294,0.737l0,0.552c-0.133,0.16 -0.237,0.354 -0.154,0.649c0.069,0.247 0.103,0.477 0.334,0.639c0.039,0.027 0.002,0.225 -0.053,0.31c-0.224,0.347 -0.382,0.695 -0.363,1.131c0.022,0.519 0.19,0.725 0.712,0.793c0.256,0.033 0.507,0.12 0.756,0.194c0.057,0.017 0.126,0.068 0.149,0.121c0.338,0.777 0.995,0.725 1.67,0.667c0.19,-0.016 0.386,0.073 0.581,0.08c0.4,0.014 0.815,0.072 1.198,-0.01c0.626,-0.135 1.239,-0.343 1.841,-0.566c0.423,-0.157 0.818,-0.391 1.226,-0.591c0.128,-0.063 0.26,-0.118 0.382,-0.19c0.186,-0.11 0.366,-0.232 0.546,-0.351c0.301,-0.199 0.614,-0.308 0.99,-0.325c0.353,-0.016 0.742,-0.044 0.97,-0.436c0.076,-0.13 0.283,-0.193 0.44,-0.265c0.134,-0.061 0.283,-0.089 0.517,-0.159c0.136,0.047 0.376,0.144 0.624,0.207c0.075,0.019 0.189,-0.039 0.258,-0.095c0.253,-0.204 0.732,-0.23 0.989,-0.024c0.209,0.168 0.399,0.298 0.599,-0.007c0.019,-0.028 0.09,-0.025 0.137,-0.032c0.232,-0.033 0.463,-0.084 0.696,-0.091c0.2,-0.006 0.406,0.021 0.602,0.066c0.261,0.06 0.5,0.128 0.691,-0.154c0.061,-0.089 0.196,-0.14 0.307,-0.181c0.354,-0.131 0.383,-0.435 0.413,-0.74c0.018,-0.184 0.022,-0.37 0.051,-0.552c0.011,-0.069 0.071,-0.183 0.116,-0.187c0.515,-0.043 0.727,-0.567 1.151,-0.72c0.255,-0.092 0.561,-0.046 0.692,0.317c-0.172,0.08 -0.237,0.19 -0.115,0.409c0.191,0.345 0.097,0.508 -0.293,0.615c-0.486,0.135 -0.486,0.134 -0.304,0.594c0.012,0.03 0.029,0.066 0.023,0.095c-0.112,0.59 -0.032,1.243 -0.469,1.73c-0.248,0.276 -0.558,0.501 -0.857,0.726c-0.216,0.163 -0.311,0.32 -0.239,0.61c0.07,0.286 0.064,0.595 0.065,0.894c0,0.256 0.035,0.448 0.408,0.36c-0.302,0.461 0.046,0.803 0.121,1.178c0.041,0.203 0.051,0.318 -0.101,0.486c-0.192,0.213 -0.377,0.334 -0.672,0.377c-0.201,0.029 -0.386,0.223 -0.561,0.364c-0.118,0.095 -0.199,0.233 -0.312,0.337c-0.17,0.157 -0.122,0.259 0.038,0.396c0.119,0.102 0.189,0.262 0.28,0.396c-0.155,0.104 -0.303,0.284 -0.466,0.298c-0.577,0.051 -0.993,0.398 -1.224,0.833c-0.312,0.588 -0.588,1.199 -0.914,1.805c0.002,0.023 0.006,0.021 0.006,0.021c-0.362,-0.084 -0.684,0.019 -0.984,0.213c-0.175,0.113 -0.265,0.211 -0.094,0.445c0.136,0.187 0.202,0.465 0.202,0.703c-0.003,0.879 0.474,1.545 0.9,2.249c0.278,0.46 0.492,0.965 0.351,1.532c-0.065,0.262 -0.038,0.538 -0.291,0.765c-0.138,0.123 -0.11,0.431 -0.156,0.656c-0.032,0.156 -0.064,0.312 -0.1,0.488c0.127,0.264 0.258,0.572 0.424,0.861c0.085,0.148 0.234,0.258 0.346,0.392c0.05,0.059 0.131,0.16 0.112,0.2c-0.208,0.435 0.166,0.55 0.396,0.74c0.055,0.046 0.135,0.062 0.225,0.1c-0.067,0.4 -0.151,0.791 -0.186,1.186c-0.012,0.135 0.059,0.34 0.163,0.412c0.469,0.328 0.667,1.101 0.384,1.591c-0.131,0.226 -0.027,0.415 0.163,0.539c0.228,0.148 0.468,0.289 0.722,0.382c0.154,0.057 0.361,-0.027 0.512,0.033c0.248,0.099 0.471,0.263 0.722,0.41c-0.189,0.266 -0.359,0.486 -0.084,0.711c0.066,0.054 0.227,0.104 0.258,0.073c0.197,-0.203 0.317,-0.065 0.467,0.059c0.072,0.06 0.193,0.098 0.286,0.089c0.49,-0.048 0.976,-0.142 1.466,-0.167c0.473,-0.024 0.859,0.218 1.207,0.522c0.189,0.165 0.387,0.32 0.587,0.471c0.284,0.214 0.573,0.421 0.86,0.63c0.035,0.026 0.071,0.063 0.111,0.07c0.418,0.076 0.837,0.146 1.255,0.221c0.08,0.014 0.158,0.045 0.237,0.064c0.113,0.027 0.269,0.108 0.335,0.063c0.298,-0.206 0.619,-0.411 0.838,-0.689c0.149,-0.189 0.222,-0.155 0.35,-0.053c0.058,0.046 0.085,0.128 0.136,0.185c0.138,0.155 0.255,0.368 0.429,0.44c0.143,0.059 0.356,-0.076 0.539,-0.079c0.188,-0.003 0.408,-0.004 0.56,0.086c0.548,0.325 1.053,0.292 1.553,-0.086c0.298,-0.225 0.676,-0.361 0.814,-0.768c0.017,-0.051 0.192,-0.075 0.291,-0.068c0.299,0.021 0.597,0.093 0.895,0.089c0.249,-0.003 0.542,-0.386 0.56,-0.73c0.012,-0.235 0.008,-0.492 -0.3,-0.61c-0.309,-0.118 -0.306,-0.438 -0.306,-0.694c-0,-0.238 0.295,-0.363 0.523,-0.238c0.203,0.111 0.335,0.081 0.531,-0.051c0.227,-0.153 0.521,-0.207 0.738,-0.286c0.167,0.288 0.268,0.579 0.465,0.773c0.232,0.229 0.556,0.179 0.822,0.007c0.239,-0.154 0.455,-0.346 0.692,-0.53c0.27,0.137 0.553,0.363 0.884,0.017c0.058,-0.06 0.271,-0.009 0.393,0.039c0.196,0.077 0.365,0.095 0.554,-0.021c0.228,-0.14 0.384,0.012 0.581,0.203c-0.176,0.096 -0.315,0.208 -0.473,0.25c-0.301,0.08 -0.363,0.296 -0.415,0.556c-0.03,0.15 -0.128,0.287 -0.194,0.43c-0.084,0.184 -0.261,0.387 -0.229,0.548c0.062,0.309 0.35,0.261 0.597,0.204c0.029,-0.007 0.063,0.01 0.07,0.011c0.024,0.416 0.047,0.822 0.072,1.259c-0.416,0.288 -0.964,0.194 -1.4,-0.169c-0.202,-0.168 -0.535,-0.185 -0.812,-0.255c-0.167,-0.043 -0.34,-0.073 -0.511,-0.079c-0.119,-0.005 -0.24,0.04 -0.36,0.063c0.019,0.1 0.03,0.202 0.059,0.298c0.118,0.382 0.257,0.758 0.358,1.144c0.049,0.188 -0.248,0.541 -0.426,0.557c-0.304,0.028 -0.455,-0.122 -0.491,-0.474c-0.012,-0.118 -0.039,-0.235 -0.057,-0.343c-0.037,-0.017 -0.058,-0.037 -0.075,-0.034c-0.411,0.076 -0.83,0.128 -1.229,0.245c-0.22,0.064 -0.422,0.198 -0.385,0.529c0.023,0.208 -0.099,0.405 -0.4,0.286c-0.31,-0.123 -0.598,-0.159 -0.916,0.07c-0.437,0.313 -0.552,0.326 -0.807,-0.133c-0.266,-0.478 -0.742,-0.613 -1.111,-0.908c-0.185,-0.147 -0.558,-0.212 -0.778,-0.13c-0.514,0.19 -0.944,-0.007 -1.379,-0.172c-0.282,-0.107 -0.438,-0.029 -0.63,0.158c-0.107,0.104 -0.289,0.186 -0.436,0.184c-0.398,-0.007 -0.673,0.34 -0.532,0.719c0.106,0.285 -0.069,0.526 -0.23,0.784c-0.147,0.235 -0.183,0.614 -0.114,0.892c0.085,0.344 0.256,0.643 0.169,1.034c-0.04,0.184 0.106,0.438 0.227,0.621c0.229,0.346 0.22,0.682 -0.078,0.936c0.514,0.536 0.456,1.049 -0.221,1.432c-0.532,0.301 -0.58,0.761 -0.564,1.276c0.001,0.043 0.009,0.086 0.013,0.125c-0.137,0.053 -0.266,0.103 -0.484,0.187c0.181,0.088 0.281,0.113 0.347,0.174c0.081,0.074 0.196,0.19 0.183,0.268c-0.015,0.085 -0.164,0.213 -0.248,0.207c-0.262,-0.016 -0.333,0.149 -0.468,0.319c-0.195,0.246 -0.466,0.433 -0.714,0.633c-0.101,0.081 -0.241,0.113 -0.342,0.193c-0.134,0.106 -0.17,0.219 -0.037,0.389c0.12,0.152 0.178,0.358 0.245,0.546c0.09,0.254 0.141,0.498 0.424,0.663c0.196,0.115 0.305,0.392 0.425,0.612c0.019,0.035 -0.098,0.191 -0.179,0.222c-0.149,0.057 -0.317,0.062 -0.559,0.103c0.105,0.1 0.166,0.195 0.253,0.234c0.185,0.084 0.387,0.131 0.575,0.211c0.233,0.099 0.397,0.251 0.399,0.537c0.002,0.298 0.023,0.597 0.052,0.894c0.009,0.091 0.075,0.176 0.121,0.277c-0.29,0.064 -0.322,0.323 -0.321,0.617c0.001,0.16 -0.007,0.343 -0.082,0.475c-0.183,0.317 -0.055,0.534 0.198,0.688c0.315,0.191 0.651,0.347 0.986,0.503c0.294,0.137 0.619,0.216 0.891,0.384c0.403,0.247 0.833,0.405 1.278,0.541c0.305,0.094 0.51,0.256 0.515,0.627c0.004,0.292 0.189,0.466 0.509,0.488c0.118,0.008 0.252,0.077 0.34,0.16c0.229,0.216 0.423,0.472 0.657,0.682c0.294,0.264 0.632,0.482 0.917,0.755c0.165,0.158 0.262,0.386 0.389,0.58c-0.445,0.322 -0.389,0.873 0.067,1.094c0.402,0.195 0.51,0.707 0.212,1.014c-0.336,0.346 -0.327,0.765 -0.267,1.2c0.019,0.134 -0.008,0.275 0.016,0.407c0.087,0.473 -0.096,0.902 -0.183,1.349c-0.076,0.391 0.33,0.729 0.726,0.653c0.215,-0.042 0.442,0.163 0.497,0.401c0.071,0.309 0.175,0.611 0.243,0.843c-0.019,0.306 -0.01,0.566 -0.06,0.813c-0.035,0.172 -0.154,0.327 -0.252,0.523c0.245,0.159 -0.193,0.693 0.435,0.8c-0.187,0.123 -0.296,0.195 -0.404,0.265c-0.004,0.025 -0.016,0.051 -0.008,0.067c0.26,0.532 0.243,0.58 -0.302,0.857c-0.356,0.181 -0.362,0.227 -0.187,0.574c0.06,0.12 0.086,0.274 0.076,0.409c-0.016,0.233 -0.063,0.454 0.153,0.634c0.035,0.029 0.021,0.169 -0.018,0.223c-0.174,0.242 -0.24,0.48 -0.061,0.75c0.021,0.032 -0.027,0.104 -0.03,0.158c-0.011,0.18 -0.02,0.36 -0.024,0.539c-0.004,0.166 -0.001,0.333 -0.001,0.585c0.151,0.112 0.434,0.239 0.587,0.458c0.185,0.264 0.27,0.602 0.377,0.915c0.04,0.117 0.025,0.255 0.028,0.383c0.006,0.223 0.115,0.295 0.337,0.3c0.194,0.004 0.387,0.078 0.581,0.122c-0.094,0.15 -0.188,0.3 -0.283,0.45c-0.109,0.173 -0.236,0.27 -0.462,0.182c-0.448,-0.175 -0.812,0.104 -0.782,0.587c0.005,0.087 0.032,0.175 0.023,0.26c-0.018,0.185 -0.09,0.319 -0.318,0.266c-0.085,-0.02 -0.183,-0.049 -0.26,-0.025c-0.107,0.034 -0.2,0.114 -0.299,0.174c0.079,0.058 0.159,0.117 0.26,0.191c-0.216,0.081 -0.279,0.387 -0.62,0.346c-0.388,-0.047 -0.252,-0.404 -0.384,-0.592c-0.063,0.024 -0.11,0.027 -0.119,0.047c-0.138,0.321 -0.233,0.667 -0.414,0.96c-0.179,0.289 -0.442,0.525 -0.674,0.78c-0.021,0.023 -0.088,0.025 -0.122,0.01c-0.18,-0.08 -0.362,-0.161 -0.534,-0.256c-0.317,-0.176 -0.43,-0.426 -0.324,-0.77c0.07,-0.227 0,-0.299 -0.221,-0.311c-0.073,-0.004 -0.202,-0.086 -0.203,-0.136c-0.009,-0.262 -0.176,-0.312 -0.378,-0.314c-0.361,-0.004 -0.724,-0.012 -1.083,0.018c-0.188,0.016 -0.395,0.053 -0.303,0.374c0.049,0.171 -0.028,0.386 -0.074,0.575c-0.055,0.224 -0.133,0.418 -0.45,0.308c-0.114,-0.039 -0.268,0.038 -0.396,0.061c-0.023,-0.044 -0.046,-0.07 -0.041,-0.079c0.242,-0.382 -0.105,-0.795 0.062,-1.178c0.049,-0.113 0.111,-0.285 0.197,-0.306c0.514,-0.128 0.574,-0.574 0.686,-0.964c0.032,-0.111 -0.111,-0.272 -0.126,-0.468c0.139,0.063 0.288,0.19 0.416,0.171c0.135,-0.019 0.25,-0.177 0.374,-0.274c-0.038,-0.009 -0.075,-0.019 -0.113,-0.028c-0.05,-0.268 -0.101,-0.537 -0.155,-0.824c0.256,0.058 0.451,0.102 0.677,0.154c0.011,-0.123 0.038,-0.2 0.02,-0.266c-0.07,-0.259 0.098,-0.456 0.27,-0.502c0.509,-0.137 0.71,-0.542 0.961,-0.926c0.074,-0.114 0.214,-0.192 0.336,-0.267c0.144,-0.089 0.38,-0.071 0.339,-0.356c-0.007,-0.048 0.146,-0.119 0.228,-0.279c-0.155,-0.015 -0.311,-0.052 -0.465,-0.041c-0.24,0.017 -0.407,-0.005 -0.503,-0.284c-0.088,-0.255 -0.304,-0.424 -0.649,-0.413c-0.053,-0.023 -0.066,-0.037 -0.08,-0.05Z" style="fill:#4ade80;fill-rule:nonzero;stroke:#22c55e;stroke-width:1px;"/></g></svg>