<?xml version="1.0" encoding="UTF-8" standalone="no"?><!DOCTYPE svg PUBLIC "-//W3C//DTD SVG 1.1//EN" "http://www.w3.org/Graphics/SVG/1.1/DTD/svg11.dtd"><svg width="100%" height="100%" viewBox="0 0 100 100" version="1.1" xmlns="http://www.w3.org/2000/svg" xmlns:xlink="http://www.w3.org/1999/xlink" xml:space="preserve" xmlns:serif="http://www.serif.com/" style="fill-rule:evenodd;clip-rule:evenodd;stroke-linejoin:round;stroke-miterlimit:2;"><rect id="_32_tokyo_minamitorishima" serif:id="32_tokyo_minamitorishima" x="0" y="0" width="100" height="100" style="fill:none;"/><g id="_32_tokyo_minamitorishima1" serif:id="32_tokyo_minamitorishima"><path d="M77.086,22.614c-0.192,1.803 0.011,3.537 0.352,5.273c0.19,0.967 0.278,1.962 0.32,2.949c0.122,2.894 0.128,5.795 0.323,8.683c0.097,1.447 -0.012,2.931 0.463,4.343c0.188,0.56 0.204,1.194 0.755,1.59c0.074,0.053 0.106,0.267 0.062,0.361c-0.113,0.244 -0.055,0.385 0.153,0.537c0.293,0.215 0.404,0.483 0.163,0.83c-0.048,0.07 -0.005,0.249 0.055,0.34c0.149,0.227 0.311,0.428 0.197,0.733c-0.027,0.073 0.051,0.223 0.124,0.29c0.35,0.324 0.39,0.523 0.165,0.938c-0.035,0.065 -0.075,0.158 -0.054,0.217c0.123,0.345 0.271,0.681 0.394,1.025c0.037,0.104 0.047,0.229 0.03,0.338c-0.062,0.404 -0.209,0.809 -0.193,1.208c0.015,0.346 0.079,0.67 -0.1,0.992c-0.024,0.043 0.042,0.148 0.084,0.212c0.187,0.285 0.275,0.552 0.285,0.933c0.01,0.388 0.398,0.77 0.17,1.235c0.309,0.251 0.352,0.537 0.144,0.879c-0.025,0.041 0.084,0.154 0.115,0.24c0.134,0.369 0.264,0.739 0.391,1.11c0.05,0.145 0.044,0.373 0.141,0.428c0.329,0.188 0.331,0.42 0.185,0.705c-0.11,0.213 -0.073,0.376 0.116,0.524c0.276,0.215 0.316,0.472 0.136,0.779c-0.055,0.093 -0.105,0.285 -0.06,0.326c0.499,0.462 0.181,1.119 0.415,1.649c0.232,0.524 0.386,1.084 0.557,1.634c0.079,0.255 0.105,0.526 0.179,0.782c0.157,0.543 0.426,1.075 0.468,1.625c0.036,0.476 0.047,0.945 0.197,1.401c0.045,0.135 0.058,0.325 0.154,0.391c0.261,0.18 0.342,0.406 0.279,0.693c-0.05,0.226 -0.056,0.425 0.167,0.566c0.033,0.021 0.083,0.071 0.076,0.088c-0.245,0.608 0.38,1.023 0.351,1.59c-0.008,0.159 0.143,0.321 0.197,0.489c0.074,0.228 0.128,0.463 0.183,0.696c0.036,0.153 0.015,0.342 0.098,0.457c0.192,0.265 0.284,0.496 0.066,0.796c-0.051,0.07 -0.015,0.289 0.057,0.349c0.328,0.278 0.417,0.599 0.274,0.996c-0.023,0.063 -0.079,0.16 -0.056,0.186c0.304,0.35 0.225,0.717 0.119,1.118c-0.034,0.129 0.11,0.366 0.239,0.466c0.413,0.318 0.493,0.94 0.077,1.262c-0.285,0.22 -0.377,0.424 -0.301,0.775c0.031,0.145 -0.126,0.329 -0.194,0.496c-0.052,0.128 -0.18,0.317 -0.136,0.376c0.238,0.32 -0.019,0.621 0.013,0.908c0.063,0.565 0.239,1.114 -0.293,1.554c0.178,0.385 -0.037,0.63 -0.302,0.859c-0.028,0.024 -0.053,0.07 -0.053,0.105c-0.002,0.514 -0.203,0.895 -0.69,1.115c-0.066,0.03 -0.057,0.2 -0.113,0.285c-0.115,0.175 -0.251,0.337 -0.377,0.505c-0.072,0.096 -0.193,0.188 -0.203,0.291c-0.03,0.297 -0.16,0.432 -0.462,0.431c-0.094,-0 -0.243,0.053 -0.273,0.122c-0.343,0.794 -1.076,1.141 -1.764,1.512c-1.409,0.76 -2.909,1.325 -4.466,1.666c-0.754,0.165 -1.588,0.289 -2.357,-0.127c-0.101,-0.055 -0.289,-0.005 -0.414,0.048c-0.358,0.152 -0.682,0.147 -1.037,-0.041c-0.175,-0.093 -0.423,-0.083 -0.633,-0.067c-0.341,0.025 -0.664,0.068 -0.924,-0.241c-0.06,-0.072 -0.225,-0.065 -0.344,-0.077c-0.296,-0.03 -0.611,0.006 -0.885,-0.085c-0.47,-0.154 -0.922,-0.266 -1.429,-0.306c-0.541,-0.043 -1.063,-0.343 -1.647,-0.25c-0.064,0.01 -0.159,-0.092 -0.221,-0.16c-0.178,-0.195 -0.362,-0.217 -0.61,-0.118c-0.136,0.054 -0.338,0.042 -0.473,-0.021c-0.283,-0.133 -0.504,-0.484 -0.877,-0.187c-0.009,0.007 -0.033,0.008 -0.039,0.002c-0.362,-0.377 -0.822,-0.277 -1.266,-0.269c-0.056,0.001 -0.141,-0.052 -0.166,-0.103c-0.154,-0.315 -0.408,-0.242 -0.681,-0.237c-0.171,0.003 -0.402,-0.118 -0.502,-0.258c-0.132,-0.183 -0.243,-0.225 -0.429,-0.144c-0.261,0.113 -0.476,0.042 -0.637,-0.178c-0.15,-0.205 -0.317,-0.192 -0.554,-0.163c-0.219,0.027 -0.513,-0.047 -0.673,-0.19c-0.176,-0.157 -0.317,-0.244 -0.55,-0.228c-0.12,0.008 -0.303,-0.024 -0.358,-0.105c-0.199,-0.292 -0.488,-0.294 -0.786,-0.383c-0.58,-0.173 -1.224,-0.358 -1.652,-0.748c-0.357,-0.325 -0.592,-0.647 -1.132,-0.627c-0.16,0.006 -0.316,-0.299 -0.499,-0.425c-0.173,-0.119 -0.371,-0.232 -0.573,-0.272c-0.331,-0.065 -0.618,-0.139 -0.749,-0.503c-0.034,-0.096 -0.195,-0.23 -0.269,-0.214c-0.536,0.114 -0.834,-0.196 -1.092,-0.577c-0.179,-0.263 -0.336,-0.477 -0.695,-0.228c-0.088,0.061 -0.314,0.028 -0.409,-0.047c-0.215,-0.172 -0.41,-0.155 -0.632,-0.053c-0.381,0.174 -0.671,0.05 -0.906,-0.274c-0.205,-0.281 -0.403,-0.427 -0.834,-0.439c-0.385,-0.011 -0.779,-0.386 -1.254,-0.279c-0.009,0.002 -0.029,-0.012 -0.032,-0.022c-0.133,-0.531 -0.525,-0.402 -0.911,-0.41c-0.2,-0.004 -0.39,-0.24 -0.596,-0.349c-0.146,-0.077 -0.314,-0.172 -0.466,-0.163c-0.288,0.017 -0.518,0.004 -0.691,-0.276c-0.058,-0.093 -0.235,-0.119 -0.363,-0.159c-0.073,-0.023 -0.157,-0.017 -0.235,-0.018c-0.408,-0.003 -0.509,-0.605 -1.071,-0.461c-0.349,0.089 -0.796,-0.213 -1.201,-0.333c-0.398,-0.118 -0.824,-0.176 -1.189,-0.359c-0.244,-0.123 -0.403,-0.417 -0.566,-0.598c-0.449,-0.074 -0.902,-0.233 -1.342,-0.201c-0.595,0.044 -1.099,-0.087 -1.66,-0.272c-0.494,-0.163 -1.003,-0.344 -1.505,-0.461c-0.604,-0.141 -1.192,-0.349 -1.796,-0.453c-0.418,-0.072 -0.781,-0.107 -1.024,-0.497c-0.054,-0.086 -0.189,-0.17 -0.287,-0.17c-0.341,-0.001 -0.665,0.011 -0.863,-0.352c-0.029,-0.052 -0.195,-0.035 -0.299,-0.039c-0.159,-0.006 -0.386,0.068 -0.467,-0.012c-0.524,-0.514 -1.294,-0.28 -1.86,-0.645c-0.07,-0.045 -0.172,-0.042 -0.26,-0.056c-0.277,-0.044 -0.554,-0.082 -0.83,-0.129c-0.063,-0.011 -0.125,-0.077 -0.182,-0.07c-0.522,0.063 -0.982,-0.025 -1.356,-0.441c-0.051,-0.056 -0.252,-0.009 -0.369,0.032c-0.335,0.116 -0.618,0.057 -0.905,-0.15c-0.113,-0.081 -0.323,-0.119 -0.45,-0.071c-0.309,0.117 -0.556,0.058 -0.771,-0.161c-0.168,-0.171 -0.328,-0.204 -0.531,-0.068c-0.076,0.051 -0.176,0.106 -0.26,0.098c-0.577,-0.054 -1.152,-0.127 -1.728,-0.186c-0.202,-0.021 -0.406,-0.025 -0.609,-0.027c-0.078,-0.001 -0.164,0.053 -0.234,0.034c-0.556,-0.148 -1.108,-0.308 -1.661,-0.465c-0.025,-0.007 -0.054,-0.037 -0.071,-0.03c-0.569,0.214 -1.091,0.001 -1.621,-0.166c-0.212,-0.067 -0.432,-0.114 -0.652,-0.146c-0.184,-0.027 -0.395,-0.076 -0.557,-0.015c-0.52,0.195 -0.968,-0.056 -1.407,-0.222c-0.201,-0.076 -0.325,-0.158 -0.531,-0.046c-0.347,0.189 -0.572,0.091 -0.787,-0.257c-0.055,-0.088 -0.229,-0.172 -0.325,-0.152c-0.376,0.079 -0.682,0.049 -0.913,-0.308c-0.06,-0.092 -0.221,-0.123 -0.341,-0.169c-0.636,-0.244 -1.291,-0.446 -1.906,-0.734c-0.782,-0.367 -0.875,-0.913 -0.306,-1.575c0.288,-0.335 0.59,-0.666 0.926,-0.951c1.33,-1.124 2.46,-2.433 3.552,-3.78c0.662,-0.817 1.384,-1.568 2.275,-2.145c0.141,-0.092 0.234,-0.278 0.316,-0.438c0.156,-0.308 0.308,-0.589 0.726,-0.581c0.079,0.002 0.195,-0.144 0.237,-0.246c0.141,-0.346 0.269,-0.676 0.735,-0.68c0.076,-0.001 0.195,-0.14 0.219,-0.235c0.101,-0.4 0.409,-0.481 0.748,-0.557c0.133,-0.03 0.252,-0.136 0.367,-0.221c0.061,-0.045 0.089,-0.135 0.15,-0.182c1.802,-1.397 3.599,-2.802 5.416,-4.179c0.478,-0.362 1.012,-0.658 1.541,-0.947c1.823,-0.998 3.453,-2.268 5.031,-3.603c2.214,-1.873 4.422,-3.748 6.973,-5.167c0.192,-0.107 0.287,-0.374 0.46,-0.531c0.228,-0.206 0.488,-0.377 0.736,-0.561c0.142,-0.105 0.284,-0.21 0.431,-0.308c0.304,-0.201 0.706,-0.333 0.891,-0.611c0.204,-0.307 0.265,-0.69 0.713,-0.774c0.076,-0.014 0.176,-0.138 0.188,-0.222c0.045,-0.322 0.276,-0.42 0.528,-0.537c0.175,-0.081 0.37,-0.209 0.457,-0.37c0.201,-0.373 0.399,-0.687 0.955,-0.478c-0.084,-0.584 0.35,-0.73 0.678,-0.968c0.128,-0.093 0.247,-0.202 0.355,-0.318c0.51,-0.547 0.995,-1.12 1.527,-1.644c0.984,-0.97 1.997,-1.911 2.994,-2.868c0.105,-0.101 0.201,-0.222 0.264,-0.352c0.135,-0.281 0.329,-0.43 0.652,-0.439c0.108,-0.003 0.214,-0.117 0.32,-0.183c0.009,-0.006 0.009,-0.031 0.017,-0.035c0.521,-0.199 0.645,-0.776 1.043,-1.097c0.109,-0.088 0.145,-0.264 0.225,-0.393c0.107,-0.173 0.19,-0.441 0.342,-0.492c0.596,-0.198 0.714,-0.795 1.08,-1.177c0.172,-0.179 0.336,-0.377 0.541,-0.509c0.202,-0.13 0.308,-0.261 0.314,-0.508c0.003,-0.119 0.09,-0.276 0.189,-0.344c0.406,-0.281 0.919,-0.46 1.224,-0.819c0.268,-0.317 0.767,-0.522 0.743,-1.059c-0.002,-0.048 0.027,-0.129 0.062,-0.142c0.524,-0.201 0.57,-0.888 1.101,-1.077c0.037,-0.013 0.086,-0.029 0.104,-0.059c0.386,-0.664 0.767,-1.331 1.153,-1.996c0.065,-0.113 0.144,-0.219 0.218,-0.326c0.098,-0.141 0.233,-0.269 0.289,-0.425c0.128,-0.359 0.32,-0.631 0.684,-0.787c0.103,-0.044 0.162,-0.211 0.223,-0.33c0.028,-0.055 -0.014,-0.155 0.02,-0.195c0.385,-0.452 0.569,-1.02 0.888,-1.51c0.279,-0.429 0.585,-0.841 0.837,-1.284c0.171,-0.301 0.265,-0.647 0.407,-0.966c0.036,-0.08 0.112,-0.171 0.19,-0.198c0.304,-0.105 0.488,-0.291 0.542,-0.618c0.01,-0.062 0.145,-0.095 0.205,-0.158c0.099,-0.102 0.173,-0.23 0.278,-0.324c0.299,-0.267 0.44,-0.607 0.601,-0.967c0.081,-0.181 0.366,-0.336 0.433,-0.607c0.012,-0.047 0.056,-0.119 0.09,-0.122c0.407,-0.036 0.566,-0.332 0.73,-0.646c0.163,-0.312 0.383,-0.595 0.531,-0.912c0.12,-0.259 0.247,-0.443 0.548,-0.523c0.141,-0.037 0.273,-0.221 0.349,-0.37c0.329,-0.647 0.769,-1.163 1.487,-1.39c0.069,-0.022 0.129,-0.08 0.184,-0.131c0.152,-0.142 0.296,-0.291 0.449,-0.432c0.117,-0.107 0.291,-0.181 0.353,-0.311c0.116,-0.244 0.282,-0.299 0.518,-0.26c0.026,0.004 0.054,0.005 0.08,0.005c0.166,-0.003 1.248,-0.873 1.36,-0.968c0.293,-0.248 0.623,-0.453 0.951,-0.657c0.164,-0.102 0.355,-0.161 0.533,-0.24c0.121,-0.054 0.246,-0.159 0.363,-0.152c0.595,0.037 1.198,-0.061 1.777,0.219c0.698,0.338 1.431,0.605 2.141,0.919c0.149,0.066 0.262,0.21 0.403,0.3c0.114,0.073 0.248,0.115 0.369,0.179c0.135,0.071 0.348,0.124 0.383,0.232c0.159,0.484 0.268,0.985 0.393,1.481c0.013,0.051 -0.016,0.124 0.011,0.158c0.321,0.397 0.172,0.674 -0.174,0.84c0.041,0.309 0.079,0.563 0.105,0.819c0.006,0.062 -0.006,0.168 -0.043,0.186c-0.369,0.179 -0.238,0.519 -0.284,0.808c-0.051,0.322 -0.052,0.59 0.169,0.886c0.083,0.111 -0.15,0.469 -0.258,0.706c-0.084,0.183 -0.239,0.343 -0.281,0.532c-0.023,0.102 0.097,0.285 0.203,0.357c0.305,0.209 0.368,0.43 0.155,0.727c-0.023,0.032 -0.072,0.057 -0.078,0.09c-0.065,0.404 -0.113,0.812 -0.189,1.214c-0.043,0.229 -0.128,0.451 -0.2,0.674c-0.015,0.047 -0.076,0.081 -0.084,0.127c-0.193,1.049 -0.381,2.098 -0.575,3.184Z" style="fill:#4ade80;fill-rule:nonzero;stroke:#22c55e;stroke-width:1px;"/></g></svg>