<?xml version="1.0" encoding="UTF-8" standalone="no"?><!DOCTYPE svg PUBLIC "-//W3C//DTD SVG 1.1//EN" "http://www.w3.org/Graphics/SVG/1.1/DTD/svg11.dtd"><svg width="100%" height="100%" viewBox="0 0 100 100" version="1.1" xmlns="http://www.w3.org/2000/svg" xmlns:xlink="http://www.w3.org/1999/xlink" xml:space="preserve" xmlns:serif="http://www.serif.com/" style="fill-rule:evenodd;clip-rule:evenodd;stroke-linejoin:round;stroke-miterlimit:2;"><rect id="_33_kanagawa_jogashima" serif:id="33_kanagawa_jogashima" x="0" y="0" width="100" height="100" style="fill:none;"/><path d="M80.697,66.435c-0.039,-0.04 -0.078,-0.081 -0.14,-0.15c-0.059,-0.041 -0.095,-0.054 -0.131,-0.066c0,0 -0.003,0.005 0.009,-0.017c-0.051,-0.156 -0.009,-0.365 -0.244,-0.373c0,0 0.002,-0.003 -0.005,-0.024c-0.055,-0.045 -0.102,-0.088 -0.151,-0.089c-0.302,-0.009 -0.613,0.04 -0.874,-0.173c0,0 0.003,-0.003 -0.003,-0.022c-0.232,-0.12 -0.458,-0.221 -0.684,-0.322c0,0 0.003,-0.002 0,-0.016c-0.021,-0.023 -0.039,-0.032 -0.057,-0.04c0,0 0.003,-0.002 -0.003,-0.02c-0.267,-0.161 -0.529,-0.305 -0.79,-0.448c0,0 0.002,0.005 0.011,-0.017c-0.122,-0.139 -0.247,-0.265 -0.388,-0.367c-0.051,-0.037 -0.158,-0.047 -0.212,-0.018c-0.437,0.233 -0.435,0.236 -0.735,-0.046c0,0 0.003,-0.002 -0.003,-0.02c-0.117,-0.056 -0.211,-0.296 -0.347,-0.049c0,0 0.001,0.005 -0.02,-0.003c-0.215,-0.057 -0.409,-0.107 -0.603,-0.156c0,0 0.003,-0.003 0.002,-0.024c-0.007,-0.519 -0.382,-0.701 -0.746,-0.891c0,0 0.003,-0.003 -0.003,-0.021c-0.098,-0.062 -0.191,-0.107 -0.283,-0.151c0,0 0.003,-0.003 -0.002,-0.02c-0.137,-0.138 -0.253,-0.328 -0.404,-0.363c-0.253,-0.058 -0.529,-0.017 -0.795,-0.018c0,0 0.003,-0.003 -0.004,-0.022c-0.318,-0.266 -0.292,0.104 -0.414,0.203c0,0 -0.019,0.014 -0.042,0.031c-0.248,0.161 -0.499,0.174 -0.747,0.124c-0.137,-0.028 -0.264,-0.108 -0.395,-0.165c0,0 0.003,-0.003 -0,-0.017c-0.021,-0.023 -0.039,-0.032 -0.057,-0.04c0,0 0.003,-0.002 -0,-0.017c-0.021,-0.023 -0.039,-0.032 -0.057,-0.04c0,0 0.003,-0.002 -0,-0.017c-0.021,-0.023 -0.039,-0.032 -0.057,-0.04c0,0 0.003,-0.002 0,-0.017c-0.021,-0.023 -0.039,-0.032 -0.057,-0.041c0,0 0.003,-0.002 0.002,-0.022c-0.089,-0.225 -0.185,-0.417 -0.464,-0.269c-0.346,-0.234 -0.755,-0.208 -1.141,-0.28c0,0 0.003,-0.003 -0.003,-0.021c-0.133,-0.063 -0.257,-0.126 -0.388,-0.149c-0.288,-0.05 -0.629,0.12 -0.858,-0.153c-0.19,-0.227 -0.422,-0.322 -0.693,-0.363c-0.093,-0.014 -0.194,0.013 -0.284,-0.01c-0.673,-0.169 -1.363,-0.101 -2.043,-0.164c-0.282,-0.026 -0.556,-0.141 -0.833,-0.221c-0.032,-0.009 -0.069,-0.048 -0.077,-0.08c-0.07,-0.263 -0.134,-0.528 -0.2,-0.792c0,0 0.003,0.003 0.017,-0c0.023,-0.021 0.032,-0.039 0.04,-0.057c0,0 0.002,0.003 0.02,-0.003c0.029,-0.068 0.068,-0.143 0.046,-0.19c-0.128,-0.278 -0.209,-0.621 -0.424,-0.804c-0.207,-0.176 -0.428,-0.341 -0.616,-0.543c0,0 0.003,-0.003 -0.003,-0.021c-0.22,-0.295 -0.018,-0.493 0.151,-0.656c0.199,-0.191 0.174,-0.381 0.1,-0.599c-0.077,-0.231 -0.22,-0.362 -0.478,-0.325c0,0 0.003,-0.003 0.002,-0.023c0.021,-0.177 0.043,-0.335 0.072,-0.545c-0.171,-0.135 -0.38,-0.299 -0.589,-0.463c0,0 0.003,-0.002 -0.002,-0.02c-0.079,-0.062 -0.153,-0.107 -0.227,-0.152c0,0 0.003,-0.003 -0.002,-0.021c-0.098,-0.062 -0.191,-0.107 -0.283,-0.151c0,0 0.003,-0.002 -0.003,-0.021c-0.043,-0.045 -0.078,-0.078 -0.119,-0.098c-0.745,-0.355 -1.53,-0.585 -2.338,-0.74c0,0 0.003,-0.003 -0.004,-0.022c-0.107,-0.029 -0.217,-0.071 -0.307,-0.044c-0.307,0.092 -0.601,0.092 -0.891,-0.049c0,0 0.003,-0.002 0,-0.016c-0.021,-0.023 -0.039,-0.032 -0.057,-0.041c0,0 0.003,-0.002 0.002,-0.024c-0.031,-0.283 -0.187,-0.345 -0.431,-0.325c-0.395,0.033 -0.793,0.028 -1.188,0.064c-0.504,0.046 -1.059,-0.06 -1.429,0.435c-0.013,0.017 -0.053,0.013 -0.081,0.017c-0.323,0.045 -0.636,0.118 -0.965,-0.031c-0.132,-0.06 -0.334,-0.009 -0.489,0.039c-0.229,0.071 -0.448,0.178 -0.666,0.281c-0.718,0.341 -1.433,0.688 -2.191,1.052c0.097,0.078 0.139,0.111 0.18,0.144c0,0 -0.003,0.002 -0.003,0.025c0.02,0.209 -0.065,0.279 -0.248,0.265c-0.15,-0.011 -0.302,-0.002 -0.469,-0.002c-0.028,0.1 -0.055,0.195 -0.081,0.29c-0,0 -0.003,-0.003 -0.017,0c-0.023,0.021 -0.032,0.039 -0.04,0.057c0,0 -0.003,-0.003 -0.017,-0c-0.023,0.021 -0.032,0.039 -0.04,0.057c0,0 -0.003,-0.003 -0.021,-0.003c-0.063,0.04 -0.107,0.078 -0.152,0.117c0,0 -0.002,-0.003 -0.021,-0.002c-0.044,0.039 -0.068,0.078 -0.093,0.116c0,0 -0.003,-0.003 -0.023,0.004c-0.273,0.04 -0.528,0.065 -0.779,0.109c-0.099,0.017 -0.191,0.076 -0.286,0.116c0,0 -0.002,-0.003 -0.02,-0.003c-0.063,0.04 -0.107,0.078 -0.152,0.117c0,-0 -0.002,-0.003 -0.02,-0.003c-0.063,0.039 -0.107,0.078 -0.152,0.117c0,0 -0.002,-0.003 -0.02,-0.003c-0.063,0.039 -0.107,0.078 -0.152,0.117c0,0 -0.002,-0.003 -0.02,-0.003c-0.063,0.039 -0.107,0.078 -0.152,0.117c0,0 -0.002,-0.003 -0.02,-0.003c-0.063,0.039 -0.107,0.078 -0.152,0.117c0,0 -0.002,-0.003 -0.02,-0.003c-0.063,0.039 -0.107,0.078 -0.152,0.117c0,0 -0.002,-0.003 -0.02,-0.003c-0.063,0.039 -0.107,0.078 -0.152,0.117c0,0 -0.002,-0.003 -0.02,-0.002c-0.063,0.039 -0.107,0.078 -0.152,0.117c0,0 -0.002,-0.003 -0.02,-0.002c-0.063,0.04 -0.107,0.078 -0.152,0.117c-0,-0 -0.002,-0.003 -0.02,-0.003c-0.082,0.059 -0.145,0.117 -0.209,0.175c0,0 -0.002,-0.004 -0.02,-0.003c-0.082,0.059 -0.145,0.117 -0.209,0.175c0,0 -0.002,-0.003 -0.016,-0c-0.023,0.021 -0.032,0.039 -0.041,0.057c0,0 -0.002,-0.003 -0.02,-0.002c-0.082,0.059 -0.145,0.116 -0.209,0.174c0,0 -0.002,-0.003 -0.021,-0.003c-0.191,0.115 -0.362,0.229 -0.55,0.354l0,0.621c0,0 -0.003,-0.003 -0.021,0.003c-0.161,0.058 -0.31,0.167 -0.443,0.151c-0.36,-0.043 -0.425,-0.023 -0.565,0.361c0,0 -0.003,-0.003 -0.017,-0c-0.023,0.021 -0.032,0.039 -0.04,0.057c0,0 -0.002,-0.003 -0.02,0.002c-0.12,0.079 -0.222,0.153 -0.324,0.227c0,0 -0.002,-0.003 -0.022,0.004c-0.153,0.04 -0.284,0.094 -0.419,0.103c-0.394,0.027 -0.818,0.134 -1.176,0.026c-0.404,-0.122 -0.785,-0.169 -1.192,-0.133c0,0 0.003,-0.002 -0.002,-0.02c-0.134,-0.18 -0.263,-0.341 -0.391,-0.503c0,0 -0.003,0.006 0.007,-0.018c-0.028,-0.046 -0.063,-0.075 -0.104,-0.089c-0.462,-0.159 -0.457,-0.159 -0.483,-0.662c-0.004,-0.086 -0.074,-0.168 -0.114,-0.252c0,0 0.004,-0.002 0.003,-0.023c-0.001,-0.066 -0.002,-0.11 -0.003,-0.155c0,0 0.003,0.003 0.017,0c0.023,-0.021 0.032,-0.039 0.04,-0.057c0,0 0.003,0.003 0.017,0c0.023,-0.021 0.032,-0.039 0.041,-0.057c0,0 0.002,0.003 0.022,0.002c0.044,-0.039 0.068,-0.078 0.093,-0.117c-0,0 0.003,0.003 0.022,-0.004c0.082,-0.04 0.151,-0.109 0.207,-0.1c0.335,0.058 0.474,-0.111 0.516,-0.411c0,0 0.001,0.003 0.021,0.002c0.12,-0.116 0.221,-0.231 0.322,-0.346c0,0 0.002,0.003 0.024,0.002c0.083,-0.249 0.144,-0.497 0.205,-0.745c0,0 0.002,0.003 0.021,-0.003c0.028,-0.086 0.055,-0.168 0.042,-0.244c-0.029,-0.169 -0.082,-0.334 -0.117,-0.502c-0.026,-0.126 -0.042,-0.254 -0.053,-0.381c-0.021,-0.237 -0.176,-0.247 -0.327,-0.164c-0.294,0.163 -0.58,0.215 -0.883,0.041c0,0 0.003,-0.003 -0.001,-0.019c-0.04,-0.043 -0.077,-0.069 -0.114,-0.096c0,0 0.003,-0.002 0.003,-0.023c-0.059,-0.14 -0.116,-0.259 -0.174,-0.378c0,0 0.003,-0.002 -0.005,-0.022c-0.112,-0.045 -0.227,-0.109 -0.319,-0.085c-0.244,0.063 -0.424,-0.023 -0.592,-0.178c0,0 0.003,-0.002 0,-0.016c-0.021,-0.023 -0.039,-0.032 -0.057,-0.041c0,0 0.003,-0.002 0.002,-0.021c-0.078,-0.12 -0.155,-0.221 -0.232,-0.323c0,0 0.003,-0.002 0.002,-0.021c-0.135,-0.177 -0.269,-0.335 -0.403,-0.493c0,0 0.003,-0.003 -0.005,-0.023c-0.065,-0.045 -0.127,-0.098 -0.179,-0.089c-0.336,0.054 -0.404,-0.118 -0.393,-0.407c0.003,-0.073 -0.095,-0.192 -0.171,-0.218c-0.181,-0.063 -0.377,-0.083 -0.568,-0.121c0,0 0.003,-0.003 -0.002,-0.02c-0.079,-0.062 -0.153,-0.107 -0.227,-0.152c0,0 0.003,-0.003 -0,-0.017c-0.021,-0.023 -0.039,-0.032 -0.057,-0.04c0,0 0.003,-0.002 -0.002,-0.02c-0.079,-0.12 -0.153,-0.222 -0.227,-0.323c0,0 0.003,-0.002 0.003,-0.022c-0.071,-0.077 -0.201,-0.188 -0.204,-0.185c-0.214,0.237 -0.472,0.069 -0.707,0.084c0,0 0.004,0.003 0.013,-0.018c-0.153,-0.177 -0.316,-0.333 -0.479,-0.488c0,0 0.003,-0.002 -0.003,-0.021c-0.061,-0.034 -0.116,-0.059 -0.171,-0.062c-0.247,-0.015 -0.495,-0.024 -0.742,-0.034c-0.067,-0.003 -0.166,-0.027 -0.197,0.007c-0.189,0.206 -0.366,0.423 -0.539,0.643c-0.036,0.046 -0.026,0.157 -0.063,0.171c-0.206,0.077 -0.157,0.243 -0.174,0.398c-0.012,0.113 -0.07,0.22 -0.108,0.33c0,0 -0.002,-0.003 -0.024,-0.003c-0.064,0.071 -0.133,0.137 -0.143,0.211c-0.021,0.155 -0.01,0.314 -0.012,0.471c0,0 0.004,-0.002 -0.019,-0.009c-0.029,0.017 -0.034,0.041 -0.04,0.064c0,0 0.007,0.004 -0.016,-0.005c-0.029,0.015 -0.035,0.038 -0.041,0.062c0,0 0.007,-0.001 -0.018,-0.009c-0.342,0.097 -0.459,0.327 -0.43,0.647c0.002,0.019 0,0.038 0,0.057c0,0 -0.002,-0.003 -0.021,0.003c-0.122,0.059 -0.228,0.106 -0.327,0.165c-0.082,0.048 -0.156,0.11 -0.234,0.166c0,0 0.008,0.001 -0.016,-0.009c-0.06,0.021 -0.095,0.052 -0.131,0.083c-0.244,0.213 -0.69,0.134 -0.793,0.551c-0.295,0.042 -0.583,0.152 -0.888,0.039c-0.243,-0.09 -0.302,-0.232 -0.129,-0.426c0.074,-0.083 0.207,-0.112 0.304,-0.178c0.065,-0.045 0.114,-0.113 0.17,-0.171c0,0 0.002,0.003 0.02,-0.003c0.12,-0.079 0.222,-0.153 0.323,-0.227c0,0 0.002,0.003 0.019,-0.002c0.085,-0.095 0.153,-0.184 0.221,-0.274c0,0 -0.003,-0.004 0.017,0.006c0.283,-0.059 0.495,-0.165 0.433,-0.503c-0.032,-0.174 -0.03,-0.354 -0.066,-0.527c-0.014,-0.068 -0.094,-0.175 -0.139,-0.172c-0.105,0.005 -0.207,0.066 -0.31,0.104c0,0 -0.002,-0.003 -0.022,-0.002c-0.273,0.077 -0.526,0.152 -0.778,0.232c-0.042,0.013 -0.073,0.057 -0.115,0.077c-0.146,0.071 -0.294,0.138 -0.441,0.206c-0.065,0.03 -0.13,0.062 -0.197,0.087c-0.136,0.05 -0.271,0.102 -0.41,0.14c-0.176,0.048 -0.355,0.086 -0.534,0.123c-0.156,0.032 -0.313,0.078 -0.469,0.077c-0.145,-0 -0.293,-0.091 -0.433,-0.076c-0.322,0.033 -0.48,-0.153 -0.622,-0.388c-0.048,-0.079 -0.1,-0.159 -0.162,-0.226c-0.253,-0.271 -0.219,-0.41 0.136,-0.538c0.043,-0.016 0.096,-0.023 0.127,-0.053c0.054,-0.052 0.122,-0.115 0.131,-0.181c0.006,-0.044 -0.069,-0.123 -0.125,-0.148c-0.168,-0.076 -0.355,-0.113 -0.513,-0.203c-0.18,-0.102 -0.236,0.002 -0.297,0.128c-0.136,0.284 -0.357,0.347 -0.615,0.183c-0.083,-0.053 -0.181,-0.084 -0.272,-0.125c0,0 0.003,-0.003 -0.003,-0.021c-0.058,-0.116 -0.119,-0.21 -0.159,-0.313c-0.112,-0.284 -0.329,-0.338 -0.584,-0.125c0.062,0.076 0.124,0.153 0.174,0.215c-0.068,0.071 -0.121,0.125 -0.173,0.18c0,0 0.006,0.002 -0.018,-0.009c-0.024,0.121 -0.024,0.253 -0.024,0.451c-0.287,0.021 -0.626,0.105 -0.942,0.052c-0.369,-0.062 -0.717,-0.244 -1.074,-0.374c0,0 0.003,-0.003 -0,-0.017c-0.021,-0.023 -0.039,-0.032 -0.057,-0.041c0,0 0.003,-0.002 0.002,-0.024c-0.039,-0.183 -0.055,-0.354 -0.122,-0.502c-0.048,-0.108 -0.147,-0.218 -0.252,-0.27c-0.206,-0.103 -0.431,-0.166 -0.648,-0.245c0,0 -0.005,0.006 0.011,-0.012c-0.016,-0.043 -0.047,-0.067 -0.079,-0.091c0,0 0.003,-0.002 0,-0.016c-0.021,-0.023 -0.039,-0.032 -0.057,-0.04c0,0 0.003,-0.002 -0,-0.017c-0.021,-0.023 -0.039,-0.032 -0.057,-0.041c0,0 0.003,-0.002 0.002,-0.022c-0.039,-0.122 -0.078,-0.224 -0.116,-0.326c0,0 0.002,0.003 0.021,-0.004c0.143,-0.122 0.123,-0.203 -0.028,-0.283c-0.194,-0.103 -0.378,-0.224 -0.566,-0.338c0,0 0.003,-0.002 0.003,-0.021c-0.097,-0.139 -0.193,-0.259 -0.289,-0.379c0,0 0.003,-0.002 0,-0.016c-0.021,-0.023 -0.039,-0.032 -0.057,-0.041c0,0 0.003,-0.002 -0.004,-0.022c-0.202,-0.128 -0.391,-0.168 -0.563,0.023c0,0 -0.002,-0.003 -0.021,0.004c-0.175,0.282 -0.109,0.405 0.251,0.506c0,0 -0.003,0.002 0.002,0.02c0.06,0.043 0.115,0.068 0.17,0.094c0,0 -0.003,0.003 0,0.017c0.021,0.023 0.039,0.032 0.057,0.04c0,0 -0.003,0.002 -0.003,0.024c-0.038,0.226 -0.097,0.429 -0.108,0.634c-0.011,0.199 0.028,0.4 0.045,0.6c0,0 0.003,-0.003 -0.023,-0.009c-0.121,0.02 -0.219,0.07 -0.313,0.064c-0.183,-0.012 -0.283,0.045 -0.286,0.236c0,0 -0.003,-0.003 -0.017,0c-0.023,0.021 -0.032,0.039 -0.041,0.057c-0,0 -0.002,-0.003 -0.021,0.003c-0.028,0.039 -0.039,0.071 -0.049,0.104c0,0 0.007,0.002 -0.012,-0.013c-0.043,0.016 -0.067,0.047 -0.091,0.078c0,0 -0.002,-0.003 -0.022,-0.003c-0.223,0.13 -0.424,0.246 -0.682,0.138c-0.026,-0.011 -0.101,0.097 -0.153,0.15c0,0 -0.003,-0.003 -0.021,0.003c-0.158,0.079 -0.298,0.152 -0.437,0.226c0,0 -0.001,-0.003 -0.02,-0.002c-0.082,0.059 -0.145,0.117 -0.209,0.175c0,0 -0.002,-0.003 -0.028,-0.003c-0.274,-0.002 -0.523,-0.004 -0.772,-0.007c0,0 0.002,0.004 0.009,-0.018c-0.017,-0.029 -0.041,-0.035 -0.064,-0.04c0,0 -0.004,0.008 0.005,-0.016c-0.015,-0.03 -0.038,-0.036 -0.062,-0.042c0,0 0.003,0.005 0.01,-0.018c-0.125,-0.102 -0.255,-0.183 -0.389,-0.258c-0.101,-0.057 -0.21,-0.101 -0.31,-0.16c-0.129,-0.076 -0.243,-0.201 -0.381,-0.234c-0.371,-0.088 -0.505,-0.224 -0.545,-0.589c-0.009,-0.08 -0.114,-0.211 -0.176,-0.212c-0.451,-0.004 -0.86,-0.136 -1.246,-0.353c-0.191,-0.107 -0.331,-0.043 -0.486,0.122c0.076,0.062 0.139,0.112 0.202,0.163c0,0 -0.003,0.002 -0.003,0.026c-0.045,0.084 -0.083,0.185 -0.138,0.195c-0.117,0.021 -0.244,0.004 -0.364,-0.015c-0.271,-0.043 -0.508,-0.036 -0.779,0.1c-0.261,0.131 -0.596,0.126 -0.902,0.15c-0.179,0.014 -0.387,-0.136 -0.506,0.121c0,0 -0.002,-0.003 -0.02,-0.003c-0.063,0.04 -0.107,0.078 -0.152,0.117c-0,0 -0.002,-0.003 -0.025,-0.003c-0.313,0.039 -0.605,0.078 -0.896,0.117c0,0 0.003,-0.003 -0.003,-0.021c-0.039,-0.028 -0.072,-0.037 -0.105,-0.047c0,0 -0.004,0.004 0.006,-0.018c-0.246,-0.101 -0.501,-0.179 -0.757,-0.257c0,0 0.003,-0.003 -0.003,-0.021c-0.246,-0.185 -0.266,-0.421 -0.19,-0.679c-0.156,-0.077 -0.297,-0.147 -0.437,-0.216c0,0 0.004,-0.002 -0,-0.018c-0.041,-0.043 -0.077,-0.07 -0.114,-0.096c0,0 0.003,-0.002 0,-0.017c-0.021,-0.023 -0.039,-0.032 -0.057,-0.04c0,-0 0.003,-0.002 0,-0.017c-0.021,-0.023 -0.039,-0.032 -0.057,-0.041c0,0 0.003,-0.002 0.002,-0.022c-0.154,-0.235 -0.307,-0.45 -0.46,-0.665c-0,0 0.003,-0.002 0.003,-0.022c-0.234,-0.302 -0.212,-0.604 -0.12,-0.939c0.11,-0.398 0.236,-0.528 0.65,-0.529c0.104,-0 0.208,-0.002 0.312,-0c0.238,0.004 0.392,-0.092 0.415,-0.346c0,0 0.003,0.003 0.024,0.003c0.185,-0.072 0.327,-0.094 0.474,0.063c0.237,0.252 0.422,0.22 0.603,-0.105c0.109,-0.196 0.355,-0.174 0.397,-0.107c0.165,0.263 0.314,0.083 0.471,0.033c0.052,-0.017 0.116,-0.064 0.153,-0.047c0.316,0.139 0.332,-0.108 0.396,-0.297c0,0 0.003,0.003 0.024,0.003c0.461,-0.199 0.657,-0.147 0.963,0.234c0.034,0.043 0.122,0.042 0.205,0.068c0.03,-0.335 0.087,-0.614 0.503,-0.536c0.037,0.007 0.091,-0.072 0.137,-0.112c0,0 0.002,0.003 0.022,0.003c0.192,-0.202 0.367,-0.223 0.56,-0.024c0.144,0.148 0.301,0.283 0.453,0.423c0,0 -0.003,0.002 -0.002,0.022c0.039,0.123 0.072,0.229 0.117,0.329c0.099,0.223 0.505,0.33 0.632,0.171c0,0 -0.007,-0.002 0.015,0.01c0.083,-0.074 0.144,-0.161 0.205,-0.248c0,0 0.003,0.003 0.021,-0.002c0.174,-0.144 0.166,-0.374 0.024,-0.416c-0.486,-0.146 -0.446,-0.394 -0.216,-0.725c0,0 0.003,0.003 0.017,-0c0.023,-0.021 0.032,-0.039 0.04,-0.057c0,0 0.002,0.003 0.02,-0.002c0.175,-0.351 0.53,-0.417 0.825,-0.552c0.151,-0.069 0.249,-0.102 0.137,-0.268c-0.088,-0.131 -0.054,-0.398 -0.362,-0.292c-0.232,0.08 -0.485,0.1 -0.728,0.146c-0.081,0.015 -0.202,-0.002 -0.237,0.045c-0.182,0.248 -0.446,0.216 -0.673,0.172c-0.272,-0.052 -0.428,0.064 -0.58,0.243c0,0 -0.002,-0.003 -0.026,-0.003c-0.161,-0.018 -0.303,-0.019 -0.434,-0.058c-0.364,-0.109 -0.505,-0.168 -0.731,0.219c-0.158,0.014 -0.283,0.023 -0.407,0.036c-0.267,0.028 -0.534,0.058 -0.8,0.088c-0.146,0.016 -0.294,0.025 -0.437,0.055c-0.213,0.045 -0.42,0.139 -0.633,0.152c-0.197,0.011 -0.398,-0.072 -0.6,-0.085c-0.072,-0.005 -0.149,0.072 -0.223,0.112c0,0 -0.002,-0.003 -0.016,-0c-0.023,0.021 -0.032,0.039 -0.041,0.057c0,0 -0.002,-0.003 -0.017,-0c-0.023,0.021 -0.032,0.039 -0.04,0.057c0,0 -0.002,-0.003 -0.021,0.002c-0.149,0.266 -0.326,0.343 -0.594,0.179c-0.088,-0.054 -0.212,-0.061 -0.321,-0.067c-0.375,-0.022 -0.547,0.252 -0.724,0.515c0,0 -0.002,-0.003 -0.025,-0.003c-0.237,0.02 -0.452,0.039 -0.667,0.059c0,0 0.003,-0.003 -0.006,-0.022c-0.133,-0.044 -0.283,-0.124 -0.378,-0.082c-0.351,0.156 -0.671,0.121 -0.99,-0.067c0,0 0.003,-0.003 0,-0.017c-0.021,-0.023 -0.039,-0.032 -0.057,-0.04c-0,0 0.003,-0.002 -0.003,-0.021c-0.096,-0.192 -0.246,-0.36 -0.265,-0.54c-0.074,-0.723 -0.497,-1.024 -1.169,-1.148c-0.428,-0.08 -0.416,-0.131 -0.401,-0.572c0.002,-0.061 -0.033,-0.123 -0.051,-0.184c-0,0 0.003,0.003 0.022,-0.004c0.024,-0.135 0.029,-0.263 0.034,-0.392c0,0 0.003,-0.002 0,-0.016c-0.021,-0.023 -0.039,-0.032 -0.057,-0.04c0,0 0.003,-0.003 0.003,-0.025c-0.025,-0.238 0.021,-0.481 -0.232,-0.605c0,0 0.003,-0.002 0,-0.016c-0.021,-0.023 -0.039,-0.032 -0.057,-0.041c-0,0 0.003,-0.002 -0.003,-0.021c-0.008,-0.086 -0.035,-0.198 -0.008,-0.212c0.13,-0.071 0.275,-0.115 0.414,-0.171c0.115,-0.047 0.302,-0.074 0.33,-0.154c0.095,-0.274 0.269,-0.325 0.519,-0.287c0.036,0.005 0.081,-0.049 0.121,-0.076c-0,0 0.003,0.003 0.017,-0c0.023,-0.021 0.032,-0.039 0.04,-0.057c0,0 0.002,0.003 0.021,-0.003c0.281,-0.29 0.345,-0.631 0.152,-0.939c-0.127,-0.203 -0.13,-0.393 -0.059,-0.603c0,0 0.002,0.003 0.021,-0.003c0.161,-0.173 0.337,-0.238 0.56,-0.228c0.172,0.007 0.348,-0.023 0.518,-0.057c0.056,-0.011 0.1,-0.085 0.149,-0.131c-0.054,-0.049 -0.108,-0.099 -0.161,-0.148c0,0 0.003,-0.002 -0.002,-0.02c-0.06,-0.043 -0.115,-0.069 -0.169,-0.095c0,-0 0.003,-0.003 -0.005,-0.021c-0.426,-0.077 -0.582,-0.322 -0.51,-0.728c0,0 0.003,0.003 0.022,0.002c0.037,-0.004 0.065,-0.001 0.072,-0.012c0.296,-0.466 0.836,-0.138 1.203,-0.369c0.242,0.155 0.615,0.046 0.769,0.379c0,0 -0.003,0.002 -0.002,0.023c0.031,0.103 0.062,0.186 0.097,0.28c0.06,-0.024 0.118,-0.028 0.14,-0.058c0.248,-0.338 0.557,-0.36 0.909,-0.187c0,0 -0.003,0.002 0,0.017c0.021,0.023 0.039,0.032 0.057,0.04c0,-0 -0.003,0.002 -0,0.017c0.021,0.023 0.039,0.032 0.057,0.04c0,0 -0.003,0.002 0.002,0.021c0.101,0.012 0.204,0.026 0.291,-0.004c0.276,-0.094 0.545,-0.141 0.806,0.034c0.179,0.119 0.271,0.094 0.344,-0.128c0.106,-0.323 0.372,-0.411 0.67,-0.263c0.116,0.058 0.231,0.116 0.347,0.174c0.001,-0.029 0.002,-0.058 0.003,-0.087c0.165,-0.011 0.33,-0.021 0.495,-0.034c0.064,-0.005 0.128,-0.025 0.192,-0.028c0.187,-0.01 0.374,-0.014 0.566,-0.007c0.026,0.033 0.047,0.053 0.083,0.089c0.282,0.081 0.398,0.013 0.452,-0.273c-0.343,-0.064 -0.683,-0.143 -1.028,-0.189c-0.523,-0.07 -1.01,-0.332 -1.557,-0.278c-0.097,0.01 -0.199,-0.033 -0.299,-0.051c0,0 0.003,-0.002 -0.003,-0.021c-0.229,-0.123 -0.451,-0.228 -0.674,-0.333c0,0 -0.004,0.006 0.011,-0.012c-0.016,-0.043 -0.047,-0.067 -0.079,-0.092c0,0 0.004,-0.002 0.003,-0.021c0.022,-0.137 0.045,-0.255 0.068,-0.373c0,0 -0.002,-0.005 0.019,0.004c0.286,-0.075 0.542,-0.08 0.775,0.1c0,0 -0.003,0.002 -0,0.016c0.021,0.023 0.039,0.032 0.057,0.041c0,0 -0.003,0.002 -0.002,0.022c0.109,0.137 0.218,0.252 0.34,0.034c0,0 0.002,0.003 0.016,0c0.023,-0.021 0.032,-0.039 0.04,-0.057c0,0 0.003,0.003 0.017,0c0.023,-0.021 0.032,-0.039 0.041,-0.057c0,0 0.002,0.003 0.024,0.002c0.218,-0.039 0.414,-0.078 0.611,-0.116c0,0 -0.003,0.003 0,0.017c0.021,0.023 0.039,0.032 0.057,0.04c0,0 -0.003,0.002 0.002,0.02c0.079,0.062 0.153,0.107 0.227,0.152c0,0 -0.003,0.002 0.003,0.021c0.093,0.139 0.185,0.188 0.339,0.104c0.068,-0.037 0.199,-0.025 0.268,0.018c0.229,0.144 0.454,0.177 0.744,0.024c-0.093,-0.133 -0.183,-0.263 -0.273,-0.392c-0,0 0.003,-0.002 0,-0.016c-0.021,-0.023 -0.039,-0.032 -0.057,-0.041c0,0 0.003,-0.002 -0,-0.017c-0.021,-0.023 -0.039,-0.032 -0.057,-0.041c0,0 0.003,-0.002 -0,-0.017c-0.021,-0.023 -0.039,-0.032 -0.057,-0.041c0,0 0.003,-0.002 -0,-0.017c-0.021,-0.023 -0.039,-0.032 -0.057,-0.041c-0,0 0.003,-0.002 -0.005,-0.023c-0.15,-0.045 -0.295,-0.1 -0.434,-0.089c-0.365,0.03 -0.689,0.015 -0.809,-0.419c-0.005,-0.019 -0.045,-0.028 -0.068,-0.042c0,0 0.003,-0.002 0,-0.016c-0.021,-0.023 -0.039,-0.032 -0.057,-0.04c0,0 0.003,-0.003 0.003,-0.023c0.043,-0.117 0.082,-0.215 0.131,-0.307c0.045,-0.085 0.102,-0.165 0.153,-0.247c0,0 0.003,0.003 0.017,-0c0.023,-0.021 0.032,-0.039 0.04,-0.057c0,0 0.002,0.003 0.021,-0.003c0.139,-0.194 0.26,-0.382 0.381,-0.57c0,0 0.002,0.003 0.019,-0.001c0.043,-0.06 0.069,-0.115 0.094,-0.17c0,0 0.003,0.003 0.024,0.002c0.142,0.037 0.262,0.074 0.383,0.112c0,0 -0.003,0.003 -0.002,0.024c0.063,0.267 0.196,0.314 0.436,0.224c0.113,-0.043 0.273,0.002 0.4,0.043c0.143,0.046 0.274,0.133 0.41,0.202c0.084,-0.216 -0.066,-0.465 -0.334,-0.544c0,0 0.003,-0.002 -0.003,-0.021c-0.343,-0.219 -0.68,-0.42 -1.017,-0.62c0,0 -0.005,0.005 0.011,-0.012c-0.016,-0.042 -0.047,-0.066 -0.079,-0.091c0,0 0.003,-0.002 0.003,-0.024c0.016,-0.275 -0.069,-0.366 -0.517,-0.433c0,0 0.003,-0.003 -0.002,-0.02c-0.06,-0.043 -0.115,-0.069 -0.17,-0.095c0,0 0.003,-0.002 -0.003,-0.02c-0.098,-0.081 -0.191,-0.145 -0.284,-0.209c0,0 0.003,-0.003 -0.005,-0.021c-0.156,-0.062 -0.304,-0.106 -0.452,-0.15c0,0 0.003,-0.003 -0,-0.017c-0.021,-0.023 -0.039,-0.032 -0.057,-0.04c0,0 0.003,-0.003 0,-0.017c-0.021,-0.023 -0.039,-0.032 -0.057,-0.04c0,0 0.003,-0.003 -0.003,-0.021c-0.205,-0.101 -0.403,-0.187 -0.604,-0.266c-0.158,-0.062 -0.32,-0.115 -0.48,-0.172c0,0 0.003,-0.002 0,-0.016c-0.021,-0.023 -0.039,-0.032 -0.057,-0.041c0,0 0.003,-0.002 0.002,-0.022c-0.072,-0.401 -0.413,-0.466 -0.689,-0.607c0,0 0.003,-0.003 -0,-0.017c-0.021,-0.023 -0.039,-0.032 -0.057,-0.041c0,0 0.003,-0.002 -0,-0.017c-0.021,-0.023 -0.039,-0.032 -0.057,-0.041c0,0 0.003,-0.002 -0,-0.017c-0.021,-0.023 -0.039,-0.032 -0.057,-0.04c0,0 0.003,-0.002 0,-0.017c-0.021,-0.023 -0.039,-0.032 -0.057,-0.04c0,0 0.003,-0.002 0.002,-0.022c-0.196,-0.392 -0.579,-0.497 -0.918,-0.664c0,0 0.003,-0.003 -0.003,-0.022c-0.078,-0.163 -0.18,-0.301 -0.215,-0.454c-0.037,-0.16 -0.01,-0.334 -0.01,-0.502c-0,0 0.002,0.003 0.021,-0.003c0.243,-0.29 0.467,-0.298 0.713,-0.04c0.046,0.049 0.123,0.068 0.186,0.101c0,0 -0.003,0.003 0.003,0.021c0.099,0.014 0.237,0.046 0.277,-0.002c0.161,-0.197 0.323,-0.167 0.508,-0.058c0.037,0.022 0.085,0.026 0.128,0.039c0,0 -0.003,0.003 0,0.017c0.021,0.023 0.039,0.032 0.057,0.04c0,0 -0.003,0.003 0.005,0.023c0.27,0.082 0.533,0.144 0.796,0.206c0,0 -0.003,0.003 -0.002,0.023c0.073,0.102 0.134,0.234 0.22,0.253c0.168,0.037 0.349,0.01 0.525,0.01c0,0 -0.003,0.003 0,0.017c0.021,0.023 0.039,0.032 0.057,0.041c-0,0 -0.003,0.002 0.002,0.02c0.087,0.119 0.162,0.226 0.252,0.321c0.048,0.051 0.144,0.128 0.177,0.111c0.309,-0.157 0.548,0.12 0.827,0.12c0,0 -0.003,0.002 0.003,0.021c0.039,0.028 0.072,0.038 0.104,0.048c0,0 0.002,-0.006 -0.014,0.012c0.016,0.043 0.047,0.067 0.078,0.092c-0,0 -0.003,0.002 -0,0.016c0.021,0.023 0.039,0.032 0.057,0.04c0,0 -0.003,0.002 -0,0.017c0.021,0.023 0.039,0.032 0.057,0.04c0,0 -0.003,0.003 0.005,0.023c0.122,0.046 0.243,0.056 0.351,0.099c0.245,0.098 0.621,0.156 0.694,0.333c0.136,0.327 0.338,0.288 0.575,0.292c0.215,0.004 0.386,0.037 0.384,0.326c-0.001,0.154 0.112,0.231 0.302,0.258c0.287,0.041 0.641,0.089 0.823,0.274c0.226,0.232 0.443,0.226 0.7,0.225c0,0 -0.003,0.002 0.002,0.02c0.098,0.081 0.191,0.145 0.284,0.209c0,0 -0.003,0.003 0.003,0.021c0.114,0.066 0.223,0.114 0.332,0.162c0,0 0.005,-0.007 -0.005,0.016c0.014,0.028 0.038,0.035 0.061,0.041c0,0 0.005,-0.008 -0.004,0.016c0.015,0.029 0.039,0.034 0.063,0.04c0,0 -0.003,-0.004 -0.009,0.02c0.47,0.272 0.48,0.27 0.584,-0.086c0,0 0.002,0.003 0.021,-0.003c0.291,-0.537 0.565,-1.068 0.838,-1.599c0,0 0.002,0.003 0.021,-0.003c0.076,-0.1 0.155,-0.188 0.186,-0.291c0.062,-0.207 0.201,-0.251 0.385,-0.218c0.602,0.111 1.203,0.232 1.806,0.336c0.141,0.024 0.287,0.042 0.386,-0.145c0.043,-0.081 0.229,-0.141 0.338,-0.125c0.532,0.079 1.061,0.183 1.59,0.284c1.075,0.205 2.149,0.417 3.224,0.621c0.948,0.18 1.899,0.347 2.847,0.528c0.847,0.162 1.691,0.34 2.538,0.502c1.11,0.212 2.223,0.415 3.358,0.626c0.124,0.023 0.224,0.042 0.324,0.062c1.045,0.21 2.089,0.422 3.134,0.628c0.14,0.027 0.184,0.049 0.134,0.217c-0.272,0.913 -0.52,1.833 -0.783,2.749c-0.052,0.183 -0.042,0.275 0.183,0.303c0.414,0.051 0.823,0.141 1.236,0.206c0.542,0.086 1.084,0.212 1.63,0.229c0.369,0.012 0.746,-0.121 1.112,-0.219c0.107,-0.029 0.232,-0.143 0.27,-0.247c0.248,-0.687 0.483,-1.379 0.702,-2.076c0.069,-0.219 0.186,-0.263 0.391,-0.248c0.657,0.048 1.315,0.094 1.973,0.116c0.9,0.031 1.801,0.04 2.701,0.058c0.047,0.001 0.095,0.008 0.142,0.008c0.601,0.001 1.203,0 1.801,0c0.023,-0.125 0.049,-0.262 0.101,-0.402c0.649,-0.003 1.272,-0.002 1.894,-0.006c0.086,-0.001 0.172,-0.035 0.284,-0.055c0.802,-0.002 1.577,-0.002 2.343,-0.002c0.157,0.318 0.693,0.404 0.921,0.16c0.021,-0.022 0.014,-0.07 0.02,-0.105c0,0 0.002,0.003 0.02,-0.002c0.062,-0.079 0.107,-0.153 0.152,-0.227c0,0 0.003,0.003 0.017,-0c0.023,-0.021 0.032,-0.039 0.04,-0.057c0,0 0.002,0.003 0.02,-0.003c0.029,-0.039 0.039,-0.071 0.049,-0.104c0,0 -0.007,0 0.014,0.011c0.12,-0.094 0.218,-0.2 0.317,-0.306c0,0 0.002,0.003 0.016,0c0.023,-0.021 0.032,-0.039 0.041,-0.057c0,0 0.002,0.003 0.02,0.002c0.063,-0.04 0.107,-0.078 0.152,-0.117c0,0 0.002,0.003 0.022,0.002c0.063,-0.019 0.107,-0.034 0.148,-0.055c0.608,-0.31 1.22,-0.489 1.925,-0.302c0.392,0.104 0.828,0.091 1.24,0.062c0.462,-0.032 0.917,-0.152 1.378,-0.21c0.136,-0.017 0.398,0.029 0.405,0.078c0.037,0.231 0.174,0.372 0.319,0.528c0.042,0.045 0.005,0.163 0.004,0.248c0,0 -0.003,-0.003 -0.02,0.002c-0.132,0.099 -0.109,0.17 0.021,0.222c0,0 -0.004,0.002 -0.003,0.024c-0.095,0.282 0.012,0.383 0.271,0.445c0.44,0.104 0.868,0.256 1.303,0.381c0.136,0.039 0.312,0.05 0.247,0.25c-0.051,0.157 -0.056,0.399 -0.345,0.337c-0.095,-0.021 -0.195,-0.016 -0.301,-0.023c-0.066,0.231 -0.135,0.45 -0.188,0.674c-0.012,0.052 0.024,0.166 0.049,0.169c0.324,0.042 0.169,0.268 0.159,0.422c-0.008,0.14 -0.058,0.278 -0.102,0.474c1.181,0.063 2.33,0.123 3.486,0.185c0,0.448 0.008,0.867 -0.003,1.285c-0.006,0.209 0.037,0.293 0.278,0.31c0.425,0.03 0.845,0.127 1.268,0.191c0.589,0.089 1.178,0.174 1.78,0.281c0.168,0.044 0.323,0.078 0.48,0.088c0.164,0.01 0.349,0.044 0.427,-0.172c0,0 0.002,0.003 0.016,0c0.023,-0.021 0.032,-0.039 0.041,-0.057c0,-0 0.002,0.003 0.024,0.003c0.086,0.011 0.157,0.009 0.213,0.037c0.553,0.28 1.104,0.564 1.653,0.846c-0.04,0.127 -0.076,0.238 -0.111,0.348c0.697,0.319 1.379,0.634 2.062,0.944c0.565,0.257 1.137,0.501 1.697,0.769c0.155,0.074 0.279,0.212 0.417,0.321c0,0 -0.003,-0.003 -0.02,0.002c-0.043,0.06 -0.069,0.115 -0.094,0.17c0,0 -0.003,-0.003 -0.02,0.002c-0.043,0.06 -0.069,0.115 -0.095,0.169c-0,-0 -0.002,-0.003 -0.02,0.003c-0.215,0.346 -0.412,0.687 -0.609,1.027c0,0 -0.002,-0.003 -0.021,0.003c-0.139,0.232 -0.259,0.458 -0.38,0.684c0,0 -0.002,-0.003 -0.021,0.003c-0.139,0.232 -0.259,0.458 -0.38,0.684c0,0 -0.002,-0.003 -0.021,0.003c-0.077,0.105 -0.141,0.201 -0.19,0.305c-0.007,0.015 0.057,0.063 0.088,0.096c0,0 0.006,-0.003 -0.007,0.018c0.227,0.152 0.464,0.292 0.712,0.406c0.048,0.022 0.141,-0.057 0.214,-0.09c0,0 0.002,0.003 0.019,-0.002c0.062,-0.079 0.107,-0.153 0.152,-0.227c0,0 0.003,0.003 0.021,-0.003c0.101,-0.155 0.183,-0.305 0.266,-0.455c0,0 0.002,0.003 0.02,-0.002c0.062,-0.098 0.107,-0.191 0.151,-0.284c0,0 0.002,0.003 0.02,-0.003c0.139,-0.213 0.259,-0.42 0.38,-0.627c0,0 0.002,0.003 0.02,-0.003c0.193,-0.271 0.368,-0.536 0.588,-0.87c0.123,0.166 0.217,0.293 0.312,0.42c0,0 -0.002,-0.003 -0.021,0.003c-0.158,0.251 -0.298,0.496 -0.437,0.741c0,0 -0.002,-0.003 -0.02,0.003c-0.062,0.098 -0.107,0.191 -0.151,0.283c0,0 -0.002,-0.003 -0.02,0.003c-0.101,0.155 -0.183,0.305 -0.266,0.455c-0,-0 -0.003,-0.003 -0.021,0.002c-0.081,0.106 -0.144,0.207 -0.214,0.318c0.31,0.144 0.61,0.281 0.907,0.423c0.194,0.093 0.268,0 0.295,-0.177c0,0 0.003,0.003 0.017,-0c0.023,-0.021 0.032,-0.039 0.04,-0.057c0,0 0.002,0.003 0.02,-0.002c0.082,-0.117 0.145,-0.229 0.209,-0.341c0,0 0.002,0.003 0.02,-0.003c0.062,-0.098 0.107,-0.191 0.151,-0.283c0,0 0.002,0.003 0.02,-0.003c0.062,-0.098 0.107,-0.191 0.151,-0.283c0,0 0.002,0.003 0.02,-0.003c0.062,-0.098 0.107,-0.191 0.151,-0.283c0,0 0.002,0.003 0.02,-0.003c0.062,-0.098 0.107,-0.191 0.151,-0.283c0,0 0.002,0.003 0.02,-0.003c0.062,-0.098 0.107,-0.191 0.151,-0.283c0,0 0.002,0.003 0.02,-0.003c0.062,-0.098 0.107,-0.191 0.151,-0.283c0,0 0.002,0.003 0.02,-0.002c0.043,-0.06 0.069,-0.115 0.095,-0.169c0,0 0.002,0.003 0.02,-0.002c0.062,-0.03 0.136,-0.088 0.149,-0.076c0.284,0.251 0.578,0.065 0.863,0.019c0.206,-0.033 0.405,-0.156 0.607,-0.154c0.219,0.002 0.437,0.1 0.656,0.157c0,0 -0.003,0.003 0.002,0.02c0.06,0.043 0.115,0.069 0.17,0.095c0,0 -0.003,0.002 0.003,0.021c0.186,0.217 0.391,0.247 0.619,0.105c0,0 0.002,-0.006 -0.007,0.016c0.015,0.028 0.038,0.034 0.062,0.04c0,0 -0,-0.006 -0.013,0.013c0.018,0.044 0.049,0.068 0.08,0.092c0,0 -0.003,0.002 -0.002,0.024c0.02,0.161 0.04,0.299 0.059,0.438c0,0 -0.003,-0.003 -0.017,0c-0.023,0.021 -0.032,0.039 -0.04,0.057c0,0 -0.002,-0.003 -0.023,-0.003c-0.468,0.163 0.024,0.367 -0.072,0.585c-0.043,0.01 -0.122,0.023 -0.198,0.045c-0.07,0.019 -0.179,0.028 -0.198,0.073c-0.148,0.337 -0.357,0.283 -0.605,0.126c-0.072,-0.046 -0.169,-0.054 -0.257,-0.081c-0.462,0.886 -0.915,1.761 -1.372,2.633c-0.405,0.774 -0.815,1.546 -1.22,2.321c-0.102,0.195 -0.193,0.397 -0.289,0.596c0,0 -0.002,-0.003 -0.021,0.003c-0.101,0.174 -0.183,0.343 -0.265,0.512c0,0 -0.002,-0.003 -0.021,0.003c-0.101,0.174 -0.183,0.343 -0.265,0.512c-0,-0 -0.002,-0.003 -0.021,0.003c-0.137,0.202 -0.246,0.405 -0.379,0.592c-0.044,0.062 -0.163,0.132 -0.222,0.114c-0.422,-0.129 -0.841,-0.268 -1.252,-0.426c-0.325,-0.124 -0.371,-0.113 -0.472,0.232c0,0 -0.002,-0.003 -0.02,0.003c-0.101,0.155 -0.183,0.305 -0.266,0.455c0,0 -0.002,-0.003 -0.021,0.003c-0.074,0.08 -0.153,0.146 -0.179,0.229c-0.018,0.06 0.017,0.189 0.06,0.206c0.49,0.192 1.003,0.314 1.438,0.651c0.22,0.171 0.479,0.228 0.797,0.018c0.256,-0.169 0.577,0.115 0.745,0.308c0.207,0.239 0.433,0.314 0.708,0.353c0,0 -0.003,0.003 0.002,0.02c0.044,0.05 0.083,0.084 0.122,0.117c0,0 0.014,0.019 0.03,0.042c0.061,0.051 0.133,0.113 0.147,0.102c0.228,-0.178 0.413,0.017 0.614,0.063c0,0 -0.003,0.002 0.004,0.022c0.279,0.097 0.551,0.177 0.826,0.248c0.017,0.004 0.054,-0.064 0.081,-0.099c0,0 0.002,0.003 0.023,0.003c0.332,0.094 0.643,0.189 0.954,0.284c0,0 -0.003,0.002 0.002,0.021c0.085,0.08 0.211,0.128 0.235,0.207c0.128,0.41 0.484,0.352 0.784,0.413c0,0 -0.004,-0.004 -0.014,0.017c0.039,0.062 0.088,0.104 0.136,0.145c0,0 -0.003,0.002 -0.002,0.024c0.071,0.04 0.148,0.086 0.211,0.072c0.449,-0.099 0.511,-0.079 0.782,0.29c0.024,0.032 0.074,0.059 0.115,0.063c0.26,0.026 0.522,0.044 0.783,0.065c0,0 -0.003,0.002 0,0.017c0.021,0.023 0.039,0.032 0.057,0.041c0,0 -0.003,0.002 0,0.017c0.021,0.023 0.039,0.032 0.057,0.04c0,0 -0.003,0.003 -0,0.017c0.021,0.023 0.039,0.032 0.057,0.04c0,0 -0.003,0.003 -0,0.017c0.021,0.023 0.039,0.032 0.057,0.041c0,0 -0.003,0.002 -0.002,0.025c0.249,0.083 0.497,0.143 0.745,0.203c0,0 -0.003,0.003 0,0.017c0.021,0.023 0.039,0.032 0.057,0.04c0,0 -0.003,0.002 0.002,0.021c0.067,0.1 0.121,0.188 0.192,0.26c0.05,0.051 0.118,0.103 0.185,0.117c0.234,0.048 0.471,0.079 0.707,0.117c0,0 -0.003,0.002 0.002,0.02c0.079,0.062 0.153,0.107 0.228,0.152c0,0 -0.003,0.002 0,0.018c0.041,0.043 0.077,0.069 0.114,0.096c0,0 -0.003,0.002 -0.003,0.025c0.026,0.064 0.041,0.127 0.077,0.142c0.45,0.196 0.903,0.386 1.356,0.577c0,0 -0.003,0.002 -0.002,0.02c0.039,0.063 0.078,0.107 0.117,0.152c0,0 -0.003,0.002 -0.003,0.022c-0.071,0.144 -0.143,0.268 -0.233,0.423c0.255,0.043 0.502,0.085 0.75,0.126c0,0 -0.003,0.002 0.003,0.021c0.105,0.101 0.195,0.24 0.304,0.256c0.3,0.045 0.587,0.085 0.781,0.353c0,0 -0.003,0.002 -0.002,0.025c0.035,0.101 0.053,0.231 0.107,0.249c0.147,0.048 0.31,0.049 0.467,0.069c0,0 -0.003,0.003 0,0.017c0.021,0.023 0.039,0.032 0.057,0.04c0,0 -0.003,0.002 -0,0.017c0.021,0.023 0.039,0.032 0.057,0.04c0,0 -0.003,0.002 0.003,0.022c0.053,0.218 0.213,0.286 0.383,0.317c0.48,0.086 0.963,0.157 1.445,0.234c0,0 -0.003,0.002 0.004,0.022c0.187,0.106 0.369,0.189 0.547,0.28c0.201,0.103 0.205,0.295 0.116,0.445c-0.047,0.08 -0.225,0.084 -0.385,0.135c0.015,0.117 0.09,0.307 0.045,0.46c-0.064,0.218 0.001,0.288 0.18,0.383c0.361,0.19 0.377,0.348 0.111,0.661c-0.023,0.027 -0.036,0.062 -0.067,0.118c0.168,0.085 0.323,0.164 0.479,0.242c0,0 -0.003,0.002 0.003,0.021c0.016,0.096 0.064,0.207 0.031,0.243c-0.141,0.151 -0.022,0.193 0.081,0.251c0,0 -0.003,0.002 -0.003,0.025c0.103,0.445 0.074,0.553 -0.176,0.603c-0.161,0.032 -0.328,0.036 -0.49,0.067c-0.051,0.01 -0.093,0.069 -0.14,0.105c0,0 0.004,-0.001 -0.019,-0.011c-0.289,0.208 -0.397,0.195 -0.781,-0.098c0,0 0.003,-0.002 -0.001,-0.019c-0.05,-0.061 -0.096,-0.104 -0.119,-0.127c-0.173,0.112 -0.33,0.209 -0.482,0.313c-0.065,0.044 -0.173,0.109 -0.169,0.156c0.021,0.235 -0.121,0.235 -0.287,0.253c-0.125,0.013 -0.244,0.073 -0.366,0.111c0,0 -0.002,-0.003 -0.02,-0.003c-0.063,0.04 -0.107,0.078 -0.152,0.117c0,0 -0.002,-0.003 -0.023,-0.002c-0.256,0.02 -0.49,0.04 -0.725,0.059c0,0 0.003,-0.003 -0,-0.017c-0.021,-0.023 -0.039,-0.032 -0.057,-0.04c0,0 0.003,-0.002 -0.002,-0.019c-0.068,-0.023 -0.158,-0.059 -0.19,-0.03c-0.204,0.186 -0.416,0.127 -0.639,0.056c-0.104,-0.033 -0.217,-0.066 -0.322,-0.057c-0.246,0.022 -0.49,0.07 -0.735,0.107c0,0 0.003,-0.002 -0.002,-0.02c-0.06,-0.043 -0.115,-0.069 -0.17,-0.095c0,0 0.003,-0.002 -0.002,-0.02c-0.06,-0.043 -0.115,-0.069 -0.17,-0.094c0,0 0.003,-0.003 -0.004,-0.022c-0.054,-0.044 -0.099,-0.077 -0.15,-0.092c-0.175,-0.052 -0.396,-0.048 -0.52,-0.156c-0.255,-0.222 -0.569,-0.176 -0.82,-0.16c-0.272,0.017 -0.53,0.1 -0.795,-0.027c0,0 0.003,-0.002 -0.004,-0.022c-0.232,-0.082 -0.457,-0.144 -0.682,-0.207c0,0 0.003,-0.002 -0.002,-0.02c-0.098,-0.081 -0.191,-0.145 -0.285,-0.209c0,0 0.003,-0.002 0.001,-0.016c-0.021,-0.023 -0.039,-0.032 -0.057,-0.04c0,0 0.003,-0.002 0,-0.017c-0.021,-0.023 -0.039,-0.032 -0.057,-0.041c0,0 0.003,-0.002 0.002,-0.021c-0.064,-0.191 -0.139,-0.202 -0.226,-0.035c0,0 -0.002,-0.004 -0.023,-0.003c-0.114,0.038 -0.211,0.116 -0.299,0.106c-0.316,-0.038 -0.629,-0.105 -0.942,-0.161c0,0 0.003,-0.003 0.002,-0.024c-0.051,-0.208 -0.101,-0.393 -0.13,-0.5c-0.317,-0.14 -0.593,-0.278 -0.881,-0.381c-0.131,-0.047 -0.287,-0.04 -0.43,-0.032c-0.233,0.013 -0.47,0.12 -0.686,-0.058Z" style="fill:#4ade80;fill-rule:nonzero;stroke:#22c55e;stroke-width:1px;"/></svg>