<?xml version="1.0" encoding="UTF-8" standalone="no"?><!DOCTYPE svg PUBLIC "-//W3C//DTD SVG 1.1//EN" "http://www.w3.org/Graphics/SVG/1.1/DTD/svg11.dtd"><svg width="100%" height="100%" viewBox="0 0 100 100" version="1.1" xmlns="http://www.w3.org/2000/svg" xmlns:xlink="http://www.w3.org/1999/xlink" xml:space="preserve" xmlns:serif="http://www.serif.com/" style="fill-rule:evenodd;clip-rule:evenodd;stroke-linejoin:round;stroke-miterlimit:2;"><rect id="_3_hokkaido_yagishiritou" serif:id="3_hokkaido_yagishiritou" x="0" y="0" width="100" height="100" style="fill:none;"/><g id="_3_hokkaido_yagishiritou1" serif:id="3_hokkaido_yagishiritou"><path d="M95.131,40.538c-0.047,0.045 -0.095,0.09 -0.174,0.156c-0.048,0.059 -0.063,0.098 -0.078,0.136c0,0 0.006,0.003 -0.018,-0.005c-0.031,0.017 -0.038,0.042 -0.045,0.067c0,0 0.007,0.005 -0.018,-0.004c-0.032,0.017 -0.039,0.042 -0.046,0.067c0,0 0.006,0.004 -0.018,-0.007c-0.053,0.024 -0.082,0.06 -0.111,0.095c-0.029,0.025 -0.057,0.05 -0.112,0.093c-0.037,0.04 -0.049,0.063 -0.06,0.085c0,0 -0.008,-0.002 -0.023,-0c-0.023,0.023 -0.032,0.043 -0.04,0.064c0,0 -0.008,-0.007 -0.023,-0.003c-0.023,0.025 -0.032,0.045 -0.041,0.066c0,0 -0.008,-0.007 -0.022,-0.003c-0.023,0.025 -0.032,0.045 -0.041,0.066c0,0 -0.008,-0.007 -0.022,-0.003c-0.023,0.025 -0.032,0.045 -0.041,0.066c0,0 -0.008,-0.007 -0.022,-0.003c-0.023,0.025 -0.032,0.046 -0.04,0.066c0,0 -0.009,-0.002 -0.03,-0.003c-0.049,0.043 -0.107,0.094 -0.098,0.13c0.102,0.454 0.208,0.907 0.325,1.358c0.057,0.218 0.171,0.394 0.434,0.398c0,0 -0.007,0.007 -0,0.026c0.194,0.11 0.382,0.2 0.57,0.29c0,-0 -0.007,0.007 -0,0.026c0.098,0.082 0.19,0.145 0.27,0.2c-0.092,0.654 -0.663,0.485 -1.104,0.584c0.244,0.959 0.48,1.882 0.715,2.806c0.095,0 0.159,-0.009 0.22,0.001c0.327,0.054 0.43,-0.088 0.4,-0.404c-0.025,-0.261 0,-0.526 -0.007,-0.789c-0.006,-0.224 0.088,-0.301 0.344,-0.238c-0.026,0.482 -0.051,0.956 -0.081,1.453c0.015,0.071 0.035,0.121 0.058,0.197c0.006,0.134 0.009,0.242 0.007,0.377c0.023,0.291 0.051,0.555 0.077,0.809c-0.306,0.105 -0.571,0.196 -0.909,0.312c0.157,0.392 0.308,0.77 0.473,1.18c-0.315,0.152 0.101,0.332 0.051,0.527c0,0 -0.003,0.003 -0.028,0c-0.191,0.151 -0.389,0.291 -0.213,0.563c0.028,0.044 0.011,0.116 0.017,0.175c0.025,0.229 0.041,0.459 0.081,0.686c0.063,0.352 0.333,0.576 0.523,0.853c0.187,0.273 0.367,0.377 0.679,0.314c0.052,-0.011 0.176,0.078 0.177,0.122c0.003,0.162 0.009,0.347 -0.064,0.48c-0.107,0.194 -0.281,0.351 -0.435,0.534c0.168,0.167 0.077,0.371 -0.059,0.544c-0.052,0.067 -0.192,0.065 -0.347,0.11c-0.003,0.014 -0.018,0.089 -0.033,0.164c0,0 0.004,0.002 -0.022,-0.005c-0.139,0.264 0.049,0.619 0.413,0.821c0,0 -0.007,0.004 0.003,0.027c0.125,0.279 0.241,0.534 0.339,0.749c0.18,0.065 0.331,0.119 0.482,0.174c0,0 -0.002,0.006 -0.003,0.028c-0.105,0.114 -0.213,0.202 -0.312,0.3c-0.07,0.068 -0.167,0.141 -0.184,0.225c-0.099,0.488 -0.197,0.978 -0.26,1.472c-0.071,0.548 -0.115,1.098 -0.506,1.538c0,0 -0.007,-0.006 -0.022,-0.002c-0.024,0.024 -0.032,0.044 -0.041,0.064c0,0 -0.007,-0.007 -0.027,0.001c-0.089,0.153 -0.157,0.298 -0.226,0.443c0,0 -0.007,-0.003 -0.023,-0.001c-0.023,0.023 -0.031,0.043 -0.038,0.064c0,0 -0.002,0.002 -0.021,0.002c-0.027,0.02 -0.036,0.04 -0.045,0.06c0,0 -0.004,-0.001 -0.027,-0.002c-0.202,0.084 -0.342,0.187 -0.28,0.424c0.097,0.372 0.068,0.734 -0.108,1.083c-0.161,0.319 -0.314,0.641 -0.471,0.962c-0,-0 -0.007,-0.006 -0.026,0.001c-0.346,0.448 -0.673,0.889 -0.997,1.331c-0.105,0.144 -0.203,0.294 -0.305,0.441c0,0 -0.005,-0.005 -0.027,0.002c-0.241,0.195 -0.123,0.609 -0.488,0.702c-0.007,0.002 0.006,0.078 0.009,0.119c0,0 -0.003,0.001 -0.031,-0.001c-0.486,-0.015 -0.764,0.135 -0.855,0.443c0,0 -0.005,-0.003 -0.022,0c-0.025,0.023 -0.033,0.043 -0.041,0.064c0,0 -0.007,-0.005 -0.026,0c-0.131,0.151 -0.243,0.296 -0.354,0.442c0,0 -0.005,-0.003 -0.021,0c-0.026,0.023 -0.034,0.043 -0.043,0.063c0,0 -0.005,-0.002 -0.028,-0.002c-0.186,0.104 -0.338,0.265 -0.515,0.3c-0.405,0.08 -0.821,0.103 -1.234,0.137c-0.11,0.009 -0.224,-0.022 -0.334,-0.041c-0.138,-0.024 -0.276,-0.078 -0.414,-0.077c-0.205,0.001 -0.411,0.06 -0.616,0.057c-0.542,-0.01 -1.084,-0.047 -1.626,-0.059c-0.436,-0.01 -0.885,0.29 -0.989,0.636c0,0 -0.006,-0.005 -0.026,0.001c-0.198,0.138 -0.386,0.259 -0.553,0.405c-0.196,0.171 -0.374,0.362 -0.56,0.545c0,0 -0.003,0 -0.029,-0.001c-0.197,0.019 -0.368,0.056 -0.54,0.055c-0.174,-0.001 -0.348,-0.037 -0.521,-0.061c-0.621,-0.087 -1.239,-0.208 -1.862,-0.256c-0.688,-0.053 -1.382,-0.044 -2.073,-0.054c-0.121,-0.002 -0.245,0.063 -0.363,0.051c-0.491,-0.051 -0.98,-0.123 -1.47,-0.181c-0.451,-0.053 -0.902,-0.113 -1.355,-0.144c-0.437,-0.03 -0.884,-0.083 -1.313,-0.027c-0.597,0.077 -1.171,0.086 -1.755,-0.079c-0.351,-0.1 -0.721,-0.147 -1.086,-0.185c-0.353,-0.037 -0.724,0.025 -1.063,-0.058c-0.429,-0.106 -0.832,-0.318 -1.249,-0.477c-0.323,-0.124 -0.642,-0.292 -0.977,-0.338c-0.283,-0.038 -0.586,0.071 -0.88,0.116c0,-0 -0.003,-0.002 -0.001,-0.029c-0.074,-0.048 -0.159,-0.101 -0.223,-0.082c-0.233,0.069 -0.424,0.078 -0.55,-0.184c-0.036,-0.074 -0.133,-0.129 -0.215,-0.169c-0.445,-0.217 -0.874,-0.502 -1.41,-0.248c-0.381,0.181 -0.796,0.181 -1.187,0.06c-0.186,-0.057 -0.34,-0.043 -0.491,0.02c-0.095,0.039 -0.151,0.22 -0.235,0.228c-0.201,0.019 -0.41,-0.011 -0.611,-0.049c-0.202,-0.038 -0.359,-0.325 -0.306,-0.54c-0.751,-0.223 -1.504,-0.444 -2.256,-0.669c-0.763,-0.228 -1.519,-0.484 -2.29,-0.682c-0.998,-0.257 -2.004,-0.483 -3.013,-0.697c-0.631,-0.134 -1.27,-0.242 -1.911,-0.319c-0.608,-0.073 -1.222,-0.107 -1.834,-0.129c-1.423,-0.051 -2.847,-0.077 -4.271,-0.129c-0.528,-0.019 -1.055,-0.077 -1.581,-0.127c-0.575,-0.055 -1.149,-0.126 -1.724,-0.182c-0.31,-0.031 -0.622,-0.041 -0.933,-0.07c-0.638,-0.06 -1.276,-0.127 -1.914,-0.191c-0.379,-0.038 -0.758,-0.075 -1.163,-0.117c-0.088,-0.012 -0.149,-0.019 -0.21,-0.03c-0.544,-0.098 -1.087,-0.206 -1.633,-0.292c-0.558,-0.088 -1.119,-0.159 -1.681,-0.225c-0.113,-0.013 -0.276,-0.017 -0.341,0.048c-0.184,0.186 -0.375,0.196 -0.609,0.142c-0.264,-0.061 -0.545,-0.161 -0.8,-0.122c-0.756,0.115 -1.47,-0.024 -2.173,-0.264c-0.646,-0.221 -1.299,-0.381 -1.986,-0.406c-0.36,-0.013 -0.716,-0.103 -1.076,-0.121c-0.542,-0.027 -1.092,-0.114 -1.625,0.065c-0.173,0.058 -0.329,0.168 -0.493,0.255c0,0 -0.006,-0.006 -0.027,-0.004c-0.229,0.084 -0.431,0.191 -0.647,0.244c-0.346,0.085 -0.71,0.106 -1.051,0.206c-0.301,0.089 -0.581,0.249 -0.87,0.377c0,0 -0.004,-0.004 -0.025,-0.004c-0.074,0.059 -0.128,0.119 -0.181,0.178c0,0 0.003,0.007 -0.02,-0.004c-0.066,0.034 -0.137,0.071 -0.15,0.123c-0.082,0.325 -0.283,0.372 -0.53,0.206c-0.366,-0.246 -0.77,-0.193 -1.166,-0.183c-0.456,0.011 -0.615,0.201 -0.472,0.509c-0.06,0.085 -0.118,0.169 -0.177,0.252c0,0 -0.007,-0.008 -0.025,-0.002c-0.045,0.068 -0.071,0.13 -0.098,0.191c-0,0 -0.005,-0.003 -0.03,-0.004c-0.494,0.027 -0.963,0.059 -1.432,0.079c-0.044,0.002 -0.088,-0.07 -0.136,-0.1c-0.043,-0.027 -0.089,-0.053 -0.138,-0.064c-0.166,-0.038 -0.333,-0.069 -0.499,-0.102c0,0 0.002,-0.003 0.003,-0.026c-0.043,-0.198 -0.116,-0.304 -0.336,-0.304c-0.254,-0 -0.507,-0.093 -0.762,-0.101c-0.567,-0.018 -1.159,-0.108 -1.696,0.02c-0.447,0.107 -0.809,-0.066 -1.179,-0.142c-0.241,-0.05 -0.524,-0.177 -0.778,-0.289c-0.897,-0.393 -1.838,-0.294 -2.77,-0.304c-0.317,-0.004 -0.634,0.008 -0.951,-0.001c-0.279,-0.008 -0.609,-0.139 -0.825,-0.032c-0.295,0.147 -0.413,0.011 -0.586,-0.134c-0.025,-0.021 -0.079,-0.009 -0.119,-0.013c0,0 0.004,-0.006 0.003,-0.028c-0.082,-0.116 -0.155,-0.219 -0.246,-0.302c-0.1,-0.09 -0.217,-0.161 -0.326,-0.241c0,0 0.002,-0.004 0.003,-0.029c-0.01,-0.112 -0.04,-0.202 -0.029,-0.286c0.039,-0.327 -0.136,-0.59 -0.48,-0.698c0,0 0.007,-0.007 0.001,-0.026c-0.089,-0.068 -0.171,-0.117 -0.253,-0.165c0,0 0.006,-0.007 -0,-0.025c-0.194,-0.151 -0.382,-0.284 -0.57,-0.417c-0,0 0.006,-0.007 0,-0.026c-0.152,-0.11 -0.297,-0.2 -0.443,-0.291c0,0 0.007,-0.007 0,-0.026c-0.215,-0.152 -0.424,-0.285 -0.633,-0.418c0,0 0.006,-0.008 0,-0.026c-0.131,-0.109 -0.256,-0.199 -0.38,-0.29c-0,0 0.005,-0.005 -0.001,-0.025c-0.244,-0.155 -0.47,-0.32 -0.723,-0.418c-0.405,-0.157 -0.768,-0.334 -0.952,-0.767c-0.095,-0.223 -0.24,-0.424 -0.363,-0.634c-0.016,0.031 -0.032,0.063 -0.048,0.094c-0.183,-0.061 -0.474,-0.076 -0.526,-0.195c-0.099,-0.225 -0.251,-0.234 -0.426,-0.269c0,0 0.001,-0.005 0.003,-0.03c-0.032,-0.121 -0.043,-0.237 -0.105,-0.31c-0.212,-0.252 -0.187,-0.419 0.106,-0.561c0.024,-0.012 0.055,-0.033 0.062,-0.056c0.08,-0.252 0.313,-0.256 0.509,-0.325c0.068,-0.024 0.124,-0.084 0.185,-0.127c0,0 0.001,0.002 0.024,0.003c0.187,-0.243 0.677,-0.123 0.663,-0.572c-0.001,-0.019 0.065,-0.042 0.102,-0.061c0.181,-0.093 0.361,-0.19 0.545,-0.275c0.063,-0.029 0.144,-0.05 0.209,-0.037c0.327,0.069 0.573,-0.029 0.733,-0.327c0,0 0.008,0.009 0.022,0.004c0.023,-0.025 0.033,-0.045 0.042,-0.065c0,0 0.008,0.004 0.026,0.003c0.109,-0.086 0.2,-0.171 0.291,-0.257c0,0 0.005,0.006 0.025,0.005c0.089,-0.066 0.158,-0.131 0.227,-0.196c-0,0 0.007,0.008 0.022,0.004c0.024,-0.024 0.033,-0.044 0.043,-0.065c0,0 0.005,0.004 0.029,0.003c0.047,-0.107 0.071,-0.214 0.094,-0.32c0,0 0.003,0 0.03,0.002c0.295,-0.04 0.569,-0.061 0.83,-0.132c0.168,-0.046 0.316,-0.164 0.474,-0.25c0,0 0.006,0.005 0.025,0.004c0.089,-0.065 0.159,-0.129 0.229,-0.194c0,0 0.005,0.007 0.026,0.005c0.059,-0.084 0.141,-0.231 0.128,-0.24c-0.186,-0.129 -0.124,-0.297 -0.093,-0.462c0,0 0.006,0.005 0.029,0.004c0.176,-0.065 0.328,-0.129 0.48,-0.194c0,0 0.003,0.004 0.025,0.004c0.111,-0.086 0.201,-0.171 0.29,-0.256c-0,0 0.006,0.006 0.03,0.004c0.264,-0.112 0.646,0.047 0.701,-0.383c0.146,0.01 0.267,0.018 0.315,0.022c0.186,-0.115 0.344,-0.294 0.466,-0.273c0.344,0.061 0.467,-0.151 0.613,-0.368c0.017,-0.026 0.042,-0.048 0.066,-0.068c0.262,-0.22 0.528,-0.434 0.785,-0.659c0.115,-0.1 0.219,-0.214 0.318,-0.331c0.231,-0.275 0.276,-0.733 0.734,-0.746c0.206,-0.39 0.4,-0.757 0.593,-1.123c0,0 0.006,0.003 0.028,0.004c0.17,-0.04 0.321,-0.072 0.465,-0.124c0.074,-0.027 0.135,-0.088 0.203,-0.133c-0,0 0.006,-0.001 0.028,0.002c0.176,-0.047 0.328,-0.103 0.483,-0.146c0.121,-0.034 0.246,-0.056 0.37,-0.077c0.479,-0.078 0.962,-0.136 1.435,-0.237c0.293,-0.062 0.566,-0.226 0.86,-0.278c0.355,-0.063 0.729,-0.022 1.084,-0.087c0.742,-0.137 1.496,-0.257 2.212,-0.486c1.235,-0.396 2.439,-0.889 3.67,-1.302c0.521,-0.175 1.103,-0.181 1.609,-0.385c1.025,-0.412 2.02,-0.897 3.018,-1.371c0.223,-0.106 0.408,-0.292 0.611,-0.441c0,0 0.006,0.008 0.027,0.005c0.889,-0.293 1.757,-0.585 2.633,-0.878c0,-0.158 -0.001,-0.315 0,-0.473c0.002,-0.298 0.09,-0.519 0.423,-0.607c0.384,-0.102 0.755,-0.249 1.133,-0.373c0.161,-0.053 0.279,-0.039 0.365,0.153c0.147,0.328 0.318,0.647 0.508,0.952c0.063,0.1 0.212,0.201 0.325,0.205c0.278,0.011 0.558,-0.042 0.838,-0.053c0.691,-0.026 1.382,-0.042 2.072,-0.064c0.028,-0.001 0.056,-0.02 0.109,-0.041c-0.023,-0.337 -0.046,-0.674 -0.069,-1.012c0.029,-0.018 0.057,-0.036 0.086,-0.053c0.054,0.062 0.146,0.119 0.156,0.188c0.099,0.697 0.276,1.366 0.654,1.968c0.057,0.091 0.166,0.192 0.265,0.209c0.487,0.083 0.982,0.119 1.467,0.209c0.371,0.069 0.727,-0.335 1.095,-0.017c0.008,0.007 0.036,-0.014 0.056,-0.016c0.41,-0.033 0.82,-0.078 1.231,-0.092c0.247,-0.008 0.497,0.055 0.743,0.044c0.212,-0.009 0.44,-0.039 0.628,-0.129c0.229,-0.11 0.566,0.011 0.694,-0.314c0,0 0.006,0.007 0.033,0.006c0.374,-0.003 0.725,0.027 1.069,-0.012c0.485,-0.054 0.931,-0.289 1.44,-0.285c0.429,0.004 0.865,-0.067 1.288,-0.154c0.314,-0.064 0.611,-0.208 0.916,-0.316c0,0 0.009,0.003 0.033,0.005c0.152,-0.043 0.354,0.128 0.41,-0.13c0,0 0.004,0.005 0.028,0.004c0.373,-0.076 0.722,-0.161 1.074,-0.225c0.436,-0.08 0.749,-0.373 1.094,-0.611c0.022,-0.015 0.013,-0.076 0.019,-0.116c0,0 0.007,0.004 0.031,0.004c0.292,-0.084 0.559,-0.169 0.828,-0.249c0.039,-0.012 0.084,0.001 0.125,-0.002c0.719,-0.051 1.323,-0.389 1.908,-0.772c0.013,-0.009 0.014,-0.037 0.021,-0.056c-0,0 0.005,0.007 0.026,0.005c0.234,-0.105 0.457,-0.19 0.656,-0.314c0.247,-0.155 0.473,-0.342 0.708,-0.515c0,0 0.008,0.009 0.022,0.004c0.023,-0.025 0.032,-0.046 0.041,-0.066c0,0 0.008,0.008 0.023,0.003c0.023,-0.025 0.032,-0.046 0.04,-0.067c0,0 0.009,0.008 0.027,0.001c0.105,-0.133 0.206,-0.252 0.277,-0.387c0.14,-0.268 0.122,-0.742 -0.069,-0.841c-0.377,-0.195 -0.138,-0.316 0.033,-0.476c-0.152,-0.147 -0.176,-0.288 0.043,-0.403c0.037,-0.02 0.065,-0.083 0.071,-0.13c0.058,-0.473 0.529,-0.615 0.81,-0.691c0.459,-0.125 0.904,-0.309 1.373,-0.399c0.415,-0.08 0.829,-0.076 1.242,0.042c0.343,0.098 0.688,0.202 1.039,0.249c0.61,0.082 1.183,-0.116 1.746,-0.319c0.054,-0.02 0.078,-0.123 0.116,-0.188c0,0 0.005,0.008 0.027,0c0.119,-0.03 0.224,-0.088 0.313,-0.069c0.272,0.059 0.527,0.241 0.819,0.077c0.335,-0.189 0.684,-0.208 1.068,-0.183c0.177,0.011 0.543,0.082 0.587,-0.333c0.017,-0.166 0.404,-0.252 0.551,-0.142c0.446,0.332 0.907,0.194 1.375,0.072c0.158,-0.041 0.325,-0.053 0.488,-0.066c0.337,-0.028 0.661,0.113 0.977,-0.255c0.219,-0.255 0.692,-0.292 1.053,-0.422c0.023,-0.008 0.057,0.023 0.086,0.025c0.353,0.024 0.728,0.176 1.019,-0.175c0.026,-0.032 0.096,-0.044 0.143,-0.04c0.237,0.02 0.479,0.025 0.707,0.081c0.32,0.079 0.591,0.009 0.889,-0.116c0.34,-0.143 0.665,-0.313 1.104,-0.101c0.328,0.158 0.779,0.074 1.176,0.077c0.256,0.002 0.516,-0.073 0.767,-0.046c0.498,0.054 0.977,0.087 1.449,-0.147c0.154,-0.076 0.363,-0.057 0.546,-0.055c0.205,0.002 0.442,0.105 0.606,0.032c0.147,-0.065 0.402,0.11 0.45,-0.177c0,0 0.005,0.002 0.032,0.004c0.442,0.102 0.837,0.017 1.227,-0.125c0.173,-0.063 0.342,-0.165 0.519,-0.181c0.869,-0.077 1.741,-0.12 2.609,-0.2c0.247,-0.023 0.496,-0.107 0.725,-0.207c0.162,-0.071 0.292,-0.215 0.42,-0.313c-0.041,-0.194 -0.082,-0.392 -0.143,-0.682c0.242,0.121 0.429,0.24 0.633,0.311c0.276,0.096 0.561,0.039 0.849,0.028c0.509,-0.019 0.997,-0.017 1.506,-0.161c0.69,-0.195 1.398,-0.385 2.14,-0.317c0.378,0.035 0.761,0.007 1.142,0.007c0,0 -0.001,0.006 -0.002,0.03c0.318,0.156 0.628,0.321 0.958,0.412c0.354,0.098 0.565,0.255 0.502,0.65c0,0 -0.006,-0.004 -0.022,-0c-0.025,0.024 -0.033,0.045 -0.042,0.065c0,0 -0.005,-0.004 -0.028,0.003c-0.05,0.092 -0.108,0.18 -0.098,0.26c0.049,0.394 0.105,0.789 0.183,1.178c0.036,0.179 0.087,0.329 -0.098,0.462c-0.144,0.103 -0.147,0.222 0.042,0.297c0,0 -0.007,0.008 -0.003,0.022c0.025,0.023 0.045,0.031 0.066,0.04c0,0 -0.004,0.006 -0.004,0.03c0.039,0.116 0.079,0.208 0.118,0.3c0,0 0.002,-0.005 -0.009,0.019c0.019,0.137 0.043,0.251 0.083,0.36c0.032,0.085 0.084,0.161 0.128,0.241c0,0 -0.008,0.007 0,0.028c0.024,0.086 0.067,0.16 0.052,0.218c-0.052,0.198 0.019,0.318 0.201,0.386c0,0 -0.007,0.008 0,0.029c0.137,0.121 -0.071,0.433 0.252,0.413c0,0 -0.008,0.004 -0,0.026c0.237,0.112 0.467,0.201 0.697,0.29c0,0 -0.008,0.004 -0,0.026c0.136,0.147 0.698,0.127 0.899,-0.009c0.268,-0.182 0.772,-0.088 0.996,0.195c-0.115,0.181 -0.232,0.367 -0.372,0.589c0.224,0.172 0.458,0.351 0.692,0.53c0,0 -0.006,0.003 -0.002,0.02c0.025,0.026 0.045,0.035 0.065,0.044c0,0 -0.007,0.007 -0.002,0.021c0.025,0.023 0.045,0.033 0.065,0.042c0,0 -0.007,0.007 -0.002,0.022c0.025,0.023 0.045,0.032 0.066,0.042c0,0 -0.007,0.007 -0.002,0.022c0.025,0.023 0.045,0.032 0.066,0.041c0,0 -0.007,0.008 -0.002,0.022c0.025,0.023 0.045,0.032 0.066,0.041c0,0 -0.007,0.008 -0.003,0.022c0.025,0.023 0.045,0.032 0.066,0.041c0,0 -0.007,0.008 -0.003,0.022c0.025,0.023 0.046,0.032 0.066,0.041c0,0 -0.007,0.008 -0.003,0.022c0.025,0.023 0.046,0.032 0.066,0.041c0,0 -0.007,0.008 -0.003,0.022c0.025,0.023 0.046,0.032 0.066,0.041c0,0 -0.007,0.008 -0.003,0.023c0.025,0.023 0.046,0.032 0.066,0.041c0,0 -0.008,0.003 -0.002,0.022c0.029,0.031 0.052,0.043 0.075,0.056c0.025,0.029 0.05,0.057 0.095,0.117c0.059,0.045 0.098,0.06 0.136,0.075c0,0 0.003,-0.006 -0.005,0.018c0.017,0.031 0.043,0.038 0.068,0.044c0,0 0.004,-0.006 -0.005,0.018c0.016,0.032 0.041,0.039 0.067,0.047c0,0 -0,-0.008 -0.009,0.018c0.077,0.125 0.162,0.225 0.248,0.325c-0.019,0.03 -0.038,0.059 -0.057,0.089c-0.155,-0.086 -0.318,-0.159 -0.463,-0.26c-0.188,-0.131 -0.362,-0.283 -0.542,-0.426c0,0 0.006,-0.003 0.002,-0.02c-0.025,-0.026 -0.045,-0.035 -0.065,-0.044c0,0 0.007,-0.007 0,-0.025c-0.113,-0.132 -0.219,-0.247 -0.313,-0.35c-0.254,0.078 -0.465,0.24 -0.71,0.061c-0.034,-0.025 -0.139,-0.007 -0.173,0.028c-0.262,0.275 -0.514,0.559 -0.769,0.841c0,0 0.003,0.007 -0.019,-0.002c-0.029,0.016 -0.036,0.041 -0.043,0.067c0,0 0.007,0.005 -0.018,-0.004c-0.032,0.016 -0.038,0.042 -0.045,0.067c0,0 0.007,0.005 -0.018,-0.004c-0.032,0.016 -0.038,0.042 -0.045,0.067c0,0 0.007,0.005 -0.018,-0.004c-0.031,0.016 -0.038,0.042 -0.045,0.067c0,0 0.006,0.005 -0.018,-0.004c-0.031,0.016 -0.038,0.042 -0.045,0.067c0,0 0.006,0.004 -0.018,-0.008c-0.053,0.024 -0.082,0.06 -0.11,0.096Z" style="fill:#4ade80;fill-rule:nonzero;stroke:#22c55e;stroke-width:1px;"/></g></svg>