<?xml version="1.0" encoding="UTF-8"?>
<svg id="_レイヤー_7" data-name="レイヤー_7" xmlns="http://www.w3.org/2000/svg" version="1.1" viewBox="0 0 100 100">
  <!-- Generator: Adobe Illustrator 29.6.1, SVG Export Plug-In . SVG Version: 2.1.1 Build 9)  -->
  <defs>
    <style>
      .st0 {
        fill: #4ade80;
        stroke: #22c55e;
        stroke-miterlimit: 10;
      }
    </style>
  </defs>
  <path class="st0" d="M10.39,25.05l-.59.7-.07.24v.72l.07.55.16.8.24.65.11.6.18.91.29,1.07.41.76.24.47,1.14,1.17.83.65.75.65,1.32,1.84h.23l2.11,3.9,5.38,3.3-.31.8.05.2.37.11h.16l.93-1.04,1.02-.67-.28-.42-.57.28h-.46l-5.33-3.3v-.39l-.41.02-1.79-3.14,1.79-.83.1.23.78-.24.5,1.12,2.59,1.56.26-.33,3.87,2.33,1.32,1.53.13.49,1.38,2.34.81,1.01.33.86v.39l-2.03.99-.2.86-3.66.18-.42-.68-3.45-.52.18,1.01,2.73.53.62.98,4.07-.21.31,1.27.98.93.34,2.21v2.21l-.25,1.57-.69.34-.05.74.25.59-.39.69-.25,1.47-.44,1.32.25.54-.34.74.29,3.29.15.78v.78l.44,1.08.74.39.22.72.45.4h.3l.16.35.18,1.48.51,1.16s1.39,1.9,4.29,1.96c2.89.06,2.29-.37,4.72,0s6.8.79,6.8.79c0,0,5.69.42,8.92-.34l4.78-.84,2.13-.46,4.29-2.43,3.23-2.77,4.94-3.23,6-4.33,1.94-.91,3.08-3.38,1.67-.84,2.05-4.82-.19-.87-.72-.98-.53.15-7.63-5.37-4.48-3.06-2.44-6.38-1.02-.61-1.43-.34-1.63-3.12-2.31-2.38-7.06-2.44-3.94,1.22-5.36-.75-5.23.95-1.15-3.46h-2.65l-4.07-1.56-1.43-1.36-.88-1.15-.95.61,2.17,1.83,2.04,1.29,2.85,1.36,2.51.07.88,2.51-1.43.27-.07.75-3.55-.06v-2.35h-.44v1.83l-3.47-.32.04-2.55h-.44l-.12,2.35-1.12.28-4.35-.72-3.79-1.4-2.07-1.32-1.08-.92-.56.08-3.87-1.72-2.59-.32-2.87.44-3.45,1.03Z"/>
</svg>