<?xml version="1.0" encoding="UTF-8" standalone="no"?><!DOCTYPE svg PUBLIC "-//W3C//DTD SVG 1.1//EN" "http://www.w3.org/Graphics/SVG/1.1/DTD/svg11.dtd"><svg width="100%" height="100%" viewBox="0 0 100 100" version="1.1" xmlns="http://www.w3.org/2000/svg" xmlns:xlink="http://www.w3.org/1999/xlink" xml:space="preserve" xmlns:serif="http://www.serif.com/" style="fill-rule:evenodd;clip-rule:evenodd;stroke-linejoin:round;stroke-miterlimit:2;"><rect id="_5_hokkaido_okushiritou" serif:id="5_hokkaido_okushiritou" x="0" y="0" width="100" height="100" style="fill:none;"/><path d="M61.743,75.878c-0.078,0.084 -0.155,0.168 -0.269,0.259c-0.064,0.045 -0.092,0.084 -0.12,0.123c0,0 -0.006,-0.001 -0.028,-0.004c-0.103,0.109 -0.185,0.221 -0.266,0.333c0,0 -0.021,0.021 -0.051,0.018c-0.199,0.134 -0.367,0.271 -0.535,0.408c0,0 0.01,0.011 -0.016,0.001c-0.047,0.024 -0.069,0.058 -0.09,0.092c0,0 -0.011,-0.011 -0.027,-0.008c-0.056,0.031 -0.096,0.059 -0.136,0.087c0,0 -0.011,0.008 -0.031,0.019c-0.022,0.032 -0.025,0.053 -0.028,0.074c0,0 0.011,0.01 -0.015,-0.001c-0.048,0.023 -0.069,0.057 -0.091,0.091c0,0 -0.011,-0.01 -0.026,-0.008c-0.056,0.03 -0.096,0.058 -0.136,0.086c0,0 -0.012,0.008 -0.032,0.02c-0.022,0.032 -0.025,0.053 -0.028,0.073c0,0 0.005,0.011 -0.022,0.004c-0.163,0.262 -0.275,0.535 -0.555,0.718c-0.133,0.087 -0.174,0.317 -0.255,0.483c-0.064,0.131 -0.09,0.305 -0.191,0.387c-0.58,0.469 -0.644,1.094 -0.592,1.768c0.01,0.134 0.017,0.278 -0.021,0.403c-0.135,0.444 -0.174,0.934 -0.563,1.266c-0.005,0.004 0.002,0.021 0.003,0.031c-0,0 -0.008,-0.011 -0.024,-0.005c-0.024,0.028 -0.031,0.05 -0.039,0.072c0,0 -0.014,-0.008 -0.029,-0.004c-0.032,0.039 -0.049,0.074 -0.066,0.109c0,0 0.013,0.015 -0.009,0.001c-0.034,0.004 -0.047,0.021 -0.06,0.038c0,0 -0.014,0.005 -0.037,0.017c-0.045,0.055 -0.066,0.098 -0.087,0.142c-0,0 -0.001,0.006 -0.026,0.002c-0.415,0.135 -0.805,0.275 -1.194,0.415c0,0 -0.009,-0.008 -0.029,-0.007c-0.14,0.058 -0.261,0.115 -0.381,0.172c0,0 -0.008,-0.003 -0.033,-0.001c-0.087,0.056 -0.148,0.11 -0.21,0.164c0,0 -0.011,-0.011 -0.03,-0.009c-0.133,0.135 -0.247,0.268 -0.362,0.401c0,0 -0.005,-0.005 -0.025,-0.003c-0.12,0.235 -0.179,0.456 -0.425,0.637c-0.216,0.158 -0.285,0.517 -0.419,0.787c0,0 0.007,0.007 -0.021,-0.002c-0.091,0.088 -0.155,0.185 -0.219,0.282c0,0 -0.004,-0.001 -0.029,-0.004c-0.24,-0.129 -0.325,-0.045 -0.322,0.182c0,0 0.008,0.003 -0.015,-0.006c-0.034,0.014 -0.044,0.038 -0.054,0.062c0,0 -0.001,0.006 -0.026,0.002c-0.042,0.049 -0.058,0.102 -0.075,0.156c0,0 -0.006,-0.004 -0.029,0.001c-0.45,0.294 -0.937,0.423 -1.427,0.557c-0.168,0.046 -0.314,0.176 -0.47,0.267c0,0 0.012,0.007 -0.016,0c-0.081,0.033 -0.134,0.072 -0.187,0.112c0,0 -0.005,0.006 -0.024,0.011c-0.041,0.016 -0.049,0.035 -0.043,0.06c0,0 -0.005,0.009 -0.022,0.025c-0.174,0.165 -0.306,0.372 -0.493,0.45c-0.271,0.113 -0.582,0.134 -0.875,0.194c-0.538,0.111 -1.081,0.188 -1.626,0.075c-0.257,-0.053 -0.495,-0.197 -0.752,-0.25c-0.921,-0.191 -1.838,-0.019 -2.75,0.092c-0.491,0.059 -0.983,0.16 -1.457,0.301c-1.132,0.335 -2.254,0.703 -3.377,1.067c-0.076,0.024 -0.128,0.12 -0.192,0.182c0,0 -0.009,-0.002 -0.029,-0.005c-0.18,0.108 -0.339,0.219 -0.498,0.33c0,0 -0.006,-0.007 -0.029,-0.006c-0.255,0.144 -0.487,0.287 -0.718,0.431c0,0 0.006,0.009 -0.019,0.005c-0.044,0.029 -0.063,0.062 -0.082,0.095c0,0 -0.011,-0.011 -0.025,-0.006c-0.023,0.026 -0.033,0.048 -0.042,0.07c0,0 -0.011,-0.006 -0.03,-0.006c-0.077,0.058 -0.135,0.116 -0.193,0.174c0,0 0.016,0.009 -0.013,0.001c-0.05,0.026 -0.07,0.06 -0.09,0.094c-0,0 -0.013,-0.012 -0.03,-0.005c-0.067,0.093 -0.118,0.179 -0.168,0.265c0,0 -0.01,-0.008 -0.026,-0.004c-0.034,0.038 -0.051,0.071 -0.069,0.104c-0,0 0.003,0.009 -0.023,0.006c-0.065,0.092 -0.103,0.188 -0.142,0.283c0,0 -0.008,-0.004 -0.03,0.002c-0.122,0.168 -0.357,0.326 -0.039,0.503c0,0 -0.009,0.011 -0.003,0.029c0.071,0.045 0.135,0.073 0.2,0.1c0,0 -0.011,0.008 -0.004,0.028c0.071,0.047 0.136,0.075 0.201,0.102c0,0 -0.011,0.008 -0.005,0.028c0.085,0.057 0.164,0.094 0.243,0.13c0,0 0.002,0.001 -0.002,0.024c0.063,0.052 0.129,0.08 0.196,0.107c0,0 0.01,0.002 0.003,0.024c0.006,0.05 0.019,0.077 0.032,0.104c0,0 -0.004,0.003 -0.031,-0.003c-0.204,-0.098 -0.39,-0.176 -0.555,-0.286c-0.209,-0.139 -0.346,-0.113 -0.429,0.129c0,0 0.014,0.015 -0.014,0.003c-0.048,0.022 -0.069,0.056 -0.089,0.09c0,0 -0.011,-0.01 -0.026,-0.006c-0.023,0.026 -0.032,0.048 -0.041,0.07c0,0 -0.011,-0.006 -0.029,-0.006c-0.078,0.055 -0.138,0.111 -0.197,0.166c0,0 -0.001,0.005 -0.022,0.008c-0.026,0.026 -0.032,0.049 -0.038,0.071c0,0 0.012,0.01 -0.015,-0.001c-0.048,0.023 -0.069,0.057 -0.091,0.091c0,0 -0.01,-0.013 -0.024,-0.007c-0.024,0.027 -0.034,0.048 -0.044,0.07c0,0 -0.01,-0.008 -0.032,-0.006c-0.034,0.097 -0.076,0.2 -0.054,0.288c0.08,0.325 0.181,0.645 0.266,0.939c-0.14,0.033 -0.262,0.062 -0.385,0.091c0.135,0.526 0.152,1.07 0.685,1.497c-0.085,0.471 -0.183,1.021 -0.282,1.572c0,0 -0.005,0 -0.022,0.002c-0.026,0.024 -0.033,0.046 -0.041,0.068c0,0 -0.004,-0 -0.029,-0.003c-0.318,0.147 -0.463,-0.053 -0.568,-0.262c-0.366,-0.733 -0.712,-1.476 -1.077,-2.209c-0.053,-0.106 -0.164,-0.184 -0.249,-0.275c0,0 0.009,-0.006 0.008,-0.027c-0.178,-0.2 -0.354,-0.379 -0.531,-0.558c0,0 0.005,-0.007 0.005,-0.029c-0.132,-0.208 -0.275,-0.388 -0.393,-0.582c-0.12,-0.197 -0.267,-0.399 -0.311,-0.617c-0.067,-0.333 -0.019,-0.689 -0.091,-1.02c-0.037,-0.169 -0.196,-0.372 -0.353,-0.443c-0.41,-0.185 -0.849,-0.305 -1.277,-0.451c0,0 0.005,-0.011 -0,-0.03c-0.106,-0.071 -0.201,-0.148 -0.308,-0.17c-0.67,-0.14 -1.347,-0.248 -2.012,-0.408c-0.307,-0.074 -0.591,-0.245 -0.885,-0.371c0,0 0.01,-0.01 0.003,-0.029c-0.551,-0.286 -1.095,-0.554 -1.638,-0.821c-0,0 0.011,-0.008 0.003,-0.028c-0.169,-0.117 -0.324,-0.226 -0.493,-0.309c-0.218,-0.108 -0.472,-0.159 -0.665,-0.298c-0.471,-0.339 -0.96,-0.608 -1.548,-0.682c-0.254,-0.032 -0.552,0.109 -0.608,0.335c0,0 -0.004,0.004 -0.031,-0.002c-0.174,-0.028 -0.322,-0.065 -0.47,-0.07c-0.135,-0.005 -0.272,0.041 -0.405,0.033c-0.123,-0.008 -0.243,-0.058 -0.364,-0.089c0,0 -0.001,-0.003 0.002,-0.032c-0.008,-0.205 -0.096,-0.434 -0.018,-0.549c0.251,-0.37 0.242,-0.738 0.13,-1.136c-0.093,-0.332 -0.011,-0.581 0.249,-0.645c0.356,-0.088 0.589,-0.295 0.749,-0.608c0,0 0.012,0.008 0.029,0.002c0.179,-0.309 0.369,-0.602 0.492,-0.921c0.095,-0.248 0.219,-0.502 0.05,-0.806c-0.107,-0.193 -0.08,-0.461 -0.113,-0.696c0,0 0.012,0.007 0.03,0.001c0.092,-0.13 0.197,-0.246 0.234,-0.38c0.135,-0.498 0.135,-1.006 0.063,-1.514c0,0 0.009,0.004 0.03,0.004c0.349,-0.204 0.334,-0.632 0.011,-0.896c0.446,-0.771 0.165,-1.44 -0.312,-2.117c0.086,0.021 0.115,0.029 0.144,0.035c0.078,0.015 0.155,0.029 0.233,0.044c-0.046,-0.073 -0.076,-0.169 -0.141,-0.214c-0.085,-0.058 -0.197,-0.075 -0.331,-0.12c-0.009,-0.03 -0.008,-0.139 -0.06,-0.18c-0.344,-0.274 -0.414,-0.463 -0.302,-0.885c0.073,-0.276 0.137,-0.554 0.218,-0.828c0.073,-0.247 0.163,-0.489 0.246,-0.733c-0,0 0.007,0.008 0.024,0.004c0.026,-0.025 0.036,-0.047 0.046,-0.068c-0,0 0.009,0.007 0.03,0.006c0.047,-0.046 0.074,-0.091 0.1,-0.136c0,0 0.01,0.004 0.029,-0.001c0.027,-0.012 0.035,-0.019 0.043,-0.027c0.433,-0.448 0.313,-1.568 -0.205,-1.914c0,0 0.011,-0.012 0.006,-0.026c-0.027,-0.022 -0.049,-0.03 -0.071,-0.038c-0,0 0.008,-0.01 0.005,-0.025c-0.026,-0.023 -0.048,-0.031 -0.07,-0.039c0,0 0.001,-0.005 0.003,-0.03c-0,-0.235 0.01,-0.445 -0.009,-0.653c-0.025,-0.268 0.013,-0.602 -0.132,-0.787c-0.332,-0.426 -0.743,-0.795 -1.15,-1.154c-0.288,-0.254 -0.623,-0.455 -0.973,-0.705c-0.028,-0.101 -0.075,-0.27 -0.125,-0.448c0.304,-0.347 0.297,-0.594 -0.036,-0.868c0,0 0.012,-0.011 0.005,-0.03c-0.238,-0.206 -0.47,-0.394 -0.719,-0.596c0.297,0.021 0.419,-0.169 0.458,-0.395c0.036,-0.209 0.008,-0.43 0.008,-0.68c0.335,0.041 0.332,-0.207 0.317,-0.431c-0.011,-0.171 -0.077,-0.338 -0.121,-0.531c-0.048,-0.091 -0.104,-0.153 -0.137,-0.226c-0.045,-0.097 -0.128,-0.226 -0.097,-0.3c0.164,-0.393 0.36,-0.773 0.544,-1.158c0,0 0.018,0.009 0.033,0.006c0.115,-0.15 0.215,-0.298 0.316,-0.445c-0,0 -0.003,-0.004 0.024,0.004c0.074,-0.058 0.168,-0.132 0.158,-0.187c-0.058,-0.319 0.158,-0.508 0.302,-0.741c0.154,-0.25 0.281,-0.52 0.396,-0.791c0.077,-0.181 0.112,-0.38 0.187,-0.58c0.023,-0.053 0.026,-0.097 0.029,-0.141c0,0 0,0.005 0.027,-0.002c0.046,-0.46 0.131,-0.924 0.065,-1.364c-0.056,-0.373 -0.286,-0.719 -0.409,-1.007c0.097,-0.18 0.182,-0.331 0.259,-0.486c0.033,-0.066 0.035,-0.149 0.076,-0.207c0.308,-0.442 0.281,-0.984 -0.161,-1.27c-0.297,-0.192 -0.342,-0.482 -0.477,-0.736c-0.08,-0.15 -0.022,-0.371 -0.099,-0.524c-0.095,-0.189 -0.096,-0.52 -0.46,-0.448c0,0 -0.006,-0.005 -0.004,-0.031c-0.127,-0.231 -0.256,-0.436 -0.384,-0.641c0,0 0.005,-0.01 0.005,-0.029c-0.042,-0.098 -0.084,-0.177 -0.139,-0.265c-0.013,-0.009 -0.039,0.008 -0.039,0.008c0,0 -0.006,0.001 0.003,-0.018c-0.024,-0.043 -0.059,-0.067 -0.093,-0.091c0,0 0.008,-0.006 0.005,-0.021c-0.025,-0.024 -0.047,-0.033 -0.069,-0.043c0,0 0.009,-0.007 0.008,-0.027c-0.069,-0.092 -0.137,-0.164 -0.205,-0.237c0,0 0.008,-0.003 0.003,-0.022c-0.041,-0.033 -0.078,-0.048 -0.115,-0.062c0,0 -0.005,0.011 0.003,-0.019c-0.091,-0.069 -0.189,-0.107 -0.288,-0.146c0,0 0.006,-0.007 0.004,-0.028c-0.062,-0.057 -0.122,-0.092 -0.182,-0.127c0,0 -0.003,0.004 0.009,-0.019c0.013,-0.338 -0.2,-0.525 -0.39,-0.737c-0.104,-0.116 -0.132,-0.298 -0.215,-0.438c-0.093,-0.155 -0.212,-0.295 -0.319,-0.442c0,0 -0.003,0.004 0.007,-0.022c-0.066,-0.257 -0.116,-0.502 -0.226,-0.715c-0.093,-0.179 -0.256,-0.322 -0.388,-0.482c0,0 0.008,-0.007 0.005,-0.029c-0.519,-0.332 -0.916,-0.839 -1.559,-1.001c0.122,-0.06 0.252,-0.091 0.373,-0.069c0.182,0.034 0.362,0.115 0.415,-0.161c0,0 -0.004,-0.003 0.021,0.007c0.389,-0.294 0.499,-0.773 0.243,-1.014c-0.412,-0.387 -0.932,-0.577 -1.458,-0.747c0,0 0.012,-0.003 0.005,-0.027c-0.138,-0.114 -0.344,-0.179 -0.385,-0.301c-0.114,-0.333 -0.385,-0.396 -0.654,-0.469c-0.472,-0.127 -0.561,-0.338 -0.341,-0.757c0.063,-0.119 0.039,-0.297 0.019,-0.442c-0.024,-0.171 -0.086,-0.336 -0.134,-0.503c-0.033,-0.113 -0.038,-0.26 -0.114,-0.328c-0.16,-0.144 -0.357,-0.246 -0.604,-0.408c0.141,-0.052 0.229,-0.083 0.315,-0.117c0.095,-0.037 0.257,-0.058 0.273,-0.117c0.077,-0.279 0.314,-0.315 0.522,-0.408c0.05,-0.022 0.079,-0.093 0.118,-0.141c0,0 0.011,0.012 0.03,0.009c0.186,-0.107 0.347,-0.289 0.52,-0.3c0.414,-0.028 0.519,-0.095 0.492,-0.495c0.415,-0.16 0.724,-0.609 0.658,-1.024c-0.019,-0.121 -0.168,-0.222 -0.257,-0.332c0,0 0.005,-0.005 0.001,-0.02c-0.025,-0.025 -0.046,-0.035 -0.067,-0.045c0,0 0.006,-0.003 0.001,-0.022c-0.092,-0.092 -0.179,-0.165 -0.266,-0.238c0,0 0.007,-0.006 0.004,-0.021c-0.025,-0.025 -0.047,-0.034 -0.069,-0.043c0,0 0.008,-0.007 0.002,-0.025c-0.167,-0.019 -0.328,-0.019 -0.486,-0.019c0.013,-0.018 0.025,-0.057 0.05,-0.067c0.348,-0.145 0.571,-0.291 0.398,-0.769c-0.147,-0.407 -0.264,-0.662 -0.689,-0.764c-0.336,-0.081 -0.597,-0.363 -0.643,-0.671c-0.021,-0.141 -0.078,-0.276 -0.132,-0.461c0.131,-0.007 0.294,-0.015 0.457,-0.023c0.001,-0.412 -0.463,-0.284 -0.653,-0.546c0.109,0.026 0.175,0.042 0.263,0.063l0,-0.535c0.127,0.088 0.232,0.132 0.297,0.211c0.285,0.344 0.353,0.35 0.697,0.029c0.068,-0.063 0.162,-0.102 0.22,-0.172c0.106,-0.128 0.259,-0.263 0.278,-0.409c0.042,-0.327 0.013,-0.664 0.013,-0.985c0.259,-0.172 0.53,-0.366 0.816,-0.536c0.257,-0.153 0.554,-0.247 0.79,-0.425c0.215,-0.162 0.372,-0.401 0.554,-0.608c0.064,-0.073 0.109,-0.184 0.189,-0.219c0.312,-0.14 0.476,-0.391 0.6,-0.696c-0.095,-0.072 -0.178,-0.136 -0.263,-0.2c0.156,-0.31 0.407,-0.314 0.726,-0.23c0.061,-0.216 0.121,-0.428 0.182,-0.646c0.267,-0.236 0.566,-0.5 0.881,-0.777c-0.122,-0.139 -0.224,-0.256 -0.346,-0.394c0.143,-0.007 0.25,-0.013 0.34,-0.018c0.026,-0.206 0.087,-0.401 0.064,-0.585c-0.034,-0.269 0.022,-0.371 0.293,-0.343c0.18,0.018 0.359,0.059 0.538,0.09c0,0 -0,-0.006 -0.006,0.021c0.249,0.232 0.271,-0.077 0.46,-0.156c-0.201,-0.139 -0.36,-0.249 -0.501,-0.347c0.061,-0.183 0.112,-0.339 0.165,-0.499c0.222,0.021 0.445,0.043 0.668,0.065c0,0 0.002,-0.006 -0.006,0.021c0.21,0.396 0.42,0.417 0.657,0.094c0,0 0.003,0.009 0.024,0.007c0.204,-0.268 0.445,-0.514 0.546,-0.809c0.058,-0.169 0.037,-0.492 -0.34,-0.527c-0.231,-0.021 -0.452,-0.15 -0.679,-0.231c0.068,-0.146 0.122,-0.26 0.175,-0.375c0.179,0.163 0.538,0.101 0.664,-0.128c0.14,-0.255 0.298,-0.509 0.377,-0.785c0.038,-0.135 -0.086,-0.316 -0.136,-0.477c-0.031,-0.099 -0.087,-0.199 -0.083,-0.298c0.008,-0.215 0.046,-0.429 0.075,-0.674c0.072,-0.021 0.242,-0.027 0.354,-0.111c0.741,-0.554 1.47,-1.124 2.2,-1.693c0.022,-0.017 0.01,-0.078 0.014,-0.119c0,0 0.005,0.006 0.029,0.003c0.04,-0.073 0.079,-0.148 0.066,-0.212c-0.055,-0.257 0.027,-0.426 0.258,-0.562c0.151,-0.089 0.295,-0.22 0.393,-0.364c0.175,-0.259 0.186,-0.637 0.583,-0.732c0.06,-0.014 0.095,-0.157 0.129,-0.245c0.069,-0.178 0.096,-0.382 0.199,-0.536c0.171,-0.255 0.263,-0.587 0.674,-0.624c0.375,-0.033 0.767,-0.094 1.106,-0.246c0.306,-0.137 0.568,-0.15 0.879,-0.08c0.271,0.06 0.543,0.037 0.761,-0.205c0.059,-0.066 0.222,-0.067 0.332,-0.052c0.208,0.029 0.409,0.103 0.616,0.137c0.368,0.061 0.742,0.089 1.107,0.164c0.397,0.081 0.959,-0.202 1.059,-0.585c0.054,-0.206 0.083,-0.396 0.366,-0.375c0.044,0.003 0.095,-0.093 0.1,-0.098c0.091,0.097 0.183,0.194 0.276,0.292c0,0 -0.007,0.009 -0.004,0.03c0.711,0.544 2.711,0.933 3.193,0.382c0.166,0.037 0.308,0.068 0.444,0.098c0.015,0.15 -0.2,0.338 0.095,0.404c0,0 -0.004,0.005 -0.001,0.03c0.114,0.08 0.221,0.149 0.338,0.187c0.533,0.174 1.077,0.158 1.622,0.065c0.478,-0.081 0.957,-0.161 1.431,-0.262c0.443,-0.094 0.882,-0.21 1.319,-0.328c0.572,-0.154 1.142,-0.298 1.253,-1.039c0.019,-0.126 0.125,-0.337 0.407,-0.355c0.266,-0.018 0.535,-0.134 0.663,-0.504c0.059,-0.169 -0.043,-0.387 0.09,-0.486c0.139,-0.032 0.234,-0.052 0.329,-0.075c0.402,-0.097 0.801,-0.258 1.206,-0.275c0.522,-0.021 1.047,0.1 1.572,0.111c0.507,0.011 1.018,-0.01 1.521,-0.074c0.314,-0.04 0.615,-0.186 0.985,-0.305c0.344,0.217 0.673,0.157 0.981,-0.246c0.024,-0.031 0.05,-0.076 0.082,-0.083c0.421,-0.092 0.844,-0.178 1.266,-0.266c0.062,-0.013 0.123,-0.037 0.185,-0.044c0.421,-0.05 0.824,-0.248 1.262,-0.156c0.476,0.101 0.925,-0.044 1.229,-0.364c0.298,-0.314 0.638,-0.317 0.983,-0.345c0.853,-0.067 1.71,-0.082 2.562,-0.154c0.172,-0.015 0.355,-0.168 0.486,-0.303c0.12,-0.123 0.177,-0.308 0.262,-0.465c0,0 -0.005,-0.003 0.023,0.005c0.174,-0.062 0.33,-0.205 0.465,-0.188c0.361,0.045 0.713,0.16 1.075,0.264c0.027,0.025 0.048,0.032 0.097,0.042c0.118,-0.001 0.209,-0.004 0.324,-0.002c0.097,-0.014 0.17,-0.032 0.269,-0.054c0.258,-0.072 0.491,-0.141 0.723,-0.211c0.198,-0.06 0.393,-0.133 0.594,-0.181c0.424,-0.1 0.912,-0.057 1.152,-0.552c0.011,-0.022 0.148,-0.002 0.215,0.026c0.115,0.048 0.216,0.153 0.332,0.172c0.287,0.046 0.579,0.064 0.87,0.081c0.239,0.014 0.479,0.021 0.717,0.011c0.335,-0.014 0.67,-0.036 1.002,-0.078c0.056,-0.007 0.099,-0.13 0.145,-0.202c0.036,-0.058 0.06,-0.126 0.105,-0.175c0.011,-0.012 0.094,0.023 0.127,0.054c0.273,0.257 0.412,0.259 0.685,0.002c0.301,-0.283 0.604,-0.564 0.924,-0.857c0.087,-0.095 0.156,-0.18 0.247,-0.266c0.401,-0.207 0.779,-0.412 1.158,-0.618c0.099,0.109 0.16,0.177 0.223,0.244c0.532,0.57 1.227,0.574 1.917,0.5c0.252,-0.027 0.662,0.044 0.631,-0.434c0.353,-0.036 0.641,0.039 0.88,0.276c0.232,0.229 0.466,0.093 0.677,-0.028c0.117,-0.067 0.193,-0.204 0.288,-0.31c0.082,-0.056 0.246,-0.035 0.346,-0.105c0.453,-0.316 0.861,-0.705 1.336,-0.978c0.463,-0.266 0.974,-0.473 1.488,-0.618c0.629,-0.178 1.284,-0.265 1.928,-0.388c0.062,-0.012 0.147,-0.028 0.188,0.002c0.226,0.167 0.352,-0.006 0.512,-0.121c0.49,-0.351 0.597,-0.952 0.935,-1.402c0.072,-0.095 0.1,-0.223 0.149,-0.335c0,-0 0.008,0.008 0.029,0.002c0.102,-0.127 0.206,-0.238 0.262,-0.369c0.132,-0.309 0.328,-0.536 0.653,-0.652c0.075,-0.027 0.142,-0.12 0.18,-0.199c0.107,-0.222 0.148,-0.501 0.309,-0.666c0.154,-0.157 0.195,-0.257 0.084,-0.425c-0.158,-0.241 -0.016,-0.333 0.181,-0.437c0.111,-0.059 0.209,-0.176 0.268,-0.29c0.061,-0.118 0.069,-0.264 0.103,-0.413c0.301,0.046 0.479,-0.063 0.514,-0.376c0.02,-0.177 0.067,-0.351 0.111,-0.524c0.052,-0.204 0.086,-0.419 0.181,-0.602c0.042,-0.081 0.228,-0.149 0.323,-0.125c0.09,0.023 0.179,0.165 0.213,0.272c0.05,0.159 0.043,0.336 0.074,0.502c0.092,0.485 0.313,0.962 0.066,1.463c-0.017,0.035 -0.01,0.088 0.001,0.129c0.105,0.376 -0.002,0.821 0.363,1.116c0.041,0.033 0.039,0.118 0.06,0.178c0.108,0.305 0.216,0.609 0.327,0.913c0.018,0.049 0.065,0.09 0.075,0.139c0.023,0.105 0.068,0.225 0.038,0.319c-0.123,0.396 -0.297,0.778 -0.401,1.178c-0.085,0.327 -0.136,0.672 -0.132,1.009c0.004,0.368 0.084,0.737 0.145,1.103c0.008,0.045 0.109,0.074 0.167,0.11c0,-0 0.001,-0.006 -0.01,0.02c0.014,0.142 0.039,0.258 0.056,0.339c-0.078,0.155 -0.175,0.305 -0.229,0.469c-0.065,0.196 -0.108,0.403 -0.128,0.609c-0.006,0.059 0.09,0.142 0.156,0.193c0.22,0.169 0.27,0.391 0.193,0.638c-0.083,0.265 -0.228,0.514 -0.279,0.783c-0.074,0.397 -0.19,0.737 -0.574,0.941c-0.092,0.049 -0.143,0.176 -0.213,0.268c0,-0 -0.008,-0.005 -0.024,-0.003c-0.026,0.023 -0.035,0.045 -0.044,0.066c0,-0 -0.008,-0.006 -0.028,-0.006c-0.07,0.046 -0.12,0.092 -0.169,0.138c0,0 -0.011,-0.01 -0.029,-0.008c-0.067,0.048 -0.115,0.094 -0.164,0.141c0,0 -0.01,-0.008 -0.025,-0.005c-0.024,0.025 -0.032,0.047 -0.041,0.068c0,0 -0.009,-0.012 -0.029,-0.004c-0.081,0.134 -0.142,0.26 -0.219,0.419c-0.068,0.075 -0.172,0.19 -0.276,0.305c0,-0 -0.01,-0.004 -0.03,-0.006c-0.481,0.228 -0.856,0.531 -1.038,1.043c-0.091,0.255 -0.245,0.488 -0.37,0.73c0,0 -0.013,-0.012 -0.031,-0.006c-0.177,0.088 -0.327,0.21 -0.495,0.244c-0.627,0.126 -0.802,0.646 -0.987,1.131c-0.191,0.501 -0.313,1.028 -0.463,1.545c-0.061,0.21 -0.115,0.422 -0.175,0.644c0.248,0.019 0.248,0.019 0.202,0.235c-0.07,0.33 0.092,0.497 0.414,0.447c0.229,-0.036 0.305,0.084 0.261,0.302c-0.128,0.018 -0.244,0.034 -0.31,0.044c-0.068,0.151 -0.089,0.302 -0.175,0.369c-0.38,0.296 -0.781,0.564 -1.17,0.848c-0.12,0.087 -0.269,0.171 -0.331,0.294c-0.14,0.28 -0.244,0.579 -0.344,0.877c-0.091,0.269 -0.063,0.596 -0.413,0.723c-0.053,0.019 -0.072,0.123 -0.113,0.182c-0.096,0.136 -0.173,0.299 -0.301,0.394c-0.164,0.122 -0.37,0.191 -0.559,0.277c-0.114,0.052 -0.232,0.132 -0.348,0.133c-0.55,0.005 -1.036,0.203 -1.51,0.452c-0.732,0.386 -1.469,0.764 -2.194,1.163c-0.223,0.123 -0.492,0.235 -0.509,0.559c0,0 -0.009,-0.005 -0.03,-0.006c-0.337,0.21 -0.766,0.264 -0.95,0.66c0,0 -0.01,-0.008 -0.025,-0.004c-0.024,0.025 -0.034,0.046 -0.043,0.067c0,-0 -0.011,-0.008 -0.029,-0.001c-0.152,0.29 -0.285,0.573 -0.418,0.856c0,0 -0.003,0.002 -0.027,0.001c-0.419,0.26 -0.819,0.515 -1.207,0.786c-0.073,0.051 -0.1,0.168 -0.149,0.255c0,0 -0.008,-0.011 -0.027,-0.003c-0.308,0.291 -0.598,0.574 -0.887,0.857c0,0 -0.011,-0.009 -0.025,-0.006c-0.023,0.025 -0.032,0.047 -0.04,0.069c0,0 -0.007,-0.003 -0.028,-0.005c-0.113,0.088 -0.206,0.178 -0.298,0.268c0,-0 -0.009,-0.008 -0.025,-0.005c-0.025,0.024 -0.034,0.046 -0.044,0.067c0,0 -0.01,-0.007 -0.029,-0.006c-0.089,0.069 -0.159,0.137 -0.23,0.205c0,0 -0.009,-0.008 -0.025,-0.005c-0.025,0.025 -0.034,0.046 -0.044,0.067c0,0 -0.01,-0.007 -0.029,-0.006c-0.088,0.069 -0.158,0.138 -0.228,0.206c0,0 -0.013,-0.013 -0.03,-0.007c-0.067,0.093 -0.117,0.179 -0.166,0.265c0,0 -0.009,-0.01 -0.029,-0.003c-0.091,0.136 -0.161,0.266 -0.232,0.396c0,0 -0.005,-0.001 -0.023,-0c-0.027,0.023 -0.035,0.044 -0.043,0.066c0,0 -0.004,-0 -0.028,-0.003c-0.343,0.148 -0.451,0.418 -0.441,0.749c0.013,0.418 -0.065,0.855 -0.374,1.106c-0.267,0.217 -0.493,0.337 -0.271,0.697c0,0 -0.006,-0.003 -0.029,-0.004c-0.276,0.126 -0.412,0.322 -0.306,0.602c0.09,0.238 0.107,0.439 -0.115,0.593c-0.112,-0.021 -0.223,-0.041 -0.364,-0.068c-0.163,0.471 -0.567,0.852 -0.511,1.419c0.019,0.193 0.077,0.269 0.275,0.269c0.102,0 0.203,0.07 0.305,0.109c-0.008,0.039 -0.016,0.078 -0.024,0.117c-0.091,0.01 -0.186,0.007 -0.272,0.034c-0.12,0.037 -0.328,0.092 -0.33,0.146c-0.006,0.144 0.078,0.291 0.126,0.434c-0.181,0.038 -0.316,0.517 -0.246,1.15c0.096,0.02 0.195,0.04 0.261,0.054c-0.032,0.377 -0.058,0.726 -0.091,1.075c-0.026,0.271 -0.137,0.562 -0.072,0.808c0.11,0.418 -0.054,0.804 0.003,1.198c-0.105,0.029 -0.181,0.05 -0.332,0.092c0.143,0.119 0.237,0.198 0.321,0.269c-0.038,0.236 -0.031,0.486 -0.12,0.694c-0.347,0.813 0.064,1.486 0.364,2.181c0.012,0.029 0.071,0.038 0.109,0.056c0,0 -0.005,0.011 -0.006,0.03c0.123,0.144 0.227,0.306 0.375,0.384c0.295,0.154 0.614,0.261 0.923,0.388c0,0 0.003,-0.004 -0.007,0.02c0.184,0.16 0.369,0.313 0.576,0.426c0.153,0.084 0.334,0.117 0.5,0.172c-0.115,0.415 -0.247,0.718 -0.578,0.894c-0.051,0.027 -0.068,0.117 -0.101,0.178c0,0 0.005,0.006 -0.018,-0.006c-0.111,0.154 -0.198,0.319 -0.286,0.484c0,0 -0.009,-0.01 -0.029,-0.006c-0.136,0.135 -0.251,0.266 -0.366,0.396c0,0 -0.013,-0.012 -0.031,-0.005c-0.037,0.15 -0.023,0.308 -0.081,0.433c-0.224,0.48 -0.181,0.699 0.205,0.937c-0.028,0.259 -0.055,0.507 -0.083,0.765c-0.097,0.109 -0.229,0.25 -0.352,0.399c-0.1,0.122 -0.19,0.254 -0.282,0.383c-0.036,0.051 -0.064,0.107 -0.095,0.161c0,0 -0.005,-0.01 -0.029,-0.002c-0.29,0.294 -0.211,0.649 -0.151,0.961c0.136,0.703 0.49,1.317 0.932,1.883c-0.357,0.134 -0.389,0.266 -0.185,0.589c0.033,0.052 0.014,0.205 -0.014,0.214c-0.515,0.168 -0.448,0.686 -0.642,1.045c0,0 0.009,0.007 -0.016,-0.005c-0.048,0.023 -0.071,0.057 -0.095,0.091c0,0 -0.012,-0.008 -0.03,-0.007c-0.11,0.09 -0.202,0.18 -0.294,0.27c0,0 -0.01,-0.014 -0.03,-0.006c-0.192,0.218 -0.366,0.426 -0.533,0.641c-0.027,0.035 -0.02,0.097 -0.028,0.146c0,0 -0.008,-0.008 -0.024,-0.003c-0.023,0.027 -0.031,0.049 -0.039,0.07c0,0 -0.01,-0.008 -0.03,-0.003c-0.117,0.232 -0.246,0.452 -0.305,0.688c-0.094,0.38 -0.139,0.771 -0.212,1.157c-0.031,0.164 -0.081,0.324 -0.121,0.487c-0.107,0.429 -0.187,0.868 -0.327,1.286c-0.164,0.49 -0.477,0.948 -0.553,1.445c-0.112,0.739 -0.482,1.321 -0.851,1.929c-0.256,0.421 -0.454,0.877 -0.678,1.317c-0,0 -0.01,-0.01 -0.029,-0.003c-0.067,0.093 -0.115,0.18 -0.164,0.266c0,0 -0.007,-0.006 -0.029,-0.002c-0.202,0.308 -0.383,0.612 -0.563,0.917c0,0 -0.007,-0.011 -0.029,-0.002c-0.126,0.281 -0.192,0.576 -0.341,0.821c-0.373,0.614 -0.563,1.268 -0.56,1.983c0.001,0.163 0.021,0.327 0.009,0.489c-0.037,0.514 -0.085,1.027 -0.132,1.57c-0.027,0.292 -0.051,0.555 -0.09,0.822c-0.023,0.024 -0.03,0.043 -0.039,0.08c-0.001,0.029 0.001,0.041 -0.002,0.075c0.016,0.073 0.037,0.124 0.058,0.2c-0.048,0.166 -0.097,0.307 -0.146,0.448c0,0 -0.021,0.019 -0.051,0.015c-0.067,0.047 -0.105,0.098 -0.142,0.149c0,0 -0.003,0.005 -0.025,-0.002c-0.107,0.118 -0.192,0.243 -0.276,0.367Z" style="fill:#4ade80;fill-rule:nonzero;stroke:#22c55e;stroke-width:1px;"/></svg>