<?xml version="1.0" encoding="UTF-8" standalone="no"?><!DOCTYPE svg PUBLIC "-//W3C//DTD SVG 1.1//EN" "http://www.w3.org/Graphics/SVG/1.1/DTD/svg11.dtd"><svg width="100%" height="100%" viewBox="0 0 100 100" version="1.1" xmlns="http://www.w3.org/2000/svg" xmlns:xlink="http://www.w3.org/1999/xlink" xml:space="preserve" xmlns:serif="http://www.serif.com/" style="fill-rule:evenodd;clip-rule:evenodd;stroke-linejoin:round;stroke-miterlimit:2;"><rect id="_6_hokkaido_kojima" serif:id="6_hokkaido_kojima" x="0" y="0" width="100" height="100" style="fill:none;"/><path d="M90.703,41.89c0,0 -0.009,-0.008 -0.012,0.022c-0.004,0.492 0.04,0.959 -0.015,1.414c-0.087,0.728 -0.239,1.447 -0.364,2.17c-0.123,0.713 -0.247,1.425 -0.371,2.138c-0.146,0.842 -0.292,1.684 -0.44,2.525c-0.121,0.69 -0.246,1.38 -0.369,2.069c-0.127,0.711 -0.236,1.427 -0.386,2.133c-0.163,0.766 -0.364,1.524 -0.554,2.313c-0.119,0.504 -0.229,0.981 -0.348,1.457c-0.434,1.73 -0.869,3.459 -1.307,5.187c-0.553,2.182 -1.1,4.365 -1.667,6.543c-0.264,1.014 -0.527,2.032 -0.868,3.022c-0.484,1.405 -1.044,2.784 -1.562,4.177c-0.577,1.552 -1.175,3.093 -2.021,4.526c-0.239,0.404 -0.405,0.851 -0.605,1.279c0,0 -0.005,-0.006 -0.026,0.001c-0.301,0.524 -0.587,1.037 -0.86,1.558c-0.186,0.354 -0.355,0.718 -0.532,1.077c0,0 -0.006,-0.004 -0.022,-0.001c-0.026,0.025 -0.036,0.046 -0.046,0.068c0,0 -0.006,-0.006 -0.021,-0.002c-0.026,0.026 -0.036,0.048 -0.046,0.069c0,0 -0.006,-0.006 -0.021,-0.002c-0.026,0.026 -0.036,0.048 -0.046,0.069c0,0 -0.006,-0.006 -0.021,-0.002c-0.026,0.026 -0.036,0.048 -0.046,0.069c0,0 -0.006,-0.006 -0.021,-0.002c-0.026,0.026 -0.036,0.048 -0.046,0.069c0,0 -0.006,-0.006 -0.021,-0.002c-0.026,0.026 -0.036,0.048 -0.046,0.069c0,0 -0.006,-0.006 -0.021,-0.002c-0.026,0.026 -0.036,0.048 -0.046,0.069c-0,0 -0.006,-0.006 -0.021,-0.002c-0.026,0.026 -0.036,0.048 -0.046,0.069c0,0 -0.006,-0.006 -0.021,-0.002c-0.026,0.026 -0.036,0.048 -0.046,0.069c0,0 -0.006,-0.006 -0.021,-0.002c-0.026,0.026 -0.036,0.048 -0.046,0.069c0,0 -0.006,-0.006 -0.021,-0.002c-0.026,0.026 -0.036,0.048 -0.046,0.069c0,0 -0.006,-0.006 -0.021,-0.002c-0.026,0.026 -0.036,0.048 -0.046,0.069c0,0 -0.006,-0.006 -0.021,-0.002c-0.026,0.026 -0.036,0.048 -0.046,0.069c0,0 -0.006,-0.006 -0.021,-0.002c-0.026,0.026 -0.036,0.048 -0.046,0.069c0,0 -0.006,-0.006 -0.021,-0.002c-0.026,0.026 -0.036,0.048 -0.046,0.069c0,0 -0.006,-0.006 -0.021,-0.002c-0.026,0.026 -0.036,0.048 -0.046,0.069c0,0 -0.006,-0.006 -0.021,-0.002c-0.026,0.026 -0.036,0.048 -0.046,0.069c0,0 -0.006,-0.006 -0.021,-0.002c-0.026,0.026 -0.036,0.048 -0.046,0.069c0,0 -0.006,-0.006 -0.021,-0.002c-0.026,0.026 -0.036,0.048 -0.046,0.069c0,0 -0.006,-0.006 -0.021,-0.002c-0.026,0.026 -0.036,0.048 -0.046,0.069c0,0 -0.006,-0.006 -0.021,-0.002c-0.026,0.026 -0.036,0.048 -0.046,0.069c0,0 -0.006,-0.006 -0.021,-0.002c-0.026,0.026 -0.036,0.048 -0.046,0.069c0,0 -0.006,-0.006 -0.021,-0.002c-0.026,0.026 -0.036,0.048 -0.046,0.069c-0,0 -0.006,-0.006 -0.021,-0.002c-0.026,0.026 -0.036,0.048 -0.046,0.069c0,0 -0.006,-0.006 -0.021,-0.002c-0.026,0.026 -0.036,0.048 -0.046,0.069c0,0 -0.006,-0.006 -0.021,-0.002c-0.026,0.026 -0.036,0.048 -0.046,0.069c0,0 -0.006,-0.006 -0.021,-0.002c-0.026,0.026 -0.036,0.048 -0.046,0.069c0,0 -0.006,-0.006 -0.021,-0.002c-0.026,0.026 -0.036,0.048 -0.046,0.069c0,0 -0.006,-0.006 -0.021,-0.002c-0.026,0.026 -0.036,0.048 -0.046,0.069c0,0 -0.006,-0.006 -0.021,-0.002c-0.026,0.026 -0.036,0.048 -0.046,0.069c0,0 -0.006,-0.006 -0.021,-0.002c-0.026,0.026 -0.036,0.048 -0.046,0.069c0,0 -0.006,-0.006 -0.021,-0.002c-0.026,0.026 -0.036,0.048 -0.046,0.069c0,0 -0.006,-0.006 -0.021,-0.002c-0.026,0.026 -0.036,0.048 -0.046,0.069c0,0 -0.006,-0.006 -0.021,-0.002c-0.026,0.026 -0.036,0.048 -0.046,0.069c0,0 -0.006,-0.006 -0.021,-0.002c-0.026,0.026 -0.036,0.048 -0.046,0.069c0,0 -0.005,-0.006 -0.021,-0.002c-0.026,0.026 -0.036,0.048 -0.046,0.069c0,0 -0.005,-0.006 -0.021,-0.002c-0.026,0.026 -0.036,0.048 -0.046,0.069c0,0 -0.005,-0.006 -0.021,-0.002c-0.026,0.026 -0.036,0.048 -0.046,0.069c0,0 -0.005,-0.006 -0.021,-0.002c-0.026,0.026 -0.036,0.048 -0.046,0.069c0,0 -0.005,-0.006 -0.021,-0.002c-0.026,0.026 -0.036,0.048 -0.046,0.069c0,0 -0.005,-0.006 -0.021,-0.002c-0.026,0.026 -0.036,0.048 -0.046,0.069c0,0 -0.005,-0.006 -0.021,-0.002c-0.026,0.026 -0.036,0.048 -0.046,0.069c0,0 -0.005,-0.006 -0.021,-0.002c-0.026,0.026 -0.036,0.048 -0.046,0.069c-0,0 -0.005,-0.006 -0.021,-0.002c-0.026,0.026 -0.036,0.048 -0.046,0.069c0,0 -0.005,-0.006 -0.021,-0.002c-0.026,0.026 -0.036,0.048 -0.046,0.069c0,0 -0.005,-0.006 -0.021,-0.002c-0.026,0.026 -0.036,0.048 -0.046,0.069c0,0 -0.005,-0.006 -0.021,-0.002c-0.026,0.026 -0.036,0.048 -0.046,0.069c0,0 -0.005,-0.006 -0.021,-0.002c-0.026,0.026 -0.036,0.048 -0.046,0.069c0,0 -0.005,-0.006 -0.021,-0.002c-0.026,0.026 -0.036,0.048 -0.046,0.069c0,0 -0.005,-0.006 -0.021,-0.002c-0.026,0.026 -0.036,0.048 -0.046,0.069c0,0 -0.002,-0.006 -0.026,-0.005c-0.459,0.247 -0.899,0.485 -1.328,0.742c-0.322,0.193 -0.63,0.409 -0.944,0.615c0,0 -0.005,-0.006 -0.027,-0.005c-0.163,0.093 -0.305,0.184 -0.446,0.275c0,0 -0.005,-0.007 -0.027,-0.005c-0.281,0.135 -0.547,0.256 -0.795,0.406c-0.319,0.192 -0.623,0.407 -0.934,0.612c0,-0 -0.005,-0.006 -0.027,-0.005c-0.163,0.093 -0.305,0.184 -0.446,0.275c0,0 -0.005,-0.006 -0.029,-0.005c-0.822,0.329 -1.622,0.654 -2.419,0.985c-0.607,0.252 -1.195,0.559 -1.818,0.758c-1.342,0.428 -2.698,0.812 -4.054,1.191c-0.557,0.156 -1.126,0.285 -1.698,0.369c-0.761,0.112 -1.488,-0.144 -2.22,-0.304c-0.523,-0.114 -1.066,-0.183 -1.557,-0.382c-0.773,-0.313 -1.509,-0.718 -2.262,-1.081c-0.097,-0.047 -0.202,-0.076 -0.304,-0.113c0,0 0.005,-0.006 -0.001,-0.026c-0.094,-0.072 -0.182,-0.124 -0.269,-0.177c0,0 0.005,-0.007 -0.001,-0.026c-0.094,-0.072 -0.181,-0.124 -0.269,-0.177c-0,0 0.005,-0.007 -0.001,-0.026c-0.094,-0.072 -0.181,-0.124 -0.269,-0.177c0,0 0.005,-0.006 -0.001,-0.026c-0.094,-0.072 -0.181,-0.124 -0.269,-0.177c0,0 0.005,-0.006 -0.001,-0.026c-0.094,-0.072 -0.181,-0.124 -0.269,-0.177c0,0 0.005,-0.006 -0.001,-0.026c-0.094,-0.072 -0.181,-0.124 -0.269,-0.177c0,0 0.005,-0.006 -0.001,-0.026c-0.094,-0.072 -0.181,-0.124 -0.269,-0.177c0,0 0.005,-0.006 -0.001,-0.026c-0.094,-0.072 -0.181,-0.124 -0.269,-0.177c0,0 0.005,-0.006 -0.001,-0.026c-0.094,-0.072 -0.181,-0.124 -0.269,-0.177c0,0 0.005,-0.006 -0.001,-0.026c-0.094,-0.072 -0.181,-0.124 -0.269,-0.177c-0,0 0.005,-0.006 -0.001,-0.026c-0.117,-0.094 -0.227,-0.169 -0.337,-0.243c0,0 0.004,-0.006 0.001,-0.022c-0.025,-0.026 -0.046,-0.036 -0.068,-0.046c0,0 0.006,-0.006 0.002,-0.022c-0.026,-0.026 -0.048,-0.036 -0.07,-0.046c0,0 0.007,-0.006 0.002,-0.022c-0.026,-0.026 -0.048,-0.036 -0.07,-0.046c0,0 0.007,-0.006 0.002,-0.022c-0.026,-0.026 -0.048,-0.036 -0.07,-0.046c0,0 0.007,-0.006 0.003,-0.022c-0.026,-0.026 -0.048,-0.036 -0.07,-0.045c0,0 0.007,-0.006 0.003,-0.022c-0.026,-0.026 -0.048,-0.036 -0.07,-0.045c0,0 0.003,-0.005 -0.001,-0.024c-0.029,-0.034 -0.053,-0.049 -0.078,-0.064c-0.026,-0.029 -0.052,-0.058 -0.098,-0.115c-0.045,-0.041 -0.069,-0.054 -0.093,-0.067c0,0 0.007,-0.001 -0,-0.023c-0.047,-0.034 -0.086,-0.045 -0.125,-0.057c0,0 -0.004,0.005 0.007,-0.02c-0.018,-0.032 -0.046,-0.039 -0.074,-0.046c0,0 -0.001,0.006 0.012,-0.019c-0.54,-0.57 -1.093,-1.114 -1.646,-1.659c0,0 0.006,-0.006 0.003,-0.022c-0.025,-0.025 -0.047,-0.035 -0.069,-0.045c0,0 0.007,-0.006 0.003,-0.022c-0.026,-0.026 -0.048,-0.036 -0.07,-0.046c0,0 0.007,-0.006 0.002,-0.022c-0.026,-0.026 -0.048,-0.036 -0.069,-0.046c-0,0 0.006,-0.003 0.005,-0.025c-0.161,-0.187 -0.32,-0.351 -0.48,-0.515c0,0 0.006,-0.006 0.003,-0.022c-0.025,-0.025 -0.047,-0.035 -0.069,-0.045c0,0 0.007,-0.006 0.002,-0.022c-0.026,-0.026 -0.048,-0.036 -0.07,-0.046c0,0 0.007,-0.006 0.002,-0.022c-0.026,-0.026 -0.047,-0.036 -0.069,-0.047c0,0 0.006,-0.002 0.005,-0.025c-0.134,-0.146 -0.267,-0.269 -0.399,-0.392c0,0 -0.004,0.005 0.014,-0.016c-0.02,-0.05 -0.057,-0.078 -0.094,-0.107c0,0 0.007,-0.006 0.003,-0.021c-0.025,-0.025 -0.047,-0.035 -0.069,-0.045c0,0 0.007,-0.006 0.002,-0.022c-0.026,-0.026 -0.048,-0.036 -0.07,-0.046c0,0 0.006,-0.006 0.002,-0.022c-0.026,-0.026 -0.047,-0.036 -0.069,-0.047c0,0 0.006,-0.002 0.005,-0.025c-0.134,-0.146 -0.266,-0.269 -0.399,-0.392c0,0 -0.004,0.005 0.013,-0.016c-0.02,-0.05 -0.057,-0.078 -0.094,-0.106c0,0 0.007,-0.006 0.003,-0.022c-0.025,-0.025 -0.047,-0.035 -0.069,-0.045c0,0 0.007,-0.006 0.002,-0.022c-0.026,-0.026 -0.048,-0.036 -0.069,-0.046c0,0 0.006,-0.003 0.005,-0.026c-0.218,-0.383 -0.58,-0.522 -0.95,-0.65c0,0 0.006,-0.006 -0.001,-0.026c-0.335,-0.21 -0.648,-0.438 -0.995,-0.581c-1.016,-0.419 -2.043,-0.81 -3.071,-1.201c-0.69,-0.263 -1.387,-0.506 -2.081,-0.758c0,0 0.007,-0.006 0,-0.026c-0.185,-0.118 -0.362,-0.215 -0.54,-0.312c0,0 0.006,-0.006 -0.001,-0.026c-0.184,-0.117 -0.362,-0.215 -0.54,-0.312c0,0 0.006,-0.006 -0.001,-0.026c-0.252,-0.162 -0.497,-0.304 -0.743,-0.446c0,0 0.006,-0.006 -0,-0.026c-0.184,-0.117 -0.362,-0.215 -0.54,-0.312c0,0 0.006,-0.006 -0.001,-0.026c-0.184,-0.117 -0.362,-0.215 -0.539,-0.312c0,0 0.006,-0.006 -0.001,-0.025c-0.072,-0.05 -0.137,-0.079 -0.202,-0.109c0,0 0.006,-0.006 -0,-0.026c-0.184,-0.117 -0.362,-0.215 -0.54,-0.312c0,0 0.006,-0.006 -0.001,-0.026c-0.184,-0.117 -0.362,-0.215 -0.54,-0.312c0,-0 0.006,-0.006 -0.001,-0.026c-0.226,-0.144 -0.446,-0.267 -0.665,-0.391c0,0 -0.001,0.006 0.012,-0.019c-0.089,-0.096 -0.191,-0.167 -0.293,-0.239c0,0 0.004,-0.006 0.001,-0.022c-0.025,-0.026 -0.047,-0.036 -0.069,-0.046c0,0 0.008,-0.004 0.001,-0.024c-0.117,-0.096 -0.228,-0.171 -0.338,-0.246c-0,0 0.004,-0.006 0,-0.022c-0.025,-0.026 -0.047,-0.036 -0.069,-0.045c0,0 0.008,-0.004 -0,-0.026c-0.047,-0.032 -0.086,-0.043 -0.125,-0.055c0,0 -0.002,0.006 0.012,-0.019c-0.088,-0.096 -0.19,-0.167 -0.292,-0.238c0,0 0.004,-0.006 0.001,-0.022c-0.025,-0.026 -0.047,-0.036 -0.069,-0.046c0,0 0.008,-0.004 0.002,-0.024c-0.117,-0.095 -0.228,-0.171 -0.338,-0.246c-0,0 0.004,-0.006 0,-0.022c-0.025,-0.026 -0.047,-0.036 -0.069,-0.045c0,0 0.008,-0.004 -0,-0.026c-0.047,-0.032 -0.086,-0.043 -0.125,-0.055c0,-0 -0.002,0.006 0.012,-0.019c-0.088,-0.096 -0.19,-0.167 -0.292,-0.238c0,0 0.004,-0.006 0.001,-0.022c-0.025,-0.026 -0.047,-0.036 -0.069,-0.046c0,0 0.008,-0.004 0.001,-0.024c-0.117,-0.095 -0.228,-0.171 -0.338,-0.246c0,0 0.004,-0.006 0.001,-0.022c-0.025,-0.026 -0.047,-0.036 -0.069,-0.045c0,0 0.008,-0.005 0.001,-0.025c-0.14,-0.118 -0.273,-0.215 -0.406,-0.313c0,0 0.004,-0.006 0.001,-0.022c-0.025,-0.026 -0.047,-0.036 -0.069,-0.046c0,0 0.008,-0.004 0.001,-0.024c-0.117,-0.095 -0.228,-0.171 -0.338,-0.246c0,0 0.004,-0.006 0.001,-0.022c-0.025,-0.026 -0.047,-0.036 -0.069,-0.045c0,0 0.008,-0.005 0.001,-0.025c-0.14,-0.118 -0.273,-0.215 -0.406,-0.313c0,0 0.004,-0.006 0.001,-0.022c-0.025,-0.026 -0.047,-0.036 -0.069,-0.046c0,0 0.008,-0.004 0.001,-0.024c-0.117,-0.095 -0.228,-0.171 -0.338,-0.246c0,0 0.004,-0.006 0.001,-0.022c-0.025,-0.026 -0.047,-0.036 -0.069,-0.045c0,0 0.008,-0.005 0.001,-0.024c-0.181,-0.167 -0.355,-0.314 -0.53,-0.462c0,0 -0.004,0.005 0.013,-0.016c-0.02,-0.05 -0.057,-0.078 -0.094,-0.107c0,0 0.006,-0.006 0.003,-0.021c-0.025,-0.026 -0.047,-0.036 -0.069,-0.046c0,0 0.006,-0.003 0.005,-0.025c-0.111,-0.123 -0.222,-0.224 -0.332,-0.325c0,0 -0.004,0.005 0.013,-0.016c-0.02,-0.05 -0.057,-0.078 -0.093,-0.107c0,0 0.006,-0.006 0.003,-0.021c-0.025,-0.026 -0.047,-0.036 -0.068,-0.046c0,0 0.006,-0.003 0.005,-0.025c-0.116,-0.141 -0.23,-0.261 -0.344,-0.38c0,0 0.006,-0.006 0.003,-0.022c-0.025,-0.025 -0.047,-0.035 -0.069,-0.045c0,0 0.006,-0.006 0.002,-0.022c-0.026,-0.026 -0.047,-0.036 -0.069,-0.047c-0,0 0.006,-0.003 0.005,-0.025c-0.116,-0.141 -0.23,-0.261 -0.345,-0.38c0,0 0.006,-0.007 0.003,-0.022c-0.025,-0.025 -0.047,-0.036 -0.069,-0.046c0,0 0.006,-0.003 0.005,-0.026c-0.111,-0.123 -0.221,-0.224 -0.331,-0.325c0,0 -0.004,0.005 0.013,-0.016c-0.02,-0.05 -0.057,-0.078 -0.094,-0.107c0,0 0.006,-0.006 0.003,-0.021c-0.025,-0.026 -0.047,-0.036 -0.069,-0.046c0,0 0.006,-0.003 0.005,-0.025c-0.116,-0.142 -0.23,-0.261 -0.344,-0.38c0,0 0.006,-0.006 0.003,-0.022c-0.025,-0.025 -0.047,-0.035 -0.069,-0.045c0,0 0.006,-0.006 0.002,-0.022c-0.026,-0.026 -0.047,-0.036 -0.069,-0.046c0,0 0.006,-0.003 0.005,-0.025c-0.116,-0.141 -0.23,-0.261 -0.345,-0.38c0,0 0.006,-0.006 0.003,-0.022c-0.025,-0.025 -0.047,-0.035 -0.069,-0.045c0,0 0.006,-0.006 0.002,-0.022c-0.026,-0.026 -0.047,-0.036 -0.069,-0.047c0,0 0.006,-0.003 0.005,-0.025c-0.089,-0.101 -0.177,-0.178 -0.264,-0.256c-0,0 -0.004,0.005 0.014,-0.016c-0.019,-0.05 -0.057,-0.078 -0.094,-0.107c0,0 0.006,-0.006 0.003,-0.021c-0.025,-0.026 -0.047,-0.036 -0.069,-0.046c0,0 0.006,-0.003 0.005,-0.026c-0.111,-0.123 -0.221,-0.224 -0.332,-0.325c0,0 -0.004,0.005 0.014,-0.016c-0.02,-0.05 -0.057,-0.078 -0.094,-0.107c0,0 0.006,-0.006 0.003,-0.021c-0.025,-0.026 -0.047,-0.036 -0.068,-0.046c0,0 0.006,-0.003 0.005,-0.025c-0.116,-0.141 -0.23,-0.261 -0.344,-0.38c0,0 0.006,-0.006 0.003,-0.022c-0.025,-0.025 -0.047,-0.035 -0.069,-0.045c0,0 0.007,-0.006 0.002,-0.022c-0.026,-0.026 -0.047,-0.036 -0.069,-0.047c0,0 0.006,-0.003 0.005,-0.025c-0.116,-0.141 -0.23,-0.261 -0.345,-0.38c0,0 0.006,-0.007 0.003,-0.022c-0.025,-0.025 -0.047,-0.035 -0.069,-0.045c0,0 0.006,-0.006 0.002,-0.022c-0.026,-0.026 -0.047,-0.036 -0.069,-0.047c0,0 0.006,-0.003 0.005,-0.025c-0.089,-0.101 -0.177,-0.178 -0.264,-0.256c0,0 -0.004,0.005 0.014,-0.016c-0.02,-0.05 -0.057,-0.078 -0.094,-0.107c0,0 0.006,-0.006 0.003,-0.021c-0.025,-0.026 -0.047,-0.036 -0.069,-0.046c0,0 0.006,-0.003 0.005,-0.025c-0.111,-0.123 -0.222,-0.224 -0.332,-0.324c0,0 -0.004,0.005 0.013,-0.016c-0.02,-0.05 -0.056,-0.079 -0.093,-0.107c0,0 0.006,-0.006 0.003,-0.021c-0.025,-0.026 -0.047,-0.036 -0.068,-0.046c0,0 0.006,-0.003 0.005,-0.025c-0.116,-0.141 -0.23,-0.261 -0.344,-0.38c0,0 0.006,-0.006 0.003,-0.022c-0.025,-0.025 -0.047,-0.035 -0.069,-0.045c0,0 0.006,-0.006 0.002,-0.022c-0.026,-0.026 -0.047,-0.036 -0.069,-0.047c0,0 0.006,-0.003 0.005,-0.025c-0.116,-0.141 -0.23,-0.26 -0.345,-0.38c0,0 0.006,-0.007 0.003,-0.022c-0.025,-0.025 -0.047,-0.036 -0.069,-0.046c0,0 0.006,-0.003 0.005,-0.026c-0.111,-0.123 -0.222,-0.224 -0.332,-0.324c0,0 -0.004,0.005 0.014,-0.016c-0.02,-0.05 -0.057,-0.078 -0.094,-0.107c0,0 0.006,-0.006 0.003,-0.021c-0.025,-0.026 -0.047,-0.036 -0.068,-0.046c-0,0 0.006,-0.003 0.005,-0.025c-0.115,-0.142 -0.229,-0.262 -0.343,-0.381c0,0 0.007,-0.004 0.005,-0.025c-0.048,-0.073 -0.095,-0.125 -0.142,-0.177c0,0 0.008,-0.005 0.007,-0.025c-0.07,-0.095 -0.14,-0.17 -0.209,-0.245c0,0 0.008,-0.004 0.006,-0.026c-0.116,-0.163 -0.23,-0.305 -0.344,-0.447c0,0 0.008,-0.005 0.006,-0.025c-0.07,-0.096 -0.139,-0.171 -0.208,-0.246c0,0 0.007,-0.004 0.005,-0.025c-0.048,-0.073 -0.095,-0.125 -0.142,-0.177c0,0 0.008,-0.005 0.007,-0.025c-0.07,-0.095 -0.14,-0.17 -0.209,-0.245c0,0 0.008,-0.004 0.006,-0.025c-0.07,-0.096 -0.139,-0.171 -0.208,-0.246c0,0 0.007,-0.004 0.005,-0.025c-0.048,-0.073 -0.095,-0.125 -0.142,-0.177c0,0 0.008,-0.005 0.006,-0.026c-0.07,-0.095 -0.139,-0.17 -0.208,-0.245c0,0 0.007,-0.004 0.006,-0.026c-0.116,-0.163 -0.23,-0.305 -0.344,-0.447c-0,0 0.008,-0.004 0.006,-0.025c-0.07,-0.096 -0.139,-0.171 -0.208,-0.246c0,0 0.007,-0.004 0.005,-0.025c-0.048,-0.073 -0.095,-0.125 -0.142,-0.177c0,0 0.008,-0.005 0.007,-0.026c-0.07,-0.095 -0.139,-0.17 -0.208,-0.245c0,0 0.008,-0.004 0.006,-0.026c-0.116,-0.163 -0.23,-0.305 -0.344,-0.447c0,0 0.008,-0.005 0.006,-0.025c-0.07,-0.096 -0.139,-0.171 -0.208,-0.246c0,0 0.007,-0.004 0.005,-0.025c-0.048,-0.073 -0.095,-0.125 -0.142,-0.177c0,0 0.008,-0.005 0.007,-0.026c-0.07,-0.095 -0.139,-0.17 -0.208,-0.245c0,0 0.008,-0.004 0.006,-0.026c-0.116,-0.163 -0.23,-0.305 -0.344,-0.447c0,0 0.008,-0.005 0.006,-0.025c-0.07,-0.096 -0.139,-0.171 -0.208,-0.246c0,0 0.007,-0.004 0.005,-0.025c-0.048,-0.073 -0.095,-0.125 -0.142,-0.177c0,0 0.008,-0.005 0.007,-0.026c-0.071,-0.095 -0.14,-0.17 -0.209,-0.245c0,0 0.008,-0.004 0.006,-0.026c-0.116,-0.163 -0.23,-0.305 -0.344,-0.447c0,0 0.008,-0.005 0.006,-0.025c-0.071,-0.096 -0.139,-0.171 -0.208,-0.246c0,0 0.007,-0.004 0.005,-0.025c-0.048,-0.073 -0.095,-0.125 -0.142,-0.177c0,0 0.008,-0.005 0.007,-0.025c-0.071,-0.095 -0.14,-0.17 -0.209,-0.245c0,0 0.008,-0.004 0.006,-0.026c-0.116,-0.163 -0.23,-0.305 -0.344,-0.447c0,0 0.008,-0.005 0.007,-0.025c-0.071,-0.096 -0.139,-0.171 -0.208,-0.246c0,0 0.007,-0.004 0.006,-0.026c-0.09,-0.186 -0.169,-0.354 -0.267,-0.511c-0.13,-0.209 -0.275,-0.408 -0.414,-0.612c0,0 0.006,-0.005 0.005,-0.027c-0.115,-0.208 -0.229,-0.395 -0.342,-0.581c0,0 0.006,-0.005 0.005,-0.027c-0.115,-0.208 -0.229,-0.395 -0.342,-0.581c0,0 0.006,-0.005 0.005,-0.027c-0.115,-0.208 -0.229,-0.395 -0.343,-0.581c0,0 0.006,-0.005 0.005,-0.027c-0.115,-0.208 -0.229,-0.395 -0.342,-0.581c0,0 0.006,-0.005 0.005,-0.028c-0.14,-0.413 -0.278,-0.803 -0.411,-1.22c-0.18,-0.675 -0.375,-1.321 -0.547,-1.973c-0.252,-0.958 -0.519,-1.915 -0.721,-2.884c-0.219,-1.049 -0.315,-2.125 -0.564,-3.165c-0.319,-1.332 -0.312,-2.69 -0.455,-4.035c-0.056,-0.53 -0.05,-1.067 -0.067,-1.601c-0.01,-0.325 -0.011,-0.65 -0.012,-1.005c0.05,-0.559 0.09,-1.088 0.145,-1.616c0.043,-0.416 0.052,-0.846 0.168,-1.243c0.343,-1.173 0.729,-2.333 1.103,-3.496c0.605,-1.883 1.56,-3.615 2.339,-5.424c0.351,-0.815 0.783,-1.597 1.102,-2.424c0.555,-1.435 1.053,-2.891 1.57,-4.34c0.205,-0.575 0.42,-1.139 0.939,-1.522c0.068,-0.051 0.091,-0.163 0.135,-0.247c0,0 0.006,0.003 0.022,0c0.026,-0.025 0.036,-0.046 0.047,-0.068c0,0 0.005,0.006 0.021,0.001c0.026,-0.026 0.036,-0.048 0.046,-0.069c0,0 0.006,0.006 0.021,0.002c0.026,-0.026 0.036,-0.048 0.046,-0.069c0,0 0.006,0.006 0.022,0.002c0.026,-0.026 0.036,-0.048 0.046,-0.07c0,0 0.006,0.007 0.022,0.002c0.026,-0.026 0.036,-0.048 0.046,-0.07c0,0 0.006,0.006 0.026,0.004c0.073,-0.048 0.125,-0.094 0.177,-0.141c0,0 0.006,0.007 0.026,0.006c0.072,-0.048 0.125,-0.094 0.177,-0.141c0,0 0.006,0.007 0.026,0.006c0.072,-0.048 0.125,-0.094 0.177,-0.141c0,0 0.006,0.007 0.026,0.006c0.072,-0.048 0.125,-0.094 0.177,-0.141c0,0 0.006,0.007 0.026,0.006c0.072,-0.048 0.125,-0.094 0.177,-0.141c0,0 0.005,0.007 0.026,0.006c0.072,-0.048 0.125,-0.094 0.177,-0.141c0,0 0.005,0.007 0.025,0.006c0.073,-0.048 0.125,-0.094 0.177,-0.141c0,0 0.005,0.007 0.025,0.006c0.073,-0.048 0.125,-0.094 0.177,-0.141c0,0 0.005,0.007 0.025,0.006c0.073,-0.048 0.125,-0.094 0.177,-0.141c0,0 0.005,0.007 0.028,0.005c0.323,-0.135 0.627,-0.261 0.923,-0.402c1.269,-0.607 2.537,-1.216 3.801,-1.833c0.12,-0.059 0.211,-0.178 0.316,-0.269c0,0 0.004,0.007 0.025,0.006c0.073,-0.048 0.125,-0.095 0.177,-0.141c0,0 0.005,0.008 0.027,0.006c0.231,-0.16 0.44,-0.319 0.65,-0.478c0,0 0.004,0.007 0.025,0.005c0.073,-0.048 0.125,-0.095 0.177,-0.141c0,0 0.005,0.007 0.026,0.006c0.072,-0.048 0.124,-0.095 0.177,-0.142c0,0 0.006,0.008 0.027,0.007c0.163,-0.115 0.305,-0.229 0.448,-0.343c0,0 0.004,0.007 0.025,0.005c0.073,-0.048 0.125,-0.095 0.177,-0.141c0,0 0.005,0.007 0.025,0.006c0.072,-0.048 0.125,-0.095 0.177,-0.141c0,0 0.005,0.008 0.027,0.006c0.23,-0.183 0.439,-0.365 0.648,-0.547c0,0 0.007,0.006 0.022,0.003c0.025,-0.025 0.035,-0.047 0.045,-0.069c0,0 0.007,0.007 0.022,0.002c0.026,-0.026 0.036,-0.048 0.046,-0.069c0,0 0.003,0.006 0.026,0.005c0.123,-0.112 0.223,-0.222 0.323,-0.332c0,0 -0.005,-0.003 0.016,0.014c0.05,-0.02 0.079,-0.057 0.107,-0.094c0,0 0.006,0.006 0.021,0.003c0.025,-0.025 0.036,-0.047 0.046,-0.069c0,0 0.003,0.006 0.025,0.005c0.164,-0.138 0.305,-0.275 0.447,-0.412c0,0 0.007,0.007 0.022,0.003c0.025,-0.025 0.035,-0.047 0.045,-0.069c0,0 0.007,0.007 0.022,0.002c0.026,-0.026 0.036,-0.047 0.047,-0.069c0,0 0.003,0.006 0.025,0.005c0.141,-0.116 0.26,-0.23 0.38,-0.345c0,0 0.007,0.006 0.022,0.003c0.025,-0.025 0.035,-0.047 0.045,-0.069c0,0 0.007,0.007 0.022,0.002c0.026,-0.026 0.036,-0.048 0.046,-0.069c0,0 0.003,0.006 0.026,0.005c0.123,-0.111 0.223,-0.222 0.324,-0.332c0,0 -0.005,-0.004 0.016,0.014c0.05,-0.02 0.078,-0.057 0.107,-0.094c0,-0 0.007,0.007 0.022,0.003c0.025,-0.025 0.035,-0.047 0.045,-0.069c0,0 0.003,0.006 0.026,0.005c0.164,-0.138 0.306,-0.275 0.447,-0.412c0,0 0.007,0.006 0.022,0.003c0.025,-0.025 0.035,-0.047 0.045,-0.069c0,0 0.007,0.007 0.022,0.002c0.026,-0.026 0.036,-0.048 0.046,-0.069c0,0 0.003,0.006 0.026,0.005c0.123,-0.111 0.223,-0.222 0.324,-0.332c0,0 -0.005,-0.003 0.016,0.014c0.05,-0.02 0.078,-0.057 0.107,-0.094c0,0 0.006,0.007 0.022,0.003c0.025,-0.025 0.035,-0.047 0.046,-0.069c0,0 0.004,0.006 0.025,0.005c0.119,-0.092 0.216,-0.184 0.313,-0.275c0,0 0.004,0.007 0.025,0.006c0.096,-0.071 0.171,-0.139 0.245,-0.208c0,0 0.004,0.007 0.025,0.006c0.096,-0.071 0.171,-0.139 0.246,-0.208c0,0 0.004,0.007 0.026,0.005c0.163,-0.116 0.305,-0.23 0.446,-0.345c0,0 0.005,0.008 0.025,0.007c0.095,-0.071 0.17,-0.14 0.245,-0.21c-0,0 0.005,0.009 0.026,0.007c0.095,-0.071 0.17,-0.14 0.245,-0.21c0,0 0.005,0.009 0.026,0.007c0.095,-0.071 0.17,-0.14 0.245,-0.21c0,0 0.005,0.009 0.026,0.007c0.095,-0.071 0.17,-0.14 0.245,-0.209c0,0 0.005,0.008 0.025,0.007c0.095,-0.071 0.17,-0.14 0.245,-0.209c0,0 0.005,0.008 0.025,0.007c0.095,-0.071 0.17,-0.14 0.245,-0.209c0,0 0.005,0.008 0.025,0.006c0.095,-0.071 0.17,-0.14 0.245,-0.209c0,0 0.005,0.008 0.027,0.006c0.818,-0.416 1.613,-0.829 2.407,-1.247c0.033,-0.017 0.045,-0.072 0.067,-0.11c0,-0 0.005,0.006 0.027,0.004c0.451,-0.225 0.877,-0.452 1.308,-0.669c0.901,-0.454 1.905,-0.554 2.89,-0.819c0.256,0.001 0.482,-0.002 0.738,-0.001c0.168,0.001 0.307,-0.003 0.477,-0.002c1.342,0.016 2.654,-0.056 3.941,0.336c1.189,0.362 2.434,0.524 3.573,1.074c0.617,0.298 1.278,0.505 1.919,0.753c0,0 -0.006,0.005 0.001,0.026c0.184,0.118 0.362,0.215 0.54,0.312c0,0 -0.006,0.006 0,0.026c0.297,0.185 0.587,0.35 0.878,0.515c0,-0 -0.006,0.006 0.001,0.026c0.184,0.117 0.362,0.215 0.54,0.312c0,0 -0.006,0.006 0.001,0.026c0.184,0.117 0.362,0.215 0.54,0.312c0,0 -0.006,0.006 0,0.026c0.297,0.185 0.587,0.35 0.877,0.515c0,0 -0.006,0.005 0,0.025c0.072,0.05 0.137,0.079 0.203,0.109c0,0 -0.006,0.006 0.001,0.027c0.046,0.032 0.086,0.043 0.125,0.054c0,0 0.001,-0.006 -0.012,0.019c0.066,0.074 0.145,0.123 0.224,0.171c0,0 -0.004,0.006 -0,0.022c0.025,0.026 0.047,0.036 0.069,0.045c0,-0 -0.008,0.004 -0.001,0.024c0.117,0.095 0.228,0.171 0.339,0.246c0,-0 -0.004,0.006 -0.001,0.022c0.025,0.026 0.047,0.036 0.069,0.046c0,0 -0.007,0.004 -0.001,0.024c0.117,0.095 0.228,0.17 0.339,0.245c0,-0 -0.005,0.007 0,0.026c0.116,0.094 0.226,0.169 0.337,0.245c0,0 -0.004,0.006 -0.001,0.022c0.025,0.026 0.047,0.036 0.069,0.045c0,-0 -0.008,0.004 -0.001,0.024c0.117,0.095 0.228,0.171 0.339,0.246c0,0 -0.004,0.006 -0.001,0.022c0.025,0.026 0.047,0.036 0.069,0.046c0,0 -0.008,0.004 -0.001,0.024c0.117,0.095 0.228,0.17 0.339,0.245c0,0 -0.005,0.007 0,0.026c0.116,0.094 0.226,0.169 0.337,0.245c0,0 -0.004,0.006 -0.001,0.022c0.025,0.026 0.047,0.036 0.069,0.046c0,0 -0.008,0.004 -0.001,0.024c0.117,0.095 0.228,0.17 0.339,0.246c0,-0 -0.004,0.007 -0.001,0.022c0.025,0.026 0.047,0.036 0.069,0.046c0,0 -0.008,0.003 -0.002,0.024c0.203,0.19 0.4,0.36 0.598,0.53c0,-0 0.005,-0.004 -0.01,0.02c0.024,0.058 0.063,0.092 0.102,0.126c0,0 0.018,0.024 0.034,0.048c0.04,0.037 0.064,0.05 0.088,0.063c0,0 -0.005,0.001 -0.001,0.019c0.026,0.028 0.048,0.038 0.07,0.048c0,0 -0.007,0.006 -0.002,0.022c0.026,0.026 0.048,0.036 0.07,0.046c0,0 -0.006,0.006 -0.002,0.022c0.026,0.026 0.048,0.036 0.069,0.047c0,0 -0.006,0.005 -0.002,0.021c0.026,0.026 0.047,0.036 0.069,0.047c0,0 -0.006,0.002 -0.005,0.025c0.247,0.259 0.492,0.494 0.738,0.73c0,0 0.004,-0.005 -0.014,0.016c0.02,0.05 0.057,0.079 0.094,0.108c0,0 -0.007,0.004 -0.003,0.022c0.048,0.049 0.093,0.081 0.137,0.112c0,0 -0.006,0.006 -0.002,0.022c0.026,0.026 0.047,0.035 0.069,0.045c0,0 -0.007,0.006 -0.002,0.022c0.026,0.026 0.048,0.036 0.07,0.046c0,0 -0.006,0.006 -0.002,0.022c0.026,0.026 0.048,0.036 0.069,0.046c0,0 -0.006,0.006 -0.002,0.021c0.026,0.026 0.048,0.036 0.069,0.047c0,0 -0.006,0.005 -0.002,0.021c0.026,0.026 0.047,0.036 0.069,0.047c0,0 -0.006,0.002 -0.005,0.025c0.089,0.16 0.187,0.291 0.263,0.434c0.291,0.552 0.577,1.106 0.86,1.662c0.083,0.163 0.19,0.326 0.222,0.5c0.153,0.837 0.284,1.678 0.417,2.546c0.039,0.306 0.09,0.582 0.126,0.861c0.061,0.473 0.146,0.571 0.586,0.592c0.255,0.012 0.512,-0.003 0.799,-0.001c0.437,0.005 0.843,-0.014 1.247,0.009c0.508,0.029 0.981,0.139 1.436,0.428c0.57,0.362 1.209,0.615 1.819,0.915c0,0 -0.006,0.006 -0,0.026c0.071,0.05 0.136,0.08 0.202,0.111c0,0 -0.005,0.005 0.002,0.025c0.094,0.072 0.182,0.124 0.27,0.176c0,0 -0.006,0.006 -0,0.026c0.071,0.05 0.137,0.08 0.202,0.111c0,0 -0.005,0.005 0.001,0.025c0.094,0.072 0.182,0.124 0.27,0.176c0,0 -0.006,0.006 -0.001,0.026c0.071,0.05 0.137,0.08 0.202,0.111c0,0 -0.005,0.005 0.001,0.025c0.094,0.072 0.182,0.124 0.271,0.176c0,0 -0.007,0.006 -0.001,0.026c0.071,0.05 0.137,0.08 0.202,0.11c0,0 -0.005,0.006 0.001,0.025c0.094,0.072 0.182,0.124 0.27,0.176c0,0 -0.007,0.006 -0.001,0.026c0.071,0.05 0.137,0.08 0.202,0.11c0,0 -0.005,0.006 0.002,0.027c0.047,0.097 0.1,0.168 0.126,0.248c0.251,0.799 0.495,1.601 0.748,2.399c0.025,0.079 0.087,0.197 0.144,0.205c0.421,0.059 0.85,0.159 1.266,0.123c0.684,-0.058 1.341,-0.023 1.972,0.251c0.145,0.063 0.269,0.171 0.403,0.258c0,0 -0.004,0.006 -0,0.022c0.025,0.026 0.047,0.036 0.068,0.046c0,0 -0.007,0.006 -0.002,0.022c0.026,0.026 0.048,0.036 0.07,0.045c0,0 -0.008,0.004 -0,0.025c0.047,0.033 0.086,0.044 0.125,0.055c0,0 0.001,-0.006 -0.013,0.019c0.111,0.119 0.235,0.213 0.36,0.307c0,0 -0.003,0.006 -0,0.022c0.025,0.026 0.047,0.036 0.068,0.046c0,0 -0.007,0.006 -0.002,0.022c0.026,0.026 0.048,0.036 0.07,0.046c0,0 -0.007,0.004 -0,0.025c0.047,0.032 0.086,0.044 0.125,0.055c0,-0 0.001,-0.006 -0.012,0.019c0.111,0.119 0.235,0.213 0.359,0.307c0,0 -0.003,0.006 -0,0.022c0.025,0.026 0.047,0.036 0.068,0.046c0,0 -0.006,0.005 -0.002,0.021c0.026,0.026 0.048,0.036 0.07,0.046c0,0 -0.007,0.004 0,0.025c0.047,0.032 0.086,0.044 0.125,0.055c0,0 0.002,-0.006 -0.012,0.018c0.133,0.141 0.28,0.257 0.427,0.374c0,0 -0.003,0.006 -0.001,0.022c0.025,0.026 0.046,0.036 0.068,0.046c0,0 -0.007,0.006 -0.003,0.022c0.026,0.026 0.048,0.036 0.07,0.046c0,0 -0.007,0.004 -0.001,0.024c0.162,0.14 0.318,0.261 0.474,0.381c0,0 -0.006,0.005 -0.004,0.029c0.05,0.157 0.09,0.293 0.148,0.421c0.336,0.741 0.592,1.501 0.599,2.348c-0.001,0.052 0.002,0.083 0.003,0.136c0.06,0.099 0.124,0.174 0.199,0.271c0.12,0.074 0.226,0.131 0.337,0.177c1.186,0.496 2.373,0.987 3.557,1.486c0.396,0.167 0.784,0.356 1.175,0.534c0,0 -0.006,0.008 -0,0.027c0.094,0.072 0.182,0.124 0.27,0.177c0,0 -0.005,0.007 0.001,0.026c0.094,0.072 0.181,0.124 0.269,0.177c0,0 -0.004,0.006 -0.001,0.022c0.026,0.026 0.047,0.035 0.069,0.045c0,0 -0.008,0.004 -0.001,0.024c0.095,0.073 0.183,0.125 0.272,0.178c0,0 -0.006,0.007 0,0.027c0.094,0.072 0.181,0.124 0.269,0.177c0,0 -0.005,0.006 -0.001,0.022c0.026,0.026 0.047,0.036 0.069,0.045c0,0 -0.008,0.004 -0.002,0.024c0.095,0.073 0.183,0.125 0.272,0.177c0,0 -0.006,0.008 -0,0.027c0.094,0.072 0.182,0.124 0.27,0.177c0,0 -0.005,0.007 0.001,0.026c0.117,0.094 0.227,0.169 0.338,0.243c0,0 -0.006,0.007 -0.001,0.027c0.094,0.072 0.182,0.124 0.27,0.176c0,0 -0.006,0.007 0,0.026c0.094,0.072 0.181,0.124 0.269,0.177c0,0 -0.005,0.006 -0.001,0.022c0.026,0.026 0.047,0.036 0.069,0.046c0,0 -0.008,0.004 -0.001,0.024c0.095,0.073 0.183,0.125 0.272,0.177c0,0 -0.006,0.008 -0,0.027c0.094,0.072 0.182,0.124 0.27,0.177c0,0 -0.005,0.007 0.001,0.026c0.117,0.094 0.227,0.169 0.338,0.243c0,0 -0.006,0.008 -0.001,0.027c0.094,0.072 0.182,0.124 0.27,0.177c0,0 -0.005,0.007 0,0.026c0.094,0.072 0.181,0.124 0.269,0.177c0,0 -0.004,0.006 -0.001,0.022c0.026,0.026 0.047,0.036 0.069,0.045c0,0 -0.008,0.004 -0.001,0.025c0.085,0.126 0.185,0.222 0.24,0.338c0.19,0.403 0.356,0.818 0.549,1.22c0.333,0.692 0.601,1.4 0.643,2.177Z" style="fill:#4ade80;fill-rule:nonzero;stroke:#22c55e;stroke-width:1px;"/></svg>