<?xml version="1.0" encoding="UTF-8" standalone="no"?><!DOCTYPE svg PUBLIC "-//W3C//DTD SVG 1.1//EN" "http://www.w3.org/Graphics/SVG/1.1/DTD/svg11.dtd"><svg width="100%" height="100%" viewBox="0 0 100 100" version="1.1" xmlns="http://www.w3.org/2000/svg" xmlns:xlink="http://www.w3.org/1999/xlink" xml:space="preserve" xmlns:serif="http://www.serif.com/" style="fill-rule:evenodd;clip-rule:evenodd;stroke-linejoin:round;stroke-miterlimit:2;"><rect id="_8_miyagi_izushima" serif:id="8_miyagi_izushima" x="0" y="0" width="100" height="100" style="fill:none;"/><path d="M45.357,9.344c-0.002,0.064 -0.01,0.126 0.015,0.148c0.197,0.167 0.394,0.336 0.608,0.479c0.043,0.029 0.156,-0.064 0.239,-0.071c0.144,-0.012 0.298,-0.026 0.43,0.016c0.047,0.015 0.048,0.19 0.061,0.294c0.017,0.13 0.018,0.258 0.208,0.262c0.105,0.002 0.21,0.047 0.308,0.071c0.011,0.03 0.027,0.05 0.023,0.066c-0.065,0.298 -0.064,0.545 0.232,0.764c0.17,0.126 0.2,0.378 -0.108,0.495c-0.181,0.069 -0.143,0.192 -0.025,0.303c0.173,0.162 0.288,0.334 0.145,0.581c-0.014,0.024 0.076,0.124 0.134,0.166c0.026,0.019 0.094,-0.015 0.141,-0.029c0.355,-0.104 0.45,-0.066 0.575,0.259c0.064,0.165 0.113,0.26 0.344,0.203c0.165,-0.041 0.405,0.021 0.447,0.277c0.038,0.228 0.186,0.258 0.376,0.24c0.284,-0.026 0.353,0.078 0.253,0.337c-0.053,0.136 -0.027,0.253 0.165,0.278c0.111,0.014 0.236,0.057 0.315,0.13c0.051,0.047 0.074,0.211 0.034,0.255c-0.215,0.238 -0.125,0.366 0.151,0.443c-0.102,0.258 -0.195,0.459 -0.528,0.386c-0.212,-0.046 -0.31,0.051 -0.226,0.295c0.044,0.126 -0.003,0.281 0.011,0.421c0.021,0.219 -0.151,0.205 -0.277,0.271c-0.122,0.064 -0.247,0.176 -0.07,0.328c0.432,0.373 0.435,0.388 0.152,0.952c0.07,0.052 0.151,0.103 0.221,0.165c0.133,0.118 0.146,0.23 0.009,0.373c-0.07,0.073 -0.137,0.239 -0.101,0.308c0.142,0.274 0.024,0.41 -0.209,0.516c-0.081,0.037 -0.16,0.078 -0.312,0.152c0.246,0.153 0.451,0.281 0.666,0.414c0.229,-0.243 0.454,-0.463 0.823,-0.264c0.044,0.024 0.161,-0.083 0.242,-0.133c0.19,-0.117 0.369,-0.329 0.582,-0.014c0.029,0.043 0.231,0.032 0.29,-0.022c0.201,-0.186 0.363,-0.064 0.53,0.031c0.175,0.099 0.044,0.215 0.008,0.327c-0.012,0.037 -0.02,0.092 -0.002,0.119c0.156,0.232 0.084,0.438 -0.051,0.647c-0.021,0.032 -0.015,0.117 0.011,0.14c0.226,0.193 0.271,0.429 0.224,0.714c-0.032,0.191 0.115,0.216 0.243,0.141c0.113,-0.066 0.197,-0.182 0.295,-0.274c0.091,-0.086 0.172,-0.208 0.28,-0.242c0.094,-0.029 0.231,0.025 0.326,0.081c0.037,0.022 0.019,0.151 0.012,0.231c-0.018,0.201 -0.163,0.418 0.154,0.55c0.08,0.033 0.082,0.252 0.097,0.306c0.274,-0.028 0.482,-0.049 0.721,-0.074c-0.177,0.412 -0.147,0.469 0.234,0.46c0.254,-0.006 0.38,0.081 0.365,0.347c-0.013,0.24 0.071,0.32 0.341,0.276c0.252,-0.041 0.564,-0.061 0.655,0.322c0.012,0.051 0.163,0.096 0.251,0.097c0.261,0.005 0.543,-0.077 0.666,0.279c0.017,0.051 0.17,0.041 0.232,0.093c0.087,0.074 0.21,0.181 0.206,0.27c-0.006,0.153 -0.116,0.21 -0.3,0.154c-0.097,-0.029 -0.271,0.042 -0.346,0.126c-0.149,0.165 -0.414,0.248 -0.581,0.091c-0.141,-0.133 -0.221,-0.068 -0.315,0.028c-0.092,0.095 -0.177,0.198 -0.306,0.343c0.009,0.315 0.255,0.556 0.632,0.625c0.184,0.034 0.351,0.172 0.519,0.274c0.135,0.082 0.27,0.168 0.385,0.274c0.075,0.069 0.115,0.177 0.181,0.285c-0.21,0.139 -0.497,0.207 -0.378,0.533c0.159,0.08 0.32,0.158 0.477,0.241c0.251,0.133 0.268,0.315 0.046,0.479c-0.145,0.107 -0.272,0.196 -0.095,0.396c0.144,0.162 -0.03,0.248 -0.139,0.318c-0.145,0.095 -0.304,0.167 -0.253,0.317c0.251,0.109 0.452,0.2 0.655,0.282c0.058,0.023 0.139,0.046 0.188,0.023c0.366,-0.169 0.661,-0.098 0.914,0.217c0.026,0.032 0.211,0.005 0.235,-0.041c0.152,-0.287 0.41,-0.205 0.637,-0.19c0.059,0.004 0.159,0.13 0.158,0.199c-0.004,0.304 0.159,0.286 0.378,0.246c0.189,-0.034 0.383,-0.042 0.5,0.181c0.086,0.164 0.145,0.287 -0.029,0.444c-0.065,0.059 -0.086,0.239 -0.047,0.33c0.14,0.33 0.061,0.507 -0.298,0.521c-0.207,0.008 -0.267,0.088 -0.251,0.277c0.018,0.223 0.024,0.439 -0.238,0.552c-0.058,0.025 -0.129,0.151 -0.111,0.194c0.028,0.064 0.127,0.102 0.202,0.137c0.086,0.04 0.202,0.042 0.262,0.103c0.047,0.047 0.066,0.212 0.034,0.233c-0.228,0.158 -0.205,0.265 0.007,0.429c0.171,0.132 0.087,0.455 -0.12,0.575c-0.19,0.111 -0.355,0.19 -0.088,0.428c0.134,0.119 0.08,0.337 -0.098,0.467c-0.127,0.093 -0.248,0.196 -0.411,0.325c0.149,0.082 0.238,0.124 0.319,0.176c0.186,0.12 0.319,0.273 0.301,0.514c-0.004,0.05 -0.017,0.11 0.003,0.15c0.164,0.335 0.01,0.43 -0.304,0.434c-0.054,0.001 -0.122,0.071 -0.159,0.126c-0.163,0.24 -0.378,0.299 -0.659,0.253c-0.09,-0.015 -0.27,0.075 -0.289,0.149c-0.065,0.247 -0.241,0.295 -0.442,0.311c-0.178,0.014 -0.309,0.004 -0.299,0.272c0.007,0.201 -0.501,0.378 -0.725,0.297c-0.101,-0.037 -0.209,-0.077 -0.313,-0.075c-0.266,0.004 -0.526,0.022 -0.655,-0.287c-0.015,-0.037 -0.08,-0.079 -0.12,-0.076c-0.277,0.017 -0.455,-0.16 -0.656,-0.304c-0.082,-0.059 -0.205,-0.063 -0.309,-0.092c-0.035,0.14 -0.133,0.303 -0.092,0.415c0.088,0.24 0.182,0.444 -0.05,0.656c-0.023,0.021 0.031,0.18 0.089,0.226c0.143,0.115 0.34,0.184 0.316,0.417c-0.009,0.088 -0.031,0.202 -0.09,0.252c-0.158,0.131 -0.149,0.21 0.023,0.314c0.296,0.178 0.294,0.283 -0.001,0.477c-0.188,0.124 -0.372,0.275 -0.581,0.34c-0.156,0.049 -0.349,-0.03 -0.525,-0.032c-0.099,-0.001 -0.268,0.017 -0.285,0.067c-0.071,0.209 -0.176,0.201 -0.345,0.13c-0.075,-0.031 -0.206,-0.033 -0.255,0.013c-0.044,0.041 -0.035,0.174 -0.008,0.251c0.113,0.316 0.051,0.441 -0.273,0.507c-0.077,0.016 -0.165,0.007 -0.232,0.04c-0.087,0.043 -0.158,0.117 -0.236,0.177c0.072,0.075 0.134,0.166 0.219,0.221c0.181,0.116 0.37,0.222 0.563,0.317c0.228,0.113 0.192,0.262 0.026,0.51c0.175,0.012 0.306,0.044 0.429,0.026c0.349,-0.052 0.767,-0.06 0.959,0.186c0.219,0.279 0.486,0.308 0.747,0.436c0.196,0.096 0.472,0.212 0.346,0.557c-0.013,0.034 0.157,0.135 0.241,0.205c0.079,0.066 0.185,0.117 0.229,0.201c0.101,0.189 0.207,0.232 0.366,0.076c0.189,-0.185 0.409,-0.218 0.627,-0.081c0.18,0.113 0.292,0.059 0.44,-0.06c0.085,-0.069 0.251,-0.106 0.352,-0.071c0.155,0.053 0.351,0.13 0.246,0.39c-0.018,0.043 0.092,0.164 0.166,0.214c0.212,0.143 0.59,0.181 0.316,0.593c-0.018,0.028 0.105,0.196 0.192,0.239c0.29,0.143 0.383,0.378 0.214,0.654c-0.089,0.145 -0.096,0.244 0.069,0.344c0.124,0.076 0.259,0.141 0.189,0.37c-0.068,0.223 0.212,0.402 0.421,0.287c0.225,-0.124 0.435,-0.192 0.656,0.003c0.129,0.113 0.256,0.031 0.281,-0.084c0.054,-0.252 0.239,-0.341 0.438,-0.391c0.214,-0.053 0.225,-0.154 0.157,-0.327c-0.136,-0.344 0.04,-0.606 0.399,-0.592c0.192,0.007 0.332,-0.022 0.436,-0.223c0.071,-0.136 0.229,-0.239 0.368,-0.323c0.182,-0.109 0.273,-0.179 0.046,-0.351c-0.318,-0.241 -0.16,-0.296 -0.101,-0.659c0.067,-0.414 0.29,-0.825 0.233,-1.328c0.123,-0.098 0.278,-0.27 0.565,-0.168c0.095,0.034 0.295,-0.024 0.337,-0.1c0.05,-0.092 0.023,-0.274 -0.04,-0.372c-0.137,-0.215 -0.225,-0.391 -0.006,-0.612c0.043,-0.044 0.002,-0.23 -0.057,-0.306c-0.241,-0.306 -0.195,-0.508 0.168,-0.671c0.052,-0.023 0.096,-0.095 0.115,-0.154c0.121,-0.373 0.38,-0.452 0.683,-0.231c0.076,0.055 0.245,0.055 0.331,0.008c0.206,-0.112 0.384,-0.227 0.637,-0.112c0.096,0.044 0.259,0.031 0.35,-0.024c0.308,-0.184 0.452,0.012 0.641,0.241c-0.093,0.016 -0.155,0.035 -0.216,0.036c-0.18,0.003 -0.336,-0.032 -0.385,0.25c-0.024,0.14 -0.281,0.24 -0.433,0.357c-0.088,0.067 -0.187,0.122 -0.264,0.199c-0.082,0.082 -0.125,0.215 -0.219,0.27c-0.195,0.114 -0.206,0.232 -0.063,0.381c0.123,0.128 0.242,0.305 0.432,0.065c0.126,-0.159 0.268,-0.287 0.478,-0.09c0.019,0.017 0.191,-0.062 0.21,-0.123c0.111,-0.348 0.385,-0.447 0.696,-0.525c0.086,-0.021 0.145,-0.138 0.227,-0.196c0.167,-0.119 0.33,-0.259 0.517,-0.333c0.196,-0.078 0.289,0.081 0.327,0.252c0.046,0.208 0.17,0.181 0.319,0.126c0.19,-0.07 0.343,-0.277 0.594,-0.16c0.022,0.01 0.134,-0.141 0.186,-0.229c0.094,-0.159 0.144,-0.352 0.413,-0.256c0.063,0.023 0.185,-0.086 0.265,-0.151c0.202,-0.163 0.401,-0.294 0.662,-0.111c0.039,0.027 0.14,0.034 0.163,0.007c0.29,-0.337 0.497,-0.062 0.614,0.135c0.16,0.27 0.337,0.312 0.608,0.191c-0.008,0.266 -0.462,0.21 -0.345,0.503c0.199,0.057 0.389,0.086 0.552,0.167c0.113,0.056 0.191,0.184 0.285,0.279c0.088,0.09 0.17,0.186 0.266,0.267c0.108,0.091 0.25,0.148 0.337,0.253c0.153,0.186 0.251,0.406 0.491,0.531c0.105,0.055 0.162,0.267 0.175,0.414c0.022,0.256 0.144,0.353 0.374,0.46c0.295,0.137 0.409,0.08 0.534,-0.194c0.037,-0.082 0.244,-0.115 0.375,-0.12c0.228,-0.009 0.247,-0.11 0.173,-0.284c-0.176,-0.414 -0.137,-0.466 0.334,-0.519c0.079,-0.009 0.197,-0.102 0.212,-0.175c0.073,-0.336 0.218,-0.445 0.578,-0.431c0.091,0.004 0.257,-0.059 0.266,-0.113c0.033,-0.189 0.15,-0.195 0.287,-0.185c0.23,0.018 0.415,-0.029 0.596,-0.205c0.092,-0.089 0.309,-0.073 0.467,-0.063c0.132,0.009 0.26,0.078 0.406,0.126c0.096,0.276 -0.046,0.44 -0.306,0.554c-0.08,0.035 -0.17,0.098 -0.207,0.172c-0.125,0.251 -0.294,0.33 -0.545,0.251c-0.081,-0.025 -0.205,-0.02 -0.267,0.027c-0.055,0.042 -0.06,0.161 -0.067,0.247c-0.008,0.089 0.041,0.196 0.007,0.267c-0.09,0.189 -0.039,0.298 0.121,0.42c0.061,0.046 0.09,0.234 0.046,0.293c-0.073,0.099 -0.209,0.169 -0.332,0.208c-0.111,0.035 -0.243,-0.002 -0.361,0.018c-0.061,0.01 -0.164,0.084 -0.159,0.117c0.074,0.532 -0.304,0.171 -0.462,0.236c-0.095,0.039 -0.22,0.041 -0.283,0.106c-0.032,0.033 0.026,0.177 0.069,0.257c0.122,0.23 0.015,0.459 -0.232,0.492c-0.073,0.01 -0.191,0.042 -0.203,0.086c-0.097,0.365 -0.486,0.348 -0.707,0.548c-0.033,0.03 -0.168,-0.07 -0.26,-0.079c-0.125,-0.012 -0.309,-0.046 -0.369,0.02c-0.254,0.279 -0.547,0.307 -0.885,0.235c-0.079,-0.017 -0.182,-0.005 -0.251,0.034c-0.179,0.104 -0.345,0.203 -0.569,0.134c-0.047,-0.014 -0.14,0.073 -0.191,0.132c-0.042,0.049 -0.04,0.136 -0.081,0.187c-0.234,0.293 -0.229,0.281 0.08,0.507c0.104,0.076 0.161,0.218 0.239,0.33c-0.1,0.058 -0.202,0.112 -0.298,0.175c-0.047,0.031 -0.106,0.069 -0.122,0.117c-0.065,0.188 -0.179,0.254 -0.383,0.257c-0.078,0.001 -0.215,0.16 -0.219,0.252c-0.013,0.289 -0.132,0.451 -0.487,0.479c0.074,0.135 0.113,0.241 0.181,0.325c0.175,0.216 0.167,0.336 -0.06,0.472c-0.179,0.107 -0.192,0.226 -0.021,0.338c0.221,0.145 0.175,0.25 -0.022,0.365c-0.198,0.116 -0.197,0.149 -0.015,0.53c-0.068,0.028 -0.136,0.054 -0.201,0.085c-0.173,0.082 -0.34,0.146 -0.136,0.387c0.137,0.162 -0.008,0.461 -0.23,0.52c-0.2,0.053 -0.22,0.146 -0.092,0.294c0.053,0.061 0.114,0.116 0.157,0.182c0.043,0.065 0.069,0.142 0.027,0.213c-0.008,0.166 -0.017,0.332 -0.023,0.499c-0.007,0.185 0.04,0.386 -0.258,0.408c-0.129,0.01 -0.218,0.105 -0.178,0.295c0.053,0.251 -0.179,0.492 -0.443,0.475c-0.265,-0.017 -0.382,0.074 -0.336,0.335c-0.321,0.077 -0.334,0.127 -0.159,0.399c0.037,0.057 0.019,0.15 0.026,0.226c0.007,0.082 0.014,0.164 0.02,0.248c0.324,0.017 0.578,0.087 0.55,0.483c-0.003,0.041 0.119,0.139 0.158,0.127c0.364,-0.111 0.634,0.003 0.848,0.304c0.029,0.041 0.103,0.05 0.164,0.078c0.289,-0.378 0.653,-0.379 1.054,-0.234c0.061,0.022 0.143,-0.015 0.215,-0.022c0.177,-0.018 0.358,-0.061 0.53,-0.038c0.069,0.009 0.155,0.155 0.172,0.25c0.047,0.261 0.151,0.323 0.375,0.186c0.283,-0.173 0.493,-0.08 0.611,0.239c0.034,0.09 0.155,0.15 0.239,0.219c0.131,0.108 0.304,0.191 0.38,0.328c0.031,0.056 -0.151,0.224 -0.229,0.346c-0.052,0.081 -0.084,0.177 -0.142,0.253c-0.056,0.075 -0.137,0.131 -0.202,0.201c-0.1,0.107 -0.258,0.206 -0.281,0.328c-0.042,0.226 -0.167,0.334 -0.352,0.419c-0.286,0.131 -0.29,0.198 -0.046,0.394c0.148,0.119 0.251,0.255 0.119,0.454c-0.026,0.038 -0.035,0.093 -0.039,0.14c-0.029,0.386 -0.335,0.59 -0.717,0.524c-0.168,-0.029 -0.376,0.004 -0.525,0.085c-0.185,0.1 -0.316,0.153 -0.463,-0.036c-0.026,-0.033 -0.11,-0.06 -0.137,-0.042c-0.047,0.029 -0.091,0.093 -0.1,0.148c-0.047,0.293 -0.097,0.587 -0.113,0.883c-0.004,0.081 0.09,0.214 0.168,0.242c0.228,0.082 0.51,0.068 0.5,0.432c-0.001,0.04 0.127,0.09 0.201,0.124c0.213,0.097 0.427,0.194 0.645,0.278c0.092,0.036 0.204,0.071 0.295,0.052c0.372,-0.078 0.55,0.03 0.606,0.388c0.034,0.214 0.181,0.232 0.317,0.126c0.213,-0.167 0.416,-0.306 0.697,-0.177c0.008,0.004 0.023,0.004 0.03,-0c0.353,-0.221 0.751,-0.095 1.109,-0.161c0.23,-0.042 0.691,-0.079 0.743,-0.548c0.011,-0.1 0.29,-0.276 0.378,-0.243c0.294,0.112 0.461,-0.115 0.687,-0.167c0.2,-0.045 0.417,-0.021 0.626,-0.015c0.03,0.001 0.093,0.086 0.083,0.108c-0.152,0.36 0.589,0.517 0.202,1.012c0.132,0.007 0.269,0.039 0.395,0.015c0.235,-0.044 0.461,-0.144 0.64,0.127c0.021,0.032 0.242,0 0.278,-0.058c0.127,-0.21 0.296,-0.159 0.44,-0.083c0.196,0.104 0.107,0.228 -0.008,0.361c-0.124,0.144 -0.045,0.215 0.125,0.265c0.13,0.039 0.259,0.13 0.346,0.234c0.023,0.027 -0.121,0.181 -0.168,0.286c-0.04,0.087 -0.084,0.192 -0.068,0.279c0.033,0.186 0.014,0.304 -0.199,0.351c-0.245,0.054 -0.475,0.142 -0.698,-0.079c-0.054,-0.054 -0.253,-0.057 -0.299,-0.006c-0.22,0.243 -0.468,0.156 -0.69,0.063c-0.192,-0.08 -0.253,-0.003 -0.319,0.139c-0.041,0.088 -0.068,0.206 -0.14,0.251c-0.267,0.168 -0.251,0.381 -0.124,0.624c-0.051,0.037 -0.086,0.084 -0.13,0.093c-0.308,0.06 -0.348,0.23 -0.218,0.487c0.078,0.153 0.068,0.295 -0.117,0.361c-0.178,0.063 -0.161,0.157 -0.096,0.303c0.149,0.334 0.089,0.43 -0.288,0.494c-0.189,0.032 -0.248,0.109 -0.128,0.28c0.025,0.035 0.05,0.099 0.034,0.127c-0.124,0.227 0.074,0.265 0.197,0.316c0.408,0.168 0.533,0.404 0.43,0.818c-0.048,0.193 0.074,0.24 0.236,0.201c0.26,-0.062 0.49,-0.06 0.697,0.159c0.047,0.05 0.238,0.027 0.319,-0.028c0.207,-0.141 0.377,-0.135 0.565,0.026c0.145,0.124 0.291,0.054 0.316,-0.139c0.052,-0.404 0.279,-0.614 0.684,-0.675c0.083,-0.012 0.208,-0.124 0.215,-0.199c0.031,-0.31 0.261,-0.443 0.483,-0.56c0.076,-0.04 0.262,0.026 0.336,0.103c0.216,0.223 0.414,0.299 0.711,0.128c0.189,-0.109 0.455,-0.217 0.501,0.189c0.005,0.044 0.16,0.086 0.25,0.101c0.177,0.029 0.366,0.063 0.339,0.284c-0.012,0.096 -0.152,0.182 -0.243,0.262c-0.072,0.063 -0.187,0.091 -0.231,0.166c-0.053,0.089 -0.052,0.211 -0.074,0.319c0.109,0.02 0.218,0.05 0.328,0.057c0.142,0.009 0.292,0.027 0.426,-0.008c0.121,-0.032 0.252,-0.109 0.33,-0.205c0.222,-0.271 0.405,-0.575 0.636,-0.837c0.06,-0.068 0.29,-0.085 0.357,-0.027c0.132,0.113 0.01,0.201 -0.114,0.256c-0.032,0.015 -0.07,0.057 -0.074,0.09c-0.03,0.298 -0.199,0.495 -0.431,0.666c-0.046,0.034 -0.055,0.219 -0.011,0.259c0.155,0.143 0.212,0.436 0.524,0.372c0.04,-0.008 0.124,0.083 0.151,0.144c0.072,0.164 0.124,0.337 0.183,0.506c0.027,-0.001 0.054,-0.001 0.081,-0.002c-0.103,0.153 -0.228,0.296 -0.301,0.462c-0.041,0.093 -0.035,0.247 0.018,0.332c0.157,0.251 0.12,0.511 -0.134,0.69c-0.164,0.115 -0.094,0.238 -0.019,0.371c0.105,0.187 0.199,0.381 0.29,0.576c0.011,0.023 -0.02,0.094 -0.045,0.102c-0.337,0.112 -0.201,0.442 -0.308,0.658c-0.008,0.017 -0.002,0.041 -0.011,0.059c-0.195,0.408 -0.197,0.416 0.26,0.524c0.205,0.048 0.2,0.158 0.142,0.311c-0.143,0.376 -0.066,0.481 0.317,0.428c0.145,-0.02 0.411,0.267 0.439,0.502c0.02,0.172 0.056,0.369 -0.211,0.41c-0.051,0.008 -0.113,0.082 -0.131,0.137c-0.141,0.44 -0.352,0.536 -0.751,0.343c-0.069,-0.033 -0.181,-0.052 -0.241,-0.019c-0.338,0.187 -0.688,0.099 -0.884,-0.235c-0.038,-0.064 -0.088,-0.139 -0.151,-0.166c-0.142,-0.059 -0.828,0.281 -0.935,0.406c-0.092,0.107 -0.234,0.173 -0.354,0.255c-0.064,0.044 -0.145,0.072 -0.193,0.129c-0.156,0.182 -0.289,0.386 -0.454,0.56c-0.174,0.183 -0.302,0.139 -0.363,-0.109c-0.047,-0.192 -0.122,-0.278 -0.332,-0.164c-0.197,0.107 -0.408,0.192 -0.64,0.049c-0.05,-0.031 -0.17,0.002 -0.229,0.045c-0.14,0.102 -0.277,0.217 -0.385,0.351c-0.042,0.052 -0.026,0.18 0.006,0.255c0.049,0.114 0.135,0.211 0.215,0.33c-0.284,0.156 -0.272,0.314 -0.07,0.504c0.061,0.058 0.119,0.224 0.087,0.258c-0.237,0.26 -0.222,0.702 -0.626,0.847c-0.098,0.035 -0.174,0.166 -0.232,0.27c-0.16,0.286 -0.45,0.234 -0.655,0.319c0,-0.171 0.031,-0.426 -0.005,-0.436c-0.181,-0.049 -0.358,-0.196 -0.579,0c-0.159,0.141 -0.373,0.188 -0.446,0.448c-0.043,0.153 -0.24,0.216 -0.43,0.116c-0.211,-0.11 -0.351,-0.038 -0.405,0.196c-0.047,0.202 -0.148,0.323 -0.378,0.357c-0.171,0.025 -0.376,0.081 -0.224,0.368c0.041,0.079 -0.068,0.268 -0.151,0.373c-0.089,0.114 -0.227,0.189 -0.361,0.294c0.06,0.084 0.129,0.146 0.154,0.223c0.028,0.089 0.034,0.194 0.018,0.287c-0.016,0.094 -0.11,0.188 -0.097,0.271c0.028,0.187 0.117,0.367 -0.057,0.533c-0.005,0.004 0.091,0.164 0.159,0.183c0.117,0.032 0.249,0.009 0.383,0.009c0.121,0.334 0.08,0.442 -0.22,0.625c-0.068,0.041 -0.109,0.134 -0.151,0.209c-0.06,0.108 -0.086,0.244 -0.167,0.329c-0.185,0.193 -0.511,0.252 -0.55,0.59c-0.003,0.029 -0.108,0.074 -0.156,0.065c-0.483,-0.089 -1.048,0.147 -1.402,-0.353c-0.199,0.134 -0.384,0.251 -0.561,0.379c-0.137,0.099 -0.047,0.425 0.144,0.521c0.065,0.033 0.137,0.053 0.237,0.09c-0.142,0.173 -0.246,0.241 -0.452,0.173c-0.203,-0.067 -0.431,-0.06 -0.649,-0.073c-0.165,-0.01 -0.254,0.058 -0.184,0.241c0.017,0.045 0.049,0.113 0.03,0.14c-0.152,0.215 -0.278,0.42 0.059,0.583c-0.063,0.096 -0.106,0.225 -0.195,0.281c-0.144,0.09 -0.194,0.171 -0.173,0.351c0.035,0.301 -0.24,0.283 -0.427,0.347c-0.104,0.036 -0.207,0.075 -0.356,0.13c0.124,0.109 0.186,0.164 0.246,0.217c-0.018,0.032 -0.024,0.058 -0.036,0.062c-0.094,0.028 -0.19,0.051 -0.285,0.077c-0.229,0.061 -0.274,0.204 -0.21,0.428c0.028,0.099 -0.034,0.285 -0.117,0.341c-0.155,0.105 -0.187,0.201 -0.091,0.344c0.13,0.193 0.111,0.319 -0.123,0.409c-0.191,0.074 -0.157,0.193 0.097,0.363c-0.096,0.312 -0.058,0.355 0.313,0.429c0.155,0.031 0.303,0.099 0.51,0.17c-0.487,0.254 -0.501,0.295 -0.26,0.542c-0.055,0.088 -0.168,0.194 -0.147,0.251c0.029,0.077 0.153,0.142 0.248,0.167c0.158,0.041 0.352,-0.003 0.371,0.25c0.002,0.028 0.136,0.079 0.143,0.069c0.207,-0.274 0.683,0.014 0.829,-0.405c0.05,-0.143 0.166,-0.269 0.36,-0.105c0.038,0.032 0.199,-0.048 0.281,-0.106c0.139,-0.098 0.261,-0.22 0.39,-0.332c0.038,0.027 0.077,0.054 0.115,0.081c-0.056,0.111 -0.091,0.24 -0.172,0.328c-0.101,0.109 -0.155,0.175 -0.118,0.355c0.025,0.122 -0.157,0.292 -0.259,0.431c-0.046,0.062 -0.147,0.089 -0.18,0.154c-0.101,0.198 -0.179,0.407 -0.271,0.609c-0.07,0.155 -0.161,0.19 -0.329,0.1c-0.228,-0.122 -0.336,-0.02 -0.402,0.23c-0.041,0.156 -0.156,0.345 -0.29,0.41c-0.191,0.092 -0.229,0.134 -0.11,0.321c0.083,0.13 0.12,0.299 -0.121,0.378c-0.063,0.021 -0.098,0.179 -0.114,0.279c-0.015,0.097 0.045,0.272 0.013,0.287c-0.128,0.06 -0.279,0.081 -0.423,0.097c-0.051,0.006 -0.107,-0.043 -0.198,-0.083c-0.161,0.416 -0.498,0.493 -0.961,0.413c0.14,-0.079 0.236,-0.135 0.334,-0.188c0.174,-0.094 0.192,-0.192 0.008,-0.293c-0.177,-0.097 -0.186,-0.177 -0.004,-0.291c0.063,-0.04 0.11,-0.167 0.101,-0.247c-0.016,-0.15 -0.076,-0.296 -0.122,-0.442c-0.008,-0.027 -0.037,-0.067 -0.056,-0.067c-0.2,-0.001 -0.401,-0.009 -0.597,0.02c-0.051,0.008 -0.108,0.137 -0.119,0.217c-0.047,0.32 -0.181,0.461 -0.511,0.461c-0.201,0 -0.299,0.068 -0.362,0.27c-0.103,0.329 -0.339,0.431 -0.675,0.359c-0.084,-0.018 -0.177,0.007 -0.266,0.003c-0.106,-0.005 -0.275,0.015 -0.304,-0.038c-0.06,-0.108 -0.033,-0.26 -0.063,-0.389c-0.021,-0.091 -0.057,-0.192 -0.119,-0.258c-0.117,-0.126 -0.266,-0.223 -0.386,-0.346c-0.117,-0.12 -0.216,-0.224 -0.365,-0.044c-0.146,0.178 -0.304,0.054 -0.377,-0.049c-0.105,-0.147 -0.176,-0.143 -0.273,-0.026c-0.172,0.21 -0.381,0.297 -0.658,0.291c-0.109,-0.002 -0.224,0.121 -0.33,0.195c-0.135,0.094 -0.269,0.19 -0.395,0.297c-0.077,0.065 -0.133,0.154 -0.205,0.225c-0.106,0.104 -0.203,0.251 -0.331,0.287c-0.088,0.025 -0.22,-0.107 -0.384,-0.197c0.009,-0.004 -0.084,0.01 -0.104,0.056c-0.105,0.233 -0.175,0.488 -0.504,0.499c-0.013,0 -0.012,0.153 -0.034,0.23c-0.037,0.132 -0.059,0.348 -0.138,0.374c-0.239,0.077 -0.401,0.224 -0.556,0.402c-0.05,0.058 -0.136,0.137 -0.193,0.128c-0.467,-0.074 -0.6,0.339 -0.868,0.56c-0.079,0.065 -0.271,0.096 -0.343,0.046c-0.163,-0.112 -0.256,-0.06 -0.402,0.023c-0.164,0.093 -0.359,0.143 -0.547,0.176c-0.06,0.01 -0.189,-0.084 -0.203,-0.148c-0.054,-0.255 -0.191,-0.212 -0.354,-0.131c-0.182,0.091 -0.356,0.119 -0.552,0.01c-0.165,-0.091 -0.161,-0.163 -0.058,-0.302c0.077,-0.104 0.148,-0.236 0.158,-0.36c0.02,-0.245 0.227,-0.234 0.351,-0.242c0.209,-0.012 0.285,-0.114 0.324,-0.282c0.056,-0.237 0.158,-0.407 0.422,-0.481c0.068,-0.019 0.083,-0.245 0.111,-0.378c0.016,-0.077 -0.018,-0.179 0.021,-0.234c0.195,-0.276 0.43,-0.527 0.6,-0.817c0.062,-0.104 -0.026,-0.291 -0.027,-0.44c-0.001,-0.075 0.025,-0.205 0.065,-0.216c0.243,-0.067 0.16,-0.223 0.091,-0.341c-0.134,-0.232 -0.069,-0.402 0.087,-0.593c0.05,-0.061 0.038,-0.248 -0.018,-0.309c-0.189,-0.204 -0.412,-0.377 -0.647,-0.584c0.397,-0.539 0.788,-1.07 1.18,-1.599c0.429,-0.581 0.844,-1.173 1.298,-1.734c0.127,-0.157 0.364,-0.228 0.559,-0.324c0.086,-0.042 0.194,-0.037 0.285,-0.072c0.176,-0.067 0.254,-0.192 0.091,-0.335c-0.566,-0.498 -1.07,-1.114 -1.821,-1.314c-0.434,-0.116 -0.922,-0.044 -1.386,-0.03c-0.086,0.003 -0.178,0.122 -0.249,0.204c-0.482,0.558 -0.956,1.123 -1.442,1.678c-0.048,0.055 -0.167,0.101 -0.232,0.081c-0.405,-0.122 -0.803,-0.268 -1.206,-0.398c-0.157,-0.051 -0.156,-0.123 -0.109,-0.27c0.324,-1.033 0.638,-2.07 0.94,-3.11c0.03,-0.105 -0.01,-0.274 -0.082,-0.357c-0.232,-0.266 -0.479,-0.525 -0.749,-0.752c-0.382,-0.32 -0.829,-0.442 -1.324,-0.311c-0.105,0.028 -0.203,0.087 -0.308,0.102c-0.329,0.05 -0.51,0.215 -0.531,0.563c-0.011,0.181 -0.148,0.288 -0.328,0.304c-0.507,0.046 -1.015,0.077 -1.521,0.125c-0.564,0.054 -1.128,0.113 -1.688,0.193c-0.083,0.012 -0.204,0.148 -0.212,0.236c-0.04,0.439 -0.046,0.881 -0.069,1.322c-0.009,0.175 0.022,0.305 0.205,0.387c0.192,0.086 0.195,0.272 0.141,0.444c-0.047,0.15 -0.091,0.264 0.077,0.387c0.052,0.038 -0.001,0.24 -0.032,0.36c-0.014,0.053 -0.144,0.115 -0.137,0.127c0.162,0.301 -0.12,0.523 -0.134,0.791c-0.014,0.277 -0.16,0.334 -0.425,0.284c-0.263,-0.05 -0.541,-0.03 -0.811,-0.016c-0.037,0.002 -0.067,0.142 -0.101,0.218c-0.064,0.144 -0.132,0.286 -0.191,0.432c-0.038,0.092 -0.119,0.224 -0.085,0.279c0.148,0.238 -0.03,0.258 -0.169,0.259c-0.285,0.001 -0.399,0.1 -0.258,0.419c-0.187,0.027 -0.349,0.048 -0.511,0.074c-0.066,0.011 -0.169,0.011 -0.191,0.051c-0.151,0.283 -0.277,0.182 -0.493,0.045c-0.211,-0.134 -0.497,-0.152 -0.77,-0.226c0.092,-0.168 0.173,-0.364 -0.053,-0.538c-0.033,-0.025 -0.026,-0.149 0.005,-0.202c0.087,-0.146 0.226,-0.261 0.085,-0.463c-0.021,-0.03 0.145,-0.226 0.255,-0.301c0.189,-0.128 0.191,-0.211 -0.009,-0.318c-0.172,-0.092 -0.326,-0.191 -0.546,-0.125c-0.124,0.037 -0.275,-0.021 -0.414,-0.025c-0.063,-0.002 -0.159,0.002 -0.186,0.04c-0.142,0.201 -0.271,0.412 -0.395,0.624c-0.016,0.027 0.015,0.089 0.037,0.127c0.106,0.189 0.102,0.35 -0.075,0.505c-0.055,0.049 -0.102,0.177 -0.077,0.235c0.111,0.255 -0.1,0.3 -0.231,0.31c-0.188,0.015 -0.382,-0.047 -0.607,-0.082c0.045,-0.057 0.072,-0.094 0.103,-0.128c0.071,-0.074 0.216,-0.165 0.203,-0.216c-0.041,-0.16 -0.072,-0.346 -0.327,-0.357c-0.415,-0.018 -0.61,-0.203 -0.608,-0.532c0.243,0.013 0.455,-0.012 0.603,-0.269c0.059,-0.103 0.281,-0.155 0.429,-0.157c0.357,-0.004 0.062,-0.324 0.222,-0.411c-0.085,-0.069 -0.169,-0.194 -0.255,-0.195c-0.256,-0.004 -0.504,0.039 -0.678,-0.228c-0.027,-0.041 -0.193,-0.02 -0.281,0.011c-0.44,0.158 -0.74,-0.119 -1.041,-0.348c-0.038,-0.029 0.075,-0.257 0.118,-0.393c0.033,-0.006 0.065,-0.012 0.098,-0.018c-0.067,-0.064 -0.127,-0.137 -0.202,-0.189c-0.222,-0.153 -0.371,-0.322 -0.277,-0.624c0.022,-0.072 -0.071,-0.184 -0.118,-0.273c-0.046,-0.087 -0.13,-0.165 -0.143,-0.254c-0.007,-0.054 0.098,-0.117 0.14,-0.185c0.053,-0.087 0.152,-0.206 0.127,-0.27c-0.083,-0.213 -0.001,-0.309 0.173,-0.408c0.241,-0.137 0.462,-0.282 0.24,-0.63c-0.111,-0.175 0.09,-0.41 0.34,-0.452c0.283,-0.047 0.307,-0.106 0.158,-0.366c-0.031,-0.054 -0.076,-0.137 -0.056,-0.178c0.129,-0.257 0.038,-0.377 -0.223,-0.44c-0.07,-0.017 -0.176,-0.128 -0.169,-0.182c0.041,-0.304 -0.216,-0.419 -0.331,-0.581c0.033,-0.129 0.11,-0.26 0.074,-0.336c-0.032,-0.067 -0.19,-0.083 -0.295,-0.102c-0.427,-0.077 -0.854,-0.159 -1.284,-0.215c-0.212,-0.027 -0.495,-0.179 -0.575,0.205c-0.006,0.028 -0.06,0.061 -0.095,0.065c-0.342,0.041 -0.496,0.343 -0.729,0.533c-0.049,0.04 -0.039,0.16 -0.046,0.243c-0.007,0.091 0.037,0.22 -0.009,0.265c-0.065,0.065 -0.209,0.117 -0.287,0.088c-0.254,-0.092 -0.424,-0.03 -0.582,0.232c-0.14,-0.477 -0.344,-0.907 -0.696,-1.342c0.134,-0.031 0.236,-0.076 0.336,-0.073c0.26,0.009 0.392,-0.132 0.422,-0.361c0.01,-0.076 -0.066,-0.192 -0.137,-0.246c-0.142,-0.108 -0.366,-0.127 -0.35,-0.387c0.002,-0.031 -0.1,-0.081 -0.16,-0.102c-0.205,-0.072 -0.448,-0.091 -0.332,-0.433c0.022,-0.063 -0.147,-0.192 -0.283,-0.259c0,-0.09 -0.035,-0.201 0.006,-0.266c0.214,-0.343 -0.072,-0.322 -0.26,-0.386c-0.084,-0.029 -0.159,-0.085 -0.237,-0.13c-0.033,-0.019 -0.062,-0.056 -0.096,-0.06c-0.334,-0.038 -0.669,-0.076 -1.005,-0.1c-0.035,-0.003 -0.075,0.081 -0.114,0.123c-0.098,0.107 -0.213,0.202 -0.29,0.321c-0.096,0.149 -0.162,0.318 -0.241,0.478c0.025,0.033 0.05,0.067 0.075,0.1c-0.185,0.018 -0.371,0.036 -0.556,0.054c-0.019,-0.028 -0.039,-0.056 -0.058,-0.085c0.298,-0.227 0.254,-0.445 0.035,-0.659c-0.028,-0.028 -0.057,-0.083 -0.082,-0.081c-0.414,0.035 -0.717,-0.411 -1.156,-0.264c-0.035,0.012 -0.079,-0.003 -0.161,-0.008c0.119,-0.282 -0.046,-0.446 -0.215,-0.628c-0.113,-0.122 -0.14,-0.293 0.036,-0.418c0.184,-0.132 0.161,-0.31 0.04,-0.442c-0.153,-0.167 -0.083,-0.264 0.046,-0.371c0.15,-0.124 0.226,-0.236 0.054,-0.42c-0.12,-0.128 -0.103,-0.281 0.045,-0.423c0.063,-0.061 0.072,-0.197 0.072,-0.299c0,-0.196 -0.067,-0.397 0.193,-0.506c0.066,-0.028 0.116,-0.178 0.112,-0.269c-0.008,-0.224 -0.058,-0.44 0.22,-0.558c0.053,-0.023 0.095,-0.184 0.071,-0.256c-0.117,-0.343 -0.093,-0.5 0.212,-0.723c0.159,-0.116 0.198,-0.204 0.05,-0.347c-0.303,-0.293 -0.595,-0.599 -0.914,-0.873c-0.062,-0.054 -0.229,0.007 -0.346,0.027c-0.056,0.01 -0.106,0.068 -0.161,0.072c-0.336,0.027 -0.673,0.058 -1.01,0.06c-0.15,0.001 -0.31,-0.044 -0.212,-0.279c0.018,-0.044 -0.06,-0.153 -0.12,-0.198c-0.109,-0.081 -0.238,-0.136 -0.423,-0.238c0.145,-0.073 0.23,-0.124 0.321,-0.16c0.295,-0.114 0.306,-0.149 0.103,-0.377c-0.039,-0.044 -0.108,-0.098 -0.103,-0.141c0.042,-0.351 -0.199,-0.29 -0.41,-0.309c-0.151,-0.013 -0.296,-0.089 -0.447,-0.111c-0.15,-0.023 -0.306,-0.024 -0.459,-0.016c-0.229,0.012 -0.485,0.072 -0.582,-0.215c-0.037,-0.111 -0.023,-0.309 0.05,-0.373c0.229,-0.2 0.502,-0.349 0.75,-0.529c0.1,-0.073 0.179,-0.176 0.268,-0.263c0.082,-0.08 0.165,-0.159 0.249,-0.237c0.088,-0.082 0.229,-0.147 0.256,-0.245c0.067,-0.234 0.213,-0.264 0.409,-0.235c0.037,0.005 0.093,0.047 0.105,0.035c0.285,-0.276 0.651,-0.323 1.017,-0.402c0.185,-0.04 0.326,-0.169 0.56,-0.166c0.194,0.002 0.399,-0.243 0.577,-0.402c0.018,-0.016 -0.105,-0.199 -0.17,-0.3c-0.16,-0.252 -0.325,-0.502 -0.487,-0.753c0.038,-0.008 0.077,-0.016 0.115,-0.023c0.141,-0.18 0.281,-0.36 0.435,-0.556c-0.01,-0.019 -0.018,-0.068 -0.046,-0.085c-0.219,-0.129 -0.234,-0.335 -0.266,-0.562c-0.043,-0.302 0.012,-0.44 0.294,-0.575c0.109,-0.052 0.187,-0.172 0.273,-0.266c0.032,-0.035 0.034,-0.108 0.07,-0.128c0.335,-0.186 0.451,-0.459 0.354,-0.829c-0.027,-0.101 -0.04,-0.206 -0.059,-0.309c-0.029,-0.165 -0.055,-0.33 -0.086,-0.495c-0.021,-0.111 -0.012,-0.274 -0.08,-0.323c-0.272,-0.193 -0.284,-0.436 -0.219,-0.72c0.012,-0.05 -0.015,-0.118 -0.042,-0.167c-0.116,-0.213 -0.125,-0.409 -0.002,-0.635c0.044,-0.081 -0.015,-0.266 -0.088,-0.351c-0.129,-0.15 -0.217,-0.271 -0.12,-0.477c0.065,-0.137 0.012,-0.248 -0.136,-0.34c-0.097,-0.06 -0.182,-0.201 -0.2,-0.317c-0.03,-0.198 -0.114,-0.267 -0.309,-0.293c-0.157,-0.02 -0.322,-0.088 -0.452,-0.179c-0.168,-0.117 -0.241,-0.385 -0.525,-0.306c-0.015,0.004 -0.05,-0.013 -0.052,-0.024c-0.07,-0.479 -0.716,-0.253 -0.85,-0.693c-0.03,-0.099 -0.328,-0.091 -0.46,-0.19c-0.249,-0.185 -0.485,-0.233 -0.768,-0.094c-0.083,0.041 -0.231,0.069 -0.289,0.025c-0.292,-0.227 -0.657,-0.122 -0.964,-0.241c-0.141,-0.054 -0.249,-0.188 -0.38,-0.273c-0.148,-0.096 -0.299,-0.239 -0.459,-0.253c-0.372,-0.033 -0.685,-0.102 -0.895,-0.459c-0.124,-0.211 -0.312,-0.386 -0.487,-0.563c-0.054,-0.054 -0.159,-0.082 -0.24,-0.081c-0.262,0.004 -0.416,-0.125 -0.553,-0.337c-0.067,-0.103 -0.229,-0.203 -0.347,-0.202c-0.295,0.004 -0.362,-0.18 -0.426,-0.398c-0.024,-0.082 -0.049,-0.179 -0.107,-0.232c-0.299,-0.273 -0.332,-0.571 -0.145,-0.955c0.056,-0.115 -0.005,-0.287 -0.017,-0.52c0.167,-0.018 0.369,-0.041 0.572,-0.062c0.017,-0.002 0.042,0.011 0.052,0.003c0.318,-0.252 0.609,-0.074 0.91,0.045c0.059,0.024 0.158,0.011 0.212,-0.025c0.38,-0.253 0.664,-0.24 1.013,0.023c0.063,0.047 0.237,0.03 0.302,-0.026c0.249,-0.213 0.395,-0.236 0.646,-0.044c0.098,0.075 0.167,0.105 0.3,0.017c0.215,-0.142 0.42,-0.099 0.647,0.078c0.13,0.101 0.43,-0.032 0.58,0.06c0.397,0.242 0.341,-0.125 0.401,-0.277c0.135,-0.337 0.245,-0.686 0.339,-1.037c0.081,-0.304 -0.333,-0.695 -0.716,-0.735c-0.155,-0.016 -0.301,-0.107 -0.451,-0.165c-0.009,-0.003 -0.014,-0.018 -0.022,-0.02c-0.371,-0.104 -0.729,-0.238 -1.076,-0.411c-0.24,-0.12 -0.507,-0.184 -0.763,-0.27c-0.055,-0.019 -0.12,-0.014 -0.171,-0.039c-0.163,-0.082 -0.326,-0.165 -0.479,-0.262c-0.087,-0.055 -0.146,-0.187 -0.232,-0.203c-0.339,-0.063 -0.395,-0.377 -0.55,-0.596c-0.025,-0.036 0.08,-0.202 0.159,-0.261c0.058,-0.043 0.174,-0.008 0.303,-0.008c-0.021,-0.145 -0.039,-0.266 -0.066,-0.448c0.179,0.01 0.392,-0.042 0.5,0.041c0.272,0.212 0.415,0.04 0.546,-0.135c0.182,-0.243 0.36,-0.359 0.637,-0.139c0.044,0.035 0.149,0.029 0.208,0.002c0.3,-0.135 0.611,-0.064 0.762,0.217c0.089,0.165 0.184,0.172 0.34,0.12c0.198,-0.067 0.359,-0.018 0.485,0.175c0.044,0.067 0.184,0.067 0.277,0.108c0.127,0.056 0.281,0.092 0.368,0.188c0.106,0.117 0.18,0.155 0.291,0.037c0.24,-0.256 0.483,-0.51 0.708,-0.779c0.041,-0.049 0.032,-0.224 0,-0.238c-0.194,-0.088 -0.18,-0.432 -0.475,-0.382c-0.207,-0.365 -0.635,-0.579 -0.705,-1.042c-0.012,-0.08 -0.101,-0.146 -0.146,-0.224c-0.074,-0.128 -0.172,-0.252 -0.205,-0.391c-0.057,-0.237 0.089,-0.304 0.3,-0.269c0.066,0.011 0.153,0.068 0.193,0.043c0.209,-0.129 0.392,-0.113 0.643,-0.082c0.318,0.039 0.775,0.083 0.928,-0.419c0.094,-0.307 0.257,-0.593 0.347,-0.901c0.027,-0.092 -0.08,-0.23 -0.141,-0.338c-0.036,-0.064 -0.122,-0.103 -0.15,-0.168c-0.157,-0.373 -0.159,-0.784 -0.289,-1.168c-0.055,-0.162 0.208,-0.324 0.38,-0.228c0.184,0.103 0.325,0.059 0.493,-0.011c0.178,-0.074 0.364,-0.08 0.51,0.081c0.129,0.142 0.254,0.141 0.412,0.038c0.104,-0.068 0.242,-0.08 0.355,-0.137c0.059,-0.03 0.122,-0.097 0.14,-0.159c0.146,-0.521 0.292,-1.043 0.41,-1.571c0.022,-0.099 -0.053,-0.271 -0.139,-0.333c-0.206,-0.15 -0.444,-0.257 -0.671,-0.377c-0.192,-0.101 -0.307,-0.19 -0.217,-0.464c0.178,-0.545 0.151,-0.554 0.726,-0.552c0.121,0 0.254,0.031 0.361,-0.008c0.102,-0.037 0.237,-0.136 0.255,-0.227c0.216,-1.094 0.413,-2.192 0.614,-3.289c0.064,-0.35 0.138,-0.699 0.175,-1.052c0.014,-0.135 -0.023,-0.303 -0.097,-0.416c-0.765,-1.163 -1.551,-2.313 -2.309,-3.48c-0.15,-0.231 -0.329,-0.182 -0.504,-0.148c-1.732,0.339 -3.458,0.713 -5.195,1.018c-0.346,0.061 -0.737,-0.117 -1.102,-0.207c-0.06,-0.015 -0.113,-0.138 -0.134,-0.221c-0.299,-1.201 -0.592,-2.404 -0.859,-3.493c0.227,-0.292 0.429,-0.509 0.582,-0.756c0.584,-0.939 1.146,-1.891 1.731,-2.829c0.228,-0.366 -0.035,-0.611 -0.173,-0.885c-0.294,-0.58 -0.604,-1.152 -0.916,-1.744c0.546,-0.207 1.076,-0.413 1.61,-0.608c0.588,-0.215 0.873,-0.608 0.874,-1.228c0,-0.447 0.021,-0.896 -0.011,-1.34c-0.011,-0.159 -0.128,-0.326 -0.233,-0.462c-0.406,-0.528 -0.911,-0.953 -1.469,-1.31c-0.076,-0.048 -0.254,0.004 -0.353,0.063c-0.369,0.218 -0.547,0.194 -0.837,-0.11c-0.053,-0.056 -0.207,-0.081 -0.277,-0.045c-0.326,0.164 -0.402,0.162 -0.564,-0.149c-0.085,-0.164 -0.177,-0.17 -0.338,-0.131c-0.113,0.028 -0.282,0.023 -0.363,-0.043c-0.211,-0.172 -0.388,-0.198 -0.601,-0.018c-0.062,0.053 -0.164,0.059 -0.247,0.087c-0.29,-0.312 -0.292,-0.316 -0.687,-0.065c-0.161,0.102 -0.28,0.04 -0.39,-0.076c-0.117,-0.124 -0.219,-0.198 -0.417,-0.113c-0.208,0.09 -0.37,-0.043 -0.436,-0.25c-0.062,-0.196 -0.015,-0.447 -0.308,-0.507c-0.021,-0.004 -0.046,-0.154 -0.015,-0.199c0.043,-0.063 0.155,-0.144 0.205,-0.126c0.24,0.085 0.434,0.102 0.576,-0.164c0.021,-0.039 0.173,-0.031 0.255,-0.01c0.173,0.046 0.315,0.032 0.366,-0.159c0.076,-0.288 0.234,-0.208 0.39,-0.094c0.284,0.206 0.275,0.209 0.363,-0.12c0.014,-0.05 0.116,-0.102 0.182,-0.108c0.171,-0.015 0.344,-0.008 0.516,-0.005c0.163,0.003 0.264,-0.017 0.211,-0.234c-0.05,-0.207 0.158,-0.391 0.369,-0.37c0.086,0.008 0.175,-0.008 0.263,-0.013c-0.023,-0.099 -0.045,-0.198 -0.068,-0.297c-0.009,-0.038 -0.023,-0.074 -0.045,-0.145c0.342,0.023 0.236,-0.316 0.35,-0.413c0.31,-0.266 0.318,-0.644 0.475,-0.959c0.355,-0.712 0.706,-1.435 0.965,-2.185c0.197,-0.571 -0.129,-1.01 -0.76,-1.094c-0.127,-0.017 -0.251,-0.06 -0.378,-0.07c-0.132,-0.01 -0.265,0.004 -0.398,0.01c-0.122,0.005 -0.258,0.051 -0.363,0.012c-0.149,-0.055 -0.123,-0.171 -0.025,-0.286c0.012,-0.014 -0.101,-0.142 -0.164,-0.209c-0.049,-0.052 -0.162,-0.096 -0.159,-0.138c0.014,-0.223 0.075,-0.443 0.079,-0.666c0.003,-0.133 -0.068,-0.267 -0.106,-0.4c-0.028,-0.097 -0.058,-0.194 -0.086,-0.291c0.098,-0.009 0.196,-0.012 0.293,-0.028c0.115,-0.019 0.254,-0.017 0.337,-0.081c0.298,-0.23 0.438,-0.23 0.699,0.048c0.025,0.027 0.064,0.048 0.1,0.058c0.139,0.039 0.543,-0.193 0.62,-0.315c0.051,-0.081 0.152,-0.173 0.238,-0.182c0.244,-0.025 0.494,0.011 0.738,-0.018c0.134,-0.016 0.287,-0.084 0.382,-0.179c0.171,-0.171 0.329,-0.233 0.56,-0.126c0.376,0.174 0.743,0.162 1.077,-0.114c0.227,-0.187 0.454,-0.231 0.738,-0.081c0.156,0.082 0.37,0.046 0.552,0.088c0.219,0.05 0.45,0.093 0.521,0.371c0.017,0.066 0.097,0.13 0.163,0.167c0.186,0.104 0.376,0.204 0.572,0.285c0.103,0.043 0.239,0.085 0.334,0.053c0.226,-0.077 0.43,-0.141 0.652,0.011c0.037,0.025 0.136,-0.042 0.206,-0.065c0.162,-0.053 0.32,-0.178 0.481,0.028c0.035,0.045 0.18,0.029 0.265,0.007c0.112,-0.029 0.211,-0.117 0.323,-0.133c0.096,-0.013 0.277,0.022 0.288,0.067c0.027,0.112 -0.016,0.244 -0.044,0.365c-0.012,0.052 -0.097,0.108 -0.086,0.141c0.077,0.234 0.18,0.46 0.257,0.694c0.137,0.417 0.507,0.51 0.836,0.711c0.321,0.196 0.51,0.253 0.76,-0.023c0.025,-0.027 0.07,-0.053 0.105,-0.052c0.344,0.008 0.688,0.022 0.972,0.032c0.037,0.18 0.069,0.341 0.103,0.502c0.007,0.035 0.029,0.069 0.029,0.104c0.001,0.101 -0.038,0.276 -0.004,0.291c0.155,0.068 0.329,0.101 0.499,0.127c0.111,0.017 0.229,0.014 0.34,-0.002c0.098,-0.015 0.224,-0.033 0.281,-0.099c0.178,-0.204 0.318,-0.441 0.495,-0.646c0.061,-0.071 0.184,-0.112 0.282,-0.12c0.079,-0.006 0.173,0.045 0.243,0.095c0.423,0.299 0.841,0.604 1.261,0.907c0.056,0.041 0.107,0.089 0.164,0.128c0.12,0.082 0.206,0.146 0.136,0.336c-0.09,0.247 -0.044,0.493 0.243,0.62c0.128,0.057 0.144,0.206 0.202,0.28c0.17,0.218 0.442,0.485 0.68,0.491c0.387,0.009 0.781,-0.167 1.167,-0.284c0.049,-0.015 0.069,-0.141 0.095,-0.218c0.027,-0.082 0.03,-0.231 0.067,-0.238c0.12,-0.025 0.299,-0.049 0.366,0.018c0.169,0.165 0.267,0.177 0.442,0.002c0.294,-0.292 0.61,-0.186 0.712,0.236Z" style="fill:#4ade80;fill-rule:nonzero;stroke:#22c55e;stroke-width:1px;"/></svg>