<?xml version="1.0" encoding="UTF-8" standalone="no"?><!DOCTYPE svg PUBLIC "-//W3C//DTD SVG 1.1//EN" "http://www.w3.org/Graphics/SVG/1.1/DTD/svg11.dtd"><svg width="100%" height="100%" viewBox="0 0 100 100" version="1.1" xmlns="http://www.w3.org/2000/svg" xmlns:xlink="http://www.w3.org/1999/xlink" xml:space="preserve" xmlns:serif="http://www.serif.com/" style="fill-rule:evenodd;clip-rule:evenodd;stroke-linejoin:round;stroke-miterlimit:2;"><rect id="_9_miyagi_enoshima" serif:id="9_miyagi_enoshima" x="0" y="0" width="100" height="100" style="fill:none;"/><path d="M71.391,36.015c0.07,0.144 0.123,0.307 0.234,0.373c0.482,0.286 0.588,0.755 0.118,1.108c-0.258,0.194 -0.289,0.389 -0.301,0.659c-0.009,0.187 -0.038,0.412 -0.148,0.548c-0.231,0.284 -0.1,0.427 0.122,0.602c0.235,0.186 0.469,0.382 0.662,0.608c0.198,0.232 0.119,0.525 -0.147,0.705c-0.207,0.14 -0.322,0.288 -0.177,0.555c0.214,0.394 -0.082,1.079 -0.525,1.164c-0.242,0.046 -0.295,0.152 -0.259,0.342c0.077,0.401 -0.169,0.652 -0.447,0.816c-0.301,0.177 -0.369,0.387 -0.242,0.661c0.107,0.228 0.043,0.371 -0.131,0.5c-0.241,0.179 -0.291,0.391 -0.141,0.654c0.023,0.041 0.04,0.113 0.021,0.148c-0.221,0.394 -0.32,0.879 -0.835,1.053c-0.118,0.04 -0.193,0.203 -0.312,0.336c0.379,0.191 0.825,0.161 0.938,0.579c0.06,0.224 0.07,0.489 0.009,0.709c-0.061,0.218 -0.04,0.359 0.169,0.374c0.48,0.036 0.882,0.216 1.243,0.523c0.078,0.067 0.193,0.091 0.305,0.141c0.047,-0.145 0.08,-0.251 0.115,-0.356c0.145,-0.433 0.432,-0.698 0.889,-0.789c0.206,-0.041 0.409,-0.117 0.601,-0.204c0.073,-0.033 0.169,-0.197 0.161,-0.205c-0.271,-0.263 -0.003,-0.453 0.115,-0.609c0.253,-0.335 0.551,-0.644 1.025,-0.64c0.259,0.002 0.286,-0.193 0.243,-0.35c-0.095,-0.35 -0.143,-0.641 0.193,-0.922c0.275,-0.231 0.513,-0.465 0.903,-0.47c0.099,-0.001 0.221,-0.102 0.286,-0.192c0.061,-0.084 0.059,-0.213 0.086,-0.322c0.131,-0.511 0.401,-0.777 0.9,-0.707c0.577,0.08 0.715,-0.395 1.018,-0.665c0.117,-0.104 0.2,-0.246 0.306,-0.363c0.136,-0.15 0.286,-0.191 0.473,-0.066c0.218,0.145 0.38,0.132 0.602,-0.086c0.371,-0.364 0.877,-0.242 1.337,-0.18c0.312,0.042 0.55,0.209 0.726,0.492c0.071,0.115 0.262,0.208 0.404,0.215c0.305,0.015 0.549,0.073 0.662,0.392c0.08,0.225 0.219,0.296 0.45,0.179c0.18,-0.09 0.371,-0.176 0.567,-0.211c0.201,-0.036 0.416,-0.027 0.62,-0.003c0.165,0.019 0.323,0.127 0.485,0.131c0.335,0.008 0.452,0.211 0.445,0.484c-0.007,0.267 0.125,0.383 0.329,0.499c0.188,0.106 0.359,0.249 0.523,0.392c0.191,0.166 0.234,0.367 0.128,0.612c-0.077,0.178 -0.071,0.358 0.093,0.517c0.283,0.275 0.294,0.663 0.305,1.011c0.012,0.399 0.215,0.433 0.522,0.447c0.541,0.025 1.068,0.124 1.425,0.589c0.074,0.097 0.1,0.254 0.096,0.382c-0.008,0.261 -0.046,0.484 0.273,0.637c0.61,0.292 0.718,1.058 0.261,1.546c-0.07,0.075 -0.152,0.205 -0.132,0.287c0.103,0.424 -0.194,0.524 -0.48,0.634c-0.367,0.141 -0.364,0.223 -0.12,0.505c0.254,0.293 0.435,0.647 0.663,0.964c0.077,0.107 0.19,0.245 0.303,0.262c0.554,0.081 0.88,0.411 1.076,0.902c0.022,0.056 0.015,0.174 -0.02,0.195c-0.468,0.28 -0.176,0.722 -0.236,1.086c-0.026,0.158 0.029,0.346 -0.037,0.478c-0.106,0.214 0.002,0.359 0.144,0.379c0.446,0.061 0.444,0.461 0.548,0.73c0.093,0.24 0.07,0.561 -0.003,0.817c-0.072,0.249 0.012,0.334 0.198,0.417c0.02,0.009 0.035,0.03 0.055,0.04c0.222,0.119 0.552,0.182 0.644,0.366c0.185,0.368 0.263,0.797 0.147,1.23c-0.024,0.091 0.036,0.204 0.057,0.307c0.093,-0.029 0.198,-0.039 0.276,-0.089c0.622,-0.401 1.273,-0.618 2.02,-0.397c0.093,0.028 0.253,-0.01 0.319,-0.078c0.458,-0.477 1.043,-0.542 1.653,-0.559c0.288,-0.008 0.485,0.107 0.591,0.369c0.077,0.192 0.181,0.315 0.41,0.341c0.086,0.01 0.182,0.155 0.226,0.259c0.086,0.205 0.139,0.424 0.213,0.661c-0.325,0.371 -0.668,0.75 -0.993,1.144c-0.072,0.087 -0.104,0.229 -0.108,0.347c-0.012,0.38 0.01,0.762 -0.005,1.142c-0.016,0.388 -0.27,0.629 -0.681,0.653c-0.285,0.017 -0.477,0.122 -0.591,0.399c-0.246,0.593 -0.682,0.898 -1.347,0.853c-0.188,-0.013 -0.385,0.029 -0.568,0.082c-0.082,0.024 -0.183,0.128 -0.198,0.21c-0.086,0.466 -0.426,0.693 -0.802,0.887c-0.199,0.103 -0.425,0.162 -0.609,0.285c-0.096,0.064 -0.157,0.217 -0.182,0.341c-0.046,0.221 -0.051,0.449 -0.078,0.674c-0.04,0.337 -0.221,0.509 -0.571,0.492c-0.274,-0.013 -0.444,0.061 -0.466,0.357c-0.003,0.044 -0.012,0.094 -0.036,0.129c-0.187,0.263 -1.274,0.564 -1.577,0.432c-0.4,-0.174 -0.774,-0.341 -1.214,-0.039c-0.122,0.084 -0.414,-0.041 -0.612,-0.114c-0.36,-0.133 -0.412,-0.106 -0.52,0.272c-0.039,0.135 -0.139,0.28 -0.253,0.362c-0.401,0.286 -0.804,0.567 -1.315,0.648c-0.115,0.018 -0.248,0.166 -0.302,0.286c-0.205,0.463 -0.514,0.786 -1.103,0.719c-0.293,-0.034 -0.588,-0.047 -0.882,-0.071c-0.045,-0.004 -0.115,0.003 -0.131,-0.022c-0.333,-0.518 -0.741,-0.137 -1.113,-0.089c-0.547,0.071 -1.098,0.261 -1.632,0.217c-0.306,-0.025 -0.593,-0.402 -0.868,-0.644c-0.132,-0.116 -0.217,-0.285 -0.322,-0.431c-0.119,-0.166 -0.224,-0.298 -0.13,-0.555c0.057,-0.156 -0.117,-0.404 -0.208,-0.601c-0.028,-0.061 -0.128,-0.086 -0.188,-0.136c-0.158,-0.13 -0.297,-0.338 -0.473,-0.373c-0.129,-0.026 -0.298,0.242 -0.458,0.254c-0.529,0.038 -0.827,0.442 -1.221,0.693c-0.057,0.036 -0.122,0.06 -0.18,0.094c-0.38,0.216 -0.384,0.339 -0.022,0.59c0.339,0.235 0.406,0.459 0.321,0.871c-0.057,0.28 -0.079,0.557 -0.328,0.759c-0.034,0.027 0.028,0.273 0.105,0.321c0.607,0.375 0.618,1.039 0.803,1.614c0.061,0.19 -0.033,0.338 -0.235,0.435c-0.315,0.15 -0.336,0.358 -0.049,0.552c0.186,0.125 0.381,0.259 0.274,0.477c-0.131,0.264 -0.184,0.608 -0.573,0.694c-0.355,0.079 -0.702,0.204 -1.04,0.34c-0.139,0.056 -0.252,0.189 -0.365,0.3c-0.477,0.472 -0.869,0.522 -1.457,0.186c-0.144,-0.082 -0.352,-0.107 -0.44,-0.225c-0.332,-0.445 -0.77,-0.396 -1.253,-0.439c-0.347,-0.031 -0.66,-0.428 -0.989,-0.662c-0.009,-0.006 -0.02,-0.019 -0.018,-0.027c0.129,-0.649 -0.398,-1.137 -0.424,-1.746c-0.003,-0.061 0.026,-0.163 0.066,-0.179c0.25,-0.097 0.246,-0.298 0.293,-0.52c0.067,-0.311 -0.057,-0.365 -0.306,-0.362c-0.254,0.003 -0.508,-0.002 -0.762,0.006c-0.306,0.009 -0.501,-0.109 -0.544,-0.431c-0.01,-0.077 -0.06,-0.15 -0.064,-0.226c-0.013,-0.283 -0.172,-0.3 -0.371,-0.196c-0.273,0.143 -0.531,0.196 -0.845,0.097c-0.237,-0.075 -0.449,0.006 -0.462,0.341c-0.005,0.117 -0.112,0.272 -0.217,0.335c-0.376,0.227 -0.779,0.409 -1.158,0.632c-0.687,0.404 -1.43,0.31 -1.71,-0.668c-0.088,-0.308 -0.25,-0.378 -0.535,-0.378c-0.77,-0.001 -1.38,-0.325 -1.852,-0.987c-0.131,0.071 -0.298,0.126 -0.417,0.234c-0.577,0.528 -1.17,0.213 -1.755,0.043c-0.146,-0.042 -0.265,-0.169 -0.405,-0.241c-0.071,-0.037 -0.212,-0.075 -0.23,-0.049c-0.052,0.074 -0.092,0.188 -0.075,0.274c0.054,0.263 0.137,0.52 0.209,0.779c0.127,0.46 0.021,0.75 -0.401,0.969c-0.237,0.123 -0.2,0.224 -0.051,0.386c0.396,0.432 0.403,0.782 0.04,1.24c-0.038,0.048 -0.082,0.104 -0.135,0.123c-0.341,0.123 -0.685,0.236 -1.087,0.372c-0.178,-0.072 -0.433,-0.188 -0.698,-0.279c-0.179,-0.062 -0.324,-0.021 -0.319,0.216c0.002,0.104 -0.034,0.225 0.007,0.309c0.191,0.393 -0.079,0.649 -0.264,0.92c-0.248,0.362 -0.509,0.718 -0.795,1.051c-0.105,0.122 -0.288,0.227 -0.446,0.244c-0.331,0.037 -0.669,-0.001 -1.003,0.014c-0.451,0.021 -0.896,0.03 -1.209,-0.369c-0.273,-0.347 -0.667,-0.304 -1.026,-0.318c-0.411,-0.015 -0.709,-0.108 -0.874,-0.534c-0.197,-0.51 -0.224,-0.513 -0.784,-0.369c-0.517,0.133 -1,-0.009 -1.499,-0.106c-0.387,-0.076 -0.795,-0.13 -1.184,-0.092c-0.367,0.035 -0.707,0.096 -1.065,-0.061c-0.178,-0.078 -0.372,-0.076 -0.402,0.24c-0.018,0.186 -0.194,0.351 -0.265,0.538c-0.037,0.098 -0.044,0.255 0.01,0.333c0.369,0.525 0.247,1.064 0.037,1.586c-0.043,0.107 -0.3,0.165 -0.463,0.179c-0.207,0.018 -0.312,0.034 -0.358,0.291c-0.118,0.663 -0.745,0.826 -1.235,1.082c-0.251,0.131 -0.345,0.216 -0.359,0.518c-0.021,0.462 -0.097,0.954 -0.642,1.157c-0.066,0.025 -0.136,0.084 -0.17,0.146c-0.161,0.296 -0.363,0.491 -0.734,0.512c-0.21,0.012 -0.407,0.186 -0.62,0.221c-0.165,0.027 -0.383,0.001 -0.515,-0.09c-0.359,-0.247 -0.769,-0.137 -1.149,-0.217c-0.192,-0.04 -0.321,-0.039 -0.386,-0.271c-0.085,-0.302 -0.336,-0.28 -0.552,-0.149c-0.354,0.215 -0.756,0.329 -1.094,0.114c-0.395,-0.25 -0.996,-0.27 -1.127,-0.879c-0.011,-0.052 -0.219,-0.128 -0.262,-0.096c-0.535,0.409 -0.998,0.017 -1.477,-0.126c-0.121,-0.036 -0.297,-0.144 -0.313,-0.241c-0.094,-0.6 -0.542,-0.789 -1.03,-0.908c-0.199,-0.048 -0.303,-0.079 -0.307,-0.31c-0.003,-0.166 -0.08,-0.271 -0.319,-0.213c-0.381,0.093 -0.783,0.166 -1.171,0.148c-0.507,-0.024 -0.921,0.138 -1.348,0.378c-0.198,0.112 -0.475,0.084 -0.717,0.117c-0.26,0.035 -0.457,-0.025 -0.592,-0.288c-0.034,-0.065 -0.292,-0.089 -0.392,-0.033c-0.498,0.277 -1.265,-0.014 -1.398,-0.574c-0.03,-0.125 0.044,-0.281 0.09,-0.416c0.09,-0.264 0.312,-0.516 -0.004,-0.787c-0.063,-0.054 -0.113,-0.22 -0.077,-0.275c0.196,-0.3 -0.007,-0.424 -0.214,-0.552c-0.115,-0.071 -0.237,-0.128 -0.394,-0.212c-0.099,0.13 -0.179,0.286 -0.304,0.388c-0.229,0.188 -0.47,0.373 -0.733,0.507c-0.269,0.138 -0.443,0.308 -0.54,0.603c-0.049,0.148 -0.219,0.277 -0.363,0.37c-0.302,0.195 -0.629,0.35 -0.933,0.542c-0.278,0.176 -0.564,0.255 -0.897,0.248c-0.18,-0.004 -0.382,0.067 -0.541,0.161c-0.336,0.199 -0.611,0.098 -0.932,-0.055c-0.367,-0.174 -0.77,-0.282 -1.166,-0.382c-0.3,-0.076 -0.385,-0.223 -0.356,-0.526c0.025,-0.255 0.012,-0.537 -0.076,-0.773c-0.086,-0.231 0.022,-0.32 0.139,-0.467c0.312,-0.393 0.719,-0.624 1.17,-0.821c0.122,-0.054 0.148,-0.314 0.234,-0.47c0.07,-0.127 0.141,-0.274 0.253,-0.353c0.257,-0.179 0.562,-0.294 0.803,-0.49c0.114,-0.093 0.173,-0.313 0.167,-0.472c-0.004,-0.095 -0.167,-0.231 -0.284,-0.267c-0.506,-0.153 -0.768,-0.67 -0.518,-1.125c0.153,-0.278 0.137,-0.441 -0.179,-0.563c-0.217,-0.084 -0.423,-0.189 -0.479,-0.478c-0.013,-0.069 -0.303,-0.151 -0.438,-0.117c-0.567,0.143 -1.092,0.064 -1.633,-0.137c-0.246,-0.091 -0.338,-0.24 -0.393,-0.448c-0.046,-0.172 -0.113,-0.189 -0.292,-0.162c-0.327,0.049 -0.678,0.091 -0.991,0.018c-0.192,-0.045 -0.351,-0.296 -0.493,-0.479c-0.139,-0.179 -0.245,-0.213 -0.42,-0.047c-0.495,0.47 -1.063,0.742 -1.775,0.697c-0.285,-0.018 -0.579,0.073 -0.865,0.132c-0.389,0.079 -1.092,-0.301 -1.179,-0.682c-0.06,-0.263 -0.095,-0.543 -0.071,-0.809c0.014,-0.155 0.133,-0.371 0.265,-0.432c0.319,-0.148 0.526,-0.327 0.518,-0.701c-0.008,-0.351 0.254,-0.562 0.449,-0.802c0.145,-0.179 0.135,-0.933 -0.048,-1.066c-0.074,-0.054 -0.207,-0.048 -0.309,-0.036c-0.727,0.091 -1.453,0.195 -2.181,0.28c-0.046,0.005 -0.142,-0.105 -0.156,-0.173c-0.261,-1.253 -0.51,-2.508 -0.772,-3.761c-0.017,-0.08 -0.102,-0.171 -0.179,-0.206c-0.048,-0.021 -0.16,0.035 -0.207,0.089c-0.232,0.263 -0.456,0.534 -0.675,0.808c-0.279,0.349 -0.58,0.454 -0.998,0.327c-0.107,-0.032 -0.223,-0.059 -0.311,-0.122c-0.384,-0.274 -0.814,-0.286 -1.261,-0.273c-0.17,0.005 -0.357,-0.058 -0.513,-0.137c-0.338,-0.171 -0.417,-0.464 -0.205,-0.767c0.156,-0.224 0.112,-0.366 -0.14,-0.401c-0.367,-0.05 -0.466,-0.308 -0.567,-0.601c-0.128,-0.372 -0.306,-0.723 -0.083,-1.134c0.046,-0.085 -0.088,-0.277 -0.155,-0.412c-0.051,-0.103 -0.203,-0.219 -0.181,-0.287c0.208,-0.639 -0.292,-0.871 -0.653,-1.184c-0.163,-0.142 -0.343,-0.265 -0.493,-0.419c-0.243,-0.25 -0.223,-0.462 0.065,-0.649c0.265,-0.173 0.511,-0.306 0.578,-0.689c0.04,-0.23 0.33,-0.419 0.513,-0.622c0.217,-0.239 0.185,-0.373 -0.111,-0.447c-0.537,-0.133 -0.538,-0.149 -0.522,-0.687c0.003,-0.102 -0.1,-0.242 -0.193,-0.302c-0.117,-0.074 -0.274,-0.108 -0.416,-0.116c-0.361,-0.019 -0.57,-0.243 -0.68,-0.538c-0.115,-0.31 0.009,-0.587 0.287,-0.773c0.255,-0.172 0.231,-0.308 0.011,-0.51c-0.127,-0.116 -0.166,-0.327 -0.245,-0.495c0.148,-0.118 0.257,-0.245 0.395,-0.308c0.351,-0.16 0.349,-0.366 0.173,-0.669c-0.322,-0.556 -0.258,-0.815 0.28,-1.185c0.267,-0.184 0.523,-0.343 0.405,-0.739c-0.021,-0.072 0.042,-0.213 0.11,-0.261c0.388,-0.278 0.741,-0.646 1.292,-0.552c0.101,0.017 0.207,-0 0.311,0.004c0.284,0.01 0.34,-0.121 0.239,-0.366c-0.086,-0.208 0.061,-0.625 0.256,-0.743c0.27,-0.162 0.544,-0.319 0.814,-0.481c0.206,-0.124 0.297,-0.249 0.048,-0.443c-0.091,-0.071 -0.173,-0.234 -0.159,-0.342c0.043,-0.326 -0.22,-0.667 0.051,-0.983c0.026,-0.031 -0.028,-0.147 -0.066,-0.212c-0.28,-0.483 -0.173,-1.003 0.276,-1.307c0.376,-0.255 0.38,-0.293 0.06,-0.679c0.29,-0.329 0.499,-0.718 1.008,-0.841c0.309,-0.075 0.673,-0.172 0.707,-0.678c0.017,-0.244 0.427,-0.333 0.714,-0.41c0.507,-0.137 0.949,0.107 1.399,0.235c0.314,0.089 0.471,-0.024 0.518,-0.253c0.084,-0.41 0.356,-0.554 0.702,-0.672c0.139,-0.048 0.253,-0.18 0.369,-0.283c0.425,-0.376 0.786,-0.843 1.446,-0.831c0.336,0.006 0.614,-0.081 0.731,-0.503c0.102,-0.368 0.443,-0.594 0.809,-0.731c0.094,-0.035 0.194,-0.056 0.293,-0.078c0.319,-0.072 0.484,-0.26 0.536,-0.592c0.061,-0.392 0.317,-0.558 0.726,-0.587c0.346,-0.025 0.692,-0.076 1.031,-0.15c0.188,-0.041 0.255,-0.193 0.108,-0.357c-0.404,-0.453 -0.179,-0.904 0.035,-1.322c0.066,-0.13 0.321,-0.194 0.502,-0.228c0.256,-0.048 0.242,-0.176 0.19,-0.37c-0.052,-0.195 -0.123,-0.405 -0.099,-0.597c0.066,-0.524 0.275,-0.698 0.802,-0.783c0.153,-0.024 0.31,-0.068 0.446,-0.139c0.64,-0.335 0.97,-0.259 1.373,0.34c0.012,0.018 0.011,0.046 0.024,0.063c0.129,0.17 0.375,0.349 0.362,0.507c-0.019,0.235 -0.185,0.486 -0.351,0.676c-0.224,0.256 -0.376,0.503 -0.236,0.842c0.147,0.355 -0.106,0.579 -0.252,0.843c-0.066,0.119 -0.167,0.33 -0.123,0.375c0.096,0.099 0.273,0.164 0.417,0.163c0.288,-0.002 0.541,0.029 0.742,0.264c0.244,0.288 0.569,0.214 0.86,0.128c0.427,-0.126 0.771,0.091 1.133,0.222c0.163,0.059 0.288,0.215 0.444,0.302c0.368,0.205 0.505,0.54 0.598,0.925c0.024,0.098 0.211,0.25 0.282,0.23c1.084,-0.307 2.089,0.149 3.122,0.306c0.261,0.04 0.442,-0.032 0.586,-0.239c0.264,-0.378 0.533,-0.752 0.792,-1.133c0.196,-0.288 0.462,-0.414 0.806,-0.451c0.797,-0.086 1.59,-0.199 2.423,-0.306c0.163,0.96 0.327,1.93 0.494,2.916c-0.228,0.032 -0.45,0.069 -0.673,0.094c-0.312,0.036 -0.384,0.142 -0.32,0.442c0.152,0.714 0.295,1.43 0.44,2.145c0.049,0.243 0.14,0.419 0.415,0.509c2.606,0.854 5.209,1.716 7.806,2.598c0.257,0.087 0.368,-0.015 0.483,-0.169c0.215,-0.288 0.449,-0.571 0.607,-0.89c0.152,-0.307 0.34,-0.274 0.577,-0.173c0.631,0.268 1.262,0.534 1.89,0.809c0.241,0.105 0.391,0.082 0.57,-0.158c0.439,-0.59 0.927,-1.144 1.398,-1.71c0.579,-0.697 1.169,-1.385 1.736,-2.092c0.138,-0.172 0.198,-0.364 -0.126,-0.492c-0.554,-0.219 -1.089,-0.488 -1.627,-0.748c-0.191,-0.092 -0.332,-0.084 -0.482,0.082c-0.552,0.611 -1.119,1.208 -1.668,1.821c-0.16,0.179 -0.293,0.191 -0.499,0.076c-0.404,-0.224 -0.824,-0.419 -1.279,-0.648c0.227,-0.266 0.439,-0.514 0.699,-0.817c-0.835,-0.627 -1.833,-0.965 -2.747,-1.556c0.209,-0.194 0.434,-0.389 0.645,-0.599c1.3,-1.295 2.603,-2.588 3.891,-3.896c0.199,-0.202 0.483,-0.431 0.208,-0.79c-0.028,-0.036 0.012,-0.158 0.057,-0.208c0.113,-0.125 0.246,-0.231 0.416,-0.386c-0.065,-0.065 -0.153,-0.13 -0.21,-0.216c-0.106,-0.159 -0.274,-0.332 -0.27,-0.495c0.005,-0.196 0.082,-0.413 0.368,-0.5c0.32,-0.098 0.597,-0.096 0.921,-0.022c0.287,0.066 0.606,0.008 0.909,-0.016c0.258,-0.02 0.468,0.029 0.632,0.248c0.148,0.198 0.301,0.229 0.514,0.037c0.169,-0.152 0.396,-0.266 0.617,-0.327c0.232,-0.064 0.504,-0.118 0.601,0.251c0.029,0.11 0.174,0.204 0.284,0.275c0.251,0.161 0.229,0.321 0.015,0.48c-0.207,0.154 -0.43,0.288 -0.638,0.441c-0.138,0.101 -0.222,0.195 -0.073,0.392c0.232,0.306 0.174,0.477 -0.151,0.724c-0.144,0.11 -0.31,0.211 -0.406,0.356c-0.064,0.097 -0.053,0.272 -0.018,0.396c0.031,0.111 0.144,0.198 0.216,0.3c0.071,0.1 0.135,0.205 0.196,0.3c-0.36,0.635 -0.951,1.11 -1.218,1.808c0.932,0.422 1.811,0.821 2.69,1.219c0.205,0.093 0.405,0.2 0.619,0.264c0.082,0.024 0.231,-0.026 0.289,-0.094c0.296,-0.342 0.552,-0.719 0.862,-1.047c0.223,-0.236 0.504,-0.419 0.766,-0.616c0.179,-0.134 0.391,-0.232 0.549,-0.386c0.077,-0.075 0.105,-0.249 0.085,-0.366c-0.043,-0.251 -0.101,-0.508 -0.211,-0.735c-0.085,-0.175 -0.232,-0.352 -0.397,-0.448c-0.269,-0.155 -0.375,-0.392 -0.268,-0.626c0.118,-0.256 0.249,-0.582 0.646,-0.562c0.207,0.01 0.418,-0.02 0.623,0.004c0.29,0.033 0.58,0.076 0.772,0.353c0.074,0.106 0.217,0.25 0.314,0.239c0.416,-0.046 0.675,0.15 0.923,0.447c0.123,0.147 0.271,0.239 0.242,0.472c-0.031,0.25 0.001,0.507 -0.009,0.761c-0.009,0.205 0.063,0.3 0.278,0.289c0.135,-0.007 0.273,0.035 0.408,0.029c0.567,-0.026 0.862,0.389 1.214,0.721c0.064,0.061 0.212,0.116 0.266,0.083c0.07,-0.042 0.137,-0.192 0.114,-0.267c-0.141,-0.469 0.11,-0.775 0.405,-1.07c0.142,-0.141 0.285,-0.271 -0.007,-0.414c-0.06,-0.03 -0.107,-0.147 -0.109,-0.225c-0.008,-0.486 -0.03,-0.971 0.453,-1.302c0.21,-0.144 0.307,-0.341 0.339,-0.656c0.055,-0.538 0.235,-1.11 0.902,-1.273c0.052,-0.013 0.098,-0.054 0.191,-0.108c-0.032,-0.108 -0.046,-0.244 -0.11,-0.35c-0.251,-0.42 -0.065,-0.982 0.4,-1.183c0.11,-0.048 0.236,-0.1 0.307,-0.189c0.237,-0.294 0.544,-0.383 0.902,-0.379c0.27,0.003 0.375,-0.15 0.277,-0.379c-0.207,-0.485 -0.03,-1.04 0.451,-1.281c0.308,-0.155 0.287,-0.331 0.132,-0.568c-0.332,-0.509 -0.061,-1.134 0.538,-1.312c0.278,-0.083 0.527,-0.205 0.806,-0.009c0.023,0.016 0.202,-0.1 0.217,-0.173c0.107,-0.538 0.486,-0.643 0.95,-0.642c0.329,0 0.387,-0.086 0.308,-0.414c-0.122,-0.504 0.321,-0.946 0.978,-0.969c0.219,-0.008 0.439,0.003 0.658,-0.001c0.304,-0.006 0.381,-0.109 0.232,-0.377c-0.163,-0.293 -0.149,-0.515 0.105,-0.75c0.065,-0.06 0.045,-0.26 0.005,-0.376c-0.058,-0.167 -0.172,-0.315 -0.258,-0.472c-0.106,-0.193 -0.171,-0.381 -0.028,-0.597c0.05,-0.075 0.041,-0.201 0.031,-0.301c-0.032,-0.315 0.027,-0.578 0.299,-0.788c0.202,-0.156 0.164,-0.343 -0.008,-0.53c-0.395,-0.427 -0.28,-0.976 0.242,-1.204c0.093,-0.04 0.19,-0.07 0.287,-0.1c0.304,-0.095 0.593,-0.145 0.42,-0.625c-0.068,-0.189 0.043,-0.532 0.408,-0.63c0.529,-0.141 1.049,-0.328 1.557,-0.535c0.243,-0.099 0.435,-0.04 0.535,0.134c0.107,0.187 0.206,0.463 0.144,0.644c-0.111,0.327 -0.272,0.626 -0.22,0.991c0.012,0.083 -0.049,0.198 -0.111,0.266c-0.221,0.244 -0.154,0.462 0.024,0.69c0.24,0.306 0.197,0.461 -0.156,0.602c-0.061,0.024 -0.129,0.037 -0.186,0.068c-0.218,0.118 -0.262,0.258 -0.064,0.444c0.218,0.206 0.44,0.411 0.631,0.64c0.084,0.101 0.171,0.291 0.131,0.387c-0.149,0.354 0.105,0.372 0.31,0.403c0.414,0.063 0.785,0.463 0.74,0.878c-0.038,0.349 0.151,0.482 0.429,0.584c0.512,0.189 0.721,0.497 0.685,0.997c-0.015,0.199 -0.055,0.366 -0.325,0.395c-0.232,0.025 -0.367,0.199 -0.369,0.455c-0.002,0.339 -0.091,0.602 -0.488,0.688c-0.303,0.065 -0.44,0.233 -0.214,0.559c0.223,0.321 -0.068,0.526 -0.274,0.666c-0.267,0.18 -0.277,0.301 -0.09,0.554c0.392,0.531 0.087,1.381 -0.536,1.573c-0.248,0.077 -0.357,0.52 -0.183,0.739c0.275,0.346 0.271,0.504 -0.043,0.844c-0.197,0.214 -0.487,0.39 0.012,0.621c0.114,0.053 0.123,0.361 0.156,0.556c0.022,0.134 0.027,0.282 -0.006,0.412c-0.034,0.134 -0.136,0.249 -0.184,0.382c-0.048,0.131 -0.132,0.362 -0.086,0.396c0.354,0.263 0.236,0.67 0.348,1.002c0.134,0.397 -0.086,0.623 -0.406,0.828Z" style="fill:#4ade80;fill-rule:nonzero;stroke:#22c55e;stroke-width:1px;"/></svg>