<?xml version="1.0" encoding="UTF-8"?>
<svg id="_レイヤー_2" data-name="レイヤー_2" xmlns="http://www.w3.org/2000/svg" version="1.1" viewBox="0 0 100 100">
  <!-- Generator: Adobe Illustrator 29.6.1, SVG Export Plug-In . SVG Version: 2.1.1 Build 9)  -->
  <defs>
    <style>
      .st0 {
        fill: #4ade80;
        stroke: #22c55e;
      }
    </style>
  </defs>
  <polygon class="st0" points="87.56 76.67 87.56 76.79 87.82 76.88 88.07 76.57 88.37 76.66 88.45 76.76 88.4 76.97 88.67 77.6 88.43 77.99 88.51 78.34 88.46 78.57 88.27 78.95 88.32 79.08 88.29 79.29 88.08 79.48 87.95 79.9 87.66 80.06 87.44 80.39 87.07 80.46 86.81 80.52 86.81 80.67 86.58 80.87 86.27 80.95 86.18 80.89 85.87 81.33 85.67 81.42 85.31 81.37 84.96 81.8 84.65 81.77 84.63 82 84.29 82.35 84.37 82.38 84.52 82.76 84.65 82.76 84.83 83.04 85.06 83.67 85.33 83.91 85.33 84.3 85.2 84.34 85.04 84.51 84.58 84.23 84.3 83.98 84.15 84.11 84.09 84.24 84.3 84.34 84.46 84.54 84.49 84.74 84.28 84.81 83.88 85.19 83.73 85.17 83.61 84.88 83.44 85.07 82.96 85.02 82.7 85.32 82.5 85.37 82.21 85.25 81.83 85.38 81.52 85.66 81.48 85.77 81.34 85.81 81.18 85.74 81.13 85.62 81.08 85.62 80.28 86 80.22 86.05 80.28 86.31 80.74 86.57 80.89 86.55 81.18 86.34 81.32 86.32 81.91 86.27 82.29 86.32 82.12 86.45 82.1 86.51 82.04 86.65 81.75 86.82 81.64 87.04 80.88 87.18 80.51 87.13 80.36 86.95 79.92 86.78 79.82 86.62 79.81 85.99 79.75 85.9 79.57 85.65 79.46 85.31 79.64 84.91 79.69 84.39 79.72 83.96 79.87 83.96 80.06 83.72 80.07 83.6 79.52 83.18 79.45 83.06 79.19 83.08 78.94 82.92 78.7 82.67 78.45 82.76 78.27 82.73 78.08 82.58 78.04 82.45 77.44 82.41 77.15 82.12 76.71 82.2 76.4 82.16 76 81.8 75.69 81.82 75.5 81.66 75.45 81.51 74.76 81.51 74.5 81.36 74.4 81.22 74.04 81.31 73.32 80.98 72.9 81.13 72.54 80.81 72.5 80.65 71.69 80.57 69.76 80.22 66.62 79.86 66.52 79.89 66.46 80.06 66.37 80.13 66.04 80.19 66.01 80.25 65.94 80.24 65.77 79.95 65.62 79.9 65.07 80.38 64.62 79.91 64.43 80.11 64.28 80.13 63.79 79.78 63.53 80.11 63.32 80.11 63.06 79.9 62.99 79.92 62.79 80.21 62.58 80.28 62.45 80.28 62.2 80.06 61.81 80.27 61.44 80.31 61.33 80.2 61.16 80.42 60.99 80.5 60.74 80.56 60.45 80.51 60.21 80.9 59.95 81.03 59.4 81.07 59.15 80.84 58.87 81.13 58.69 81.19 58.28 81.13 58.21 81.03 58.08 81.23 57.8 81.35 57.41 81.14 57.33 81.36 57.17 81.45 56.39 81.37 56.39 81.5 56.27 81.65 55.84 81.63 55.8 81.78 55.56 82 55.02 82.11 54.94 82.26 54.86 82.33 54.63 82.52 54.61 82.76 54.38 83.01 53.96 83.01 53.68 82.91 53.59 82.94 53.53 82.98 53.41 83.13 53.4 83.37 53.27 83.58 53.25 83.63 52.48 84.32 52.26 84.76 52.1 84.87 51.95 84.96 50.23 84.73 49.21 84.12 48.91 84.03 48.69 83.85 48.22 83.02 47.73 82.76 47.43 82.79 47.3 82.91 46.97 83.06 46.79 83.04 46.64 82.92 46.56 82.75 46.54 82.64 46.66 82.49 46.64 82.42 46.33 82.31 46.33 82.2 46.02 81.9 45.71 82.07 45.41 81.97 45.05 81.56 44.98 81.4 44.85 81.59 44.57 81.62 43.97 81.19 43.85 81.37 43.53 81.42 43.15 80.99 43.15 80.91 42.87 81.01 42.49 80.94 42.1 80.62 42.13 80.54 41.97 80.25 41.83 80.45 41.54 80.47 41.32 80.14 41.32 80.06 41.23 79.98 40.69 79.94 40.56 79.76 40.5 79.83 40.4 79.76 40.39 79.55 40.34 79.52 39.91 79.48 39.82 79.41 39.8 79.2 39.62 78.92 39.02 78.74 38.91 78.51 38.98 78.44 38.93 78.17 38.77 78.23 38.33 78.11 38.16 77.62 38.16 77.51 38.11 77.49 38.04 77.73 37.98 77.73 37.95 77.51 37.71 77.39 37.74 77.31 37.68 76.77 37.35 76.69 37.12 76.52 37.13 76.25 37.2 76.04 37.24 75.92 37.19 75.8 37.04 75.73 37.04 75.33 37.11 75.06 36.81 74.42 36.81 74.09 36.93 73.99 36.62 73.67 36.65 72.73 36.35 72.46 36.42 72.03 36.53 71.88 36.22 71.59 36.16 70.88 36.23 70.76 35.98 70.58 35.8 70.32 35.78 70.23 35.75 70.08 35.85 69.69 35.29 69.49 35.17 69.16 34.92 69.01 34.66 68.37 34.7 68.23 34.53 68.07 34.28 67.64 34.23 67.65 34.23 67.45 34.18 67.36 34.26 67.22 33.88 66.97 33.74 66.75 33.72 66.38 33.52 65.99 33.26 65.65 33.25 65.31 33.19 65.25 33.19 65.16 33.08 65.09 33.1 64.72 33.16 64.62 33.09 64.31 32.84 63.72 32.68 63.52 32.62 63.52 32.56 63.05 32.17 62.54 32.16 62.32 32.24 62.12 32.18 61.8 31.88 61.03 31.53 60.47 30.41 58.25 29.26 54.84 29.01 53.44 28.68 53.33 28.62 53.25 28.65 52.55 28.39 52.48 28.34 52.4 28.31 51.99 28.43 51.8 28.06 51.74 27.87 51.58 27.77 51.45 27.74 51.28 27.82 51.01 27.79 50.97 27.59 50.87 27.24 50.31 27.07 50.28 26.7 49.85 26.71 49.69 26.63 49.47 26.28 49.48 26.09 49.1 26.03 48.5 25.83 48.5 25.77 48.11 25.6 47.97 25.44 48.03 24.91 47.68 24.84 47.23 24.57 47.1 24.66 47.19 24.53 47.17 24.49 47.09 24.55 47.07 24.49 47.03 24.41 46.43 23.69 46.28 23.63 46.21 23.6 46.04 23.67 45.69 23.3 45.47 23.18 44.95 22.99 44.98 22.66 44.62 22.6 44.19 22.34 44.18 21.8 43.77 21.73 43.67 21.83 43.36 21.56 43.29 21.35 42.73 21.21 42.73 20.85 42.48 20.8 42.1 20.64 41.96 20.52 41.96 20.51 41.87 20.45 41.82 20.34 41.82 20.2 41.71 20.18 41.41 20.14 41.34 19.6 41.34 19.35 40.69 19.11 40.62 18.85 40.28 18.85 40 18.43 39.84 18.32 39.34 17.9 39.05 17.87 38.63 17.62 38.56 17.24 38.27 17.17 37.88 16.87 37.78 16.48 37.46 16.53 37.29 16.49 37.25 16.21 37.36 15.71 37.4 15.75 37.7 15.71 37.76 15.37 37.8 14.94 37.96 14.84 38.15 14.74 38.19 14.44 38.2 14.06 37.89 14.02 37.46 13.87 37.27 13.81 37.06 13.98 36.92 13.93 36.79 13.66 36.55 13.73 36.47 13.69 36.31 13.55 36.17 13.45 36.17 13.32 35.95 13.32 35.4 13.03 35.09 12.99 34.91 13.03 34.74 12.68 34.62 12.71 34.32 12.78 34.26 12.78 34.18 12.74 34.1 12.62 34.1 12.63 33.95 12.48 33.7 11.82 33.44 11.72 33.53 11.57 33.49 11.37 33.39 11.33 33.23 11.76 32.66 11.82 32.48 11.92 32.42 12.13 32.47 12.28 32.79 12.56 32.9 12.6 32.98 12.74 32.99 12.67 32.83 12.59 32.84 12.54 32.58 12.78 32.37 12.95 31.82 13.04 31.76 13.35 31.78 13.59 31.37 13.98 31.16 14.24 31.14 14.42 30.89 14.45 30.72 14.9 30.5 15.03 30.21 15.29 30.01 15.41 30 15.59 29.44 15.79 29.23 15.79 28.68 15.95 28.35 15.91 27.82 16.01 27.43 15.85 26.95 15.85 26.56 15.45 26.53 14.94 26.4 14.72 26.6 14.65 26.6 14.46 26.52 14.29 26.27 14.18 26.26 14.15 26.17 13.81 26.28 12.98 25.86 12.77 25.94 12.67 25.4 12.4 25.09 12.24 24.62 12.05 24.45 12.21 24.05 12.21 23.88 12.27 23.86 12.47 23.86 12.69 23.95 13.39 23.7 13.57 23.8 13.63 23.95 14.06 23.85 13.81 23.43 13.3 23.18 13.12 23.03 13.12 22.98 13.25 22.55 13.48 22.58 13.9 22.32 14.04 22.3 14.02 22.18 13.8 21.95 13.66 21.56 13.69 21.41 13.88 21.09 14.39 20.99 14.52 21.08 14.94 20.89 14.96 20.82 14.72 20.56 14.42 19.99 14.4 19.85 14.56 19.71 14.64 19.71 15.48 20.14 15.85 20.18 15.64 19.51 15.48 19.27 15.02 18.86 14.63 18.07 14.36 17.81 14.16 17.96 13.8 17.82 13.74 17.44 13.83 17.2 14.12 17.01 14.52 17.17 14.68 17.15 14.72 16.68 14.61 16.64 14.59 16.53 14.35 16.17 14.35 16.08 14.5 15.84 14.76 15.56 15.02 15.41 15.3 14.71 15.69 14.58 15.96 14.57 15.99 13.94 16.25 13.64 16.54 13.42 16.73 13.51 17.23 13.53 17.36 13.41 17.67 13.58 17.91 14 18.19 14.06 18.38 14.2 18.49 14.53 19.03 14.83 19.09 15.16 19.03 15.72 19.19 15.7 19.48 16.1 19.44 16.35 19.27 16.6 19.49 17.32 19.65 17.3 19.91 17.07 20.06 17.07 20.49 17.42 21.06 17.63 21.35 17.88 21.45 18.02 21.41 18.24 21.11 18.73 21.5 19.86 21.75 20.42 22.09 20.96 22.33 21.19 22.84 21.03 23.12 21.19 23.14 21.33 23.09 21.41 23.33 21.32 23.38 21.21 23.56 21.24 23.75 21.38 24.04 21.26 24.39 20.39 24.55 20.29 24.58 20.1 24.64 20.11 24.59 19.94 24.9 19.52 25.03 19.14 25.49 18.67 25.68 18.56 25.86 18.53 26.05 18.93 26.54 18.92 26.7 19.02 26.81 19.18 26.8 19.35 27.79 19.28 27.84 19.34 27.95 19.34 28.06 19.08 28.67 19.01 28.78 19.1 28.89 18.94 29.54 18.67 29.59 18.5 29.96 18.2 30.19 18.1 30.42 18.1 30.81 17.57 31.15 17.56 31.23 17.3 31.61 17.17 31.75 16.9 32.09 16.56 32.21 16.36 32.28 15.87 32.51 15.75 32.66 15.27 32.78 15.06 32.86 15.04 32.89 14.86 33.3 14.71 33.16 14.25 33.22 13.87 33.56 13.66 33.82 13.62 33.95 13.52 34.15 13.46 34.48 13.22 34.68 12.94 34.99 12.86 35.36 12.92 35.5 13.04 36.12 12.93 36.41 13.09 36.79 13.06 37.01 13.15 37.29 13.38 37.86 13.47 38.25 13.74 38.44 13.74 38.46 13.85 39.54 13.79 39.59 13.97 39.84 13.87 39.84 13.82 40.6 13.78 40.79 13.86 40.88 13.98 40.83 14.15 40.94 14.15 41.22 14.02 41.55 13.72 41.77 13.7 41.82 13.29 42.23 12.88 42.4 12.88 42.41 12.94 42.54 12.98 42.82 12.82 43.06 12.82 43.33 13.11 43.37 13.28 43.22 13.51 43.45 13.53 43.47 13.59 43.43 13.63 43.43 13.81 43.31 13.93 43.38 13.97 43.37 14.11 43.62 13.93 44.13 14.04 44.22 14.08 44.42 14.48 44.59 14.43 44.91 14.56 44.98 14.84 45.25 14.73 45.71 14.94 45.9 14.97 46 14.89 46.26 15 46.94 14.7 47.1 14.72 47.31 14.97 47.55 15.02 47.89 15.58 47.82 15.74 47.41 15.98 47.44 16.13 47.17 16.09 47.14 16.2 47.29 16.62 47.33 16.97 47.66 17.21 47.77 17.47 47.79 17.75 47.59 17.98 47.69 18.13 47.93 18.22 47.93 18.59 47.83 18.8 48.07 19.02 48.16 19.2 48.22 19.53 48.1 19.75 48.22 19.95 48.31 19.96 48.37 20.13 48.32 20.88 48.42 20.99 48.52 21.5 48.42 21.62 48.25 21.68 48.39 21.83 48.62 22.57 48.81 22.83 48.82 23.13 49.26 23.46 49.33 23.44 49.38 23.75 49.83 24.15 49.97 24.42 50 24.62 50.44 25.19 50.49 25.5 50.83 25.79 51 26.19 51.02 26.49 51.36 26.86 51.4 27.25 51.92 27.61 52.34 28.26 52.35 28.38 52.63 28.52 53.04 28.87 53.17 29.08 53.3 29.49 53.55 29.66 53.61 29.79 53.73 29.79 53.82 29.93 53.96 30.24 53.96 30.42 54.42 30.68 54.43 30.9 54.36 30.95 54.36 31.04 54.88 31.39 55.01 31.61 55.03 31.75 55.24 31.69 55.55 31.9 55.76 31.95 55.93 32.22 56 32.45 56.14 32.43 56.28 32.32 56.65 32.5 56.86 32.73 57.16 32.77 57.31 32.86 57.61 33.14 57.63 33.42 57.75 33.46 57.78 33.56 58.19 33.69 58.5 34.11 58.67 34.05 59.05 34.33 59.16 34.69 59.55 34.84 59.63 35.03 59.89 35.16 60.49 35.65 61.05 35.94 61.51 36 61.73 36.25 61.83 36.31 61.86 36.42 62.27 36.48 62.58 36.65 63.24 36.85 63.9 36.84 64.04 36.86 64.37 37.08 64.86 37.09 65.06 37.17 65.37 37.12 65.69 37.19 65.93 37.44 66.36 37.43 66.86 37.59 66.98 37.73 67.01 37.91 67.29 37.79 67.44 37.79 67.68 38.06 67.74 38.06 67.79 38.28 68.25 38.2 68.5 38.41 68.53 38.65 69 38.67 69.42 39.11 69.47 39.32 69.92 39.32 70.06 39.17 70.06 39.07 69.91 39.03 69.86 38.86 69.98 38.75 70.26 38.74 70.41 38.86 70.74 38.82 70.96 38.86 71.01 39.15 70.92 39.23 70.78 39.29 70.44 39.29 70.22 39.15 70.12 39.18 70.01 39.32 70.21 39.35 70.41 39.56 70.77 39.42 71.06 39.4 71.07 39.45 71.32 39.54 71.53 39.69 71.78 39.67 71.99 39.79 72.11 39.79 72.11 39.86 72.29 39.98 72.49 40 72.66 40.31 72.68 40.43 73.42 40.74 73.67 41.18 74.2 41.37 74.32 41.68 74.64 41.78 74.94 42.11 75.1 42.52 75.55 42.8 75.63 42.8 75.87 43.31 76.28 43.58 76.39 44 76.84 44.36 76.85 44.66 77.12 45.1 77.22 45.41 77.2 45.52 77.11 45.59 77.53 45.88 77.85 46.57 78.07 46.74 78.05 47.05 78.22 47.4 78.31 47.82 78.27 47.97 78.55 48.24 78.67 48.29 78.74 48.67 79.21 49.37 79.21 49.58 79.16 49.65 79.49 50.28 79.39 50.58 79.49 50.76 79.58 50.79 79.6 50.9 79.61 51.3 79.54 51.4 79.68 51.52 79.76 51.72 79.88 51.82 79.87 51.96 79.77 52.1 79.89 52.23 79.96 52.23 80.07 52.28 79.97 52.84 80.32 53 80.38 53.48 80.55 53.68 80.67 53.72 80.72 53.93 80.89 54.01 81.04 54.32 81.08 54.63 81.41 54.81 81.6 54.83 81.79 55.23 81.99 55.35 81.96 55.76 81.8 55.85 82.02 56.21 82.02 56.41 81.89 56.61 82.21 57.01 82.21 57.36 82.1 57.63 82.3 58.04 82.09 58.27 82.14 58.8 82.04 58.93 81.9 59 82.03 59.51 81.96 60.17 82.24 60.59 82.12 60.96 82.31 61.42 82.29 61.78 82.22 61.89 82.21 62.13 82.27 62.16 82.24 62.34 82.16 62.61 82.02 62.7 82.18 63.05 82.15 63.43 82.04 63.72 82.18 64.06 82.09 64.29 82.25 64.89 82.16 65.38 82.38 65.9 82.28 66.31 82.41 66.74 82.52 66.87 82.51 67.1 82.33 67.28 82.57 67.57 82.54 67.86 82.43 67.98 82.51 68.33 82.49 68.7 82.55 68.83 82.52 69.29 82.59 69.41 82.66 69.43 82.68 69.55 82.63 70.15 82.72 70.47 82.71 70.56 82.6 70.67 82.89 71.25 82.93 71.71 82.88 71.88 83.03 72.15 82.98 72.52 83.22 73.23 83.25 73.57 83.13 73.69 83.48 73.97 83.52 74.5 83.62 74.61 83.72 74.62 83.93 74.93 83.98 75.1 83.96 75.36 84.15 75.45 84.22 75.6 84.3 75.58 84.29 76.04 84.59 76.29 84.65 76.49 84.53 76.77 84.55 76.94 84.65 77.08 84.84 77.18 85.24 77.18 86.44 76.93 86.64 76.78 87 76.54 87.23 76.52 87.35 76.65 87.56 76.67"/>
</svg>