<?xml version="1.0" encoding="UTF-8"?>
<svg id="_レイヤー_6" data-name="レイヤー_6" xmlns="http://www.w3.org/2000/svg" version="1.1" viewBox="0 0 100 100">
  <!-- Generator: Adobe Illustrator 29.6.1, SVG Export Plug-In . SVG Version: 2.1.1 Build 9)  -->
  <defs>
    <style>
      .st0 {
        fill: #4ade80;
        stroke: #22c55e;
        stroke-linecap: round;
        stroke-linejoin: round;
      }
    </style>
  </defs>
  <path class="st0" d="M22.69,41.47l.1.09,1.99.08c-.11.41.27.36.35.5.11.18-.13,1.21-.03,1.5-.28.21,0,.35-.02.56-.01.13-.18.2-.18.38,0,.19.22.64.29.86.13.48,0,1.23.76.78l1.16,1.49c-.09.39-.49,1.19-.42,1.57.02.1.33.3.37.52.04.29-.2.79-.18,1.08,0,.1.15.24.19.37.11.35.14.68.02,1.04-.09.27-.22.16-.27.21-.04.04.02.29-.04.44-.05.11-.44.42-.57.58-.27.34-.51.83-.74,1.2l-.13-.03.13-.67h-.31c.02.2-.13.48-.11.66.01.12.15.22.15.38.02.58-.25,1.4-.17,1.98.03.23.16.3.12.63,0,.06-.23.71-.26.73-.04.03-.5-.01-.5.29,0,.19.27.13.31.26.02.06.06.52.07.63.05.73.05,1.5.06,2.22,0,.25-.08.65-.06.88.02.25.64,1.36.83,1.53.32.28,1.07.51,1.25.69.26.26.15.83.37,1.13.11.15.4.27.54.41.35.35.86.88,1.17,1.25.13.16.5.63.54.8.09.5-.57,1.54-.67,2.16-.07.42,0,1.06-.15,1.44-.07.2-.23.24-.3.4-.13.29-.02.62-.09.86-.03.1-.17.17-.23.28-.08.16-.14.4-.14.59.02.02.54-.14.57-.16.1-.07.09-.35.23-.41.21-.09.13.12.19.19.12.16.41.05.54-.06l-.06.32c.26.13.31-.18.52-.27.42-.18.3.16.52.34.21.16.62.1.66.13.02.02.01.16.1.25.4.42,1.03.14,1.4.26.1.03.17.47.29-.07l.18.07c-.06.24.13.89.4.53.12-.16-.04-.42.15-.42l.07.19c.37.06.77.04,1.12.14.34.1.45.29.66.42.17.11.65.22.77.34.05.05.04.15.08.19.17.2.28.16.25.53l.19.03c-.01.22.02.33.26.32-.13.65.18.07.43.07.11.24.2.61.52.44v.25c.38-.1.63-.21.86.19.18-.31.32-.38.69-.3.32.07,1.59.83,1.86,1.07.11.09.19.23.26.35l-.17.48c.31.06.44.04.48.39.13.05.25-.05.37.06.03.03.43.54.44.58.06.16.04.52.11.62.02.03.5.25.58.29.09.04.19-.03.22,0,.05.03.25.43.31.44.57-.12.33-.02.48.23.03.05.27.15.34.23.07.07.06.22.15.27.05.03.15-.03.19,0,.11.07.11.32.44.22l-.13.76c.28,0,.55-.06.57-.38.49.28.43-.03.55-.06.09-.02.21.07.31.06.09,0,.16-.11.19-.11.03,0,.24.26.41.18.03.03-.02.48,0,.6.04.22.57.64-.06.81v.25c.12.03.38-.04.49.01.12.07.25.53.28.55.02.01.49.08.52.08.07-.01.08-.19.14-.19.01,0,.06.1.16.1.35-.01.84-.41,1.17-.1.23.21.14.54.16.83.34-.13.45.19.62.24.06.02.48.08.56.08.47,0,.74-.52,1.32-.25.07.03.15.31.3.42.16.11.29.08.41.15.08.05.17.29.34.38.24.12.42.02.62.08.09.03.14.15.22.17.18.05.34-.15.45-.17.13-.02.18.26.67.1.42-.14.33-.35.51-.44.29-.14.69.08.97-.24.16-.02.26.36.16.51l.72.11.42-.43c.32.75.76.24,1.21.04.49-.21,1.25-.54,1.77-.64.15-.03.48-.09.61-.09.04,0,.78.29.81.32.06.04.07.17.13.18l.22-.05c-.05-.64.19-.6.71-.47l.65.91.69-.05v.26s.35,0,.35,0c.11.23.2.64.38.83.06.07.18.05.21.08.1.11.01.92.5.7.28-.12.25-.49.62-.47.12,0,.08.12.14.13.22.06.47.14.7.24.13.05.3.31.37.32.06,0,.25-.15.39-.17.22-.03.47.04.68-.02.13-.04.23-.2.4-.24.3-.06.65.07.97-.05.24-.09.78-.58.91-.81.12-.21.08-.62.31-.83.17-.09.98.05,1.02-.14v-.28s-1.15.13-1.15.13c.14-.74-.17-.74-.51-1.18-.27-.35-.57-.79-.64-1.23h-.43s-.16-.53-.24-.64c-.13-.2-.37-.22-.44-.51-.07-.28.15-.95.46-1.01.2-.04.85.25.94.44.17.37-.37.66.02,1.32.39.65,1.04.4,1.58.8.06.05.07.19.19.22.16.05.25-.06.31-.06h.95c.29,0,.05-.92.03-1.11-.04-.27-.03-.32-.05-.58-.03-.37-.15-.97-.04-1.31.09-.26.64-.28.81-.84.1-.34.19-.8.29-1.18.07-.28.17-1.17.44-1.27.08-.03.19,0,.27-.05.2-.11.14-.45.7-.22.06-.21-.17-.33-.12-.53.05-.18.57-.47.57-.9,0-.25-.24-.38-.24-.44,0-.06.1-.13.1-.24,0-.06-.13-.33-.18-.39-.06-.09-.97-1.06-1.05-1.11-.24-.17-.54-.2-.77-.44-.14-.15-.21-.38-.35-.54-.27-.31-.86-.75-.97-1.13-.13-.44.05-.76.08-1.17.02-.31-.03-.64,0-.95.08-.73.44-1.58.53-2.33.07-.27.34-.26.51-.38.42-.3.88-.56,1.21-.82.11-.09.11-.24.19-.32.07-.07.18-.07.28-.17.24-.25.06-.41.08-.67.02-.26.3-.79.3-.91,0-.19-.36-.9-.37-1.21-.02-.54.03-.81-.05-1.4-.01-.09.06-.19.03-.29-.04-.16-.22-.13-.29-.19-.06-.06-.11-.16-.18-.24-.07-.08-.37-.18-.22-.37.04-.04.36,0,.23-.31-.15-.18-.51-.09-.61-.15-.05-.03-.09-.25-.16-.29-.05-.03-.16-.02-.23-.05-.27-.13.1-.62.18-.81-.09-.23-.4-.22-.53-.36-.06-.07-.31-.6-.33-.7-.02-.14.04-.23.03-.34-.02-.18-.14-.28-.11-.52.04-.3.46-.84.44-1.02l-.38-1.09c-.04-.26.14-.56.05-.81-.03-.09-.22-.16-.31-.26-.32-.38-.2-.4-.14-.84.06-.36.11-.23.14-.32.04-.15-.05-.39,0-.55.04-.11.41-.54.5-.66.04-.05.03-.18.07-.2.06-.05.27.04.38-.04.06-.04.04-.17.07-.21.05-.06.17-.04.22-.09.07-.07.18-.5.21-.62.44.15.16-.39.44-.61l.32.16c.18-.31-.06-.45-.11-.68-.05-.23.03-.68.17-.86.13-.17.64-.16.06-.4-.04-.2.2-.59.2-.63-.01-.06-.16-.06-.19-.15-.23-.63-.15-1.57-.58-2.1-.04-.05-.03-.17-.07-.2-.05-.04-.16.03-.25-.05-.11-.1-.18-.52-.28-.65-.06-.08-.18-.1-.25-.2-.09-.13-.24-.54-.35-.61-.21-.13-.38.21-.54.22-.41.02-.87-.53-.95-.9-.05-.22.14-.38.02-.64-.05-.11-.18-.06-.24-.13-.24-.29-.02-.8-.08-1.02-.01-.05-.22-.14-.29-.23-.1-.12-.1-.24-.16-.35-.05-.08-.18-.11-.21-.17-.12-.19-.08-1-.02-1.22.05-.18.33-.37.36-.47.03-.11-.09-.34-.06-.49l-.25-.14c.1-.46,0-.55-.16-.91-.37-.87-.66-1.84-.97-2.78-.17-.51-.5-1.02-.39-1.57-.46-.13-.33-.65-.4-1-.05-.24-.26-.68-.27-.87,0-.09.1-.13.07-.26-.04-.18-.17-.09-.23-.17-.03-.04-.49-.91-.49-.96-.04-.22.13-.32.12-.52-.49.02-.83-.22-1.05-.63-.12-.22-.21-.67-.32-.83-.18-.26-1.16-.78-1.47-1.17-.13-.16-.03-.41-.14-.52-.08-.09-.26-.06-.34-.11-.08-.05-.32-.19-.4-.24-.15-.1-.17-.36-.34-.49-.12-.08-.32-.1-.36-.15-.04-.05.09-.35-.35-.32.13-.36-.18-.26-.38-.35-.26-.12-.15-.38-.2-.46-.07-.11-1.19-.21-.38-.68l-.05-.18c-.31-.02-.35-.26-.57-.46-.18-.16-.32,0-.26-.41h-.51c.04-.24-.03-.43-.3-.43-.12,0-.17.12-.27.15-.22.06-.44.02-.67.16-.19-.5-.66-.38-1.01-.53-.09-.04-.09-.14-.12-.16-.06-.04-.16,0-.22-.03-.05-.03-.12-.28-.25-.36-.15-.09-.31-.05-.47-.1l-.06-.35c-.51.05-.34,0-.51-.22-.24-.33-.47,0-.51-.03l-.06-.57-.19.06c.07-.35-.09-.2-.2-.3-.08-.08-.18-.36-.31-.45l.3-.51c.04-.27-.7-.17-.84-.33-.23.02-.31.38-.47.42-.16.05-.87.13-1.07.14-.16,0-.41.02-.57,0-.39-.07-.45-.51-.74-.66-.06-.03-.43-.14-.48-.15-.13,0-.24.1-.38.11-.19.01-.45-.13-.63-.12-.26.02-.37.3-.88.17-.06-.02-.54-.31-.59-.36-.16-.18-.1-.39-.45-.45-.21-.03-.15.13-.27.23-.28.22-1.17.09-1.5-.04-.2-.08-.35-.32-.53-.36-.21-.05-.8.04-.9-.03-.04-.02-.03-.2-.14-.27-.11-.08-.39-.07-.53-.16-.02-.02-.39-.32-.42-.35-.27-.25-.31-1.08-.86-.35l-.76-.83-.16.16,1.21,1.34-.19.13.09.29c-.06-.26-.12-.02-.26.05-.1.05-.21.08-.31.13-.26-.65-.45-.06-.51-.05-.1,0-.65-.43-.89-.51-.15-.05-.48-.14-.63-.14-.19,0-.33.13-.43.12-.38-.03-1.72-.96-1.86-1.32-.06-.17-.05-.38-.13-.57-.08-.18-.26-.25-.3-.34-.08-.18-.03-.47-.2-.62-.55-.48-1.27.31-2.15-.2-.63-.37-.81-1.13-1.25-1.68-.07-.09-.23-.14-.32-.25-.27-.31-.36-.71-.86-.74-.48-.03-1.4.8-1.88,1.04-.8.41-1.25.23-1.98-.23-.64-.4-1.06-1.23-1.93-1.31-.06,0-.55.05-.58.06-.02.01-.19.4-.18.46,0,.23.25.73.24,1.02-.52.25-.34.36-.38.83-.05.59-.37.24-.47.49l-.18,1.1c-.08.12-.19.03-.33.1-.17.09-.24.31-.39.44-.44.39-.59.34-1.05.86-.12.14-.56.37-.61.47-.06.13,0,.27-.04.4-.15.52-.55,1.19-.61,1.81-.02.19.06.32.04.47-.03.18-.25.4-.34.56-.09.18-.1.47-.34.63l-.88.12c-.16.17-.12.43-.2.63-.06.13-.24.22-.26.32-.04.17.17.39.17.56,0,.28-.03.84-.06,1.14-.01.13-.12.28-.12.39,0,.11.16.19.12.31l-.45.2c.16.26.07.63.14.87.03.1.21.23.27.37.3.72-.28,1.07.05,1.73.22.44.73.88.84,1.32.15.59-.22.74-.14,1.22.04.28.31.38.44.61-.5.05-.29.73-.31,1.05-.04.61-.66.28-1.08.64-.76.63.1,1.76-.1,2.19-.07.15-.19.11-.16.42.04.49.39,1.34.39,1.78,0,.21-.16.28-.19.45-.16.84.69,1.07.88,1.79,0,.17-.25.19-.36.22v.31c.75-.09.56.17.73.63.1.27.39.63.4,1,0,.13-.26.41-.05.66-.22.1-.41-.11-.48-.13-.35-.08-.98.06-1.37,0l-.06.22Z"/>
</svg>