<?xml version="1.0" encoding="UTF-8" standalone="no"?><!DOCTYPE svg PUBLIC "-//W3C//DTD SVG 1.1//EN" "http://www.w3.org/Graphics/SVG/1.1/DTD/svg11.dtd"><svg width="100%" height="100%" viewBox="0 0 100 100" version="1.1" xmlns="http://www.w3.org/2000/svg" xmlns:xlink="http://www.w3.org/1999/xlink" xml:space="preserve" xmlns:serif="http://www.serif.com/" style="fill-rule:evenodd;clip-rule:evenodd;stroke-linejoin:round;stroke-miterlimit:2;"><rect id="_24_tokyo_kozushima" serif:id="24_tokyo_kozushima" x="0" y="0" width="100" height="100" style="fill:none;"/><g id="_24_tokyo_kozushima1" serif:id="24_tokyo_kozushima"><path d="M22.971,56.761c-0.291,0.051 -0.583,0.102 -0.927,0.161c-0.161,-0.005 -0.271,-0.04 -0.376,-0.027c-0.41,0.05 -0.817,0.122 -1.228,0.17c-0.083,0.01 -0.173,-0.046 -0.26,-0.072c0.008,-0.038 0.016,-0.076 0.023,-0.114c0.755,-0.13 1.51,-0.261 2.291,-0.39c0.138,-0.01 0.251,-0.029 0.363,-0.03c0.324,-0.004 0.648,-0.001 0.988,-0.001c-0.026,-0.201 -0.04,-0.306 -0.054,-0.412c0.026,-0.017 0.052,-0.033 0.077,-0.05c0.064,0.065 0.123,0.136 0.194,0.192c0.078,0.061 0.169,0.154 0.252,0.152c0.341,-0.009 0.681,-0.048 1.034,-0.06c0.02,0.026 0.029,0.036 0.03,0.07c-0.026,0.22 -0.302,0.4 -0.061,0.605c0.099,0.084 0.259,0.183 0.363,0.158c0.199,-0.048 0.377,-0.179 0.571,-0.279c0.034,0.128 0.071,0.266 0.119,0.447l-0.696,0c0.196,0.303 0.343,0.529 0.498,0.784c0.513,0.054 1.018,0.079 1.522,0.104c0.003,-0.074 0.007,-0.148 0.01,-0.222c0,0 0.001,-0.025 0.016,-0.056c-0.023,-0.277 -0.103,-0.525 -0.09,-0.767c0.025,-0.45 0.385,-0.88 0.076,-1.353c-0.013,-0.019 0.004,-0.071 0.023,-0.096c0.338,-0.457 0.156,-0.844 -0.16,-1.214c-0.147,-0.172 -0.292,-0.347 -0.446,-0.513c-0.269,-0.291 -0.922,-0.225 -1.123,0.112c-0.13,0.217 -0.256,0.436 -0.384,0.654c-0.031,-0.016 -0.063,-0.032 -0.094,-0.048c0.05,-0.471 0.361,-0.836 0.549,-1.172c-0.288,-0.581 -0.551,-1.112 -0.814,-1.644c0.02,-0.002 0.039,-0.004 0.059,-0.007c-0.036,-0.259 -0.073,-0.517 -0.11,-0.781c0.083,-0.054 0.202,-0.091 0.248,-0.17c0.092,-0.16 0.204,-0.345 0.197,-0.516c-0.01,-0.226 -0.24,-0.491 -0.174,-0.661c0.174,-0.452 -0.405,-0.657 -0.281,-1.063c0.007,-0.023 -0.103,-0.107 -0.169,-0.124c-0.154,-0.04 -0.315,-0.058 -0.469,-0.084c0.033,-0.215 0.054,-0.348 0.088,-0.501c0.037,-0.188 0.062,-0.358 0.086,-0.527c-0.033,-0.006 -0.067,-0.012 -0.1,-0.017c0.208,-0.437 0.539,-0.639 1.037,-0.623c0.434,0.014 0.821,-0.165 1.038,-0.352c0.442,-0.05 0.806,0.001 1.067,-0.14c0.516,-0.278 0.993,-0.598 1.641,-0.474c-0.091,-0.07 -0.182,-0.14 -0.286,-0.22c0.051,-0.227 0.103,-0.461 0.145,-0.651c0.228,-0.115 0.429,-0.215 0.629,-0.316c-0.017,-0.035 -0.034,-0.07 -0.052,-0.105c-0.191,0.07 -0.381,0.141 -0.587,0.216c-0.046,-0.163 -0.062,-0.293 -0.118,-0.402c-0.08,-0.156 -0.157,-0.351 -0.294,-0.435c-0.347,-0.214 -0.724,-0.384 -1.095,-0.555c-0.106,-0.049 -0.241,-0.074 -0.356,-0.059c-0.223,0.03 -0.441,0.096 -0.69,0.151c-0.772,0.006 -0.772,0.006 -0.83,-0.372c-0.21,-0.105 -0.559,-0.21 -0.553,-0.288c0.037,-0.474 -0.354,-0.68 -0.551,-0.997c-0.216,-0.348 -0.541,-0.441 -0.783,-0.358c-0.188,-0.119 -0.3,-0.239 -0.426,-0.257c-0.126,-0.018 -0.275,0.048 -0.397,0.111c-0.054,0.028 -0.065,0.138 -0.096,0.21c-0.071,-0.073 -0.136,-0.152 -0.215,-0.216c-0.093,-0.075 -0.188,-0.164 -0.298,-0.199c-0.33,-0.105 -0.402,0.212 -0.551,0.394c-0.111,-0.094 -0.202,-0.17 -0.335,-0.283c0.221,-0.137 0.416,-0.257 0.609,-0.376c-0.158,-0.307 -0.133,-0.298 -0.014,-0.643c0.047,-0.138 -0.006,-0.348 -0.084,-0.484c-0.195,-0.336 -0.483,-0.61 -0.353,-1.076c0.057,-0.204 -0.063,-0.458 -0.103,-0.69c-0.013,-0.076 -0.027,-0.151 -0.048,-0.266c0.156,0.078 0.256,0.172 0.345,0.163c0.212,-0.02 0.417,-0.103 0.629,-0.133c0.285,-0.04 0.574,-0.054 0.923,-0.085c0.044,-0.03 0.156,-0.14 0.29,-0.181c0.048,-0.015 0.141,0.144 0.225,0.21c0.069,0.054 0.155,0.126 0.233,0.125c0.249,-0.006 0.533,0.026 0.739,-0.082c0.315,-0.164 0.575,-0.432 0.896,-0.685c0.25,0.19 0.282,-0.084 0.324,-0.348c0.128,0.085 0.226,0.15 0.363,0.24c0,-0.109 0,-0.171 0.02,-0.255c0.514,0.04 1.007,0.103 1.499,0.165c0.018,0.099 0.034,0.183 0.044,0.235c0.2,0 0.372,0.01 0.542,-0.002c0.284,-0.02 0.575,-0.108 0.849,-0.071c0.523,0.071 0.725,-0.299 0.929,-0.629c0.218,-0.353 0.647,-0.443 0.991,-0.175c0.132,0.103 0.326,0.127 0.492,0.188c0.015,-0.047 0.03,-0.094 0.044,-0.141c-0.152,-0.053 -0.304,-0.106 -0.515,-0.179c0.249,-0.177 0.466,-0.279 0.609,-0.445c0.383,-0.445 0.829,-0.819 1.082,-1.398c0.209,-0.479 0.42,-0.922 0.422,-1.455c0.002,-0.53 0.043,-1.06 0.07,-1.639c0.2,0.031 0.365,0.066 0.53,0.08c0.128,0.01 0.258,-0.006 0.387,-0.011c-0.002,-0.028 -0.005,-0.056 -0.007,-0.084c-0.316,-0.057 -0.632,-0.114 -0.979,-0.176c0.031,-0.263 0.098,-0.516 0.078,-0.761c-0.018,-0.221 -0.09,-0.462 -0.213,-0.643c-0.148,-0.218 -0.402,-0.363 -0.558,-0.578c-0.076,-0.104 -0.063,-0.298 -0.041,-0.445c0.062,-0.421 0.149,-0.839 0.229,-1.287c-0.059,-0.28 -0.056,-0.577 -0.194,-0.773c-0.437,-0.619 -0.978,-1.132 -1.743,-1.34c-0.113,-0.031 -0.22,-0.081 -0.397,-0.147c0.278,-0.17 0.492,-0.293 0.698,-0.427c0.276,-0.179 0.553,-0.355 0.817,-0.551c0.271,-0.201 0.285,-0.5 0.258,-0.829c-0.051,-0.139 -0.072,-0.29 -0.158,-0.361c-0.409,-0.335 -0.829,-0.658 -1.259,-0.966c-0.227,-0.163 -0.482,-0.263 -0.572,-0.584c-0.045,-0.162 -0.233,-0.292 -0.375,-0.416c-0.114,-0.1 -0.256,-0.168 -0.407,-0.264c0.87,-0.409 0.87,-0.409 0.738,-0.84c0.138,-0.201 0.351,-0.371 0.355,-0.545c0.007,-0.331 0.096,-0.393 0.409,-0.348c0.152,0.022 0.336,-0.1 0.246,-0.343c-0.021,-0.055 -0.013,-0.122 -0.021,-0.221c0.129,0.032 0.221,0.055 0.293,0.073c0.12,-0.106 0.23,-0.203 0.346,-0.305c-0.042,-0.06 -0.085,-0.121 -0.118,-0.168c0.103,-0.113 0.193,-0.211 0.231,-0.252c0.293,0 0.542,-0.038 0.774,0.008c0.46,0.092 0.872,-0.064 1.232,-0.278c0.168,-0.099 0.309,-0.455 0.267,-0.653c-0.093,-0.437 -0.029,-0.74 0.399,-0.922c-0.096,-0.134 -0.269,-0.276 -0.245,-0.358c0.152,-0.509 -0.173,-0.745 -0.493,-1.017c-0.12,-0.102 -0.335,-0.27 -0.065,-0.47c0.031,-0.023 0.006,-0.109 0.025,-0.159c0.111,-0.288 -0.232,-0.32 -0.281,-0.547c0.001,-0.311 -0.001,-0.59 0.003,-0.895c0.025,-0.532 0.257,-0.878 0.719,-1.109c0.146,-0.073 0.214,-0.304 0.318,-0.462c-0.014,-0.045 -0.028,-0.091 -0.041,-0.136c0.162,0.054 0.361,0.065 0.477,0.17c0.263,0.235 0.61,0.277 0.795,-0.018c0.179,-0.285 0.267,-0.626 0.396,-0.943c0.107,-0.135 0.308,-0.227 0.435,-0.38c0.322,-0.388 0.723,-0.56 1.215,-0.573c0.348,-0.009 0.698,-0.02 1.042,-0.068c0.591,-0.082 1.183,-0.291 1.765,-0.261c0.4,0.021 0.727,-0.103 1.08,-0.179c0.384,-0.083 1.032,0.149 1.15,0.515c0.104,0.321 0.223,0.472 0.593,0.22c0.032,0.152 0.102,0.282 0.069,0.376c-0.081,0.232 0.059,0.294 0.211,0.395c0.38,0.25 0.81,0.21 1.224,0.212c0.314,0.002 0.665,0.099 0.937,-0.178c0.018,-0.018 0.12,0.012 0.152,0.048c0.15,0.164 0.312,0.324 0.425,0.511c0.099,0.163 0.139,0.362 0.205,0.545c0.043,0.003 0.085,0.007 0.128,0.01c-0.114,0.071 -0.228,0.143 -0.42,0.263c0.291,0.26 0.511,0.458 0.732,0.655c0.443,0.395 0.937,0.654 1.555,0.602c0.068,-0.006 0.177,0.039 0.208,0.094c0.103,0.181 0.146,0.404 0.272,0.562c0.254,0.318 0.505,0.67 0.837,0.885c0.357,0.23 0.799,0.34 1.215,0.464c0.565,0.168 1.092,0.064 1.615,-0.229c0.436,-0.244 0.923,-0.397 1.419,-0.589c0.247,0.003 0.465,-0.018 0.676,0.009c0.461,0.058 0.916,0.171 1.378,0.207c0.821,0.063 1.646,0.086 2.494,0.134c0.602,0.148 1.202,0.227 1.75,0.44c0.741,0.288 1.399,0.761 1.893,1.381c0.388,0.488 0.839,0.871 1.351,1.2c0.099,0.063 0.234,0.078 0.355,0.096c0.179,0.026 0.367,0.013 0.54,0.057c0.287,0.073 0.568,0.172 0.848,0.27c0.342,0.12 0.742,0.175 1.006,0.393c0.472,0.391 0.949,0.564 1.552,0.459c0.151,-0.026 0.351,0.037 0.483,0.126c0.299,0.203 0.547,0.487 0.858,0.666c0.567,0.327 1.125,0.642 1.81,0.755c0.668,0.11 1.302,0.436 1.947,0.678c0.355,0.133 0.754,0.222 1.043,0.447c0.626,0.488 1.363,0.657 2.097,0.81c0.316,0.066 0.428,0.214 0.504,0.456c0.119,0.377 0.227,0.749 0.552,1.019c0.197,0.164 0.364,0.366 0.537,0.558c0.106,0.118 0.172,0.32 0.298,0.363c0.673,0.233 1.113,0.764 1.563,1.25c0.244,0.263 0.576,0.527 0.556,1.007c-0.01,0.229 0.235,0.467 0.363,0.702c0.031,0.057 0.098,0.141 0.079,0.173c-0.192,0.324 0.048,0.587 0.11,0.873c0.042,0.193 0.095,0.383 0.143,0.575c-0.076,0.243 -0.158,0.517 -0.097,0.756c0.189,0.743 0.456,1.465 0.55,2.233c0.026,0.209 0.105,0.431 0.222,0.605c0.156,0.231 0.19,0.452 0.135,0.714c-0.179,0.85 -0.006,1.651 0.337,2.432c0.05,0.114 0.093,0.308 0.034,0.378c-0.243,0.291 -0.159,0.628 -0.168,0.943c-0.017,0.578 -0.005,1.159 0.023,1.737c0.017,0.348 0.07,0.697 0.139,1.039c0.033,0.164 0.14,0.313 0.221,0.485c0.084,0.019 0.202,0.047 0.341,0.079c-0.16,0.103 -0.276,0.177 -0.438,0.281c0.363,0.18 0.643,0.319 0.923,0.457c0,0.04 0.001,0.081 0.001,0.121c-0.273,0.046 -0.546,0.092 -0.886,0.15c-0.018,0.048 -0.088,0.17 -0.111,0.3c-0.078,0.448 0.017,0.876 0.259,1.249c0.059,0.091 0.291,0.069 0.464,0.102c-0.014,0.097 -0.076,0.226 -0.037,0.306c0.223,0.462 0.601,0.788 1.018,1.066c0.054,0.036 0.186,0.003 0.255,-0.041c0.271,-0.174 0.41,-0.067 0.528,0.192c0.095,0.209 0.209,0.449 0.508,0.2c0.02,-0.017 0.121,0.064 0.196,0.121c0.125,0.212 0.238,0.402 0.375,0.631c0.145,-0.333 0.283,-0.297 0.524,-0.123c0.34,0.245 0.285,0.714 0.693,0.953c0.358,0.21 0.335,0.322 0.628,-0.043c0.042,0.166 0.074,0.308 0.115,0.448c0.062,0.21 0.097,0.353 -0.232,0.305c-0.251,-0.037 -0.581,-0.101 -0.726,0.206c-0.276,0.582 -0.869,0.829 -1.272,1.274c-0.087,0.096 -0.184,0.193 -0.236,0.308c-0.178,0.395 -0.336,0.799 -0.507,1.196c-0.124,0.288 -0.32,0.561 -0.369,0.859c-0.052,0.318 -0.009,0.668 0.064,0.987c0.073,0.321 0.142,0.606 -0.067,0.908c-0.067,0.096 -0.059,0.272 -0.033,0.401c0.074,0.371 0.195,0.692 0.523,0.965c0.412,0.343 0.696,0.836 1.094,1.201c0.398,0.365 0.579,0.85 0.651,1.31c0.054,0.347 0.043,0.598 0.459,0.689c-0.212,0.053 -0.396,0.045 -0.56,0.098c-0.128,0.042 -0.282,0.136 -0.338,0.25c-0.213,0.436 0.194,0.943 0.675,0.925c0.539,-0.02 1.067,0.065 1.52,0.412c0.163,0.125 0.189,0.235 0.01,0.342c-0.2,0.12 -0.415,0.216 -0.588,0.305c0.022,0.118 0.122,0.332 0.062,0.396c-0.094,0.099 -0.295,0.117 -0.453,0.131c-0.131,0.011 -0.265,-0.039 -0.399,-0.054c-0.316,-0.036 -0.522,0.1 -0.648,0.393c-0.123,0.286 0.074,0.43 0.208,0.632c0.219,0.33 0.663,0.512 0.554,1.068c-0.096,0.493 -0.02,1.02 -0.02,1.516c-0.108,-0.13 -0.203,-0.315 -0.354,-0.414c-0.363,-0.236 -0.755,-0.427 -1.131,-0.644c-0.153,-0.088 -0.328,-0.17 -0.433,-0.303c-0.213,-0.271 -0.424,-0.183 -0.655,-0.059c-0.096,0.052 -0.192,0.135 -0.293,0.144c-0.61,0.055 -1.066,-0.325 -1.541,-0.607c-0.338,-0.201 -0.642,-0.268 -0.935,-0.045c-0.291,0.221 -0.273,0.38 0.058,0.522c0.019,0.008 0.035,0.027 0.062,0.048c-0.035,0.065 -0.07,0.132 -0.105,0.196c0.088,0.071 0.165,0.133 0.231,0.187c-0.13,0.513 -0.68,0.284 -0.935,0.585c0.032,0.107 0.068,0.224 0.086,0.356c-0.028,0.026 -0.038,0.037 -0.072,0.035c-0.247,-0.051 -0.471,-0.089 -0.711,-0.13c-0.015,-0.209 0.01,-0.435 -0.053,-0.632c-0.145,-0.45 -0.334,-0.886 -0.503,-1.356c-0.016,-0.177 -0.05,-0.325 -0.051,-0.473c-0.005,-0.517 -0.233,-0.882 -0.676,-1.155c-0.307,-0.189 -0.571,-0.449 -0.885,-0.702c0.183,-0.124 0.319,-0.254 0.481,-0.315c0.207,-0.079 0.197,-0.173 0.112,-0.337c-0.241,-0.462 -0.924,-0.838 -1.447,-0.803c-0.339,0.023 -0.681,0.009 -1.021,0.03c-0.28,0.017 -0.56,0.058 -0.838,0.096c-0.225,0.031 -0.448,0.084 -0.674,0.107c-0.989,0.101 -1.911,0.42 -2.825,0.859c-0.257,0.085 -0.489,0.161 -0.74,0.24c-0.038,0.021 -0.056,0.038 -0.096,0.065c-0.065,0.078 -0.11,0.145 -0.154,0.212c0,0 -0.004,-0.003 -0.026,-0.02c-0.1,-0.004 -0.178,0.008 -0.281,0.023c-0.032,0.044 -0.039,0.084 -0.046,0.125c0,0 -0.029,0.013 -0.049,-0.022c-0.771,-0.028 -1.405,0.238 -1.855,0.853c-0.255,0.349 -0.553,0.613 -0.987,0.688c-0.144,0.025 -0.303,-0.011 -0.437,0.035c-0.677,0.235 -1.346,0.492 -2.021,0.733c-0.61,0.218 -1.218,0.446 -1.837,0.635c-0.599,0.183 -1.231,0.268 -1.812,0.491c-1.07,0.411 -1.781,1.278 -2.457,2.15c-0.378,0.487 -0.683,1.031 -0.998,1.563c-0.063,0.107 -0.083,0.35 -0.019,0.403c0.299,0.247 0.631,0.456 0.96,0.666c0.196,0.125 0.409,0.224 0.612,0.338c0.118,0.066 0.225,0.157 0.349,0.207c0.564,0.226 1.133,0.44 1.7,0.662c0.165,0.065 0.327,0.14 0.49,0.211c-0.006,0.034 -0.013,0.068 -0.019,0.102c-0.105,-0.011 -0.218,-0.003 -0.315,-0.037c-0.981,-0.349 -1.962,-0.698 -2.937,-1.063c-0.617,-0.231 -1.226,-0.483 -1.835,-0.734c-0.209,-0.086 -0.327,-0.06 -0.481,0.141c-0.335,0.436 -0.306,0.946 -0.395,1.437c-0.038,0.21 0.046,0.332 0.182,0.458c0.023,0.022 0.014,0.09 0.004,0.134c-0.177,0.79 0.132,1.373 0.768,1.818c0.028,0.02 0.05,0.048 0.075,0.071c0.303,0.289 1.094,0.336 1.471,0.072c-0.083,-0.219 -0.141,-0.458 -0.257,-0.664c-0.3,-0.534 -0.258,-1.016 0.157,-1.466c0.007,-0.008 0.007,-0.026 0.015,-0.03c0.079,-0.042 0.16,-0.082 0.24,-0.123c0.028,0.1 0.102,0.215 0.075,0.298c-0.041,0.124 -0.141,0.236 -0.234,0.335c-0.154,0.164 -0.165,0.33 -0.087,0.535c0.221,0.584 0.417,1.178 0.649,1.758c0.046,0.116 0.201,0.194 0.316,0.277c0.164,0.119 0.364,0.201 0.501,0.343c0.279,0.29 0.445,0.289 0.677,-0.03c0.341,-0.47 0.673,-0.95 1.052,-1.39c0.418,-0.486 0.884,-0.931 1.329,-1.394c0.078,-0.081 0.155,-0.165 0.249,-0.266c0.12,0.073 0.23,0.139 0.358,0.217c-1.051,1.199 -2.072,2.363 -3.088,3.523c-0.124,-0.05 -0.226,-0.092 -0.393,-0.159l0,0.793c-0.066,-0.007 -0.122,-0.013 -0.178,-0.045c0.001,-0.202 0.165,-0.41 -0.127,-0.579c-0.058,0.441 -0.113,0.839 -0.16,1.238c-0.012,0.106 0.04,0.231 0,0.319c-0.214,0.478 -0.443,0.949 -0.678,1.417c-0.048,0.097 -0.133,0.228 -0.218,0.243c-0.226,0.039 -0.478,0.079 -0.69,0.017c-0.391,-0.115 -0.44,0.035 -0.366,0.356c0.057,0.245 -0.198,0.562 0.191,0.711c-0.357,0.177 -0.621,0.139 -0.754,-0.253c-0.01,-0.031 -0.035,-0.071 -0.062,-0.08c-0.112,-0.035 -0.227,-0.06 -0.341,-0.089c-0.001,0.093 -0.01,0.187 -0.002,0.279c0.008,0.085 0.034,0.168 0.069,0.332c-0.216,-0.039 -0.433,-0.016 -0.535,-0.114c-0.132,-0.127 -0.17,-0.35 -0.25,-0.531c-0.039,-0.087 -0.066,-0.234 -0.124,-0.249c-0.25,-0.064 -0.51,-0.088 -0.776,-0.139c-0.024,-0.027 -0.04,-0.04 -0.073,-0.07c-0.171,0.023 -0.326,0.066 -0.482,0.11c0.04,0.08 0.059,0.189 0.123,0.235c0.541,0.386 1.087,0.764 1.637,1.137c0.27,0.183 0.225,0.4 0.144,0.594c-0.167,-0.03 -0.295,-0.08 -0.417,-0.069c-0.244,0.023 -0.484,0.111 -0.726,0.115c-0.538,0.009 -0.785,0.223 -0.886,0.631c-0.071,0.287 -0.235,0.436 -0.449,0.552c-0.171,0.093 -0.347,0.099 -0.391,-0.189c-0.026,-0.172 -0.137,-0.331 -0.227,-0.533l0,-0.798c-0.166,0.192 -0.266,0.308 -0.469,0.544c-0.054,-0.113 -0.136,-0.212 -0.135,-0.311c0,-0.055 0.134,-0.113 0.212,-0.163c0.105,-0.067 0.221,-0.117 0.32,-0.191c0.198,-0.148 0.203,-0.286 -0.028,-0.417c-0.136,-0.077 -0.257,-0.179 -0.396,-0.279c0.088,-0.076 0.146,-0.126 0.217,-0.186c-0.064,-0.054 -0.103,-0.113 -0.151,-0.123c-0.273,-0.053 -0.499,-0.159 -0.67,-0.399c-0.041,-0.057 -0.286,-0.062 -0.335,-0.005c-0.211,0.249 -0.438,0.179 -0.636,0.043c-0.203,-0.14 -0.404,-0.314 -0.533,-0.52c-0.149,-0.238 -0.311,-0.34 -0.668,-0.211c0.067,-0.585 0.125,-1.09 0.184,-1.596c0.023,-0.203 -0.335,-0.603 -0.543,-0.575c-0.567,0.076 -1.145,0.12 -1.69,0.276c-0.371,0.106 -0.746,0.327 -1.027,0.593c-0.323,0.306 -0.544,0.719 -0.808,1.086c-0.027,0.037 -0.06,0.075 -0.07,0.117c-0.092,0.4 -0.179,0.801 -0.279,1.223c-0.13,0.434 -0.063,0.813 0.099,1.214c0.14,0.347 0.162,0.742 0.231,1.147c0.019,0.219 0.043,0.408 0.068,0.597c0,0 0.011,0.018 -0.024,0.032c-0.064,0.296 -0.056,0.589 -0.133,0.858c-0.076,0.269 -0.088,0.457 0.306,0.528c-0.219,0.174 -0.359,0.367 -0.534,0.407c-0.35,0.08 -0.525,0.299 -0.665,0.587c-0.059,0.122 -0.132,0.237 -0.194,0.358c-0.037,0.073 -0.066,0.15 -0.098,0.225c0.088,0.015 0.179,0.053 0.262,0.04c0.265,-0.04 0.485,-0.067 0.562,0.295c0.048,0.228 0.167,0.456 0.305,0.647c0.444,0.616 0.237,1.303 -0.442,1.613c-0.268,0.122 -0.536,0.306 -0.486,0.607c-0.198,0.176 -0.35,0.312 -0.539,0.481c-0.287,-0.292 -0.732,-0.558 -0.874,-0.938c-0.161,-0.433 -0.521,-0.417 -0.765,-0.693c-0.025,0.365 -0.044,0.658 -0.064,0.952c-0.036,0.007 -0.073,0.015 -0.109,0.022c-0.062,-0.171 -0.125,-0.341 -0.186,-0.539c-0.134,-0.393 -0,-0.723 0.163,-1.034c0.172,-0.326 0.166,-0.382 -0.177,-0.47c-0.078,-0.02 -0.157,-0.034 -0.234,-0.056c-0.181,-0.051 -0.309,-0.057 -0.312,0.202c-0.002,0.185 -0.007,0.43 -0.117,0.541c-0.253,0.252 -0.247,0.54 -0.254,0.868c-0.017,0.058 -0.018,0.095 -0.035,0.124c-0.222,0.391 -0.459,0.769 -0.247,1.258c0.035,0.08 -0.094,0.283 -0.198,0.36c-0.233,0.172 -0.499,0.301 -0.751,0.447c0.037,0.026 0.074,0.051 0.111,0.077c0,0.16 0.011,0.322 -0.002,0.481c-0.028,0.32 -0.269,0.635 -0.002,0.966c0.028,0.035 -0.044,0.216 -0.108,0.246c-0.083,0.038 -0.238,0.03 -0.303,-0.026c-0.191,-0.166 -0.374,-0.336 -0.411,-0.629c-0.05,-0.397 -0.16,-0.786 -0.251,-1.213c0.018,-0.011 0.102,-0.061 0.218,-0.131c-0.273,-0.226 -0.288,-0.477 -0.156,-0.766c0.021,-0.045 -0.1,-0.154 -0.18,-0.243c-0.119,0.06 -0.261,0.11 -0.299,0.203c-0.077,0.185 -0.098,0.393 -0.153,0.64c-0.051,-0.121 -0.084,-0.2 -0.117,-0.279c-0,-0 0.002,-0.002 0.004,-0.03c-0.07,-0.101 -0.141,-0.174 -0.213,-0.247c-0.015,0.138 -0.029,0.276 -0.041,0.412c0.003,-0.002 0.002,-0.009 0.001,0.017c0.03,0.061 0.061,0.096 0.118,0.129c0.05,0.013 0.075,0.028 0.074,0.056c-0.152,0.024 -0.277,0.036 -0.432,0.05c-0.019,0.055 -0.054,0.159 -0.095,0.277c-0.1,-0.161 -0.179,-0.289 -0.259,-0.418c-0.025,0.008 -0.05,0.017 -0.076,0.025c0.016,0.218 0.031,0.436 0.048,0.664c0.075,0.11 0.163,0.24 0.252,0.371c-0.191,0.107 -0.33,0.186 -0.461,0.259c-0.137,-0.19 0.087,-0.573 -0.354,-0.5c0.029,-0.232 0.057,-0.45 0.088,-0.692c0.012,-0.131 0.02,-0.236 0.028,-0.341c-0.502,0.583 -0.868,1.228 -1.081,1.952c-0.134,-0.054 -0.21,-0.109 -0.289,-0.112c-0.261,-0.009 -0.523,0.005 -0.784,0.002c-0.4,-0.005 -0.576,0.267 -0.413,0.628c0.083,0.184 0.133,0.382 0.198,0.574c-0.031,0.01 -0.062,0.02 -0.093,0.03c-0.291,-0.451 -0.582,-0.901 -0.887,-1.374c-0.338,-0.112 -0.403,0.192 -0.528,0.51c-0.009,-0.149 -0.012,-0.204 -0.01,-0.287c0.02,-0.438 0.203,-0.687 0.64,-0.723c0.068,-0.006 0.127,-0.117 0.19,-0.179c-0.08,-0.044 -0.155,-0.112 -0.24,-0.128c-0.182,-0.033 -0.372,-0.066 -0.553,-0.047c-0.107,0.011 -0.234,0.102 -0.299,0.194c-0.104,0.148 -0.164,0.327 -0.26,0.531c-0.134,-0.346 -0.218,-0.598 -0.332,-0.837c-0.039,-0.081 -0.153,-0.125 -0.232,-0.187c-0.069,0.108 -0.182,0.211 -0.198,0.326c-0.032,0.241 0.01,0.492 -0.024,0.732c-0.014,0.099 -0.144,0.181 -0.276,0.335c-0.065,-0.283 -0.099,-0.448 -0.143,-0.611c-0.036,-0.134 -0.085,-0.264 -0.128,-0.396c-0.122,0.073 -0.245,0.145 -0.365,0.221c-0.035,0.022 -0.062,0.055 -0.167,0.149c-0.027,-0.184 -0.087,-0.315 -0.052,-0.411c0.092,-0.253 -0.06,-0.32 -0.239,-0.348c-0.316,-0.05 -0.682,0.235 -0.753,0.556c-0.014,0.061 -0.047,0.139 -0.096,0.167c-0.393,0.22 -0.668,0.146 -0.922,-0.234c-0.008,-0.013 -0.041,-0.009 -0.081,-0.016c0,0.079 0,0.154 -0.014,0.245c-0.022,0.027 -0.029,0.039 -0.059,0.053c-0.454,0.267 -0.482,0.263 -0.774,-0.066c0.204,-0.1 0.421,-0.196 0.626,-0.315c0.06,-0.035 0.083,-0.134 0.123,-0.204c-0.074,-0.012 -0.148,-0.031 -0.223,-0.036c-0.198,-0.013 -0.399,-0.004 -0.594,-0.034c-0.216,-0.033 -0.425,-0.108 -0.641,-0.144c-0.042,-0.007 -0.148,0.09 -0.142,0.126c0.051,0.3 -0.22,0.259 -0.36,0.338c-0.151,0.084 -0.309,0.107 -0.264,0.359c0.044,0.243 0.167,0.29 0.372,0.267c0.001,0.001 0.002,0.002 -0.002,0.024c-0.098,0.276 -0.185,0.531 -0.286,0.78c-0.043,0.105 -0.115,0.197 -0.176,0.297c-0.116,-0.205 -0.197,-0.349 -0.294,-0.52c-0.208,0.324 -0.38,0.591 -0.592,0.923c-0.067,-0.3 -0.111,-0.498 -0.155,-0.697c-0.027,-0.002 -0.054,-0.005 -0.081,-0.007c-0.064,0.125 -0.128,0.249 -0.2,0.388c-0.053,-0.02 -0.125,-0.023 -0.155,-0.061c-0.247,-0.303 -0.344,-0.127 -0.42,0.125c-0.053,0.177 -0.102,0.355 -0.145,0.504c-0.341,-0.484 -0.142,-1.016 -0.104,-1.546c-0.091,0.024 -0.156,0.051 -0.165,0.09c-0.065,0.284 -0.139,0.569 -0.173,0.858c-0.045,0.381 -0.134,0.742 -0.394,1.031c-0.076,0.084 -0.265,0.177 -0.331,0.14c-0.231,-0.132 -0.509,-0.276 -0.624,-0.493c-0.174,-0.33 -0.298,-0.254 -0.464,-0.058c-0.14,-0.169 -0.261,-0.332 -0.402,-0.476c-0.041,-0.042 -0.154,-0.059 -0.205,-0.032c-0.04,0.021 -0.054,0.13 -0.045,0.196c0.051,0.381 0.113,0.76 0.177,1.183c-0.416,-0.169 -0.589,-0.47 -0.679,-0.798c-0.058,-0.21 -0.101,-0.538 0.013,-0.66c0.275,-0.293 0.072,-0.445 -0.065,-0.653c-0.056,-0.085 -0.083,-0.197 -0.095,-0.3c-0.024,-0.208 -0.029,-0.419 -0.045,-0.683c-0.007,0.004 0.071,-0.047 0.081,-0.054c-0.059,-0.282 -0.107,-0.507 -0.158,-0.751c-0.463,0.294 -0.875,0.232 -1.287,-0.128c-0.111,-0.097 -0.355,-0.064 -0.533,-0.046c-0.052,0.005 -0.14,0.178 -0.123,0.254c0.103,0.451 -0.137,0.318 -0.333,0.193c-0.1,-0.063 -0.148,-0.203 -0.231,-0.297c-0.055,-0.063 -0.129,-0.143 -0.198,-0.147c-0.047,-0.003 -0.115,0.107 -0.148,0.178c-0.073,0.155 -0.13,0.317 -0.157,0.385c-0.173,-0.096 -0.305,-0.223 -0.439,-0.225c-0.093,-0.001 -0.197,0.162 -0.278,0.266c-0.036,0.046 -0.027,0.127 -0.038,0.193c-0.059,-0.049 -0.121,-0.094 -0.177,-0.147c-0.057,-0.053 -0.109,-0.112 -0.16,-0.171c-0.166,-0.19 -0.173,-0.629 -0.013,-0.713c0.426,-0.223 0.437,-0.269 0.136,-0.651c0.222,-0.193 0.186,-0.361 -0.055,-0.524c-0.065,-0.044 -0.125,-0.173 -0.109,-0.246c0.048,-0.224 -0.022,-0.342 -0.237,-0.41c-0.086,-0.027 -0.154,-0.115 -0.233,-0.177c0.25,-0.257 0.186,-0.86 -0.085,-1.006c-0.117,-0.063 -0.252,-0.106 -0.384,-0.126c-0.114,-0.017 -0.244,-0.014 -0.351,0.023c-0.294,0.103 -0.579,0.229 -0.866,0.345c0.019,0.127 0.037,0.245 0.055,0.363c-0.06,0.052 -0.12,0.103 -0.18,0.155c-0.069,-0.2 -0.138,-0.4 -0.207,-0.6c-0.054,0.044 -0.107,0.087 -0.161,0.131c0.039,0.208 0.079,0.416 0.124,0.657c-0.386,-0.086 -0.152,-0.739 -0.693,-0.599c-0.031,-0.076 -0.045,-0.218 -0.114,-0.254c-0.123,-0.064 -0.279,-0.079 -0.421,-0.078c-0.036,0 -0.121,0.173 -0.099,0.201c0.09,0.117 0.212,0.209 0.323,0.31c0,0 -0.005,0.002 -0.012,0.022c0.069,0.098 0.146,0.176 0.231,0.277c0.073,0.151 0.136,0.279 0.241,0.493c-0.339,-0.025 -0.623,-0.046 -0.908,-0.067c-0.014,0.048 -0.028,0.096 -0.042,0.144c0.198,0.11 0.397,0.219 0.594,0.329c-0.213,0.401 -0.35,0.416 -0.678,0.099c-0.15,-0.146 -0.322,-0.274 -0.498,-0.387c-0.12,-0.076 -0.29,-0.083 -0.395,-0.171c-0.214,-0.179 -0.439,-0.275 -0.72,-0.259c-0.064,0.004 -0.133,-0.082 -0.183,-0.115c0.298,-0.159 0.539,-0.287 0.756,-0.403c-0.242,-0.66 -0.786,-0.97 -1.262,-1.34c-0.23,-0.179 -0.499,-0.31 -0.759,-0.444c-0.231,-0.119 -0.476,-0.211 -0.682,-0.301c0.031,-0.216 0.112,-0.394 0.062,-0.517c-0.1,-0.243 -0.025,-0.388 0.175,-0.547c0.298,0.148 0.598,0.306 0.906,0.445c0.068,0.03 0.165,-0.005 0.248,-0.01c-0.006,-0.072 0.015,-0.165 -0.022,-0.213c-0.232,-0.302 -0.477,-0.594 -0.713,-0.883c0.13,-0.073 0.245,-0.137 0.27,-0.151c-0.124,-0.279 -0.194,-0.513 -0.323,-0.709c-0.273,-0.413 0.254,-0.37 0.287,-0.635c0.107,0.118 0.179,0.197 0.265,0.293c0.028,-0.058 0.051,-0.086 0.052,-0.114c0.001,-0.045 -0.004,-0.093 -0.021,-0.134c-0.149,-0.357 -0.28,-0.707 0.064,-1.042c0.026,-0.025 -0.047,-0.229 -0.114,-0.258c-0.153,-0.067 -0.356,-0.144 -0.49,-0.092c-0.15,0.058 -0.249,0.252 -0.364,0.392c-0.068,0.083 -0.123,0.177 -0.227,0.329c-0.018,-0.384 -0.11,-0.678 0.22,-0.926c0.187,-0.14 0.283,-0.404 0.419,-0.612c-0.033,-0.023 -0.066,-0.046 -0.099,-0.069c0.245,-0.072 0.586,-0.12 0.344,-0.473c-0.236,-0.344 -0.134,-0.48 0.24,-0.552c0.011,0.07 0.007,0.152 0.041,0.215c0.027,0.05 0.101,0.106 0.152,0.104c0.055,-0.002 0.142,-0.06 0.155,-0.109c0.058,-0.213 0.095,-0.432 0.139,-0.649c0.037,-0.18 0.073,-0.36 0.117,-0.582c0.296,0.155 0.445,0.081 0.534,-0.165c0.133,-0.367 0.279,-0.73 0.424,-1.093c0.174,-0.433 -0.046,-0.819 -0.531,-0.846c0.257,-0.421 0.89,-0.753 0.38,-1.362c0.087,-0.163 0.192,-0.359 0.297,-0.555c0.177,-0.407 0.446,-0.344 0.757,-0.113c0.107,0.079 0.277,0.09 0.42,0.1c0.374,0.026 0.425,-0.053 0.269,-0.406l0.932,0c-0.021,-0.034 -0.043,-0.067 -0.064,-0.101c0.062,-0.148 0.124,-0.296 0.208,-0.451c0.36,-0.264 0.705,-0.368 1.128,-0.169c0.435,0.204 0.794,0.16 0.979,-0.183c0.207,-0.385 0.486,-0.43 0.848,-0.406c0.083,0.006 0.169,-0.03 0.318,-0.058c-0.152,-0.185 -0.269,-0.326 -0.401,-0.485c0.204,-0.097 0.385,-0.184 0.605,-0.289c0.061,0.451 0.379,0.475 0.715,0.408c0.887,-0.178 1.772,-0.37 2.656,-0.565c0.14,-0.031 0.269,-0.108 0.407,-0.155c0.334,-0.113 0.556,-0.409 1.033,-0.28c0.559,0.151 1.189,0.049 1.788,0.042c0.288,-0.004 0.574,-0.151 0.863,0.049c0.067,0.046 0.242,-0.017 0.343,-0.074c0.519,-0.295 0.909,-0.724 1.067,-1.297c0.295,-1.07 0.542,-2.153 0.819,-3.253c0.023,-0.09 0.044,-0.158 0.046,-0.225c0.018,-0.695 0.092,-1.396 0.029,-2.085c-0.045,-0.49 -0.249,-0.973 -0.436,-1.438c-0.065,-0.162 -0.271,-0.309 -0.445,-0.377c-0.394,-0.153 -0.802,-0.288 -1.217,-0.363c-0.563,-0.102 -0.987,-0.372 -1.305,-0.841c-0.33,-0.487 -0.78,-0.903 -0.868,-1.529c-0.009,-0.062 -0.1,-0.169 -0.137,-0.163c-0.294,0.049 -0.584,0.121 -0.875,0.186Z" style="fill:#4ade80;fill-rule:nonzero;stroke:#22c55e;stroke-width:1px;"/></g></svg>