<?xml version="1.0" encoding="UTF-8" standalone="no"?><!DOCTYPE svg PUBLIC "-//W3C//DTD SVG 1.1//EN" "http://www.w3.org/Graphics/SVG/1.1/DTD/svg11.dtd"><svg width="100%" height="100%" viewBox="0 0 100 100" version="1.1" xmlns="http://www.w3.org/2000/svg" xmlns:xlink="http://www.w3.org/1999/xlink" xml:space="preserve" xmlns:serif="http://www.serif.com/" style="fill-rule:evenodd;clip-rule:evenodd;stroke-linejoin:round;stroke-miterlimit:2;"><rect id="_26_tokyo_mikurajima" serif:id="26_tokyo_mikurajima" x="0" y="0" width="100" height="100" style="fill:none;"/><g id="_26_tokyo_mikurajima1" serif:id="26_tokyo_mikurajima"><path d="M70.427,86.899c-0.021,0.002 -0.043,0.003 -0.116,0.005c-0.302,-0.01 -0.554,-0.002 -0.801,-0.034c-0.641,-0.082 -1.326,0.08 -1.907,-0.365c-0.144,-0.11 -0.401,-0.215 -0.543,-0.159c-0.566,0.221 -1.126,0.095 -1.697,0.101c-1.004,0.011 -1.935,-0.317 -2.759,-0.742c-0.768,-0.396 -1.589,-0.614 -2.369,-0.824c-1.233,-0.332 -2.559,-0.316 -3.845,-0.45c-0.295,-0.031 -0.597,-0.043 -0.881,-0.117c-1.933,-0.508 -3.924,-0.587 -5.895,-0.809c-0.701,-0.079 -1.407,-0.127 -2.111,-0.178c-0.563,-0.041 -1.127,-0.072 -1.691,-0.098c-0.542,-0.025 -1.085,-0.042 -1.628,-0.052c-0.449,-0.008 -0.898,-0.01 -1.347,0.003c-0.412,0.012 -0.824,0.046 -1.236,0.071c-0.044,-0.001 -0.089,-0.003 -0.189,-0.012c-0.765,-0.027 -1.475,-0.046 -2.218,-0.071c-1.196,-0.022 -2.359,-0.038 -3.552,-0.068c-0.873,0.036 -1.718,0.056 -2.558,0.142c-0.659,0.067 -1.308,0.23 -1.972,0.03c-0.226,-0.068 -0.471,-0.075 -0.695,-0.147c-0.955,-0.307 -1.904,-0.632 -2.858,-0.943c-0.464,-0.151 -0.945,-0.254 -1.396,-0.434c-0.638,-0.255 -1.253,-0.568 -1.883,-0.845c-1.189,-0.524 -2.388,-1.026 -3.571,-1.564c-1.06,-0.482 -2.256,-0.618 -3.243,-1.282c-0.103,-0.069 -0.214,-0.133 -0.329,-0.178c-0.678,-0.271 -1.366,-0.518 -2.036,-0.807c-0.461,-0.199 -0.888,-0.475 -1.348,-0.677c-0.657,-0.288 -1.316,-0.559 -1.781,-1.145c-0.197,-0.248 -0.445,-0.457 -0.627,-0.713c-0.305,-0.429 -0.702,-0.847 -0.838,-1.332c-0.33,-1.175 -0.7,-2.33 -1.206,-3.439c-0.499,-1.094 -0.967,-2.194 -1.117,-3.403c-0.057,-0.461 -0.169,-0.915 -0.246,-1.316c0.059,-0.238 0.129,-0.439 0.155,-0.646c0.086,-0.696 0.161,-1.393 0.23,-2.09c0.077,-0.785 0.142,-1.571 0.22,-2.394c0.009,-0.336 0.01,-0.635 0.034,-0.948c0.032,-0.049 0.041,-0.084 0.061,-0.151c-0.004,-0.34 -0.019,-0.647 -0.033,-0.954c-0.004,-0.079 -0.035,-0.211 -0.004,-0.229c0.341,-0.192 0.211,-0.525 0.224,-0.792c0.026,-0.532 -0.007,-1.066 0.007,-1.614c0.031,-0.049 0.039,-0.084 0.054,-0.156c-0.011,-0.235 -0.026,-0.432 -0.048,-0.629c-0.042,-0.383 -0.168,-0.778 -0.113,-1.146c0.09,-0.602 0.2,-1.182 -0.019,-1.778c-0.061,-0.167 -0.094,-0.373 -0.057,-0.543c0.128,-0.582 -0.048,-1.121 -0.327,-1.579c-0.557,-0.916 -0.384,-1.871 -0.261,-2.819c0.069,-0.53 0.278,-1.044 0.434,-1.562c0.161,-0.531 0.284,-1.081 0.512,-1.583c0.585,-1.285 1.241,-2.537 1.827,-3.821c0.475,-1.041 1.161,-1.925 1.91,-2.77c0.247,-0.278 0.566,-0.495 0.797,-0.784c0.359,-0.451 0.666,-0.942 1.001,-1.412c0.715,-1.002 1.416,-2.013 2.157,-2.996c0.396,-0.526 0.851,-1.011 1.298,-1.497c0.569,-0.619 1.158,-1.221 1.738,-1.829c0.145,-0.152 0.354,-0.277 0.426,-0.458c0.282,-0.703 0.909,-1.105 1.369,-1.651c0.146,-0.173 0.283,-0.403 0.474,-0.478c0.525,-0.205 0.817,-0.632 1.083,-1.067c0.137,-0.224 0.222,-0.36 0.51,-0.453c0.272,-0.088 0.624,-0.438 0.642,-0.693c0.04,-0.568 0.549,-0.529 0.809,-0.79c0.283,-0.284 0.651,-0.482 0.982,-0.717c0.163,-0.116 0.317,-0.25 0.494,-0.339c0.228,-0.115 0.478,-0.227 0.314,-0.524c-0.182,-0.329 -0.429,-0.621 -0.642,-0.922c-0.218,0.1 -0.394,0.181 -0.646,0.297c0.14,-0.335 0.23,-0.553 0.301,-0.723c0.421,0.156 0.864,0.332 1.316,0.477c0.109,0.035 0.296,0.012 0.37,-0.062c0.478,-0.477 0.935,-0.975 1.474,-1.546c-0.177,-0.09 -0.301,-0.153 -0.445,-0.227c0.658,-0.235 0.978,-0.641 1.06,-1.253c-0.058,-0.089 -0.127,-0.194 -0.262,-0.4c0.175,0.082 0.249,0.095 0.29,0.14c0.261,0.282 0.523,0.294 0.864,0.107c0.367,-0.201 0.773,-0.33 1.188,-0.495c0.162,-0.044 0.298,-0.082 0.434,-0.121c-0.013,-0.014 -0.012,-0.027 0.049,-0.047c0.604,-0.18 1.165,-0.348 1.721,-0.529c0.19,-0.062 0.362,-0.194 0.555,-0.234c0.597,-0.123 1.2,-0.217 1.837,-0.326c0.472,-0.112 0.905,-0.237 1.344,-0.325c0.607,-0.12 1.224,-0.195 1.83,-0.321c0.662,-0.138 1.319,-0.301 1.974,-0.473c0.414,-0.109 0.827,-0.168 1.189,-0.487c0.289,-0.255 0.718,-0.428 1.105,-0.475c0.435,-0.053 0.418,-0.188 0.219,-0.483c0.398,0.048 0.832,0.235 1.114,0.101c0.379,-0.179 0.702,-0.076 1.052,-0.094c0.648,-0.033 1.294,-0.141 1.942,-0.16c0.83,-0.024 1.662,-0.009 2.491,0.021c1.496,0.053 2.674,0.847 3.784,1.732c0.739,0.589 1.554,0.945 2.459,1.162c0.459,0.11 0.942,0.234 1.337,0.477c0.638,0.394 1.217,0.885 1.811,1.348c0.227,0.177 0.457,0.363 0.637,0.585c0.547,0.677 1.031,1.408 1.613,2.051c0.548,0.606 1.198,1.12 1.785,1.692c0.202,0.197 0.39,0.252 0.651,0.133c0.033,0.028 0.046,0.039 0.064,0.076c0.08,0.107 0.145,0.201 0.234,0.262c0.332,0.23 0.677,0.442 1.007,0.675c0.507,0.358 1.004,0.728 1.506,1.093c0.073,0.053 0.188,0.088 0.217,0.158c0.281,0.694 0.758,1.125 1.517,1.253c0.656,0.111 1.25,0.563 1.977,0.317c0.166,-0.056 0.38,0.026 0.379,0.324c-0,0.117 0.166,0.234 0.257,0.351c0,-0 -0.007,0.007 -0.021,0.033c0.055,0.091 0.123,0.157 0.191,0.222c0,0 -0.007,0.007 -0.014,0.036c0.028,0.036 0.062,0.043 0.097,0.05c0,0 -0.005,0.007 -0.026,0.033c0.081,0.062 0.182,0.097 0.282,0.133c0,0 -0.008,0.01 -0.012,0.034c0.03,0.033 0.065,0.042 0.099,0.052c0,0 -0.008,0.005 -0.006,0.037c0.058,0.037 0.114,0.042 0.17,0.047c0,0 0.001,0.004 -0.017,0.039c-0.008,0.088 0.002,0.14 0.011,0.189c-0.001,-0.003 0.001,-0.01 0.004,0.021c-0.044,0.282 -0.06,0.519 0.261,0.604c0,0 -0.007,0.007 -0.02,0.033c0.055,0.091 0.123,0.157 0.192,0.223c0,0 -0.007,0.007 -0.014,0.035c0.028,0.036 0.062,0.043 0.097,0.051c0,0 -0.006,0.005 -0.027,0.029c0.025,0.063 0.071,0.102 0.117,0.142c0,0 -0.008,0.003 -0.013,0.03c0.028,0.036 0.061,0.045 0.094,0.053c0,-0 -0.007,0.007 -0.022,0.031c0.055,0.091 0.125,0.157 0.195,0.223c0,-0 -0.008,0.006 -0.012,0.032c0.029,0.035 0.062,0.044 0.095,0.053c0,0 -0.008,0.007 -0.014,0.035c0.028,0.036 0.063,0.043 0.098,0.051c0,0 -0.006,0.006 -0.024,0.03c0.054,0.091 0.126,0.157 0.198,0.224c0,-0 -0.008,0.006 -0.012,0.032c0.029,0.035 0.061,0.044 0.094,0.053c0,0 -0.008,0.007 -0.014,0.034c0.028,0.035 0.063,0.044 0.098,0.052c0,0 -0.006,0.006 -0.024,0.03c0.054,0.091 0.126,0.157 0.198,0.224c0,0 -0.008,0.006 -0.012,0.032c0.028,0.035 0.061,0.044 0.094,0.053c0,0 -0.007,0.007 -0.022,0.031c0.252,0.232 0.52,0.439 0.787,0.646c0,0 -0.007,0.007 -0.02,0.035c0.083,0.12 0.179,0.213 0.275,0.305c0,0 -0.007,0.009 -0.018,0.037c0.056,0.178 0.123,0.327 0.189,0.477c0,0 -0.009,0.005 -0.023,0.03c0.027,0.063 0.068,0.101 0.109,0.139c0,0 -0.008,0.004 -0.014,0.032c0.028,0.036 0.062,0.044 0.096,0.052c0,0 -0.007,0.007 -0.017,0.035c0.027,0.036 0.065,0.043 0.102,0.05c0,0 -0.007,0.006 -0.017,0.035c0.028,0.035 0.065,0.043 0.102,0.05c0,0 -0.007,0.004 -0.019,0.037c-0.003,0.057 0.007,0.08 0.017,0.104c0.014,-0.012 0.027,-0.01 0.052,0.043c0.05,0.049 0.085,0.06 0.121,0.071c0,0 -0.009,0.001 -0.012,0.031c0.03,0.038 0.063,0.046 0.096,0.055c0,0 -0.007,0.006 -0.024,0.03c0.026,0.063 0.07,0.102 0.113,0.141c0,0 -0.008,0.003 -0.013,0.03c0.028,0.036 0.061,0.045 0.094,0.053c0,0 -0.007,0.006 -0.023,0.029c0.027,0.063 0.07,0.103 0.114,0.142c0,0 -0.008,-0 -0.012,0.025c0.107,0.132 0.218,0.238 0.344,0.367c0.558,0.652 1.092,1.288 1.646,1.907c0.657,0.735 1.346,1.442 1.992,2.186c0.301,0.347 0.467,0.835 0.811,1.116c0.744,0.607 0.982,1.477 1.368,2.276c0.356,0.738 0.712,1.477 1.057,2.22c0.1,0.215 0.16,0.448 0.249,0.668c0.17,0.42 0.292,0.875 0.54,1.245c0.241,0.36 0.475,0.848 1.126,0.629c-0.053,0.148 -0.067,0.261 -0.099,0.266c-0.506,0.08 -0.345,0.351 -0.2,0.637c0.265,0.522 0.524,1.048 0.773,1.578c0.14,0.297 0.17,0.693 0.676,0.614c0.017,0.035 0.035,0.069 0.052,0.104c-0.122,0.042 -0.245,0.085 -0.367,0.127c0.008,0.053 0.017,0.107 0.025,0.16c0.256,0.184 0.512,0.368 0.788,0.566c0.012,-0.033 -0.031,0.052 -0.019,0.06c0.447,0.313 0.671,0.75 0.738,1.281c0.002,0.012 0.014,0.025 0.025,0.034c0.561,0.438 0.612,1.078 0.688,1.713c0.086,0.721 0.308,1.379 0.78,1.963c0.405,0.502 1.206,0.751 1.091,1.608c-0.001,0.01 0.016,0.023 0.024,0.034c0.497,0.7 0.999,1.396 1.483,2.106c0.078,0.115 0.122,0.3 0.092,0.433c-0.091,0.415 -0.184,0.805 0.13,1.186c0.073,0.089 0.024,0.303 -0.008,0.45c-0.128,0.58 -0.252,1.163 -0.414,1.734c-0.159,0.561 -0.355,1.113 -0.555,1.661c-0.044,0.12 -0.173,0.21 -0.269,0.308c-0.077,0.078 -0.195,0.129 -0.242,0.219c-0.358,0.678 -0.7,1.365 -1.053,2.046c-0.199,0.385 -0.405,0.766 -0.613,1.146c-0.278,0.511 -0.494,1.073 -0.855,1.516c-0.666,0.817 -0.813,1.913 -1.528,2.692c-0.045,0.048 -0.01,0.162 -0.035,0.237c-0.096,0.285 -0.155,0.596 -0.314,0.841c-0.225,0.348 -0.552,0.628 -0.788,0.97c-0.298,0.432 -0.515,0.922 -0.829,1.341c-0.283,0.378 -0.592,0.831 -0.995,1.001c-0.559,0.236 -0.797,0.696 -1.064,1.117c-0.64,1.008 -1.185,2.075 -1.793,3.104c-0.295,0.498 -0.306,0.627 0.06,0.957c-0.198,0.205 -0.406,0.401 -0.593,0.616c-0.379,0.437 -0.719,0.912 -1.128,1.318c-0.425,0.422 -0.926,0.766 -1.368,1.172c-0.395,0.362 -0.766,0.752 -1.127,1.148c-0.147,0.16 -0.206,0.407 -0.365,0.548c-0.793,0.708 -1.614,1.382 -2.586,1.838c-0.084,0.039 -0.238,0.049 -0.298,-0.001c-0.529,-0.44 -1.202,-0.176 -1.783,-0.378c-0.327,-0.114 -0.702,-0.091 -1.056,-0.129Z" style="fill:#4ade80;fill-rule:nonzero;stroke:#22c55e;stroke-width:1px;"/></g></svg>