<?xml version="1.0" encoding="UTF-8" standalone="no"?><!DOCTYPE svg PUBLIC "-//W3C//DTD SVG 1.1//EN" "http://www.w3.org/Graphics/SVG/1.1/DTD/svg11.dtd"><svg width="100%" height="100%" viewBox="0 0 100 100" version="1.1" xmlns="http://www.w3.org/2000/svg" xmlns:xlink="http://www.w3.org/1999/xlink" xml:space="preserve" xmlns:serif="http://www.serif.com/" style="fill-rule:evenodd;clip-rule:evenodd;stroke-linejoin:round;stroke-miterlimit:2;"><rect id="_31_tokyo_ioujima" serif:id="31_tokyo_ioujima" x="0" y="0" width="100" height="100" style="fill:none;"/><g id="_31_tokyo_ioujima1" serif:id="31_tokyo_ioujima"><path d="M11.2,94.213c0.007,-0.011 0.011,-0.03 0.02,-0.033c0.681,-0.184 0.68,-0.664 0.654,-1.26c-0.024,-0.548 0.24,-1.106 0.228,-1.656c-0.019,-0.85 0.183,-1.754 -0.337,-2.529c-0.238,-0.354 -0.565,-0.648 -0.851,-0.969c-0.025,0.023 -0.05,0.045 -0.075,0.068c0.002,-0.026 -0.006,-0.061 0.008,-0.077c0.582,-0.643 0.459,-1.482 0.627,-2.24c0.033,-0.149 0.09,-0.292 0.134,-0.438c0.051,-0.169 0.126,-0.335 0.146,-0.508c0.169,-1.45 0.669,-2.72 1.912,-3.597c0.064,-0.045 0.136,-0.086 0.184,-0.145c0.57,-0.708 1.207,-1.376 1.681,-2.143c0.44,-0.712 0.701,-1.533 1.047,-2.303c0.266,-0.593 0.533,-1.187 0.816,-1.772c0.407,-0.845 0.834,-1.681 1.243,-2.526c0.386,-0.796 0.766,-1.594 1.135,-2.398c0.091,-0.199 0.168,-0.42 0.182,-0.635c0.067,-0.997 0.516,-1.839 0.985,-2.692c0.257,-0.468 0.404,-1.007 0.542,-1.529c0.308,-1.159 0.563,-2.331 0.87,-3.49c0.248,-0.935 0.3,-1.872 0.17,-2.825c-0.07,-0.513 -0.056,-1.048 -0.425,-1.477c-0.042,-0.049 -0.039,-0.149 -0.036,-0.224c0.014,-0.396 0.034,-0.791 0.054,-1.187c0.033,-0.65 0.091,-1.301 0.092,-1.951c0,-0.384 -0.105,-0.767 -0.134,-1.153c-0.025,-0.348 -0.107,-0.735 0.005,-1.043c0.3,-0.824 0.272,-1.65 0.248,-2.501c-0.02,-0.715 -0.216,-1.39 -0.53,-1.975c-0.406,-0.76 -0.438,-1.572 -0.598,-2.364c-0.18,-0.89 -0.611,-1.625 -1.156,-2.318c-0.137,-0.174 -0.285,-0.342 -0.402,-0.529c-0.795,-1.265 -1.98,-1.98 -3.383,-2.353c-0.391,-0.104 -0.83,-0.08 -1.241,-0.047c-0.486,0.04 -0.657,0.295 -0.675,0.786c-0.005,0.132 -0.077,0.289 -0.169,0.386c-0.351,0.366 -0.708,0.731 -1.096,1.057c-0.141,0.118 -0.372,0.16 -0.566,0.176c-0.289,0.023 -0.229,-0.235 -0.276,-0.409c-0.116,-0.431 -0.258,-0.855 -0.36,-1.289c-0.027,-0.117 0.008,-0.315 0.09,-0.382c0.487,-0.396 0.593,-0.875 0.422,-1.459c-0.071,-0.241 -0.007,-0.388 0.273,-0.554c0.324,-0.193 0.495,-0.627 0.778,-0.911c0.189,-0.19 0.442,-0.347 0.695,-0.434c0.272,-0.094 0.492,-0.012 0.642,0.319c0.267,0.586 0.862,0.643 1.409,0.654c0.927,0.019 1.814,-0.237 2.65,-0.609c0.854,-0.379 1.673,-0.84 2.506,-1.267c0.058,-0.03 0.113,-0.067 0.162,-0.11c1.043,-0.898 2.285,-1.455 3.51,-2.037c0.833,-0.396 1.685,-0.752 2.518,-1.148c0.34,-0.161 0.661,-0.367 0.976,-0.575c1.093,-0.718 2.255,-1.226 3.574,-1.384c1.453,-0.174 2.748,-0.77 3.933,-1.623c0.305,-0.22 0.655,-0.378 0.978,-0.575c0.43,-0.263 0.845,-0.545 1.05,-1.039c0.018,-0.043 0.068,-0.08 0.112,-0.104c0.989,-0.545 1.546,-1.392 1.777,-2.484c0.035,-0.164 0.183,-0.315 0.304,-0.448c0.237,-0.258 0.511,-0.484 0.737,-0.752c0.284,-0.337 0.596,-0.588 1.054,-0.651c0.551,-0.076 0.72,-0.284 0.811,-0.86c0.063,-0.393 0.147,-0.783 0.226,-1.194c0.566,0.254 0.815,0.128 1.047,-0.381c0.144,-0.316 0.356,-0.6 0.538,-0.899c0.04,0.014 0.08,0.029 0.12,0.043c0.028,0.066 0.04,0.149 0.088,0.194c0.083,0.078 0.186,0.18 0.285,0.184c0.081,0.004 0.22,-0.107 0.241,-0.19c0.065,-0.254 0.212,-0.38 0.462,-0.401c0.323,-0.027 0.426,-0.174 0.418,-0.517c-0.006,-0.249 0.129,-0.527 0.274,-0.743c0.06,-0.089 0.339,-0.114 0.467,-0.055c0.23,0.105 0.41,0.103 0.618,-0.028c0.47,-0.296 0.822,-0.671 0.944,-1.235c0.037,-0.171 0.129,-0.331 0.184,-0.466c0.26,-0.018 0.518,-0.012 0.766,-0.057c1.086,-0.198 2.171,-0.399 3.251,-0.624c0.439,-0.091 0.876,-0.219 1.293,-0.385c0.191,-0.076 0.323,-0.29 0.493,-0.427c0.772,-0.626 1.583,-1.183 2.57,-1.423c0.087,-0.021 0.172,-0.066 0.246,-0.116c0.485,-0.327 1.024,-0.599 1.432,-1.004c0.396,-0.393 0.711,-0.895 0.956,-1.401c0.181,-0.372 -0.07,-0.65 -0.592,-0.834c-0.019,-0.203 -0.045,-0.406 -0.055,-0.61c-0.004,-0.085 -0.008,-0.215 0.041,-0.25c0.302,-0.212 0.24,-0.511 0.251,-0.811c0.005,-0.159 0.102,-0.322 0.18,-0.471c0.132,-0.251 0.276,-0.496 0.43,-0.734c0.044,-0.067 0.133,-0.13 0.211,-0.146c0.519,-0.104 1.038,-0.202 1.561,-0.282c0.129,-0.02 0.27,0.034 0.421,0.057c-0.103,0.416 0.124,0.512 0.462,0.532c0.149,0.009 0.347,0.03 0.434,0.125c0.467,0.51 1.029,0.276 1.568,0.246c0.141,-0.008 0.283,0.005 0.424,0.01c0.23,0.008 0.461,0.017 0.691,0.026c0.111,0.004 0.225,-0.003 0.334,0.017c0.418,0.079 0.835,0.167 1.253,0.25c0.024,0.005 0.057,0.001 0.076,-0.013c0.321,-0.231 0.674,-0.217 1.046,-0.18c0.055,0.006 0.138,-0.263 0.24,-0.468c0.233,-0.023 0.395,-0.298 0.419,-0.955c0.443,0.259 0.867,0.507 1.291,0.755c-0.007,0.035 -0.013,0.07 -0.02,0.105c-0.162,0.051 -0.322,0.11 -0.486,0.152c-0.256,0.065 -0.371,0.238 -0.258,0.465c0.258,0.52 0.467,1.101 0.85,1.515c0.849,0.919 1.777,1.766 2.706,2.606c0.241,0.218 0.625,0.269 0.907,0.453c0.151,0.099 0.224,0.317 0.332,0.481c-0.028,0.019 -0.056,0.039 -0.084,0.058c0.279,0.203 0.551,0.417 0.84,0.605c0.172,0.112 0.37,0.181 0.556,0.272c0.045,0.022 0.11,0.047 0.123,0.085c0.23,0.67 0.835,0.834 1.404,1.043c0.249,0.091 0.506,0.161 0.75,0.262c0.066,0.028 0.149,0.146 0.138,0.207c-0.075,0.418 0.196,0.639 0.48,0.821c0.485,0.31 0.873,0.669 1.073,1.241c0.08,0.227 0.363,0.383 0.554,0.572c0.163,0.161 0.335,0.315 0.488,0.486c0.653,0.729 1.327,1.442 1.94,2.203c0.464,0.576 0.848,1.217 1.269,1.829c0.095,0.139 0.168,0.307 0.295,0.407c0.529,0.417 0.691,1.012 0.882,1.616c0.167,0.527 0.358,1.08 0.682,1.515c0.548,0.736 0.85,1.578 1.225,2.389c0.489,1.059 0.999,2.113 1.396,3.207c0.148,0.408 0.352,0.804 0.414,1.279c0.128,0.968 0.463,1.909 0.709,2.862c0.224,0.867 0.446,1.734 0.667,2.602c0.09,0.352 0.134,0.721 0.266,1.056c0.294,0.746 0.445,1.552 0.939,2.219c0.13,0.175 0.136,0.437 0.222,0.649c0.096,0.237 0.212,0.467 0.333,0.693c0.085,0.159 0.22,0.295 0.288,0.46c0.198,0.484 0.328,1.002 0.569,1.463c0.365,0.696 0.326,1.373 0.069,2.074c-0.035,0.096 -0.083,0.205 -0.068,0.298c0.136,0.856 -0.255,1.564 -0.591,2.302c-0.163,0.359 -0.189,0.779 -0.283,1.17c-0.029,0.119 -0.046,0.272 -0.127,0.341c-0.397,0.338 -0.791,0.69 -1.232,0.961c-0.23,0.142 -0.571,0.091 -0.836,0.193c-0.194,0.074 -0.421,0.219 -0.505,0.394c-0.524,1.091 -1.058,2.182 -1.483,3.312c-0.132,0.35 -0.259,0.511 -0.583,0.635c-0.364,0.139 -0.697,0.358 -1.041,0.548c-0.053,0.029 -0.12,0.086 -0.128,0.137c-0.041,0.295 -0.137,0.484 -0.478,0.311c-0.01,-0.005 -0.035,-0.004 -0.038,0.002c-0.222,0.456 -0.683,0.112 -0.949,0.274c-0.376,0.229 -0.712,0.557 -0.995,0.901c-0.503,0.611 -1.019,1.126 -1.901,1.048c-0.54,-0.048 -0.968,0.206 -1.364,0.572c-0.263,0.243 -0.615,0.388 -0.909,0.602c-0.141,0.102 -0.227,0.275 -0.361,0.389c-0.188,0.159 -0.39,0.402 -0.599,0.417c-0.549,0.04 -1.106,-0.025 -1.659,-0.047c-0.115,-0.004 -0.247,-0.035 -0.344,0.007c-0.45,0.196 -0.908,0.074 -1.365,0.079c-0.408,0.004 -0.821,0.046 -1.222,0.123c-0.639,0.122 -1.183,-0.198 -1.772,-0.31c-0.428,-0.082 -0.876,-0.062 -1.315,-0.077c-0.162,-0.005 -0.357,0.083 -0.482,0.02c-0.672,-0.336 -1.277,0.022 -1.915,0.118c-0.7,0.105 -1.416,0.131 -2.126,0.144c-0.501,0.009 -1.039,0.041 -1.495,-0.122c-0.623,-0.223 -1.107,-0.068 -1.634,0.21c-0.165,0.087 -0.412,0.059 -0.613,0.028c-0.56,-0.087 -1.047,0.03 -1.499,0.383c-1.336,1.043 -2.674,2.086 -4.031,3.102c-0.97,0.727 -1.965,1.421 -2.962,2.11c-1.599,1.105 -3.229,2.167 -4.809,3.297c-1.338,0.956 -2.612,2 -3.939,2.973c-0.619,0.454 -1.291,0.836 -1.946,1.242c-0.476,0.295 -0.95,0.599 -1.447,0.857c-0.841,0.437 -1.698,0.842 -2.548,1.261c-0.082,0.04 -0.162,0.085 -0.238,0.135c-1.149,0.769 -2.366,1.397 -3.662,1.89c-1.136,0.432 -2.243,0.937 -3.345,1.462c-1.056,0.504 -1.822,1.429 -2.942,1.783c-0.147,0.047 -0.277,0.147 -0.424,0.199c-0.844,0.301 -1.69,0.595 -2.535,0.893c-1.694,0.598 -3.057,1.668 -4.236,2.992c-0.304,0.341 -0.439,0.743 -0.409,1.225c0.027,0.437 -0.03,0.886 -0.102,1.321c-0.029,0.174 -0.179,0.339 -0.301,0.485c-0.157,0.189 -0.34,0.355 -0.488,0.553c0.023,0.022 0.022,0.018 0.024,0.018c-0.554,0.351 -1.131,0.672 -1.658,1.062c-0.393,0.291 -0.7,0.697 -1.083,1.005c-0.633,0.509 -1.3,0.976 -1.944,1.472c-0.173,0.133 -0.292,0.355 -0.479,0.445c-0.308,0.148 -0.645,0.253 -0.982,0.32c-0.5,0.099 -1.01,0.148 -0.98,0.798c-0.273,-0.239 -0.535,-0.49 -0.824,-0.704c-0.053,-0.039 -0.232,0.047 -0.322,0.115c-0.08,0.061 -0.118,0.177 -0.154,0.234c-0.108,-0.171 -0.206,-0.327 -0.305,-0.483c-0.124,0.094 -0.248,0.189 -0.371,0.281c-0.062,-0.044 -0.184,-0.13 -0.345,-0.217c-0.047,-0.011 -0.056,-0.021 -0.066,-0.031Z" style="fill:#4ade80;fill-rule:nonzero;stroke:#22c55e;stroke-width:1px;"/></g></svg>