<?xml version="1.0" encoding="UTF-8" standalone="no"?><!DOCTYPE svg PUBLIC "-//W3C//DTD SVG 1.1//EN" "http://www.w3.org/Graphics/SVG/1.1/DTD/svg11.dtd"><svg width="100%" height="100%" viewBox="0 0 100 100" version="1.1" xmlns="http://www.w3.org/2000/svg" xmlns:xlink="http://www.w3.org/1999/xlink" xml:space="preserve" xmlns:serif="http://www.serif.com/" style="fill-rule:evenodd;clip-rule:evenodd;stroke-linejoin:round;stroke-miterlimit:2;"><rect id="_34_kanagawa_enoshima" serif:id="34_kanagawa_enoshima" x="0" y="0" width="100" height="100" style="fill:none;"/><path d="M54.465,27.293c0.513,0.056 1.025,0.111 1.553,0.19c0.001,0.068 -0.009,0.114 -0.028,0.156c-0.386,0.888 -0.776,1.774 -1.158,2.664c-0.087,0.202 -0.2,0.415 -0.205,0.625c-0.009,0.334 0.287,0.397 0.547,0.464c0,0 -0.004,0.003 0.002,0.021c0.062,0.044 0.118,0.07 0.175,0.097c0,0 -0.004,0.003 0.002,0.022c0.333,0.191 0.655,0.371 0.987,0.534c0.588,0.29 1.182,0.57 1.773,0.854c0,0 -0.004,0.003 0.002,0.02c0.042,0.024 0.079,0.032 0.115,0.039c0,0 -0.004,0.003 0.003,0.022c0.06,0.056 0.111,0.101 0.17,0.13c2.946,1.476 5.892,2.95 8.84,4.422c0.082,0.041 0.182,0.047 0.273,0.069c0,0 -0.004,0.002 0.002,0.019c0.042,0.024 0.079,0.032 0.115,0.039c0,0 -0.003,0.003 0.004,0.021c0.466,0.248 0.925,0.478 1.385,0.708c-0.038,0.062 -0.067,0.111 -0.096,0.16c0,0 -0.003,-0.004 -0.021,-0.003c-0.064,0.041 -0.11,0.081 -0.155,0.121c0,0 -0.003,-0.004 -0.021,-0.003c-0.064,0.041 -0.11,0.081 -0.155,0.121c0,-0 -0.003,-0.004 -0.021,-0.003c-0.064,0.041 -0.11,0.081 -0.155,0.121c0,0 -0.003,-0.004 -0.021,-0.003c-0.064,0.041 -0.11,0.081 -0.155,0.121c0,0 -0.003,-0.004 -0.021,-0.003c-0.064,0.041 -0.11,0.081 -0.155,0.121c0,0 -0.003,-0.004 -0.021,-0.003c-0.064,0.041 -0.11,0.081 -0.155,0.121c0,0 -0.003,-0.004 -0.021,-0.003c-0.064,0.041 -0.11,0.081 -0.155,0.121c0,0 -0.003,-0.004 -0.021,-0.003c-0.064,0.041 -0.11,0.081 -0.155,0.121c0,0 -0.003,-0.004 -0.021,-0.003c-0.064,0.041 -0.11,0.081 -0.155,0.121c0,-0 -0.003,-0.004 -0.021,-0.004c-0.064,0.041 -0.11,0.081 -0.155,0.121c0,0 -0.003,-0.004 -0.021,-0.003c-0.064,0.041 -0.11,0.081 -0.155,0.121c0,0 -0.003,-0.004 -0.022,-0.004c-0.093,0.041 -0.173,0.073 -0.24,0.122c-0.287,0.212 -0.57,0.43 -0.855,0.645c0,0 -0.002,-0.004 -0.021,-0.003c-0.064,0.041 -0.11,0.081 -0.156,0.121c0,0 -0.002,-0.004 -0.021,-0.003c-0.064,0.041 -0.11,0.081 -0.156,0.121c-0,-0 -0.003,-0.004 -0.021,-0.003c-0.064,0.041 -0.11,0.081 -0.155,0.121c0,-0 -0.003,-0.004 -0.021,-0.003c-0.064,0.041 -0.11,0.081 -0.155,0.121c0,0 -0.003,-0.004 -0.021,-0.003c-0.064,0.041 -0.11,0.081 -0.155,0.121c0,0 -0.003,-0.004 -0.023,-0.003c-0.048,0.038 -0.076,0.075 -0.104,0.112c0,0 0.003,-0.002 -0.019,-0.01c-0.037,0.038 -0.079,0.111 -0.064,0.124c0.118,0.111 0.247,0.21 0.373,0.314c0,0 0.005,0 -0.002,0.019c0.017,0.025 0.04,0.031 0.064,0.038c0,-0 0.005,-0.006 -0.007,0.016c0.022,0.051 0.055,0.08 0.088,0.109c0,0 0.016,0.022 0.03,0.042c0.035,0.032 0.056,0.043 0.076,0.055c0,0 -0.004,0.002 -0,0.017c0.022,0.024 0.041,0.033 0.059,0.042c0,0 -0.004,0.003 -0,0.018c0.022,0.023 0.041,0.032 0.059,0.041c0,0 -0.004,0.003 -0,0.017c0.022,0.023 0.04,0.032 0.059,0.042c0,0 -0.004,0.002 -0.003,0.022c0.134,0.148 0.267,0.276 0.4,0.404c0,0 0.006,-0.002 -0.005,0.017c0.022,0.049 0.056,0.078 0.089,0.107c0,0 0.016,0.022 0.03,0.042c0.035,0.032 0.056,0.043 0.076,0.055c0,0 -0.004,0.002 -0,0.017c0.022,0.024 0.041,0.033 0.06,0.042c0,0 -0.004,0.003 -0.001,0.018c0.022,0.023 0.041,0.032 0.059,0.041c0,0 -0.004,0.003 -0,0.018c0.022,0.023 0.041,0.032 0.059,0.041c0,0 -0.004,0.002 -0.003,0.022c0.154,0.167 0.307,0.315 0.46,0.462c0,0 0.005,-0.003 -0.006,0.017c0.022,0.049 0.055,0.078 0.088,0.107c0,0 0.016,0.022 0.03,0.042c0.035,0.032 0.056,0.043 0.076,0.055c0,0 -0.001,0.002 -0.005,0.019c-0.041,0.066 -0.077,0.116 -0.113,0.165c0,0 -0.003,-0.004 -0.022,-0.003c-0.143,0.08 -0.266,0.159 -0.389,0.238c0,0 -0.003,-0.004 -0.023,-0.003c-0.202,0.097 -0.385,0.194 -0.598,0.307c0.092,0.069 0.151,0.114 0.211,0.159c0,0 -0.004,0.003 -0.001,0.017c0.022,0.023 0.04,0.032 0.059,0.041c0,0 -0.004,0.003 -0,0.018c0.022,0.023 0.04,0.033 0.059,0.042c0,0 -0.004,0.002 -0.003,0.021c0.1,0.123 0.199,0.227 0.298,0.331c0,0 -0.004,0.003 -0.001,0.017c0.022,0.023 0.04,0.032 0.059,0.041c0,0 -0.004,0.003 -0.001,0.018c0.022,0.023 0.041,0.032 0.059,0.041c0,-0 -0.004,0.003 -0,0.018c0.022,0.023 0.041,0.032 0.059,0.041c0,0 -0.004,0.002 -0.003,0.022c0.095,0.108 0.189,0.197 0.282,0.286c0,0 0.007,-0.005 -0.007,0.014c0.018,0.042 0.049,0.066 0.081,0.089c0,0 -0.004,0.003 -0.001,0.017c0.022,0.023 0.04,0.032 0.059,0.041c0,0 -0.004,0.003 -0.001,0.018c0.022,0.023 0.041,0.032 0.059,0.041c0,0 -0.004,0.002 -0.003,0.022c0.095,0.108 0.189,0.197 0.283,0.286c0,0 0.006,-0.005 -0.008,0.014c0.018,0.043 0.05,0.066 0.081,0.09c0,0 -0.004,0.003 -0.001,0.017c0.022,0.023 0.04,0.032 0.059,0.041c0,0 -0.004,0.003 -0.001,0.018c0.022,0.023 0.041,0.032 0.059,0.041c0,0 -0.004,0.003 -0,0.018c0.022,0.023 0.041,0.032 0.059,0.042c0,0 -0.004,0.002 -0.003,0.022c0.103,0.13 0.205,0.24 0.308,0.351c0,0 0.016,0.022 0.03,0.042c0.035,0.032 0.056,0.043 0.076,0.055c0,0 -0.004,0.002 -0,0.017c0.022,0.024 0.041,0.033 0.059,0.042c0,0 -0.004,0.002 -0.003,0.022c0.123,0.15 0.245,0.28 0.366,0.41c0,0 0.016,0.022 0.03,0.042c0.035,0.032 0.056,0.043 0.076,0.055c0,0 -0.004,0.002 -0,0.017c0.022,0.024 0.041,0.033 0.059,0.042c0,0 -0.004,0.003 -0,0.017c0.022,0.023 0.04,0.032 0.059,0.042c0,0 -0.004,0.002 -0.003,0.022c0.095,0.108 0.189,0.197 0.283,0.286c0,0 0.005,-0.002 -0.006,0.017c0.022,0.049 0.056,0.078 0.089,0.107c0,0 0.016,0.022 0.03,0.042c0.035,0.032 0.056,0.043 0.076,0.055c0,-0 -0.004,0.002 -0,0.017c0.022,0.024 0.041,0.033 0.059,0.042c0,-0 -0.004,0.003 -0,0.017c0.022,0.023 0.04,0.033 0.059,0.042c0,0 -0.004,0.002 -0.003,0.022c0.095,0.108 0.189,0.197 0.283,0.286c0,0 0.006,-0.005 -0.008,0.014c0.018,0.043 0.049,0.066 0.081,0.09c0,0 -0.004,0.003 -0.001,0.017c0.022,0.023 0.041,0.032 0.059,0.041c0,0 -0.004,0.003 -0.001,0.018c0.022,0.023 0.041,0.032 0.059,0.041c0,0 -0.004,0.003 -0.001,0.018c0.022,0.023 0.041,0.032 0.059,0.041c0,0 -0.004,0.002 -0.003,0.022c0.114,0.128 0.228,0.237 0.342,0.345c0,0 0.007,-0.005 -0.007,0.014c0.018,0.042 0.049,0.066 0.081,0.089c0,0 -0.004,0.003 -0.001,0.017c0.022,0.023 0.041,0.032 0.059,0.041c0,0 -0.004,0.003 -0.001,0.018c0.022,0.023 0.041,0.032 0.059,0.041c0,0 -0.004,0.003 -0,0.018c0.022,0.023 0.041,0.032 0.059,0.041c0,0 -0.004,0.002 -0.003,0.022c0.123,0.15 0.245,0.28 0.366,0.41c0,0 0.016,0.022 0.03,0.042c0.035,0.032 0.056,0.043 0.076,0.055c0,0 -0.004,0.002 -0,0.017c0.022,0.024 0.041,0.033 0.059,0.042c0,0 -0.004,0.003 -0,0.018c0.022,0.023 0.041,0.032 0.059,0.041c0,0 -0.004,0.002 -0.003,0.022c0.12,0.143 0.238,0.266 0.357,0.39c0,0 -0.004,0.003 -0.001,0.017c0.022,0.023 0.041,0.032 0.059,0.041c0,0 -0.004,0.003 -0.001,0.018c0.022,0.023 0.041,0.032 0.059,0.041c0,0 -0.004,0.003 -0.001,0.018c0.022,0.023 0.041,0.032 0.059,0.041c0,0 -0.004,0.003 -0,0.018c0.022,0.023 0.04,0.033 0.059,0.042c0,-0 -0.004,0.002 -0.003,0.023c0.05,0.063 0.129,0.15 0.144,0.14c0.191,-0.125 0.373,-0.264 0.558,-0.399c0,0 0.003,0.004 0.022,0.003c0.162,-0.1 0.305,-0.198 0.448,-0.297c0,0 0.003,0.004 0.022,0.003c0.103,-0.061 0.188,-0.12 0.272,-0.18c0,0 0.003,0.004 0.021,0.003c0.064,-0.041 0.11,-0.081 0.155,-0.121c0,0 0.003,0.004 0.022,0.003c0.103,-0.061 0.188,-0.12 0.272,-0.18c0,0 0.003,0.004 0.021,0.003c0.064,-0.041 0.11,-0.081 0.156,-0.121c0,-0 0.003,0.004 0.022,0.003c0.103,-0.06 0.188,-0.12 0.272,-0.179c0,0 0.003,0.004 0.021,0.003c0.064,-0.041 0.11,-0.081 0.156,-0.121c0,0 0.003,0.004 0.022,0.003c0.103,-0.06 0.188,-0.12 0.272,-0.179c0,0 0.003,0.004 0.022,0.003c0.162,-0.1 0.305,-0.198 0.448,-0.297c0,0 0.003,0.004 0.022,0.003c0.162,-0.1 0.305,-0.198 0.448,-0.297c0,0 0.003,0.004 0.022,0.003c0.162,-0.1 0.305,-0.198 0.448,-0.297c0,0 0.003,0.004 0.022,0.003c0.103,-0.061 0.188,-0.12 0.272,-0.18c0,0 0.003,0.004 0.021,0.003c0.064,-0.041 0.11,-0.081 0.155,-0.121c0,0 0.003,0.004 0.022,0.003c0.103,-0.061 0.188,-0.12 0.272,-0.18c0,0 0.003,0.004 0.021,0.003c0.064,-0.041 0.11,-0.081 0.156,-0.121c0,0 0.003,0.004 0.022,0.003c0.103,-0.06 0.188,-0.12 0.272,-0.179c0,0 0.003,0.004 0.021,0.003c0.064,-0.041 0.11,-0.081 0.156,-0.121c0,0 0.003,0.004 0.022,0.003c0.103,-0.06 0.188,-0.12 0.272,-0.179c0,0 0.003,0.004 0.022,0.003c0.162,-0.1 0.305,-0.198 0.448,-0.297c0,0 0.003,0.004 0.022,0.003c0.162,-0.1 0.305,-0.198 0.448,-0.297c0,0 0.003,0.004 0.022,0.003c0.162,-0.1 0.305,-0.198 0.448,-0.297c0,0 0.003,0.004 0.025,0.003c0.066,-0.065 0.144,-0.126 0.148,-0.192c0.029,-0.453 0.041,-0.906 0.064,-1.36c0.006,-0.122 0.031,-0.245 0.056,-0.365c0.045,-0.216 -0.121,-0.595 -0.296,-0.664c0,0 0.004,-0.003 -0.001,-0.021c-0.062,-0.044 -0.118,-0.07 -0.175,-0.097c0,0 0.004,-0.003 -0.002,-0.021c-0.082,-0.064 -0.158,-0.109 -0.234,-0.155c0,0 0.004,-0.003 -0.001,-0.021c-0.062,-0.044 -0.118,-0.07 -0.175,-0.096c0,0 0.004,-0.003 -0.001,-0.021c-0.062,-0.044 -0.118,-0.07 -0.175,-0.097c0,0 0.003,-0.003 -0.002,-0.021c-0.082,-0.064 -0.157,-0.109 -0.233,-0.155c0,0 0.004,-0.003 -0.001,-0.021c-0.062,-0.044 -0.118,-0.07 -0.175,-0.097c0,0 0.004,-0.003 -0.002,-0.021c-0.082,-0.064 -0.158,-0.109 -0.234,-0.155c0,0 0.004,-0.003 -0.001,-0.021c-0.062,-0.044 -0.118,-0.07 -0.175,-0.096c0,0 0.004,-0.003 -0.002,-0.021c-0.062,-0.044 -0.118,-0.07 -0.174,-0.097c0,0 0.003,-0.003 -0.002,-0.021c-0.082,-0.064 -0.157,-0.109 -0.233,-0.155c0,0 0.004,-0.003 -0.001,-0.021c-0.062,-0.044 -0.118,-0.07 -0.175,-0.097c0,0 0.004,-0.003 -0.002,-0.021c-0.082,-0.064 -0.158,-0.109 -0.234,-0.155c0,0 0.004,-0.003 -0.001,-0.021c-0.062,-0.044 -0.118,-0.07 -0.175,-0.097c0,0 0.004,-0.003 -0.001,-0.02c0.003,-0.081 0.01,-0.145 0.017,-0.209c0,0 -0.004,-0.004 0.013,0.009c0.041,-0.019 0.065,-0.051 0.089,-0.082c0,0 0.003,0.004 0.017,0.001c0.023,-0.022 0.032,-0.04 0.041,-0.059c0,0 0.003,0.004 0.018,0c0.023,-0.022 0.033,-0.04 0.042,-0.059c0,0 0.002,0.004 0.023,0.003c0.126,0.038 0.231,0.076 0.336,0.115c0,0 -0.004,0.004 0.002,0.021c0.081,0.063 0.157,0.109 0.233,0.155c0,0 -0.004,0.004 0.001,0.021c0.081,0.064 0.158,0.109 0.234,0.155c0,0 -0.004,0.003 0.001,0.021c0.061,0.044 0.118,0.07 0.175,0.097c0,0 -0.003,0.003 0.003,0.021c0.039,0.03 0.072,0.041 0.104,0.053c0,0 -0.001,-0.007 -0.008,0.017c0.041,0.045 0.089,0.065 0.136,0.086c0,0 -0.003,0.003 0.002,0.021c0.14,0.103 0.275,0.188 0.41,0.272c0,0 -0.004,0.003 0.001,0.021c0.062,0.044 0.118,0.07 0.175,0.096c0,0 -0.004,0.003 0.001,0.021c0.062,0.044 0.118,0.07 0.175,0.097c0,0 -0.004,0.003 0.002,0.021c0.062,0.044 0.118,0.07 0.175,0.097c0,0 -0.003,0.003 0.002,0.021c0.14,0.103 0.275,0.188 0.41,0.272c0,0 -0.004,0.003 0.001,0.021c0.062,0.044 0.118,0.07 0.175,0.096c0,0 -0.004,0.003 0.001,0.021c0.062,0.044 0.118,0.07 0.175,0.097c0,0 -0.004,0.003 0.002,0.021c0.062,0.044 0.118,0.07 0.175,0.097c0,0 -0.004,0.003 0.002,0.021c0.062,0.044 0.118,0.071 0.174,0.097c0,0 -0.003,0.003 0.002,0.021c0.082,0.064 0.158,0.109 0.233,0.155c0,0 -0.004,0.003 0.001,0.021c0.062,0.044 0.118,0.07 0.175,0.096c0,0 -0.004,0.003 0.001,0.021c0.062,0.044 0.118,0.07 0.175,0.097c0,0 -0.004,0.003 0.002,0.021c0.062,0.044 0.118,0.07 0.174,0.097c0,0 -0.003,0.003 0.002,0.021c0.082,0.064 0.158,0.109 0.233,0.155c0,0 -0.004,0.003 0.001,0.021c0.062,0.044 0.118,0.07 0.175,0.096c0,0 -0.004,0.003 0.001,0.021c0.062,0.044 0.118,0.07 0.175,0.097c0,0 -0.004,0.003 0.002,0.021c0.062,0.044 0.118,0.07 0.174,0.097c0,-0 -0.003,0.003 0.002,0.021c0.082,0.064 0.158,0.109 0.233,0.155c0,0 -0.004,0.003 0.001,0.021c0.081,0.064 0.157,0.11 0.234,0.155c0,0 -0.003,0.004 0,0.018c0.022,0.023 0.04,0.032 0.059,0.041c0,0 -0.004,0.003 -0,0.017c0.022,0.023 0.041,0.032 0.059,0.041c0,0 -0.004,0.003 -0,0.018c0.022,0.023 0.041,0.032 0.059,0.041c0,0 -0.004,0.003 -0.001,0.018c0.022,0.023 0.041,0.032 0.059,0.041c0,0 -0.004,0.003 -0.001,0.018c0.022,0.023 0.041,0.032 0.059,0.041c0,0 -0.003,0.004 0.001,0.02c0.025,0.03 0.046,0.044 0.067,0.058c0.022,0.024 0.044,0.048 0.086,0.1c0.056,0.042 0.092,0.057 0.128,0.071c0,0 0.004,-0.007 -0.005,0.015c0.015,0.029 0.038,0.036 0.062,0.042c0,0 -0.003,-0.003 -0.008,0.02c0.091,0.184 0.187,0.346 0.285,0.506c0.132,0.215 0.019,0.356 -0.142,0.485c-0.063,0.051 -0.122,0.106 -0.183,0.159c0,0 -0.003,-0.004 -0.026,-0.002c-0.233,0.02 -0.443,0.06 -0.651,0.055c-0.81,-0.022 -1.554,0.228 -2.283,0.541c-0.081,0.035 -0.142,0.113 -0.213,0.171c0,0 -0.003,-0.004 -0.022,-0.003c-0.103,0.06 -0.188,0.12 -0.272,0.18c0,0 -0.003,-0.004 -0.022,-0.003c-0.103,0.06 -0.188,0.12 -0.272,0.179c0,-0 -0.003,-0.004 -0.022,-0.003c-0.103,0.06 -0.188,0.12 -0.272,0.179c0,0 -0.003,-0.004 -0.022,-0.003c-0.103,0.06 -0.188,0.12 -0.272,0.179c0,0 -0.003,-0.004 -0.022,-0.003c-0.103,0.061 -0.188,0.12 -0.272,0.18c0,0 -0.003,-0.004 -0.021,-0.004c-0.064,0.041 -0.11,0.081 -0.155,0.121c0,0 -0.003,-0.004 -0.022,-0.004c-0.202,0.139 -0.384,0.277 -0.566,0.414c0,0 -0.002,-0.004 -0.021,-0.003c-0.064,0.041 -0.11,0.081 -0.155,0.121c0,0 -0.003,-0.004 -0.021,-0.003c-0.064,0.041 -0.11,0.081 -0.155,0.121c-0,0 -0.003,-0.004 -0.021,-0.003c-0.064,0.041 -0.11,0.081 -0.155,0.121c0,-0 -0.003,-0.004 -0.021,-0.003c-0.064,0.041 -0.11,0.081 -0.155,0.121c0,0 -0.003,-0.004 -0.021,-0.004c-0.064,0.041 -0.11,0.081 -0.155,0.121c0,0 -0.003,-0.004 -0.022,-0.004c-0.143,0.099 -0.266,0.198 -0.39,0.297c0,0 -0.002,-0.004 -0.022,-0.003c-0.314,0.143 -0.07,0.205 0.023,0.29c0,0 -0.004,0.002 -0.003,0.021c0.061,0.084 0.12,0.149 0.18,0.214c0,0 -0.004,0.003 -0.001,0.017c0.022,0.023 0.04,0.032 0.059,0.042c0,0 -0.004,0.002 -0.003,0.021c0.061,0.084 0.12,0.149 0.18,0.214c0,0 -0.004,0.002 -0.004,0.021c0.061,0.084 0.12,0.149 0.18,0.214c0,0 -0.004,0.003 -0.001,0.017c0.022,0.023 0.04,0.032 0.059,0.041c0,0 -0.004,0.003 -0.003,0.021c0.061,0.084 0.12,0.149 0.18,0.214c0,0 -0.005,0.003 -0.004,0.022c0.056,0.069 0.111,0.118 0.166,0.168c0,0 0.006,-0.004 -0.008,0.014c0.018,0.042 0.049,0.066 0.081,0.09c0,0 -0.004,0.002 -0.004,0.022c0.041,0.045 0.081,0.07 0.12,0.095c0,0 -0.003,0.004 0,0.018c0.022,0.023 0.04,0.032 0.059,0.041c0,0 -0.004,0.003 -0,0.017c0.022,0.023 0.041,0.032 0.059,0.041c0,0 -0.004,0.003 -0,0.017c0.022,0.023 0.041,0.032 0.059,0.041c0,0 -0.004,0.003 -0,0.018c0.022,0.023 0.041,0.032 0.059,0.041c0,0 -0.004,0.003 -0.001,0.018c0.022,0.023 0.041,0.032 0.059,0.041c0,0 -0.004,0.003 -0.001,0.018c0.022,0.023 0.041,0.032 0.059,0.041c0,0 -0.003,0.004 0.001,0.02c0.025,0.03 0.046,0.044 0.067,0.058c0,-0 0.015,0.023 0.032,0.046c0.052,0.038 0.089,0.052 0.125,0.067c0,0 0.003,-0.007 -0.005,0.015c0.015,0.029 0.039,0.036 0.062,0.042c0,0 -0.003,-0.004 -0.009,0.019c0.081,0.083 0.169,0.143 0.256,0.204c0,0 -0.004,0.003 0.002,0.021c0.062,0.044 0.118,0.07 0.175,0.097c0,0 -0.004,0.003 0.002,0.021c0.101,0.064 0.197,0.109 0.292,0.155c0,0 -0.004,0.003 0.002,0.021c0.101,0.064 0.196,0.109 0.292,0.155c0,0 -0.004,0.003 0.002,0.021c0.062,0.044 0.118,0.07 0.175,0.097c0,0 -0.004,0.003 0.002,0.022c0.101,0.064 0.197,0.109 0.292,0.155c0,0 -0.004,0.003 0.002,0.022c0.16,0.103 0.314,0.188 0.468,0.272c0,0 -0.003,0.003 0.003,0.023c0.036,0.044 0.061,0.081 0.095,0.09c0.764,0.219 1.529,0.43 2.292,0.653c0.229,0.067 0.4,0.099 0.378,-0.236c-0.006,-0.094 0.058,-0.193 0.098,-0.313c0.137,0.023 0.268,0.061 0.4,0.062c0.186,0.001 0.372,-0.026 0.559,-0.04c0,0 0.026,0.001 0.053,0.025c0.824,0.014 1.62,0.087 2.416,-0.072c0.32,-0.064 0.485,-0.143 0.535,-0.488c0.052,-0.364 0.185,-0.717 0.287,-1.074c0.234,-0.822 0.463,-1.646 0.713,-2.463c0.051,-0.167 0.02,-0.212 -0.135,-0.216c0,0 0.003,-0.004 0,-0.018c-0.022,-0.023 -0.04,-0.032 -0.059,-0.041c0,0 0.004,-0.003 -0.001,-0.021c-0.081,-0.064 -0.158,-0.109 -0.234,-0.155c0,0 0.004,-0.004 -0.001,-0.021c-0.081,-0.063 -0.157,-0.109 -0.233,-0.155c0,0 0.004,-0.004 -0.002,-0.021c-0.081,-0.064 -0.157,-0.109 -0.233,-0.155c0,0 0.003,-0.004 -0,-0.018c-0.022,-0.023 -0.04,-0.032 -0.059,-0.041c0,-0 0.004,-0.003 -0.001,-0.021c-0.081,-0.064 -0.158,-0.109 -0.234,-0.155c0,0 0.004,-0.004 -0.002,-0.021c-0.081,-0.063 -0.157,-0.109 -0.233,-0.155c0,0 0.003,-0.004 -0,-0.018c-0.022,-0.023 -0.041,-0.032 -0.059,-0.041c0,0 0.004,-0.002 0.001,-0.019c-0.022,-0.046 -0.041,-0.076 -0.06,-0.106c0,0 0.003,0.003 0.018,-0c0.024,-0.022 0.033,-0.04 0.042,-0.058c0,0 0.002,0.004 0.022,0.003c0.157,-0.112 0.295,-0.222 0.413,-0.318c0.098,0.049 0.187,0.094 0.277,0.139c0,0 -0.003,0.004 0,0.018c0.022,0.023 0.04,0.032 0.059,0.041c0,0 -0.004,0.003 -0,0.018c0.022,0.023 0.041,0.032 0.059,0.041c0,0 -0.004,0.003 0.002,0.021c0.039,0.029 0.073,0.04 0.106,0.051c0,0 0,-0.007 -0.009,0.016c0.098,0.103 0.205,0.184 0.312,0.264c0,0 -0.003,0.004 -0,0.018c0.022,0.023 0.04,0.032 0.059,0.041c0,0 -0.004,0.003 -0.001,0.018c0.022,0.023 0.041,0.032 0.06,0.041c0,0 -0.004,0.003 0.001,0.021c0.062,0.044 0.118,0.071 0.175,0.097c0,0 -0.003,0.004 0,0.018c0.022,0.023 0.041,0.032 0.059,0.041c0,0 -0.004,0.003 0.001,0.02c0.062,0.044 0.118,0.071 0.175,0.097c0,0 -0.004,0.004 0.002,0.021c0.081,0.063 0.157,0.109 0.233,0.155c0,0 -0.003,0.004 0.003,0.022c0.051,0.122 0.156,0.242 0.133,0.327c-0.269,0.979 -0.545,1.956 -0.845,2.926c-0.181,0.587 -0.391,1.166 -0.229,1.789c0.042,0.163 0.154,0.308 0.233,0.462c0,0 -0.004,0.002 -0.003,0.022c0.061,0.104 0.12,0.188 0.179,0.272c0,0 -0.004,0.003 -0.003,0.022c0.06,0.103 0.12,0.188 0.179,0.272c0,0 -0.004,0.003 -0.003,0.022c0.06,0.103 0.12,0.188 0.179,0.272c0,0 -0.004,0.003 -0.003,0.022c0.06,0.103 0.12,0.188 0.179,0.272c0,0 -0.004,0.003 -0.003,0.023c0.04,0.105 0.079,0.189 0.122,0.28c0.148,-0.048 0.272,-0.09 0.397,-0.127c1.7,-0.507 3.397,-1.027 5.104,-1.511c0.558,-0.158 1.11,-0.449 1.725,-0.254c0,0 -0.004,0.004 -0.002,0.023c0.08,0.143 0.159,0.266 0.238,0.389c0,0 -0.004,0.003 -0.003,0.022c0.036,0.049 0.072,0.079 0.107,0.108c0,0 0.006,-0.004 -0.008,0.014c0.018,0.042 0.049,0.066 0.081,0.091c0,0 -0.005,0.003 -0.004,0.022c0.08,0.123 0.159,0.227 0.239,0.331c0,0 -0.004,0.003 -0.003,0.024c0.099,0.305 0.338,0.193 0.531,0.21c0,0 -0.004,0.004 -0,0.018c0.022,0.023 0.041,0.032 0.059,0.041c0,0 -0.004,0.003 -0.001,0.018c0.022,0.023 0.041,0.032 0.059,0.041c0,0 -0.004,0.003 -0.001,0.018c0.022,0.023 0.041,0.032 0.059,0.041c0,0 -0.004,0.003 -0.003,0.025c0.034,0.157 0.134,0.327 0.086,0.421c-0.162,0.315 -0.505,0.394 -0.816,0.468c-0.094,0.023 -0.26,-0.099 -0.338,-0.198c-0.172,-0.218 -0.339,-0.176 -0.552,-0.077c-0.371,0.173 -0.744,0.353 -1.134,0.473c-1.208,0.371 -2.425,0.713 -3.638,1.07c-1.522,0.448 -3.045,0.896 -4.565,1.35c-1.029,0.307 -2.054,0.629 -3.084,0.935c-1.467,0.436 -2.936,0.863 -4.404,1.293c-1.14,0.334 -2.279,0.674 -3.422,0.999c-1.545,0.439 -3.098,0.85 -4.639,1.304c-1.387,0.408 -2.763,0.856 -4.142,1.29c-0.055,0.017 -0.144,0.096 -0.137,0.113c0.084,0.201 0.011,0.481 0.287,0.586c0,0 -0.004,0.003 -0.003,0.026c0.08,0.435 0.16,0.848 0.24,1.267c-0.086,0.07 -0.192,0.156 -0.298,0.242c0,0 -0.003,-0.004 -0.022,-0.003c-0.103,0.06 -0.188,0.12 -0.272,0.179c0,0 -0.003,-0.004 -0.022,-0.003c-0.103,0.06 -0.188,0.12 -0.272,0.179c0,0 -0.003,-0.004 -0.022,-0.003c-0.143,0.08 -0.266,0.159 -0.389,0.238c0,0 -0.003,-0.004 -0.024,-0.003c-0.21,0.059 -0.395,0.137 -0.588,0.171c-0.459,0.08 -0.932,0.093 -1.345,0.356c-0.133,0.085 -0.294,0.145 -0.449,0.171c-0.433,0.073 -0.869,0.126 -1.305,0.176c-0.066,0.008 -0.139,-0.041 -0.207,-0.067c-0.08,-0.031 -0.157,-0.094 -0.237,-0.096c-0.41,-0.01 -0.821,0.003 -1.232,-0.006c-0.612,-0.013 -0.821,-0.336 -0.529,-0.854c0.115,-0.203 0.15,-0.413 0.084,-0.594c-0.132,-0.359 -0.027,-0.659 0.126,-0.966c0,0 0.002,0.005 0.021,0.004c0.084,-0.061 0.149,-0.12 0.214,-0.18c0,0 0.003,0.004 0.021,0.003c0.084,-0.061 0.149,-0.12 0.214,-0.18c0,0 0.002,0.004 0.021,0.003c0.084,-0.06 0.149,-0.12 0.214,-0.18c0,0 0.002,0.004 0.022,0.003c0.178,-0.22 0.323,-0.45 0.497,-0.656c0.398,-0.473 0.135,-0.804 -0.309,-0.935c-1.62,-0.478 -3.233,-0.975 -4.849,-1.467c-0.684,-0.208 -1.368,-0.421 -2.108,-0.649c0.016,0.263 0.029,0.484 0.042,0.705c0,0 0.002,-0.004 -0.021,-0.01c-0.044,0.041 -0.065,0.089 -0.086,0.137c0,0 -0.003,-0.003 -0.021,0.002c-0.044,0.062 -0.07,0.118 -0.097,0.174c0,0 -0.003,-0.004 -0.021,0.002c-0.044,0.062 -0.07,0.118 -0.097,0.174c0,0 -0.003,-0.004 -0.021,0.002c-0.044,0.062 -0.07,0.118 -0.097,0.174c0,0 -0.004,-0.003 -0.023,0.003c-0.065,0.097 -0.131,0.183 -0.152,0.279c-0.072,0.331 -0.128,0.665 -0.191,0.999c0,0 0.001,0.004 -0.022,-0.003c-0.062,-0 -0.101,0.014 -0.138,0.011c-0.227,-0.019 -0.421,-0.002 -0.455,0.292c-0.005,0.047 -0.098,0.095 -0.16,0.122c-0.252,0.114 -0.511,0.213 -0.758,0.336c-0.07,0.035 -0.148,0.13 -0.154,0.203c-0.052,0.594 -0.15,0.671 -0.792,0.521c-0.447,-0.104 -0.88,-0.272 -1.337,-0.417c-0.056,0.285 -0.276,0.283 -0.436,0.222c-0.149,-0.056 -0.274,-0.21 -0.376,-0.346c-0.12,-0.159 -0.203,-0.345 -0.303,-0.52c0,0 0.004,-0.003 0.003,-0.021c-0.041,-0.064 -0.081,-0.11 -0.121,-0.155c0,0 0.004,-0.003 0.003,-0.027c0.003,-0.142 0.007,-0.261 0.01,-0.379c0,0 -0.01,-0.006 0.018,0.001c0.121,-0.233 -0.006,-0.541 -0.246,-0.675c-0.103,-0.058 -0.2,-0.133 -0.27,0.035c0,0 -0.02,0.015 -0.043,0.03c-0.037,0.052 -0.051,0.088 -0.066,0.124c-0,0 0.005,0.004 -0.019,-0.005c-0.254,-0.007 -0.485,-0.014 -0.714,0c-0.068,0.004 -0.176,0.051 -0.19,0.1c-0.041,0.142 -0.044,0.295 -0.063,0.443c0,0 -0.003,-0.003 -0.021,0.002c-0.103,0.14 -0.188,0.275 -0.273,0.409c0,0 -0.004,-0.003 -0.018,0c-0.023,0.022 -0.032,0.04 -0.041,0.059c0,0 -0.003,-0.004 -0.021,0.002c-0.029,0.039 -0.04,0.073 -0.051,0.106c0,0 0.007,0.001 -0.017,-0.008c-0.1,0.129 -0.191,0.262 -0.248,0.408c-0.046,0.117 -0.051,0.249 -0.075,0.374c0,0 -0.002,-0.004 -0.021,-0.003c-0.064,0.041 -0.11,0.081 -0.155,0.121c-0,0 -0.003,-0.004 -0.022,-0.004c-0.143,0.1 -0.266,0.199 -0.389,0.297c0,0 -0.003,-0.004 -0.017,-0.001c-0.023,0.022 -0.032,0.041 -0.041,0.059c0,0 -0.003,-0.004 -0.018,-0.001c-0.023,0.022 -0.032,0.041 -0.041,0.059c0,0 -0.003,-0.004 -0.018,-0c-0.023,0.022 -0.032,0.041 -0.041,0.059c0,0 -0.002,-0.004 -0.021,-0.003c-0.106,0.061 -0.193,0.12 -0.28,0.18c0,0 0.004,-0.002 0.002,-0.024c-0.172,-0.389 -0.34,-0.757 -0.515,-1.122c-0.143,-0.295 -0.156,-0.294 -0.362,-0.029c0,0 -0.003,-0.004 -0.022,-0.004c-0.184,0.183 -0.349,0.028 -0.513,0.003c0,0 0.004,-0.003 -0.002,-0.021c-0.062,-0.044 -0.118,-0.07 -0.175,-0.096c0,0 0.003,-0.004 -0.004,-0.025c-0.471,-0.076 -0.934,-0.133 -1.398,-0.183c-0.017,-0.002 -0.04,0.059 -0.06,0.091c0,0 -0.002,-0.004 -0.02,0.001c-0.064,0.081 -0.11,0.158 -0.155,0.234c0,0 -0.004,-0.003 -0.018,-0c-0.023,0.022 -0.032,0.041 -0.041,0.059c0,0 -0.003,-0.004 -0.022,0.002c-0.123,0.199 -0.227,0.393 -0.331,0.586c0,0 -0.003,-0.004 -0.021,-0.004c-0.084,0.06 -0.149,0.12 -0.214,0.18c0,0 -0.002,-0.004 -0.021,-0.003c-0.064,0.041 -0.11,0.081 -0.155,0.121c0,0 -0.003,-0.004 -0.021,-0.003c-0.064,0.041 -0.11,0.081 -0.155,0.121c0,0 -0.003,-0.004 -0.021,-0.003c-0.064,0.041 -0.11,0.081 -0.155,0.121c0,0 -0.003,-0.004 -0.024,-0.004c-0.263,0.06 -0.505,0.119 -0.747,0.178c0,0 0.004,-0.003 0.003,-0.024c0.033,-0.109 0.062,-0.199 0.101,-0.285c0.14,-0.311 0.283,-0.621 0.426,-0.932c0,0 0.003,0.003 0.022,-0.003c0.111,-0.311 0.208,-0.613 0.293,-0.919c0.061,-0.219 -0.074,-0.438 -0.302,-0.509c-0.246,-0.078 -0.503,0.036 -0.595,0.263c0,0 -0.004,-0.003 -0.024,0.005c-0.079,0.233 -0.137,0.458 -0.193,0.672c-0.209,0.08 -0.418,0.167 -0.631,0.242c-0.369,0.13 -0.464,0.052 -0.514,-0.358c-0.014,-0.117 -0.107,-0.224 -0.164,-0.335c0,0 0,0.006 0.011,-0.017c-0.078,-0.085 -0.166,-0.146 -0.255,-0.208c0,0 0.003,-0.004 -0.003,-0.023c-0.499,-0.313 -0.579,-0.294 -0.694,0.141c0,0 -0.004,-0.003 -0.018,-0c-0.023,0.022 -0.032,0.041 -0.041,0.059c0,0 -0.003,-0.004 -0.021,0.001c-0.11,0.046 -0.245,0.148 -0.287,0.118c-0.207,-0.146 -0.529,-0.179 -0.574,-0.498c-0.015,-0.104 -0.005,-0.243 0.054,-0.321c0.194,-0.255 0.149,-0.415 -0.179,-0.534c0,0 0.004,-0.003 -0.001,-0.021c-0.062,-0.044 -0.118,-0.07 -0.175,-0.096c0,0 0.004,-0.004 -0.002,-0.022c-0.158,-0.108 -0.311,-0.197 -0.515,-0.316c-0.087,0.186 -0.163,0.35 -0.24,0.515c0,0 -0.003,-0.004 -0.022,0.002c-0.424,0.156 -0.83,0.308 -1.237,0.454c-0.025,0.009 -0.067,-0.029 -0.1,-0.046c0,0 0.004,-0.002 0.003,-0.025c-0.039,-0.409 -0.066,-0.797 -0.122,-1.18c-0.016,-0.113 -0.114,-0.215 -0.174,-0.322c0,0 0.003,-0.004 -0.004,-0.024c-0.042,-0.171 -0.088,-0.321 -0.109,-0.475c-0.027,-0.196 -0.057,-0.314 -0.319,-0.239c-0.214,0.061 -0.455,0.026 -0.685,0.033c0,0 0.004,-0.004 -0.001,-0.021c-0.062,-0.044 -0.118,-0.07 -0.175,-0.097c0,0 0.003,-0.004 -0.003,-0.022c-0.06,-0.125 -0.108,-0.235 -0.17,-0.336c-0.177,-0.287 -0.113,-0.749 -0.591,-0.818c0,0 0.004,-0.003 -0.002,-0.021c-0.062,-0.044 -0.118,-0.07 -0.175,-0.097c0,0 0.004,-0.003 -0.002,-0.022c-0.121,-0.083 -0.236,-0.149 -0.351,-0.214c0,0 0.003,-0.004 -0,-0.018c-0.022,-0.023 -0.04,-0.032 -0.059,-0.041c0,0 0.004,-0.003 0,-0.018c-0.022,-0.023 -0.041,-0.032 -0.059,-0.041c0,0 0.004,-0.003 0.001,-0.018c-0.022,-0.023 -0.041,-0.032 -0.06,-0.041c0,0 0.004,-0.003 -0.002,-0.021c-0.039,-0.03 -0.072,-0.041 -0.105,-0.053c0,0 -0,0.008 0.008,-0.016c-0.175,-0.134 -0.356,-0.25 -0.545,-0.349c-0.035,-0.018 -0.142,0.019 -0.154,0.052c-0.093,0.269 -0.236,0.542 -0.24,0.815c-0.008,0.508 -0.09,0.984 -0.273,1.458c-0.073,0.189 -0.141,0.451 0.085,0.635c0,0 -0.004,0.002 0.003,0.022c0.039,0.152 0.086,0.282 0.097,0.415c0.009,0.109 -0.026,0.222 -0.042,0.333c0,0 -0.003,-0.003 -0.018,0c-0.023,0.022 -0.032,0.041 -0.041,0.059c0,0 -0.003,-0.004 -0.021,0.001c-0.044,0.062 -0.071,0.118 -0.097,0.175c0,0 -0.004,-0.003 -0.022,0.004c-0.148,0.18 -0.121,0.312 0.081,0.401c0,0 -0.004,0.002 -0.003,0.025c0.135,0.496 -0.178,0.872 -0.29,1.29c-0.018,0.067 -0.172,0.098 -0.294,0.162c-0.036,0.344 0.103,0.763 -0.189,1.104c0,0 0.006,0.004 -0.014,-0.01c-0.044,0.018 -0.068,0.049 -0.092,0.081c0,0 -0.003,-0.004 -0.017,-0.001c-0.023,0.022 -0.032,0.04 -0.041,0.059c0,0 -0.003,-0.004 -0.028,-0.003c-0.166,0.001 -0.307,0.002 -0.449,0.003c0,0 0.003,-0.003 -0,-0.018c-0.022,-0.023 -0.041,-0.032 -0.059,-0.041c0,0 0.004,-0.003 -0.001,-0.02c-0.062,-0.044 -0.118,-0.07 -0.175,-0.096c0,0 0.003,-0.004 0,-0.018c-0.022,-0.023 -0.041,-0.032 -0.059,-0.041c0,0 0.004,-0.003 0.003,-0.022c-0.076,-0.089 -0.15,-0.158 -0.225,-0.227c0,0 -0.004,0.001 0.003,-0.02c-0.02,-0.14 -0.021,-0.276 -0.081,-0.374c-0.145,-0.237 -0.203,-0.552 -0.524,-0.649c0,0 0.003,-0.004 -0,-0.018c-0.022,-0.023 -0.04,-0.032 -0.059,-0.041c0,0 0.004,-0.003 0,-0.018c-0.022,-0.023 -0.041,-0.032 -0.059,-0.041c0,0 0.004,-0.003 0,-0.018c-0.022,-0.023 -0.041,-0.032 -0.059,-0.041c0,0 0.004,-0.003 0.001,-0.018c-0.022,-0.023 -0.041,-0.032 -0.059,-0.041c0,0 0.004,-0.003 -0.001,-0.021c-0.038,-0.03 -0.071,-0.042 -0.104,-0.054c0,0 -0.008,0.005 -0.002,-0.021c-0.137,-0.019 -0.384,-0.055 -0.407,0.001c-0.142,0.34 -0.309,0.699 -0.32,1.057c-0.012,0.359 0.052,0.711 -0.157,1.035c0,0 -0.004,-0.003 -0.018,0c-0.023,0.022 -0.032,0.04 -0.041,0.059c0,0 -0.003,-0.004 -0.018,-0c-0.023,0.022 -0.032,0.041 -0.041,0.059c-0,0 -0.004,-0.003 -0.02,0.001c-0.03,0.025 -0.044,0.046 -0.057,0.067c0,0 -0.024,0.016 -0.049,0.033c-0.086,0.031 -0.152,0.067 -0.206,0.055c-0.204,-0.047 -0.405,-0.11 -0.607,-0.167c0,0 -0.002,0.006 0.007,-0.017c-0.015,-0.03 -0.039,-0.037 -0.062,-0.044c0,0 -0.006,0.009 0.003,-0.015c-0.015,-0.031 -0.038,-0.038 -0.061,-0.044c0,0 -0.007,0.009 0.002,-0.015c-0.015,-0.031 -0.038,-0.037 -0.061,-0.043c0,0 -0.004,0.007 0.007,-0.016c-0.022,-0.052 -0.055,-0.08 -0.088,-0.109c-0.041,-0.042 -0.082,-0.085 -0.143,-0.154c-0.04,-0.038 -0.061,-0.05 -0.082,-0.061c0,0 0.004,-0.002 0,-0.017c-0.022,-0.024 -0.041,-0.033 -0.06,-0.041c0,0 0.004,-0.003 0.001,-0.018c-0.022,-0.023 -0.041,-0.032 -0.059,-0.041c0,0 0.003,-0.004 -0.001,-0.02c-0.025,-0.03 -0.046,-0.044 -0.067,-0.057c0,0 -0.016,-0.023 -0.032,-0.047c-0.076,-0.079 -0.137,-0.134 -0.147,-0.143c-0.206,0.222 -0.391,0.421 -0.576,0.62c0,0 0.003,-0.004 0,-0.018c-0.022,-0.023 -0.04,-0.032 -0.059,-0.041c-0,0 0.004,-0.003 0,-0.018c-0.022,-0.023 -0.041,-0.032 -0.059,-0.041c0,0 0.004,-0.003 0,-0.018c-0.022,-0.023 -0.04,-0.032 -0.059,-0.041c0,-0 0.004,-0.002 0.003,-0.022c-0.129,-0.17 -0.257,-0.321 -0.385,-0.472c-0.036,0 -0.072,0 -0.108,0.001c-0.05,0.159 -0.095,0.32 -0.153,0.476c-0.101,0.274 -0.188,0.559 -0.334,0.808c-0.033,0.056 -0.283,-0.015 -0.433,-0.027c0,0 0.004,-0.003 -0.002,-0.021c-0.124,-0.004 -0.259,-0.019 -0.354,0.036c-0.045,0.026 -0.039,0.188 -0.017,0.279c0.086,0.357 0.04,0.445 -0.273,0.471c0,0 0.004,-0.004 0.003,-0.023c-0.1,-0.103 -0.198,-0.187 -0.297,-0.271c0,0 0.003,-0.004 -0,-0.018c-0.022,-0.023 -0.04,-0.032 -0.059,-0.041c0,0 0.004,-0.003 0,-0.018c-0.022,-0.023 -0.041,-0.032 -0.059,-0.041c0,0 0.004,-0.003 -0.001,-0.021c-0.081,-0.064 -0.157,-0.11 -0.234,-0.156c0,0 0.003,-0.004 -0,-0.018c-0.022,-0.023 -0.04,-0.032 -0.059,-0.041c0,0 0.004,-0.004 0.003,-0.029c-0.001,-0.259 0.012,-0.494 -0.007,-0.726c-0.012,-0.148 -0.099,-0.292 -0.104,-0.439c-0.015,-0.448 0.012,-0.898 -0.018,-1.344c-0.009,-0.138 -0.148,-0.268 -0.227,-0.401c0,0 0.004,-0.003 0.003,-0.024c0.001,-0.128 -0.028,-0.249 0.011,-0.34c0.118,-0.274 -0.001,-0.395 -0.248,-0.458c0,0 0.003,-0.004 -0.003,-0.022c-0.125,-0.089 -0.244,-0.16 -0.407,-0.257c-0.042,0.262 -0.077,0.476 -0.112,0.69c0,0 -0.004,-0.003 -0.018,0c-0.023,0.022 -0.032,0.041 -0.041,0.059c0,0 -0.003,-0.004 -0.018,-0c-0.023,0.022 -0.032,0.041 -0.041,0.059c0,0 -0.003,-0.004 -0.024,-0.003c-0.192,0.099 -0.295,0.047 -0.376,-0.131c-0.064,-0.141 -0.169,-0.264 -0.255,-0.396c0,0 0.004,-0.003 -0.002,-0.022c-0.341,-0.124 -0.673,-0.238 -1.012,-0.326c-0.073,-0.019 -0.213,0.03 -0.25,0.092c-0.126,0.209 -0.22,0.437 -0.327,0.658c0,0 0.003,0.005 -0.016,-0.009c-0.082,0.037 -0.145,0.087 -0.208,0.137c0,0 -0.003,-0.004 -0.024,-0.003c-0.123,0.048 -0.225,0.094 -0.33,0.142c0,0.059 0,0.108 -0,0.156c-0.002,0.421 0.003,0.365 -0.425,0.324c-0.42,-0.041 -0.607,-0.26 -0.753,-0.598c-0.026,-0.061 -0.118,-0.094 -0.179,-0.139c0,0 0.004,-0.004 -0.001,-0.021c-0.081,-0.083 -0.158,-0.149 -0.235,-0.215c0,0 0.004,-0.003 0.001,-0.018c-0.022,-0.023 -0.04,-0.032 -0.059,-0.041c0,0 0.004,-0.003 0,-0.018c-0.022,-0.023 -0.04,-0.032 -0.059,-0.042c0,0 0.004,-0.002 0.003,-0.022c-0.148,-0.124 -0.283,-0.258 -0.446,-0.326c-0.277,-0.116 -0.573,-0.188 -0.859,-0.282c-0.116,-0.039 -0.229,-0.088 -0.344,-0.133c0,0 0.004,-0.003 -0.002,-0.021c-0.14,-0.182 -0.275,-0.345 -0.41,-0.509c0,0 0.004,-0.003 0.003,-0.022c-0.1,-0.162 -0.199,-0.305 -0.298,-0.447c0,0 0.004,-0.003 -0.001,-0.021c-0.101,-0.064 -0.196,-0.109 -0.291,-0.155c0,0 0.004,-0.003 -0.002,-0.021c-0.101,-0.064 -0.196,-0.109 -0.292,-0.155c0,0 0.003,-0.003 -0.002,-0.021c-0.081,-0.063 -0.157,-0.109 -0.233,-0.155c0,0 0.004,-0.004 -0.002,-0.021c-0.062,-0.044 -0.118,-0.07 -0.175,-0.097c0,0 0.004,-0.003 -0.002,-0.022c-0.179,-0.103 -0.353,-0.187 -0.527,-0.272c0,0 0.003,-0.004 0,-0.018c-0.022,-0.023 -0.04,-0.032 -0.059,-0.041c0,0 0.004,-0.003 0,-0.018c-0.022,-0.023 -0.04,-0.032 -0.059,-0.041c0,0 0.004,-0.003 0.003,-0.024c-0.061,-0.143 -0.12,-0.266 -0.18,-0.388c0,0 0.004,-0.002 -0.001,-0.02c-0.081,-0.064 -0.157,-0.11 -0.234,-0.155c0,0 0.003,-0.004 -0,-0.018c-0.022,-0.023 -0.04,-0.032 -0.059,-0.041c0,0 0.004,-0.003 -0.001,-0.021c-0.081,-0.064 -0.158,-0.11 -0.234,-0.155c0,-0 0.003,-0.004 0,-0.018c-0.022,-0.023 -0.041,-0.032 -0.059,-0.041c-0,0 0.004,-0.003 -0.001,-0.021c-0.081,-0.064 -0.158,-0.11 -0.234,-0.155c0,0 0.003,-0.004 -0.003,-0.023c-0.107,-0.085 -0.201,-0.185 -0.311,-0.21c-0.357,-0.082 -0.719,-0.142 -1.081,-0.198c-0.057,-0.009 -0.123,0.05 -0.186,0.078c0,0 -0.003,-0.004 -0.025,-0.003c-0.066,0.095 -0.135,0.186 -0.147,0.284c-0.033,0.277 -0.043,0.556 -0.062,0.835c0,0 -0.004,-0.003 -0.018,0c-0.023,0.022 -0.032,0.041 -0.041,0.059c0,0 -0.003,-0.004 -0.018,-0c-0.023,0.022 -0.032,0.041 -0.041,0.059c-0,0 -0.004,-0.003 -0.02,0.001c-0.03,0.025 -0.044,0.046 -0.057,0.067c-0.01,0.003 -0.018,0.008 -0.049,0.03c-0.283,-0.083 -0.533,-0.207 -0.799,-0.267c-0.256,-0.058 -0.317,-0.198 -0.32,-0.429c-0.001,-0.086 -0.05,-0.225 -0.111,-0.247c-0.173,-0.062 -0.269,-0.154 -0.303,-0.336c-0.009,-0.046 -0.111,-0.075 -0.17,-0.112c0,-0 0.003,-0.004 -0.004,-0.023c-0.04,-0.124 -0.13,-0.251 -0.098,-0.329c0.122,-0.299 -0.043,-0.447 -0.252,-0.589c0,0 0.004,-0.003 0.001,-0.017c-0.022,-0.023 -0.04,-0.032 -0.059,-0.041c0,0 0.004,-0.003 0.003,-0.022c-0.076,-0.089 -0.15,-0.158 -0.225,-0.226c-0,0 -0.006,0.004 0.008,-0.014c-0.018,-0.042 -0.049,-0.066 -0.081,-0.09c-0,0 0.004,-0.003 0.001,-0.017c-0.022,-0.023 -0.04,-0.032 -0.059,-0.041c0,0 0.004,-0.003 0.003,-0.022c-0.1,-0.123 -0.199,-0.227 -0.298,-0.331c-0,0 0.005,-0.003 0.004,-0.024c0.386,-0.772 0.396,-1.578 0.349,-2.392c0,0 0.003,0.004 0.021,-0.001c0.044,-0.062 0.071,-0.118 0.097,-0.175c-0,0 0.004,0.003 0.022,-0.003c0.337,-0.337 0.282,-0.519 -0.243,-0.715c0.053,-0.207 0.108,-0.421 0.163,-0.635c0,0 0.003,0.004 0.017,0.001c0.023,-0.022 0.033,-0.041 0.042,-0.059c-0,0 0.003,0.004 0.021,0.003c0.084,-0.061 0.149,-0.12 0.214,-0.18c0,0 0.003,0.004 0.018,0.001c0.023,-0.022 0.032,-0.04 0.041,-0.059c0,0 0.003,0.004 0.021,-0.001c0.092,-0.12 0.165,-0.234 0.259,-0.381c-0.439,0.085 -0.598,-0.141 -0.522,-0.532c0.091,-0.467 0.345,-0.839 0.597,-1.213c-0.069,-0.079 -0.125,-0.144 -0.161,-0.186c0.102,-0.28 0.194,-0.535 0.287,-0.79c0,0 -0.006,-0.001 0.014,0.012c0.044,-0.019 0.068,-0.05 0.092,-0.082c-0,0 0.003,0.004 0.017,0.001c0.023,-0.022 0.032,-0.04 0.041,-0.059c0,0 0.003,0.004 0.029,0.003c1.099,-0.001 2.173,-0.001 3.252,-0.001c0.084,-0.319 -0.019,-0.724 0.303,-1.002c0,0 0.003,0.004 0.017,0.001c0.023,-0.022 0.032,-0.04 0.041,-0.059c-0,0 0.003,0.004 0.022,0.003c0.084,-0.061 0.149,-0.12 0.214,-0.18c-0,0 0.003,0.004 0.017,0.001c0.023,-0.022 0.032,-0.04 0.041,-0.059c0,0 0.003,0.004 0.024,0.003c0.189,-0.083 0.357,-0.166 0.524,-0.248c0,0 0.022,-0.015 0.045,-0.032c0.037,-0.053 0.051,-0.089 0.065,-0.125c-0,0 -0.007,0 0.019,0.007c0.147,-0.038 0.265,-0.107 0.389,-0.122c0.193,-0.023 0.39,-0.01 0.585,-0.012c0,0 -0.004,0.003 0.002,0.022c0.101,0.064 0.197,0.11 0.292,0.155c0,0 -0.004,0.003 0.002,0.022c0.179,0.103 0.353,0.188 0.527,0.272c0,0 -0.003,0.003 0.004,0.023c0.055,0.046 0.105,0.097 0.151,0.093c0.426,-0.032 0.852,-0.064 1.275,-0.12c0.115,-0.015 0.218,-0.113 0.327,-0.173c0,0 0.002,0.005 0.021,0.003c0.064,-0.041 0.11,-0.081 0.155,-0.121c0,0 0.003,0.004 0.024,0.003c0.184,-0.04 0.353,-0.06 0.506,-0.121c0.265,-0.106 0.613,-0.099 0.703,-0.469c0,0 0.004,0.003 0.018,-0c0.023,-0.022 0.032,-0.041 0.041,-0.059c0,0 0.003,0.004 0.024,-0.003c0.313,-0.21 1.302,-0.133 1.689,0.122c0,0 -0.004,0.003 -0.001,0.017c0.022,0.023 0.04,0.032 0.059,0.041c0,0 -0.003,0.003 0.004,0.023c0.187,0.063 0.372,0.156 0.544,0.136c0.268,-0.031 0.536,-0.118 0.786,-0.223c0.194,-0.081 0.444,-0.187 0.523,-0.353c0.243,-0.506 0.368,-0.433 0.728,-0.348c0,0 -0.004,0.003 0.002,0.022c0.144,0.098 0.283,0.176 0.42,0.257c0.167,0.099 0.3,0.074 0.394,-0.103c0,0 0.002,0.004 0.021,0.003c0.064,-0.041 0.11,-0.081 0.156,-0.121c0,0 0.003,0.004 0.021,0.003c0.064,-0.041 0.11,-0.081 0.155,-0.121c0,0 0.003,0.004 0.021,0.003c0.064,-0.041 0.11,-0.081 0.155,-0.121c0,0 0.003,0.004 0.021,0.003c0.064,-0.041 0.11,-0.081 0.155,-0.121c0,0 0.003,0.004 0.021,0.003c0.064,-0.041 0.11,-0.081 0.155,-0.121c0,-0 0.003,0.004 0.025,0.003c0.167,-0.056 0.312,-0.11 0.457,-0.165c0,0 -0.001,-0.009 0.02,0.002c0.089,0.024 0.17,0.018 0.223,0.054c0.137,0.091 0.224,0.052 0.293,-0.08c0,0 0.023,-0.016 0.043,-0.031c0.032,-0.035 0.043,-0.056 0.055,-0.076c0,0 0.002,0.004 0.017,0c0.024,-0.022 0.033,-0.041 0.041,-0.059c0,0 0.003,0.004 0.018,0c0.023,-0.022 0.032,-0.041 0.041,-0.059c0,0 0.003,0.004 0.018,0c0.023,-0.022 0.032,-0.04 0.041,-0.059c0,0 0.002,0.004 0.022,0.003c0.159,-0.116 0.286,-0.307 0.439,-0.331c0.431,-0.066 0.816,-0.34 1.278,-0.266c0.078,0.013 0.173,-0.073 0.26,-0.113c0,0 0.002,0.004 0.017,0.001c0.024,-0.022 0.032,-0.041 0.041,-0.06c0,0 0.003,0.004 0.018,0.001c0.023,-0.022 0.032,-0.041 0.041,-0.06c-0,0 0.004,0.003 0.02,-0.001c0.03,-0.025 0.044,-0.046 0.057,-0.067c0.042,-0.041 0.085,-0.082 0.157,-0.144c0.044,-0.057 0.059,-0.093 0.073,-0.13c0,0 -0.007,-0.003 0.016,0.005c0.029,-0.015 0.035,-0.039 0.042,-0.062c0,0 -0.009,-0.006 0.015,0.003c0.03,-0.015 0.037,-0.038 0.043,-0.062c-0,0 -0.009,-0.006 0.015,0.003c0.031,-0.015 0.037,-0.038 0.043,-0.062c0,0 -0.004,0.003 0.019,0.01c0.364,-0.395 0.822,-0.592 1.323,-0.658c0.658,-0.086 1.324,-0.113 1.984,-0.191c0.129,-0.015 0.244,-0.151 0.365,-0.23c-0,0 0.003,0.004 0.017,0.001c0.023,-0.022 0.032,-0.04 0.041,-0.059c0,0 0.003,0.004 0.021,0.003c0.084,-0.061 0.149,-0.12 0.214,-0.18c0,0 0.003,0.004 0.017,0.001c0.023,-0.022 0.032,-0.04 0.041,-0.059c0,0 0.003,0.004 0.022,0.003c0.103,-0.08 0.188,-0.16 0.272,-0.239c0,0 0.003,0.004 0.017,0.001c0.023,-0.022 0.032,-0.04 0.041,-0.059c0,0 0.003,0.004 0.021,0.003c0.084,-0.061 0.149,-0.12 0.214,-0.18c0,0 0.003,0.004 0.017,0.001c0.023,-0.022 0.032,-0.041 0.041,-0.059c-0,0 0.003,0.004 0.021,-0.001c0.351,-0.183 0.677,-0.378 1.02,-0.533c0.615,-0.278 1.227,-0.576 1.866,-0.785c1.017,-0.332 2.058,-0.579 3.071,-0.946c1.234,-0.447 2.528,-0.727 3.793,-1.089c0.097,-0.028 0.216,-0.036 0.238,-0.224c0.041,-0.336 0.152,-0.664 0.247,-0.992c0.121,-0.418 0.254,-0.832 0.381,-1.248c0,0 0.003,0.004 0.022,-0.002c0.064,-0.101 0.109,-0.196 0.155,-0.292c0,0 0.003,0.004 0.021,-0.002c0.044,-0.062 0.07,-0.118 0.097,-0.175c0,0 0.003,0.004 0.022,-0.002c0.103,-0.16 0.188,-0.314 0.272,-0.468c0,0 0.003,0.004 0.022,-0.002c0.048,-0.079 0.078,-0.151 0.108,-0.224c0,0 -0.005,0.002 0.018,0.01c0.064,-0.06 0.105,-0.128 0.146,-0.195c0,0 0.004,0.004 0.021,-0.002c0.063,-0.081 0.109,-0.157 0.155,-0.233c0,0 0.004,0.003 0.018,-0c0.023,-0.022 0.032,-0.041 0.04,-0.059c0,0 0.004,0.004 0.018,0.001c0.023,-0.022 0.032,-0.041 0.041,-0.059c0,-0 0.003,0.004 0.022,0.003c0.089,-0.075 0.159,-0.149 0.228,-0.222c0,0 0,-0.004 0.019,0.002c0.025,-0.018 0.031,-0.041 0.037,-0.064c0,0 -0.007,-0.005 0.016,0.006c0.052,-0.022 0.08,-0.055 0.109,-0.088c0,-0 0.022,-0.016 0.042,-0.03c0.032,-0.035 0.043,-0.056 0.055,-0.076c0,0 0.002,0.004 0.017,0c0.024,-0.022 0.033,-0.041 0.041,-0.06c0,0 0.003,0.004 0.018,0.001c0.023,-0.022 0.032,-0.041 0.041,-0.059c0,0 0.003,0.004 0.018,0c0.023,-0.022 0.032,-0.041 0.041,-0.059c0,0 0.003,0.004 0.018,0c0.023,-0.022 0.032,-0.04 0.041,-0.059c0,0 0.002,0.004 0.021,0.003c0.084,-0.061 0.149,-0.12 0.214,-0.18c0,0 0.003,0.004 0.022,0.003c0.103,-0.061 0.188,-0.12 0.272,-0.18c0,0 0.003,0.004 0.021,0.003c0.064,-0.041 0.11,-0.081 0.155,-0.121c0,0 0.003,0.004 0.021,0.003c0.064,-0.041 0.11,-0.081 0.156,-0.12c0,0 0.002,0.004 0.022,0.003c0.652,-0.415 1.33,-0.719 2.067,-0.893c0.48,-0.113 0.959,-0.233 1.463,-0.345c0.136,-0.016 0.246,-0.048 0.357,-0.054c0.479,-0.027 0.959,-0.046 1.466,-0.065c0.276,0.023 0.536,0.004 0.772,0.068c0.627,0.172 1.264,0.217 1.907,0.23c0.088,0.002 0.178,0.01 0.263,-0.006c0.035,-0.007 0.057,-0.074 0.085,-0.113c0,0 0.003,0.004 0.021,-0.001c0.044,-0.062 0.07,-0.118 0.097,-0.175c0,0 0.003,0.004 0.021,-0.002c0.044,-0.062 0.07,-0.118 0.097,-0.175c0,0 0.003,0.004 0.021,-0.002c0.044,-0.062 0.07,-0.118 0.097,-0.175c0,0 0.003,0.004 0.021,-0.002c0.044,-0.062 0.07,-0.118 0.097,-0.175c0,0 0.003,0.004 0.021,-0.002c0.044,-0.062 0.07,-0.118 0.097,-0.175c0,0 0.003,0.004 0.021,-0.002c0.044,-0.062 0.071,-0.118 0.097,-0.175c0,0 0.003,0.004 0.021,-0.002c0.044,-0.062 0.071,-0.118 0.097,-0.175c0,0 0.003,0.004 0.021,-0.002c0.044,-0.062 0.071,-0.118 0.097,-0.175c0,0 0.003,0.004 0.021,-0.002c0.044,-0.062 0.071,-0.118 0.097,-0.175c0,0 0.003,0.004 0.021,-0.002c0.044,-0.062 0.071,-0.118 0.097,-0.174c0,0 0.003,0.003 0.02,-0.002c0.044,-0.062 0.071,-0.118 0.097,-0.174c0,0 0.003,0.003 0.02,-0.002c0.044,-0.062 0.071,-0.118 0.097,-0.174c0,0 0.003,0.003 0.021,-0.003c0.236,-0.458 0.463,-0.906 0.667,-1.364c0.309,-0.691 0.601,-1.39 0.901,-2.086Z" style="fill:#4ade80;fill-rule:nonzero;stroke:#22c55e;stroke-width:1px;"/></svg>