<?xml version="1.0" encoding="UTF-8" standalone="no"?><!DOCTYPE svg PUBLIC "-//W3C//DTD SVG 1.1//EN" "http://www.w3.org/Graphics/SVG/1.1/DTD/svg11.dtd"><svg width="100%" height="100%" viewBox="0 0 100 100" version="1.1" xmlns="http://www.w3.org/2000/svg" xmlns:xlink="http://www.w3.org/1999/xlink" xml:space="preserve" xmlns:serif="http://www.serif.com/" style="fill-rule:evenodd;clip-rule:evenodd;stroke-linejoin:round;stroke-miterlimit:2;"><rect id="_4_hokkaido_teuritou" serif:id="4_hokkaido_teuritou" x="0" y="0" width="100" height="100" style="fill:none;"/><path d="M79.671,27.493c0.003,0.012 0.009,0.022 0.037,0.057c0.098,0.109 0.174,0.196 0.258,0.273c0.134,0.122 0.242,0.103 0.31,-0.072c0,0 0.004,0.007 0.026,0.005c0.075,-0.049 0.13,-0.097 0.184,-0.145c0,-0 0.005,0.006 0.029,0.005c0.111,-0.02 0.205,-0.07 0.284,-0.052c0.471,0.103 0.935,0.236 1.407,0.328c0.228,0.044 0.46,0.033 0.475,-0.317c0.007,-0.16 0.106,-0.315 0.169,-0.488c0.655,0.115 1.297,0.227 1.972,0.346c-0.017,0.095 -0.025,0.182 -0.049,0.264c-0.09,0.302 -0.206,0.599 -0.268,0.907c-0.024,0.122 0.069,0.268 0.108,0.404c0,0 -0.006,0 -0.005,0.024c0.095,0.124 0.189,0.225 0.283,0.326c0,0 -0.006,0.003 -0.005,0.027c0.235,0.169 0.468,0.315 0.702,0.46c0,0 -0.005,0.006 0.002,0.027c0.388,0.261 0.765,0.508 1.152,0.738c0.259,0.154 0.533,0.282 0.8,0.421c0,0 -0.005,0.006 0.002,0.027c0.094,0.127 0.257,0.235 0.253,0.337c-0.008,0.224 0.036,0.331 0.273,0.342c0.081,0.004 0.183,0.049 0.234,0.11c0.161,0.191 0.33,0.204 0.548,0.103c0.258,-0.12 0.597,0.109 0.631,0.408c0,0 0.005,0.005 -0.023,-0.006c-0.026,0.105 -0.072,0.278 -0.014,0.327c0.305,0.259 0.636,0.486 0.958,0.724c0,0 -0.003,0.006 0.001,0.025c0.029,0.034 0.054,0.05 0.079,0.065c0.003,0.013 0.009,0.023 0.037,0.054c0.041,0.038 0.066,0.051 0.09,0.065c0,0 -0.004,0.003 -0,0.021c0.026,0.028 0.049,0.038 0.071,0.048c0,0 -0.006,0.006 -0.002,0.023c0.027,0.026 0.05,0.036 0.072,0.046c0,0 -0.005,0.007 -0.004,0.033c0.02,0.176 -0.08,0.396 0.212,0.386c0,0 -0.004,0.007 -0.003,0.031c0.034,0.118 0.039,0.25 0.104,0.297c0.259,0.185 0.537,0.343 0.808,0.51c0,0 -0.006,0.007 -0.002,0.023c0.026,0.026 0.048,0.037 0.071,0.047c0,0 -0.006,0.006 -0.002,0.022c0.027,0.027 0.049,0.038 0.071,0.048c0,0 0,0.004 -0.008,0.026c-0.091,0.195 -0.28,0.372 0.008,0.533c0,0 -0.006,0.002 -0.004,0.027c0.165,0.1 0.329,0.175 0.492,0.25c0,0 -0.005,0.006 -0.001,0.023c0.027,0.027 0.049,0.037 0.071,0.047c0,0 -0.003,0.006 -0.004,0.029c0.015,0.108 0.008,0.206 0.05,0.274c0.091,0.146 0.359,0.202 0.109,0.475c-0.112,0.122 0.041,0.337 0.286,0.346c0.179,0.007 0.357,0.041 0.535,0.063c0,0 -0.004,0.002 -0.003,0.027c0.075,0.187 0.114,0.382 0.23,0.502c0.167,0.172 0.303,0.465 0.616,0.374c0.238,-0.07 0.4,0.042 0.579,0.145c0.055,0.032 0.121,0.045 0.182,0.067c0,0 -0.006,0.006 0.001,0.027c0.073,0.051 0.141,0.082 0.208,0.113c0,0 -0.004,0.006 -0.004,0.033c-0.021,0.159 -0.043,0.292 -0.071,0.46c0.328,0 0.639,-0.01 0.948,0.006c0.092,0.005 0.222,0.064 0.261,0.138c0.14,0.261 0.249,0.54 0.343,0.751c-0.228,0.112 -0.437,0.214 -0.647,0.317c0.122,0.131 0.244,0.261 0.381,0.409c-0.041,0.114 -0.101,0.281 -0.128,0.355c-0.178,0.074 -0.348,0.101 -0.358,0.158c-0.021,0.114 0.034,0.247 0.079,0.365c0.04,0.105 0.147,0.196 0.157,0.299c0.041,0.433 0.011,0.877 0.097,1.299c0.066,0.321 0.268,0.615 0.409,0.921c0,-0 -0.007,0.003 -0.006,0.029c0.122,0.204 -0.021,0.512 0.283,0.601c0,0 -0.005,0.002 -0.004,0.028c0.002,0.081 0.003,0.136 0.004,0.191c0,0 -0.005,-0.005 -0.022,-0.001c-0.027,0.027 -0.037,0.049 -0.048,0.071c0,-0 -0.005,-0.007 -0.025,-0c-0.145,0.167 -0.269,0.328 -0.393,0.488c0,0 -0.005,-0.004 -0.022,-0.001c-0.027,0.026 -0.038,0.048 -0.048,0.071c0,0 -0.005,-0.007 -0.025,-0c-0.145,0.167 -0.269,0.328 -0.393,0.489c0,0 -0.005,-0.005 -0.022,-0.001c-0.027,0.026 -0.037,0.049 -0.047,0.071c0,0 -0.007,-0.007 -0.023,-0.002c-0.026,0.027 -0.036,0.05 -0.046,0.072c0,0 -0.007,-0.006 -0.031,-0.004c-0.263,0.119 -0.501,0.236 -0.739,0.352c0,0 -0.005,-0.006 -0.033,-0.004c-0.354,0.078 -0.702,0.108 -0.999,0.245c-0.242,0.112 -0.41,0.373 -0.636,0.533c-0.402,0.286 -0.812,0.565 -1.238,0.812c-0.469,0.272 -0.961,0.502 -1.44,0.757c-0.149,0.079 -0.225,0.175 0.023,0.226c0,0 -0.002,0.006 0,0.022c0.024,0.027 0.046,0.037 0.069,0.047c0,0 -0.006,0.006 -0.002,0.022c0.027,0.027 0.049,0.037 0.072,0.047c0,0 -0.007,0.005 -0,0.025c0.19,0.168 0.374,0.316 0.558,0.463c0,0 -0.004,0.005 -0,0.022c0.026,0.027 0.048,0.037 0.07,0.047c0,0 -0.003,0.005 -0.004,0.026c-0.046,0.103 -0.091,0.184 -0.137,0.266c0,-0 -0.004,-0.007 -0.026,-0.006c-0.099,0.073 -0.176,0.144 -0.254,0.214c0,-0 -0.004,-0.007 -0.027,-0.005c-0.169,0.119 -0.315,0.237 -0.461,0.355c0,-0 -0.004,-0.008 -0.026,-0.006c-0.099,0.073 -0.176,0.144 -0.253,0.215c0,0 -0.004,-0.007 -0.026,-0.005c-0.099,0.073 -0.177,0.143 -0.254,0.214c0,0 -0.003,-0.006 -0.026,-0.005c-0.169,0.119 -0.315,0.237 -0.461,0.354c0,0 -0.004,-0.007 -0.026,-0.006c-0.099,0.073 -0.177,0.143 -0.254,0.214c0,0 -0.004,-0.007 -0.027,-0.005c-0.169,0.119 -0.315,0.237 -0.461,0.355c0,0 -0.004,-0.008 -0.026,-0.006c-0.099,0.073 -0.176,0.144 -0.254,0.214c0,0 -0.004,-0.007 -0.027,-0.005c-0.243,0.162 -0.455,0.158 -0.73,0.092c-0.426,-0.102 -0.852,-0.015 -1.126,0.402c0,0 -0.004,-0.007 -0.026,-0.005c-0.099,0.073 -0.176,0.144 -0.253,0.215c0,0 -0.006,-0.006 -0.022,-0.002c-0.027,0.026 -0.037,0.049 -0.047,0.071c0,0 -0.004,-0.007 -0.025,0c-0.044,0.071 -0.086,0.135 -0.087,0.199c-0.001,0.096 0.027,0.192 0.042,0.288c0,0 -0.006,-0.005 -0.026,0.002c-0.074,0.097 -0.128,0.188 -0.182,0.278c0,0 -0.007,-0.005 -0.027,0.001c-0.074,0.097 -0.128,0.187 -0.182,0.278c0,0 -0.005,-0.006 -0.031,-0.005c-0.3,-0.017 -0.474,0.129 -0.598,0.354c0,0 -0.006,-0.007 -0.022,-0.002c-0.027,0.026 -0.037,0.049 -0.047,0.071c-0,-0 -0.006,-0.006 -0.022,-0.002c-0.027,0.027 -0.038,0.049 -0.048,0.071c0,0 -0.003,-0.005 -0.027,-0.004c-0.123,0.118 -0.222,0.236 -0.322,0.353c0,0 -0.005,-0.004 -0.022,-0c-0.027,0.026 -0.037,0.048 -0.048,0.07c0,0 -0.006,-0.006 -0.023,-0.002c-0.027,0.027 -0.037,0.049 -0.047,0.072c0,0 -0.004,-0.007 -0.025,-0.001c-0.075,0.098 -0.129,0.188 -0.184,0.279c0,0 -0.007,-0.005 -0.027,0.002c-0.401,0.516 -0.781,1.025 -1.16,1.534c0,0 -0.004,-0.007 -0.026,-0.005c-0.099,0.073 -0.176,0.143 -0.253,0.214c0,0 -0.005,-0.006 -0.022,-0.002c-0.027,0.026 -0.038,0.048 -0.048,0.07c0,0 -0.005,-0.005 -0.022,-0.001c-0.027,0.027 -0.037,0.049 -0.047,0.071c0,0 -0.005,-0.006 -0.027,0.002c-0.168,0.284 -0.314,0.56 -0.461,0.835c0,0 -0.005,-0.005 -0.022,-0c-0.027,0.026 -0.037,0.049 -0.047,0.071c0,0 -0.005,-0.007 -0.026,0c-0.215,0.284 -0.408,0.56 -0.602,0.837c-0,0 -0.005,-0.004 -0.022,-0c-0.027,0.026 -0.038,0.048 -0.048,0.07c0,0 -0.006,-0.006 -0.022,-0.001c-0.027,0.027 -0.037,0.049 -0.047,0.072c0,0 -0.006,-0.006 -0.023,-0.002c-0.027,0.027 -0.037,0.049 -0.047,0.072c0,0 -0.007,-0.007 -0.023,-0.002c-0.027,0.027 -0.037,0.049 -0.047,0.072c0,0 -0.007,-0.007 -0.023,-0.002c-0.027,0.027 -0.038,0.049 -0.048,0.071c0,0 -0.003,-0.005 -0.026,-0.004c-0.216,0.211 -0.408,0.422 -0.601,0.632c0,0 -0.005,-0.004 -0.022,-0c-0.027,0.026 -0.037,0.048 -0.048,0.07c0,0 -0.006,-0.006 -0.022,-0.002c-0.027,0.027 -0.037,0.049 -0.047,0.072c0,0 -0.005,-0.007 -0.025,-0.001c-0.145,0.145 -0.269,0.282 -0.394,0.42c0,0 -0.007,-0.006 -0.023,-0.002c-0.026,0.026 -0.037,0.048 -0.047,0.071c0,0 -0.006,-0.006 -0.022,-0.002c-0.027,0.027 -0.038,0.049 -0.048,0.071c0,0 -0.003,-0.005 -0.026,-0.004c-0.192,0.165 -0.362,0.33 -0.531,0.494c0,-0 -0.007,-0.006 -0.023,-0.003c-0.026,0.026 -0.037,0.048 -0.047,0.071c-0,-0 -0.006,-0.006 -0.022,-0.002c-0.027,0.027 -0.037,0.049 -0.047,0.071c-0,0 -0.006,-0.006 -0.022,-0.002c-0.027,0.027 -0.037,0.049 -0.047,0.071c0,0 -0.006,-0.006 -0.022,-0.002c-0.027,0.027 -0.037,0.049 -0.047,0.071c0,0 -0.006,-0.006 -0.022,-0.002c-0.027,0.027 -0.037,0.049 -0.047,0.072c0,0 -0.006,-0.006 -0.023,-0.002c-0.027,0.027 -0.037,0.049 -0.047,0.072c0,0 -0.006,-0.007 -0.023,-0.002c-0.027,0.027 -0.037,0.049 -0.047,0.072c0,0 -0.006,-0.007 -0.023,-0.002c-0.027,0.027 -0.037,0.049 -0.047,0.072c0,0 -0.006,-0.007 -0.023,-0.002c-0.027,0.027 -0.037,0.049 -0.048,0.071c0,0 -0.004,-0.005 -0.027,-0.004c-0.216,0.165 -0.409,0.329 -0.602,0.493c0,0 -0.004,-0.006 -0.026,-0.005c-0.075,0.049 -0.129,0.097 -0.183,0.145c0,0 -0.005,-0.007 -0.026,-0.005c-0.075,0.049 -0.129,0.097 -0.183,0.145c0,0 -0.005,-0.007 -0.027,-0.006c-0.238,0.166 -0.454,0.33 -0.669,0.494c0,-0 -0.006,-0.007 -0.022,-0.003c-0.026,0.027 -0.037,0.049 -0.047,0.072c0,0 -0.007,-0.007 -0.023,-0.002c-0.026,0.027 -0.037,0.05 -0.047,0.072c0,0 -0.007,-0.007 -0.023,-0.002c-0.027,0.027 -0.038,0.049 -0.049,0.071c0,0 -0.004,-0.005 -0.029,-0.004c-0.17,0.326 -0.37,0.638 -0.448,0.978c-0.094,0.407 -0.244,0.69 -0.498,0.772c-0.154,0.049 -0.281,0.183 -0.421,0.278c0,0 -0.003,-0.006 -0.025,-0.005c-0.099,0.073 -0.176,0.144 -0.253,0.215c0,0 -0.005,-0.008 -0.028,-0.006c-0.148,0.07 -0.267,0.161 -0.4,0.2c-0.245,0.073 -0.507,0.095 -0.746,0.181c-0.094,0.034 -0.152,0.181 -0.216,0.283c-0.052,0.082 -0.068,0.224 -0.136,0.253c-0.467,0.198 -0.882,0.503 -1.444,0.501c-0.3,-0.001 -0.598,0.185 -0.862,0.48c-0.254,0.284 -0.769,0.421 -1.183,0.457c-0.551,0.048 -0.584,-0.003 -0.863,0.53c-0.024,0.046 -0.077,0.085 -0.126,0.108c-0.234,0.111 -0.471,0.218 -0.709,0.321c-0.065,0.028 -0.146,0.069 -0.206,0.054c-0.447,-0.117 -0.77,0.065 -1.035,0.405c0,0 -0.004,-0.007 -0.029,-0.006c-0.123,0.189 -0.222,0.376 -0.321,0.563c0,0 -0.003,-0.006 -0.025,-0.005c-0.076,0.05 -0.13,0.097 -0.184,0.145c0,-0 -0.005,-0.007 -0.028,-0.005c-0.169,0.096 -0.314,0.19 -0.46,0.285c0,0 -0.004,-0.007 -0.026,0c-0.052,0.097 -0.082,0.187 -0.112,0.277c0,0 -0.006,-0.006 -0.023,-0.001c-0.027,0.027 -0.037,0.049 -0.047,0.072c0,0 -0.005,-0.007 -0.026,-0c-0.521,0.393 -0.722,0.969 -0.875,1.53c-0.2,0.73 -0.287,1.491 -0.423,2.239c0,0 -0.008,-0.007 -0.033,-0.006c-0.188,0.124 -0.352,0.246 -0.516,0.369c-0.101,0.07 -0.157,0.204 -0.248,0.307c-0.113,0.127 -0.333,0.209 -0.366,0.345c-0.069,0.279 -0.296,0.274 -0.471,0.378c-0.12,0.072 -0.216,0.186 -0.322,0.281c0,0 -0.004,-0.006 -0.03,-0.005c-0.198,0 -0.37,-0.006 -0.541,-0c-0.568,0.02 -1.137,0.034 -1.704,0.076c-0.107,0.008 -0.204,0.135 -0.306,0.207c0,0 -0.005,-0.006 -0.034,-0.004c-0.528,0.085 -1.03,0.152 -1.524,0.259c-0.334,0.072 -0.655,0.278 -0.984,0.284c-0.358,0.006 -0.648,0.364 -1.028,0.165c-0.015,-0.008 -0.084,0.087 -0.128,0.134c0,0 -0.004,-0.007 -0.031,-0.005c-0.203,0.014 -0.381,0.026 -0.586,0.041c-0.037,0.059 -0.094,0.151 -0.151,0.243c0,0 -0.005,-0.006 -0.031,-0.004c-0.353,0.117 -0.816,0.023 -0.852,0.591c-0.232,-0.047 -0.43,-0.093 -0.631,-0.124c-0.106,-0.016 -0.218,-0.015 -0.324,-0.001c-0.167,0.022 -0.333,0.09 -0.498,0.087c-0.624,-0.012 -1.247,-0.057 -1.871,-0.065c-0.837,-0.012 -1.675,0.026 -2.511,-0.007c-0.995,-0.04 -1.989,-0.127 -2.983,-0.203c-0.466,-0.036 -0.931,-0.128 -1.396,-0.127c-0.322,0.001 -0.686,-0.168 -0.974,0.131c0,0 -0.003,-0.004 -0.034,-0.003c-0.568,-0.106 -1.12,0.197 -1.652,-0.062c-0.032,-0.015 -0.085,0.017 -0.129,0.024c-0.243,0.036 -0.499,0.138 -0.727,0.096c-0.95,-0.178 -1.864,0.051 -2.783,0.201c-0.724,0.119 -1.437,0.306 -2.16,0.436c-0.691,0.124 -1.389,0.211 -2.084,0.318c-0.817,0.125 -1.634,0.254 -2.451,0.381c-0.425,0.066 -0.852,0.125 -1.276,0.198c-0.535,0.092 -1.067,0.207 -1.604,0.288c-0.451,0.067 -0.907,0.104 -1.362,0.144c-0.354,0.031 -0.727,0.129 -1.06,0.054c-0.86,-0.193 -1.712,-0.116 -2.549,0.03c-1.199,0.209 -2.38,0.525 -3.572,0.777c-0.52,0.11 -1.052,0.166 -1.576,0.259c-0.084,0.015 -0.158,0.093 -0.236,0.142c0,0 -0.001,-0.002 -0.028,-0.003c-0.177,0.044 -0.33,0.078 -0.475,0.136c-0.398,0.159 -0.854,-0.051 -1.237,0.208c-0.321,0.217 -0.694,-0.015 -1.018,0.09c-0.685,0.223 -1.382,0.285 -2.095,0.266c-0.127,-0.003 -0.271,0.035 -0.381,0.1c-0.291,0.17 -0.572,0.288 -0.899,0.092c-0.045,-0.027 -0.119,-0.007 -0.18,-0.004c-0.316,0.016 -0.631,0.034 -0.946,0.051c-0.074,0.004 -0.149,-0.001 -0.224,0.004c-0.444,0.03 -0.888,0.054 -1.33,0.097c-0.258,0.025 -0.514,0.074 -0.768,0.126c-0.132,0.027 -0.257,0.084 -0.386,0.127c-0.028,-0.141 -0.056,-0.283 -0.09,-0.452c-0.065,-0.016 -0.173,-0.043 -0.282,-0.07c0,0 0.006,-0.007 -0.001,-0.027c-0.209,-0.156 -0.394,-0.342 -0.616,-0.417c-0.358,-0.121 -0.732,-0.17 -0.99,-0.499c-0.061,-0.078 -0.228,-0.072 -0.346,-0.105c0,0 0.005,-0.005 0.001,-0.022c-0.027,-0.027 -0.049,-0.038 -0.071,-0.049c-0,0 0.005,-0.004 0.003,-0.029c-0.08,-0.124 -0.139,-0.276 -0.24,-0.315c-0.364,-0.139 -0.758,-0.215 -0.891,-0.665c-0.018,-0.06 -0.077,-0.129 -0.134,-0.154c-0.36,-0.156 -0.226,-0.514 -0.233,-0.745c-0.008,-0.259 0.205,-0.526 0.291,-0.717c-0.163,-0.193 -0.392,-0.353 -0.369,-0.459c0.061,-0.284 0.23,-0.545 0.36,-0.823c-0.268,-0.223 -0.025,-0.385 0.028,-0.569l0,-0.489c0,0 0.004,0.007 0.026,-0c0.329,-0.178 0.189,-0.526 0.321,-0.767c0,0 0.008,0.005 0.032,0.004c0.267,-0.052 0.337,-0.195 0.338,-0.445c0.001,-0.204 0.108,-0.408 0.17,-0.611c0.125,-0.407 0.312,-0.805 0.365,-1.221c0.101,-0.792 -0.08,-1.565 -0.348,-2.308c-0.114,-0.315 -0.209,-0.688 -0.626,-0.778c0,0 0.003,-0.007 -0.003,-0.028c-0.142,-0.074 -0.279,-0.127 -0.415,-0.18c0,0 0.007,-0.006 0.002,-0.023c-0.027,-0.027 -0.05,-0.038 -0.072,-0.048c0,0 0.007,-0.007 0.002,-0.023c-0.027,-0.026 -0.049,-0.037 -0.072,-0.047c0,0 0.006,-0.007 -0.001,-0.028c-0.092,-0.137 -0.177,-0.252 -0.279,-0.391l-0.346,0c0,0 0.005,-0.007 -0.003,-0.029c-0.128,-0.166 -0.221,-0.361 -0.374,-0.442c-0.338,-0.178 -0.504,-0.455 -0.602,-0.798c0,0 0.004,0.006 0.034,0.005c0.186,0.021 0.341,0.047 0.497,0.065c0.259,0.028 0.518,0.069 0.778,0.07c0.249,0.001 0.5,-0.075 0.746,-0.059c0.423,0.028 0.771,-0.141 1.118,-0.34c0.097,-0.056 0.193,-0.122 0.299,-0.151c0.375,-0.103 0.755,-0.192 1.132,-0.289c0.028,-0.007 0.05,-0.037 0.074,-0.058c0.153,-0.139 0.307,-0.277 0.458,-0.419c0.033,-0.031 0.055,-0.074 0.082,-0.112c-0.037,-0.012 -0.074,-0.024 -0.111,-0.036c0,0 -0.004,0.002 0.008,-0.025c-0.128,-0.135 0.267,-0.46 -0.16,-0.452c0,0 0.004,-0.004 0.001,-0.022c-0.025,-0.028 -0.047,-0.039 -0.069,-0.05c0,0 0.005,-0.004 0.004,-0.029c-0.048,-0.295 -0.169,-0.488 -0.483,-0.471c0,0 -0.003,0.006 0.011,-0.021c0.038,-0.149 0.062,-0.271 0.077,-0.346c-0.373,-0.297 -0.727,-0.578 -1.079,-0.862c-0.032,-0.025 -0.045,-0.073 -0.106,-0.179c0.188,-0.064 0.359,-0.185 0.501,-0.157c0.21,0.04 0.39,0.226 0.601,0.275c0.201,0.047 0.425,0.009 0.636,-0.019c0.036,-0.005 0.079,-0.149 0.076,-0.227c-0.006,-0.206 -0.112,-0.448 -0.037,-0.61c0.104,-0.224 0.369,-0.142 0.579,-0.087c0,0 -0.005,0.005 -0.001,0.022c0.027,0.027 0.049,0.038 0.071,0.048c0,0 -0.006,0.006 -0.002,0.022c0.027,0.027 0.049,0.037 0.072,0.047c0,0 -0.006,0.006 0.001,0.027c0.19,0.113 0.565,0.014 0.598,-0.125c-0.043,-0.097 -0.083,-0.187 -0.137,-0.31c0.401,-0.152 0.573,-0.671 1.1,-0.569c0.056,0.011 0.129,-0.079 0.197,-0.117c0.098,-0.055 0.194,-0.129 0.3,-0.152c0.275,-0.061 0.562,-0.077 0.832,-0.152c0.227,-0.062 0.438,-0.182 0.656,-0.276c0,0 0.003,0.006 0.028,0.004c0.384,-0.17 0.542,-0.612 0.319,-0.831c0,0 0.006,-0.004 0.005,-0.032c0.01,-0.277 0.022,-0.526 0.033,-0.745c0.131,-0.073 0.256,-0.143 0.381,-0.212c0,0 0.003,0.007 0.021,0.003c0.028,-0.027 0.038,-0.05 0.048,-0.072c0,0 0.007,0.004 0.031,0.004c0.44,0.015 0.876,0.139 1.232,-0.204c0.296,0.149 0.51,-0.077 0.757,-0.162c0.094,-0.033 0.2,-0.032 0.3,-0.047c0.145,-0.02 0.297,-0.021 0.434,-0.066c0.132,-0.044 0.248,-0.133 0.366,-0.2c0.516,0.52 1.186,0.21 1.762,0.366c0.218,0.059 0.474,-0.022 0.713,-0.039c0,0 -0.005,0.007 -0.004,0.032c0.04,0.054 0.081,0.11 0.115,0.106c0.389,-0.045 0.776,-0.265 1.165,0.003c0.015,0.011 0.046,0.004 0.068,-0.001c0.389,-0.092 0.778,-0.147 1.167,-0.001c0,0 -0.003,0.006 0.004,0.029c0.289,0.172 0.372,0.115 0.452,-0.31c0.378,0.088 0.766,0.161 0.997,-0.277c0,0 0.004,0.007 0.027,0.006c0.423,-0.256 0.441,-0.357 0.19,-0.736c-0.049,-0.074 -0.049,-0.187 -0.053,-0.282c-0.005,-0.114 0.009,-0.229 0.014,-0.342c0.211,-0.153 0.428,-0.31 0.629,-0.456c-0.016,-0.107 -0.029,-0.194 -0.042,-0.281c0,0 0.007,0.005 0.031,0.004c0.21,-0.07 0.433,-0.238 0.575,-0.186c0.279,0.103 0.371,-0.044 0.456,-0.142c-0.085,-0.141 -0.15,-0.253 -0.219,-0.363c-0.038,-0.059 -0.071,-0.131 -0.126,-0.167c-0.17,-0.113 -0.377,-0.181 -0.236,-0.467c0.07,-0.141 0.065,-0.319 0.091,-0.461c0.477,-0.073 0.906,-0.15 1.228,-0.509c0.058,-0.065 0.234,-0.096 0.313,-0.058c0.22,0.108 0.417,0.26 0.624,0.395c0,0 -0.006,0.007 0.002,0.028c0.602,0.353 1.246,0.494 1.918,0.447c0.154,-0.011 0.319,-0.197 0.427,-0.341c0.038,-0.051 -0.081,-0.218 -0.128,-0.333c0,0 0.006,-0.004 -0.002,-0.026c-0.29,-0.173 -0.574,-0.319 -0.851,-0.475c-0.078,-0.044 -0.141,-0.174 -0.208,-0.172c-0.309,0.012 -0.336,-0.2 -0.371,-0.491c0.216,0.01 0.434,0.048 0.643,0.022c0.279,-0.036 0.54,-0.105 0.786,-0.298c0.137,-0.108 0.341,-0.07 0.229,-0.341c-0.023,-0.055 0.07,-0.225 0.127,-0.234c0.302,-0.048 0.61,-0.062 0.916,-0.087c0,0 -0.007,0.004 0.001,0.026c0.152,0.034 0.301,0.075 0.438,0.051c0.295,-0.052 0.67,-0.048 0.857,-0.228c0.4,-0.387 0.963,-0.356 1.375,-0.663c0.008,-0.006 0.025,-0.014 0.03,-0.011c0.414,0.312 0.755,-0.306 1.16,-0.091c0.316,-0.267 0.662,-0.287 1.033,-0.129c0.039,0.017 0.094,0.009 0.138,-0.001c0.296,-0.068 0.603,-0.111 0.885,-0.216c0.36,-0.134 0.7,-0.32 1.049,-0.484c0,0 0.004,0.007 0.026,0.005c0.076,-0.049 0.13,-0.097 0.184,-0.145c0,0 0.004,0.007 0.028,0.005c0.215,-0.143 0.407,-0.283 0.6,-0.424c0,0 0.003,0.008 0.027,0.006c0.385,-0.125 0.121,-0.42 0.194,-0.623c0,0 -0.006,-0.002 0.023,0.007c0.127,-0.361 0.375,-0.467 0.74,-0.442c0.179,0.012 0.365,-0.07 0.587,-0.118c-0.166,-0.258 -0.302,-0.471 -0.389,-0.606c0.186,-0.466 0.343,-0.857 0.514,-1.285c0.011,0.008 -0.042,-0.029 -0.095,-0.066c0,0 0.005,-0.006 -0.001,-0.028c-0.003,-0.099 -0.008,-0.244 0.005,-0.245c0.404,-0.05 0.474,-0.476 0.659,-0.702c0.216,-0.266 0.474,-0.402 0.724,-0.577c0.231,-0.162 0.486,-0.291 0.73,-0.434c0.147,-0.107 0.298,-0.235 0.43,-0.381c0.075,-0.083 0.118,-0.196 0.176,-0.295c0,0 0.005,0.005 0.03,-0.004c0.39,-0.17 0.873,-0.103 1.09,-0.555c0,0 0.005,0.007 0.028,0.005c0.788,-0.284 1.571,-0.525 2.309,-0.864c0.486,-0.223 0.908,-0.586 1.359,-0.887c0,0 0.007,0.006 0.023,0.003c0.026,-0.026 0.037,-0.049 0.047,-0.071c0,0 0.005,0.005 0.028,0.004c0.49,-0.242 0.957,-0.484 1.388,-0.707c-0.058,-0.149 -0.11,-0.282 -0.161,-0.414c0,0 0.004,0.004 0.022,0.001c0.028,-0.025 0.039,-0.047 0.049,-0.069c0,0 0.005,0.005 0.033,0.004c0.139,-0.001 0.249,-0.001 0.385,-0.001l0,-0.282c0,0 0.006,0.005 0.028,0.003c0.121,-0.048 0.221,-0.094 0.345,-0.152c-0.098,-0.08 -0.164,-0.134 -0.237,-0.194c0.074,-0.091 0.193,-0.169 0.193,-0.249c0.003,-0.333 0.215,-0.318 0.446,-0.318c0.073,0 0.184,-0.043 0.214,-0.1c0.214,-0.403 0.412,-0.815 0.614,-1.224c0,0 0.006,0.005 0.027,-0.001c0.051,-0.073 0.082,-0.141 0.113,-0.208c0,0 0.006,0.005 0.027,-0.003c0.261,-0.469 0.5,-0.931 0.74,-1.393c0,0 0.007,0.005 0.027,-0.001c0.074,-0.097 0.128,-0.187 0.183,-0.278c0,0 0.007,0.004 0.028,-0.003c0.055,-0.186 0.089,-0.366 0.123,-0.545c0,0 -0.005,-0.004 0.023,0.007c0.111,-0.129 0.162,-0.308 0.282,-0.402c0.336,-0.262 0.703,-0.485 1.051,-0.733c0.07,-0.05 0.113,-0.138 0.168,-0.209c0,0 0.004,0.007 0.03,0.005c0.357,-0.104 0.701,-0.177 1.016,-0.316c0.319,-0.14 0.602,-0.357 0.913,-0.516c0.41,-0.209 0.837,-0.385 1.248,-0.592c0.716,-0.36 1.43,-0.723 2.136,-1.102c0.392,-0.211 0.765,-0.458 1.146,-0.688c0,0 0.004,0.006 0.027,0.004c0.122,-0.073 0.222,-0.143 0.322,-0.214c0,0 0.004,0.007 0.026,0.005c0.099,-0.073 0.176,-0.143 0.254,-0.214c0,0 0.004,0.007 0.025,0.005c0.099,-0.073 0.176,-0.144 0.253,-0.214c0,0 0.003,0.007 0.026,0.005c0.193,-0.166 0.362,-0.331 0.532,-0.495c-0,0 0.006,0.006 0.027,0c0.117,-0.154 0.325,-0.34 0.29,-0.444c-0.105,-0.316 0.065,-0.35 0.281,-0.403c0.041,-0.01 0.067,-0.083 0.101,-0.127c-0,0 0.004,0.007 0.026,-0.001c0.369,-0.191 0.744,-0.344 0.88,-0.766c0,0 0.007,0.004 0.027,-0.002c0.074,-0.097 0.128,-0.187 0.182,-0.277c0,0 0.007,0.006 0.027,-0c0.121,-0.12 0.222,-0.235 0.324,-0.35c0,0 0.006,0.006 0.022,0.002c0.026,-0.026 0.037,-0.048 0.047,-0.07c0,0 0.004,0.005 0.027,0.004c0.341,-0.16 0.462,-0.431 0.458,-0.772c0,0 0.009,0.004 0.031,0.004c0.206,-0.117 0.405,-0.216 0.568,-0.357c0.127,-0.111 0.208,-0.274 0.31,-0.414c0,0 0.005,0.005 0.023,0.001c0.028,-0.026 0.038,-0.049 0.048,-0.071c0,0 0.006,0.006 0.028,-0.002c0.042,-0.096 0.068,-0.183 0.079,-0.272c0.013,-0.095 -0.025,-0.245 0.024,-0.278c0.169,-0.116 0.364,-0.194 0.552,-0.281c0.213,-0.098 0.429,-0.189 0.644,-0.282c0,0 -0,0.004 0.024,0.004c0.24,-0.188 0.456,-0.376 0.672,-0.564c0,-0 0.004,0.008 0.027,0.006c0.216,-0.142 0.409,-0.283 0.601,-0.424c0,0 0.004,0.007 0.028,0.005c0.307,-0.163 0.581,-0.344 0.876,-0.48c1.33,-0.615 2.672,-1.207 3.997,-1.832c0.276,-0.13 0.501,-0.367 0.749,-0.554c0,0 0.006,0.006 0.022,0.002c0.026,-0.026 0.037,-0.048 0.047,-0.071c0,0 0.004,0.005 0.027,0.004c0.146,-0.119 0.269,-0.236 0.392,-0.354c0,0 0.007,0.006 0.022,0.002c0.026,-0.026 0.037,-0.048 0.047,-0.07c0,0 0.004,0.005 0.027,0.004c0.1,-0.095 0.176,-0.189 0.252,-0.283c0,0 0.005,0.004 0.022,-0c0.027,-0.026 0.038,-0.048 0.048,-0.07c0,0 0.005,0.006 0.022,0.001c0.027,-0.027 0.037,-0.049 0.048,-0.071c0,-0 0.006,0.006 0.022,0.001c0.027,-0.027 0.037,-0.049 0.047,-0.071c0,-0 0.006,0.006 0.022,0.002c0.027,-0.027 0.037,-0.049 0.047,-0.072c0,0 0.006,0.006 0.023,0.002c0.027,-0.027 0.037,-0.049 0.047,-0.072c0,0 0.005,0.007 0.025,-0c0.051,-0.074 0.082,-0.142 0.113,-0.209c0,0 0.007,0.006 0.027,-0.001c0.074,-0.097 0.128,-0.188 0.182,-0.279c0,0 0.007,0.005 0.028,-0.001c0.465,-0.417 1.045,-0.516 1.592,-0.688c0.558,-0.175 1.142,-0.286 1.672,-0.52c0.214,-0.095 0.419,-0.147 0.632,-0.172c0.35,-0.042 0.489,0.107 0.556,0.455c0.017,0.089 0.137,0.212 0.222,0.224c0.62,0.086 1.244,0.146 1.866,0.219c0.369,0.043 0.736,0.096 1.146,0.151c-0.166,0.795 -0.322,1.541 -0.478,2.283c-0.089,0.004 -0.147,0.008 -0.204,0.009c-0.402,0.009 -0.439,-0.047 -0.353,-0.436c0.074,-0.331 0.135,-0.667 0.176,-1.003c0.009,-0.072 -0.093,-0.224 -0.149,-0.226c-0.484,-0.018 -0.968,-0.01 -1.499,-0.01c0.153,0.481 -0.307,0.959 0.229,1.406c-0.508,-0.054 -0.937,-0.1 -1.355,-0.145c-0.06,0.836 -0.118,1.626 -0.172,2.415c-0.028,0.413 0.001,0.442 0.403,0.443c0.323,0.001 0.646,0 1.02,0c0.046,0.967 0.091,1.906 0.136,2.841c0.116,0.014 0.216,0.026 0.316,0.038c0.012,0.027 0.024,0.054 0.036,0.081c-0.066,0.04 -0.128,0.094 -0.2,0.116c-0.181,0.055 -0.377,0.071 -0.546,0.149c-0.174,0.08 -0.129,0.19 0.032,0.258c0,0 -0.006,0.006 -0.002,0.022c0.026,0.026 0.048,0.037 0.071,0.047c0,-0 -0.006,0.006 -0.002,0.022c0.027,0.027 0.049,0.037 0.072,0.047c0,-0 -0.006,0.006 -0.002,0.023c0.027,0.027 0.049,0.037 0.072,0.047c0,0 -0.004,0.004 0.001,0.024c0.03,0.036 0.055,0.051 0.08,0.066Z" style="fill:#4ade80;fill-rule:nonzero;stroke:#22c55e;stroke-width:1px;"/></svg>