<?xml version="1.0" encoding="UTF-8" standalone="no"?><!DOCTYPE svg PUBLIC "-//W3C//DTD SVG 1.1//EN" "http://www.w3.org/Graphics/SVG/1.1/DTD/svg11.dtd"><svg width="100%" height="100%" viewBox="0 0 100 100" version="1.1" xmlns="http://www.w3.org/2000/svg" xmlns:xlink="http://www.w3.org/1999/xlink" xml:space="preserve" xmlns:serif="http://www.serif.com/" style="fill-rule:evenodd;clip-rule:evenodd;stroke-linejoin:round;stroke-miterlimit:2;"><rect id="_7_miyagi_oshima" serif:id="7_miyagi_oshima" x="0" y="0" width="100" height="100" style="fill:none;"/><path d="M35.078,69.082c0.003,0.013 0.01,0.024 0.035,0.053c0.035,0.032 0.055,0.043 0.076,0.054c0,0 -0.003,0.006 0,0.02c0.022,0.023 0.041,0.032 0.06,0.041c0,0 -0.005,0.005 -0.001,0.019c0.023,0.023 0.042,0.033 0.061,0.042c0,0 -0.004,0.004 -0.002,0.029c0.087,0.047 0.173,0.089 0.258,0.09c0.49,0.006 0.981,0.004 1.471,0.003c0.421,-0.001 0.842,0.04 1.242,-0.172c0.326,-0.173 0.584,-0.462 0.666,-0.755c0.104,-0.372 0.051,-0.815 -0.034,-1.206c-0.116,-0.537 -0.298,-1.065 -0.503,-1.576c-0.123,-0.306 -0.345,-0.572 -0.522,-0.857c0,0 0.007,-0.006 0.003,-0.02c-0.023,-0.023 -0.043,-0.031 -0.062,-0.04c0,0 0.006,-0.005 0.001,-0.023c-0.104,-0.085 -0.202,-0.152 -0.3,-0.219c0,0 0.004,-0.004 0,-0.019c-0.023,-0.023 -0.042,-0.032 -0.061,-0.041c0,0 0.005,-0.006 0.001,-0.02c-0.023,-0.023 -0.043,-0.031 -0.062,-0.039c0,0 0.006,-0.006 0,-0.024c-0.104,-0.084 -0.202,-0.151 -0.3,-0.218c0,0 0.004,-0.006 -0.002,-0.024c-0.124,-0.084 -0.241,-0.151 -0.359,-0.217c0,0 0.005,-0.006 -0.001,-0.024c-0.144,-0.085 -0.282,-0.151 -0.419,-0.217c0,0 0.005,-0.005 -0.002,-0.024c-0.243,-0.198 -0.473,-0.388 -0.719,-0.555c-0.185,-0.125 -0.39,-0.219 -0.585,-0.329c-0.208,-0.117 -0.414,-0.237 -0.622,-0.356c0,0 0.005,-0.003 0.001,-0.019c-0.023,-0.024 -0.042,-0.033 -0.061,-0.041c0,0 0.004,-0.006 0.003,-0.029c-0.02,-0.077 -0.049,-0.131 -0.056,-0.187c-0.083,-0.62 -0.153,-1.241 -0.252,-1.859c-0.016,-0.101 -0.154,-0.183 -0.235,-0.274c0,0 0.004,-0.004 0,-0.019c-0.023,-0.024 -0.042,-0.033 -0.061,-0.041c0,0 0.005,-0.005 0.001,-0.019c-0.023,-0.023 -0.042,-0.032 -0.061,-0.04c0,0 0.005,-0.006 0.001,-0.02c-0.023,-0.023 -0.043,-0.031 -0.062,-0.04c0,0 0.006,-0.004 0.001,-0.021c-0.027,-0.029 -0.048,-0.041 -0.07,-0.052c-0.003,-0.013 -0.009,-0.023 -0.035,-0.055c-0.052,-0.039 -0.087,-0.054 -0.123,-0.07c0,0 0.002,0.008 0.008,-0.017c-0.144,-0.146 -0.293,-0.267 -0.442,-0.388c0,0 0.003,-0.004 -0,-0.019c-0.022,-0.024 -0.041,-0.033 -0.06,-0.041c0,0 0.005,-0.005 0.001,-0.019c-0.023,-0.023 -0.042,-0.032 -0.061,-0.04c0,0 0.005,-0.006 0.001,-0.02c-0.023,-0.023 -0.042,-0.031 -0.062,-0.04c0,0 0.006,-0.004 0.001,-0.021c-0.027,-0.029 -0.048,-0.041 -0.069,-0.053c-0.003,-0.013 -0.009,-0.023 -0.035,-0.055c-0.051,-0.039 -0.087,-0.055 -0.122,-0.07c-0,0 0.002,0.008 0.007,-0.017c-0.045,-0.121 -0.118,-0.211 -0.141,-0.313c-0.041,-0.18 -0.045,-0.368 -0.077,-0.55c-0.027,-0.154 -0.114,-0.242 -0.285,-0.186c0,0 0.005,-0.006 -0,-0.024c-0.124,-0.105 -0.242,-0.192 -0.361,-0.278c0,-0 0.006,-0.004 0.001,-0.019c-0.023,-0.024 -0.043,-0.032 -0.062,-0.041c0,0 0.006,-0.006 0,-0.023c-0.052,-0.087 -0.152,-0.174 -0.136,-0.222c0.077,-0.233 -0.109,-0.272 -0.235,-0.341c-0.179,-0.097 -0.365,-0.186 -0.558,-0.247c-0.256,-0.081 -0.518,-0.153 -0.783,-0.188c-0.33,-0.043 -0.665,-0.043 -0.998,-0.062c0,-0 0.006,-0.004 0.002,-0.02c-0.024,-0.024 -0.043,-0.033 -0.062,-0.041c0,0 0.004,-0.006 -0.003,-0.027c-0.191,-0.027 -0.394,-0.084 -0.556,-0.027c-0.289,0.101 -0.609,0.226 -0.84,0.024c-0.396,-0.347 -0.886,-0.575 -1.158,-1.096c-0.27,-0.517 -0.271,-1.032 -0.1,-1.501c0.133,-0.365 0.151,-0.652 0.011,-0.983c-0.034,-0.081 -0.043,-0.176 -0.09,-0.246c-0.062,-0.093 -0.137,-0.192 -0.231,-0.247c-0.312,-0.181 -0.426,-0.597 -0.163,-0.727c0.273,-0.134 0.343,-0.359 0.394,-0.597c0.085,-0.395 0.062,-0.78 -0.274,-1.077c0,0 0.006,-0.004 0.004,-0.024c-0.163,-0.266 -0.324,-0.512 -0.486,-0.758c0,0 0.006,-0.004 0.004,-0.024c-0.123,-0.186 -0.244,-0.352 -0.365,-0.518c0,0 0.006,-0.004 0.004,-0.022c-0.043,-0.065 -0.084,-0.111 -0.126,-0.157c0,0 0.007,-0.005 0.005,-0.023c-0.063,-0.085 -0.124,-0.151 -0.186,-0.218c0,0 0.006,-0.005 0.005,-0.023c-0.063,-0.085 -0.124,-0.151 -0.185,-0.218c0,0 0.006,-0.005 0.005,-0.025c-0.143,-0.105 -0.285,-0.191 -0.426,-0.276c0,0 0.005,-0.004 0.004,-0.023c-0.062,-0.086 -0.123,-0.152 -0.184,-0.219c0,0 0.006,-0.004 0.005,-0.024c0.008,-0.089 0.05,-0.199 0.021,-0.222c-0.18,-0.149 -0.376,-0.278 -0.567,-0.414c0,0 0.004,-0.006 -0.002,-0.024c-0.184,-0.145 -0.363,-0.272 -0.541,-0.399c0,0 0.006,-0.006 -0,-0.023c-0.084,-0.104 -0.162,-0.191 -0.24,-0.279c0,0 0.006,-0.005 0.004,-0.027c0.08,-0.587 0.136,-1.157 0.252,-1.714c0.1,-0.481 0.031,-1.029 0.468,-1.401c0.009,-0.008 -0,-0.038 -0.001,-0.058c0,0 0.003,0.004 0.018,0c0.024,-0.023 0.033,-0.041 0.042,-0.06c0,0 0.003,0.006 0.021,-0.001c0.2,-0.132 0.002,-0.205 -0.024,-0.301c0,0 0.003,0.005 0.019,0.001c0.025,-0.023 0.034,-0.042 0.043,-0.061c0,0 0.006,0.006 0.02,0.002c0.023,-0.023 0.031,-0.043 0.04,-0.062c0,0 0.006,0.006 0.02,0.002c0.023,-0.023 0.031,-0.043 0.04,-0.062c0,0 0.004,0.006 0.021,0.001c0.029,-0.027 0.04,-0.048 0.052,-0.07c0.013,-0.003 0.023,-0.009 0.056,-0.035c0.039,-0.051 0.055,-0.087 0.07,-0.122c0,0 -0.009,0.001 0.016,0.007c0.197,-0.046 0.412,-0.052 0.388,-0.322c0,0 0.005,0.004 0.023,-0.002c0.164,-0.184 0.311,-0.363 0.458,-0.541c0,0 0.006,0.004 0.024,-0.001c0.084,-0.104 0.15,-0.202 0.216,-0.3c0,0 0.006,0.005 0.024,-0.001c0.064,-0.083 0.111,-0.161 0.158,-0.239c0,0 0.004,0.005 0.019,0.001c0.023,-0.023 0.032,-0.043 0.04,-0.062c0,0 0.006,0.006 0.025,-0c0.065,-0.057 0.149,-0.106 0.152,-0.159c0.021,-0.36 0.315,-0.389 0.552,-0.424c0.298,-0.044 0.487,-0.134 0.427,-0.492c0.364,0 0.703,-0.001 1.042,0.001c0.048,0 0.13,0.006 0.138,0.029c0.077,0.225 0.264,0.15 0.409,0.146c0.364,-0.011 0.727,-0.044 1.098,-0.069c0.011,-0.105 0.021,-0.19 0.031,-0.288c0.46,0 0.901,0.019 1.339,-0.004c0.919,-0.048 1.836,-0.143 2.755,-0.171c0.49,-0.015 0.982,0.068 1.473,0.112c0.196,0.017 0.389,0.054 0.585,0.071c0.625,0.056 1.251,0.107 1.889,0.162c0.028,-0.531 0.013,-0.982 0.085,-1.419c0.103,-0.622 -0.129,-0.988 -0.718,-1.157c-0.037,-0.011 -0.077,-0.027 -0.104,-0.053c-0.036,-0.036 -0.096,-0.102 -0.085,-0.123c0.132,-0.252 -0.094,-0.248 -0.217,-0.305c-0.177,-0.081 -0.36,-0.147 -0.576,-0.234c-0.033,0.07 -0.073,0.153 -0.112,0.235c0,0 -0.006,-0.003 -0.028,-0.003c-0.107,-0.02 -0.195,-0.031 -0.275,-0.063c-0.432,-0.173 -0.849,-0.405 -1.295,-0.512c-0.462,-0.111 -0.952,-0.099 -1.43,-0.15c-0.28,-0.03 -0.558,-0.076 -0.837,-0.115c0,0 0.005,-0.004 0.004,-0.026c-0.201,-0.107 -0.396,-0.245 -0.602,-0.267c-0.805,-0.085 -1.614,-0.189 -2.42,-0.177c-0.705,0.01 -1.298,-0.144 -1.857,-0.577c-0.363,-0.282 -0.8,-0.468 -1.204,-0.697c0,0 0.004,-0.006 -0.002,-0.024c-0.224,-0.144 -0.443,-0.271 -0.661,-0.397c-0,0 0.006,-0.004 0.001,-0.019c-0.024,-0.024 -0.043,-0.033 -0.062,-0.041c0,0 0.003,-0.006 0.003,-0.027c-0.143,-0.249 -0.207,-0.464 -0.136,-0.761c0.09,-0.379 0.084,-0.787 0.068,-1.181c-0.006,-0.15 -0.15,-0.416 -0.237,-0.419c-0.205,-0.005 -0.249,-0.05 -0.241,-0.238c0.004,-0.101 -0.045,-0.205 -0.075,-0.323l-0.466,0c0,0 0.005,-0.007 -0.001,-0.024c-0.104,-0.084 -0.202,-0.151 -0.301,-0.217c0,0 0.004,-0.006 -0.001,-0.024c-0.253,-0.244 -0.166,-0.746 -0.639,-0.791c-0.007,-0.001 -0.006,-0.039 -0.018,-0.053c-0.08,-0.096 -0.146,-0.216 -0.247,-0.279c-0.235,-0.147 -0.478,-0.303 -0.782,-0.185c-0.034,0.013 -0.095,0.016 -0.116,-0.005c-0.265,-0.256 -0.627,-0.121 -0.926,-0.235c-0.28,-0.107 -0.65,-0.005 -0.823,-0.358c0,0 0.006,-0.003 0.002,-0.018c-0.023,-0.023 -0.042,-0.032 -0.061,-0.041c0,0 0.003,-0.005 0.002,-0.025c-0.146,-0.385 -0.291,-0.75 -0.439,-1.113c-0.051,-0.124 -0.111,-0.245 -0.166,-0.367c0,0 0.005,-0.005 0.003,-0.027c-0.162,-0.588 -0.294,-1.164 -0.494,-1.715c-0.106,-0.292 -0.185,-0.641 -0.534,-0.786c0,0 0.006,-0.005 -0,-0.023c-0.3,-0.419 -0.568,-0.828 -0.471,-1.364c0,0 -0.004,-0.002 0.019,0.009c0.166,-0.1 0.309,-0.21 0.453,-0.32c0,0 0.005,0.008 0.021,0.003c0.044,-0.044 0.071,-0.083 0.099,-0.123c0,0 0.006,0.006 0.027,0.005c0.166,-0.083 0.311,-0.164 0.456,-0.245c0,0 0.006,0.006 0.02,0.002c0.023,-0.023 0.032,-0.042 0.041,-0.061c0,0 0.006,0.003 0.024,0.003c0.105,-0.082 0.191,-0.163 0.277,-0.245c0,0 0.006,0.006 0.02,0.002c0.023,-0.023 0.032,-0.042 0.041,-0.06c-0,0 0.005,0.003 0.023,0.003c0.085,-0.062 0.151,-0.124 0.217,-0.185c0,0 0.006,0.005 0.02,0.002c0.023,-0.023 0.031,-0.042 0.04,-0.061c0,0 0.006,0.003 0.024,0.003c0.104,-0.082 0.191,-0.163 0.277,-0.245c0,0 0.006,0.006 0.02,0.002c0.023,-0.023 0.032,-0.042 0.041,-0.061c0,0 0.005,0.003 0.023,0.003c0.085,-0.062 0.151,-0.124 0.217,-0.185c0,0 0.006,0.005 0.02,0.002c0.022,-0.023 0.031,-0.042 0.04,-0.061c0,0 0.006,0.003 0.024,0.003c0.084,-0.061 0.151,-0.123 0.217,-0.184c0,0 0.005,0.006 0.023,0.005c0.064,-0.043 0.111,-0.084 0.157,-0.126c0,0 0.005,0.007 0.025,0.005c0.245,-0.183 0.471,-0.365 0.698,-0.547c0,0 0.006,0.007 0.02,0.002c0.022,-0.024 0.03,-0.043 0.039,-0.062c-0,0 0.008,0.005 0.023,0.001c0.043,-0.043 0.071,-0.082 0.099,-0.121c0,0 0.006,0.006 0.027,0.004c0.105,-0.183 0.19,-0.364 0.275,-0.545c0,0 0.003,0.003 0.025,0.003c0.224,-0.047 0.233,-0.198 0.216,-0.363c0,0 0.006,0.004 0.026,-0.003c0.085,-0.204 0.15,-0.402 0.215,-0.599c0,0 0.006,0.004 0.024,-0.002c0.185,-0.324 0.352,-0.643 0.519,-0.961c0,0 0.005,0.005 0.027,0.003c0.067,-0.089 0.14,-0.172 0.151,-0.263c0.034,-0.273 0.043,-0.549 0.062,-0.824c0,0 0.006,0.005 0.02,0.001c0.023,-0.023 0.032,-0.043 0.04,-0.062c0,0 0.006,0.006 0.023,0c0.03,-0.039 0.043,-0.073 0.055,-0.106c0,0 -0.003,-0.005 0.023,0c0.175,-0.002 0.355,0.041 0.468,-0.027c0.377,-0.229 0.714,-0.188 1.134,-0.072c0.349,0.096 0.664,0.16 0.899,0.447c0,0 -0.006,0.003 -0.004,0.023c0.062,0.066 0.123,0.111 0.184,0.157c0,0 -0.002,0.005 0.005,0.025c0.046,0.046 0.084,0.091 0.126,0.095c0.254,0.026 0.509,0.045 0.764,0.061c0.355,0.023 0.711,0.069 1.066,0.056c0.596,-0.021 0.788,-0.227 0.857,-0.84c0,0 0.006,0.005 0.027,0.004c0.215,-0.02 0.408,-0.039 0.601,-0.06c0.057,-0.006 0.115,-0.018 0.171,-0.033c0.433,-0.115 0.868,-0.225 1.299,-0.348c0.257,-0.074 0.423,0.038 0.608,0.204c0.171,0.152 0.385,0.298 0.603,0.346c0.4,0.089 0.55,-0.02 0.666,-0.353c0,0 0.005,0.004 0.024,-0.002c0.105,-0.084 0.19,-0.162 0.276,-0.239c0,0 0.005,0.005 0.026,0.004c0.126,-0.102 0.232,-0.204 0.337,-0.305c0,0 0.005,0.005 0.026,0.004c0.207,-0.066 0.339,-0.246 0.486,-0.315c0.342,-0.159 0.736,-0.24 1.115,-0.275c0.371,-0.034 0.75,0.045 1.126,0.045c0.375,0 0.743,-0.004 1.085,0.183c0.1,0.055 0.217,0.078 0.326,0.116c0,-0 -0.006,0.007 0.001,0.025c0.337,0.173 0.655,0.375 1.002,0.472c0.493,0.138 1.004,0.244 1.514,0.279c0.415,0.029 0.839,-0.071 1.259,-0.105c0.169,-0.014 0.34,-0.005 0.51,-0.002c0.315,0.007 0.655,0.084 0.821,-0.307c0,0 0.006,0.006 0.02,0.002c0.022,-0.023 0.031,-0.042 0.039,-0.062c0,0 0.007,0.006 0.024,0c0.104,-0.144 0.191,-0.283 0.277,-0.421c0,0 0.006,0.004 0.024,-0.002c0.125,-0.084 0.232,-0.162 0.339,-0.24c0,0 0.005,0.006 0.028,0.004c0.469,-0.13 0.913,-0.262 1.359,-0.386c0.341,-0.095 0.693,-0.281 1.023,-0.249c0.574,0.055 1.092,-0.136 1.634,-0.212c0.063,-0.009 0.112,-0.117 0.168,-0.18c0,0 0.006,0.005 0.024,-0.001c0.24,-0.277 0.289,-0.669 0.631,-0.858c0.095,-0.053 0.166,-0.149 0.248,-0.226c0,-0 0.007,0.006 0.024,-0c0.271,-0.142 0.526,-0.278 0.78,-0.414c0.344,-0.183 0.843,-0.176 0.882,-0.728c0,0 0.004,0.006 0.019,0.001c0.024,-0.023 0.033,-0.042 0.042,-0.061c0,0 0.006,0.003 0.025,0.002c0.165,-0.182 0.311,-0.364 0.457,-0.545c0,0 0.005,0.007 0.024,0.005c0.185,-0.143 0.352,-0.285 0.518,-0.426c0,0 0.005,0.006 0.023,0.005c0.065,-0.042 0.111,-0.084 0.158,-0.125c0,0 0.005,0.006 0.025,0.004c0.228,-0.081 0.433,-0.172 0.646,-0.236c0.149,-0.045 0.324,-0.024 0.461,-0.088c0.25,-0.116 0.482,-0.27 0.718,-0.415c0.036,-0.022 0.062,-0.074 0.074,-0.117c0.027,-0.096 0.042,-0.195 0.062,-0.293c0,0 0.006,0.005 0.025,0.003c0.055,-0.062 0.1,-0.12 0.123,-0.185c0.017,-0.05 -0.015,-0.122 0.01,-0.164c0.154,-0.266 0.298,-0.542 0.485,-0.784c0.228,-0.296 0.33,-0.634 0.356,-0.986c0.018,-0.245 0.1,-0.546 -0.217,-0.702c0,0 0.004,-0.004 0.003,-0.025c-0.171,-0.485 -0.353,-0.946 -0.139,-1.448c0.019,-0.044 0.009,-0.127 -0.021,-0.162c-0.146,-0.165 -0.346,-0.298 -0.445,-0.485c-0.113,-0.213 -0.139,-0.472 -0.201,-0.712c-0.002,-0.006 0.01,-0.017 0.017,-0.023c0.216,-0.192 0.419,-0.4 0.653,-0.566c0.089,-0.063 0.25,-0.019 0.374,-0.044c0.334,-0.066 0.668,-0.137 0.999,-0.217c0.054,-0.013 0.096,-0.08 0.143,-0.122c0,-0 0.005,0.007 0.024,0c0.125,-0.065 0.232,-0.122 0.338,-0.18c0,-0 0.005,0.006 0.019,0.002c0.023,-0.023 0.032,-0.042 0.041,-0.062c0,-0 0.006,0.003 0.028,0.003c0.166,-0.062 0.31,-0.123 0.454,-0.184c0,0 0.005,0.006 0.019,0.002c0.023,-0.023 0.032,-0.042 0.041,-0.061c0,0 0.006,0.004 0.025,0.003c0.085,-0.042 0.151,-0.083 0.216,-0.124c0,0 0.005,0.005 0.023,-0.001c0.275,0.059 0.597,-0.073 0.771,0.242c0,0 -0.002,0.007 -0.003,0.027c-0.363,0.222 -0.778,0.397 -0.603,0.941c0.085,0.265 0.202,0.519 0.305,0.778c0,-0 -0.005,0.003 -0.004,0.023c0.329,0.576 0.86,0.693 1.455,0.697c0.047,0.103 0.121,0.213 0.145,0.333c0.019,0.095 0.008,0.223 -0.043,0.301c-0.158,0.235 -0.342,0.453 -0.529,0.696c0.214,0.083 0.363,0.149 0.518,0.199c0.249,0.08 0.514,0.24 0.749,0.205c0.607,-0.091 1.201,-0.27 1.827,-0.409c0.211,0.002 0.395,-0.002 0.579,-0.005c0,0 0.002,0.003 0.008,0.027c0.133,0.064 0.259,0.103 0.426,0.155c-0.008,0.122 -0.018,0.266 -0.026,0.411c-0.007,0.121 -0.012,0.243 -0.018,0.364c0.147,-0.025 0.294,-0.048 0.441,-0.076c0.082,-0.016 0.173,-0.074 0.24,-0.052c0.059,0.019 0.121,0.122 0.126,0.191c0.016,0.22 0.07,0.47 -0.011,0.656c-0.12,0.276 0.088,0.519 0.173,0.569c0.435,0.258 0.256,0.764 0.5,1.082c0.024,0.032 0.014,0.1 0.002,0.147c-0.052,0.212 -0.111,0.423 -0.172,0.653c0.289,0.071 0.548,0.135 0.833,0.205c0,0.127 -0.023,0.279 0.006,0.42c0.034,0.17 0.112,0.331 0.171,0.495c-0.04,-0.004 -0.081,-0.008 -0.121,-0.012c-0.075,0.127 -0.15,0.254 -0.225,0.381c0,0 -0.003,0.001 -0.02,0.003c-0.026,0.02 -0.034,0.039 -0.043,0.058c0,0 -0.005,-0.002 -0.027,-0.002c-0.11,0.169 -0.197,0.337 -0.31,0.556c-0.111,-0.035 -0.265,-0.075 -0.413,-0.131c-0.144,-0.054 -0.283,-0.174 -0.423,-0.174c-0.25,0 -0.505,0.049 -0.748,0.115c-0.215,0.059 -0.562,0.04 -0.402,0.454c0.013,0.033 -0.054,0.096 -0.084,0.145c0,0 -0.006,-0.003 -0.02,0c-0.023,0.022 -0.031,0.041 -0.039,0.06c0,0 -0.006,-0.005 -0.026,0.002c-0.031,0.09 -0.072,0.184 -0.047,0.256c0.086,0.25 0.31,0.342 0.542,0.391c0.274,0.058 0.545,0.127 0.699,0.378c0.098,0.16 0.145,0.351 0.21,0.53c0.13,0.364 0.519,0.484 0.774,0.237c0,0 0.006,0.001 0.027,0.001c0.071,-0.093 0.099,-0.232 0.177,-0.272c0.229,-0.12 0.311,-0.436 0.663,-0.414c0.206,0.013 0.42,-0.167 0.639,-0.228c0.093,-0.026 0.208,0.036 0.314,0.046c0.129,0.013 0.302,0.068 0.382,0.008c0.205,-0.156 0.369,-0.367 0.55,-0.555c0.042,0.007 0.085,0.014 0.127,0.021c0.05,0.228 0.099,0.455 0.149,0.683c0,0 -0.004,-0.002 -0.02,0.001c-0.023,0.022 -0.031,0.041 -0.039,0.06c0,-0 -0.005,-0.002 -0.025,0.004c-0.058,0.163 -0.095,0.32 -0.143,0.518c0.29,-0.095 0.403,0.054 0.474,0.291c0.022,0.074 0.115,0.153 0.192,0.18c0.181,0.062 0.219,0.181 0.23,0.355c0.017,0.252 0.183,0.348 0.425,0.271c0.083,-0.026 0.165,-0.104 0.24,-0.095c0.275,0.033 0.423,0.422 0.77,0.286c0.007,-0.003 0.039,0.055 0.058,0.085c0.085,0.136 0.17,0.273 0.272,0.437c0.026,-0.006 0.098,-0.024 0.134,-0.033c0.097,0.081 0.177,0.149 0.258,0.216c0,0 -0.005,0.005 0.003,0.025c-0.02,0.128 -0.037,0.24 -0.078,0.343c-0.106,0.27 -0.225,0.531 -0.46,0.724c-0.031,0.025 0.022,0.164 0.05,0.245c0.083,0.238 0.156,0.481 0.267,0.706c0.087,0.175 0.224,0.324 0.34,0.485c0,-0 -0.005,0.005 0.001,0.024c0.239,0.155 0.459,0.321 0.706,0.419c0.471,0.186 0.983,0.287 1.444,0.033c0.436,-0.241 0.856,-0.259 1.328,-0.14c0.006,0.081 0.012,0.167 0.02,0.283c0.339,-0.088 0.387,0.142 0.34,0.353c-0.064,0.284 0.066,0.399 0.285,0.498c0.078,0.035 0.141,0.102 0.211,0.154c0,0 -0.005,0.007 0.001,0.026c0.178,0.172 0.325,0.372 0.598,0.338c0,0 -0.003,0.004 0.001,0.02c0.023,0.023 0.041,0.031 0.06,0.039c0,0 -0.004,0.006 0.003,0.025c0.096,0.277 0.186,0.535 0.282,0.809c-0.062,0.046 -0.138,0.103 -0.267,0.2c0.131,0.023 0.208,0.036 0.284,0.049c0,0 -0,0.003 -0.001,0.029c-0.025,0.209 -0.048,0.393 -0.072,0.576c-0,0 0.007,0.001 -0.019,-0.006c-0.178,0.034 -0.294,0.093 -0.284,0.289c0.002,0.039 -0.158,0.14 -0.198,0.121c-0.256,-0.125 -0.5,-0.275 -0.748,-0.417c0.012,-0.017 0.025,-0.033 0.037,-0.05l-0.34,0c0,0 0.003,0.002 0.007,-0.022c-0.103,-0.055 -0.209,-0.085 -0.316,-0.116c0.039,0.175 -0.18,0.197 -0.197,0.277c-0.059,0.289 -0.231,0.218 -0.409,0.179c0,0 -0,-0.003 -0.002,-0.02c-0.02,-0.026 -0.039,-0.034 -0.058,-0.043c0,0 0.002,-0.005 0.002,-0.026c-0.304,-0.291 -0.365,-0.287 -0.638,0.016c-0.256,-0.113 -0.257,-0.114 -0.621,0.066c-0.2,0.099 -0.398,0.203 -0.597,0.305c0,0 -0.006,-0.003 -0.025,-0.002c-0.068,0.03 -0.123,0.053 -0.164,0.09c-0.511,0.454 -0.702,1.094 -0.948,1.695c-0.104,0.253 -0.145,0.562 -0.112,0.832c0.027,0.217 0.171,0.538 0.335,0.591c0.256,0.082 0.364,0.175 0.378,0.424c0.012,0.195 0.037,0.389 0.057,0.584c0,0 -0.004,-0.001 -0.026,-0.001c-0.156,0.079 -0.283,0.179 -0.427,0.233c-0.404,0.151 -0.484,0.595 -0.151,0.899c0,0 -0.003,0.006 0,0.02c0.022,0.023 0.041,0.031 0.059,0.04c0,0 -0.005,0.005 0.003,0.025c0.202,0.008 0.396,-0.003 0.583,-0.014c0.069,0.094 0.161,0.199 0.227,0.318c0.029,0.053 0.035,0.151 0.005,0.199c-0.173,0.272 0.042,0.273 0.206,0.313c0,0 0.001,0.003 0,0.027c0.059,0.115 0.132,0.199 0.176,0.296c0.132,0.291 0.456,0.471 0.802,0.47c0.243,-0 0.503,-0.004 0.725,0.078c0.347,0.128 0.632,0.36 0.758,0.73c-0.028,-0.006 -0.056,-0.011 -0.084,-0.017c-0.09,0.159 -0.18,0.319 -0.27,0.478c0,0 -0.003,-0.005 -0.025,0.004c-0.067,0.185 -0.119,0.36 -0.152,0.538c-0.008,0.045 0.03,0.131 0.068,0.146c0.182,0.072 0.251,0.322 0.504,0.298c0.068,-0.007 0.149,0.131 0.226,0.199c0.051,0.044 0.107,0.082 0.16,0.122c0,0 0.002,0.003 -0,0.028c-0.003,0.381 0.305,0.255 0.481,0.334c0,0 -0,0.003 0.004,0.024c0.073,0.105 0.188,0.183 0.198,0.273c0.013,0.126 -0.029,0.272 -0.089,0.389c-0.058,0.112 -0.155,0.214 -0.258,0.288c-0.139,0.099 -0.302,0.166 -0.454,0.247c0,0 -0.004,-0.001 -0.027,-0.002c-0.251,0.13 -0.494,0.239 -0.699,0.398c-0.135,0.104 -0.188,0.36 -0.325,0.407c-0.429,0.147 -0.21,0.307 -0.05,0.482c-0.05,0.086 -0.098,0.17 -0.158,0.273c0.135,0.065 0.268,0.13 0.402,0.195c-0.107,0.135 -0.198,0.25 -0.29,0.367c0.062,0.069 0.115,0.128 0.164,0.182c-0.061,0.086 -0.101,0.187 -0.176,0.238c-0.077,0.052 -0.25,0.104 -0.274,0.073c-0.176,-0.229 -0.367,-0.061 -0.545,-0.071c-0.033,0.255 -0.057,0.483 0.232,0.575c0,0 -0.002,0.007 -0.001,0.028c0.077,0.062 0.154,0.103 0.231,0.144c-0.077,0.255 -0.278,0.367 -0.529,0.291c-0.286,-0.087 -0.571,-0.177 -0.857,-0.265c0,0 0.002,-0.004 -0.005,-0.026c-0.507,-0.351 -1.021,-0.244 -1.547,-0.046c0.037,0.254 -0.124,0.358 -0.372,0.434c-0.189,0.058 -0.354,0.195 -0.53,0.297c0,0 -0.005,-0.002 -0.026,-0.002c-0.104,0.029 -0.186,0.058 -0.268,0.087c0.02,0.022 0.04,0.043 0.061,0.065c-0.086,0.089 -0.174,0.177 -0.257,0.269c-0.043,0.047 -0.11,0.104 -0.108,0.154c0.007,0.178 -0.035,0.307 -0.219,0.372c-0.151,0.054 -0.293,0.172 -0.444,0.182c-0.323,0.022 -0.356,0.052 -0.286,0.372c0.041,0.187 0.21,0.409 -0.091,0.538c0.046,0.067 0.081,0.118 0.113,0.164c-0.138,0.091 -0.253,0.167 -0.368,0.242c-0.083,-0.044 -0.176,-0.093 -0.269,-0.142c0.024,-0.013 0.048,-0.026 0.072,-0.04c-0.121,-0.223 -0.242,-0.446 -0.377,-0.693c-0.107,-0.025 -0.332,0.015 -0.2,-0.255c0.011,-0.023 -0.013,-0.079 -0.037,-0.102c-0.275,-0.268 -0.656,-0.321 -0.983,-0.485c0,0 0.001,-0.004 -0.003,-0.025c-0.139,-0.038 -0.273,-0.06 -0.409,-0.071c-0.443,-0.033 -0.614,0.163 -0.512,0.573c0.011,0.044 -0.009,0.12 -0.041,0.143c-0.042,0.03 -0.116,0.04 -0.167,0.026c-0.09,-0.024 -0.172,-0.078 -0.26,-0.111c-0.124,-0.045 -0.281,-0.05 -0.367,-0.132c-0.074,-0.071 -0.068,-0.225 -0.085,-0.294c-0.241,-0.04 -0.471,-0.075 -0.7,-0.118c-0.461,-0.085 -0.861,0.146 -1.288,0.238c-0.326,0.07 -0.484,0.249 -0.484,0.607c0,0 -0.003,0.001 -0.02,0.003c-0.025,0.02 -0.033,0.039 -0.041,0.058c0,0 -0.003,0 -0.02,0.002c-0.025,0.02 -0.033,0.039 -0.041,0.058c0,0 -0.004,-0.001 -0.026,-0.001c-0.052,0.056 -0.082,0.112 -0.112,0.168c0,0 0.001,0.005 -0.024,-0c-0.174,-0.004 -0.347,0.047 -0.467,-0.011c-0.248,-0.118 -0.49,-0.032 -0.689,0.036c-0.365,0.124 -0.691,0.345 -1.111,0.292c-0.14,-0.018 -0.3,0.067 -0.44,0.13c-0.282,0.127 -0.559,0.268 -0.833,0.412c-0.08,0.043 -0.144,0.118 -0.215,0.178c0,0 -0.006,-0.004 -0.026,-0.002c-0.185,0.122 -0.35,0.243 -0.516,0.364c0,0 -0.006,-0.004 -0.025,-0.003c-0.084,0.062 -0.15,0.123 -0.215,0.184c0,-0 -0.006,-0.004 -0.02,-0.001c-0.023,0.022 -0.032,0.041 -0.04,0.06c0,0 -0.005,-0.003 -0.02,0c-0.023,0.022 -0.032,0.041 -0.04,0.06c-0,0 -0.005,-0.003 -0.02,0.001c-0.023,0.022 -0.032,0.041 -0.04,0.06c0,0 -0.005,-0.003 -0.02,0.001c-0.023,0.022 -0.032,0.041 -0.04,0.06c0,0 -0.005,-0.003 -0.02,0.001c-0.023,0.023 -0.031,0.041 -0.039,0.06c0,0 -0.006,-0.004 -0.025,0.002c-0.084,0.104 -0.15,0.202 -0.215,0.3c0,0 -0.005,-0.004 -0.024,0.001c-0.066,0.083 -0.112,0.161 -0.158,0.239c0,0 -0.005,-0.005 -0.024,0.002c-0.153,0.198 -0.276,0.396 -0.421,0.578c-0.361,0.453 -0.459,0.995 -0.454,1.54c0.004,0.402 0.134,0.803 0.21,1.205c0.105,0.553 0.237,1.101 0.15,1.676c-0.037,0.245 -0.05,0.509 0.001,0.748c0.119,0.561 0.44,0.938 1.018,1.134c0.21,0.071 0.335,-0.065 0.508,-0.021c0.322,0.083 0.621,0.221 0.984,0.197c0.381,-0.025 0.771,0.095 1.157,0.152c0,-0 -0,0.003 0.004,0.024c0.122,0.087 0.239,0.153 0.357,0.219c0,0 -0.003,0.004 0.001,0.02c0.022,0.024 0.041,0.032 0.06,0.04c0,0 -0.001,0.004 -0.001,0.028c0.204,0.109 0.403,0.198 0.483,0.432c0.006,0.016 0.058,0.012 0.079,0.029c0.333,0.257 0.667,0.515 0.997,0.776c0.221,0.175 0.415,0.4 0.66,0.524c0.188,0.094 0.438,0.065 0.66,0.091c0,0 0.003,-0.006 -0.004,0.02c0.129,0.155 0.326,0.194 0.406,0.421c0.038,0.107 0.199,0.332 0.459,0.223c0.098,-0.041 0.272,-0.014 0.36,0.051c0.219,0.162 0.409,0.364 0.587,0.528c-0.125,0.22 -0.218,0.385 -0.313,0.553c0.023,0.128 0.075,0.277 0.072,0.424c-0.007,0.271 -0.212,0.496 -0.088,0.822c0.066,0.173 -0.116,0.472 -0.243,0.679c-0.135,0.219 -0.311,0.441 -0.634,0.378c0,0 0.004,-0.005 -0.002,-0.024c-0.124,-0.105 -0.242,-0.191 -0.359,-0.277c0,0 0,-0.003 0.001,-0.03c-0.035,-0.11 -0.062,-0.259 -0.109,-0.266c-0.453,-0.068 -0.911,-0.111 -1.391,-0.164c0.035,0.268 -0.045,0.378 -0.257,0.401c-0.113,0.012 -0.219,0.074 -0.331,0.107c-0.753,0.224 -1.506,0.447 -2.269,0.673c-0.055,-0.112 -0.116,-0.213 -0.156,-0.322c-0.078,-0.212 -0.2,-0.26 -0.41,-0.167c-0.427,0.189 -0.861,0.362 -1.291,0.544c-0.037,0.016 -0.079,0.044 -0.096,0.078c-0.271,0.528 -0.514,1.073 -0.812,1.585c-0.331,0.569 -0.506,1.183 -0.566,1.821c-0.076,0.813 0.378,1.422 0.896,1.986c0,0 -0.005,0.006 -0.001,0.02c0.023,0.022 0.042,0.03 0.06,0.038c0,0 -0.001,0.004 0.001,0.02c0.022,0.024 0.04,0.032 0.059,0.04c0,0 -0.004,0.006 0.001,0.024c0.123,0.105 0.241,0.192 0.359,0.278c0,0 -0.005,0.005 0.002,0.023c0.165,0.145 0.324,0.271 0.482,0.397c0,0 -0.004,0.006 -0.001,0.02c0.022,0.023 0.041,0.031 0.06,0.04c0,0 -0.002,0.004 0.001,0.02c0.021,0.024 0.04,0.033 0.059,0.042c0,0 -0.003,0.006 -0.002,0.026c0.041,0.045 0.082,0.069 0.122,0.094c0,0 -0.006,0.005 0.002,0.024c0.235,0.145 0.462,0.271 0.689,0.397c0.328,0.181 0.654,0.376 1.054,0.24c0,0 0.001,0.003 -0,0.025c0.02,0.131 0.024,0.247 0.067,0.346c0.023,0.053 0.114,0.075 0.174,0.112c0,0 -0.006,0.005 0.002,0.025c0.209,0.089 0.441,0.257 0.606,0.207c0.28,-0.086 0.517,-0.31 0.697,-0.427c0.24,0.032 0.4,0.053 0.561,0.074c0,0 0.001,0.003 0.001,0.026c0.087,0.217 0.175,0.411 0.284,0.651c-0.146,0 -0.256,-0.028 -0.278,0.004c-0.208,0.301 -0.401,0.611 -0.592,0.923c-0.003,0.005 0.069,0.056 0.105,0.085c0,0 -0.005,0.007 -0.004,0.025c0.183,0.204 0.365,0.389 0.546,0.574c0,0 -0.005,0.007 0,0.025c0.063,0.044 0.12,0.07 0.178,0.097c0,0 -0.005,0.005 0.002,0.025c0.164,0.105 0.322,0.191 0.479,0.277c0,0 -0.005,0.005 0.002,0.024c0.037,0.045 0.063,0.078 0.096,0.096c0.214,0.108 0.423,0.153 0.68,0.149c0.359,-0.004 0.719,0.143 1.08,0.218c0.163,0.034 0.33,0.049 0.496,0.073c0.238,0.136 0.245,0.163 0.474,0.102c0.439,-0.118 0.878,-0.265 1.33,-0.158c0.22,0.052 0.386,0.053 0.524,-0.12c0.114,-0.143 0.201,-0.305 0.31,-0.452c0.06,-0.081 0.135,-0.152 0.211,-0.218c0.061,-0.053 0.135,-0.09 0.203,-0.134c0,0 0.006,0.002 0.027,0.002c0.175,0.019 0.352,0.095 0.479,0.045c0.314,-0.124 0.671,0.138 0.958,-0.127c0.011,-0.01 0.049,0.012 0.075,0.016c0.234,0.041 0.51,-0.163 0.708,0.123c0.012,0.017 0.126,-0.059 0.186,-0.049c0.116,0.019 0.263,0.035 0.334,0.111c0.114,0.122 0.146,0.331 0.27,0.428c0.089,0.069 0.29,0.058 0.412,0.01c0.359,-0.142 0.664,-0.435 1.113,-0.216c0.209,0.102 0.477,0.084 0.759,0.127c-0.117,-0.323 -0.202,-0.559 -0.258,-0.713c0.026,-0.179 0.041,-0.287 0.061,-0.423c0.103,0.03 0.227,0.066 0.358,0.104c0.208,-0.26 -0.119,-0.345 -0.204,-0.597c0.147,-0.031 0.284,-0.06 0.42,-0.088c-0.002,0.12 0.002,0.24 -0.009,0.359c-0.009,0.101 -0.036,0.201 -0.052,0.281c0.252,0.126 0.491,0.231 0.716,0.361c0.659,0.381 1.33,0.361 2.049,0.17c0.256,-0.068 0.576,0.096 0.864,0.167c0.145,0.036 0.283,0.142 0.424,0.144c0.376,0.005 0.76,-0.082 1.127,-0.032c0.358,0.048 0.704,0.121 1.066,0.051c0.061,-0.012 0.147,0.037 0.204,0.08c0.108,0.081 0.191,0.228 0.307,0.258c0.169,0.044 0.236,0.135 0.191,0.27c-0.043,0.127 -0.147,0.326 -0.233,0.331c-0.333,0.019 -0.62,0.153 -0.923,0.262c-0.372,0.134 -0.797,0.011 -1.162,0.236c-0.358,0.221 -0.735,0.409 -1.104,0.611c0,0 -0.007,-0.003 -0.026,-0.002c-0.064,0.061 -0.108,0.122 -0.152,0.183c0,0 -0.005,-0.005 -0.024,0.001c-0.226,0.225 -0.432,0.443 -0.639,0.662c0,0 -0.005,-0.002 -0.027,-0.003c-0.085,0.018 -0.166,0.071 -0.208,0.049c-0.236,-0.124 -0.334,0.023 -0.429,0.194c0,0 -0.006,-0.005 -0.02,-0.001c-0.023,0.023 -0.031,0.042 -0.04,0.06c0,0 -0.005,-0.003 -0.02,0c-0.023,0.023 -0.031,0.041 -0.039,0.06c0,0 -0.004,-0.001 -0.02,0.001c-0.024,0.022 -0.032,0.041 -0.039,0.06c0,0 -0.006,-0.003 -0.024,0.001c-0.085,0.083 -0.151,0.162 -0.218,0.241c0,0 -0.007,-0.006 -0.025,-0c-0.145,0.22 -0.342,0.422 -0.383,0.651c-0.062,0.349 -0.173,0.754 0.226,1.019c0,0 -0.003,0.005 -0,0.02c0.022,0.023 0.041,0.031 0.06,0.039c0,-0 -0.001,0.004 0.001,0.02c0.021,0.024 0.04,0.032 0.059,0.041c0,0 -0.001,0.004 0.001,0.02c0.021,0.024 0.04,0.032 0.059,0.04c0,0 -0.004,0.006 0.002,0.025c0.252,0.215 0.476,0.48 0.841,0.229c0.057,-0.039 0.159,-0.012 0.241,-0.016c0,0 0.002,0.003 0.001,0.027c0.033,0.12 0.069,0.217 0.104,0.313c-0.059,0.072 -0.119,0.146 -0.141,0.173c0.107,0.131 0.191,0.235 0.275,0.338c-0.11,0.083 -0.219,0.165 -0.327,0.246c0.235,0.255 0.235,0.255 0.207,0.632c-0.039,0.534 -0.034,0.545 0.362,0.685c0,0 -0.005,0.006 0.003,0.025c0.022,0.138 0.041,0.257 0.048,0.376c0.004,0.07 -0.034,0.147 -0.015,0.21c0.079,0.267 0.154,0.538 0.267,0.792c0.118,0.265 0.278,0.51 0.42,0.764c0,0 -0.004,0.006 -0.002,0.024c0.042,0.063 0.083,0.109 0.124,0.154c0,0 -0.004,0.005 -0.001,0.02c0.022,0.024 0.04,0.032 0.059,0.041c0,0 -0.002,0.004 -0.002,0.027c0.065,0.088 0.143,0.218 0.192,0.208c0.425,-0.088 0.796,0.276 1.224,0.136c0.038,-0.012 0.096,0.04 0.146,0.059c0.101,0.038 0.203,0.074 0.305,0.11c0,0 0,0.003 0.002,0.02c0.021,0.025 0.04,0.033 0.059,0.041c0,0 -0.001,0.004 0.001,0.02c0.021,0.024 0.04,0.032 0.059,0.04c0,0 -0.002,0.004 0.002,0.024c0.091,0.047 0.177,0.08 0.265,0.101c0.085,0.02 0.223,-0 0.247,0.046c0.048,0.09 0.08,0.238 0.038,0.32c-0.14,0.268 -0.004,0.431 0.171,0.595c0,0 -0.003,0.006 -0,0.02c0.022,0.023 0.041,0.031 0.06,0.039c0,0 -0.001,0.004 0.001,0.02c0.021,0.024 0.04,0.032 0.059,0.04c0,0 -0.004,0.006 0.002,0.025c0.238,0.174 0.462,0.346 0.707,0.479c0.185,0.1 0.425,0.245 0.592,0.199c0.271,-0.075 0.372,0.075 0.529,0.199c0.143,0.113 0.304,0.202 0.457,0.302c0,0 0.001,0.003 0.002,0.02c0.021,0.025 0.039,0.033 0.058,0.041c0,0 0.001,0.003 -0.001,0.026c0.065,0.222 0.149,0.418 -0.08,0.582c-0.038,0.027 -0.024,0.125 -0.035,0.189c0,0 -0.003,0.002 -0.028,0c-0.249,0.025 -0.42,0.123 -0.491,0.351c-0.066,0.212 -0.163,0.43 0.081,0.577c-0.081,0.205 -0.154,0.392 -0.228,0.578c0,0 -0.005,-0.002 -0.027,-0.002c-0.172,0.02 -0.322,0.041 -0.473,0.059c-0.069,0.008 -0.142,-0.004 -0.206,0.015c-0.383,0.11 -0.685,0.341 -0.925,0.655c-0.188,-0.253 -0.363,-0.488 -0.538,-0.723c-0.039,0.043 -0.077,0.086 -0.116,0.129c-0.122,0.049 -0.244,0.098 -0.442,0.178c0.095,0.119 0.171,0.223 0.255,0.32c0.138,0.16 0.455,0.192 0.366,0.513c0,0 -0.004,-0.001 -0.027,-0.001c-0.187,0.15 -0.324,0.154 -0.437,-0.063c-0.032,-0.061 -0.103,-0.101 -0.153,-0.155c-0.104,-0.111 -0.206,-0.225 -0.301,-0.329c-0.118,-0.036 -0.241,-0.073 -0.364,-0.11c0,0 0.004,-0.006 -0.002,-0.026c-0.236,-0.306 -0.505,-0.501 -0.9,-0.394c0,0 -0.002,-0.003 -0.003,-0.02c-0.02,-0.026 -0.039,-0.033 -0.058,-0.041c0,0 0.003,-0.005 -0.003,-0.025c-0.222,-0.113 -0.632,0.039 -0.771,0.265c-0.112,0.181 -0.004,0.89 0.163,1.019c0.034,0.026 0.102,0.01 0.154,0.01c0.184,0.002 0.405,0.299 0.351,0.473c0,0 -0.007,-0.005 -0.025,0.002c-0.042,0.106 -0.065,0.205 -0.105,0.375c-0.095,0.051 -0.259,0.14 -0.424,0.228c0,0 -0.001,-0.003 -0.003,-0.02c-0.021,-0.025 -0.04,-0.032 -0.059,-0.04c0,0 0.002,-0.004 -0.004,-0.025c-0.223,-0.209 -0.361,-0.532 -0.742,-0.422c-0.077,0.46 -0.294,0.568 -0.706,0.313c-0.205,-0.127 -0.397,-0.274 -0.596,-0.412c0,0 0.003,-0.007 0.002,-0.027c-0.119,-0.084 -0.236,-0.147 -0.381,-0.225c0.065,-0.105 0.105,-0.252 0.199,-0.304c0.295,-0.163 0.142,-0.311 0.027,-0.486c-0.048,-0.072 -0.095,-0.212 -0.06,-0.259c0.171,-0.227 -0.007,-0.227 -0.147,-0.261c0,0 0.002,-0.004 -0.001,-0.02c-0.022,-0.024 -0.041,-0.031 -0.06,-0.039c0,0 0.002,-0.005 -0.004,-0.025c-0.185,-0.213 -0.355,-0.185 -0.538,-0.018c-0.058,0.053 -0.158,0.095 -0.233,0.087c-0.192,-0.02 -0.596,-0.479 -0.607,-0.675c-0.011,-0.215 -0.125,-0.328 -0.33,-0.341c-0.385,-0.025 -0.771,-0.035 -1.156,-0.058c-0.265,-0.016 -0.547,0.007 -0.792,-0.075c-0.484,-0.161 -0.902,0.091 -1.35,0.142c-0.035,0.004 -0.084,0.064 -0.091,0.105c-0.049,0.276 -0.217,0.195 -0.38,0.134c0,0 -0,-0.003 0,-0.026c-0.044,-0.304 -0.209,-0.441 -0.492,-0.466c-0.182,-0.016 -0.361,-0.08 -0.543,-0.099c-0.474,-0.048 -0.939,-0.039 -1.357,0.243c-0.242,0.163 -0.307,0.406 -0.234,0.65c0.057,0.189 0.207,0.356 0.335,0.516c0.056,0.07 0.24,0.131 0.235,0.144c-0.066,0.164 -0.123,0.355 -0.247,0.467c-0.145,0.132 -0.349,0.206 -0.537,0.281c-0.096,0.038 -0.217,0.009 -0.319,0.037c-0.086,0.023 -0.19,0.067 -0.236,0.135c-0.095,0.141 -0.156,0.305 -0.241,0.48c0.143,0.245 0.102,0.292 -0.229,0.348c-0.159,0.027 -0.302,0.144 -0.453,0.22c0.072,0.094 0.146,0.187 0.216,0.283c0.01,0.013 0.005,0.038 0.006,0.054c-0.219,0.092 -0.431,0.202 -0.656,0.27c-0.143,0.043 -0.353,-0.035 -0.445,0.044c-0.117,0.1 -0.226,0.324 -0.194,0.46c0.095,0.406 0.01,0.882 0.401,1.185c-0.169,0.229 -0.29,0.511 -0.663,0.441c-0.041,-0.008 -0.113,0.149 -0.17,0.229c0,0 -0.003,0.001 -0.024,0c-0.067,0.04 -0.112,0.081 -0.158,0.122c0,0 -0.006,-0.003 -0.027,-0.003c-0.107,0.031 -0.194,0.062 -0.287,0.095c0.216,0.295 0.461,0.553 0.607,0.858c0.077,0.162 0.049,0.451 -0.053,0.601c-0.112,0.166 -0.361,0.24 -0.572,0.366c0.114,0.258 0.289,0.405 0.57,0.414c0,0 -0.001,0.004 -0.001,0.028c0.023,0.048 0.048,0.096 0.068,0.093c0.364,-0.044 0.37,0.344 0.581,0.485c0.02,0.013 -0.004,0.132 -0.038,0.18c-0.227,0.32 -0.571,0.269 -0.89,0.249c-0.29,-0.018 -0.577,-0.089 -0.868,-0.116c-0.122,-0.011 -0.249,0.03 -0.42,0.054c-0.007,0.024 -0.031,0.105 -0.054,0.185c0,0 -0.004,-0.002 -0.02,0.001c-0.024,0.022 -0.032,0.041 -0.04,0.06c-0,0 -0.004,-0.001 -0.026,-0.001c-0.127,0.153 -0.263,0.295 -0.329,0.464c-0.052,0.133 -0.037,0.302 -0.019,0.451c0.031,0.26 0.073,0.515 0.273,0.723c0.074,0.077 0.073,0.234 0.086,0.356c0.006,0.054 -0.035,0.116 -0.062,0.171c-0.028,0.055 -0.067,0.103 -0.098,0.157c-0.027,0.047 -0.05,0.095 -0.075,0.143c-0.06,-0.04 -0.141,-0.068 -0.173,-0.125c-0.035,-0.061 -0.023,-0.148 -0.041,-0.302c-0.34,0.072 -0.648,0.136 -0.955,0.208c-0.016,0.004 -0.018,0.067 -0.026,0.103c0,0 -0.005,-0.004 -0.02,-0c-0.023,0.023 -0.031,0.041 -0.039,0.06c0,0 -0.004,-0 -0.026,-0.001c-0.186,0.174 -0.349,0.349 -0.449,0.456c-0.015,0.195 -0,0.32 -0.039,0.427c-0.061,0.169 0.018,0.19 0.149,0.187c0,0 0.001,0.003 -0,0.026c0.058,0.285 0.116,0.546 0.161,0.743c0.229,0.3 0.429,0.565 0.631,0.828c0.024,0.031 0.048,0.065 0.08,0.087c0.177,0.123 0.292,0.537 0.232,0.752c-0.069,0.246 -0.271,0.491 -0.278,0.685c-0.012,0.304 -0.099,0.504 -0.313,0.659c-0.114,0.082 -0.277,0.106 -0.422,0.131c-0.077,0.013 -0.182,-0.005 -0.243,-0.05c-0.211,-0.155 -0.43,-0.309 -0.603,-0.501c-0.082,-0.091 -0.069,-0.268 -0.094,-0.383l0,-0.547c-0.021,0.027 -0.042,0.054 -0.063,0.082c-0.24,-0.075 -0.506,-0.111 -0.704,-0.247c-0.062,-0.042 0.058,-0.351 0.097,-0.55c-0.039,-0.06 -0.101,-0.164 -0.173,-0.262c-0.032,-0.043 -0.082,-0.074 -0.123,-0.11c-0,0 0.004,-0.005 -0.003,-0.025c-0.031,-0.149 -0.055,-0.277 -0.073,-0.377c-0.164,-0.199 -0.331,-0.403 -0.497,-0.606c0.042,-0.018 0.085,-0.037 0.127,-0.055c-0.035,-0.146 -0.075,-0.291 -0.105,-0.438c-0.036,-0.181 -0.113,-0.32 -0.286,-0.414c-0.043,-0.024 -0.025,-0.16 -0.037,-0.266c-0.432,0.137 -0.298,-0.397 -0.594,-0.449c0.13,-0.192 0.178,-0.336 0.105,-0.55c-0.06,-0.175 0.009,-0.411 0.072,-0.603c0.027,-0.082 0.197,-0.108 0.283,-0.183c0.053,-0.046 0.068,-0.134 0.101,-0.203c0,0 0.003,0 0.026,0.001c0.147,-0.08 0.271,-0.161 0.396,-0.241c0,0 0.004,0.002 0.02,-0.001c0.024,-0.022 0.031,-0.041 0.039,-0.06c0,0 0.003,-0.001 0.028,0c0.128,-0.038 0.263,-0.05 0.326,-0.124c0.127,-0.149 0.214,-0.332 0.336,-0.531c-0.052,-0.127 -0.105,-0.331 -0.214,-0.498c-0.078,-0.118 -0.232,-0.186 -0.352,-0.276c0,0 0.004,-0.005 -0.002,-0.025c-0.035,-0.047 -0.059,-0.082 -0.092,-0.097c-0.296,-0.131 -0.685,-0.031 -0.903,-0.362c-0.008,-0.013 -0.056,0.001 -0.086,0.002c0,0 0.004,-0.005 -0.003,-0.026c-0.138,-0.322 -0.454,-0.366 -0.698,-0.503c-0.135,-0.076 -0.307,-0.088 -0.471,-0.131c-0.345,-0.02 -0.71,-0.041 -1.166,-0.068c-0.056,0.117 -0.15,0.311 -0.257,0.532c-0.271,0.087 -0.439,-0.036 -0.502,-0.353c-0.032,-0.16 -0.091,-0.317 -0.152,-0.469c-0.114,-0.288 -0.197,-0.612 -0.606,-0.607c0,0 0.002,-0.004 -0.003,-0.025c-0.102,-0.168 -0.2,-0.314 -0.298,-0.461c0,0 0.003,-0.005 0.003,-0.028c-0.093,-0.313 -0.172,-0.608 -0.281,-0.892c-0.084,-0.221 -0.176,-0.464 -0.509,-0.297c-0.047,0.024 -0.141,-0.045 -0.218,-0.073c0.239,-0.196 0.235,-0.408 -0.065,-0.508c-0.492,-0.164 -1.004,-0.287 -1.517,-0.359c-0.224,-0.031 -0.518,0.007 -0.652,0.29c0,0 -0.006,-0.003 -0.025,-0.002c-0.104,0.082 -0.19,0.163 -0.275,0.243c-0,0 -0.006,-0.005 -0.02,-0.001c-0.023,0.023 -0.031,0.041 -0.039,0.06c0,0 -0.005,-0.002 -0.02,0.001c-0.023,0.022 -0.031,0.041 -0.039,0.06c0,0 -0.003,0 -0.027,-0.001c-0.239,0.132 -0.452,0.128 -0.692,0.044c-0.166,-0.058 -0.359,-0.038 -0.566,-0.055c0.021,0.186 0.035,0.32 0.052,0.472c-0.096,-0.048 -0.207,-0.075 -0.275,-0.144c-0.21,-0.21 -0.396,-0.444 -0.606,-0.654c-0.179,-0.179 -0.327,-0.36 -0.395,-0.617c-0.047,-0.177 -0.174,-0.332 -0.268,-0.522c-0.005,-0.089 -0.008,-0.153 -0.005,-0.239c-0.015,-0.068 -0.034,-0.116 -0.063,-0.181c-0.112,-0.12 -0.251,-0.205 -0.309,-0.328c-0.111,-0.237 -0.274,-0.286 -0.506,-0.237c-0.058,0.012 -0.124,0.002 -0.184,-0.01c-0.199,-0.04 -0.397,-0.085 -0.63,-0.136l0,0.506c-0.026,0.003 -0.051,0.005 -0.077,0.008c-0.034,-0.227 -0.04,-0.464 -0.108,-0.68c-0.085,-0.272 0.087,-0.276 0.258,-0.335c0.183,-0.063 0.438,-0.117 0.515,-0.255c0.264,-0.477 0.688,-0.576 1.163,-0.621c0.253,-0.024 0.505,-0.061 0.755,-0.106c0.139,-0.025 0.328,-0.036 0.397,-0.127c0.179,-0.237 0.305,-0.515 0.452,-0.776c-0.04,-0.002 -0.081,-0.004 -0.121,-0.006c-0.047,-0.172 -0.094,-0.344 -0.151,-0.551l-0.594,0l0,-0.447c0.155,-0.041 0.303,-0.08 0.455,-0.12c0.053,-0.22 -0.107,-0.525 0.346,-0.608c-0.502,-0.741 -0.972,-1.438 -1.444,-2.133c-0.462,-0.68 -1.163,-1.05 -1.858,-1.427c-0.338,-0.183 -0.692,-0.277 -0.847,-0.743c-0.149,-0.449 -0.497,-0.833 -0.767,-1.239c-0.587,-0.883 -1.495,-1.333 -2.435,-1.69c-0.451,-0.171 -0.928,-0.275 -1.366,-0.498c-0.206,-0.105 -0.434,-0.168 -0.656,-0.239c-0.322,-0.103 -0.67,-0.153 -0.964,-0.306c-0.21,-0.11 -0.427,-0.304 -0.303,-0.639c0.086,-0.233 0.053,-0.461 -0.156,-0.655c-0.135,-0.125 -0.218,-0.306 -0.329,-0.47c0.311,-0.154 0.58,-0.295 0.856,-0.42c0.077,-0.035 0.174,-0.024 0.262,-0.035Z" style="fill:#4ade80;fill-rule:nonzero;stroke:#22c55e;stroke-width:1px;"/></svg>