<?xml version="1.0" encoding="UTF-8"?>
<svg id="_レイヤー_3" data-name="レイヤー_3" xmlns="http://www.w3.org/2000/svg" version="1.1" viewBox="0 0 100 100">
  <!-- Generator: Adobe Illustrator 29.6.1, SVG Export Plug-In . SVG Version: 2.1.1 Build 9)  -->
  <defs>
    <style>
      .st0 {
        fill: #4ade80;
        stroke: #22c55e;
      }
    </style>
  </defs>
  <polygon class="st0" points="21.92 55.02 21.76 53.68 21.78 52.87 21.73 51.69 21.77 50.58 21.88 49.25 21.88 47.95 22.06 46.73 22.1 46.24 22.1 45.59 21.88 44.25 21.88 44.04 22.04 43.15 22.06 42.7 21.94 40.15 21.93 38.6 22 37.88 21.98 37.65 21.55 36.26 21.44 35.49 21.43 35.09 21.46 34.25 21.71 33.11 21.63 31.45 21.68 30.14 21.66 29.73 21.44 28.42 21.17 27.55 21.11 27.19 21.15 26.64 21.86 24.42 22.13 22.3 22.14 20.09 22.09 19.66 22.1 19.21 22.19 18.14 22.39 17.57 22.32 17.23 22.34 17.09 22.41 16.99 22.38 16.78 22.59 16.19 22.5 16.08 22.56 15.78 22.68 15.66 22.74 15.44 22.98 15.21 23.12 15.15 23.18 14.91 23.37 14.79 23.44 14.57 23.64 14.38 23.75 14.21 23.9 14.11 24.01 13.95 24.22 13.79 24.58 13.24 24.94 13.01 25.32 12.97 25.46 12.88 25.77 12.87 25.9 12.8 26.13 12.79 26.29 12.64 26.57 12.63 26.68 12.51 26.92 12.4 27.08 12.43 27.13 12.31 27.2 12.26 27.34 12.21 27.43 12.24 27.49 12.11 27.93 11.95 27.93 11.77 27.97 11.74 28.26 11.68 28.28 11.61 28.43 11.52 28.61 11.52 28.65 11.42 28.88 11.3 29.02 11.32 29.11 11.22 29.7 11.12 29.78 11.2 30.19 11.15 31.2 11.17 31.63 11.26 32.01 11.41 32.56 11.94 33.13 12.36 33.96 13.26 34.29 13.5 34.3 13.44 34.38 13.43 34.55 13.64 34.79 13.68 34.85 13.94 35.05 14.02 35.08 14.17 35.7 14.47 36.04 14.73 36.9 15.36 38.32 16.31 39.86 17.09 40.81 17.32 41.35 17.56 41.65 17.63 42.65 17.58 43.45 17.69 45.14 18.33 45.6 18.43 46.22 18.67 47.52 18.92 48.4 19.17 50.44 20.16 51.27 20.46 51.54 20.67 51.8 20.96 52.23 21.21 52.9 21.92 53.83 22.46 54.05 22.25 54.17 22.3 54.3 22.56 54.25 22.99 54.27 23.21 54.41 23.97 54.5 24.18 54.94 24.66 55.03 24.88 55.15 25.02 55.35 25.14 55.82 25.42 55.98 25.58 56.13 25.87 56.27 26.43 56.38 26.62 56.73 26.91 56.87 27.16 57.3 28.34 57.41 28.75 57.59 29.16 57.82 29.49 58.48 31.03 58.76 31.28 59.03 31.39 59.29 31.4 59.45 31.57 59.78 31.73 59.87 31.89 59.89 32.04 60.14 32.3 60.17 32.66 60.52 33.36 61.45 34.71 61.82 35.17 63.5 36.91 63.77 37.09 64.27 37.02 64.46 37.04 64.59 37.11 64.98 37.76 65.17 37.89 65.56 38.05 65.94 38.39 66.6 39.09 66.87 39.51 67.45 40.01 67.91 40.26 68.51 40.33 68.67 40.4 69.19 40.91 69.52 41.14 70.15 41.17 70.14 40.85 70.22 40.67 70.14 40.58 70.13 40.48 70.25 40.32 70.42 40.28 70.61 40.28 70.66 40.37 70.6 40.61 70.66 40.87 70.64 40.94 70.52 41.04 70.54 41.16 70.95 41.86 71.29 42.27 71.46 42.58 71.53 42.8 71.59 43.23 71.77 43.59 72.32 44.18 72.59 44.41 72.77 44.47 72.88 44.32 72.97 44.42 73.26 45.01 73.47 45.17 73.62 45.34 74.2 46.18 74.43 46.4 74.52 46.71 75.06 47.82 75.21 48.27 75.37 48.59 75.71 48.87 76.34 49.06 76.45 49.14 76.45 49.2 76.3 49.42 76.26 49.54 76.28 50.05 76.54 51.04 76.64 51.22 76.71 51.5 76.85 51.56 77.1 51.53 77.17 51.57 77.22 51.63 77.19 51.91 77.31 52.01 77.4 52 77.49 51.97 77.62 51.85 77.8 51.89 78.04 51.79 78.39 51.92 78.51 52.15 78.51 52.26 78.42 52.43 78.45 52.48 78.39 52.56 78.21 52.58 77.98 52.69 77.94 52.65 77.61 52.77 77.52 52.92 77.44 53.24 77.44 53.56 77.35 53.89 76.8 54.37 76.66 54.75 76.71 55.35 76.63 55.67 76.69 56.16 76.65 56.24 76.48 56.39 76.44 56.59 76.52 57.75 76.49 57.84 76.31 58.01 76.28 58.13 76.44 60.37 76.61 61.51 76.71 61.77 76.86 61.98 77.03 62.12 77.41 62.21 77.55 62.29 77.62 62.4 77.72 62.72 77.91 62.84 77.99 62.97 78.1 63.01 78.38 63.81 78.52 63.96 78.55 64.12 78.49 64.6 78.52 64.8 78.56 64.91 78.68 65.03 78.87 65.13 78.93 65.31 78.89 65.46 78.57 65.86 78.49 66.95 78.4 67.11 78.14 67.35 78.09 67.51 78.11 67.9 78.01 68.14 78.02 68.31 78.22 68.98 78.29 69.5 78.25 69.9 78.02 70.29 77.96 70.54 77.9 70.59 77.65 70.64 77.49 70.77 77.22 71.2 77.09 71.58 77.1 72.18 77.37 72.44 77.39 72.63 77.21 73.05 77.18 73.36 77.15 73.46 76.77 73.78 76.47 74.13 76.25 74.59 76.2 74.96 76.13 75.09 75.84 75.19 75.74 75.29 75.58 75.53 75.37 75.66 74.94 76.14 74.66 76.61 74.7 76.99 74.64 77.15 74.53 77.25 74.28 77.32 74.01 77.73 73.34 77.99 72.24 78.57 71.81 78.61 70.91 79.51 69.85 80.21 69.02 80.68 67.44 81.38 65.42 82.16 64.6 82.58 64.07 82.71 63.73 82.85 62.72 83.4 61.31 84.05 60.01 84.9 59.18 85.84 58.76 86.2 58.05 86.66 57.53 86.86 56.25 87.51 55.28 87.82 55 87.98 54.62 88.1 53.37 88.32 53.12 88.42 52.35 88.56 51.2 88.88 50.3 88.81 49 88.56 48.79 88.51 48.57 88.35 47.7 87.36 47.09 87.22 47 87.14 46.94 87.07 46.94 86.84 46.67 86.19 46.33 85.54 45.9 84.89 45.39 84.33 43.66 82.73 43.47 82.64 42.44 81.88 41.64 81.49 40.99 81.39 40.25 81.37 39.91 81.44 39.64 81.62 39.12 81.58 39.05 81.65 38.69 81.62 38.65 81.56 38.64 81.38 38.64 81.32 38.47 81.19 38.27 81.12 38.01 81.13 37.84 81.08 37.45 80.76 37.15 80.75 36.92 80.6 36.65 80.48 36.47 80.48 36.45 80.65 36.19 80.77 35.41 80.69 35.25 80.65 35.06 80.49 34.55 80.44 34.24 80.15 33.63 80.06 33.54 80.12 33.35 80.27 33.21 80.49 32.88 80.5 32.77 80.41 32.55 80.38 32.32 80.27 32.34 80.17 32.43 80.06 32.87 80.06 33.28 79.9 33.32 79.93 33.39 79.52 33.38 79.3 33.24 78.84 33.05 78.93 32.82 78.98 32.78 78.82 32.75 78.57 32.61 78.43 32.48 78.35 32.32 78.21 32.1 78.03 31.65 77.6 31.34 77.25 31.03 76.86 30.32 76.74 30.02 76.7 29.88 76.55 29.76 76.45 29.56 76.33 29.48 76.12 29.51 75.87 29.65 75.64 29.95 75.66 30.06 75.58 30.09 75.36 29.5 74.83 28.89 74.09 27.99 73.15 26.89 72.41 26.75 72.36 26.24 72.36 25.7 72.04 25.33 72.01 24.76 71.72 23.97 71.56 23.82 71.5 23.67 71.39 23.43 71.07 22.98 70.62 22.45 69.77 22.28 69.27 22.31 68.94 22.1 68.63 21.51 67.36 21.5 67.12 21.68 66.81 21.69 65.95 21.61 65.42 21.79 64.79 21.81 64.43 21.79 64.28 21.53 63.8 21.46 63.57 21.46 63.08 21.35 62.71 21.07 61.94 21.08 61.77 21.29 61.24 21.27 60.11 21.56 59.75 21.85 59.17 21.95 58.67 22.07 57.08 21.92 55.02"/>
</svg>