<?xml version="1.0" encoding="UTF-8"?>
<svg id="_レイヤー_1" data-name="レイヤー_1" xmlns="http://www.w3.org/2000/svg" version="1.1" viewBox="0 0 100 100">
  <!-- Generator: Adobe Illustrator 29.6.1, SVG Export Plug-In . SVG Version: 2.1.1 Build 9)  -->
  <defs>
    <style>
      .st0 {
        fill: #4ade80;
        stroke: #22c55e;
      }
    </style>
  </defs>
  <polygon class="st0" points="26.81 50.1 26.73 50.07 26.62 50.02 26.6 50.01 26.44 49.9 26.31 49.88 26.23 49.76 26.22 49.72 26.17 49.7 26.06 49.6 25.99 49.58 25.98 49.49 25.98 49.47 25.95 49.44 25.88 49.45 25.72 49.38 25.7 49.34 25.68 49.28 25.63 49.23 25.6 49.17 25.55 49.13 25.56 49.13 25.52 49.06 25.47 49.04 25.44 49.06 25.4 49.07 25.39 49.13 25.38 49.15 25.36 49.16 25.22 49.18 25.21 49.16 25.23 49.05 25.21 49.01 25.13 49 25.07 48.96 25.03 48.92 25.02 48.87 24.98 48.83 24.95 48.77 24.95 48.7 24.93 48.66 24.93 48.61 25.02 48.54 25.03 48.51 25.03 48.48 25.07 48.43 25.03 48.26 24.97 48.19 24.96 48.13 24.94 48.1 24.91 48.1 24.86 48.16 24.77 48.21 24.72 48.27 24.67 48.27 24.62 48.21 24.58 48.14 24.53 48.12 24.5 48.09 24.43 48.08 24.39 48.05 24.35 47.96 24.34 47.89 24.36 47.87 24.34 47.82 24.34 47.79 24.34 47.77 24.32 47.74 24.3 47.74 24.29 47.75 24.29 47.76 24.26 47.78 24.23 47.82 24.24 47.9 24.22 47.94 24.23 48.01 24.21 48.06 24.21 48.08 24.25 48.16 24.22 48.19 24.18 48.2 24.16 48.2 24.16 48.18 24.1 48.17 24.06 48.12 24.07 48.04 24.08 48.01 24.07 47.99 24.06 47.92 24.05 47.81 24.11 47.68 24.16 47.67 24.23 47.56 24.18 47.49 24.16 47.39 24.18 47.35 24.13 47.36 24.06 47.41 24.03 47.42 23.93 47.41 23.91 47.38 23.92 47.33 23.98 47.28 24.01 47.23 23.98 47.21 23.93 47.1 23.9 47.05 23.9 46.99 23.93 46.96 23.9 46.92 23.91 46.88 23.86 46.82 23.82 46.82 23.79 46.79 23.77 46.71 23.78 46.7 23.82 46.71 23.87 46.67 23.94 46.63 23.94 46.61 23.88 46.56 23.82 46.44 23.74 46.44 23.71 46.43 23.7 46.4 23.68 46.39 23.66 46.36 23.62 46.36 23.62 46.33 23.68 46.26 23.74 46.24 23.76 46.2 23.81 46.17 23.72 45.98 23.72 45.91 23.76 45.88 23.73 45.85 23.73 45.82 23.62 45.72 23.63 45.66 23.62 45.63 23.63 45.51 23.61 45.44 23.57 45.4 23.57 45.36 23.54 45.34 23.51 45.34 23.49 45.38 23.42 45.3 23.38 45.28 23.33 45.13 23.29 45.1 23.25 45.04 23.23 44.95 23.18 44.88 23.19 44.85 23.15 44.75 23.14 44.67 23.14 44.64 23.06 44.5 23.05 44.45 23.02 44.39 23.02 44.31 23.03 44.28 23.04 44.21 23.06 44.19 23.06 44.16 23.07 44.05 23.14 44.02 23.2 43.97 23.27 43.74 23.26 43.72 23.28 43.73 23.3 43.69 23.3 43.5 23.31 43.47 23.31 43.37 23.35 43.28 23.33 43.16 23.35 43.14 23.36 43.15 23.36 43.03 23.36 43.03 23.37 42.99 23.34 42.9 23.34 42.86 23.33 42.82 23.29 42.68 23.22 42.56 23.25 42.52 23.25 42.48 23.27 42.43 23.25 42.41 23.25 42.4 23.2 42.36 23.15 42.27 23.13 42.26 23.16 42.25 23.19 42.28 23.18 42.22 23.16 42.22 23.16 42.21 23.17 42.2 23.17 42.12 23.13 42.07 23.11 41.98 23.05 41.89 23.04 41.82 23.05 41.74 23.02 41.64 23.03 41.51 22.99 41.42 22.93 41.19 22.88 41.06 22.81 40.96 22.79 40.87 22.75 40.8 22.74 40.69 22.7 40.63 22.63 40.47 22.61 40.44 22.56 40.4 22.54 40.33 22.52 40.28 22.46 40.21 22.45 40.19 22.4 40.13 22.37 40.13 22.24 39.97 22.19 39.96 22.14 39.9 22.13 39.86 22.11 39.87 22.1 39.83 22.07 39.84 22.03 39.79 21.97 39.7 21.96 39.67 21.92 39.59 21.89 39.59 21.87 39.57 21.82 39.47 21.74 39.4 21.69 39.29 21.61 39.14 21.54 39.08 21.51 39 21.48 38.92 21.4 38.77 21.37 38.79 21.36 38.76 21.29 38.76 21.25 38.68 21.2 38.63 21.15 38.6 21.11 38.56 21.09 38.55 21.09 38.54 21.05 38.51 20.94 38.47 20.84 38.35 20.82 38.3 20.83 38.21 20.78 38.17 20.76 38.08 20.7 38.03 20.7 38.01 20.72 37.99 20.76 37.97 20.76 37.88 20.71 37.84 20.7 37.81 20.66 37.74 20.62 37.73 20.62 37.72 20.49 37.71 20.44 37.63 20.35 37.64 20.29 37.57 20.26 37.47 20.23 37.47 20.22 37.45 20.17 37.44 20.14 37.43 20.11 37.44 20.09 37.43 19.98 37.32 19.94 37.2 19.93 37.05 19.9 37 19.74 36.86 19.7 36.85 19.64 36.81 19.52 36.79 19.48 36.76 19.45 36.66 19.44 36.61 19.45 36.55 19.49 36.48 19.49 36.46 19.4 36.41 19.36 36.31 19.25 36.33 19.2 36.31 19.09 36.37 19 36.35 18.95 36.38 18.92 36.38 18.86 36.34 18.82 36.27 18.78 36.25 18.75 36.2 18.75 36.17 18.71 36.13 18.68 36.12 18.68 36 18.74 35.84 18.78 35.78 18.79 35.59 18.75 35.49 18.75 35.4 18.79 35.37 18.8 35.31 18.78 35.26 18.77 35.16 18.78 35.14 18.74 35.12 18.7 35.09 18.67 35.04 18.63 35.02 18.61 34.91 18.61 34.89 18.66 34.81 18.64 34.79 18.74 34.68 18.72 34.63 18.69 34.6 18.69 34.43 18.63 34.37 18.62 34.32 18.62 34.21 18.59 34.15 18.59 34.1 18.54 34.02 18.54 33.82 18.53 33.78 18.45 33.62 18.43 33.53 18.36 33.39 18.32 33.21 18.25 33.04 18.2 32.85 18.12 32.67 18.07 32.57 18.05 32.55 17.98 32.58 17.96 32.55 17.92 32.54 17.83 32.57 17.77 32.49 17.75 32.49 17.74 32.45 17.77 32.4 17.84 32.34 17.81 32.19 17.68 32.23 17.63 32.22 17.59 32.23 17.55 32.26 17.45 32.28 17.36 32.25 17.25 32.23 17.2 32.17 17.21 32.13 17.26 32.03 17.26 31.97 17.33 31.88 17.43 31.85 17.49 31.89 17.51 31.88 17.52 31.86 17.55 31.85 17.56 31.83 17.53 31.78 17.52 31.7 17.49 31.64 17.49 31.61 17.42 31.54 17.4 31.55 17.4 31.51 17.35 31.48 17.14 31.47 17.1 31.39 17.04 31.32 17.02 31.23 16.97 31.14 16.98 31.07 17.04 30.95 17.02 30.93 17 30.88 16.99 30.69 16.9 30.55 16.89 30.48 16.84 30.33 16.82 30.31 16.78 30.3 16.74 30.16 16.69 30.12 16.65 30.02 16.64 29.9 16.61 29.89 16.58 29.78 16.52 29.75 16.49 29.73 16.46 29.67 16.45 29.56 16.43 29.52 16.4 29.5 16.39 29.43 16.36 29.39 16.32 29.29 16.31 29.19 16.27 29.14 16.26 29.06 16.17 29.01 16.16 29 16.15 29.01 16.12 28.97 16.12 28.89 16.1 28.79 16.13 28.67 16.1 28.63 16.1 28.6 16.12 28.56 16.13 28.48 16.14 28.46 16.13 28.4 16.09 28.27 16.1 28.25 16.15 28.22 16.15 28.14 16.14 28.13 16.14 28.09 16.12 28.09 16.12 28.03 16.12 27.89 16.15 27.82 16.07 27.7 16.04 27.69 16.05 27.65 16.07 27.62 16.03 27.55 16.03 27.53 15.99 27.52 15.95 27.54 15.89 27.5 15.86 27.54 15.77 27.53 15.73 27.48 15.7 27.41 15.64 27.34 15.65 27.26 15.7 27.21 15.71 27.18 15.76 27.17 15.88 27.12 15.89 27.11 15.96 27.17 16 27.13 16.07 27.11 16.06 27.07 16.04 27.04 16.05 26.97 16.08 26.9 16.02 26.79 16.04 26.68 16.02 26.62 16.01 26.52 15.99 26.49 15.97 26.48 15.94 26.42 15.95 26.38 15.91 26.26 15.91 26.22 15.86 26.11 15.86 26 15.8 25.94 15.78 25.93 15.77 25.88 15.77 25.8 15.75 25.76 15.72 25.76 15.71 25.68 15.71 25.63 15.67 25.55 15.67 25.47 15.69 25.38 15.69 25.35 15.67 25.24 15.6 25.13 15.56 25.02 15.56 24.91 15.48 24.78 15.44 24.63 15.44 24.52 15.4 24.46 15.4 24.42 15.38 24.4 15.39 24.34 15.34 24.31 15.32 24.26 15.34 24.22 15.34 24.15 15.33 24.1 15.31 24.08 15.32 24.05 15.32 24.01 15.34 24 15.31 23.98 15.32 23.84 15.28 23.67 15.25 23.66 15.26 23.57 15.27 23.5 15.26 23.34 15.33 23.21 15.34 23.09 15.36 23.05 15.36 23.02 15.33 23 15.31 22.91 15.36 22.85 15.38 22.84 15.37 22.74 15.42 22.68 15.41 22.53 15.44 22.48 15.44 22.44 15.42 22.36 15.42 22.32 15.46 22.26 15.43 22.23 15.43 22.14 15.41 22.04 15.42 21.88 15.41 21.82 15.39 21.78 15.39 21.72 15.41 21.68 15.39 21.6 15.37 21.56 15.36 21.48 15.33 21.4 15.34 21.3 15.31 21.2 15.31 21.12 15.33 21 15.37 20.99 15.44 21.03 15.53 20.91 15.55 20.85 15.58 20.83 15.57 20.55 15.58 20.53 15.59 20.49 15.66 20.47 15.63 20.33 15.61 20.3 15.62 20.27 15.67 20.21 15.73 20.22 15.79 20.18 15.86 20.19 15.89 20.04 15.93 19.99 15.92 19.92 15.94 19.85 15.92 19.79 15.91 19.78 15.9 19.75 15.91 19.64 15.88 19.55 15.89 19.44 15.86 19.39 15.84 19.39 15.85 19.3 15.79 19.22 15.79 19.13 15.8 19.1 15.8 19.08 15.76 18.99 15.75 18.99 15.75 18.98 15.78 18.9 15.78 18.87 15.75 18.85 15.77 18.79 15.8 18.76 15.8 18.64 15.82 18.62 15.88 18.59 15.86 18.53 15.82 18.51 15.76 18.53 15.68 18.51 15.57 18.41 15.41 18.33 15.39 18.34 15.39 18.23 15.43 18.22 15.49 18.16 15.58 18.13 15.62 18.13 15.68 18.17 15.71 18.13 15.8 18.13 15.84 18.07 15.89 18.04 15.91 17.97 16.02 17.92 16.05 17.88 16.08 17.88 16.14 17.81 16.2 17.81 16.25 17.84 16.29 17.79 16.29 17.76 16.35 17.76 16.39 17.77 16.42 17.74 16.43 17.67 16.57 17.64 16.58 17.6 16.57 17.57 16.52 17.53 16.51 17.47 16.55 17.41 16.58 17.42 16.6 17.44 16.7 17.4 16.73 17.4 16.74 17.42 16.76 17.42 16.78 17.28 16.78 17.24 16.76 17.21 16.82 17.16 16.85 17.16 16.93 17.02 16.99 17.02 17.06 16.93 17.08 16.81 17.11 16.77 17.09 16.73 17.08 16.72 17.08 16.68 17.12 16.6 17.23 16.46 17.23 16.41 17.17 16.36 17.14 16.28 17.14 16.26 17.15 16.22 17.15 16.06 17.23 16 17.23 15.92 17.26 15.89 17.3 15.87 17.32 15.84 17.32 15.81 17.47 15.72 17.47 15.69 17.46 15.67 17.47 15.63 17.52 15.59 17.54 15.56 17.54 15.53 17.59 15.46 17.58 15.43 17.58 15.37 17.66 15.23 17.65 15.19 17.69 15.14 17.69 15 17.74 14.93 17.73 14.85 17.78 14.77 17.79 14.72 17.88 14.71 17.89 14.6 17.86 14.5 17.88 14.47 17.72 14.34 17.65 14.32 17.64 14.3 17.65 14.22 17.72 14.16 17.75 14.16 17.8 14.18 17.81 14.21 17.91 14.21 17.92 14.23 17.98 14.27 17.99 14.18 18.06 14.15 18.08 14.16 18.1 14.13 18.11 14.04 18.12 14.02 18.16 14.03 18.12 13.84 18.17 13.72 18.17 13.69 18.15 13.69 18.15 13.68 18.17 13.53 18.2 13.51 18.24 13.51 18.25 13.5 18.24 13.46 18.25 13.35 18.27 13.33 18.31 13.33 18.31 13.31 18.3 13.27 18.27 13.26 18.29 13.23 18.31 13.22 18.35 13.16 18.35 13.12 18.3 13.07 18.29 13.03 18.32 12.94 18.27 12.85 18.29 12.81 18.28 12.74 18.31 12.73 18.31 12.71 18.27 12.61 18.23 12.57 18.05 12.47 18.01 12.38 18.03 12.31 18.13 12.27 18.18 12.28 18.25 12.23 18.3 12.23 18.32 12.21 18.39 12.23 18.44 12.22 18.49 12.23 18.56 12.27 18.65 12.25 18.69 12.26 18.72 12.29 18.74 12.28 18.78 12.19 18.81 12.15 18.81 12.08 18.82 12.05 18.89 11.98 18.9 11.92 18.91 11.9 18.97 11.86 18.99 11.78 19.01 11.75 19.01 11.73 19.05 11.71 19.08 11.71 19.09 11.67 19.14 11.58 19.14 11.55 19.21 11.55 19.28 11.44 19.31 11.42 19.35 11.41 19.34 11.37 19.39 11.3 19.39 11.28 19.47 11.29 19.48 11.23 19.51 11.16 19.56 11.15 19.58 11.17 19.61 11.1 19.59 11.09 19.58 11.1 19.54 10.95 19.53 10.94 19.58 10.87 19.58 10.84 19.62 10.85 19.77 10.89 19.8 10.96 19.86 10.94 19.91 10.95 19.93 10.98 20.05 10.97 20.08 10.99 20.11 10.99 20.14 11.01 20.17 11 20.17 10.95 20.22 10.91 20.23 10.86 20.3 10.8 20.29 10.7 20.21 10.66 20.19 10.67 20.14 10.69 20.13 10.66 20.06 10.63 20.04 10.53 20.08 10.48 20.11 10.45 20.14 10.44 20.17 10.45 20.22 10.41 20.36 10.41 20.42 10.47 20.43 10.52 20.5 10.51 20.71 10.36 20.71 10.33 20.72 10.34 20.76 10.33 20.81 10.28 21 10.18 21.04 10.17 21.06 10.19 21.08 10.2 21.09 10.18 21.14 10.17 21.19 10.13 21.32 10.08 21.53 10.03 21.57 9.99 21.74 9.98 22.01 9.84 22.16 9.78 22.27 9.79 22.31 9.81 22.4 9.8 22.45 9.83 22.56 9.8 22.6 9.8 22.68 9.82 22.72 9.85 22.85 9.84 22.97 9.78 23.09 9.74 23.1 9.71 23.08 9.69 23.08 9.59 23.05 9.56 23.04 9.5 23.06 9.47 23.12 9.43 23.21 9.4 23.24 9.35 23.41 9.34 23.45 9.36 23.49 9.38 23.5 9.41 23.53 9.4 23.56 9.42 23.58 9.48 23.62 9.46 23.59 9.49 23.61 9.51 23.67 9.52 23.66 9.47 23.67 9.4 23.65 9.37 23.65 9.34 23.67 9.31 23.75 9.25 23.79 9.25 23.8 9.28 23.84 9.26 23.93 9.26 24.01 9.24 24.13 9.26 24.17 9.22 24.32 9.22 24.38 9.23 24.5 9.29 24.52 9.33 24.64 9.45 24.81 9.46 24.82 9.42 24.84 9.39 24.84 9.37 24.92 9.3 24.97 9.28 25.01 9.19 25.04 9.17 25.11 9.17 25.13 9.21 25.17 9.2 25.2 9.17 25.23 9.17 25.27 9.14 25.36 9.17 25.43 9.14 25.51 9.13 25.52 9.07 25.51 9.05 25.51 9.02 25.54 8.96 25.58 8.94 25.63 8.86 25.67 8.86 25.73 8.91 25.81 8.92 25.85 8.95 25.85 9 25.87 9.01 25.87 9.03 25.92 8.98 25.92 8.93 25.98 8.85 26.01 8.75 26.12 8.58 26.29 8.39 26.42 8.3 26.47 8.28 26.52 8.24 26.93 8.05 27.25 8.03 27.32 8.06 27.41 8.07 27.44 8.11 27.5 8.13 27.54 8.21 27.58 8.23 27.64 8.32 27.69 8.35 27.72 8.39 27.78 8.45 27.78 8.46 27.82 8.5 27.83 8.54 28.02 8.53 28.02 8.49 28.06 8.48 28.18 8.39 28.21 8.39 28.26 8.35 28.39 8.31 28.46 8.33 28.58 8.34 28.73 8.38 28.84 8.39 28.86 8.41 28.94 8.41 29.03 8.39 29.19 8.43 29.25 8.48 29.33 8.52 29.34 8.54 29.36 8.6 29.4 8.62 29.53 8.63 29.56 8.66 29.78 8.65 29.96 8.72 30.06 8.78 30.12 8.8 30.2 8.87 30.26 8.89 30.36 8.97 30.39 9.01 30.49 9.06 30.5 9.11 30.53 9.14 30.56 9.12 30.63 9.12 30.68 9.16 30.7 9.22 30.71 9.23 30.81 9.21 30.88 9.18 31.14 9.16 31.21 9.17 31.26 9.15 31.39 9.19 31.43 9.19 31.46 9.17 31.51 9.16 31.51 9.07 31.53 9.04 31.58 9.01 31.62 8.96 31.69 8.94 31.72 8.95 31.71 9.03 31.75 9.07 31.76 9.11 31.79 9.13 31.81 9.09 31.82 9.04 31.88 8.98 31.9 8.93 31.96 8.92 31.97 8.99 31.99 9.04 32.02 9.05 32.07 9.03 32.13 9.05 32.13 9.11 32.09 9.16 32.09 9.18 32.13 9.22 32.16 9.3 32.2 9.36 32.24 9.37 32.38 9.45 32.54 9.48 32.72 9.46 32.79 9.42 32.91 9.37 32.93 9.33 33.04 9.24 33.12 9.28 33.24 9.28 33.31 9.3 33.32 9.28 33.37 9.27 33.4 9.24 33.4 9.19 33.49 9.13 33.49 9.09 33.51 9.06 33.55 9.04 33.58 9.04 33.62 9.09 33.75 9.13 34.28 9.03 34.28 8.93 34.25 8.86 34.25 8.82 34.28 8.73 34.37 8.67 34.37 8.62 34.38 8.61 34.44 8.59 34.5 8.6 34.55 8.56 34.67 8.57 34.7 8.54 34.73 8.55 34.78 8.6 34.84 8.7 34.83 8.76 34.81 8.82 34.79 8.82 34.77 8.94 34.74 8.99 34.71 9.12 34.66 9.17 34.63 9.21 34.65 9.29 34.69 9.29 34.72 9.32 34.72 9.39 34.75 9.4 34.76 9.39 34.78 9.41 34.79 9.42 34.77 9.43 34.77 9.45 34.78 9.49 34.87 9.51 34.95 9.61 34.95 9.65 34.98 9.65 35.08 9.72 35.11 9.7 35.12 9.68 35.17 9.67 35.19 9.62 35.22 9.6 35.31 9.63 35.54 9.62 35.63 9.64 35.74 9.57 35.74 9.54 35.76 9.5 35.83 9.49 35.9 9.45 35.93 9.46 35.93 9.49 35.97 9.51 35.98 9.57 36.02 9.66 36.02 9.69 36 9.72 35.99 9.78 36.01 9.8 36.02 9.91 36.03 9.93 36.02 9.96 36.08 10.04 36.11 10.05 36.11 10.07 36.18 10.17 36.18 10.2 36.25 10.24 36.32 10.36 36.35 10.38 36.36 10.44 36.39 10.58 36.45 10.65 36.48 10.63 36.5 10.59 36.56 10.55 36.71 10.49 36.73 10.51 36.73 10.53 36.72 10.52 36.73 10.56 36.8 10.55 36.85 10.62 36.92 10.65 37.04 10.73 37.08 10.8 37.08 10.84 37.07 10.87 37.02 10.88 37.02 10.91 37.02 11.09 37.06 11.23 37.15 11.32 37.21 11.48 37.28 11.48 37.31 11.5 37.36 11.6 37.46 11.66 37.6 11.81 37.63 11.82 37.77 11.75 37.8 11.72 37.84 11.72 37.89 11.69 37.97 11.68 38.01 11.68 38.04 11.74 38.1 11.78 38.17 11.92 38.16 11.92 38.14 11.96 38.11 11.98 38.07 12.1 38.03 12.17 38.04 12.24 38.07 12.27 38.09 12.27 38.1 12.31 38.15 12.3 38.24 12.4 38.3 12.44 38.58 12.66 38.65 12.74 38.68 12.76 38.72 12.81 38.79 12.91 38.85 12.98 38.88 13.05 39.02 13.22 39.13 13.33 39.19 13.35 39.35 13.47 39.5 13.61 39.58 13.73 39.63 13.93 39.68 14.01 39.69 14.07 39.73 14.1 39.76 14.1 39.94 14.09 40.01 14.12 40.09 14.14 40.15 14.2 40.15 14.21 40.11 14.27 40.13 14.34 40.12 14.39 40.29 14.7 40.31 14.7 40.39 14.83 40.45 14.89 40.59 15.12 40.67 15.21 40.82 15.4 40.91 15.46 41.08 15.79 41.21 15.96 41.27 16 41.41 16.15 41.5 16.17 41.55 16.13 41.59 16.13 41.66 16.21 41.65 16.25 41.8 16.34 41.89 16.38 41.96 16.37 41.99 16.4 42.03 16.47 42.08 16.47 42.1 16.52 42.14 16.55 42.2 16.56 42.27 16.68 42.36 16.72 42.41 16.76 42.53 16.78 42.55 16.75 42.59 16.74 42.72 16.74 42.83 16.76 42.85 16.79 42.86 16.81 42.85 16.84 42.88 16.9 42.87 16.9 42.88 16.97 42.93 17.05 42.94 17.09 42.98 17.19 43.01 17.22 43.03 17.21 43.03 17.17 43.01 17.12 42.98 17.05 42.98 16.99 42.95 16.95 42.96 16.87 42.94 16.86 42.92 16.86 42.9 16.88 42.9 16.87 42.96 16.8 42.97 16.71 42.98 16.7 43.08 16.68 43.12 16.69 43.13 16.7 43.14 16.79 43.18 16.85 43.18 16.89 43.17 16.92 43.17 16.94 43.2 16.99 43.18 17.07 43.19 17.1 43.23 17.17 43.23 17.21 43.21 17.28 43.25 17.35 43.28 17.35 43.29 17.32 43.3 17.31 43.39 17.3 43.53 17.21 43.59 17.19 43.64 17.22 43.65 17.29 43.66 17.3 43.8 17.32 43.79 17.37 43.81 17.4 43.81 17.44 43.79 17.48 43.74 17.5 43.68 17.48 43.66 17.48 43.65 17.5 43.67 17.56 43.66 17.59 43.72 17.67 43.71 17.72 43.73 17.74 43.78 17.74 43.82 17.76 43.84 17.78 43.84 17.82 43.82 17.85 43.83 17.87 43.85 17.87 43.91 17.91 43.94 17.96 43.99 17.95 44.06 18.02 44.09 18.08 44.15 18.09 44.24 18.19 44.3 18.21 44.32 18.21 44.39 18.17 44.51 18.15 44.5 18.21 44.44 18.35 44.42 18.36 44.41 18.43 44.39 18.47 44.42 18.52 44.51 18.55 44.54 18.54 44.6 18.49 44.66 18.49 44.71 18.57 44.74 18.58 44.84 18.59 44.91 18.65 44.97 18.62 45.03 18.62 45.06 18.66 45.07 18.68 45.08 18.69 45.13 18.66 45.16 18.58 45.23 18.57 45.28 18.48 45.34 18.44 45.37 18.44 45.44 18.51 45.45 18.59 45.38 18.67 45.35 18.68 45.33 18.7 45.33 18.73 45.34 18.81 45.32 18.86 45.38 18.9 45.41 18.96 45.46 19.03 45.52 19.04 45.56 19.07 45.59 19.09 45.63 19.17 45.7 19.18 45.73 19.2 45.79 19.31 45.85 19.34 45.96 19.34 46.02 19.4 46.1 19.43 46.16 19.52 46.28 19.55 46.38 19.66 46.49 19.68 46.5 19.7 46.53 19.7 46.58 19.66 46.61 19.53 46.6 19.46 46.69 19.46 46.69 19.5 46.69 19.62 46.71 19.69 46.74 19.69 46.8 19.63 46.83 19.66 46.83 19.73 46.8 19.77 46.78 19.77 46.77 19.79 46.82 19.86 46.83 19.91 46.89 19.99 46.91 20.06 47.04 20.14 47.1 20.2 47.15 20.2 47.2 20.25 47.27 20.34 47.32 20.36 47.36 20.43 47.36 20.45 47.48 20.51 47.55 20.61 47.62 20.64 47.66 20.69 47.67 20.69 47.67 20.7 47.74 20.7 47.79 20.78 47.83 20.8 47.88 20.78 47.9 20.79 47.94 20.75 47.94 20.72 48.03 20.72 48.06 20.69 48.06 20.71 48.07 20.71 48.09 20.65 48.16 20.66 48.21 20.7 48.35 20.69 48.36 20.74 48.37 20.78 48.37 20.78 48.37 20.81 48.33 20.84 48.33 20.88 48.35 20.9 48.37 20.9 48.4 20.93 48.4 20.96 48.46 20.99 48.47 21.06 48.47 21.11 48.45 21.12 48.4 21.21 48.36 21.28 48.4 21.31 48.4 21.31 48.46 21.29 48.56 21.32 48.59 21.31 48.66 21.32 48.69 21.35 48.69 21.38 48.65 21.41 48.62 21.45 48.57 21.48 48.53 21.49 48.51 21.52 48.48 21.57 48.49 21.58 48.49 21.59 48.44 21.68 48.45 21.71 48.52 21.74 48.53 21.78 48.52 21.85 48.53 21.92 48.52 21.98 48.48 22.02 48.48 22.06 48.61 22.16 48.6 22.2 48.56 22.26 48.51 22.3 48.47 22.34 48.48 22.36 48.53 22.37 48.55 22.45 48.51 22.5 48.51 22.53 48.5 22.53 48.49 22.5 48.48 22.54 48.44 22.59 48.44 22.61 48.46 22.64 48.49 22.8 48.51 22.81 48.53 22.87 48.51 22.93 48.5 23.31 48.53 23.33 48.53 23.36 48.55 23.39 48.59 23.39 48.56 23.4 48.56 23.44 48.61 23.5 48.61 23.57 48.64 23.58 48.69 23.67 48.7 23.74 48.72 23.74 48.76 23.8 48.79 23.75 48.78 23.82 48.83 24.02 48.9 24.13 48.92 24.27 48.93 24.29 48.92 24.31 48.93 24.33 48.95 24.33 48.98 24.38 48.99 24.42 48.98 24.53 49 24.56 49 24.71 49.01 24.72 49.01 24.84 48.96 25.07 48.98 25.08 48.98 25.09 48.95 25.2 48.95 25.24 48.93 25.31 48.89 25.35 48.91 25.42 48.92 25.43 48.88 25.48 48.89 25.5 48.87 25.51 48.88 25.64 48.89 25.66 48.95 25.74 48.98 25.81 49.04 25.85 49.13 25.84 49.18 25.77 49.21 25.77 49.23 25.81 49.22 25.85 49.22 25.89 49.23 25.91 49.3 25.92 49.39 25.86 49.45 25.87 49.52 25.85 49.59 25.86 49.65 25.91 49.79 25.98 49.8 26.01 49.87 26.06 49.92 26.13 49.93 26.18 49.96 26.22 49.96 26.28 49.94 26.31 49.94 26.39 49.88 26.45 49.81 26.47 49.81 26.48 49.83 26.5 49.77 26.55 49.72 26.56 49.7 26.62 49.62 26.71 49.55 26.94 49.55 27.08 49.58 27.11 49.57 27.14 49.64 27.2 49.81 27.24 49.84 27.26 49.87 27.24 49.9 27.24 49.98 27.33 50.05 27.38 50.09 27.38 50.09 27.4 50.26 27.41 50.28 27.46 50.33 27.52 50.34 27.52 50.35 27.53 50.36 27.53 50.38 27.55 50.37 27.46 50.38 27.45 50.41 27.45 50.43 27.48 50.46 27.55 50.47 27.63 50.48 27.64 50.51 27.63 50.57 27.66 50.59 27.71 50.64 27.71 50.7 27.76 50.77 27.76 50.84 27.77 50.96 27.84 50.98 27.83 50.98 27.85 51.02 27.88 51.09 27.89 51.13 27.93 51.14 27.96 51.3 27.98 51.36 27.98 51.4 28.03 51.56 28 51.68 27.95 51.79 27.95 51.79 27.91 51.84 27.96 51.85 27.95 51.84 27.88 51.85 27.82 51.84 27.8 51.87 27.78 51.92 27.78 51.98 27.76 52.09 27.77 52.26 27.72 52.33 27.72 52.36 27.7 52.41 27.69 52.45 27.74 52.48 27.74 52.52 27.77 52.51 27.83 52.55 27.87 52.54 27.9 52.57 27.9 52.62 27.93 52.65 27.94 52.69 27.9 52.69 27.88 52.77 27.85 52.84 27.85 52.91 27.9 52.94 27.9 53.05 27.96 53.06 27.98 53.09 27.98 53.09 28 53.12 28.01 53.12 28.03 53.25 28.16 53.31 28.2 53.33 28.25 53.95 28.14 53.97 28.32 53.59 28.39 53.5 28.39 53.84 29.35 53.93 29.3 53.97 29.36 53.51 29.55 53.49 29.49 53.69 29.4 53.4 28.64 53.18 28.72 53.13 28.56 53.11 28.56 53.09 28.48 52.75 28.61 52.77 28.63 52.77 28.63 52.85 28.73 52.85 28.73 52.56 28.42 52.61 28.29 51.99 28.07 51.94 28.08 51.84 28.31 51.77 28.54 52.37 28.82 52.45 28.65 52.62 28.72 52.8 28.91 52.99 28.98 53.13 29.44 53.33 29.74 53.29 29.77 53.3 29.86 53.38 29.88 53.53 30.04 53.52 30.17 53.64 30.12 53.58 29.99 53.68 29.94 53.73 29.98 53.8 30.03 53.83 30.1 53.77 30.2 53.76 30.25 53.76 30.3 53.78 30.34 53.88 30.29 53.89 30.25 53.97 30.21 54.01 30.19 54.06 30.16 54.09 30.11 54.19 30.06 54.25 30.01 54.34 30.01 54.46 29.97 54.49 29.93 54.48 29.92 54.48 29.91 54.51 29.91 54.52 29.89 54.51 29.85 54.52 29.81 54.59 29.74 54.65 29.74 54.73 29.71 54.49 29.01 54.25 29.11 54.22 29.04 54.54 28.88 54.54 28.69 54.5 28.57 54.4 28.48 54.13 27.73 54.1 27.74 53.76 26.79 53.96 26.72 54.72 28.84 54.77 28.95 54.91 29.36 54.96 29.34 54.99 29.35 55.01 29.36 55.04 29.41 55.12 29.4 55.26 29.44 55.28 29.48 55.3 29.54 55.32 29.55 55.39 29.65 55.45 29.66 55.5 29.73 55.54 29.72 55.6 29.73 55.67 29.72 55.76 29.67 55.85 29.68 55.95 29.72 56.13 29.71 56.22 29.72 56.26 29.75 56.3 29.75 56.33 29.72 56.39 29.71 56.42 29.73 56.42 29.76 56.39 29.79 56.41 29.84 56.52 29.95 56.53 29.97 56.54 30.03 56.56 30.09 56.59 30.3 56.66 30.32 56.69 30.34 56.73 30.41 56.74 30.54 56.8 30.55 56.88 30.63 56.84 30.69 56.85 30.7 56.9 30.76 57.04 30.87 57.07 30.93 57.14 30.93 57.23 30.98 57.26 30.98 57.3 30.94 57.33 30.95 57.41 30.96 57.41 30.95 57.37 30.89 57.38 30.88 57.53 30.91 57.56 30.93 57.57 30.98 57.77 31.05 58.01 31.08 58.04 31.07 58.1 31.01 58.15 31 58.21 31.01 58.32 31.06 58.39 31.04 58.41 31.07 58.51 31.09 58.55 31.11 58.6 31.17 58.73 31.19 58.75 31.18 58.8 31.09 58.79 31 58.75 30.96 58.72 30.91 58.69 30.91 58.68 30.9 58.67 30.85 58.64 30.85 58.62 30.83 58.61 30.81 58.63 30.73 58.6 30.71 58.6 30.68 58.56 30.59 58.55 30.55 58.58 30.5 58.6 30.49 58.67 30.53 58.75 30.55 58.76 30.57 58.76 30.64 58.78 30.67 58.85 30.74 58.87 30.82 58.87 30.87 58.93 30.95 58.95 30.97 58.97 31.02 59.16 31.18 59.17 31.25 59.22 31.32 59.24 31.4 59.29 31.44 59.31 31.5 59.6 31.38 59.61 31.39 59.62 31.41 59.62 31.42 59.31 31.54 59.31 31.58 59.44 31.67 59.47 31.73 59.49 31.74 59.5 31.76 59.51 31.8 59.47 31.94 59.45 31.97 59.42 31.99 59.41 32.04 59.36 32.09 59.36 32.16 59.38 32.22 59.36 32.34 59.43 32.48 59.48 32.52 59.55 32.62 59.73 32.77 59.8 32.76 59.96 32.88 60.02 32.92 60.03 32.97 59.93 33.28 59.94 33.46 59.99 33.64 60.04 33.71 60.04 33.86 60.25 34.17 60.31 34.29 60.33 34.35 60.34 34.37 60.32 34.59 60.3 34.67 60.34 34.77 60.65 35.02 61.77 34.46 61.94 34.87 62.81 34.42 62.93 34.39 63.63 34.66 63.58 34.81 62.89 34.55 60.45 35.78 60.41 35.73 60.38 35.74 60.38 35.78 60.34 35.83 60.33 35.88 60.38 36 60.41 36.01 60.4 36.04 60.36 36.04 60.39 36.07 60.39 36.14 60.35 36.19 60.31 36.28 60.37 36.29 60.36 36.3 60.36 36.31 60.38 36.34 60.37 36.38 60.49 36.35 60.53 36.35 60.54 36.4 60.48 36.41 60.39 36.46 60.41 36.59 60.61 36.56 60.58 36.24 60.7 36.23 60.71 36.35 60.74 36.63 60.43 36.67 60.44 36.78 60.44 36.82 60.45 36.84 60.43 36.85 60.42 36.94 60.47 37.01 60.51 37.06 60.53 37.07 60.63 37.09 60.67 37.12 60.7 37.16 60.89 37.28 61.07 37.27 61.16 37.21 61.25 37.2 61.32 37.2 61.34 37.2 61.35 37.18 61.37 37.19 61.45 37.17 61.82 37.15 61.93 37.11 61.99 37.04 62.09 36.98 62.12 36.94 62.28 36.94 62.43 36.89 62.45 36.9 62.46 36.92 62.44 37 62.46 37 62.46 37.03 62.55 37.03 62.65 37.09 62.78 37.14 63.04 37.2 63.18 37.19 63.28 37.21 63.39 37.22 63.61 37.24 63.68 37.29 63.73 37.36 63.77 37.38 63.84 37.44 64 37.48 64 37.49 64.23 37.57 64.36 37.65 64.54 37.8 64.61 37.85 64.62 37.87 64.98 38.13 65.08 38.23 65.17 38.36 65.2 38.38 65.22 38.42 65.28 38.5 65.53 38.61 66.23 38.86 66.34 38.93 66.74 39.03 67.03 39.02 67.34 39.04 67.49 39.06 67.64 39.09 68.2 39.11 68.35 39.11 68.83 39.06 69.06 39 69.39 38.94 69.55 38.9 69.64 38.86 69.68 38.87 69.77 38.84 70 38.82 70.1 38.78 70.23 38.78 70.28 38.73 70.28 38.72 70.27 38.72 70.3 38.69 70.31 38.62 70.35 38.57 70.36 38.49 70.38 38.49 70.47 38.52 70.5 38.55 70.51 38.62 70.55 38.67 70.62 38.72 70.76 38.7 70.88 38.65 70.98 38.63 71.25 38.57 71.31 38.56 71.36 38.58 71.46 38.56 71.71 38.54 72.02 38.6 72.16 38.62 72.24 38.61 72.3 38.65 72.44 38.74 72.47 38.79 72.55 38.81 72.65 38.89 72.73 38.89 72.75 38.93 72.8 38.95 72.84 38.99 73.08 39.06 73.12 39.11 73.34 39.2 73.36 39.24 73.7 39.37 74.17 39.49 74.56 39.62 74.65 39.64 74.71 39.67 74.78 39.68 75.06 39.76 75.12 39.75 75.18 39.73 75.29 39.73 75.33 39.71 75.41 39.72 75.41 39.74 75.44 39.76 75.55 39.73 75.65 39.73 75.69 39.69 75.76 39.68 75.84 39.69 75.93 39.67 76.05 39.7 76.07 39.68 76.2 39.69 76.24 39.65 76.33 39.63 76.38 39.59 76.44 39.59 76.49 39.55 76.58 39.51 76.63 39.45 76.72 39.41 76.77 39.36 76.88 39.37 76.95 39.35 77.03 39.35 77.1 39.37 77.22 39.32 77.33 39.33 77.35 39.34 77.38 39.4 77.3 39.51 77.26 39.54 77.15 39.57 77.04 39.67 76.98 39.68 76.89 39.67 76.82 39.64 76.75 39.63 76.72 39.64 76.72 39.66 76.72 39.69 76.73 39.73 76.74 39.87 76.77 39.94 76.96 40.28 76.99 40.31 77.06 40.37 77.14 40.39 77.14 40.37 77.19 40.35 77.24 40.29 77.25 40.23 77.27 40.2 77.27 40.14 77.29 40.09 77.28 40.05 77.32 40.04 77.33 40.05 77.33 40.1 77.35 40.17 77.38 40.24 77.38 40.31 77.39 40.33 77.4 40.39 77.33 40.45 77.31 40.52 77.27 40.55 77.19 40.58 77.17 40.68 77.11 40.72 77.1 40.79 77.11 40.84 77.12 40.83 77.12 40.93 77.14 40.96 77.19 41.01 77.46 41.25 77.58 41.31 77.62 41.35 77.73 41.48 77.81 41.61 77.86 41.7 77.89 41.81 77.95 41.91 78.06 42.02 78.14 42.14 78.23 42.33 78.3 42.54 78.32 42.71 78.34 42.7 78.43 42.97 78.45 42.99 78.51 43.08 78.55 43.1 78.68 43.25 78.71 43.3 78.76 43.43 78.78 43.45 78.82 43.59 78.95 43.88 78.95 43.93 78.94 43.97 78.94 44.15 78.99 44.42 79.01 44.68 79.03 44.8 79.14 45.11 79.19 45.29 79.22 45.56 79.35 45.96 79.56 46.7 79.61 46.81 79.65 47 79.67 47.05 79.73 47.25 79.85 47.53 80.31 48.41 80.44 48.59 80.64 48.95 80.98 49.42 81.12 49.58 81.19 49.57 81.25 49.59 81.27 49.58 81.32 49.61 81.37 49.8 81.44 49.9 81.49 49.92 81.56 50.01 81.57 50.02 81.61 50.12 81.67 50.17 81.71 50.27 81.77 50.3 81.84 50.41 81.89 50.41 81.94 50.45 82.06 50.48 82.14 50.53 82.24 50.55 82.28 50.58 82.31 50.68 82.33 50.74 82.42 50.85 82.64 51.27 82.71 51.46 82.78 51.55 82.87 51.75 82.89 51.75 82.89 51.77 82.9 51.79 83 51.82 83.05 51.9 83.14 51.96 83.24 52.1 83.28 52.08 83.32 52.13 83.37 52.22 83.45 52.3 83.51 52.44 83.56 52.5 83.57 52.62 83.57 52.65 83.59 52.72 83.59 52.78 83.59 52.86 83.55 52.92 83.54 53.01 83.51 53.09 83.51 53.16 83.49 53.22 83.5 53.24 83.48 53.22 83.41 53.32 83.41 53.36 83.4 53.43 83.37 53.48 83.35 53.47 83.34 53.58 83.29 53.64 83.26 53.64 83.24 53.74 83.16 53.84 83.13 53.93 83.1 53.97 83.04 53.98 83 54.04 82.96 54.08 82.93 54.09 82.93 54.1 82.9 54.1 82.85 54.17 82.78 54.2 82.71 54.31 82.69 54.31 82.68 54.32 82.64 54.46 82.56 54.54 82.56 54.58 82.54 54.59 82.52 54.62 82.5 54.62 82.43 54.7 82.39 54.84 82.37 54.85 82.34 54.91 82.33 54.94 82.29 55 82.24 55.14 82.25 55.16 82.25 55.24 82.22 55.3 82.25 55.29 82.26 55.3 82.22 55.33 82.22 55.42 82.2 55.45 82.18 55.55 82.2 55.6 82.18 55.61 82.17 55.59 82.14 55.63 82.14 55.67 82.12 55.71 82.07 55.74 82.07 55.88 82.06 55.96 82.02 56.01 82.01 56.08 81.96 56.17 81.95 56.25 81.93 56.3 81.9 56.34 81.88 56.48 81.88 56.54 81.9 56.56 81.91 56.7 81.9 56.86 81.92 56.89 81.93 56.94 81.98 57.27 81.99 57.39 81.98 57.48 81.95 57.55 81.92 57.57 81.93 57.76 81.91 57.94 81.91 58.04 81.86 58.16 81.89 58.17 81.89 58.21 81.9 58.21 81.9 58.29 81.94 58.33 81.96 58.39 82 58.43 82.03 58.47 82.06 58.59 82.09 58.65 82.11 58.66 82.14 58.72 82.15 58.72 82.2 58.67 82.22 58.68 82.27 58.81 82.28 58.84 82.36 58.99 82.42 59.04 82.48 59.17 82.52 59.2 82.62 59.25 82.64 59.29 82.71 59.59 82.71 59.67 82.73 59.7 82.71 59.73 82.76 59.79 82.79 59.88 82.87 59.93 82.92 60.07 82.97 60.12 82.98 60.17 83.04 60.24 83.03 60.34 83.08 60.44 83.09 60.52 83.16 60.58 83.23 60.67 83.3 60.7 83.36 60.79 83.44 60.86 83.49 60.97 83.57 61.04 83.59 61.1 83.6 61.13 83.66 61.21 83.69 61.29 83.76 61.32 83.78 61.36 83.8 61.37 83.79 61.41 83.78 61.42 83.94 61.6 83.97 61.66 84 61.71 84.03 61.72 84.08 61.78 84.1 61.84 84.2 61.95 84.2 62 84.24 62.03 84.28 62.04 84.21 62.13 84.22 62.21 84.23 62.22 84.23 62.29 84.27 62.39 84.26 62.43 84.21 62.48 84.23 62.51 84.22 62.62 84.21 62.67 84.24 62.79 84.23 62.82 84.23 62.85 84.26 62.86 84.29 62.95 84.26 63.1 84.32 63.19 84.4 63.26 84.42 63.35 84.46 63.48 84.54 63.48 84.59 63.58 84.69 63.58 84.71 63.6 84.75 63.67 84.75 63.72 84.67 63.79 84.67 63.83 84.67 63.9 84.61 63.96 84.59 64.05 84.5 64.03 84.45 64.12 84.42 64.18 84.36 64.21 84.32 64.36 84.3 64.38 84.29 64.38 84.25 64.43 84.2 64.57 84.22 64.62 84.21 64.68 84.15 64.75 84.16 64.79 84.08 64.87 84.11 64.94 84.12 64.98 84.11 65.04 84.14 65.04 84.16 65.09 84.16 65.12 84.14 65.16 84.14 65.21 84.16 65.25 84.17 65.25 84.18 65.35 84.17 65.35 84.15 65.37 84.1 65.38 84.07 65.41 84.1 65.48 84.09 65.49 84.07 65.5 84.08 65.52 84.06 65.56 84.07 65.59 84.06 65.61 84 65.66 84.02 65.7 84.01 65.74 83.97 65.78 83.94 65.79 83.92 65.84 83.87 65.86 83.85 65.89 83.8 65.92 83.79 65.97 83.64 66.13 83.64 66.22 83.62 66.29 83.64 66.36 83.62 66.43 83.62 66.46 83.63 66.47 83.67 66.48 83.68 66.55 83.78 66.53 83.86 66.53 83.92 66.55 83.98 66.5 84.01 66.49 84.09 66.48 84.13 66.51 84.22 66.62 84.21 66.64 84.19 66.68 84.19 66.7 84.21 66.72 84.22 66.79 84.19 66.91 84.19 66.99 84.32 67.01 84.3 67.07 84.3 67.13 84.29 67.16 84.22 67.19 84.12 67.18 84.07 67.19 84.06 67.26 84.03 67.31 83.92 67.32 83.88 67.31 83.79 67.34 83.7 67.49 83.67 67.51 83.56 67.56 83.5 67.57 83.39 67.56 83.36 67.58 83.33 67.64 83.28 67.7 83.24 67.71 83.21 67.77 83.19 67.78 83.1 67.8 83.01 67.89 82.91 67.91 82.84 67.96 82.74 67.99 82.71 68.03 82.58 68.08 82.57 68.1 82.53 68.13 82.44 68.14 82.42 68.17 82.38 68.2 82.28 68.22 82.24 68.27 82.16 68.3 81.85 68.35 81.71 68.35 81.68 68.37 81.58 68.34 81.48 68.35 81.4 68.33 81.32 68.36 81.28 68.37 81.2 68.34 81.1 68.35 81.06 68.36 80.95 68.34 80.87 68.36 80.78 68.34 80.74 68.36 80.6 68.37 80.53 68.39 80.47 68.39 80.43 68.37 80.4 68.4 80.33 68.41 80.26 68.38 80.17 68.39 80.1 68.35 80.02 68.36 79.95 68.31 79.85 68.26 79.82 68.21 79.78 68.2 79.73 68.13 79.64 68.1 79.58 68.05 79.49 68.02 79.45 67.98 79.28 67.99 79.25 67.97 79.11 67.95 79.03 67.97 78.86 67.96 78.8 67.95 78.68 67.97 78.64 67.96 78.59 67.99 78.52 68 78.41 68.06 78.33 68.06 78.29 68.1 78.18 68.16 78.11 68.22 78.02 68.24 77.95 68.32 77.93 68.33 77.89 68.33 77.84 68.4 77.76 68.41 77.72 68.44 77.69 68.49 77.66 68.5 77.65 68.48 77.57 68.57 77.47 68.63 77.46 68.62 77.39 68.7 77.26 68.78 77.24 68.85 77.2 68.9 77.18 68.9 77.18 68.92 77.12 68.95 77.1 69.05 77.06 69.08 77.03 69.08 77.01 69.19 76.99 69.21 76.97 69.29 77.01 69.31 77.04 69.35 77.06 69.42 77.05 69.49 77.04 69.5 77.02 69.55 76.83 69.68 76.8 69.68 76.73 69.67 76.62 69.67 76.51 69.7 76.48 69.7 76.42 69.67 76.24 69.66 76.14 69.67 76.1 69.7 76.05 69.7 75.99 69.67 75.97 69.63 75.87 69.64 75.83 69.62 75.77 69.57 75.68 69.55 75.59 69.48 75.54 69.49 75.52 69.48 75.43 69.39 75.4 69.4 75.33 69.38 75.25 69.29 75.18 69.27 75.12 69.23 75 69.35 74.93 69.37 74.86 69.44 74.77 69.48 74.73 69.51 74.63 69.56 74.56 69.61 74.45 69.66 74.42 69.69 74.34 69.71 74.27 69.59 74.23 69.54 74.18 69.48 74.17 69.51 73.94 69.64 73.84 69.7 73.85 69.8 73.77 69.8 73.76 69.6 73.59 69.47 73.37 69.68 73.39 69.73 72.97 70.2 73.1 70.62 73.11 70.66 73.14 70.71 73.32 70.66 73.36 70.67 73.4 70.7 73.42 70.78 73.45 70.84 73.46 70.93 73.45 70.99 73.43 71.02 73.45 71.07 73.44 71.15 73.41 71.21 73.36 71.24 73.37 71.32 73.32 71.4 73.31 71.51 73.27 71.6 73.22 71.66 73.21 71.75 73.19 71.77 73.12 71.82 73.09 71.95 73.06 72.01 73.06 72.08 73.04 72.13 73.04 72.16 72.97 72.21 72.96 72.3 72.86 72.4 72.85 72.45 72.83 72.49 72.73 72.57 72.71 72.64 72.62 72.72 72.58 72.82 72.55 72.83 72.53 73 72.51 73.05 72.53 73.2 72.5 73.25 72.51 73.35 72.5 73.38 72.5 73.43 72.53 73.48 72.54 73.55 72.54 73.57 72.5 73.61 72.51 73.68 72.47 73.8 72.48 73.86 72.48 73.9 72.44 73.96 72.4 73.96 72.39 74.01 72.37 74.04 72.35 74.1 72.3 74.15 72.25 74.18 72.19 74.29 72.16 74.32 72.13 74.32 72.01 74.42 71.98 74.41 71.9 74.51 71.85 74.53 71.77 74.64 71.71 74.72 71.66 74.76 71.61 74.83 71.52 74.84 71.48 74.83 71.4 74.79 71.34 74.87 71.28 74.94 71.13 75.08 71 75.26 70.9 75.36 70.83 75.34 70.71 75.41 70.53 75.36 70.42 75.49 70.14 75.53 70.04 75.58 69.89 75.78 69.78 76 69.72 76.18 69.89 76.4 69.88 76.73 69.93 76.82 69.95 76.98 69.91 77.06 69.93 77.09 69.95 77.19 69.97 77.5 70.02 77.59 70.02 77.7 70.06 77.77 70.09 77.93 70.14 78 70.15 78.11 70.19 78.13 70.2 78.22 70.28 78.36 70.3 78.35 70.31 78.31 70.34 78.28 70.49 78.26 70.52 78.4 70.5 78.58 70.56 78.91 70.55 78.96 70.58 78.97 70.64 79.3 70.56 79.53 70.53 79.74 70.54 79.8 70.53 79.98 70.51 80.11 70.51 80.24 70.45 80.33 70.48 80.42 70.43 80.62 70.4 80.66 70.37 80.79 70.36 80.99 70.39 81.1 70.35 81.14 70.39 81.24 70.31 81.48 70.26 81.49 70.19 81.45 70.15 81.47 70.13 81.83 70.25 81.87 70.32 81.74 70.34 81.72 70.36 81.73 70.38 81.89 70.38 81.93 70.35 81.96 70.37 82.15 70.34 82.3 70.31 82.33 70.22 82.6 70.25 82.68 70.21 82.83 70.19 82.84 70.16 82.94 70.11 82.99 70.12 83.05 70.08 83.17 70.09 83.26 70.06 83.38 70.06 83.45 70.05 83.48 70.03 83.57 70.04 83.62 70.03 83.69 70.02 83.77 70 83.8 70.01 83.87 69.98 83.97 69.99 83.99 69.99 84.06 70 84.15 69.98 84.19 69.99 84.21 70 84.33 69.99 84.41 70 84.44 70.01 84.53 69.99 84.59 70.01 84.71 70.01 84.84 70.02 84.88 70.03 85.01 70.06 85.03 70.1 85.14 70.22 85.33 70.32 85.44 70.33 85.49 70.37 85.52 70.44 85.66 70.47 85.68 70.55 85.82 70.58 85.83 70.62 85.92 70.64 86.01 70.68 86.02 70.73 86.05 70.75 86.08 70.76 86.16 70.77 86.14 70.79 86.16 70.85 86.22 70.86 86.26 70.87 86.3 70.91 86.32 71.02 86.44 71.1 86.48 71.17 86.5 71.2 86.53 71.22 86.6 71.26 86.6 71.3 86.63 71.35 86.69 71.38 86.79 71.41 86.79 71.45 86.84 71.47 86.92 71.47 86.96 71.48 86.96 71.49 86.98 71.56 87.05 71.58 87.1 71.59 87.17 71.61 87.16 71.63 87.18 71.64 87.2 71.66 87.25 71.66 87.3 71.66 87.32 71.63 87.34 71.68 87.41 71.69 87.46 71.7 87.56 71.71 87.59 71.73 87.61 71.75 87.67 71.75 87.74 71.77 87.75 71.84 87.87 71.85 87.86 71.86 87.88 71.86 87.95 71.93 88.01 71.95 88.06 71.95 88.17 71.94 88.21 71.91 88.26 71.9 88.35 71.86 88.42 71.84 88.5 71.88 88.64 71.91 88.7 71.92 88.77 71.94 88.8 71.94 88.94 71.92 88.97 71.84 89 71.8 89 71.77 89.05 71.76 89.09 71.67 89.16 71.63 89.1 71.54 89.04 71.52 89.05 71.45 89.11 71.42 89.18 71.33 89.31 71.28 89.51 71.26 89.52 71.23 89.5 71.23 89.6 71.16 89.75 71.12 89.76 71.12 89.8 71.09 89.84 70.98 89.89 70.89 89.99 70.84 90.01 70.83 90.07 70.75 90.15 70.73 90.16 70.69 90.28 70.59 90.36 70.59 90.45 70.5 90.52 70.48 90.63 70.41 90.73 70.36 90.78 70.37 90.8 70.36 90.95 70.36 91.05 70.36 91.07 70.32 91.12 70.15 91.13 70.12 91.15 69.99 91.12 69.94 91.16 69.84 91.14 69.78 91.19 69.73 91.17 69.69 91.17 69.54 91.25 69.46 91.24 69.38 91.26 69.35 91.24 69.31 91.15 69.22 91.12 69.11 91.1 69.03 91.05 68.97 91.02 68.92 90.96 68.89 90.97 68.89 91 68.94 91.07 68.94 91.09 68.99 91.09 69.02 91.13 69.04 91.18 69.14 91.24 69.26 91.36 69.31 91.38 69.39 91.49 69.48 91.53 69.5 91.6 69.5 91.7 69.51 91.74 69.44 91.94 69.4 91.97 69.37 91.96 69.32 91.9 69.24 91.87 69.2 91.83 69.18 91.77 69.14 91.76 69.1 91.69 69.08 91.64 69.09 91.55 68.95 91.53 68.89 91.5 68.82 91.39 68.76 91.36 68.72 91.32 68.7 91.26 68.68 91.25 68.66 91.25 68.62 91.21 68.59 91.13 68.61 91.08 68.58 91.07 68.5 90.99 68.47 90.94 68.47 90.9 68.31 90.87 68.28 90.82 68.25 90.82 68.16 90.81 68.11 90.74 68.09 90.68 68.05 90.68 67.98 90.62 67.94 90.63 67.91 90.65 67.89 90.65 67.86 90.61 67.85 90.57 67.95 90.49 68.01 90.43 68.02 90.41 68.02 90.36 67.96 90.24 67.92 90.22 67.89 90.17 67.86 90.05 67.8 90.03 67.79 90.01 67.76 89.88 67.7 89.84 67.67 89.71 67.58 89.65 67.56 89.62 67.55 89.57 67.44 89.51 67.4 89.45 67.37 89.46 67.35 89.45 67.27 89.39 67.25 89.33 67.2 89.32 67.13 89.25 67.05 89.2 67.01 89.14 67.01 89.08 66.95 89.05 66.91 89.02 66.9 88.98 66.89 88.91 66.85 88.89 66.84 88.81 66.84 88.73 66.82 88.72 66.75 88.7 66.73 88.66 66.73 88.62 66.7 88.62 66.7 88.59 66.63 88.55 66.59 88.48 66.59 88.46 66.55 88.45 66.53 88.43 66.49 88.33 66.45 88.33 66.42 88.31 66.36 88.21 66.35 88.16 66.32 88.16 66.24 88.08 66.23 88.04 66.23 87.99 66.18 87.96 66.13 87.9 66.12 87.85 66.11 87.85 66.1 87.81 66.05 87.79 66.02 87.74 66.01 87.69 65.91 87.62 65.88 87.57 65.88 87.54 65.8 87.48 65.77 87.44 65.77 87.4 65.69 87.3 65.67 87.23 65.64 87.21 65.58 87.16 65.55 87.06 65.47 87 65.44 86.87 65.39 86.87 65.36 86.83 65.33 86.75 65.3 86.71 65.27 86.7 65.23 86.61 65.17 86.59 65.11 86.51 65.11 86.48 65.08 86.48 65.04 86.46 65.01 86.42 65 86.38 64.96 86.38 64.96 86.36 64.94 86.36 64.93 86.34 64.89 86.32 64.9 86.3 64.88 86.28 64.84 86.26 64.84 86.23 64.81 86.2 64.77 86.14 64.75 86.13 64.73 86.05 64.69 86.02 64.66 85.9 64.57 85.82 64.55 85.76 64.51 85.75 64.46 85.7 64.43 85.66 64.43 85.63 64.42 85.61 64.33 85.51 64.31 85.44 64.23 85.41 64.23 85.37 64.2 85.36 64.19 85.34 64.21 85.33 64.18 85.33 64.15 85.31 64.08 85.21 64.03 85.21 63.98 85.17 63.97 85.13 63.96 85.1 63.87 85.03 63.84 84.99 63.84 84.97 63.82 84.98 63.8 84.96 63.78 84.93 63.77 84.92 63.72 84.85 63.64 84.77 63.61 84.71 63.54 84.7 63.54 84.68 63.51 84.65 63.49 84.6 63.42 84.61 63.37 84.58 63.36 84.56 63.25 84.57 63.2 84.55 63.16 84.55 63.11 84.58 63.08 84.56 63.08 84.51 63.09 84.42 63.17 84.39 63.18 84.34 63.17 84.28 63.16 84.26 63.13 84.27 63.12 84.24 63.04 84.16 63 84.15 62.98 84.16 62.9 84.24 62.84 84.25 62.79 84.23 62.78 84.19 62.78 84.11 62.81 84.06 62.77 83.9 62.76 83.87 62.74 83.82 62.73 83.7 62.75 83.62 62.76 83.6 62.75 83.59 62.72 83.55 62.67 83.43 62.63 83.42 62.59 83.38 62.57 83.31 62.54 83.3 62.49 83.25 62.49 83.23 62.49 83.21 62.45 83.18 62.41 83.12 62.41 83.09 62.28 82.92 62.18 82.86 62.12 82.8 61.87 82.51 61.44 82.16 61.28 82.09 60.82 81.81 60.66 81.75 60.4 81.69 60.21 81.66 59.82 81.64 59.72 81.8 59.61 81.97 59.59 82.02 59.55 82 59.45 82.17 59.47 82.17 59.43 82.24 59.38 82.21 59.64 81.75 59.31 81.54 59.14 81.72 59.04 81.83 58.94 81.9 58.87 81.98 58.88 82.01 58.82 82.21 58.86 82.22 58.85 82.25 59.25 82.44 59.27 82.42 59.35 82.41 59.54 82.42 59.53 82.6 59.23 82.59 59.03 82.46 59.01 82.47 58.84 82.4 58.77 82.41 58.67 82.34 58.68 82.33 58.66 82.3 58.67 82.21 58.67 82.03 58.72 82 58.7 81.79 58.68 81.78 58.64 81.73 58.6 81.73 58.54 81.76 58.47 81.65 58.37 81.61 58.33 81.56 58.28 81.49 58.29 81.46 58.18 81.52 58.14 81.51 58.11 81.47 58.06 81.52 57.93 81.53 57.79 81.6 57.74 81.59 57.67 81.66 57.58 81.7 57.48 81.77 57.42 81.78 57.35 81.86 57.26 81.85 57.17 81.94 57.1 81.96 56.99 82.04 56.94 82.03 56.85 82.11 56.78 82.1 56.75 82.14 56.62 82.14 56.59 82.19 56.51 82.2 56.51 82.38 56.48 82.47 56.51 82.53 56.52 82.59 56.5 82.64 56.43 82.71 56.35 82.68 56.29 82.63 56.27 82.46 56.23 82.38 56.23 82.27 56.16 82.2 56.11 82.08 56.03 82.09 55.96 82.05 55.92 82 55.84 81.99 55.73 81.92 55.65 81.9 55.54 81.75 55.41 81.72 55.36 81.68 55.35 81.64 55.24 81.68 55.02 81.64 54.94 81.54 54.66 81.39 54.48 81.27 54.41 81.26 54.33 81.19 54.2 81.25 54.09 81.23 54.05 81.2 53.93 81.15 53.9 81.08 53.81 81.02 53.8 80.92 53.83 80.89 53.94 80.86 54.09 80.87 54.18 80.79 54.18 80.75 54.12 80.68 54.11 80.64 54.14 80.57 54.1 80.53 54.09 80.47 54.12 80.34 54.11 80.21 53.94 80.04 53.9 79.91 53.82 79.87 53.77 79.82 53.62 79.91 53.59 79.95 53.54 79.95 53.52 79.93 53.53 79.82 53.63 79.67 53.53 79.59 53.5 79.5 53.37 79.44 53.34 79.37 53.28 79.34 53.22 79.22 53.16 79.22 53.05 79.1 52.96 79.06 52.93 78.99 52.83 78.99 52.77 78.91 52.79 78.89 52.74 78.9 52.63 78.83 52.64 78.78 52.58 78.81 52.48 78.77 52.44 78.71 52.44 78.67 52.4 78.7 52.37 78.7 52.28 78.64 52.24 78.65 52.16 78.59 52.18 78.56 52.12 78.56 52.02 78.49 51.95 78.51 51.8 78.45 51.74 78.49 51.64 78.46 51.6 78.49 51.52 78.49 51.34 78.32 51.34 78.5 51.2 78.5 51.14 78.58 50.99 78.56 50.91 78.61 50.8 78.64 50.79 78.7 50.72 78.72 50.67 78.76 50.6 78.78 50.57 78.86 50.49 78.87 50.36 79 50.3 79.01 50.28 79.05 50.19 79.13 50.05 79.12 50 79.19 49.91 79.2 49.85 79.29 49.82 79.3 49.78 79.26 49.73 79.31 49.66 79.31 49.62 79.28 49.52 79.32 49.43 79.32 49.42 79.47 49.44 79.5 49.52 79.53 49.53 79.58 49.51 79.64 49.47 79.67 49.39 79.65 49.32 79.6 49.29 79.66 49.24 79.63 49.23 79.43 49.17 79.34 49.15 79.26 49.13 79.24 49.08 79.24 48.99 79.15 48.93 79.17 48.83 79.15 48.82 79.12 48.84 79.05 48.78 79.05 48.77 79.15 48.71 79.21 48.73 79.35 48.58 79.47 48.53 79.46 48.49 79.43 48.45 79.33 48.36 79.33 48.34 79.25 48.22 79.27 48.2 79.18 48.16 79.15 48.18 78.98 48.14 78.99 48.05 78.94 48.01 78.87 47.94 78.83 47.91 78.77 47.86 78.45 47.88 78.38 47.85 78.28 47.86 78.21 47.81 78.18 47.75 78.05 47.76 78.02 47.72 77.99 47.64 77.85 47.58 77.8 47.56 77.71 47.52 77.66 47.49 77.55 47.4 77.47 47.37 77.39 47.28 77.35 47.25 77.28 47.1 77.14 47.03 77.13 46.94 77.02 46.72 76.96 46.62 76.89 46.55 76.9 46.45 76.87 46.34 76.89 46.3 76.83 46.17 76.82 46.13 76.77 46 76.7 45.9 76.69 45.85 76.66 45.74 76.64 45.64 76.59 45.51 76.59 45.4 76.73 45.34 76.74 45.28 76.66 45.25 76.66 45.22 76.51 45.09 76.46 45.04 76.39 44.94 76.32 44.82 76.28 44.77 76.24 44.65 76.25 44.62 76.16 44.56 76.13 44.51 76.03 44.4 75.99 44.38 75.96 44.38 75.93 44.31 75.92 44.24 75.85 44.14 75.82 44.07 75.74 44.01 75.65 43.96 75.64 43.89 75.51 43.82 75.47 43.8 75.41 43.71 75.35 43.69 75.26 43.61 75.23 43.56 75.13 43.5 75.12 43.44 75.04 43.37 75.02 43.32 74.95 43.28 74.97 43.25 74.96 43.23 74.94 43 74.82 42.96 74.78 42.85 74.73 42.83 74.7 42.67 74.6 42.6 74.6 42.53 74.54 42.44 74.54 42.38 74.47 42.22 74.47 42.18 74.43 42.08 74.42 42 74.35 41.94 74.35 41.86 74.33 41.83 74.29 41.81 74.38 41.8 74.4 41.76 74.41 41.73 74.36 41.75 74.25 41.68 74.2 41.67 74.22 41.61 74.19 41.41 73.91 41.2 73.81 41.16 73.7 41.12 73.64 41.13 73.6 41.07 73.52 41.07 73.41 41.01 73.38 40.98 73.3 40.87 73.21 40.83 73.14 40.77 73.12 40.71 73.06 40.7 73 40.63 72.9 40.63 72.82 40.55 72.72 40.53 72.61 40.47 72.58 40.42 72.49 40.36 72.48 40.32 72.4 40.26 72.37 40.17 72.25 40.11 72.2 40.09 72.07 40.01 72.04 39.95 71.83 39.89 71.8 39.88 71.68 39.8 71.63 39.76 71.53 39.71 71.48 39.66 71.28 39.63 71.25 39.61 71.2 39.61 71.08 39.53 70.97 39.51 70.87 39.46 70.82 39.45 70.7 39.37 70.57 39.36 70.52 39.38 70.43 39.32 70.3 39.32 70.19 39.28 70.14 39.27 70.01 39.21 69.98 39.07 70.04 39.04 70.03 39.01 69.99 39.01 69.87 39.06 69.74 39.33 69.71 39.34 69.48 39.32 69.37 39.34 69.27 39.31 69.18 39.34 69.06 39.3 68.98 39.33 68.85 39.32 68.53 39.34 68.44 39.32 68.29 39.35 68.2 39.34 68.06 39.35 67.96 39.32 67.85 39.38 67.73 39.38 67.54 39.44 67.27 39.47 66.78 39.42 66.47 39.33 66.31 39.39 66.24 39.43 65.97 39.44 65.65 39.44 65.39 39.37 65.1 39.31 63.61 39.24 63.21 39.17 63 39.15 62.84 39.01 62.56 38.98 62.43 38.96 62.17 39.01 61.83 38.96 61.63 38.97 61.41 39 61.31 39.04 61.23 39.1 61.08 39.11 60.87 39.14 60.72 39.1 60.19 39.13 60.02 39.09 59.72 39.05 59.31 38.99 58.8 38.98 58.53 39.01 58.09 38.99 58 38.99 57.82 39.01 57.47 38.9 57.07 38.85 56.99 38.85 56.96 38.88 56.9 38.87 56.86 38.81 56.78 38.8 56.75 38.8 56.71 38.84 56.65 38.87 56.57 38.88 56.49 38.83 56.34 38.73 56.21 38.73 56.14 38.68 56.07 38.69 55.96 38.65 55.84 38.55 55.65 38.55 55.49 38.48 55.37 38.42 55.25 38.42 55.2 38.45 55.12 38.45 55.04 38.31 54.81 38.25 54.63 37.94 54.18 37.25 54.7 37.31 54.81 37.12 54.93 36.14 54.87 35.59 54.54 35.6 54.43 35.73 54.3 35.8 54.33 35.82 54.31 35.94 54.38 35.94 54.4 36.24 54.58 36.67 54.63 36.67 54.65 37.03 54.69 37.03 54.68 37.13 54.65 37.15 54.68 37.37 54.51 37.38 54.53 37.76 54.24 37.78 54.25 37.92 54.14 37.9 54.12 37.72 53.75 37.63 53.62 37.47 53.43 37.35 53.26 37.32 53.23 37.24 53.13 37.07 53.27 37.08 53.28 37.06 53.3 37.04 53.27 37.06 53.25 37.06 53.26 37.22 53.11 37.18 53.06 37.16 52.97 37.13 52.98 37.12 52.96 37.06 52.96 37 52.97 37 52.94 37.07 52.92 37.12 52.85 37.12 52.81 37.3 52.74 37.46 52.49 37.23 52.35 37.02 52.33 37 52.3 36.97 52.34 36.93 52.32 36.92 52.28 36.95 52.22 37.23 52.19 37.53 52.36 37.62 52.21 37.68 52.15 38.21 51.8 38.39 51.87 38.91 51.77 38.83 51.19 38.32 51.29 38.36 51.55 38.29 51.56 38.27 51.6 37.91 51.82 37.9 51.81 37.75 51.91 37.74 51.9 37.89 51.79 37.71 51.49 37.6 51.56 37.17 51.65 37.12 51.98 36.79 52.01 36.61 51.91 36.44 52.25 36.83 52.47 36.86 52.53 36.84 52.58 36.84 52.61 36.84 52.71 36.77 52.79 36.71 52.78 36.73 52.86 36.7 52.91 36.64 52.91 36.7 52.97 36.69 53.04 36.68 53.08 36.72 53.09 36.71 53.14 36.66 53.2 36.76 53.55 36.81 53.55 36.81 53.59 36.75 53.66 36.7 53.68 36.64 53.66 36.57 53.6 36.56 53.47 36.53 53.41 36.56 53.37 36.52 53.35 36.52 53.29 36.45 53.26 36.45 53.18 36.48 53.13 36.43 53.1 36.38 53.03 36.36 52.97 36.36 52.9 36.31 52.83 36.29 52.75 36.25 52.78 36.14 52.77 36.11 52.71 36.06 52.68 36.05 52.65 35.98 52.66 35.97 52.73 35.93 52.77 35.88 52.75 35.78 52.76 35.68 52.75 35.61 52.82 35.56 52.85 35.53 52.86 35.52 52.91 35.48 52.97 35.42 53 35.4 53.05 35.29 53.12 35.25 53.17 35.21 53.19 35.16 53.15 35.12 53.12 35.1 53.03 35.02 53.03 34.97 53.09 34.96 53.11 34.98 53.15 34.99 53.23 35.05 53.26 35.07 53.33 35.06 53.35 35.09 53.37 35.1 53.43 35.1 53.48 35.02 53.55 34.87 53.52 34.84 53.49 34.78 53.37 34.79 53.32 34.83 53.28 34.81 53.23 34.77 53.2 34.71 53.18 34.67 53.14 34.59 53.11 34.56 53.08 34.53 53.07 34.52 53.09 34.43 53.17 34.41 53.18 34.32 53.18 34.27 53.11 34.25 53.07 34.26 53.02 34.3 52.98 34.32 52.92 34.4 52.88 34.41 52.79 34.3 52.73 34.3 52.72 34.15 52.68 34.13 52.66 33.97 52.71 33.95 52.73 33.89 52.65 33.86 52.67 33.79 52.74 33.81 52.91 33.85 52.93 33.87 52.92 33.89 52.94 33.88 52.96 33.89 52.99 33.93 53.03 33.95 53.07 33.99 53.21 33.98 53.24 33.97 53.26 33.89 53.26 33.83 53.73 33.77 54.27 33.64 54.25 33.47 54.23 33.7 52.56 33.8 52.56 33.82 52.37 33.87 52.32 34.21 51.79 34.13 51.64 34.06 51.68 34.07 51.73 34.01 51.84 33.92 51.9 33.86 51.97 33.84 52.02 33.79 52.04 33.68 52.17 33.64 52.19 33.64 52.24 33.62 52.29 33.6 52.31 33.53 52.35 33.47 52.41 33.43 52.43 33.25 52.47 33.19 52.42 33.13 52.41 33.05 52.32 32.98 52.27 32.95 52.22 32.94 52.16 32.98 52.14 33.06 52.04 33.15 52.07 33.16 52.02 33.17 52.02 33.29 51.98 33.31 51.95 33.28 51.66 33.16 51.65 33.11 51.61 33.06 51.51 33 51.47 32.96 51.47 32.9 51.57 32.88 51.57 32.85 51.5 32.85 51.44 32.8 51.39 32.76 51.3 32.6 51.34 32.57 51.37 32.56 51.39 32.51 51.42 32.42 51.42 32.39 51.41 32.35 51.36 32.33 51.36 32.29 51.3 32.28 51.22 32.26 51.17 32.26 51.05 32.27 51.04 32.24 50.96 32.24 50.93 32.28 50.86 32.28 50.8 32.3 50.75 32.29 50.73 32.25 50.74 32.22 50.79 32.15 50.78 32.07 50.75 32 50.69 31.91 50.65 31.86 50.6 31.82 50.58 31.81 50.58 31.81 50.61 31.78 50.63 31.61 50.69 31.56 50.69 31.51 50.63 31.49 50.63 31.4 50.57 31.38 50.58 31.37 50.61 31.3 50.62 31.25 50.66 31.2 50.62 31.1 50.61 30.99 50.69 30.91 50.73 30.87 50.84 30.81 50.89 30.77 50.98 30.74 50.94 30.72 50.71 30.74 50.68 30.75 50.59 30.78 50.57 30.78 50.53 30.79 50.5 30.73 50.45 30.71 50.4 30.65 50.36 30.55 50.34 30.28 50.3 30.24 50.27 30.2 50.28 30.17 50.26 29.97 50.24 29.92 50.34 29.91 50.39 29.86 50.46 29.85 50.52 29.83 50.54 29.8 50.6 29.75 50.64 29.68 50.67 29.65 50.66 29.58 50.58 29.51 50.55 29.43 50.39 29.36 50.39 29.35 50.43 29.32 50.45 29.22 50.45 28.97 50.33 28.89 50.32 28.83 50.25 28.78 50.25 28.65 50.2 28.62 50.16 28.57 50.05 28.51 50.05 28.51 50.02 28.53 50.01 28.52 50.01 28.48 49.98 28.42 49.99 28.31 49.96 28.26 50.01 28.24 50.02 28.2 50.02 28.1 50.02 28.08 50.01 27.99 49.95 27.9 50.01 27.87 50.02 27.79 50.03 27.74 50.01 27.62 50.02 27.55 50.01 27.53 50.05 27.53 50.08 27.43 50.13 27.15 50.12 27.11 50.1 27.01 50.08 26.93 50.11 26.81 50.1"/>
</svg>